<?xml version="1.0" encoding="UTF-8" standalone="no"?>
<!-- Created with Inkscape (http://www.inkscape.org/) -->

<svg
   width="249.2375mm"
   height="249.2375mm"
   viewBox="0 0 249.2375 249.2375"
   version="1.1"
   id="svg5"
   inkscape:version="1.1.2 (b8e25be833, 2022-02-05)"
   sodipodi:docname="Thesis QR.svg"
   xmlns:inkscape="http://www.inkscape.org/namespaces/inkscape"
   xmlns:sodipodi="http://sodipodi.sourceforge.net/DTD/sodipodi-0.dtd"
   xmlns="http://www.w3.org/2000/svg"
   xmlns:svg="http://www.w3.org/2000/svg">
  <sodipodi:namedview
     id="namedview7"
     pagecolor="#ffffff"
     bordercolor="#666666"
     borderopacity="1.0"
     inkscape:pageshadow="2"
     inkscape:pageopacity="0.0"
     inkscape:pagecheckerboard="0"
     inkscape:document-units="mm"
     showgrid="false"
     inkscape:zoom="0.22645918"
     inkscape:cx="-540.93634"
     inkscape:cy="755.10297"
     inkscape:window-width="1920"
     inkscape:window-height="1217"
     inkscape:window-x="-8"
     inkscape:window-y="-8"
     inkscape:window-maximized="1"
     inkscape:current-layer="layer1" />
  <defs
     id="defs2" />
  <g
     inkscape:label="Layer 1"
     inkscape:groupmode="layer"
     id="layer1"
     transform="translate(-229.9034,-26.444627)">
    <path
       style="fill:#000000;stroke-width:0.264583"
       d="m 229.9034,249.2238 v -26.45834 h 26.45834 26.45833 v 26.45834 26.45833 H 256.36174 229.9034 Z m 45.24376,0.13229 v -18.91771 h -18.91771 -18.91771 v 18.91771 18.91771 h 18.91771 18.91771 z m -30.16251,0 v -11.2448 h 11.2448 11.24479 v 11.2448 11.24479 h -11.24479 -11.2448 z m 45.24376,7.54062 v -18.78542 h 3.83645 3.83646 v 7.54063 7.54063 h 3.70417 3.70417 v 7.54062 7.54063 h -3.70417 -3.70417 v 3.70416 3.70417 h -3.83646 -3.83645 z m 30.1625,11.24479 v -7.54062 h 3.83646 3.83645 v -3.70417 -3.70416 h -3.83645 -3.83646 v -3.83646 -3.83646 h -7.54063 -7.54062 v -7.54063 -7.54062 h -7.54063 -7.54062 v -7.54063 -7.54062 h -11.37709 -11.37708 v -7.54063 -7.54062 h 3.83646 3.83646 v -3.83646 -3.83646 h -7.54063 -7.54063 v 11.37708 11.37709 h -7.54062 -7.54063 v -15.08125 -15.08125 h -3.83645 -3.83646 v 15.08125 15.08125 h -3.70417 -3.70417 v -18.91771 -18.91771 h 3.70417 3.70417 v -3.83646 -3.83645 h -3.70417 -3.70417 v -3.70417 -3.70417 h 3.70417 3.70417 v -7.54062 -7.54063 h -3.70417 -3.70417 v -11.37708 -11.37708 h 7.54063 7.54062 v -3.83646 -3.83646 h -7.54062 -7.54063 v -7.54063 -7.54062 h 11.2448 11.24479 V 98.146711 94.442544 H 241.1482 229.9034 v -3.836458 -3.836459 h 18.78542 18.78542 v 3.836459 3.836458 h 3.83646 3.83646 v -3.836458 -3.836459 h 18.9177 18.91771 v 3.836459 3.836458 h -3.83646 -3.83645 v 7.540626 7.54063 h 3.83645 3.83646 v -3.83646 -3.83646 h 7.54063 7.54062 v 3.83646 3.83646 h -3.83645 -3.83646 v 7.54062 7.54063 h 11.37708 11.37708 v -3.83646 -3.83646 h -3.70416 -3.70417 v -3.70417 -3.70416 h 3.70417 3.70416 v -3.83646 -3.83646 h 7.54063 7.54062 v -3.704169 -3.704167 h 3.83646 3.83646 v 7.540626 7.54063 h -7.54063 -7.54062 v 7.54062 7.54063 h 3.70417 3.70416 v 3.83645 3.83646 h 3.83646 3.83646 v -3.83646 -3.83645 h 3.70417 3.70416 v -3.83646 -3.83646 h 3.83646 3.83646 v -7.54063 -7.54062 h -3.83646 -3.83646 v -3.704169 -3.704167 h 7.67292 7.67292 v -7.540625 -7.540625 h -3.83646 -3.83646 v -7.672917 -7.672916 h -3.83646 -3.83646 v 7.672916 7.672917 h -3.70416 -3.70417 v -7.672917 -7.672916 h -3.83646 -3.83646 v 11.377083 11.377083 h -3.70416 -3.70417 v -7.540624 -7.540626 h -3.83646 -3.83646 v 3.836459 3.836458 h -3.70416 -3.70417 v 3.704167 3.704166 h 3.70417 3.70416 v 3.836459 3.836458 h -3.70416 -3.70417 v -3.836458 -3.836459 h -3.83646 -3.83646 v 3.836459 3.836458 h -3.83645 -3.83646 V 83.065461 71.688377 h 3.83646 3.83645 v -3.836458 -3.836458 h -3.83645 -3.83646 v -3.704167 -3.704167 h -3.70417 -3.70417 v 11.377084 11.377083 h -3.83646 -3.83645 V 67.984211 56.607127 h -7.54063 -7.54062 V 52.770668 48.93421 h 3.83645 3.83646 v -3.704167 -3.704167 h -3.83646 -3.83645 V 37.689419 33.85296 h 3.83645 3.83646 v -3.704166 -3.704167 h 3.70417 3.70417 v 7.540625 7.540624 h 3.83645 3.83646 V 37.689419 33.85296 h 7.54063 7.54062 v 3.836459 3.836457 h -3.83645 -3.83646 v 7.540625 7.540626 h 15.21354 15.21354 v 3.704167 3.704167 h 3.70417 3.70416 V 56.474835 48.93421 h -3.70416 -3.70417 v -3.704167 -3.704167 h 3.70417 3.70416 v 3.704167 3.704167 h 3.83646 3.83646 v -3.704167 -3.704167 h 7.54062 7.54063 v 3.704167 3.704167 h 3.83646 3.83646 v -3.704167 -3.704167 h 3.70416 3.70417 V 37.689419 33.85296 h 3.83646 3.83646 v -3.704166 -3.704167 h 3.70416 3.70417 v 3.704167 3.704166 h -3.70417 -3.70416 v 7.540625 7.540625 h 3.70416 3.70417 v -3.704167 -3.704167 h 3.83646 3.83646 v 7.540625 7.540626 h -3.83646 -3.83646 v 3.704167 3.704167 h 3.83646 3.83646 v 7.672916 7.672917 h -3.83646 -3.83646 v 3.704167 3.704166 h 7.54063 7.54062 v 3.836459 3.836458 h 3.83646 3.83646 v -3.836458 -3.836459 h 3.83646 3.83645 v 3.836459 3.836458 h -3.83645 -3.83646 v 3.704167 3.704169 h -3.83646 -3.83646 v 3.83646 3.83646 h 7.67292 7.67291 v 3.70416 3.70417 h 7.54063 7.54063 v -3.70417 -3.70416 h -3.83646 -3.83646 v -3.83646 -3.83646 h 3.83646 3.83646 v -3.704169 -3.704167 h -3.83646 -3.83646 v -3.836458 -3.836459 h 3.83646 3.83646 v 3.836459 3.836458 h 3.70416 3.70417 v -3.836458 -3.836459 h 3.83646 3.83646 v 3.836459 3.836458 h 3.70416 3.70417 v 3.704167 3.704169 h -3.70417 -3.70416 v 3.83646 3.83646 h -3.83646 -3.83646 v 3.70416 3.70417 h -3.70417 -3.70416 v 3.83646 3.83646 h -11.37709 -11.37708 v 7.54062 7.54062 h -3.83646 -3.83646 v 7.54063 7.54063 h 3.83646 3.83646 v -3.70417 -3.70417 h 3.83646 3.83645 v -3.83646 -3.83646 h 3.70417 3.70417 v 7.54063 7.54063 h 3.83646 3.83646 v 7.54062 7.54063 h 3.70416 3.70417 V 158.604 147.35921 h -3.70417 -3.70416 v -3.83646 -3.83646 h 3.70416 3.70417 v -7.54062 -7.54062 h 7.54062 7.54063 v 3.83645 3.83646 h -3.70417 -3.70416 v 3.70417 3.70416 h -3.83646 -3.83646 v 3.83646 3.83646 h 3.83646 3.83646 v 3.70417 3.70417 h 3.70416 3.70417 v 3.83645 3.83646 h -3.70417 -3.70416 v 3.70417 3.70417 h -3.83646 -3.83646 v 3.83645 3.83646 h 3.83646 3.83646 v 3.83646 3.83646 h 3.70416 3.70417 v 3.70416 3.70417 h -3.70417 -3.70416 v 3.83646 3.83646 h -3.83646 -3.83646 v 3.70416 3.70417 h -7.54063 -7.54062 v 3.83646 3.83646 h 3.83646 3.83646 v 3.70416 3.70417 h 7.54062 7.54063 v -7.54062 -7.54063 h 3.70416 3.70417 v 7.54063 7.54062 h -3.70417 -3.70416 v 3.83646 3.83646 h 3.70416 3.70417 v 11.37708 11.37709 h -7.54063 -7.54062 v 7.54062 7.54063 h 3.83646 3.83646 v 3.70416 3.70417 h -3.83646 -3.83646 v -3.70417 -3.70416 h -7.54063 -7.54062 v 3.70416 3.70417 h -3.70417 -3.70417 v -3.70417 -3.70416 h -3.83645 -3.83646 v 3.70416 3.70417 h -18.91771 -18.91771 v -3.70417 -3.70416 h -7.54062 -7.54063 v -7.54063 -7.54062 h -3.83646 -3.83646 v 7.54062 7.54063 h -3.70416 -3.70417 v 3.70416 3.70417 h -15.08125 -15.08125 v -3.70417 -3.70416 h -3.83646 -3.83646 v 3.70416 3.70417 h -3.83645 -3.83646 z m 22.75416,-3.70416 v -3.83646 h -3.70416 -3.70417 v 3.83646 3.83646 h 3.70417 3.70416 z m 22.75417,0 v -3.83646 h -3.83646 -3.83646 v -3.70417 -3.70416 h 7.54063 7.54062 v -3.83646 -3.83646 h 3.83646 3.83646 v -3.70417 -3.70417 h 3.83646 3.83646 v 7.54063 7.54063 h 3.70416 3.70417 v 7.54062 7.54063 h 11.37708 11.37709 v -3.83646 -3.83646 h 3.70416 3.70417 v 3.83646 3.83646 h 3.83646 3.83646 v -3.83646 -3.83646 h 7.54062 7.54063 v -3.70417 -3.70416 h 7.54062 7.54063 v -3.83646 -3.83646 h 3.83646 3.83646 v -7.54063 -7.54062 h -3.83646 -3.83646 v 3.83646 3.83645 h -7.54063 -7.54062 v 7.54063 7.54063 h -3.70417 -3.70417 v -3.83646 -3.83646 h -7.67291 -7.67292 v 3.83646 3.83646 h -11.24479 -11.24479 v -3.83646 -3.83646 h 3.70416 3.70417 v -3.70417 -3.70417 h -3.70417 -3.70416 v -3.83645 -3.83646 h -3.83646 -3.83646 v 3.83646 3.83645 h -3.70417 -3.70416 v -3.83645 -3.83646 h -3.83646 -3.83646 v -3.83646 -3.83646 h -7.54063 -7.54062 v -3.70417 -3.70416 h 3.70417 3.70416 v -3.83646 -3.83646 h 3.83646 3.83646 v 3.83646 3.83646 h 3.83646 3.83646 v -7.54063 -7.54062 h 3.70416 3.70417 v -7.54063 -7.54062 h -3.70417 -3.70416 v 7.54062 7.54063 h -3.83646 -3.83646 v -3.83646 -3.83646 h -3.83646 -3.83646 v 7.54063 7.54062 h -3.70416 -3.70417 v -3.70417 -3.70416 h -3.83646 -3.83646 v -3.83646 -3.83646 h 3.83646 3.83646 v -3.70417 -3.70416 h 7.54062 7.54063 v -3.83646 -3.83646 h 3.83646 3.83646 v -3.83646 -3.83645 h -3.83646 -3.83646 v -7.54063 -7.54062 h -3.83646 -3.83646 v -7.54063 -7.54063 h 3.83646 3.83646 v -7.54062 -7.54062 h 3.83646 3.83646 v 3.83645 3.83646 h 3.70416 3.70417 v 7.54063 7.54062 h 3.83646 3.83646 v 3.70417 3.70417 h -3.83646 -3.83646 v 3.83645 3.83646 h 3.83646 3.83646 v 3.70417 3.70417 h -3.83646 -3.83646 v 3.83645 3.83646 h 7.54063 7.54062 v -7.54062 -7.54063 h 3.83646 3.83646 v 3.70417 3.70417 h 11.37708 11.37708 v 3.83645 3.83646 h -11.37708 -11.37708 v 3.83646 3.83646 h -3.83646 -3.83646 v 3.70416 3.70417 h -3.70417 -3.70416 v 11.37708 11.37709 h 3.70416 3.70417 v -3.83646 -3.83646 h 7.54063 7.54062 v -3.70417 -3.70416 h -7.54062 -7.54063 v -3.83646 -3.83646 h 7.54063 7.54062 v -3.70417 -3.70416 h 3.83646 3.83646 v 11.24479 11.24479 h 7.54062 7.54063 v -11.24479 -11.24479 h 3.83646 3.83646 v 7.54062 7.54063 h 3.70416 3.70417 v -11.37709 -11.37708 h -3.70417 -3.70416 v -3.83646 -3.83645 h -7.54063 -7.54063 v -3.70417 -3.70417 h 3.70417 3.70417 v -3.83646 -3.83645 h -7.54063 -7.54062 v 3.83645 3.83646 h -7.54063 -7.54062 v -11.37708 -11.37709 h 3.70416 3.70417 v -7.54062 -7.54062 h 3.83646 3.83646 v -3.83646 -3.83646 h -3.83646 -3.83646 v 3.83646 3.83646 h -7.54062 -7.54063 v -3.83646 -3.83646 h -3.70417 -3.70416 v -3.70417 -3.70416 h 3.70416 3.70417 v -3.83646 -3.83646 h -7.54062 -7.54063 v 7.54062 7.54063 h -7.54062 -7.54063 v 3.83646 3.83646 h -3.83646 -3.83646 v 3.83645 3.83646 h -3.70416 -3.70417 v 3.70417 3.70416 h -15.08125 -15.08125 v 3.83646 3.83646 h -3.83646 -3.83646 v 3.70417 3.70417 h -3.83645 -3.83646 v -7.54063 -7.54063 h 3.83646 3.83645 v -3.70416 -3.70417 h -3.83645 -3.83646 v -3.83646 -3.83645 h -3.70417 -3.70417 v -3.83646 -3.83646 h -3.83646 -3.83645 v 3.83646 3.83646 h -3.70417 -3.70417 v -7.54063 -7.54062 h -11.37708 -11.37708 v 3.70416 3.70417 h 3.83645 3.83646 v 3.83646 3.83646 h -3.83646 -3.83645 v 3.83645 3.83646 h 3.83645 3.83646 v 3.70417 3.70416 h -3.83646 -3.83645 v 3.83646 3.83646 h 3.83645 3.83646 v -3.83646 -3.83646 h 7.54063 7.54062 v 3.83646 3.83646 h -3.83646 -3.83645 v 3.70417 3.70417 h 3.83645 3.83646 v -3.70417 -3.70417 h 3.70417 3.70417 v 7.54063 7.54062 h -11.2448 -11.24479 v -3.83646 -3.83645 h -3.83646 -3.83645 v 3.83645 3.83646 h 3.83645 3.83646 v 3.70417 3.70417 h -7.67291 -7.67292 V 158.604 147.35921 h -7.54063 -7.54062 v 3.70417 3.70417 h 3.83646 3.83645 v 3.83645 3.83646 h -11.37708 -11.37708 v 3.70417 3.70417 h 3.83646 3.83645 v 3.83645 3.83646 h 3.70417 3.70417 v 7.54063 7.54062 h 3.83646 3.83645 v -3.70417 -3.70416 h 7.54063 7.54063 v 3.70416 3.70417 h 7.54062 7.54063 v 3.83646 3.83646 h -7.54063 -7.54062 v 3.70416 3.70417 h 7.54062 7.54063 v 3.83646 3.83646 h 3.83645 3.83646 v 3.70416 3.70417 h 15.08125 15.08125 v 3.83646 3.83646 h -3.83645 -3.83646 v 7.54062 7.54063 h 15.21354 15.21354 v -7.54063 -7.54062 h -3.83646 -3.83646 v -7.54063 -7.54062 h -3.70416 -3.70417 v -3.83646 -3.83646 h 15.08125 15.08125 v 3.83646 3.83646 h -3.83646 -3.83646 v 11.37708 11.37708 h 3.83646 3.83646 v 3.70417 3.70417 h -3.83646 -3.83646 v 3.83646 3.83646 h -3.70416 -3.70417 v 3.70416 3.70417 h 3.70417 3.70416 v 3.83646 3.83646 h 3.83646 3.83646 z m 60.325,-7.54063 v -3.70416 h 3.83646 3.83646 v 3.70416 3.70417 h -3.83646 -3.83646 z m -30.1625,-15.08125 v -3.70417 h 3.83646 3.83646 v 3.70417 3.70417 h -3.83646 -3.83646 z m -60.325,-7.54062 v -3.83646 h 3.70417 3.70416 v 3.83646 3.83645 h -3.70416 -3.70417 z m 37.57083,0 v -3.83646 h 3.83646 3.83646 v 3.83646 3.83645 h -3.83646 -3.83646 z m -75.40625,-22.75417 v -3.83646 h -3.83646 -3.83645 v -3.70417 -3.70416 h 3.83645 3.83646 v -3.83646 -3.83646 h -3.83646 -3.83645 v -7.54062 -7.54063 h -3.70417 -3.70417 v 3.83646 3.83646 h -3.83646 -3.83645 v -3.83646 -3.83646 h 3.83645 3.83646 v -3.83646 -3.83645 h 3.70417 3.70417 v 3.83645 3.83646 h 3.83645 3.83646 v -3.83646 -3.83645 h 3.70417 3.70417 v -3.70417 -3.70417 h 11.37708 11.37708 v 3.70417 3.70417 h -3.83645 -3.83646 v 7.67291 7.67292 h 11.37708 11.37708 v 3.70416 3.70417 h 3.83646 3.83646 v -3.70417 -3.70416 h 3.70417 3.70416 v -3.83646 -3.83646 h -3.70416 -3.70417 v -3.83646 -3.83645 h -3.83646 -3.83646 v 3.83645 3.83646 h -3.70416 -3.70417 v -3.83646 -3.83645 h 3.70417 3.70416 v -3.70417 -3.70417 h 3.83646 3.83646 v -3.83646 -3.83645 h -7.54062 -7.54063 v -3.70417 -3.70417 h 7.54063 7.54062 v 3.70417 3.70417 h 3.70417 3.70416 v -3.70417 -3.70417 h 3.83646 3.83646 v 3.70417 3.70417 h 3.70417 3.70416 v 7.54062 7.54063 h 3.83646 3.83646 v 3.83645 3.83646 h -3.83646 -3.83646 v -3.83646 -3.83645 h -3.70416 -3.70417 v -3.70417 -3.70417 h -3.83646 -3.83646 v 7.54063 7.54062 h 3.83646 3.83646 v 3.83646 3.83646 h -3.83646 -3.83646 v 3.70416 3.70417 h -3.70416 -3.70417 v 3.83646 3.83646 h -7.54062 -7.54063 v 3.70416 3.70417 h -3.83646 -3.83646 v 3.83646 3.83646 h -3.83645 -3.83646 v -7.54063 -7.54062 h 3.83646 3.83645 v -3.83646 -3.83646 h -3.83645 -3.83646 v -3.70417 -3.70416 h -3.70417 -3.70417 v 3.70416 3.70417 h -3.83646 -3.83645 v 7.54063 7.54062 h 3.83645 3.83646 v 3.83646 3.83646 h -7.54062 -7.54063 z m 15.08125,-30.1625 v -3.83646 h -7.54062 -7.54063 v 3.83646 3.83646 h 7.54063 7.54062 z m 128.5875,0 v -3.83646 h 3.70417 3.70417 v 3.83646 3.83646 h -3.70417 -3.70417 z m -189.17708,-7.67292 v -3.83645 h 3.83646 3.83645 v 3.83645 3.83646 h -3.83645 -3.83646 z M 403.73466,158.604 v -3.83645 h 3.70416 3.70417 v 3.83645 3.83646 h -3.70417 -3.70416 z m -98.425,-15.08125 v -3.83646 h -3.70417 -3.70417 v -3.70416 -3.70417 h -3.83646 -3.83645 v -3.83646 -3.83645 h 3.83645 3.83646 v 3.83645 3.83646 h 3.70417 3.70417 v -3.83646 -3.83645 h 3.83645 3.83646 v 3.83645 3.83646 h -3.83646 -3.83645 v 3.70417 3.70416 h 3.83645 3.83646 v 3.83646 3.83646 h -3.83646 -3.83645 z m 98.425,-15.08125 v -3.83645 h -3.83646 -3.83646 v -3.83646 -3.83646 h 3.83646 3.83646 v 3.83646 3.83646 h 3.70416 3.70417 v 3.83645 3.83646 h -3.70417 -3.70416 z m 37.83541,98.29271 v -11.37708 h -11.37708 -11.37708 v 11.37708 11.37708 h 11.37708 11.37708 z m -15.34583,-0.13229 v -3.83646 h 3.83646 3.83646 v 3.83646 3.83646 h -3.83646 -3.83646 z M 244.98465,143.52275 v -3.83646 h 3.70417 3.70417 v -3.70416 -3.70417 h 3.83646 3.83645 v -3.83646 -3.83645 h -7.54062 -7.54063 v 3.83645 3.83646 h -3.83645 -3.83646 v 7.54063 7.54062 h 3.83646 3.83645 z M 350.81799,128.4415 v -3.83645 h -3.83646 -3.83646 v 3.83645 3.83646 h 3.83646 3.83646 z M 267.47424,105.68734 V 94.442544 h -3.70417 -3.70417 v 7.540626 7.54063 h -3.83645 -3.83646 v 3.70416 3.70417 h 7.54062 7.54063 z m 196.58542,0 v -3.83646 h -3.70417 -3.70416 v 3.83646 3.83646 h 3.70416 3.70417 z M 290.22841,98.146711 v -3.704167 h -7.54063 -7.54062 v 3.704167 3.704169 h 7.54062 7.54063 z m 135.99583,0 v -3.704167 h -3.70417 -3.70416 v 3.704167 3.704169 h 3.70416 3.70417 z m -90.4875,-22.621875 v -3.836459 h -3.83646 -3.83646 v 3.836459 3.836458 h 3.83646 3.83646 z m 60.325,-3.836459 v -7.672916 h 3.83646 3.83646 v 7.672916 7.672917 h 3.70416 3.70417 v -7.672917 -7.672916 h -3.70417 -3.70416 V 56.474835 48.93421 h -7.54063 -7.54062 v 15.213542 15.213542 h 3.70416 3.70417 z M 312.98257,52.770668 V 48.93421 h -3.83646 -3.83645 v 3.836458 3.836459 h 3.83645 3.83646 z m 67.99792,0 V 48.93421 h -7.54063 -7.54062 v 3.836458 3.836459 h 7.54062 7.54063 z M 229.9034,52.90296 V 26.444627 h 26.45834 26.45833 V 52.90296 79.361294 H 256.36174 229.9034 Z m 45.24376,-0.132292 V 33.85296 h -18.91771 -18.91771 v 18.917708 18.917709 h 18.91771 18.91771 z m -30.16251,0 V 41.525876 h 11.2448 11.24479 v 11.244792 11.244793 h -11.24479 -11.2448 z m 45.24376,18.917709 v -7.672916 h 3.83645 3.83646 v 7.672916 7.672917 h -3.83646 -3.83645 z M 426.22424,52.90296 V 26.444627 h 26.45834 26.45833 V 52.90296 79.361294 h -26.45833 -26.45834 z m 45.50834,-0.132292 V 33.85296 h -18.91771 -18.91771 v 18.917708 18.917709 h 18.91771 18.91771 z m -30.16251,0 V 41.525876 h 11.2448 11.24479 v 11.244792 11.244793 h -11.24479 -11.2448 z M 335.73674,45.230043 v -3.704167 h 3.70417 3.70416 v 3.704167 3.704167 h -3.70416 -3.70417 z m 7.40833,-15.081249 v -3.704167 h 7.54063 7.54062 v 3.704167 3.704166 h -7.54062 -7.54063 z m 30.1625,0 v -3.704167 h 7.67292 7.67292 v 3.704167 3.704166 h -7.67292 -7.67292 z"
       id="path836" />
  </g>
</svg>
