<?xml version="1.0" encoding="UTF-8" standalone="no"?>
<!-- Created with Inkscape (http://www.inkscape.org/) -->

<svg
   version="1.1"
   id="svg2"
   xml:space="preserve"
   width="237.88618"
   height="164.19627"
   viewBox="0 0 237.88618 164.19628"
   sodipodi:docname="Multijunction solar cells green2016.svg"
   inkscape:version="1.1.1 (3bf5ae0d25, 2021-09-20)"
   xmlns:inkscape="http://www.inkscape.org/namespaces/inkscape"
   xmlns:sodipodi="http://sodipodi.sourceforge.net/DTD/sodipodi-0.dtd"
   xmlns="http://www.w3.org/2000/svg"
   xmlns:svg="http://www.w3.org/2000/svg"><defs
     id="defs6"><clipPath
       clipPathUnits="userSpaceOnUse"
       id="clipPath620"><path
         d="M 384.841,600.811 H 547.449 V 714.409 H 384.841 Z"
         id="path618" /></clipPath><clipPath
       clipPathUnits="userSpaceOnUse"
       id="clipPath652"><path
         d="M 384.841,600.811 H 547.449 V 714.409 H 384.841 Z"
         id="path650" /></clipPath><clipPath
       clipPathUnits="userSpaceOnUse"
       id="clipPath780"><path
         d="M 41.244,577.214 H 557.365 V 724.11 H 41.244 Z"
         id="path778" /></clipPath><clipPath
       clipPathUnits="userSpaceOnUse"
       id="clipPath792"><path
         d="M 41.244,577.214 H 557.365 V 724.11 H 41.244 Z"
         id="path790" /></clipPath><clipPath
       clipPathUnits="userSpaceOnUse"
       id="clipPath820"><path
         d="M 41.244,577.214 H 557.365 V 724.11 H 41.244 Z"
         id="path818" /></clipPath><clipPath
       clipPathUnits="userSpaceOnUse"
       id="clipPath1072"><path
         d="m 282.867,650.043 h 37.283 v -8.674 h -37.283 z"
         id="path1070" /></clipPath><clipPath
       clipPathUnits="userSpaceOnUse"
       id="clipPath1076"><path
         d="m 282.867,641.369 h 37.283 v 8.674 h -37.283 z"
         id="path1074" /></clipPath><clipPath
       clipPathUnits="userSpaceOnUse"
       id="clipPath1096"><path
         d="m 283.924,621.839 h 37.046 v -8.675 h -37.046 z"
         id="path1094" /></clipPath><clipPath
       clipPathUnits="userSpaceOnUse"
       id="clipPath1100"><path
         d="m 283.924,613.164 h 37.046 v 8.675 h -37.046 z"
         id="path1098" /></clipPath><clipPath
       clipPathUnits="userSpaceOnUse"
       id="clipPath1348"><path
         d="M 41.244,577.214 H 557.365 V 724.11 H 41.244 Z"
         id="path1346" /></clipPath><clipPath
       clipPathUnits="userSpaceOnUse"
       id="clipPath1446"><path
         d="M 0,0 H 595.275 V 782.362 H 0 Z"
         id="path1444" /></clipPath><clipPath
       clipPathUnits="userSpaceOnUse"
       id="clipPath1620"><path
         d="M 0,0 H 595.276 V 782.362 H 0 Z"
         id="path1618" /></clipPath><clipPath
       clipPathUnits="userSpaceOnUse"
       id="clipPath1628"><path
         d="m 595.276,782.362 h 595.276 V 0 H 595.276 Z"
         id="path1626" /></clipPath></defs><sodipodi:namedview
     id="namedview4"
     pagecolor="#ffffff"
     bordercolor="#666666"
     borderopacity="1.0"
     inkscape:pageshadow="2"
     inkscape:pageopacity="0.0"
     inkscape:pagecheckerboard="0"
     showgrid="false"
     inkscape:zoom="1.3785179"
     inkscape:cx="-47.514797"
     inkscape:cy="93.94147"
     inkscape:window-width="2560"
     inkscape:window-height="1017"
     inkscape:window-x="-8"
     inkscape:window-y="-8"
     inkscape:window-maximized="1"
     inkscape:current-layer="g8" /><g
     id="g8"
     inkscape:groupmode="layer"
     inkscape:label="Multijunction solar cells green2016"
     transform="matrix(1.3333333,0,0,-1.3333333,-498.14663,952.71184)"><g
       id="g530"
       transform="translate(383.5623,705.1627)"><path
         d="M 0,0 H 1.279"
         style="fill:none;stroke:#231f20;stroke-width:0.25;stroke-linecap:butt;stroke-linejoin:miter;stroke-miterlimit:10;stroke-dasharray:none;stroke-opacity:1"
         id="path532" /></g><g
       id="g534"
       transform="translate(383.5623,692.2836)"><path
         d="M 0,0 H 1.279"
         style="fill:none;stroke:#231f20;stroke-width:0.25;stroke-linecap:butt;stroke-linejoin:miter;stroke-miterlimit:10;stroke-dasharray:none;stroke-opacity:1"
         id="path536" /></g><g
       id="g538"
       transform="translate(383.5623,679.0745)"><path
         d="M 0,0 H 1.279"
         style="fill:none;stroke:#231f20;stroke-width:0.25;stroke-linecap:butt;stroke-linejoin:miter;stroke-miterlimit:10;stroke-dasharray:none;stroke-opacity:1"
         id="path540" /></g><g
       id="g542"
       transform="translate(383.5623,666.1956)"><path
         d="M 0,0 H 1.279"
         style="fill:none;stroke:#231f20;stroke-width:0.25;stroke-linecap:butt;stroke-linejoin:miter;stroke-miterlimit:10;stroke-dasharray:none;stroke-opacity:1"
         id="path544" /></g><g
       id="g546"
       transform="translate(383.5623,652.9865)"><path
         d="M 0,0 H 1.279"
         style="fill:none;stroke:#231f20;stroke-width:0.25;stroke-linecap:butt;stroke-linejoin:miter;stroke-miterlimit:10;stroke-dasharray:none;stroke-opacity:1"
         id="path548" /></g><g
       id="g550"
       transform="translate(383.5623,640.1074)"><path
         d="M 0,0 H 1.279"
         style="fill:none;stroke:#231f20;stroke-width:0.25;stroke-linecap:butt;stroke-linejoin:miter;stroke-miterlimit:10;stroke-dasharray:none;stroke-opacity:1"
         id="path552" /></g><g
       id="g554"
       transform="translate(383.5623,626.8983)"><path
         d="M 0,0 H 1.279"
         style="fill:none;stroke:#231f20;stroke-width:0.25;stroke-linecap:butt;stroke-linejoin:miter;stroke-miterlimit:10;stroke-dasharray:none;stroke-opacity:1"
         id="path556" /></g><g
       id="g558"
       transform="translate(383.5623,613.6891)"><path
         d="M 0,0 H 1.279"
         style="fill:none;stroke:#231f20;stroke-width:0.25;stroke-linecap:butt;stroke-linejoin:miter;stroke-miterlimit:10;stroke-dasharray:none;stroke-opacity:1"
         id="path560" /></g><g
       id="g562"
       transform="translate(383.5623,600.8102)"><path
         d="M 0,0 H 1.279"
         style="fill:none;stroke:#231f20;stroke-width:0.25;stroke-linecap:butt;stroke-linejoin:miter;stroke-miterlimit:10;stroke-dasharray:none;stroke-opacity:1"
         id="path564" /></g><g
       id="g566"
       transform="translate(547.4501,600.8102)"><path
         d="M 0,0 V -2.342"
         style="fill:none;stroke:#231f20;stroke-width:0.25;stroke-linecap:butt;stroke-linejoin:miter;stroke-miterlimit:10;stroke-dasharray:none;stroke-opacity:1"
         id="path568" /></g><g
       id="g570"
       transform="translate(531.1892,600.8102)"><path
         d="M 0,0 V -2.342"
         style="fill:none;stroke:#231f20;stroke-width:0.25;stroke-linecap:butt;stroke-linejoin:miter;stroke-miterlimit:10;stroke-dasharray:none;stroke-opacity:1"
         id="path572" /></g><g
       id="g574"
       transform="translate(514.9283,600.8102)"><path
         d="M 0,0 V -2.342"
         style="fill:none;stroke:#231f20;stroke-width:0.25;stroke-linecap:butt;stroke-linejoin:miter;stroke-miterlimit:10;stroke-dasharray:none;stroke-opacity:1"
         id="path576" /></g><g
       id="g578"
       transform="translate(498.6674,600.8102)"><path
         d="M 0,0 V -2.342"
         style="fill:none;stroke:#231f20;stroke-width:0.25;stroke-linecap:butt;stroke-linejoin:miter;stroke-miterlimit:10;stroke-dasharray:none;stroke-opacity:1"
         id="path580" /></g><g
       id="g582"
       transform="translate(482.4065,600.8102)"><path
         d="M 0,0 V -2.342"
         style="fill:none;stroke:#231f20;stroke-width:0.25;stroke-linecap:butt;stroke-linejoin:miter;stroke-miterlimit:10;stroke-dasharray:none;stroke-opacity:1"
         id="path584" /></g><g
       id="g586"
       transform="translate(466.1456,600.8102)"><path
         d="M 0,0 V -2.342"
         style="fill:none;stroke:#231f20;stroke-width:0.25;stroke-linecap:butt;stroke-linejoin:miter;stroke-miterlimit:10;stroke-dasharray:none;stroke-opacity:1"
         id="path588" /></g><g
       id="g590"
       transform="translate(449.8847,600.8102)"><path
         d="M 0,0 V -2.342"
         style="fill:none;stroke:#231f20;stroke-width:0.25;stroke-linecap:butt;stroke-linejoin:miter;stroke-miterlimit:10;stroke-dasharray:none;stroke-opacity:1"
         id="path592" /></g><g
       id="g594"
       transform="translate(433.6238,600.8102)"><path
         d="M 0,0 V -2.342"
         style="fill:none;stroke:#231f20;stroke-width:0.25;stroke-linecap:butt;stroke-linejoin:miter;stroke-miterlimit:10;stroke-dasharray:none;stroke-opacity:1"
         id="path596" /></g><g
       id="g598"
       transform="translate(417.3629,600.8102)"><path
         d="M 0,0 V -2.342"
         style="fill:none;stroke:#231f20;stroke-width:0.25;stroke-linecap:butt;stroke-linejoin:miter;stroke-miterlimit:10;stroke-dasharray:none;stroke-opacity:1"
         id="path600" /></g><g
       id="g602"
       transform="translate(401.102,600.8102)"><path
         d="M 0,0 V -2.342"
         style="fill:none;stroke:#231f20;stroke-width:0.25;stroke-linecap:butt;stroke-linejoin:miter;stroke-miterlimit:10;stroke-dasharray:none;stroke-opacity:1"
         id="path604" /></g><g
       id="g606"
       transform="translate(384.8411,600.8102)"><path
         d="M 0,0 V -2.342"
         style="fill:none;stroke:#231f20;stroke-width:0.25;stroke-linecap:butt;stroke-linejoin:miter;stroke-miterlimit:10;stroke-dasharray:none;stroke-opacity:1"
         id="path608" /></g><g
       id="g610"
       transform="translate(464.1993,654.9727)"><path
         d="M 0,0 H 0.259"
         style="fill:none;stroke:#4f9faf;stroke-width:0.5;stroke-linecap:round;stroke-linejoin:round;stroke-miterlimit:10;stroke-dasharray:none;stroke-opacity:1"
         id="path612" /></g><g
       id="g614"><g
         id="g616"
         clip-path="url(#clipPath620)"><g
           id="g622"
           transform="translate(377.5664,647.3752)"><path
             d="m 0,0 h 0.33 0.33 0.329 v 0.33 h 0.342 0.33 l 0.33,0.33 H 2.32 2.65 l 0.33,0.329 h 0.33 0.33 0.329 v 0.33 h 0.33 0.33 v 0.33 h 0.33 0.33 0.329 v 0.33 h 0.33 0.33 v 0.33 h 0.33 0.341 0.33 v 0.329 h 0.33 0.33 v 0.33 h 0.33 0.329 0.33 v 0.33 h 0.33 0.33 v 0.33 h 0.33 0.33 v 0.33 h 0.329 0.33 0.33 v 0.329 h 0.33 0.33 v 0.33 h 0.341 0.33 v 0.33 h 0.33 0.33 v 0.33 h 0.329 0.33 l 0.33,0.33 h 0.33 0.33 v 0.33 h 0.329 0.33 v 0.329 h 0.33 0.33 l 0.33,0.33 h 0.329 0.33 0.33 v 0.342 h 0.342 0.329 0.33 0.33 v 0.33 h 0.33 0.33 0.329 0.33 0.33 v 0.329 h 0.33 0.33 0.329 0.33 0.33 l 0.33,0.33 h 0.33 0.33 0.341 0.33 0.33 v 0.33 h 0.33 0.329 0.33 0.33 v 0.33 h 0.33 0.33 0.329 0.33 v 0.33 h 0.33 0.33 v 0.329 h 0.33 0.329 l 0.33,0.33 h 0.33 l 0.342,0.33 h 0.329 0.33 v 0.33 h 0.33 0.33 l 0.33,0.33 h 0.329 0.33 l 0.33,0.329 h 0.33 0.33 0.329 0.33 0.33 0.33 0.33 0.329 0.342 0.33 0.33 0.329 v 0.33 l 0.33,-0.33 0.33,0.33 v -0.33 h 0.33 0.33 0.329 0.33 0.33 0.33 0.33 0.33 0.329 0.33 0.33 0.342 v -0.329 l 0.329,0.329 v -0.329 h 0.33 0.33 0.33 0.33 0.329 0.33 0.33 0.33 v 0.329 h 0.33 0.329 0.33 0.33 v 0.33 h 0.33 0.33 0.341 v 0.33 h 0.33 0.33 0.33 v 0.33 h 0.329 0.33 v 0.33 h 0.33 0.33 0.33 v 0.329 h 0.329 0.33 0.33 v 0.33 h 0.33 0.33 0.329 v 0.33 h 0.33 0.33 0.342 0.329 0.33 0.33 0.33 0.33 0.329 0.33 0.33 l 0.33,-0.33 h 0.33 0.33 0.329 0.33 0.33 v -0.33 h 0.33 0.33 0.341 0.33 v -0.329 h 0.33 0.33 0.329 0.33 0.33 0.33 v -0.33 h 0.33 0.329 0.33 0.33 0.33 0.33 0.329 0.33 0.33 0.342 0.329 0.33 0.33 0.33 0.33 l 0.329,0.33 h 0.33 0.33 0.33 0.33 0.329 0.33 0.33 0.33 v -0.33 h 0.33 0.329 0.342 0.33 v -0.33 h 0.33 0.329 0.33 l 0.33,-0.33 h 0.33 0.33 0.33 v -0.33 h 0.329 0.33 0.33 v -0.329 h 0.33 0.33 0.329 l 0.33,-0.33 h 0.342 0.33 0.329 v -0.33 h 0.33 0.33 0.33 v -0.33 h 0.33 0.329 l 0.33,-0.33 h 0.33 0.33 V 8.917 h 0.33 0.329 0.33 l 0.33,-0.33 h 0.33 0.33 H 79 l 0.33,-0.33 h 0.33 0.33 0.329 0.33 0.33 0.33 0.33 0.329 0.33 0.33 0.33 0.33 0.329 0.33 0.33 0.342 v -0.33 h 0.329 0.33 0.33 0.33 V 7.75 7.597 h 0.33 0.33"
             style="fill:none;stroke:#4f9faf;stroke-width:0.5;stroke-linecap:round;stroke-linejoin:round;stroke-miterlimit:10;stroke-dasharray:none;stroke-opacity:1"
             id="path624" /></g><g
           id="g626"
           transform="translate(377.5664,661.5686)"><path
             d="m 0,0 h 0.33 0.33 0.329 0.342 v 0.33 h 0.33 0.33 0.329 0.33 0.33 v 0.33 h 0.33 0.33 0.329 0.33 0.33 v 0.329 h 0.33 0.33 0.329 0.33 v 0.33 h 0.33 0.33 0.341 v 0.33 h 0.33 0.33 0.33 0.33 v 0.342 h 0.329 0.33 0.33 l 0.33,0.329 h 0.33 0.33 0.329 v 0.33 h 0.33 0.33 0.33 v 0.33 h 0.33 0.341 0.33 0.33 v 0.33 h 0.33 0.329 0.33 v 0.33 h 0.33 0.33 0.33 v 0.329 h 0.329 0.33 0.33 0.33 v 0.33 h 0.33 0.329 0.33 0.33 0.342 0.329 0.33 0.33 v 0.33 h 0.33 0.33 0.329 0.33 0.33 0.33 0.33 0.329 0.33 0.33 0.33 0.33 0.33 0.341 0.33 0.33 0.33 0.329 0.33 0.33 0.33 0.33 v 0.33 h 0.329 0.33 0.33 0.33 v 0.33 h 0.33 0.329 0.33 l 0.33,0.329 h 0.342 0.329 0.33 v 0.33 h 0.33 0.33 0.33 l 0.329,0.33 h 0.33 0.33 0.33 0.33 0.329 0.33 0.33 l 0.33,-0.33 h 0.33 0.329 0.342 0.33 0.33 0.329 v -0.33 h 0.33 0.33 0.33 0.33 0.329 V 5.289 h 0.33 0.33 0.33 0.33 0.33 0.329 0.33 0.33 0.342 0.329 0.33 0.33 0.33 0.33 v -0.33 h 0.329 0.33 0.33 v 0.33 h 0.33 0.33 0.329 0.33 0.33 0.33 0.33 v 0.329 h 0.341 0.33 0.33 0.33 v 0.33 h 0.329 0.33 0.33 0.33 v 0.33 h 0.33 0.329 0.33 0.33 v 0.33 h 0.33 0.33 0.329 0.33 0.33 0.342 0.329 0.33 0.33 0.33 v -0.33 h 0.33 0.329 0.33 v -0.33 h 0.33 0.33 0.33 0.33 v -0.33 h 0.329 0.33 0.33 V 5.289 h 0.33 0.33 0.341 v -0.33 h 0.33 0.33 0.33 v -0.33 h 0.329 0.33 0.33 l 0.33,-0.33 h 0.33 0.329 0.33 l 0.33,-0.33 h 0.33 0.33 0.329 l 0.33,-0.329 h 0.33 0.342 0.329 0.33 0.33 0.33 0.33 0.329 v 0.329 h 0.33 0.212"
             style="fill:none;stroke:#df9399;stroke-width:0.5;stroke-linecap:round;stroke-linejoin:round;stroke-miterlimit:10;stroke-dasharray:none;stroke-opacity:1"
             id="path628" /></g><g
           id="g634"
           transform="translate(604.296,604.7714)"><path
             d="m 0,0 h -0.66 l -0.659,0.33 h -0.66 -0.33 L -2.968,0.66 H -3.64 -4.299 l -0.66,0.329 h -0.659 -0.33 l -0.66,0.33 h -0.659 -0.66 l -0.66,0.33 h -0.341 l -0.613,0.306 -0.047,0.024 h -0.141 -0.518 -0.66 l -0.295,0.294 -0.035,0.036 h -0.177 -0.483 -0.659 l -0.66,0.329 h -0.33 l -0.589,0.295 -0.07,0.035 h -0.13 -0.542 -0.329 l -0.589,0.295 -0.071,0.035 h -0.118 -0.542 -0.329 l -0.566,0.295 -0.094,0.047 h -0.118 -0.542 -0.329 l -0.566,0.282 -0.094,0.047 h -0.495 -0.165 L -20,4.146 -20.165,4.299 h -0.66 -0.33 l -0.659,0.33 h -0.66 l -0.33,0.33 h -0.659 -0.33 l -0.66,0.33 h -0.33 l -0.659,0.329 h -0.342 l -0.659,0.33 h -0.66 l -0.33,0.33 h -0.659 l -0.33,0.33 h -0.66 l -0.33,0.33 h -0.659 l -0.33,0.33 h -0.33 l -0.671,0.329 h -0.33 l -0.66,0.33 h -0.329 l -0.66,0.33 h -0.33 l -0.659,0.33 h -0.33 l -0.33,0.33 h -0.66 l -0.329,0.329 h -0.672 l -0.33,0.33 h -0.329 l -0.66,0.33 h -0.33 l -0.33,0.33 h -0.659 l -0.33,0.33 h -0.66 l -0.329,0.329 -0.33,0.33 h -0.66 l -0.33,0.33 h -0.341 l -0.33,0.33 h -0.66 l -0.33,0.33 h -0.329 l -0.66,0.329 h -0.33 l -0.33,0.342 h -0.659 l -0.33,0.33 h -0.33 l -0.33,0.33 h -0.659 l -0.342,0.329 h -0.33 l -0.329,0.33 h -0.66 l -0.33,0.33 -0.33,0.33 h -0.329 l -0.33,0.33 h -0.66 l -0.33,0.329 h -0.329 l -0.33,0.33 h -0.33 l -0.66,0.33 h -0.341 l -0.33,0.33 h -0.33 l -0.33,0.33 h -0.659 l -0.33,0.329 h -0.33 l -0.33,0.33 h -0.33 l -0.329,0.33"
             style="fill:none;stroke:#7ea84f;stroke-width:0.5;stroke-linecap:round;stroke-linejoin:round;stroke-miterlimit:10;stroke-dasharray:2, 2;stroke-dashoffset:0;stroke-opacity:1"
             id="path636"
             sodipodi:nodetypes="ccccccccccccccccccccccccccccccccccccccccccccccccccccccccccccccccccccccccccccccccccccccccccccccccccccccccccccccccccccccccccccccccccc" /></g><g
           id="g638"
           transform="translate(540.1842,625.9026)"><path
             d="m 0,0 h -0.342 l -0.329,0.33 h -0.33 l -0.33,0.33 h -0.33 L -2.32,1.001 h -0.33 l -0.33,0.33 h -0.33 l -0.33,0.33 h -0.329 l -0.33,0.33 h -0.33 -0.33 L -5.289,2.32 H -5.618 L -5.96,2.65 h -0.33 l -0.33,0.33 h -0.33 l -0.329,0.33 h -0.33 l -0.33,0.33 h -0.33 v 0.329 h -0.33 -0.329 l -0.33,0.33 h -0.33 l -0.33,0.33 h -0.33 l -0.329,0.33 h -0.33 l -0.33,0.33 h -0.342 -0.329 l -0.33,0.329 h -0.33 l -0.33,0.33 h -0.33 v 0.33 h -0.329 l -0.33,0.33 h -0.33 l -0.33,0.33 h -0.33 -0.329 l -0.33,0.329 h -0.33 l -0.33,0.33 -0.33,0.33 h -0.329 -0.342 l -0.33,0.33 h -0.33 l -0.329,0.33 h -0.33 v 0.33 h -0.33 l -0.33,0.329 h -0.33 -0.329 l -0.33,0.33 h -0.33 v 0.342 h -0.33 l -0.33,0.329 h -0.329 -0.33 l -0.33,0.33 -0.33,0.33 h -0.341 l -0.33,0.33 h -0.33 l -0.33,0.33 h -0.33 l -0.33,0.33 h -0.329 v 0.329 h -0.33 -0.33 l -0.33,0.33 h -0.33 v 0.33 h -0.329 l -0.33,0.33 h -0.33 l -0.33,0.33 h -0.33 l -0.329,0.329 h -0.342 l -0.33,0.33 h -0.33 l -0.329,0.33 -0.33,0.33 h -0.33 -0.33 v 0.33 h -0.33 l -0.329,0.329 h -0.33 l -0.33,0.33 h -0.33 v 0.33 h -0.33 l -0.329,0.33 h -0.33 l -0.33,0.33 h -0.342 v 0.329 h -0.329 -0.33 l -0.33,0.33 h -0.33 l -0.33,0.33 -0.329,0.33 h -0.33 l -0.33,0.33 h -0.33 l -0.33,0.329 -0.329,0.342 h -0.33 l -0.33,0.33 h -0.33 v 0.33 H -38.67 -39 v 0.329 h -0.341 l -0.33,0.33 h -0.33 l -0.33,0.33 -0.329,0.33 h -0.33 l -0.33,0.33 h -0.33 l -0.33,0.329 h -0.329 l -0.33,0.33 h -0.33 l -0.33,0.33 -0.33,0.33 h -0.329 l -0.33,0.33 h -0.33 v 0.329 h -0.342 -0.329 v 0.33 h -0.33 l -0.33,0.33 h -0.33 v 0.33 h -0.33 -0.329 v 0.33 h -0.33 l -0.33,0.33 h -0.33 l -0.33,0.329 h -0.329 v 0.33 h -0.33 -0.33 l -0.33,0.33 h -0.33 v 0.33 h -0.329 -0.342 v 0.33 h -0.33 l -0.33,0.329 h -0.329 v 0.33 h -0.33 -0.33 v 0.33 h -0.33 l -0.33,0.33 h -0.33 v 0.341 h -0.329 l -0.33,0.33 h -0.33 v 0.33 h -0.33 l -0.33,0.33 h -0.329 -0.33 l -0.33,0.33 h -0.342 -0.329 v 0.329 h -0.33 l -0.33,0.33 h -0.33 l -0.33,0.33 h -0.329 v 0.33 h -0.33 l -0.33,0.33 h -0.33 v 0.329 h -0.33 v 0.33 h -0.329 -0.33 v 0.33 h -0.33 l -0.33,0.33 h -0.33 v 0.33 h -0.341 -0.33 v 0.329 h -0.33 l -0.33,0.33 h -0.329 v 0.33 h -0.33 l -0.33,0.33 h -0.33 v 0.33 h -0.33 -0.329 l -0.33,0.329 h -0.33 v 0.33 h -0.33 -0.33 v 0.33 h -0.329 -0.33 v 0.33 h -0.33 l -0.342,0.33 h -0.33 v 0.33 h -0.329 l -0.33,0.329 h -0.33 l -0.33,0.33 h -0.33 v 0.342 h -0.329 l -0.33,0.33 h -0.33 l -0.33,0.329 h -0.33 v 0.33 h -0.329 v 0.33 h -0.33 -0.33 v 0.33 h -0.33 l -0.33,0.33 h -0.341 v 0.329 h -0.33 l -0.33,0.33 h -0.33 l -0.329,0.33 h -0.33 v 0.33 h -0.33 l -0.33,0.33 h -0.33 l -0.329,0.329 h -0.33 -0.33 v 0.33 h -0.33 l -0.33,0.33 h -0.329 -0.33 v 0.33 h -0.33 l -0.342,0.33 H -78.67 -79 v 0.329 h -0.33 -0.33 -0.33 v 0.33 h -0.329 -0.33 -0.33 -0.33 l -0.33,0.33 h -0.33 -0.329 -0.33 v 0.33 h -0.33 -0.33 -0.33 v 0.33 h -0.341 -0.33 v 0.329 h -0.33 -0.33 v 0.33 h -0.329 -0.33 v 0.33 h -0.33 l -0.33,0.33 h -0.33 v 0.33 h -0.329 -0.33 v 0.329 h -0.33 v 0.342 h -0.33 -0.33 v 0.33 h -0.329 l -0.33,0.33 h -0.33 v 0.329 h -0.342 -0.329 v 0.33 h -0.33 -0.33 v 0.33 h -0.33 l -0.33,0.33 h -0.329 v 0.33 h -0.33 -0.33 v 0.33 h -0.33 l -0.33,0.329 h -0.329 v 0.33 h -0.33 -0.33 v 0.33 h -0.33 -0.33 v 0.33 h -0.341 -0.33 v 0.329 h -0.33 -0.33 v 0.33 h -0.329 -0.33 v 0.33 h -0.33 -0.33 l -0.33,0.33 h -0.33 -0.329 -0.33 -0.33 -0.33 -0.33 v 0.33 h -0.329 -0.33 -0.342 -0.33 v 0.33 h -0.329 -0.33 -0.33 v 0.329 h -0.33 -0.33 v 0.33 h -0.329 -0.33 v 0.33 h -0.33 -0.33 v 0.33 h -0.33 -0.329 v 0.33 h -0.33 -0.33 l -0.33,0.329 h -0.33 v 0.33 h -0.341 -0.33 v 0.33 h -0.33 -0.33 v 0.342 h -0.329 -0.33 v 0.329 h -0.33 -0.33 v 0.33 h -0.33 -0.329 v 0.33 h -0.33 -0.33 v 0.33 h -0.33 -0.33 -0.329 v 0.33 h -0.33 -0.33 v 0.329 h -0.342 -0.329 -0.33 -0.33 -0.33 -0.33 -0.33 -0.329 -0.33 -0.33 -0.33 -0.33 -0.329 -0.33 -0.33 v 0.33 h -0.33 -0.33 -0.341 -0.33 -0.33 -0.33 -0.329 -0.33 -0.33 -0.33 -0.33 l -0.329,0.33 h -0.33 -0.33 -0.33 v 0.33 h -0.33 -0.329 v 0.33 h -0.33 -0.342 v 0.329 h -0.33 -0.329 -0.33 v 0.33 h -0.33 -0.33 -0.33 v 0.33 h -0.329 -0.33 v 0.33 h -0.33 -0.33 -0.33 v 0.33 h -0.329 -0.33 l -0.33,0.329 h -0.33 -0.33 v 0.33 h -0.341 -0.33 -0.33 l -0.33,0.33 h -0.329 -0.33 -0.33 v 0.33 h -0.33 -0.33 -0.33 -0.329 -0.33 -0.33 -0.33 -0.33 -0.329 -0.33 -0.342 -0.33 -0.329 -0.33 -0.33 -0.33 -0.33 -0.329 -0.33 v 0.33 h -0.33 -0.33 -0.33 -0.329 -0.33 -0.33 -0.33 l -0.33,0.329 h -0.341 -0.33 -0.33 -0.33 -0.329 l -0.33,0.33 h -0.33 -0.33 -0.33 -0.329 -0.33 l -0.33,0.33 h -0.33 -0.33 -0.33 -0.329 -0.33 -0.342 -0.33 -0.329 -0.33 v 0.33 h -0.33 -0.33 -0.33 -0.329 -0.33 -0.33 -0.33 -0.33 -0.329 -0.33 -0.33 -0.33 -0.33 -0.341 -0.33 -0.33 -0.33 -0.329 -0.33 -0.33 -0.33 -0.33 -0.329 -0.33 -0.33 -0.33 -0.33 -0.329 -0.33 -0.342 -0.33 -0.329 -0.33 -0.33 -0.33 -0.33 -0.329 -0.33 -0.33 -0.33 -0.33 -0.33 -0.329 -0.33 -0.33 -0.33 -0.341 -0.33 -0.33 -0.33"
             style="fill:none;stroke:#4e7aae;stroke-width:0.5;stroke-linecap:round;stroke-linejoin:round;stroke-miterlimit:10;stroke-dasharray:none;stroke-opacity:1"
             id="path640" /></g></g></g><g
       id="g642"
       transform="translate(544.4716,623.9237)"><path
         d="m 0,0 -0.33,0.33 h -0.33 l -0.659,0.33 h -0.33 l -0.33,0.329 h -0.33 l -0.329,0.33 h -0.33 l 1.319,-0.659 -2.6384,1.3189 0.3294,10e-5 1.32,-0.66"
         style="fill:none;fill-opacity:1;stroke:#4e7aae;stroke-width:0.5;stroke-linecap:round;stroke-linejoin:round;stroke-miterlimit:10;stroke-dasharray:2, 2;stroke-dashoffset:0;stroke-opacity:1"
         id="path644"
         sodipodi:nodetypes="ccccccccccccc" /></g><g
       id="g646"><g
         id="g648"
         clip-path="url(#clipPath652)"><g
           id="g654"
           transform="translate(604.296,605.7608)"><path
             d="m 0,0 h -0.66 l -0.659,0.33 h -0.66 -0.33 L -2.968,0.66 H -3.64 -4.299 l -0.66,0.329 h -0.659 l -0.33,0.33 h -0.66 -0.659 l -0.66,0.33 h -0.66 -0.341 l -0.66,0.33 h -0.659 l -0.66,0.33 h -0.33 -0.66 l -0.659,0.341 h -0.66 l -0.33,0.33 h -0.659 -0.672 l -0.329,0.33 h -0.66 -0.66 l -0.329,0.33 h -0.66 -0.66 l -0.329,0.329 h -0.66 -0.66 l -0.341,0.33 h -0.66 l -0.33,0.33 h -0.659 l -0.66,0.33 h -0.33 -0.659 l -0.33,0.33 h -0.66 l -0.33,0.329 h -0.659 l -0.342,0.33 h -0.659 -0.66 l -0.33,0.33 h -0.659 l -0.33,0.33 h -0.66 l -0.33,0.33 h -0.659 l -0.33,0.33 h -0.33 l -0.671,0.329 h -0.33 l -0.66,0.33 h -0.329 l -0.66,0.33 h -0.33 l -0.659,0.33 h -0.33 l -0.33,0.33 h -0.66 l -0.329,0.329 h -0.672 l -0.33,0.33 h -0.329 l -0.66,0.33 h -0.33 l -0.33,0.33 h -0.659 l -0.33,0.33 h -0.66 l -0.329,0.329 h -0.33 l -0.66,0.33 h -0.33 l -0.341,0.33 h -0.33 l -0.66,0.342 h -0.33 l -0.329,0.329 h -0.66 -0.33 l -0.33,0.33 h -0.659 l -0.33,0.33 h -0.33 l -0.33,0.33 h -0.659 l -0.342,0.33 h -0.33 l -0.329,0.329 h -0.66 l -0.33,0.33 h -0.33 l -0.329,0.33 h -0.33 l -0.66,0.33 h -0.33 l -0.329,0.33 h -0.33 l -0.33,0.329 h -0.66 -0.341 l -0.33,0.33 h -0.33 l -0.33,0.33 h -0.659 l -0.33,0.33 h -0.33 l -0.33,0.33 h -0.33 l -0.329,0.329 h -0.33 l -0.66,0.33 h -0.33 -0.329 l -0.33,0.33 h -0.342 l -0.33,0.33 h -0.329"
             style="fill:none;stroke:#4e7aae;stroke-width:0.5;stroke-linecap:round;stroke-linejoin:round;stroke-miterlimit:10;stroke-dasharray:none;stroke-opacity:1"
             id="path656" /></g><g
           id="g658"
           transform="translate(385.1755,676.4334)"><path
             d="M 0,0 C 0.141,0.047 0.412,0.082 0.683,0.118 0.954,0.141 1.225,0.177 1.496,0.212 1.767,0.247 2.038,0.283 2.309,0.318 2.58,0.365 2.85,0.401 3.121,0.448 3.392,0.495 3.663,0.53 3.934,0.565 4.205,0.612 4.476,0.648 4.747,0.695 5.018,0.73 5.289,0.777 5.56,0.813 5.831,0.86 6.101,0.895 6.372,0.942 6.643,0.989 6.914,1.037 7.185,1.072 7.456,1.119 7.727,1.166 7.998,1.19 8.269,1.213 8.54,1.201 8.811,1.225 c 0.27,0.012 0.541,0.024 0.812,0.047 0.271,0.024 0.542,0.035 0.813,0.059 0.271,0.024 0.542,0.059 0.813,0.082 0.271,0.024 0.542,0.036 0.812,0.059 0.271,0.012 0.542,0.036 0.813,0.047 0.271,0.024 0.542,0.024 0.813,0.036 0.271,0 0.542,0.023 0.813,0.023 h 0.801 c 0.271,-0.011 0.541,-0.023 0.812,-0.047 0.271,-0.035 0.542,-0.106 0.813,-0.141 0.271,-0.035 0.542,-0.047 0.813,-0.059 0.271,-0.024 0.542,-0.059 0.813,-0.047 0.27,0 0.541,0.047 0.812,0.082 0.271,0.024 0.542,0.071 0.813,0.106 0.271,0.047 0.542,0.083 0.813,0.13 0.271,0.035 0.542,0.071 0.813,0.106 0.27,0.047 0.541,0.082 0.812,0.118 0.271,0.047 0.542,0.106 0.813,0.106 0.271,0.012 0.542,0.012 0.813,-0.047 0.271,-0.059 0.542,-0.212 0.812,-0.283 0.271,-0.083 0.542,-0.094 0.813,-0.153 0.271,-0.059 0.542,-0.142 0.813,-0.2 0.271,-0.059 0.542,-0.13 0.813,-0.189 0.271,-0.059 0.541,-0.082 0.812,-0.188 0.271,-0.106 0.542,-0.33 0.813,-0.448 0.271,-0.13 0.542,-0.212 0.813,-0.294 0.271,-0.071 0.542,-0.118 0.813,-0.189 0.271,-0.082 0.541,-0.212 0.812,-0.283 0.271,-0.07 0.542,-0.106 0.813,-0.129 0.271,-0.035 0.542,-0.012 0.813,-0.047 0.271,-0.024 0.542,-0.071 0.813,-0.118 0.27,-0.047 0.541,-0.141 0.812,-0.165 0.271,-0.035 0.542,-0.012 0.813,-0.012 0.271,0 0.542,0.012 0.813,0 0.271,0 0.542,-0.012 0.812,0 0.271,0 0.531,0.012 0.801,0.036 0.271,0.011 0.542,0.047 0.813,0.07 l 0.813,0.106 c 0.271,0.036 0.542,0.165 0.813,0.106 0.271,-0.059 0.412,-0.412 0.812,-0.447 0.413,-0.036 1.084,0.282 1.626,0.223 0.542,-0.047 1.083,-0.353 1.625,-0.53 0.542,-0.164 1.084,-0.294 1.626,-0.494 0.542,-0.212 1.083,-0.483 1.625,-0.742 0.542,-0.271 1.084,-0.613 1.626,-0.848 0.542,-0.236 1.083,-0.33 1.625,-0.566 0.542,-0.224 1.084,-0.577 1.626,-0.812 0.541,-0.224 1.083,-0.413 1.625,-0.542 0.542,-0.13 1.084,-0.212 1.626,-0.248 0.541,-0.035 1.083,0.095 1.625,0.036 0.542,-0.059 1.084,-0.212 1.626,-0.354 0.541,-0.153 1.083,-0.329 1.613,-0.542 0.542,-0.212 1.084,-0.482 1.626,-0.706 0.542,-0.224 1.083,-0.33 1.625,-0.625 0.542,-0.294 1.084,-0.812 1.626,-1.142 0.541,-0.33 1.083,-0.53 1.625,-0.836 0.542,-0.307 1.084,-0.684 1.626,-1.002 0.541,-0.329 1.083,-0.742 1.625,-0.918 0.542,-0.189 1.084,-0.036 1.626,-0.165 0.541,-0.13 1.083,-0.507 1.625,-0.601 0.542,-0.106 1.084,0.141 1.625,0.024 0.542,-0.118 1.084,-0.519 1.626,-0.707 0.542,-0.189 1.084,-0.165 1.625,-0.436 0.542,-0.271 1.084,-0.895 1.626,-1.213 0.542,-0.318 1.084,-0.483 1.625,-0.719 0.542,-0.235 1.084,-0.412 1.614,-0.695 0.542,-0.27 1.084,-0.718 1.626,-0.989 0.541,-0.283 1.083,-0.353 1.625,-0.683 0.542,-0.33 1.084,-0.978 1.625,-1.331 0.542,-0.342 1.084,-0.471 1.626,-0.719 0.542,-0.247 1.084,-0.518 1.625,-0.754 0.542,-0.247 1.084,-0.447 1.626,-0.706 0.542,-0.259 1.084,-0.53 1.625,-0.848 0.542,-0.307 1.084,-0.731 1.626,-1.037 0.542,-0.294 1.083,-0.471 1.625,-0.754 0.542,-0.282 1.084,-0.659 1.626,-0.942 0.542,-0.271 1.083,-0.342 1.625,-0.718 0.542,-0.377 1.084,-1.261 1.626,-1.532 0.542,-0.259 1.083,0.271 1.625,-0.047 0.542,-0.318 1.084,-1.449 1.626,-1.849 0.53,-0.401 1.072,-0.353 1.613,-0.542 0.542,-0.2 1.084,-0.389 1.626,-0.636 0.542,-0.236 1.083,-0.577 1.625,-0.836 0.542,-0.248 1.084,-0.519 1.626,-0.707 0.542,-0.188 1.083,-0.212 1.625,-0.412 0.542,-0.2 1.084,-0.53 1.626,-0.801 0.542,-0.271 1.083,-0.377 1.625,-0.825 0.542,-0.447 1.084,-1.425 1.626,-1.849 0.541,-0.424 1.083,-0.506 1.625,-0.718 0.542,-0.224 1.084,-0.401 1.626,-0.589 0.541,-0.177 1.083,-0.307 1.625,-0.519 0.542,-0.212 1.084,-0.494 1.626,-0.742 0.541,-0.247 1.083,-0.459 1.625,-0.718 0.542,-0.259 1.084,-0.165 1.625,-0.801 0.26,-0.318 0.507,-0.884 0.754,-1.461 0.295,-0.648 0.577,-1.295 0.86,-1.613 l 0.035,-0.036 c 0.377,-0.389 0.754,-0.377 1.143,-0.4 0.141,-0.012 0.294,-0.024 0.448,-0.071 0.541,-0.165 1.083,-0.318 1.625,-0.495 0.542,-0.176 1.084,-0.377 1.626,-0.553 0.541,-0.189 1.083,-0.389 1.625,-0.542 0.365,-0.106 0.73,-0.165 1.095,-0.247 0.177,-0.048 0.354,-0.095 0.531,-0.154 0.541,-0.176 1.083,-0.341 1.625,-0.659 0.283,-0.165 0.554,-0.436 0.836,-0.683 0.259,-0.236 0.53,-0.471 0.789,-0.625 0.542,-0.306 1.084,-0.377 1.626,-0.53 0.542,-0.165 1.084,-0.247 1.625,-0.412 0.342,-0.106 0.684,-0.235 1.025,-0.377 0.2,-0.071 0.401,-0.141 0.601,-0.212 0.542,-0.165 1.084,-0.283 1.625,-0.436 0.542,-0.141 1.084,-0.294 1.626,-0.471 0.542,-0.188 11.34996,-4.523592 11.89196,-4.735592"
             style="fill:none;stroke:#d07e3a;stroke-width:0.5;stroke-linecap:round;stroke-linejoin:round;stroke-miterlimit:10;stroke-dasharray:none;stroke-opacity:1"
             id="path660"
             sodipodi:nodetypes="ccscscccsccccsccccsccsccccccccscscssccccccccscccccsccccccccccsccsccccccccccscccscccsccccccsccccsssccccscscccscsccccccccccccccc" /></g><g
           id="g662"
           transform="translate(463.1745,655.3023)"><path
             d="M 0,0 C 0.071,-0.082 0.188,-0.13 0.33,-0.177 0.436,-0.212 0.554,-0.236 0.671,-0.259 0.777,-0.283 0.883,-0.306 0.989,-0.33 H 1.025 C 1.178,-0.365 1.331,-0.4 1.484,-0.436 1.755,-0.506 2.026,-0.601 2.297,-0.707 2.568,-0.813 2.839,-0.942 3.11,-1.06 3.381,-1.166 3.651,-1.249 3.922,-1.355 4.193,-1.449 4.464,-1.543 4.735,-1.649 5.006,-1.755 5.277,-1.885 5.536,-1.991 5.807,-2.108 6.078,-2.203 6.349,-2.32 6.62,-2.426 6.891,-2.544 7.161,-2.662 c 0.271,-0.118 0.542,-0.224 0.813,-0.33 0.271,-0.106 0.542,-0.2 0.813,-0.306 0.271,-0.094 0.542,-0.2 0.813,-0.306 0.271,-0.095 0.542,-0.201 0.812,-0.307 0.271,-0.106 0.542,-0.212 0.813,-0.306 0.271,-0.106 0.542,-0.224 0.813,-0.306 0.271,-0.082 0.542,-0.118 0.813,-0.2 0.271,-0.083 0.541,-0.189 0.812,-0.307 0.271,-0.106 0.542,-0.212 0.813,-0.341 0.271,-0.118 0.542,-0.259 0.813,-0.389 0.271,-0.129 0.542,-0.247 0.813,-0.365 0.27,-0.106 0.541,-0.2 0.812,-0.306 0.271,-0.106 0.542,-0.224 0.813,-0.342 0.271,-0.118 0.542,-0.247 0.813,-0.365 0.271,-0.118 0.542,-0.247 0.813,-0.377 0.27,-0.118 0.541,-0.247 0.812,-0.353 0.271,-0.118 0.542,-0.259 0.813,-0.318 0.271,-0.047 0.542,0.035 0.813,-0.024 0.271,-0.059 0.542,-0.176 0.812,-0.294 0.271,-0.118 0.542,-0.283 0.813,-0.413 0.271,-0.141 0.542,-0.27 0.813,-0.388 0.271,-0.118 0.542,-0.236 0.813,-0.342 0.271,-0.118 0.541,-0.235 0.812,-0.341 l 0.813,-0.354 c 0.271,-0.106 0.542,-0.212 0.813,-0.33 0.271,-0.106 0.542,-0.223 0.813,-0.318 0.259,-0.106 0.53,-0.2 0.801,-0.282 0.271,-0.095 0.541,-0.142 0.812,-0.236 0.271,-0.106 0.542,-0.247 0.813,-0.377 l 0.813,-0.388 c 0.271,-0.13 0.542,-0.271 0.813,-0.401 0.27,-0.118 0.541,-0.247 0.812,-0.365 0.271,-0.118 0.542,-0.153 0.813,-0.318 0.271,-0.177 0.542,-0.542 0.813,-0.683 0.271,-0.142 0.542,-0.13 0.812,-0.189 0.271,-0.07 0.542,-0.106 0.813,-0.2 0.271,-0.082 0.542,-0.224 0.813,-0.33 0.271,-0.118 0.542,-0.165 0.813,-0.353 0.271,-0.189 0.542,-0.577 0.812,-0.754 0.271,-0.177 0.542,-0.212 0.813,-0.318 0.271,-0.106 0.542,-0.2 0.813,-0.306 l 0.813,-0.318 c 0.271,-0.106 0.541,-0.201 0.812,-0.295 0.271,-0.094 0.542,-0.165 0.813,-0.271 0.271,-0.094 0.542,-0.141 0.813,-0.306 0.271,-0.165 0.542,-0.53 0.813,-0.695 0.27,-0.153 0.541,-0.165 0.812,-0.247 0.271,-0.094 0.542,-0.2 0.813,-0.295 l 0.813,-0.318 c 0.271,-0.106 0.542,-0.212 0.812,-0.318 0.271,-0.106 0.542,-0.153 0.813,-0.318 0.271,-0.165 0.542,-0.518 0.813,-0.671 0.271,-0.153 0.542,-0.177 0.813,-0.259 0.271,-0.095 0.542,-0.201 0.812,-0.295 0.26,-0.106 0.53,-0.2 0.801,-0.294 0.271,-0.094 0.542,-0.189 0.813,-0.283 0.012,0 0.024,-0.012 0.035,-0.012 0.26,-0.094 0.519,-0.176 0.778,-0.271 0.118,-0.047 0.235,-0.082 0.365,-0.129 0.141,-0.047 0.294,-0.094 0.448,-0.189 0.271,-0.165 0.541,-0.494 0.812,-0.648 0.271,-0.141 0.542,-0.176 0.813,-0.259 0.271,-0.094 0.542,-0.176 0.813,-0.271 0.271,-0.094 0.542,-0.176 0.813,-0.282 0.27,-0.094 0.541,-0.142 0.812,-0.295 0.271,-0.153 0.542,-0.494 0.813,-0.636 0.271,-0.141 0.542,-0.165 0.813,-0.235 0.271,-0.071 0.542,-0.118 0.813,-0.189 0.27,-0.082 0.541,-0.176 0.812,-0.282 0.271,-0.095 0.542,-0.165 0.813,-0.319 0.271,-0.153 0.542,-0.471 0.813,-0.612 0.271,-0.141 0.541,-0.153 0.812,-0.236 0.271,-0.07 0.542,-0.153 0.813,-0.247 0.271,-0.082 0.542,-0.188 0.813,-0.283 0.271,-0.094 0.542,-0.117 0.813,-0.271 0.271,-0.153 0.541,-0.482 0.812,-0.624 0.271,-0.129 0.542,-0.129 0.813,-0.212 0.271,-0.07 0.542,-0.141 0.813,-0.224 0.271,-0.082 0.542,-0.106 0.813,-0.247 0.271,-0.141 14.318439,-5.497412 14.589439,-5.709412"
             style="fill:none;stroke:#4a99aa;stroke-width:0.5;stroke-linecap:round;stroke-linejoin:round;stroke-miterlimit:10;stroke-dasharray:none;stroke-opacity:1"
             id="path664"
             sodipodi:nodetypes="csccccsccscccsccccscccccssscccsccsccccccccccscccccccsssscscccscssccscccccccccscccccscccccccsc" /></g><g
           id="g666"
           transform="translate(442.6795,665.5381)"><path
             d="m 0,0 c 0.318,-0.153 0.589,-0.165 0.86,-0.224 0.271,-0.059 0.542,-0.177 0.813,-0.247 0.271,-0.071 0.541,-0.094 0.812,-0.177 0.271,-0.071 0.53,-0.188 0.801,-0.294 0.271,-0.106 0.542,-0.236 0.813,-0.33 0.271,-0.106 0.542,-0.177 0.813,-0.271 0.271,-0.106 0.542,-0.212 0.812,-0.33 0.271,-0.118 0.542,-0.235 0.813,-0.341 0.271,-0.106 0.542,-0.201 0.813,-0.307 0.271,-0.094 0.542,-0.212 0.813,-0.318 0.271,-0.117 0.542,-0.235 0.812,-0.353 0.271,-0.118 0.542,-0.236 0.813,-0.365 0.271,-0.118 0.542,-0.248 0.813,-0.365 0.271,-0.118 0.542,-0.236 0.813,-0.33 0.271,-0.083 0.541,-0.13 0.812,-0.212 0.271,-0.083 0.542,-0.189 0.813,-0.283 0.271,-0.106 0.542,-0.259 0.813,-0.341 0.271,-0.095 0.542,-0.154 0.813,-0.201 0.27,-0.047 0.541,-0.059 0.812,-0.094 0.271,-0.023 0.542,-0.035 0.813,-0.071 0.271,-0.023 0.542,-0.07 0.813,-0.082 0.271,0 0.542,0.082 0.813,0.047 0.27,-0.035 0.541,-0.153 0.812,-0.235 l 0.813,-0.213 c 0.271,-0.082 0.542,-0.141 0.813,-0.235 0.271,-0.083 0.542,-0.212 0.812,-0.306 0.271,-0.095 0.542,-0.142 0.813,-0.236 0.271,-0.094 0.542,-0.2 0.813,-0.306 0.271,-0.106 0.542,-0.236 0.813,-0.354 0.271,-0.117 0.541,-0.235 0.812,-0.353 0.271,-0.118 0.542,-0.224 0.813,-0.353 0.271,-0.13 0.542,-0.259 0.801,-0.389 0.271,-0.141 0.542,-0.283 0.813,-0.412 0.271,-0.13 0.542,-0.271 0.813,-0.401 0.27,-0.117 0.541,-0.176 0.812,-0.341 0.271,-0.165 0.542,-0.471 0.813,-0.636 0.271,-0.153 0.542,-0.236 0.813,-0.342 0.271,-0.094 0.542,-0.165 0.813,-0.259 0.27,-0.094 0.541,-0.236 0.812,-0.33 0.271,-0.106 0.542,-0.188 0.813,-0.283 0.271,-0.082 0.542,-0.082 0.813,-0.247 0.271,-0.153 0.542,-0.542 0.812,-0.707 0.271,-0.176 0.542,-0.223 0.813,-0.318 0.271,-0.094 0.542,-0.176 0.813,-0.271 0.271,-0.094 0.542,-0.176 0.813,-0.318 0.271,-0.141 0.541,-0.388 0.812,-0.541 0.271,-0.142 0.542,-0.224 0.813,-0.342 l 0.813,-0.318 c 0.271,-0.118 0.542,-0.189 0.813,-0.377 0.27,-0.2 0.541,-0.601 0.812,-0.777 0.271,-0.165 0.542,-0.201 0.813,-0.248 0.271,-0.059 0.542,-0.023 0.813,-0.082 0.271,-0.059 0.542,-0.153 0.813,-0.259 0.27,-0.106 0.541,-0.259 0.812,-0.377 0.271,-0.13 0.542,-0.248 0.813,-0.377 0.271,-0.118 0.542,-0.212 0.813,-0.377 0.271,-0.177 0.542,-0.459 0.812,-0.624 0.271,-0.165 0.542,-0.259 0.813,-0.365 0.271,-0.095 0.542,-0.118 0.813,-0.236 0.271,-0.118 0.542,-0.33 0.813,-0.448 0.259,-0.129 0.53,-0.188 0.801,-0.282 0.271,-0.095 0.541,-0.177 0.812,-0.283 0.271,-0.106 0.542,-0.212 0.813,-0.342 0.271,-0.117 0.542,-0.235 0.813,-0.4 0.271,-0.153 0.542,-0.401 0.813,-0.542 0.27,-0.141 0.541,-0.2 0.812,-0.306 0.271,-0.118 0.542,-0.236 0.813,-0.365 0.271,-0.142 0.542,-0.33 0.813,-0.448 0.271,-0.129 0.542,-0.188 0.813,-0.294 0.27,-0.106 0.541,-0.13 0.812,-0.318 0.271,-0.177 0.542,-0.589 0.813,-0.766 0.271,-0.188 0.542,-0.224 0.813,-0.318 0.271,-0.106 0.542,-0.177 0.812,-0.271 0.271,-0.106 0.542,-0.236 0.813,-0.353 0.271,-0.13 0.542,-0.248 0.813,-0.413 0.271,-0.153 0.542,-0.4 0.813,-0.553 0.271,-0.141 0.541,-0.224 0.812,-0.318 0.271,-0.106 0.542,-0.189 0.813,-0.306 0.271,-0.13 0.542,-0.307 0.813,-0.436 0.271,-0.118 0.542,-0.212 0.813,-0.33 0.271,-0.106 0.541,-0.153 0.812,-0.342 0.271,-0.176 0.542,-0.553 0.813,-0.73 0.271,-0.165 0.542,-0.177 0.813,-0.271 0.271,-0.106 0.542,-0.2 0.813,-0.294 0.27,-0.106 0.541,-0.153 0.812,-0.318 0.271,-0.165 0.542,-0.507 0.813,-0.66 0.271,-0.165 0.542,-0.188 0.813,-0.271 0.271,-0.094 0.542,-0.177 0.813,-0.283 0.247,-0.106 0.494,-0.259 0.753,-0.376 0.012,-0.012 0.036,-0.012 0.047,-0.024 0.271,-0.118 0.542,-0.071 0.813,-0.294 0.271,-0.213 0.542,-0.801 0.813,-1.025 0.271,-0.212 0.542,-0.189 0.813,-0.283 0.271,-0.094 0.541,-0.188 0.812,-0.283 0.271,-0.094 0.542,-0.188 0.813,-0.294 0.271,-0.094 0.542,-0.212 0.813,-0.318 0.271,-0.094 0.542,-0.189 0.813,-0.283 0.271,-0.082 0.541,-0.165 0.812,-0.259 0.271,-0.094 0.542,-0.212 0.813,-0.306 0.271,-0.106 0.542,-0.094 0.813,-0.295 0.094,-0.07 0.188,-0.176 0.282,-0.294 0.177,-0.224 0.354,-0.483 0.531,-0.613 0.27,-0.2 0.541,-0.165 0.812,-0.271 0.271,-0.106 0.542,-0.247 0.813,-0.353 0.271,-0.094 0.542,-0.165 0.813,-0.247 0.012,0 0.012,0 0.023,-0.012 0.259,-0.082 0.53,-0.165 0.789,-0.259 0.271,-0.083 0.542,-0.165 0.813,-0.271 0.271,-0.106 0.542,-0.247 0.813,-0.353 0.271,-0.095 0.542,-0.177 0.813,-0.271 0.271,-0.083 0.542,-0.177 0.812,-0.271 0.271,-0.095 0.542,-0.071 0.813,-0.283 0.071,-0.059 0.141,-0.141 0.212,-0.236 0.2,-0.259 0.401,-0.588 0.601,-0.73 0.271,-0.2 0.542,-0.129 0.813,-0.2 0.271,-0.071 0.541,-0.153 0.812,-0.236 0.271,-0.082 0.542,-0.176 0.813,-0.271 0.271,-0.082 12.70846,-4.900746 12.97946,-4.995746"
             style="fill:none;stroke:#df9399;stroke-width:0.5;stroke-linecap:round;stroke-linejoin:round;stroke-miterlimit:10;stroke-dasharray:none;stroke-opacity:1"
             id="path668"
             sodipodi:nodetypes="csccscccsccccccccccccccccccsscsccccsccccccccccccccccsccccccsccsccccccccccccccccccccccscccccccsccccsccccsccccsccccccsccc" /></g><g
           id="g670"
           transform="translate(603.1417,605.4074)"><path
             d="m 0,0 h -0.66 -0.659 l -0.66,0.33 h -0.33 -0.647 l -0.66,0.33 h -0.66 -0.659 l -0.66,0.329 h -0.318 -0.66 l -0.659,0.33 h -0.66 -0.494 -0.165 l -0.024,0.024 -0.306,0.294 h -0.648 -0.518 -0.142 l -0.07,0.036 -0.589,0.294 h -0.33 -0.66 l -0.659,0.33 h -0.483 -0.165 l -0.035,0.035 -0.295,0.295 h -0.66 -0.506 -0.153 l -0.035,0.035 -0.295,0.294 h -0.66 -0.482 -0.165 l -0.048,0.048 -0.282,0.282 h -0.66 -0.495 -0.164 -0.33 l -0.094,0.047 -0.342,0.177 -0.224,0.106 h -0.648 -0.329 l -0.66,0.33 h -0.33 -0.66 l -0.659,0.33 h -0.33 -0.648 l -0.33,0.33 h -0.659 l -0.33,0.329 h -0.66 -0.329 l -0.648,0.318 h -0.66 l -0.33,0.33 h -0.659 -0.33 l -0.66,0.33 h -0.329 l -0.648,0.33 h -0.33 -0.33 l -0.66,0.33 h -0.329 l -0.66,0.329 h -0.33 l -0.648,0.33 h -0.329 -0.66 l -0.33,0.33 h -0.33 l -0.659,0.33 h -0.33 l -0.66,0.33 h -0.318 -0.329 l -0.66,0.318 h -0.33 l -0.33,0.329 h -0.659 -0.33 l -0.648,0.33 h -0.33 l -0.33,0.33 h -0.659 -0.33 l -0.33,0.33 h -0.33 l -0.659,0.33 h -0.318 l -0.33,0.329 h -0.66 -0.329 l -0.33,0.33 h -0.66 -0.33 l -0.329,0.33 h -0.33 -0.648 l -0.33,0.33 h -0.33 l -0.33,0.33 h -0.659 -0.33 l -0.33,0.318 h -0.33 l -0.318,0.33 h -0.659 -0.33 l -0.33,0.329 h -0.33 -0.329 l -0.66,0.33 h -0.33 l -0.318,0.33 h -0.33 -0.329 l -0.66,0.33 h -0.33 -0.33 l -0.329,0.33 h -0.33 l -0.33,0.329 h -0.33 -0.648 -0.33 l -0.329,0.33 h -0.33 l -0.33,0.33 h -0.33 -0.33 l -0.329,0.318 h -0.33 -0.648 l -0.33,0.33 h -0.33 -0.329 l -0.33,0.33 h -0.33 -0.33 l -0.33,0.329 h -0.329 l -0.33,0.33 h -0.318 -0.33 l -0.33,0.33 h -0.33 -0.33 l -0.659,0.33 h -0.33 -0.33 l -0.33,0.33 h -0.318 -0.329 l -0.33,0.329 h -0.33 -0.33 l -0.33,0.33 h -0.329 -0.33 l -0.33,0.318 h -0.33 -0.318 l -0.33,0.33 h -0.329 -0.33 l -0.33,0.33 h -0.33 l -0.33,0.33 h -0.329 -0.33 l -0.33,0.329 h -0.33 -0.318 l -0.33,0.33 h -0.33 -0.329 l -0.33,0.33 h -0.33 -0.33 -0.33 l -0.329,0.33 h -0.33 l -0.318,0.33 h -0.33 -0.33 l -0.33,0.33 h -0.329 -0.33 l -0.33,0.329 h -0.33 -0.33 l -0.329,0.318 h -0.33 -0.318 l -0.33,0.33 h -0.33 -0.33 l -0.33,0.33 h -0.329 -0.33 l -0.33,0.33 h -0.33 -0.33 v 0.33 h -0.318 -0.329 -0.33 l -0.33,0.329 h -0.33 l -0.33,0.33 h -0.329 -0.33 -0.33 v 0.33 h -0.33 -0.318 l -0.33,0.33 h -0.329 -0.33 l -0.33,0.33 h -0.33 -0.33 v 0.318 h -0.329 -0.33 -0.33 v 0.329 h -0.33 -0.318 -0.33 l -0.33,0.33 h -0.329 -0.33 l -0.33,0.33 h -0.33 -0.33 l -0.329,0.33 h -0.33 l -0.318,0.33 h -0.33 -0.33 l -0.33,0.329 h -0.329 -0.33 l -0.33,0.33 h -0.33 -0.33 v 0.33 h -0.329 -0.318 -0.33 l -0.33,0.33 h -0.33 -0.33 l -0.33,0.318 h -0.329 -0.33 l -0.33,0.33 h -0.33 -0.33 v 0.33 h -0.318 -0.329 l -0.33,0.329 h -0.33 -0.33 l -0.33,0.33 h -0.329 -0.33 v 0.33 h -0.33 -0.33 -0.318 v 0.33 h -0.33 -0.329 -0.33 -0.33 v 0.33 h -0.33 -0.33 -0.329 v 0.329 h -0.33 -0.33 -0.33 v 0.33 h -0.318 -0.33 l -0.33,0.33 h -0.329 -0.33 l -0.33,0.318 h -0.33 -0.33 -0.329 l -0.33,0.33 h -0.318 -0.33 -0.33 -0.33 v 0.33 h -0.329 -0.33 -0.33 -0.33 v 0.329 h -0.33 -0.329 -0.318 v 0.33 h -0.33 -0.33 -0.33 v 0.33 h -0.33 -0.33 -0.329 v 0.33 h -0.33 -0.33 -0.33 v 0.33 h -0.33 -0.318 -0.329 -0.33 -0.33 -0.33 -0.33 -0.329 v 0.329 h -0.33 -0.33 -0.33 l -0.318,0.33 h -0.33 -0.329 -0.33 v 0.318 h -0.33 -0.33 -0.33 v 0.33 h -0.329 -0.33 -0.33 -0.33 v 0.33 h -0.318 -0.33 -0.33 l -0.329,0.33 h -0.33 -0.33 -0.33 -0.33 -0.329 v 0.329 h -0.33 -0.318 -0.33 -0.33 -0.33 l -0.329,0.33 h -0.33 -0.33 -0.33 -0.33 v 0.33 h -0.329 -0.318 -0.33 -0.33 v 0.33 h -0.33 -0.33 -0.33 -0.329 -0.33 v 0.33 h -0.33 -0.33 -0.33 -0.318 l -0.329,0.33 h -0.33 -0.33 -0.33 -0.33 l -0.329,0.329 h -0.33 -0.33 -0.33 -0.318 -0.33 -0.329 -0.33 -0.33 -0.33 -0.33 -0.329 -0.33 -0.33 -0.33 -0.318 -0.33 -0.33 -0.329 v -0.329 h -0.33 -0.33 -0.33 -0.33 v -0.33 h -0.329 -0.33 -0.318 -0.33 -0.33 v -0.33 h -0.33 -0.329 v 0.33 h -0.33 v -0.33 h -0.33 -0.33 v 0.33 h -0.33 -0.329 -0.319 -0.329 -0.33 -0.33 -0.33 -0.33 -0.329 v 0.33 h -0.33 -0.33 -0.33 -0.33 -0.318 -0.329 -0.33 -0.33 -0.33 -0.33 -0.329 -0.33 v 0.329 h -0.33 -0.33 -0.318 -0.33 -0.329 -0.33 -0.33 -0.33 -0.33 -0.329 -0.33 -0.33 -0.318 v -0.329 h -0.33 -0.33 -0.33 -0.329 v -0.33 h -0.33 -0.33 v -0.33 h -0.33 -0.33 v -0.33 h -0.329 -0.33 -0.318 v -0.33 h -0.33 -0.33 v -0.33 h -0.33 -0.329 -0.33 -0.33 -0.33 v -0.329 h -0.33 -0.329 -0.318 -0.33 -0.33 -0.33 -0.33 -0.33 v -0.33 h -0.329 -0.33 -0.33 -0.33 -0.33 -0.318 -0.329 -0.33 -0.33 -0.33 v -0.33 h -0.33 -0.329 -0.33 -0.33 -0.33 -0.318 v -0.33 h -0.33 -0.329 -0.33 -0.33 v -0.318 h -0.33 -0.33 l -0.329,-0.33 h -0.33 v -0.329 h -0.33 -0.318 v -0.33 h -0.33 v -0.33 h -0.33 v -0.33 h -0.33 -0.329 v -0.33 h -0.33 v -0.329 h -0.33 v -0.33 h -0.33 -0.33 v -0.33 h -0.329 v -0.318 h -0.33 v -0.33 h -0.318 -0.33 v -0.33 h -0.33 v -0.329 h -0.33 -0.329 v -0.33 h -0.33 l -0.33,-0.33 h -0.33 v -0.33 h -0.33 -0.329 v -0.33 h -0.318 -0.33 v -0.329 h -0.33 -0.33 -0.33 -0.33 v -0.33 h -0.329 -0.33 -0.33 -0.33 v -0.33 h -0.33 -0.318 -0.329 v -0.318 h -0.33 -0.33 -0.33 v -0.33 h -0.33 -0.329 -0.33 l -0.33,-0.33 h -0.33 -0.318 v -0.33 h -0.33 -0.329 -0.33 V 27.28 h -0.33 -0.33 -0.33 v -0.33 h -0.329 -0.33 v -0.33 h -0.33 -0.318 v -0.33 h -0.33 l -0.33,-0.33 h -0.33 v -0.329 h -0.329 l -0.33,-0.318 -0.33,-0.33 h -0.33 v -0.33 h -0.33 v -0.33 h -0.329 v -0.33 h -0.33 l -0.318,-0.329 -0.33,-0.33 -0.33,-0.33 h -0.33 v -0.33 h -0.329 v -0.33 h -0.33 v -0.318 h -0.33 l -0.33,-0.329 h -0.33 v -0.33 h -0.329 l -0.318,-0.33 -0.33,-0.33 h -0.33 l -0.33,-0.33 h -0.33 v -0.33 h -0.329 -0.33 v -0.329 h -0.33 l -0.33,-0.33 h -0.33 v -0.33 h -0.318 -0.33 v -0.33 h -0.329 l -0.33,-0.318 h -0.33 v -0.33 h -0.33 -0.33 v -0.329 h -0.329 v -0.33 h -0.33 -0.33 v -0.33 h -0.33 l -0.318,-0.33 h -0.33 v -0.33 h -0.329 v -0.329 h -0.33 l -0.33,-0.33 h -0.33 v -0.33 h -0.33 v -0.318 h -0.329 l -0.33,-0.33 h -0.33 v -0.33 h -0.318 v -0.329 h -0.33 v -0.33 h -0.33 v -0.33 h -0.33 v -0.33 h -0.329 l -0.33,-0.33 -0.33,-0.329 h -0.33 v -0.33 h -0.33 v -0.318 h -0.329 v -0.33 h -0.33 v -0.33 h -0.318 v -0.33 h -0.33 l -0.33,-0.33 h -0.33 v -0.329 h -0.329 v -0.33 h -0.33 v -0.33 h -0.33 l -0.33,-0.33 h -0.33 v -0.33 h -0.329 V 8.54 h -0.318 V 8.222 h -0.33 v -0.33 h -0.33 l -0.33,-0.33 h -0.33 v -0.33 h -0.33 v -0.33 h -0.329 l -0.33,-0.329 h -0.33 v -0.33 h -0.33 v -0.33 h -0.318 v -0.33 h -0.33 -0.329 v -0.33 h -0.33 V 4.935 h -0.33 V 4.606 h -0.33 -0.33 v -0.33 h -0.329 v -0.33 h -0.33 -0.33 v -0.33 h -0.33 v -0.33 h -0.318 v -0.33 h -0.33 -0.329 V 2.627 h -0.33"
             style="fill:none;stroke:#a84348;stroke-width:0.5;stroke-linecap:round;stroke-linejoin:round;stroke-miterlimit:10;stroke-dasharray:none;stroke-opacity:1"
             id="path672" /></g></g></g><g
       id="g686"
       transform="translate(457.883,621.6558)" /><g
       id="g738"
       transform="translate(384.8412,600.8099)"><path
         d="M 0,0 H 162.609 V 113.599 H 0 Z"
         style="fill:none;stroke:#231f20;stroke-width:0.25;stroke-linecap:butt;stroke-linejoin:miter;stroke-miterlimit:10;stroke-dasharray:none;stroke-opacity:1"
         id="path740" /></g><text
       transform="matrix(1,0,0,-1,412.5048,591.5029)"
       style="font-variant:normal;font-weight:normal;font-stretch:normal;font-size:7px;font-family:Whitney;-inkscape-font-specification:Whitney-Book;writing-mode:lr-tb;fill:#231f20;fill-opacity:1;fill-rule:nonzero;stroke:none"
       id="text1310"><tspan
         x="0 4.1859999 5.7182999 17.017 19.502701 20.9097 33.438999 35.924 37.582298 49.651001 52.136002 53.48 65.932999 68.418701 69.888702 82.152 84.637001 86.169998 97.684998 101.43 102.837 114.107 117.852 119.511 130.319 134.064 135.408"
         y="0"
         sodipodi:role="line"
         id="tspan1290">0.81.01.21.41.61.82.02.22.4</tspan><tspan
         x="-35.007"
         y="-8.2670002"
         id="tspan1292">0</tspan><tspan
         x="-37.492001 -35.007"
         y="-20.271999"
         sodipodi:role="line"
         id="tspan1294">10</tspan><tspan
         x="-38.751999 -35.007"
         y="-33.313"
         sodipodi:role="line"
         id="tspan1296">20</tspan><tspan
         x="-38.667999 -35.007"
         y="-46.354"
         sodipodi:role="line"
         id="tspan1298">30</tspan><tspan
         x="-39.158001 -35.007"
         y="-59.402"
         sodipodi:role="line"
         id="tspan1300">40</tspan><tspan
         x="-38.744999 -35.007"
         y="-72.443001"
         sodipodi:role="line"
         id="tspan1302">50</tspan><tspan
         x="-38.983002 -35.007"
         y="-85.484001"
         sodipodi:role="line"
         id="tspan1304">60</tspan><tspan
         x="-38.598 -35.007"
         y="-98.525002"
         sodipodi:role="line"
         id="tspan1306">70</tspan><tspan
         x="-39.004002 -35.007"
         y="-111.566"
         sodipodi:role="line"
         id="tspan1308">80</tspan></text><g
       id="g1614"><g
         id="g1616"
         clip-path="url(#clipPath1620)"><g
           id="g1622"><g
             id="g1624"
             clip-path="url(#clipPath1628)"><text
               transform="matrix(1,0,0,-1,775.7149,6.3999)"
               style="font-variant:normal;font-weight:300;font-stretch:normal;font-size:7px;font-family:'Whitney Light';-inkscape-font-specification:Whitney-Light;writing-mode:tb-rl;fill:#000000;fill-opacity:1;fill-rule:nonzero;stroke:none"
               id="text1794"><tspan
                 x="0"
                 y="0"
                 id="tspan1630">©</tspan><tspan
                 x="2.835"
                 y="5.915"
                 id="tspan1632"> </tspan><tspan
                 x="6.3210001"
                 y="0"
                 id="tspan1634">2</tspan><tspan
                 x="10.339"
                 y="0"
                 id="tspan1636">0</tspan><tspan
                 x="13.72"
                 y="0"
                 id="tspan1638">1</tspan><tspan
                 x="16.961"
                 y="0"
                 id="tspan1640">6</tspan><tspan
                 x="18.962999"
                 y="5.915"
                 id="tspan1642"> </tspan><tspan
                 x="23.764999"
                 y="0"
                 id="tspan1644">M</tspan><tspan
                 x="28.643999"
                 y="0"
                 id="tspan1646">a</tspan><tspan
                 x="31.948"
                 y="0"
                 id="tspan1648">c</tspan><tspan
                 x="36.449001"
                 y="0"
                 id="tspan1650">m</tspan><tspan
                 x="40.110001"
                 y="0"
                 id="tspan1652">i</tspan><tspan
                 x="41.692001"
                 y="0"
                 id="tspan1654">l</tspan><tspan
                 x="43.273998"
                 y="0"
                 id="tspan1656">l</tspan><tspan
                 x="45.744999"
                 y="0"
                 id="tspan1658">a</tspan><tspan
                 x="49.244999"
                 y="0"
                 id="tspan1660">n</tspan><tspan
                 x="51.064999"
                 y="5.915"
                 id="tspan1662"> </tspan><tspan
                 x="54.529999"
                 y="0"
                 id="tspan1664">P</tspan><tspan
                 x="58.205002"
                 y="0"
                 id="tspan1666">u</tspan><tspan
                 x="61.859001"
                 y="0"
                 id="tspan1668">b</tspan><tspan
                 x="64.484001"
                 y="0"
                 id="tspan1670">l</tspan><tspan
                 x="66.058998"
                 y="0"
                 id="tspan1672">i</tspan><tspan
                 x="68.362"
                 y="0"
                 id="tspan1674">s</tspan><tspan
                 x="71.700996"
                 y="0"
                 id="tspan1676">h</tspan><tspan
                 x="75.214996"
                 y="0"
                 id="tspan1678">e</tspan><tspan
                 x="78.070999"
                 y="0"
                 id="tspan1680">r</tspan><tspan
                 x="80.751999"
                 y="0"
                 id="tspan1682">s</tspan><tspan
                 x="82.271004"
                 y="5.915"
                 id="tspan1684"> </tspan><tspan
                 x="85.504997"
                 y="0"
                 id="tspan1686">L</tspan><tspan
                 x="87.919998"
                 y="0"
                 id="tspan1688">i</tspan><tspan
                 x="91.581001"
                 y="0"
                 id="tspan1690">m</tspan><tspan
                 x="95.241997"
                 y="0"
                 id="tspan1692">i</tspan><tspan
                 x="97.160004"
                 y="0"
                 id="tspan1694">t</tspan><tspan
                 x="99.987999"
                 y="0"
                 id="tspan1696">e</tspan><tspan
                 x="103.523"
                 y="0"
                 id="tspan1698">d</tspan><tspan
                 x="106.106"
                 y="0"
                 id="tspan1700">,</tspan><tspan
                 x="106.848"
                 y="5.915"
                 id="tspan1702"> </tspan><tspan
                 x="110.299"
                 y="0"
                 id="tspan1704">p</tspan><tspan
                 x="113.82"
                 y="0"
                 id="tspan1706">a</tspan><tspan
                 x="116.662"
                 y="0"
                 id="tspan1708">r</tspan><tspan
                 x="118.958"
                 y="0"
                 id="tspan1710">t</tspan><tspan
                 x="120.092"
                 y="5.915"
                 id="tspan1712"> </tspan><tspan
                 x="123.522"
                 y="0"
                 id="tspan1714">o</tspan><tspan
                 x="126.343"
                 y="0"
                 id="tspan1716">f</tspan><tspan
                 x="127.351"
                 y="5.915"
                 id="tspan1718"> </tspan><tspan
                 x="130.75301"
                 y="0"
                 id="tspan1720">S</tspan><tspan
                 x="134.386"
                 y="0"
                 id="tspan1722">p</tspan><tspan
                 x="137.38901"
                 y="0"
                 id="tspan1724">r</tspan><tspan
                 x="139.33501"
                 y="0"
                 id="tspan1726">i</tspan><tspan
                 x="141.939"
                 y="0"
                 id="tspan1728">n</tspan><tspan
                 x="145.509"
                 y="0"
                 id="tspan1730">g</tspan><tspan
                 x="148.953"
                 y="0"
                 id="tspan1732">e</tspan><tspan
                 x="151.80901"
                 y="0"
                 id="tspan1734">r</tspan><tspan
                 x="152.97099"
                 y="5.915"
                 id="tspan1736"> </tspan><tspan
                 x="157.052"
                 y="0"
                 id="tspan1738">N</tspan><tspan
                 x="161.21001"
                 y="0"
                 id="tspan1740">a</tspan><tspan
                 x="164.03101"
                 y="0"
                 id="tspan1742">t</tspan><tspan
                 x="166.985"
                 y="0"
                 id="tspan1744">u</tspan><tspan
                 x="169.967"
                 y="0"
                 id="tspan1746">r</tspan><tspan
                 x="172.823"
                 y="0"
                 id="tspan1748">e</tspan><tspan
                 x="175.259"
                 y="0"
                 id="tspan1750">.</tspan><tspan
                 x="176.00101"
                 y="5.915"
                 id="tspan1752"> </tspan><tspan
                 x="180.03999"
                 y="0"
                 id="tspan1754">A</tspan><tspan
                 x="183.25999"
                 y="0"
                 id="tspan1756">l</tspan><tspan
                 x="184.842"
                 y="0"
                 id="tspan1758">l</tspan><tspan
                 x="185.633"
                 y="5.915"
                 id="tspan1760"> </tspan><tspan
                 x="188.405"
                 y="0"
                 id="tspan1762">r</tspan><tspan
                 x="190.358"
                 y="0"
                 id="tspan1764">i</tspan><tspan
                 x="192.899"
                 y="0"
                 id="tspan1766">g</tspan><tspan
                 x="196.46899"
                 y="0"
                 id="tspan1768">h</tspan><tspan
                 x="199.423"
                 y="0"
                 id="tspan1770">t</tspan><tspan
                 x="202.076"
                 y="0"
                 id="tspan1772">s</tspan><tspan
                 x="203.595"
                 y="5.915"
                 id="tspan1774"> </tspan><tspan
                 x="206.367"
                 y="0"
                 id="tspan1776">r</tspan><tspan
                 x="209.22301"
                 y="0"
                 id="tspan1778">e</tspan><tspan
                 x="212.436"
                 y="0"
                 id="tspan1780">s</tspan><tspan
                 x="215.649"
                 y="0"
                 id="tspan1782">e</tspan><tspan
                 x="218.505"
                 y="0"
                 id="tspan1784">r</tspan><tspan
                 x="221.30499"
                 y="0"
                 id="tspan1786">v</tspan><tspan
                 x="224.63699"
                 y="0"
                 id="tspan1788">e</tspan><tspan
                 x="228.172"
                 y="0"
                 id="tspan1790">d</tspan><tspan
                 x="230.755"
                 y="0"
                 id="tspan1792">.</tspan></text></g></g></g></g></g></svg>
