<?xml version="1.0" encoding="UTF-8" standalone="no"?>
<!-- Created with Inkscape (http://www.inkscape.org/) -->

<svg
   width="290.23825mm"
   height="62.627735mm"
   viewBox="0 0 290.23824 62.627735"
   version="1.1"
   id="svg5"
   inkscape:version="1.1.2 (b8e25be833, 2022-02-05)"
   sodipodi:docname="ICMAB UAB Logo Vector.svg"
   xmlns:inkscape="http://www.inkscape.org/namespaces/inkscape"
   xmlns:sodipodi="http://sodipodi.sourceforge.net/DTD/sodipodi-0.dtd"
   xmlns="http://www.w3.org/2000/svg"
   xmlns:svg="http://www.w3.org/2000/svg">
  <sodipodi:namedview
     id="namedview7"
     pagecolor="#ffffff"
     bordercolor="#666666"
     borderopacity="1.0"
     inkscape:pageshadow="2"
     inkscape:pageopacity="0.0"
     inkscape:pagecheckerboard="0"
     inkscape:document-units="mm"
     showgrid="false"
     inkscape:zoom="0.6405233"
     inkscape:cx="481.63744"
     inkscape:cy="259.16309"
     inkscape:window-width="1920"
     inkscape:window-height="1217"
     inkscape:window-x="-8"
     inkscape:window-y="-8"
     inkscape:window-maximized="1"
     inkscape:current-layer="layer1" />
  <defs
     id="defs2" />
  <g
     inkscape:label="Layer 1"
     inkscape:groupmode="layer"
     id="layer1"
     transform="translate(94.799565,-86.328704)">
    <path
       id="path1552"
       style="fill:#000000;stroke-width:0.264583"
       d="m 175.16088,97.298717 c -0.34525,-1.61e-4 -0.70062,5.29e-4 -1.0666,0.0011 l -11.04635,0.01757 v 18.293973 18.29397 l 11.57552,0.0512 c 12.34079,0.0546 12.73599,-0.30395 15.39234,-1.66191 1.56139,-0.79821 3.74072,-3.02716 4.45347,-4.55476 1.26546,-2.7122 1.2956,-6.80311 0.0693,-9.33639 -0.70092,-1.44791 -2.57198,-3.19642 -4.18476,-3.90983 l -1.23041,-0.54416 0.64854,-0.42426 c 1.36734,-0.89546 2.30462,-1.89432 3.04994,-3.25045 0.68157,-1.24019 0.77428,-1.67418 0.77928,-3.6561 0.005,-1.88187 -0.10676,-2.49061 -0.68678,-3.72743 -0.80946,-1.72608 -2.17319,-3.178347 -3.74551,-3.988898 -2.38039,-1.227135 -3.30521,-1.598554 -14.00793,-1.603518 z m -2.58795,7.467763 h 4.36045 c 6.11351,0 7.28121,0.5648 7.28121,3.52278 0,1.38477 -0.71708,2.44714 -2.02003,2.99155 -0.62253,0.26011 -2.12852,0.36484 -5.24722,0.36484 h -4.37441 v -3.43959 z m 0,13.18007 5.09323,0.0904 c 4.51867,0.0803 5.19484,0.15065 5.99188,0.62012 1.48916,0.87715 2.00298,1.79374 2.00298,3.57188 0,1.85283 -0.54896,2.77379 -2.12494,3.56567 -0.89455,0.44948 -1.71228,0.53705 -5.80378,0.62115 -2.61938,0.0539 -4.8518,0.007 -4.96094,-0.10439 -0.10914,-0.11121 -0.19843,-2.03875 -0.19843,-4.28345 z" />
    <path
       style="fill:#9f4f17;fill-opacity:1;stroke-width:0.264583"
       d="m 141.02145,120.37711 c -1.85539,-0.53337 -3.37344,-1.0359 -3.37344,-1.11675 0,-0.0809 1.45143,-0.47263 3.22541,-0.87061 l 3.2254,-0.7236 0.65107,0.65107 c 0.62067,0.62067 0.63524,0.70762 0.31209,1.86182 -0.18645,0.66591 -0.41281,1.20108 -0.50304,1.18927 -0.0902,-0.0118 -1.6821,-0.45784 -3.53749,-0.9912 z"
       id="path1558" />
    <path
       style="fill:#000000;stroke-width:0.264583"
       d="m 94.722902,134.0811 c -5.909914,-0.99513 -9.816695,-4.47771 -10.933414,-9.74623 -0.289655,-1.36655 -0.372894,-4.57707 -0.376472,-14.52061 l -0.0046,-12.766154 h 4.748225 4.748226 l 0.08042,12.501564 c 0.0891,13.85156 0.06024,13.61287 1.872551,15.48538 2.027261,2.09459 7.298682,2.16939 9.250872,0.13126 1.66194,-1.7351 1.64941,-1.62325 1.73512,-15.48434 l 0.0781,-12.633864 h 4.75053 4.75052 v 12.846214 c 0,14.37939 -0.0832,15.23561 -1.75153,18.01921 -1.98644,3.31442 -4.89013,5.28275 -8.92122,6.04744 -2.20561,0.41839 -7.85411,0.48607 -10.027355,0.12013 z"
       id="path1550" />
    <path
       style="fill:#9f4f17;fill-opacity:1;stroke-width:0.264583"
       d="m 152.71287,133.67363 c -1.00061,-1.53381 -4.19506,-8.42487 -5.92958,-12.79127 -1.86881,-4.70446 -2.78272,-8.20714 -2.79314,-10.70515 -0.009,-2.13322 -0.67546,-9.4027 -0.88101,-9.60825 -0.0741,-0.0741 -0.26582,0.38335 -0.4261,1.01651 -1.01556,4.01178 -2.25725,7.98962 -3.2666,10.46473 -1.61253,3.95426 -6.49331,15.52991 -7.8983,18.73229 l -1.16082,2.64583 -3.82914,0.073 -3.82913,0.073 0.0897,-8.274 c 0.0581,-5.36187 0.18681,-8.33401 0.36562,-8.44452 0.16727,-0.10338 0.20372,-0.55534 0.0926,-1.14786 -0.30452,-1.62317 -0.40307,-14.17009 -0.12579,-16.013954 0.46136,-3.06797 -0.61572,-2.76083 8.80328,-2.51027 4.53042,0.12051 8.65385,0.20151 9.16318,0.18 0.50932,-0.0215 4.05143,-0.11304 7.87135,-0.20339 l 6.94531,-0.16428 -0.0115,3.399494 c -0.006,1.86972 -0.12599,4.64965 -0.26588,6.17762 -0.13989,1.52797 -0.42431,6.46906 -0.63204,10.98021 -0.30583,6.64147 -0.79705,11.97606 -1.5453,16.78177 -0.0327,0.20977 -0.36009,-0.0842 -0.73664,-0.66146 z"
       id="path836" />
    <g
       id="g833"
       transform="matrix(0.35277777,0,0,0.35277777,-94.799565,86.328858)">
      <path
         d="m 221.508,152.293 c -9.992,-1.82 -16.574,-7.691 -18.047,-16.098 -0.43,-2.476 -0.285,-7.09 0.293,-9.254 2.09,-7.824 8.828,-13.25 18.504,-14.902 3.262,-0.555 10.515,-0.371 13.902,0.356 3.102,0.664 6.246,1.589 8.332,2.449 l 1.66,0.683 1.133,-1.132 0.969,1.031 -1.008,1.562 c -4.758,7.395 -4.988,7.715 -5.308,7.45 -0.176,-0.145 -0.387,-0.598 -0.469,-1.004 -0.324,-1.618 -2.883,-3.098 -7.516,-4.348 -2.535,-0.684 -3.187,-0.766 -6.195,-0.774 -2.793,-0.007 -3.676,0.083 -5.227,0.532 -6.808,1.972 -10.965,6.996 -10.965,13.258 0,6.234 4.145,11.285 10.836,13.214 2.743,0.793 6.868,0.887 10.036,0.235 4.656,-0.961 8.062,-2.391 9.878,-4.153 0.836,-0.812 0.957,-1.054 0.872,-1.777 -0.075,-0.633 0.011,-0.891 0.359,-1.074 0.25,-0.133 0.48,-0.207 0.512,-0.164 1.175,1.625 4.929,8.043 4.839,8.273 -0.066,0.18 -0.453,0.324 -0.855,0.324 -0.406,0 -1.883,0.579 -3.309,1.29 -3.543,1.769 -6.453,2.898 -9.422,3.648 -3.425,0.867 -10.101,1.047 -13.804,0.375 z m 48.012,0.094 c -2.786,-0.442 -4.754,-1 -7.2,-2.032 -3.011,-1.273 -3.175,-1.312 -3.824,-0.886 -0.469,0.308 -0.633,0.316 -0.992,0.051 -0.406,-0.297 -0.305,-0.602 1.625,-4.84 1.133,-2.485 2.18,-4.563 2.324,-4.61 0.149,-0.047 0.473,0.395 0.727,0.989 0.914,2.132 4.832,4 10.699,5.097 4,0.75 10,0.11 12.933,-1.379 2.176,-1.105 3.024,-2.168 3.024,-3.797 0.004,-1.976 -1.063,-2.984 -3.945,-3.746 -1.231,-0.324 -4.024,-0.605 -10.661,-1.062 -8.675,-0.598 -12.511,-2.016 -14.945,-5.512 -1.25,-1.797 -1.723,-3.773 -1.605,-6.707 0.082,-1.953 0.207,-2.527 0.851,-3.906 0.418,-0.891 1.117,-2.063 1.555,-2.609 1.691,-2.118 5.387,-4.161 9.312,-5.161 1.52,-0.382 2.668,-0.453 7.321,-0.449 5.261,0.008 5.648,0.039 8.281,0.695 1.516,0.379 4.316,1.223 6.219,1.879 3.226,1.11 3.527,1.172 4.414,0.907 0.765,-0.231 1.012,-0.223 1.265,0.035 0.262,0.261 -0.128,1.121 -2.253,4.98 -1.411,2.563 -2.696,4.703 -2.852,4.754 -0.156,0.051 -0.559,-0.488 -0.898,-1.199 -0.981,-2.078 -3.676,-3.691 -8.196,-4.902 -2.054,-0.551 -2.875,-0.641 -5.98,-0.657 -4.098,-0.019 -6.149,0.371 -8.246,1.567 -2.633,1.504 -2.95,4.144 -0.696,5.804 1.735,1.274 3.993,1.735 10.825,2.211 6.144,0.43 10.046,1.043 12.238,1.93 4.187,1.695 6.394,4.559 6.769,8.777 0.286,3.192 -0.636,6.325 -2.406,8.176 -3.012,3.153 -6.793,4.879 -12.281,5.598 -3.332,0.437 -10.684,0.437 -13.402,0.004 z m 38.281,-0.364 c 0,-0.531 0.109,-0.722 0.426,-0.722 0.234,0 0.668,-0.168 0.961,-0.371 l 0.531,-0.375 v -18.106 c 0,-17.789 -0.008,-18.117 -0.481,-18.586 -0.261,-0.265 -0.695,-0.48 -0.957,-0.48 -0.355,0 -0.48,-0.16 -0.48,-0.602 v -0.597 h 12.719 v 0.597 c 0,0.446 -0.129,0.602 -0.493,0.602 -0.269,0 -0.754,0.265 -1.078,0.59 l -0.59,0.586 v 35.566 l 0.59,0.586 c 0.324,0.324 0.809,0.59 1.078,0.59 0.387,0 0.493,0.156 0.493,0.722 v 0.719 h -12.719 z m 39.465,0.27 c -7.762,-1.414 -13.442,-5.211 -16.278,-10.891 -1.652,-3.3 -1.945,-4.664 -1.945,-9.058 0,-4.254 0.281,-5.66 1.766,-8.766 2.882,-6.051 8.925,-10.117 17.16,-11.547 3.215,-0.558 10.66,-0.355 13.949,0.375 3.141,0.699 6.453,1.649 7.801,2.235 2.105,0.914 2.086,0.91 2.765,0.375 0.621,-0.489 0.645,-0.493 1.086,-0.047 0.442,0.445 0.426,0.492 -0.8,2.375 -0.688,1.058 -2.036,3.148 -3,4.644 -1.903,2.965 -2.114,3.063 -2.665,1.231 -0.375,-1.25 -2.019,-2.375 -4.914,-3.36 -3.687,-1.254 -6.629,-1.742 -9.632,-1.601 -4.954,0.238 -8.293,1.597 -11.286,4.594 -2.101,2.105 -2.992,3.632 -3.589,6.171 -0.696,2.946 -0.325,6.247 1.011,9.036 0.926,1.933 4.032,4.996 6.063,5.976 3.93,1.899 8.851,2.461 13.367,1.527 4.703,-0.968 8.297,-2.496 10.082,-4.285 0.723,-0.722 0.824,-0.961 0.715,-1.648 -0.102,-0.629 -0.031,-0.859 0.316,-1.047 0.524,-0.281 0.442,-0.391 3.348,4.273 1.094,1.758 2.004,3.375 2.023,3.598 0.024,0.289 -0.234,0.442 -0.929,0.551 -0.528,0.082 -2.418,0.855 -4.2,1.715 -3.488,1.683 -5.738,2.523 -8.91,3.324 -2.91,0.738 -9.902,0.867 -13.304,0.25 z"
         style="fill:#ae0e16;fill-opacity:1;fill-rule:nonzero;stroke:none"
         id="path835" />
      <path
         d="m 157.121,164.508 c -0.996,-0.403 -1.781,-1.641 -1.781,-2.809 0,-2.097 2.164,-3.39 4.551,-2.726 0.597,0.168 1.214,0.312 1.367,0.316 0.203,0.008 0.207,0.164 0.015,0.578 -0.14,0.313 -0.32,0.473 -0.394,0.36 -0.297,-0.454 -1.238,-0.766 -2.301,-0.766 -2.805,0 -3.5,3.394 -0.918,4.473 1.008,0.421 2.52,0.093 3.051,-0.661 0.348,-0.496 0.348,-0.496 0.605,-0.015 0.231,0.43 0.141,0.539 -0.773,0.984 -1.059,0.512 -2.535,0.629 -3.422,0.266 z m 6.711,-0.133 c -0.832,-0.426 -1.293,-1.227 -1.293,-2.254 0,-1.59 1.945,-2.691 3.852,-2.176 1.851,0.5 2.449,2.688 1.097,4.035 -0.754,0.754 -2.57,0.95 -3.656,0.395 z m 3.008,-0.734 c 0.933,-0.786 0.988,-1.789 0.152,-2.629 -1.308,-1.305 -3.734,-0.524 -3.734,1.207 0,1.828 2.105,2.664 3.582,1.422 z m 9.742,0.808 c -1.051,-0.222 -1.453,-0.504 -1.234,-0.859 0.086,-0.137 0.523,-0.043 1.082,0.23 0.992,0.492 1.949,0.422 2.445,-0.179 0.488,-0.586 0.074,-1.059 -0.934,-1.059 -1.14,0 -2.359,-0.402 -2.527,-0.832 -0.211,-0.551 0.102,-1.254 0.695,-1.574 0.371,-0.199 1.036,-0.254 1.926,-0.164 1.543,0.16 1.61,0.195 1.406,0.734 -0.136,0.348 -0.203,0.352 -0.66,0.031 -0.656,-0.457 -2.176,-0.457 -2.558,0 -0.532,0.641 -0.102,1.016 1.359,1.2 0.77,0.093 1.531,0.281 1.699,0.418 0.371,0.304 0.395,1.539 0.031,1.765 -0.574,0.352 -1.816,0.485 -2.73,0.289 z m 5.996,0.113 -1.922,-0.078 0.086,-1.914 c 0.059,-1.281 -0.008,-2.035 -0.207,-2.273 -0.258,-0.309 -0.027,-0.356 1.774,-0.356 1.222,0 2.07,0.098 2.07,0.243 0,0.132 -0.68,0.238 -1.559,0.238 h -1.562 v 0.719 c 0,0.695 0.043,0.722 1.082,0.722 0.707,0 1.078,0.102 1.078,0.301 0,0.211 -0.324,0.274 -1.078,0.215 l -1.082,-0.086 v 1.769 l 1.683,-0.082 c 1.469,-0.07 1.68,-0.027 1.68,0.34 0,0.235 -0.027,0.399 -0.062,0.371 -0.032,-0.023 -0.922,-0.082 -1.981,-0.129 z m 3.895,0.032 c -0.043,-0.043 -0.422,-0.102 -0.848,-0.137 -0.805,-0.059 -0.875,-0.133 -0.574,-0.602 0.117,-0.191 0.301,-0.21 0.535,-0.066 0.535,0.34 1.578,0.277 1.902,-0.117 0.188,-0.223 0.262,-0.961 0.211,-2.039 -0.066,-1.379 -0.011,-1.692 0.281,-1.692 0.297,0 0.344,0.344 0.278,1.981 -0.043,1.09 -0.18,2.101 -0.305,2.254 -0.223,0.265 -1.324,0.578 -1.48,0.418 z m 4.828,-0.047 c -1.102,-0.125 -1.883,-1.067 -1.875,-2.254 0.012,-1.633 0.844,-2.352 2.719,-2.352 1.57,0 2.554,0.875 2.554,2.27 0,1.699 -1.281,2.582 -3.398,2.336 z m 1.586,-0.625 c 1.437,-0.598 1.691,-1.965 0.566,-3.012 -1.164,-1.082 -3.555,-0.23 -3.555,1.27 0,0.742 0.817,1.781 1.504,1.914 0.297,0.054 0.567,0.117 0.606,0.136 0.035,0.016 0.433,-0.121 0.879,-0.308 z m 7.211,0.644 c -1.086,-0.179 -2.52,-0.617 -2.52,-0.769 0,-0.086 0.129,-0.285 0.285,-0.445 0.219,-0.219 0.387,-0.192 0.723,0.113 0.246,0.223 0.996,0.445 1.699,0.504 1.059,0.086 1.328,0.023 1.723,-0.418 0.769,-0.848 0.262,-1.301 -1.692,-1.496 -1.281,-0.129 -1.75,-0.282 -2.074,-0.684 -0.59,-0.73 -0.527,-1.312 0.211,-1.891 0.723,-0.57 2.77,-0.687 3.801,-0.218 0.625,0.285 0.707,0.879 0.094,0.707 -1.903,-0.551 -2.168,-0.586 -2.758,-0.375 -1.731,0.617 -1.121,1.789 0.93,1.789 1.703,0 2.57,0.531 2.578,1.582 0.004,0.945 -1.645,1.828 -3,1.601 z m 5.211,-0.082 c -0.438,-0.089 -0.868,-0.242 -0.961,-0.332 -0.094,-0.093 -0.223,-1.078 -0.289,-2.191 -0.102,-1.707 -0.063,-2.02 0.25,-2.02 0.3,0 0.351,0.289 0.281,1.621 -0.113,2.079 0.211,2.583 1.637,2.547 0.562,-0.015 1.105,-0.171 1.226,-0.355 0.121,-0.184 0.188,-1.113 0.152,-2.074 -0.054,-1.414 0,-1.739 0.293,-1.739 0.297,0 0.348,0.344 0.286,1.981 -0.043,1.09 -0.168,2.07 -0.274,2.18 -0.336,0.343 -1.781,0.558 -2.601,0.382 z m 11.109,0.032 -1.918,-0.133 v -4.41 l 1.98,-0.075 c 1.633,-0.062 1.981,-0.011 1.981,0.286 0,0.293 -0.313,0.343 -1.68,0.277 l -1.683,-0.078 v 0.738 c 0,0.719 0.035,0.742 1.082,0.742 0.707,0 1.078,0.102 1.078,0.301 0,0.211 -0.324,0.274 -1.078,0.215 l -1.082,-0.086 v 1.769 l 1.683,-0.082 c 1.469,-0.07 1.68,-0.027 1.68,0.34 0,0.235 -0.027,0.403 -0.063,0.375 -0.031,-0.023 -0.921,-0.105 -1.98,-0.179 z m 11.965,-0.028 c -1.035,-0.211 -1.289,-0.418 -1.68,-1.355 -0.742,-1.778 0.449,-3.192 2.684,-3.192 1.496,0 2.511,0.95 2.511,2.348 0,1.668 -1.507,2.609 -3.515,2.199 z m 1.726,-0.574 c 0.731,-0.305 1.309,-1.105 1.309,-1.809 0,-0.113 -0.277,-0.539 -0.621,-0.945 -1.664,-1.98 -4.809,0.188 -3.211,2.215 0.266,0.336 0.723,0.66 1.019,0.719 0.293,0.054 0.563,0.117 0.602,0.136 0.039,0.016 0.441,-0.125 0.902,-0.316 z m 17.75,0.602 -1.921,-0.133 v -4.41 l 1.984,-0.075 c 1.633,-0.062 1.98,-0.011 1.98,0.286 0,0.289 -0.3,0.343 -1.562,0.277 l -1.559,-0.078 v 0.762 c 0,0.761 0.008,0.765 1.078,0.679 0.844,-0.066 1.079,-0.008 1.079,0.278 0,0.285 -0.235,0.343 -1.079,0.277 l -1.078,-0.086 v 1.769 l 1.559,-0.082 c 1.355,-0.066 1.558,-0.023 1.558,0.34 0,0.235 -0.027,0.403 -0.058,0.375 -0.035,-0.023 -0.926,-0.105 -1.981,-0.179 z m 20.399,0 -1.918,-0.133 v -4.41 l 1.98,-0.075 c 1.633,-0.062 1.981,-0.011 1.981,0.286 0,0.281 -0.34,0.359 -1.621,0.359 -1.59,0 -1.621,0.012 -1.696,0.66 -0.074,0.641 -0.046,0.66 1.141,0.66 0.844,0 1.215,0.094 1.215,0.313 0,0.219 -0.352,0.312 -1.141,0.301 -1.121,-0.016 -1.14,0 -1.215,0.785 l -0.078,0.8 1.696,-0.082 c 1.488,-0.07 1.699,-0.027 1.699,0.34 0,0.235 -0.028,0.403 -0.063,0.375 -0.031,-0.023 -0.922,-0.105 -1.98,-0.179 z m 4.562,0.046 c -1.039,-0.187 -1.765,-0.589 -1.64,-0.914 0.101,-0.273 0.222,-0.265 0.695,0.047 1.211,0.793 3.289,0.266 2.906,-0.734 -0.101,-0.262 -0.461,-0.379 -1.176,-0.383 -1.382,-0.004 -2.207,-0.453 -2.3,-1.246 -0.114,-0.977 0.816,-1.477 2.476,-1.34 1.485,0.121 1.633,0.199 1.422,0.75 -0.133,0.34 -0.191,0.344 -0.504,0.035 -0.441,-0.441 -2,-0.465 -2.586,-0.035 -0.785,0.574 -0.308,0.985 1.442,1.238 1.496,0.219 1.675,0.305 1.886,0.907 0.18,0.511 0.149,0.75 -0.14,1.035 -0.422,0.426 -1.762,0.766 -2.481,0.64 z m 12.118,-0.05 c -0.829,-0.18 -1.321,-0.52 -1.645,-1.133 -0.82,-1.57 0.305,-3.438 2.07,-3.438 1.012,0 2.457,0.414 2.457,0.704 0,0.394 -0.308,0.433 -0.918,0.117 -1.843,-0.965 -3.84,0.398 -3.172,2.16 0.426,1.113 2.321,1.57 3.309,0.797 0.551,-0.434 0.336,-0.899 -0.418,-0.899 -0.398,0 -0.723,-0.105 -0.723,-0.238 0,-0.133 0.461,-0.238 1.02,-0.238 0.984,0 1.02,0.027 1,0.726 -0.012,0.403 -0.137,0.848 -0.281,0.989 -0.344,0.347 -1.949,0.613 -2.699,0.453 z m 10.761,0.039 c -1.804,-0.219 -2.511,-2.574 -1.179,-3.906 0.57,-0.571 0.91,-0.704 1.789,-0.704 1.308,0 2.324,0.411 2.148,0.868 -0.105,0.269 -0.215,0.265 -0.637,-0.032 -1.132,-0.793 -2.988,-0.222 -3.386,1.043 -0.25,0.782 0.281,1.719 1.183,2.098 0.738,0.309 0.945,0.309 1.684,0 0.461,-0.195 0.84,-0.477 0.84,-0.633 0,-0.207 0.093,-0.203 0.359,0.016 0.199,0.164 0.359,0.383 0.359,0.484 0,0.336 -2.238,0.879 -3.16,0.766 z m 8.039,0 c -1.902,-0.192 -2.679,-2.524 -1.297,-3.906 1.395,-1.395 4.297,-0.672 4.649,1.156 0.137,0.711 -0.317,2.047 -0.793,2.344 -0.465,0.285 -1.731,0.488 -2.559,0.406 z M 306,163.383 c 1.137,-1.242 0.219,-2.961 -1.59,-2.961 -0.765,0 -1.07,0.144 -1.57,0.738 -0.699,0.832 -0.715,0.902 -0.383,1.778 0.281,0.734 1.543,1.347 2.402,1.164 0.329,-0.071 0.844,-0.395 1.141,-0.719 z m 9.781,1.133 -1.922,-0.133 v -4.41 l 1.981,-0.075 c 1.633,-0.062 1.98,-0.011 1.98,0.286 0,0.289 -0.297,0.343 -1.558,0.277 l -1.563,-0.082 v 0.766 c 0,0.761 0.008,0.765 1.082,0.679 0.84,-0.066 1.078,-0.008 1.078,0.278 0,0.285 -0.238,0.343 -1.078,0.277 l -1.082,-0.086 v 1.73 h 1.559 c 1.226,0 1.562,0.075 1.562,0.36 0,0.195 -0.027,0.34 -0.062,0.312 -0.031,-0.023 -0.922,-0.105 -1.977,-0.179 z m 4.68,0.039 c -1.07,-0.133 -1.895,-0.559 -1.762,-0.907 0.102,-0.269 0.227,-0.261 0.711,0.055 0.813,0.535 2.481,0.504 2.883,-0.051 0.477,-0.648 0.035,-0.984 -1.492,-1.14 -1.524,-0.157 -2.02,-0.469 -2.02,-1.266 0,-0.793 0.867,-1.308 2.153,-1.281 1.531,0.035 2.199,0.262 1.949,0.66 -0.156,0.25 -0.317,0.266 -0.695,0.063 -0.711,-0.379 -2.098,-0.329 -2.446,0.089 -0.531,0.641 -0.101,1.016 1.36,1.2 1.589,0.195 1.996,0.437 1.996,1.199 0,0.957 -1.16,1.566 -2.637,1.379 z m 7.684,-0.082 c -2.04,-0.426 -2.887,-2.996 -1.497,-4.551 0.512,-0.574 0.926,-0.777 1.786,-0.875 1.945,-0.219 3.445,0.25 3.164,0.984 -0.149,0.387 -0.188,0.383 -0.633,-0.019 -0.754,-0.68 -2.856,-0.594 -3.645,0.152 -0.937,0.879 -0.879,2.398 0.118,3.238 0.484,0.407 1.027,0.621 1.57,0.621 0.953,0 2.246,-0.589 2.258,-1.027 0.004,-0.16 0.168,-0.082 0.367,0.176 0.324,0.433 0.301,0.5 -0.309,0.824 -0.937,0.492 -2.203,0.684 -3.179,0.477 z m 8.996,0.043 -1.922,-0.133 v -4.41 l 1.98,-0.075 c 1.637,-0.062 1.981,-0.011 1.981,0.286 0,0.293 -0.309,0.343 -1.68,0.277 l -1.68,-0.078 v 0.738 c 0,0.719 0.032,0.742 1.078,0.742 0.707,0 1.082,0.102 1.082,0.301 0,0.211 -0.328,0.274 -1.082,0.215 l -1.078,-0.086 v 1.769 l 1.68,-0.082 c 1.473,-0.07 1.68,-0.027 1.68,0.34 0,0.235 -0.028,0.403 -0.059,0.375 -0.035,-0.023 -0.926,-0.105 -1.98,-0.179 z m 24.078,0.035 c -1.114,-0.137 -1.879,-1.071 -1.879,-2.297 0,-1.43 0.961,-2.313 2.527,-2.313 1.274,0 2.281,0.414 2.11,0.868 -0.106,0.269 -0.211,0.265 -0.637,-0.032 -0.809,-0.566 -2.242,-0.453 -2.93,0.235 -1.004,1 -0.668,2.32 0.738,2.91 0.891,0.371 1.914,0.148 2.434,-0.531 0.242,-0.321 0.316,-0.297 0.57,0.191 0.16,0.309 0.207,0.48 0.102,0.383 -0.106,-0.098 -0.332,-0.063 -0.504,0.082 -0.414,0.344 -1.723,0.605 -2.531,0.504 z m -191.598,-2.328 v -2.282 h 0.66 c 0.414,0 0.657,0.129 0.657,0.348 0,0.195 0.597,0.977 1.328,1.742 l 1.324,1.391 -0.067,-1.742 c -0.05,-1.414 0.004,-1.739 0.297,-1.739 0.293,0 0.36,0.414 0.36,2.282 0,2.222 -0.016,2.281 -0.555,2.281 -0.305,0 -0.504,-0.082 -0.445,-0.184 0.062,-0.097 -0.582,-0.933 -1.434,-1.859 l -1.539,-1.68 0.066,1.86 c 0.055,1.527 0,1.863 -0.293,1.863 -0.296,0 -0.359,-0.414 -0.359,-2.281 z m 39.84,0 v -2.282 h 1.574 c 1.805,0 2.445,0.34 2.445,1.297 0,0.953 -0.351,1.18 -2.003,1.301 l -1.473,0.106 0.125,0.929 c 0.101,0.754 0.051,0.93 -0.274,0.93 -0.339,0 -0.394,-0.32 -0.394,-2.281 z m 3.098,-0.266 c 0.211,-0.082 0.379,-0.402 0.379,-0.715 0,-0.648 -0.633,-0.902 -1.942,-0.777 -0.824,0.078 -1.129,0.547 -0.844,1.293 0.137,0.355 1.668,0.48 2.407,0.199 z m 6.742,0.266 v -2.282 h 1.738 c 1.422,0 1.828,0.09 2.219,0.481 0.265,0.266 0.48,0.633 0.48,0.824 0,0.383 -0.633,1.098 -0.976,1.098 -0.364,0 -0.258,0.359 0.371,1.285 0.512,0.754 0.535,0.871 0.179,0.871 -0.23,0 -0.656,-0.43 -0.96,-0.961 -0.473,-0.828 -0.661,-0.957 -1.379,-0.957 -0.813,0 -0.832,0.023 -0.832,0.961 0,0.754 -0.09,0.961 -0.422,0.961 -0.371,0 -0.418,-0.27 -0.418,-2.281 z m 3.496,-0.5 c 0.551,-0.664 -0.027,-1.172 -1.422,-1.254 l -1.234,-0.071 v 1.704 h 1.168 c 0.777,0 1.277,-0.129 1.488,-0.379 z m 1.859,0.5 c -0.074,-2.149 -0.047,-2.282 0.403,-2.282 0.445,0 0.48,0.161 0.48,2.282 0,1.976 -0.055,2.281 -0.402,2.281 -0.344,0 -0.414,-0.336 -0.481,-2.281 z m 8.324,0 v -2.282 h 1.567 c 1.785,0 2.633,0.426 2.633,1.321 0,0.316 -0.227,0.73 -0.504,0.926 -0.574,0.402 -0.488,0.972 0.277,1.792 l 0.485,0.52 -0.547,-0.004 c -0.407,-0.004 -0.668,-0.258 -0.993,-0.961 -0.406,-0.879 -0.511,-0.953 -1.402,-0.953 h -0.969 l 0.094,0.961 c 0.07,0.738 0.008,0.961 -0.273,0.961 -0.305,0 -0.368,-0.399 -0.368,-2.281 z m 3.375,-0.465 c 0.372,-0.278 0.411,-0.434 0.2,-0.781 -0.391,-0.633 -2.813,-0.633 -2.934,0 -0.16,0.843 0.145,1.125 1.227,1.125 0.57,0 1.25,-0.157 1.507,-0.344 z m 4.149,0.82 c 0.062,-1.355 -0.008,-2.039 -0.231,-2.308 -0.289,-0.348 -0.128,-0.375 1.676,-0.293 1.746,0.078 2.055,0.16 2.453,0.656 0.688,0.847 0.621,2.527 -0.132,3.281 -0.508,0.508 -0.809,0.586 -2.223,0.586 h -1.633 z m 3.234,1.145 c 0.227,-0.168 0.477,-0.7 0.555,-1.184 0.207,-1.273 -0.664,-2.117 -2.184,-2.117 h -1.089 v 3.601 h 1.152 c 0.637,0 1.34,-0.136 1.566,-0.3 z m 9.403,-1.981 c 0,-2.746 0,-2.762 0.566,-2.762 0.477,0 0.523,0.063 0.277,0.352 -0.199,0.242 -0.265,1.113 -0.207,2.762 0.071,2.019 0.024,2.41 -0.277,2.41 -0.301,0 -0.359,-0.469 -0.359,-2.762 z m 2.16,0.481 v -2.282 h 0.66 c 0.367,0 0.66,0.133 0.66,0.301 0,0.164 0.594,0.949 1.32,1.738 l 1.325,1.442 -0.063,-1.742 c -0.051,-1.414 0.004,-1.739 0.297,-1.739 0.293,0 0.359,0.414 0.359,2.282 0,2.222 -0.015,2.281 -0.554,2.281 -0.305,0 -0.5,-0.09 -0.434,-0.192 0.063,-0.105 -0.578,-0.945 -1.43,-1.863 l -1.546,-1.668 0.062,1.86 c 0.051,1.523 -0.004,1.863 -0.297,1.863 -0.297,0 -0.359,-0.414 -0.359,-2.281 z m 7.195,2.043 c 0.082,-0.133 -0.281,-1.157 -0.808,-2.282 l -0.958,-2.043 h 0.598 c 0.332,0 0.539,0.098 0.465,0.219 -0.074,0.121 0.215,1 0.648,1.953 l 0.786,1.735 0.656,-1.598 c 0.363,-0.879 0.656,-1.758 0.656,-1.953 0,-0.195 0.215,-0.356 0.473,-0.356 0.441,0 0.414,0.137 -0.375,1.86 -0.469,1.023 -0.867,2.051 -0.887,2.281 -0.023,0.293 -0.238,0.422 -0.715,0.422 -0.39,0 -0.621,-0.106 -0.539,-0.238 z m 15.442,-1.828 0.078,-2.071 -0.977,0.094 c -0.684,0.066 -0.98,0 -0.98,-0.211 0,-0.227 0.57,-0.309 2.16,-0.309 1.593,0 2.16,0.082 2.16,0.309 0,0.211 -0.297,0.277 -0.977,0.211 l -0.98,-0.094 0.078,2.071 c 0.066,1.71 0.016,2.066 -0.281,2.066 -0.297,0 -0.348,-0.356 -0.281,-2.066 z m 3.281,-0.215 c 0,-1.868 0.066,-2.282 0.359,-2.282 0.297,0 0.36,0.414 0.36,2.282 0,1.867 -0.063,2.281 -0.36,2.281 -0.293,0 -0.359,-0.414 -0.359,-2.281 z m 8.195,0.183 c 0.551,-1.152 0.953,-2.176 0.891,-2.277 -0.063,-0.102 0.164,-0.188 0.5,-0.188 0.379,0 0.613,0.137 0.613,0.352 0,0.195 0.426,1.223 0.945,2.281 0.84,1.727 0.891,1.93 0.485,1.93 -0.289,0 -0.516,-0.223 -0.61,-0.602 -0.136,-0.547 -0.265,-0.601 -1.418,-0.601 -0.937,0 -1.308,0.101 -1.418,0.383 -0.078,0.211 -0.082,0.48 -0.007,0.601 0.074,0.117 -0.122,0.219 -0.43,0.219 -0.555,0 -0.551,-0.027 0.445,-2.098 z m 2.246,0.324 c 0,-0.218 -0.738,-1.828 -0.836,-1.828 -0.156,0 -0.844,1.364 -0.844,1.668 0,0.137 0.375,0.25 0.84,0.25 0.461,0 0.84,-0.039 0.84,-0.09 z m 8.278,-0.507 c 0,-1.868 0.066,-2.282 0.363,-2.282 0.293,0 0.359,0.414 0.359,2.282 0,1.867 -0.066,2.277 -0.359,2.277 -0.297,0 -0.363,-0.414 -0.363,-2.277 z m 8.16,0 v -2.282 h 0.66 c 0.371,0 0.66,0.133 0.66,0.301 0.004,0.164 0.598,0.949 1.324,1.738 l 1.324,1.442 -0.062,-1.742 c -0.055,-1.414 0.004,-1.739 0.297,-1.739 0.293,0 0.359,0.414 0.359,2.282 0,2.222 -0.015,2.281 -0.555,2.281 -0.304,0 -0.503,-0.086 -0.441,-0.184 0.063,-0.101 -0.582,-0.937 -1.43,-1.863 l -1.543,-1.676 0.063,1.864 c 0.055,1.519 0,1.859 -0.293,1.859 -0.297,0 -0.363,-0.414 -0.363,-2.281 z m 24.961,0 c 0,-2.121 0.035,-2.282 0.48,-2.282 0.453,0 0.477,0.133 0.402,2.282 -0.062,1.945 -0.132,2.281 -0.476,2.281 -0.352,0 -0.406,-0.305 -0.406,-2.281 z m 6.961,0 v -2.282 h 0.66 c 0.363,0 0.664,0.137 0.664,0.301 0.004,0.164 0.601,0.949 1.328,1.738 l 1.316,1.442 -0.062,-1.742 c -0.055,-1.414 0,-1.739 0.293,-1.739 0.297,0 0.359,0.414 0.359,2.282 0,2.64 -0.262,2.886 -1.414,1.328 -0.383,-0.516 -1.121,-1.352 -1.637,-1.856 l -0.945,-0.914 0.078,1.864 c 0.067,1.527 0.016,1.859 -0.281,1.859 -0.293,0 -0.359,-0.414 -0.359,-2.281 z m 7.199,0.3 v -1.98 h -0.899 c -0.562,0 -0.902,-0.113 -0.902,-0.301 0,-0.219 0.594,-0.301 2.16,-0.301 1.594,0 2.16,0.082 2.16,0.309 0,0.211 -0.297,0.277 -0.976,0.211 l -0.981,-0.094 0.078,2.071 c 0.067,1.71 0.02,2.066 -0.281,2.066 -0.289,0 -0.359,-0.383 -0.359,-1.981 z m 3.359,-0.3 c 0,-1.868 0.067,-2.282 0.36,-2.282 0.296,0 0.363,0.414 0.363,2.282 0,1.867 -0.067,2.281 -0.363,2.281 -0.293,0 -0.36,-0.414 -0.36,-2.281 z m 1.922,0 v -2.282 h 1.98 c 1.422,0 1.981,0.086 1.981,0.301 0,0.219 -0.43,0.278 -1.563,0.219 l -1.558,-0.078 v 0.738 c 0,0.719 0.031,0.742 1.078,0.742 0.707,0 1.082,0.102 1.082,0.301 0,0.211 -0.328,0.277 -1.082,0.215 l -1.078,-0.086 v 1.105 c 0,0.891 -0.082,1.106 -0.422,1.106 -0.367,0 -0.418,-0.27 -0.418,-2.281 z m 5.125,0.355 c 0.059,-1.289 -0.012,-2.043 -0.211,-2.281 -0.246,-0.297 -0.199,-0.356 0.277,-0.356 0.559,0 0.567,0.043 0.567,2.282 0,1.871 -0.063,2.281 -0.36,2.281 -0.3,0 -0.347,-0.332 -0.273,-1.926 z m 8.215,-0.133 c 0.523,-1.129 0.887,-2.156 0.808,-2.277 -0.074,-0.125 0.2,-0.227 0.61,-0.227 0.414,0 0.691,0.098 0.617,0.215 -0.156,0.25 1.492,3.91 1.875,4.164 0.152,0.098 -0.012,0.176 -0.363,0.18 -0.481,0 -0.672,-0.145 -0.785,-0.598 -0.137,-0.539 -0.274,-0.601 -1.34,-0.601 -0.91,0 -1.242,0.105 -1.426,0.449 -0.133,0.246 -0.172,0.516 -0.09,0.602 0.086,0.082 -0.074,0.152 -0.351,0.152 -0.477,0 -0.454,-0.109 0.445,-2.059 z m 1.941,-0.582 c -0.222,-0.527 -0.461,-0.957 -0.539,-0.957 -0.125,-0.004 -0.941,1.559 -0.941,1.805 0,0.062 0.422,0.109 0.941,0.109 h 0.942 z m 2.934,2.332 c -0.277,-0.16 -0.457,-0.425 -0.403,-0.586 0.079,-0.218 0.254,-0.195 0.692,0.09 0.82,0.539 2.484,0.512 2.891,-0.043 0.472,-0.652 0.035,-0.988 -1.493,-1.144 -1.523,-0.157 -2.023,-0.469 -2.023,-1.266 0,-1.078 1.508,-1.566 3.562,-1.156 0.645,0.129 0.711,0.211 0.5,0.605 -0.218,0.41 -0.281,0.422 -0.609,0.094 -0.484,-0.484 -2.113,-0.473 -2.605,0.02 -0.582,0.586 -0.086,0.972 1.5,1.168 0.753,0.093 1.507,0.281 1.671,0.418 0.442,0.359 0.368,1.253 -0.136,1.71 -0.528,0.477 -2.778,0.532 -3.547,0.09 z M 50.383,160.418 c -1.039,-0.313 -2.25,-1.344 -2.926,-2.5 -2.801,-4.773 2.145,-10.469 6.859,-7.902 2.555,1.39 3.571,4.675 2.293,7.422 -1.136,2.437 -3.797,3.71 -6.226,2.98 z m 3.199,-1.258 c 2.191,-1.484 2.555,-5.609 0.688,-7.734 -2.356,-2.684 -5.965,-0.496 -5.969,3.621 -0.004,3.48 2.894,5.738 5.281,4.113 z m 9.477,1.293 c -2.668,-0.703 -4.2,-2.719 -4.2,-5.515 0,-3.071 2.098,-5.317 5.137,-5.512 0.816,-0.051 1.887,0.015 2.375,0.152 0.723,0.199 0.887,0.18 0.887,-0.094 0,-0.187 0.164,-0.343 0.363,-0.343 0.277,0 0.359,0.32 0.359,1.441 0,1.121 -0.082,1.441 -0.359,1.441 -0.199,0 -0.363,-0.148 -0.363,-0.324 0,-0.519 -0.766,-1.066 -1.926,-1.379 -0.957,-0.254 -1.211,-0.23 -2.184,0.2 -1.679,0.742 -2.457,1.925 -2.57,3.902 -0.117,2.098 0.477,3.539 1.828,4.433 1.289,0.852 2.446,1.008 3.774,0.5 0.867,-0.332 1.078,-0.527 1.078,-0.992 0,-0.355 0.14,-0.582 0.363,-0.582 0.266,0 0.359,0.281 0.359,1.086 0,0.961 -0.078,1.117 -0.652,1.336 -0.887,0.336 -3.387,0.481 -4.269,0.25 z m 23.457,-0.398 c -3.555,-1.801 -4.176,-6.774 -1.172,-9.41 1.101,-0.965 2.316,-1.34 3.91,-1.211 4.316,0.359 6.258,6.254 3.133,9.507 -1.028,1.071 -1.797,1.446 -3.328,1.614 -1.082,0.121 -1.473,0.043 -2.543,-0.5 z m 3.808,-0.895 c 2.934,-1.941 2.399,-7.887 -0.789,-8.765 -1.246,-0.344 -2.07,-0.102 -3.09,0.917 -3.386,3.391 0.067,10.376 3.879,7.848 z m -20.183,0.902 c 0,-0.226 0.226,-0.359 0.605,-0.359 h 0.602 l -0.063,-4.742 c -0.066,-4.711 -0.07,-4.738 -0.605,-4.816 -0.297,-0.043 -0.539,-0.176 -0.539,-0.301 0,-0.121 0.863,-0.223 1.918,-0.223 1.121,0 1.921,0.102 1.921,0.242 0,0.129 -0.269,0.239 -0.601,0.239 -0.594,0 -0.598,0.015 -0.598,2.16 v 2.16 h 6 v -2.16 c 0,-2.145 -0.008,-2.16 -0.601,-2.16 -0.332,0 -0.602,-0.11 -0.602,-0.239 0,-0.14 0.801,-0.242 1.922,-0.242 1.055,0 1.918,0.102 1.918,0.223 0,0.125 -0.242,0.258 -0.539,0.301 -0.535,0.078 -0.539,0.105 -0.606,4.816 l -0.062,4.742 h 0.601 c 0.379,0 0.606,0.133 0.606,0.359 0,0.29 -0.371,0.36 -1.918,0.36 -1.547,0 -1.922,-0.07 -1.922,-0.36 0,-0.222 0.227,-0.359 0.602,-0.359 0.593,0 0.601,-0.015 0.601,-2.16 v -2.16 h -6 v 2.16 c 0,2.145 0.004,2.16 0.598,2.16 0.375,0 0.601,0.137 0.601,0.359 0,0.29 -0.375,0.36 -1.921,0.36 -1.547,0 -1.918,-0.07 -1.918,-0.36 z m 24.718,0 c 0,-0.199 0.196,-0.359 0.43,-0.359 0.34,0 0.867,-1.09 2.426,-4.98 1.094,-2.739 2.125,-5.121 2.289,-5.293 0.469,-0.492 0.684,-0.075 2.746,5.254 1.57,4.054 1.984,4.91 2.402,4.976 0.278,0.039 0.508,0.231 0.508,0.418 0,0.27 -0.414,0.344 -1.922,0.344 -1.547,0 -1.918,-0.07 -1.918,-0.36 0,-0.226 0.227,-0.359 0.618,-0.359 0.679,0 0.667,-0.25 -0.11,-1.922 l -0.39,-0.84 -3.977,-0.14 -0.59,1.34 c -0.324,0.734 -0.59,1.386 -0.59,1.449 0,0.062 0.27,0.113 0.598,0.113 0.375,0 0.601,0.137 0.601,0.359 0,0.282 -0.335,0.36 -1.562,0.36 -1.227,0 -1.559,-0.078 -1.559,-0.36 z m 6.719,-4.179 c 0,-0.543 -1.516,-4.117 -1.668,-3.942 -0.332,0.383 -1.644,3.887 -1.508,4.024 0.231,0.23 3.176,0.152 3.176,-0.082 z m 249.203,2.98 c 0.153,-0.328 0.473,-0.597 0.711,-0.597 0.414,-0.004 0.414,0.019 0,0.589 -0.59,0.809 -1.086,0.817 -0.711,0.008 z M 47.34,143.383 c 0,-1.121 0.078,-1.442 0.359,-1.442 0.223,0 0.36,0.227 0.36,0.594 0,1.285 2.66,1.809 3.73,0.738 1.106,-1.105 0.715,-1.91 -1.644,-3.41 -0.95,-0.601 -1.965,-1.316 -2.262,-1.586 -0.723,-0.664 -0.906,-1.812 -0.465,-2.879 0.566,-1.347 1.371,-1.734 3.691,-1.761 l 1.989,-0.024 v 1.285 c 0,0.981 -0.082,1.286 -0.36,1.286 -0.199,0 -0.359,-0.215 -0.359,-0.477 0,-1.066 -2.211,-1.668 -3.121,-0.844 -1.16,1.051 -0.727,1.93 1.769,3.571 1.125,0.742 2.211,1.586 2.418,1.878 0.45,0.645 0.481,2.004 0.067,2.825 -0.719,1.418 -2.91,2.093 -4.653,1.429 -0.472,-0.179 -0.695,-0.179 -0.754,0 -0.046,0.141 -0.238,0.254 -0.425,0.254 -0.258,0 -0.34,-0.355 -0.34,-1.437 z m 20.363,-3.649 c -1.719,-4.363 -2.09,-5.125 -2.547,-5.187 -0.297,-0.043 -0.535,-0.235 -0.535,-0.422 0,-0.27 0.43,-0.344 2.039,-0.344 1.613,0 2.039,0.074 2.039,0.344 0,0.203 -0.281,0.379 -0.672,0.422 l -0.672,0.074 1.426,3.66 c 0.785,2.016 1.504,3.66 1.594,3.66 0.09,0 0.82,-1.671 1.617,-3.718 1.281,-3.285 1.395,-3.719 1,-3.719 -0.25,0 -0.453,-0.164 -0.453,-0.363 0,-0.274 0.309,-0.36 1.32,-0.36 0.985,0 1.321,0.09 1.321,0.344 0,0.187 -0.18,0.375 -0.399,0.418 -0.277,0.055 -1.008,1.641 -2.363,5.117 -1.258,3.231 -2.098,5.067 -2.336,5.113 -0.273,0.055 -0.871,-1.207 -2.379,-5.039 z m 31.777,4.582 c -1.949,-0.964 -3,-2.773 -3,-5.168 -0.003,-4.91 5.403,-7.371 8.797,-4.007 1.653,1.632 2.098,4.601 1.008,6.75 -0.664,1.312 -1.086,1.726 -2.476,2.421 -1.313,0.661 -2.997,0.665 -4.329,0.004 z m 3.754,-0.836 c 1.188,-0.703 1.805,-1.914 1.907,-3.746 0.164,-2.918 -1.063,-4.941 -3.121,-5.156 -1.461,-0.148 -2.559,0.508 -3.321,1.984 -1.172,2.278 -0.515,5.739 1.293,6.844 0.914,0.555 2.367,0.59 3.242,0.074 z m -47.015,0.879 c 0,-0.125 0.242,-0.257 0.539,-0.3 0.539,-0.075 0.543,-0.106 0.605,-4.817 l 0.067,-4.738 h -0.606 c -0.379,0 -0.605,-0.137 -0.605,-0.363 0,-0.301 0.519,-0.36 3.242,-0.36 2,0 3.238,-0.09 3.238,-0.238 0,-0.133 0.164,-0.242 0.36,-0.242 0.277,0 0.359,0.308 0.359,1.32 0,0.988 -0.086,1.32 -0.344,1.32 -0.195,0 -0.375,-0.281 -0.418,-0.66 -0.074,-0.648 -0.105,-0.66 -1.937,-0.73 l -1.86,-0.071 v 4.34 h 1.442 c 1.359,0 1.437,-0.031 1.437,-0.574 0,-0.473 0.391,-0.863 0.86,-0.863 0.054,0 0.101,0.754 0.101,1.679 0,1.52 -0.047,1.68 -0.48,1.68 -0.352,0 -0.481,-0.16 -0.481,-0.601 0,-0.571 -0.062,-0.598 -1.437,-0.598 h -1.442 v 4.32 h 3.84 v -0.722 c 0,-0.481 0.121,-0.719 0.36,-0.719 0.265,0 0.359,0.281 0.359,1.078 v 1.082 H 59.82 c -2.062,0 -3.601,-0.094 -3.601,-0.223 z m 20.402,0 c 0,-0.125 0.242,-0.257 0.539,-0.3 0.535,-0.075 0.539,-0.106 0.606,-4.817 l 0.062,-4.738 h -0.605 c -0.375,0 -0.602,-0.137 -0.602,-0.363 0,-0.301 0.52,-0.36 3.238,-0.36 2,0 3.239,-0.09 3.239,-0.238 0,-0.133 0.164,-0.242 0.363,-0.242 0.273,0 0.359,0.308 0.359,1.32 0,0.988 -0.09,1.32 -0.343,1.32 -0.2,0 -0.379,-0.281 -0.422,-0.66 -0.075,-0.648 -0.106,-0.66 -1.934,-0.73 l -1.863,-0.071 v 4.34 h 1.441 c 1.36,0 1.442,-0.031 1.442,-0.574 0,-0.473 0.386,-0.863 0.859,-0.863 0.055,0 0.098,0.754 0.098,1.679 0,1.333 -0.075,1.68 -0.36,1.68 -0.222,0 -0.359,-0.226 -0.359,-0.601 0,-0.579 -0.055,-0.598 -1.559,-0.598 h -1.562 v 4.32 h 3.84 v -0.722 c 0,-0.481 0.121,-0.719 0.363,-0.719 0.266,0 0.359,0.281 0.359,1.078 v 1.082 h -3.601 c -2.059,0 -3.598,-0.094 -3.598,-0.223 z m 9.359,-0.015 c 0,-0.133 0.27,-0.242 0.598,-0.242 H 87.18 V 134.5 h -0.602 c -0.371,0 -0.598,-0.133 -0.598,-0.359 0,-0.524 5.469,-0.52 6.489,0.004 0.988,0.511 1.511,1.632 1.367,2.925 -0.133,1.157 -0.668,1.91 -1.672,2.336 l -0.652,0.278 1.324,1.98 c 0.73,1.086 1.59,2.098 1.914,2.246 0.926,0.422 0.695,0.672 -0.613,0.672 h -1.203 l -1.176,-1.859 c -1.738,-2.754 -1.899,-2.942 -2.559,-2.942 -0.597,0 -0.597,0.004 -0.527,2.102 0.062,1.969 0.101,2.105 0.609,2.176 0.297,0.043 0.539,0.175 0.539,0.3 0,0.121 -0.863,0.223 -1.922,0.223 -1.117,0 -1.918,-0.102 -1.918,-0.242 z m 5.149,-5.621 c 0.605,-0.254 0.875,-0.559 1.047,-1.172 0.515,-1.871 -0.258,-2.906 -2.192,-2.918 l -1.246,-0.012 -0.066,2.223 -0.07,2.218 h 0.855 c 0.473,0 1.227,-0.152 1.672,-0.339 z M 69.863,128.379 c -1.898,-0.988 -2.843,-2.617 -2.84,-4.887 0.004,-2.406 1.364,-4.488 3.477,-5.32 0.938,-0.371 3.711,-0.379 4.391,-0.016 0.437,0.235 0.527,0.219 0.527,-0.086 0,-0.203 0.164,-0.367 0.363,-0.367 0.278,0 0.36,0.32 0.36,1.438 0,1.121 -0.082,1.441 -0.36,1.441 -0.203,0 -0.363,-0.215 -0.363,-0.492 0,-0.563 -1.609,-1.414 -2.684,-1.422 -1.472,-0.012 -3.066,1.109 -3.695,2.602 -0.43,1.027 -0.437,3.171 -0.016,4.183 0.692,1.656 3.086,3.031 4.649,2.668 1.023,-0.238 1.746,-0.777 1.746,-1.305 0,-0.312 0.164,-0.472 0.48,-0.472 0.403,0 0.481,0.16 0.481,0.968 0,0.883 -0.078,1.008 -0.832,1.321 -0.496,0.207 -1.586,0.344 -2.699,0.34 -1.496,-0.012 -2.09,-0.129 -2.985,-0.594 z m 42.641,-1.742 c -0.918,-1.285 -2.297,-3.192 -3.059,-4.239 l -1.386,-1.902 v 7.766 h 0.601 c 0.328,0 0.598,0.109 0.598,0.242 0,0.137 -0.719,0.238 -1.68,0.238 -0.957,0 -1.68,-0.101 -1.68,-0.238 0,-0.133 0.266,-0.242 0.59,-0.242 h 0.59 l 0.07,-4.258 c 0.04,-2.344 -0.027,-4.504 -0.148,-4.801 -0.137,-0.344 -0.422,-0.543 -0.777,-0.543 -0.34,0 -0.563,-0.14 -0.563,-0.359 0,-0.27 0.289,-0.36 1.172,-0.36 h 1.176 l 2.844,3.954 c 1.566,2.175 2.933,3.957 3.035,3.96 0.101,0.004 0.156,-1.585 0.117,-3.535 -0.063,-3.465 -0.074,-3.539 -0.606,-3.613 -1.156,-0.168 -0.457,-0.523 1.02,-0.523 0.883,0 1.562,0.101 1.562,0.238 0,0.133 -0.269,0.238 -0.601,0.238 h -0.598 v 5.16 c 0,3.973 -0.07,5.16 -0.301,5.157 -0.168,-0.004 -1.054,-1.055 -1.976,-2.34 z m 8.394,1.898 c -3.257,-1.484 -4.222,-5.918 -1.882,-8.648 1.472,-1.723 3.382,-2.344 5.836,-1.899 0.929,0.168 1.339,0.16 1.402,-0.023 0.047,-0.145 0.238,-0.262 0.426,-0.262 0.254,0 0.34,0.356 0.34,1.438 0,1.121 -0.082,1.441 -0.36,1.441 -0.199,0 -0.359,-0.152 -0.359,-0.344 0,-0.504 -1.125,-1.3 -2.09,-1.48 -1.961,-0.367 -4.043,1.035 -4.625,3.125 -1.051,3.75 2.203,7.316 5.476,6.004 0.793,-0.317 1.051,-0.563 1.161,-1.098 0.238,-1.191 0.797,-0.84 0.797,0.5 0,1.172 -0.016,1.195 -0.899,1.441 -1.449,0.403 -4.129,0.301 -5.223,-0.195 z m -74.039,-0.031 c 0,-0.133 0.27,-0.242 0.602,-0.242 h 0.598 v -9.602 h -0.598 c -0.375,0 -0.602,-0.133 -0.602,-0.359 0,-0.301 0.489,-0.36 2.969,-0.36 1.637,0 3.309,-0.066 3.723,-0.148 l 0.75,-0.152 v 1.23 c 0,0.934 -0.09,1.231 -0.363,1.231 -0.223,0 -0.36,-0.227 -0.36,-0.598 0,-0.594 -0.023,-0.602 -2.047,-0.602 H 49.48 l 0.141,3.961 1.5,0.071 c 1.465,0.07 1.5,0.058 1.5,-0.539 0,-0.383 0.133,-0.614 0.359,-0.614 0.282,0 0.36,0.336 0.36,1.563 0,1.226 -0.078,1.558 -0.36,1.558 -0.226,0 -0.359,-0.226 -0.359,-0.613 0,-0.598 -0.035,-0.609 -1.5,-0.539 l -1.5,0.07 -0.141,4.203 h 2.051 c 2.024,0 2.047,-0.007 2.047,-0.601 0,-0.375 0.137,-0.602 0.36,-0.602 0.261,0 0.363,0.27 0.363,0.961 v 0.961 h -3.723 c -2.32,0 -3.719,-0.09 -3.719,-0.238 z m 8.641,0.023 c 0,-0.117 0.242,-0.281 0.539,-0.367 0.656,-0.183 3.867,-4.363 3.699,-4.805 -0.316,-0.824 -3.16,-4.531 -3.554,-4.632 -0.243,-0.063 -0.446,-0.266 -0.446,-0.45 0,-0.257 0.465,-0.332 2.043,-0.332 1.653,0 2.039,0.071 2.039,0.36 0,0.242 -0.242,0.359 -0.726,0.359 h -0.731 l 1.215,1.801 c 0.668,0.992 1.254,1.801 1.301,1.801 0.043,0 0.691,-0.809 1.437,-1.801 l 1.356,-1.801 h -0.727 c -0.484,0 -0.726,-0.117 -0.726,-0.359 0,-0.285 0.359,-0.36 1.801,-0.36 1.441,0 1.8,0.075 1.8,0.36 0,0.199 -0.211,0.359 -0.465,0.359 -0.308,0 -1.05,0.774 -2.183,2.274 l -1.715,2.273 1.777,2.469 c 1.18,1.64 1.95,2.492 2.301,2.543 0.289,0.043 0.524,0.176 0.524,0.301 0,0.121 -0.973,0.222 -2.161,0.222 -1.187,0 -2.16,-0.101 -2.16,-0.226 0,-0.121 0.332,-0.258 0.735,-0.297 l 0.73,-0.078 -0.773,-1.079 c -0.426,-0.593 -1.032,-1.433 -1.352,-1.867 l -0.574,-0.789 -1.445,1.867 -1.45,1.868 0.746,0.078 c 1.465,0.148 0.707,0.523 -1.054,0.523 -0.992,0 -1.801,-0.097 -1.801,-0.215 z m 22.559,-0.023 c 0,-0.133 0.269,-0.242 0.601,-0.242 h 0.598 v -4.801 c 0,-4.641 -0.016,-4.801 -0.477,-4.801 -0.269,0 -0.48,-0.156 -0.48,-0.359 0,-0.301 0.5,-0.36 3.058,-0.363 1.684,0 3.305,-0.067 3.602,-0.149 0.508,-0.133 0.539,-0.07 0.539,1.086 0,0.93 -0.086,1.227 -0.359,1.227 -0.227,0 -0.36,-0.227 -0.36,-0.598 0,-0.594 -0.035,-0.602 -1.922,-0.602 h -1.921 v 4.078 h 1.441 c 1.375,0 1.441,-0.023 1.441,-0.597 0,-0.442 0.129,-0.602 0.481,-0.602 0.429,0 0.48,0.16 0.48,1.563 0,1.398 -0.051,1.558 -0.48,1.558 -0.352,0 -0.481,-0.16 -0.481,-0.601 0,-0.571 -0.066,-0.598 -1.441,-0.598 h -1.441 v 4.32 h 1.921 c 1.887,0 1.922,-0.011 1.922,-0.601 0,-0.375 0.133,-0.602 0.36,-0.602 0.257,0 0.359,0.27 0.359,0.961 v 0.961 h -3.719 c -2.32,0 -3.722,-0.09 -3.722,-0.238 z m 9.601,0 c 0,-0.133 0.27,-0.242 0.598,-0.242 h 0.601 v -9.602 h -0.601 c -0.328,0 -0.598,-0.105 -0.598,-0.238 0,-0.141 0.801,-0.238 1.918,-0.238 1.121,0 1.922,0.097 1.922,0.238 0,0.133 -0.27,0.238 -0.602,0.238 h -0.597 v 9.363 h 2.039 c 2.015,0 2.039,-0.007 2.039,-0.601 0,-0.375 0.137,-0.602 0.359,-0.602 0.262,0 0.36,0.27 0.36,0.961 v 0.961 h -3.719 c -2.32,0 -3.719,-0.09 -3.719,-0.238 z m 8.879,0 c 0,-0.133 0.27,-0.242 0.602,-0.242 h 0.597 v -9.602 h -0.597 c -0.375,0 -0.602,-0.133 -0.602,-0.359 0,-0.301 0.5,-0.36 3.059,-0.363 1.683,0 3.304,-0.067 3.601,-0.149 0.508,-0.133 0.539,-0.07 0.539,1.086 0,0.93 -0.086,1.227 -0.359,1.227 -0.223,0 -0.359,-0.227 -0.359,-0.598 0,-0.594 -0.032,-0.602 -1.922,-0.602 H 99.18 v 4.078 h 1.441 c 1.375,0 1.438,-0.023 1.438,-0.597 0,-0.442 0.129,-0.602 0.48,-0.602 0.43,0 0.481,0.16 0.481,1.563 0,1.191 -0.082,1.558 -0.344,1.558 -0.188,0 -0.379,-0.242 -0.418,-0.539 -0.07,-0.488 -0.231,-0.547 -1.578,-0.613 l -1.5,-0.07 v 4.343 h 1.918 c 1.89,0 1.922,-0.011 1.922,-0.601 0,-0.375 0.136,-0.602 0.359,-0.602 0.262,0 0.359,0.27 0.359,0.961 v 0.961 h -3.597 c -2.243,0 -3.602,-0.09 -3.602,-0.238 z m 32.399,0 c 0,-0.133 0.273,-0.242 0.601,-0.242 h 0.602 v -9.602 h -0.602 c -0.371,0 -0.601,-0.133 -0.601,-0.359 0,-0.289 0.374,-0.36 1.921,-0.36 1.547,0 1.922,0.071 1.922,0.36 0,0.226 -0.23,0.359 -0.605,0.359 h -0.606 l 0.063,4.742 c 0.066,4.711 0.07,4.739 0.605,4.817 0.297,0.043 0.543,0.176 0.543,0.301 0,0.121 -0.867,0.222 -1.922,0.222 -1.121,0 -1.921,-0.101 -1.921,-0.238 z m 5.281,0 c 0,-0.133 0.148,-0.242 0.332,-0.242 0.207,0 0.992,-1.621 2.066,-4.258 2.43,-5.984 2.578,-6.301 2.93,-6.301 0.187,0 1.137,2.137 2.351,5.277 1.582,4.094 2.137,5.282 2.461,5.282 0.231,0 0.422,0.109 0.422,0.242 0,0.137 -0.761,0.238 -1.801,0.238 -0.992,0 -1.8,-0.101 -1.8,-0.222 0,-0.125 0.261,-0.262 0.578,-0.301 l 0.578,-0.078 -0.535,-1.321 -0.531,-1.316 h -4.211 l -0.563,1.316 -0.558,1.321 0.699,0.078 c 1.328,0.14 0.699,0.523 -0.856,0.523 -0.883,0 -1.562,-0.105 -1.562,-0.238 z m 5.91,-6.121 c -0.41,-1.121 -0.813,-2.039 -0.891,-2.039 -0.117,0 -0.793,1.586 -1.554,3.66 -0.141,0.371 0.023,0.418 1.519,0.418 h 1.676 z M 19.02,89.707 c -1.379,-0.246 -1.942,-0.605 -1.778,-1.137 0.219,-0.711 0.207,-0.707 1.188,-0.382 2.172,0.714 3.949,0.011 3.949,-1.567 0,-0.937 -0.637,-1.562 -2.399,-2.348 -1.601,-0.711 -2.375,-1.503 -2.558,-2.625 -0.402,-2.484 2.238,-4.132 5.269,-3.289 0.786,0.219 0.891,0.325 0.75,0.778 -0.089,0.289 -0.187,0.554 -0.214,0.59 -0.032,0.035 -0.586,-0.055 -1.231,-0.204 -1.398,-0.316 -2.277,-0.058 -2.863,0.836 -0.656,1 -0.086,1.774 2.144,2.903 1.434,0.726 2.004,1.164 2.352,1.8 0.797,1.461 0.234,3.434 -1.195,4.172 -0.75,0.387 -2.52,0.633 -3.414,0.473 z M 50.609,89.629 C 50.227,89.508 49.648,89.156 49.316,88.855 48.211,87.836 48.059,87.078 48.059,82.551 V 78.344 H 49.5 v 3.98 c 0,3.227 0.074,4.145 0.402,4.832 0.684,1.442 2.563,1.848 3.77,0.813 0.922,-0.785 1.109,-1.762 1.109,-5.778 v -3.847 h 1.438 v 4.16 c 0,3.894 -0.035,4.23 -0.559,5.219 -0.305,0.578 -0.89,1.246 -1.297,1.484 -0.879,0.516 -2.789,0.727 -3.754,0.422 z m 48.571,0.008 c -2.676,-0.539 -4.149,-2.508 -4.141,-5.535 0,-0.922 0.172,-1.981 0.418,-2.582 0.543,-1.329 2.223,-2.805 3.59,-3.149 1.879,-0.473 4.273,-0.223 4.391,0.461 0.128,0.746 -0.25,0.914 -1.512,0.664 -3.035,-0.598 -5.367,1.348 -5.383,4.496 -0.004,1.438 0.754,3.086 1.754,3.817 0.566,0.41 1.039,0.492 2.824,0.492 1.863,0 2.164,0.058 2.281,0.437 0.184,0.578 0.153,0.602 -1.336,0.883 -1.398,0.266 -1.648,0.266 -2.886,0.016 z m 34.32,0 c -2.727,-0.551 -4.152,-2.504 -4.141,-5.668 0.012,-3.313 1.946,-5.473 5.176,-5.785 2.285,-0.219 3.688,0.375 3.086,1.304 -0.156,0.239 -0.445,0.246 -1.379,0.032 -2.965,-0.68 -5.363,1.312 -5.379,4.472 -0.004,1.438 0.754,3.086 1.754,3.817 0.567,0.41 1.039,0.492 2.824,0.492 1.864,0 2.161,0.058 2.282,0.437 0.183,0.578 0.152,0.602 -1.336,0.883 -1.399,0.266 -1.649,0.266 -2.887,0.016 z m 122.641,-0.086 c -0.719,-0.192 -1.106,-0.438 -1.161,-0.735 -0.14,-0.73 0.25,-0.859 1.567,-0.515 1.488,0.39 2.746,0.137 3.305,-0.66 0.886,-1.266 0.25,-2.286 -2.11,-3.375 -2.023,-0.938 -2.562,-1.606 -2.562,-3.18 0,-1.508 1.058,-2.621 2.734,-2.871 2.133,-0.32 3.68,0.324 3.066,1.277 -0.16,0.246 -0.414,0.254 -1.273,0.024 -1.328,-0.356 -2.348,-0.067 -2.84,0.808 -0.629,1.114 -0.144,1.821 1.945,2.848 2.262,1.113 2.848,1.801 2.848,3.332 0,2.414 -2.578,3.84 -5.519,3.047 z m 68.64,0.086 c -1.769,-0.356 -3.054,-1.379 -3.711,-2.949 -0.523,-1.258 -0.48,-4.122 0.082,-5.36 0.578,-1.269 2.184,-2.629 3.508,-2.961 1.867,-0.472 4.258,-0.215 4.379,0.465 0.129,0.746 -0.25,0.914 -1.512,0.664 -3.035,-0.598 -5.367,1.348 -5.382,4.496 -0.004,1.438 0.75,3.086 1.753,3.817 0.563,0.41 1.04,0.492 2.825,0.492 1.863,0 2.16,0.058 2.281,0.437 0.184,0.578 0.148,0.602 -1.336,0.883 -1.398,0.266 -1.652,0.266 -2.887,0.016 z m 25.707,-0.004 c -1.07,-0.27 -1.914,-0.918 -2.773,-2.133 -0.625,-0.887 -0.719,-1.242 -0.801,-3.098 -0.086,-1.929 -0.035,-2.207 0.586,-3.418 0.441,-0.859 1.043,-1.57 1.719,-2.039 0.926,-0.644 1.238,-0.722 2.801,-0.722 1.566,0 1.871,0.078 2.785,0.722 1.543,1.082 2.226,2.586 2.215,4.879 -0.008,2.649 -0.946,4.508 -2.743,5.446 -0.82,0.429 -2.773,0.617 -3.789,0.363 z m 3.352,-1.707 c 1.055,-0.75 1.539,-2.028 1.539,-4.063 0,-2.625 -1.035,-4.148 -3.035,-4.472 -2.516,-0.411 -4.528,2.648 -3.821,5.816 0.653,2.918 3.207,4.223 5.317,2.719 z M 1.98,83.98 V 78.344 H 3.418 V 89.621 H 1.98 Z m 4.321,-0.011 v -5.657 l 0.894,0.075 c 0.86,0.07 0.969,0.191 2.653,2.836 0.964,1.515 2.179,3.515 2.699,4.437 l 0.945,1.684 0.008,-9 h 1.438 v 11.277 h -0.801 c -0.778,0 -0.875,-0.117 -3.211,-3.898 C 9.598,83.578 8.344,81.496 8.137,81.102 7.781,80.426 7.758,80.652 7.75,85.004 L 7.738,89.621 H 6.301 Z m 22.078,0.613 v -5.039 h -1.68 c -1.633,0 -1.679,-0.02 -1.679,-0.602 v -0.597 h 8.398 v 0.586 c 0,0.566 -0.07,0.593 -1.738,0.66 l -1.742,0.07 -0.063,4.981 -0.066,4.98 h -1.43 z m 6.48,-0.602 v -5.636 h 1.68 v 11.277 h -1.68 z m 6.481,0.602 v -5.039 h -1.68 c -1.633,0 -1.68,-0.02 -1.68,-0.602 v -0.597 h 8.399 v 0.597 c 0,0.582 -0.047,0.602 -1.68,0.602 H 43.02 v 10.078 h -1.68 z m 19.918,0 v -5.039 h -1.68 c -1.629,0 -1.68,-0.02 -1.68,-0.602 v -0.597 h 8.403 v 0.597 c 0,0.586 -0.043,0.602 -1.801,0.602 h -1.801 v 10.078 h -1.441 z m 10.379,-0.539 0.062,-5.582 2.641,-0.066 c 2.484,-0.063 2.722,-0.028 3.961,0.601 1.105,0.559 1.426,0.875 1.98,1.969 1.168,2.305 0.762,5.355 -0.941,7.058 -1.192,1.192 -2.57,1.598 -5.406,1.598 H 71.57 Z m 5.367,3.922 c 1.199,-0.543 1.914,-1.5 2.254,-3.012 0.414,-1.851 -0.11,-3.699 -1.324,-4.652 -0.77,-0.606 -2.805,-1.055 -3.868,-0.856 l -0.808,0.149 v 8.828 l 1.383,-0.004 c 0.82,-0.004 1.777,-0.188 2.363,-0.453 z m 6.094,-3.985 v -5.636 h 6.242 v 0.59 c 0,0.582 -0.031,0.593 -2.34,0.66 l -2.34,0.066 v 3.363 l 2.219,0.067 c 2.18,0.07 2.219,0.082 2.219,0.66 0,0.586 -0.016,0.594 -2.289,0.594 H 84.52 l 0.07,1.976 0.07,1.981 2.461,0.07 c 2.434,0.067 2.457,0.074 2.457,0.66 v 0.59 h -6.48 z m 22.562,0 v -5.636 h 1.438 v 11.277 h -1.438 z m 4.32,0 v -5.636 h 6.239 v 0.59 c 0,0.582 -0.031,0.593 -2.34,0.66 l -2.34,0.066 v 3.363 l 2.219,0.067 c 2.183,0.07 2.222,0.082 2.222,0.66 0,0.586 -0.019,0.594 -2.289,0.594 h -2.293 l 0.071,1.976 0.07,1.981 2.461,0.07 c 2.434,0.067 2.461,0.074 2.461,0.66 v 0.59 h -6.481 z m 8.641,0 v -5.636 h 0.813 c 0.789,0 0.89,0.109 2.972,3.418 1.184,1.883 2.438,3.961 2.789,4.621 l 0.633,1.199 -0.16,-4.621 -0.164,-4.617 h 1.516 v 11.308 l -0.762,-0.074 c -0.711,-0.07 -0.953,-0.379 -3.36,-4.277 -1.425,-2.309 -2.675,-4.344 -2.777,-4.52 -0.101,-0.176 -0.144,1.742 -0.098,4.262 l 0.086,4.578 h -1.488 z m 21.359,0 v -5.636 h 1.438 v 11.277 h -1.438 z m 3.594,5.477 c -0.004,-0.105 0.832,-2.656 1.856,-5.668 l 1.859,-5.469 1.867,0.141 1.774,5.16 c 0.976,2.84 1.836,5.352 1.906,5.582 0.113,0.344 -0.012,0.418 -0.699,0.418 -0.825,0 -0.844,-0.023 -1.418,-1.738 l -0.578,-1.742 h -3.973 l -0.523,1.679 c -0.493,1.59 -0.563,1.688 -1.293,1.758 -0.426,0.039 -0.774,-0.012 -0.778,-0.121 z m 5.438,-7.016 c -0.414,-1.308 -0.817,-2.308 -0.899,-2.218 -0.14,0.156 -1.414,4.164 -1.414,4.453 0,0.082 0.692,0.144 1.531,0.144 h 1.536 z m 9.926,1.539 v -5.636 h 2.582 c 2.207,0.004 2.757,0.086 3.804,0.574 2.016,0.937 2.875,2.672 2.68,5.398 -0.125,1.797 -0.524,2.719 -1.641,3.809 -1.105,1.078 -2.551,1.496 -5.187,1.496 h -2.238 z m 5.179,3.989 c 1.27,-0.578 1.926,-1.434 2.25,-2.949 0.418,-1.946 -0.086,-3.754 -1.312,-4.719 -0.77,-0.606 -2.805,-1.055 -3.867,-0.856 l -0.809,0.149 v 8.828 l 1.379,-0.004 c 0.82,-0.004 1.777,-0.188 2.359,-0.449 z m 6.102,-3.989 v -5.636 h 6.242 v 0.59 c 0,0.582 -0.035,0.593 -2.34,0.66 l -2.34,0.066 v 3.363 L 174,83.09 c 2.18,0.07 2.219,0.082 2.219,0.66 0,0.586 -0.016,0.594 -2.289,0.594 h -2.289 l 0.07,1.976 0.07,1.981 2.457,0.07 c 2.438,0.067 2.461,0.074 2.461,0.66 v 0.59 h -6.48 z m 12.242,5.461 c 0.004,-0.097 0.164,-2.339 0.359,-4.98 0.196,-2.641 0.356,-5.102 0.356,-5.473 0.004,-0.644 0.051,-0.672 1.008,-0.601 l 1.007,0.074 1.129,3.172 c 0.621,1.742 1.27,3.707 1.438,4.367 0.336,1.32 0.578,1.379 0.832,0.199 0.094,-0.426 0.644,-2.074 1.226,-3.656 1.68,-4.578 1.454,-4.199 2.512,-4.199 0.512,0 0.934,0.078 0.938,0.179 0,0.098 0.16,2.5 0.355,5.34 0.191,2.836 0.352,5.293 0.352,5.457 0.004,0.172 -0.289,0.301 -0.684,0.301 h -0.691 l -0.145,-1.98 c -0.082,-1.086 -0.219,-3.219 -0.308,-4.739 -0.133,-2.269 -0.204,-2.632 -0.395,-2.039 -0.129,0.395 -0.879,2.528 -1.668,4.739 -1.281,3.589 -1.496,4.019 -1.977,4.019 -0.48,0 -0.667,-0.363 -1.636,-3.18 -0.598,-1.75 -1.301,-3.871 -1.555,-4.714 l -0.465,-1.539 -0.156,2.617 c -0.09,1.441 -0.227,3.562 -0.309,4.718 l -0.148,2.098 h -0.688 c -0.378,0 -0.687,-0.082 -0.687,-0.18 z M 195.66,89.41 c 0,-0.117 0.82,-2.656 1.824,-5.64 l 1.825,-5.426 h 0.91 c 0.64,0 0.961,0.121 1.082,0.418 0.094,0.23 0.961,2.769 1.926,5.64 l 1.757,5.219 h -0.804 c -0.782,0 -0.817,-0.043 -1.379,-1.738 l -0.582,-1.742 h -4 l -0.578,1.742 c -0.543,1.629 -0.625,1.738 -1.282,1.738 -0.386,0 -0.699,-0.094 -0.699,-0.211 z m 5.473,-6.808 c -0.406,-1.219 -0.801,-2.293 -0.883,-2.379 -0.082,-0.09 -0.488,0.91 -0.902,2.218 l -0.754,2.379 h 3.273 z m 6.711,2.039 -0.063,-4.981 -1.742,-0.07 c -1.668,-0.067 -1.738,-0.094 -1.738,-0.66 v -0.586 h 8.398 v 0.597 c 0,0.582 -0.047,0.602 -1.679,0.602 h -1.68 v 10.078 h -1.43 z m 6.535,-0.661 v -5.636 h 6 v 0.597 c 0,0.598 -0.008,0.602 -2.281,0.602 h -2.278 v 3.598 h 2.16 c 2.145,0 2.161,0.004 2.161,0.601 0,0.594 -0.016,0.602 -2.161,0.602 h -2.16 v 4.078 h 4.801 v 1.199 h -6.242 z m 8.641,0 v -5.636 h 2.292 c 3.368,0 4.426,0.707 4.426,2.953 0,1.277 -0.617,2.422 -1.441,2.687 -0.445,0.141 -0.438,0.176 0.141,0.672 0.441,0.383 0.773,1.129 1.191,2.688 0.32,1.187 0.586,2.191 0.586,2.234 0.004,0.039 -0.344,0.039 -0.77,0 -0.746,-0.074 -0.789,-0.14 -1.289,-1.945 -0.668,-2.406 -1.031,-2.813 -2.535,-2.813 h -1.16 v 4.801 h -1.441 z m 4.683,-1.082 c 1.285,-1.207 0.535,-3.128 -1.363,-3.48 -1.707,-0.316 -1.879,-0.109 -1.879,2.211 v 2.051 l 1.32,-0.11 c 0.953,-0.078 1.489,-0.265 1.922,-0.672 z m 4.676,1.082 v -5.636 h 1.441 v 11.277 h -1.441 z m 3.5,5.102 c 0.094,-0.297 0.953,-2.809 1.906,-5.582 l 1.738,-5.039 0.93,-0.07 0.926,-0.067 1.863,5.469 c 1.028,3.008 1.863,5.559 1.863,5.664 -0.003,0.109 -0.347,0.16 -0.769,0.121 -0.715,-0.07 -0.793,-0.18 -1.34,-1.816 l -0.578,-1.739 h -3.953 l -0.567,1.797 c -0.554,1.778 -0.574,1.801 -1.378,1.801 -0.735,0 -0.797,-0.051 -0.641,-0.539 z m 6.016,-4.617 c -0.075,-0.195 -0.426,-1.277 -0.774,-2.399 -0.351,-1.125 -0.668,-2.043 -0.703,-2.043 -0.035,0 -0.348,0.918 -0.699,2.043 -0.352,1.122 -0.699,2.204 -0.774,2.399 -0.113,0.293 0.149,0.355 1.473,0.355 1.328,0 1.59,-0.062 1.477,-0.355 z m 5.363,-0.485 v -5.636 h 1.441 v 10.078 h 4.801 v 1.199 h -6.242 z m 20.64,0.028 v -5.664 l 2.7,0.004 c 3.113,0.004 4.156,0.343 5.382,1.742 1.743,1.98 1.508,6.234 -0.437,8.004 -1.223,1.113 -2.129,1.383 -4.945,1.484 l -2.7,0.094 z m 5.532,3.863 c 2.754,-1.457 2.933,-6.324 0.289,-7.773 -1.059,-0.582 -2.59,-0.852 -3.637,-0.645 l -0.742,0.149 v 8.82 h 1.523 c 1.125,0 1.793,-0.145 2.567,-0.551 z m 5.988,-3.891 v -5.636 h 6 v 0.597 c 0,0.598 -0.008,0.602 -2.277,0.602 h -2.282 v 3.598 h 2.161 c 2.144,0 2.16,0.004 2.16,0.601 0,0.594 -0.016,0.602 -2.16,0.602 h -2.161 v 4.078 h 4.801 v 1.199 h -6.242 z m 12.48,0 v -5.636 h 2.184 c 2.504,0 3.637,0.394 4.188,1.457 0.625,1.207 0.363,2.285 -0.786,3.254 l -0.609,0.515 0.574,0.293 c 1.008,0.52 1.399,1.231 1.406,2.559 0.008,2.34 -1.324,3.195 -4.976,3.199 h -1.981 z m 4.512,4.043 c 0.781,-0.492 1.145,-1.398 0.871,-2.168 -0.328,-0.917 -1.265,-1.503 -2.683,-1.671 l -1.258,-0.149 v 2.176 c 0,1.871 0.058,2.191 0.418,2.285 0.637,0.164 2.031,-0.086 2.652,-0.473 z m -0.543,-5.23 c 0.953,-0.398 1.41,-1.285 1.09,-2.121 -0.332,-0.879 -0.887,-1.18 -2.234,-1.215 l -1.262,-0.035 -0.141,3.719 h 0.856 c 0.472,0 1.234,-0.157 1.691,-0.348 z m 4.672,6.648 c 0,-0.097 0.82,-2.636 1.82,-5.64 l 1.821,-5.457 h 0.914 c 0.644,0 0.965,0.121 1.086,0.418 0.097,0.23 0.906,2.582 1.8,5.218 0.895,2.641 1.704,4.993 1.797,5.223 0.145,0.352 0.039,0.418 -0.672,0.418 -0.835,0 -0.851,-0.019 -1.425,-1.738 l -0.582,-1.742 h -4 l -0.578,1.742 c -0.543,1.629 -0.625,1.738 -1.282,1.738 -0.383,0 -0.699,-0.082 -0.699,-0.18 z m 5.473,-6.839 c -0.403,-1.219 -0.801,-2.293 -0.883,-2.379 -0.082,-0.09 -0.488,0.91 -0.902,2.218 l -0.754,2.379 h 3.273 z m 5.808,1.378 v -5.636 h 2.305 c 3.488,0 4.656,0.785 4.656,3.144 0,0.864 -0.14,1.137 -0.961,1.922 -0.886,0.844 -0.925,0.934 -0.511,1.156 0.543,0.289 0.644,0.524 1.339,3.075 l 0.536,1.98 h -0.793 c -0.723,0 -0.817,-0.082 -1.043,-0.961 -0.137,-0.527 -0.364,-1.394 -0.5,-1.93 -0.375,-1.445 -0.957,-1.91 -2.387,-1.91 h -1.203 v 4.801 h -1.438 z m 4.325,-0.722 c 2.527,-1.305 0.593,-4.578 -2.286,-3.86 -0.582,0.149 -0.601,0.215 -0.601,2.188 v 2.035 h 1.094 c 0.601,0 1.406,-0.164 1.793,-0.363 z m 15.113,0.722 v -5.636 h 6.242 v 1.199 h -4.801 v 3.598 h 2.16 c 2.145,0 2.161,0.004 2.161,0.601 0,0.594 -0.016,0.602 -2.161,0.602 h -2.16 v 4.078 h 5.039 v 1.199 h -6.48 z m 8.64,0 v -5.636 h 1.442 v 10.078 h 4.801 v 1.199 h -6.243 z m 19.442,0 v -5.636 h 0.816 c 0.789,0 0.887,0.109 2.969,3.418 1.187,1.883 2.434,3.961 2.777,4.621 l 0.618,1.199 -0.149,-4.621 -0.148,-4.617 h 1.515 v 11.308 l -0.761,-0.074 c -0.707,-0.07 -0.95,-0.379 -3.356,-4.277 -1.426,-2.309 -2.676,-4.344 -2.777,-4.52 -0.102,-0.176 -0.149,1.742 -0.098,4.262 l 0.086,4.578 h -1.492 z m 10.555,5.477 c -0.004,-0.105 0.835,-2.656 1.859,-5.664 l 1.867,-5.473 0.926,0.071 0.93,0.07 1.734,5.039 c 0.957,2.773 1.816,5.285 1.91,5.582 0.152,0.488 0.09,0.539 -0.641,0.539 -0.792,0 -0.828,-0.043 -1.425,-1.738 l -0.61,-1.742 -1.929,-0.067 -1.93,-0.07 -0.582,1.75 c -0.547,1.644 -0.629,1.754 -1.344,1.824 -0.418,0.039 -0.762,-0.012 -0.765,-0.121 z m 5.437,-7.008 c -0.414,-1.308 -0.797,-2.336 -0.852,-2.285 -0.117,0.109 -1.453,4.219 -1.457,4.477 -0.003,0.101 0.688,0.179 1.528,0.179 h 1.535 z M 111.66,76.652 110.578,75.703 h 0.981 c 0.855,0 1.078,0.121 1.75,0.957 l 0.773,0.961 -0.672,-0.008 c -0.43,-0.008 -1.058,-0.351 -1.75,-0.961 z m 32.117,-6.953 c -15.621,-1.41 -25.925,-8.695 -29.816,-21.078 -1.383,-4.414 -1.777,-10.797 -0.973,-15.879 2.879,-18.222 19.735,-29.133 41.871,-27.105 4.782,0.437 11.848,2.187 12.164,3.008 0.098,0.257 -1.031,4.656 -2.711,10.566 l -0.347,1.23 -1.406,-0.57 c -0.774,-0.312 -2.555,-0.836 -3.957,-1.168 -10.239,-2.422 -19.52,-0.523 -25.106,5.133 -3.476,3.523 -5.058,7.926 -5.058,14.066 0.007,9.805 5.832,16.891 15.624,19 1.586,0.344 3.051,0.438 6.598,0.43 5.078,-0.012 7.676,-0.371 11.149,-1.535 1.129,-0.379 2.093,-0.649 2.144,-0.598 0.203,0.196 2.438,11.246 2.332,11.52 -0.254,0.66 -6.117,2.191 -10.465,2.734 -2.906,0.363 -9.316,0.492 -12.043,0.246 z m 188.426,-0.597 c -2.055,-0.168 -4.187,-0.379 -4.742,-0.473 l -1,-0.168 V 37.883 c 0,-16.821 0.078,-30.582 0.18,-30.582 0.097,0 0.816,-0.106 1.597,-0.235 1.914,-0.312 9.934,-0.906 14.66,-1.086 4.407,-0.168 11.43,0.184 14.762,0.743 7.84,1.308 13.481,5.086 15.399,10.32 0.429,1.18 0.523,1.969 0.539,4.66 0.019,2.875 -0.043,3.399 -0.543,4.641 -1.336,3.312 -3.821,5.886 -7.282,7.551 -1.015,0.488 -1.851,0.941 -1.855,1.007 -0.008,0.067 0.66,0.375 1.484,0.684 3.348,1.266 6.786,4.012 8.453,6.758 2.864,4.711 2.805,11.558 -0.144,16.461 -3.738,6.211 -10.621,9.41 -22.363,10.398 -3.996,0.336 -14.387,0.281 -19.145,-0.101 z m 20.18,-11.243 c 2.597,-0.711 4.066,-1.398 5.23,-2.441 2.985,-2.684 3.266,-7.609 0.602,-10.457 -2.266,-2.426 -5.664,-3.332 -12.496,-3.336 l -4.379,-0.004 v 16.535 l 1.019,0.106 c 2.121,0.226 8.696,-0.039 10.024,-0.403 z M 351.66,30.25 c 4.66,-1.027 7.25,-3.746 6.891,-7.23 -0.461,-4.442 -4.539,-6.356 -12.891,-6.051 -1.914,0.07 -3.668,0.203 -3.902,0.297 -0.383,0.152 -0.418,0.711 -0.418,6.898 v 6.731 l 4.379,-0.149 c 2.41,-0.086 5.082,-0.308 5.941,-0.496 z M 87.898,37.66 V 6.582 h 15.122 v 62.16 H 87.898 Z m 87.133,30.301 c 0.008,-0.43 0.844,-14.387 1.864,-31.02 l 1.847,-30.238 21.117,-0.117 3.301,10.379 c 1.817,5.707 3.688,11.781 4.156,13.496 1.246,4.527 3.59,14.117 3.95,16.141 0.172,0.957 0.375,1.742 0.453,1.742 0.082,0 0.945,-2.946 1.918,-6.543 2.422,-8.922 3.976,-13.746 8.133,-25.258 l 3.558,-9.84 20.461,-0.125 0.129,1.02 c 0.07,0.562 0.777,13.929 1.574,29.703 0.793,15.773 1.504,29.304 1.578,30.066 l 0.133,1.383 -7.512,-0.066 -7.511,-0.063 -0.524,-13.68 c -0.289,-7.523 -0.633,-18.738 -0.761,-24.918 -0.125,-6.179 -0.274,-11.281 -0.325,-11.332 -0.054,-0.05 -0.84,2.524 -1.754,5.719 -0.91,3.195 -4.468,14.235 -7.906,24.531 l -6.254,18.719 -6.004,0.067 -6,0.062 -3.902,-13.262 c -3.992,-13.566 -5.934,-20.925 -7.871,-29.824 -0.602,-2.773 -1.18,-5.258 -1.285,-5.519 -0.11,-0.278 -0.262,1.773 -0.352,4.796 -0.359,11.567 -1.738,42.516 -1.965,43.981 l -0.121,0.781 H 175.02 Z m 80.68,0.484 c 0.059,-0.168 4.738,-14.156 10.406,-31.086 l 10.301,-30.781 10.043,0.063 10.039,0.062 10.863,31.02 10.867,31.019 h -16.691 l -2.738,-8.219 -2.742,-8.222 h -19.637 l -4.813,16.32 -8.004,0.063 c -6.363,0.05 -7.976,0.004 -7.894,-0.239 z M 293.34,40.836 c 0,-0.168 -1.227,-3.922 -2.723,-8.34 -1.496,-4.418 -3.14,-9.519 -3.66,-11.332 -0.516,-1.816 -1,-3.301 -1.074,-3.301 -0.078,0 -0.5,1.43 -0.938,3.18 -0.929,3.695 -2.027,7.387 -4.343,14.598 -0.914,2.847 -1.664,5.25 -1.664,5.339 0,0.09 3.242,0.161 7.203,0.161 5.683,0 7.199,-0.063 7.199,-0.305 z"
         style="fill:#000000;fill-opacity:1;fill-rule:nonzero;stroke:none"
         id="path837" />
      <path
         d="m 39.25,65.809 -14.82,-6.039 0.004,-18.485 0.004,-18.48 2.472,5.398 c 1.36,2.969 4.727,10.344 7.477,16.387 2.754,6.043 5.082,10.902 5.172,10.801 0.089,-0.106 3.437,-7.371 7.437,-16.149 3.996,-8.777 7.305,-16.004 7.352,-16.058 0.047,-0.055 0.082,10.878 0.082,24.3 0,13.418 -0.078,24.391 -0.18,24.379 -0.098,-0.011 -6.848,-2.734 -15,-6.054 z M 61.406,37.242 c -0.008,-12.387 0.078,-22.484 0.192,-22.437 8.039,3.136 14.672,5.855 14.672,6.011 0,0.161 -13.821,36.446 -14.653,38.465 -0.105,0.266 -0.203,-9.652 -0.211,-22.039 z M 8.836,52.914 C 5.078,51.363 1.852,49.996 1.664,49.879 1.395,49.707 2.727,45.965 8.621,30.375 l 7.289,-19.293 0.063,20.777 c 0.035,11.43 -0.02,21.477 -0.121,22.329 l -0.18,1.546 z M 31.438,18.336 C 26.777,8.289 22.996,0.039 23.035,0 c 0.043,-0.039 6.59,2.535 14.551,5.719 11.234,4.492 14.453,5.871 14.375,6.156 -0.164,0.609 -11.801,24.727 -11.93,24.727 -0.066,0 -3.933,-8.219 -8.593,-18.266 z"
         style="fill:#373660;fill-opacity:1;fill-rule:nonzero;stroke:none"
         id="path839" />
      <path
         d="m 183.293,153.453 c -2.078,-0.297 -3.82,-1.117 -4.105,-1.933 -0.133,-0.383 -0.278,-0.696 -0.317,-0.696 -0.039,0 -0.601,0.164 -1.25,0.36 -1.699,0.515 -5.633,0.468 -7.769,-0.094 l -1.715,-0.449 -0.254,0.769 c -0.375,1.133 -2.68,1.922 -5.645,1.926 -2.933,0.008 -4.25,-0.492 -4.777,-1.809 -0.621,-1.554 -0.41,-2.89 0.637,-4.004 l 0.504,-0.543 h -2.723 v -1.207 c 0,-1.437 0.117,-1.511 2.465,-1.535 1.527,-0.015 1.699,0.035 2.234,0.657 0.824,0.957 0.817,2.832 -0.019,4.058 -0.329,0.485 -0.598,0.942 -0.598,1.016 0,0.242 3.363,0.136 4.453,-0.137 l 1.066,-0.266 0.004,-1.351 c 0.004,-2.356 0.407,-2.492 3.989,-1.356 0.433,0.141 0.554,0.036 0.761,-0.636 0.508,-1.661 0.578,-3.348 0.157,-3.809 -0.215,-0.238 -0.45,-0.848 -0.516,-1.355 -0.098,-0.731 -0.02,-1.016 0.379,-1.375 0.922,-0.832 0.41,-2.688 -0.926,-3.379 -0.387,-0.2 -0.738,-0.364 -0.777,-0.364 -0.039,0 -0.039,0.621 0,1.379 0.094,1.875 -0.43,2.645 -2.832,4.172 -2.028,1.289 -2.645,1.879 -0.875,0.844 1.207,-0.707 1.597,-0.531 1.597,0.719 0,1.023 -0.726,1.527 -2.199,1.527 -0.941,0 -1.211,-0.109 -1.64,-0.652 -0.403,-0.512 -0.481,-0.844 -0.36,-1.5 0.242,-1.328 0.703,-1.832 2.574,-2.813 2.071,-1.086 2.508,-1.82 1.715,-2.879 -0.57,-0.765 -0.808,-0.867 -1.293,-0.558 -0.316,0.207 -0.308,0.32 0.051,0.957 l 0.41,0.726 -0.996,0.508 c -0.781,0.399 -1.09,0.449 -1.426,0.238 -0.652,-0.406 -0.679,-0.367 -0.679,1.071 0,1.16 -0.094,1.433 -0.7,2.039 -0.386,0.386 -0.863,0.703 -1.062,0.703 -0.195,0 -0.527,0.066 -0.738,0.144 -0.274,0.106 -0.379,0 -0.379,-0.382 0,-0.454 -0.094,-0.512 -0.621,-0.379 -0.34,0.086 -0.836,0.086 -1.106,0 -0.39,-0.125 -0.457,-0.289 -0.34,-0.867 0.078,-0.395 0.36,-1.024 0.625,-1.395 0.266,-0.375 0.422,-0.836 0.352,-1.027 -0.18,-0.465 1.098,-0.985 2.309,-0.938 0.91,0.039 0.925,0.024 0.785,-0.68 -0.125,-0.617 -0.071,-0.718 0.367,-0.718 0.281,0 0.508,-0.149 0.508,-0.328 0,-0.18 0.238,-0.629 0.531,-1 l 0.531,-0.672 -0.59,0.187 c -1.543,0.492 -2.265,0.434 -2.937,-0.238 -0.36,-0.359 -0.653,-0.738 -0.653,-0.844 0,-0.101 -0.386,-0.316 -0.855,-0.469 -0.816,-0.269 -0.836,-0.304 -0.453,-0.73 0.332,-0.367 0.355,-0.574 0.137,-1.211 -0.149,-0.422 -0.27,-0.805 -0.27,-0.852 0,-0.046 0.371,-0.082 0.824,-0.082 0.614,0 0.864,-0.125 0.977,-0.48 0.199,-0.625 0.465,-0.606 1.004,0.07 0.238,0.305 0.617,0.621 0.836,0.707 0.547,0.207 0.769,-0.465 0.25,-0.754 -0.563,-0.316 -0.196,-0.601 0.863,-0.672 0.488,-0.031 1.445,-0.124 2.125,-0.207 1.055,-0.125 1.312,-0.074 1.738,0.352 0.278,0.277 0.504,0.766 0.504,1.09 0,0.32 0.106,0.652 0.238,0.734 0.137,0.082 0.243,-0.117 0.243,-0.469 0,-0.917 0.73,-0.769 1.429,0.29 0.496,0.757 0.602,0.824 0.668,0.418 0.2,-1.211 0.328,-1.516 0.871,-2.106 0.524,-0.562 0.559,-0.734 0.36,-1.625 -0.274,-1.23 -1.098,-2.469 -2.16,-3.254 l -0.809,-0.594 -0.156,0.547 c -0.086,0.305 -0.168,0.922 -0.18,1.375 l -0.023,0.821 0.554,-0.524 c 0.723,-0.68 0.805,-0.664 1.367,0.262 0.672,1.101 0.61,1.289 -0.582,1.742 -1.324,0.508 -2.523,0.191 -3.269,-0.855 -0.457,-0.645 -0.578,-0.684 -1.598,-0.543 l -1.105,0.148 0.125,-1.117 c 0.144,-1.254 0.039,-1.328 -0.86,-0.621 -0.457,0.359 -0.632,0.722 -0.632,1.297 0,0.945 -1.118,2.062 -2.516,2.527 -0.73,0.238 -0.941,0.227 -1.281,-0.074 -0.293,-0.266 -0.719,-0.328 -1.543,-0.235 -1.008,0.118 -1.141,0.079 -1.141,-0.328 0,-0.25 0.258,-0.832 0.57,-1.289 0.438,-0.636 0.524,-0.965 0.36,-1.386 -0.184,-0.489 -0.106,-0.598 0.672,-0.922 0.55,-0.231 1.418,-0.34 2.336,-0.293 1.218,0.058 1.64,-0.035 2.543,-0.559 0.593,-0.348 1.695,-0.82 2.449,-1.051 1.219,-0.379 1.863,-0.91 1.519,-1.254 -0.066,-0.066 -0.671,-0.171 -1.347,-0.238 -1.098,-0.105 -1.258,-0.191 -1.477,-0.82 l -0.242,-0.699 -0.582,0.546 c -0.492,0.461 -0.656,0.5 -1.051,0.25 -0.402,-0.25 -0.547,-0.207 -0.98,0.297 -0.891,1.024 -3.332,1.75 -3.332,0.993 0,-0.192 -0.188,-0.407 -0.418,-0.481 -0.231,-0.074 -0.739,-0.391 -1.125,-0.703 l -0.707,-0.566 0.945,-0.543 c 0.902,-0.52 0.941,-0.594 0.863,-1.594 l -0.086,-1.047 1.016,0.359 c 0.559,0.196 1.207,0.356 1.441,0.356 0.239,0 0.703,0.324 1.035,0.722 0.696,0.825 0.872,0.856 1.852,0.352 0.606,-0.313 0.676,-0.441 0.461,-0.84 -0.406,-0.758 -1.539,-1.234 -2.277,-0.953 -0.348,0.133 -1.008,0.238 -1.473,0.238 -0.824,0 -1.152,-0.246 -2.551,-1.914 -0.195,-0.234 -0.504,-0.484 -0.683,-0.558 -0.25,-0.102 -0.196,-0.254 0.23,-0.625 0.445,-0.391 0.527,-0.637 0.399,-1.215 -0.157,-0.711 -0.141,-0.727 0.785,-0.727 0.742,0 0.992,-0.113 1.187,-0.539 0.238,-0.523 0.262,-0.512 0.68,0.36 0.305,0.628 0.594,0.902 0.953,0.902 0.715,0 1.313,0.73 1.313,1.609 0,0.723 0.5,1.41 0.804,1.106 0.317,-0.317 0.145,-1.071 -0.469,-2.035 l -0.625,-0.993 0.739,0.149 c 0.547,0.109 0.797,0.043 0.961,-0.254 0.195,-0.344 0.281,-0.356 0.625,-0.07 0.547,0.453 1.086,1.55 1.086,2.203 0,0.293 -0.286,0.836 -0.637,1.203 l -0.641,0.668 1.219,-0.145 c 1.617,-0.191 2.75,0.047 3.488,0.731 0.555,0.511 0.621,0.527 0.723,0.14 0.07,-0.277 -0.082,-0.511 -0.453,-0.679 -0.762,-0.348 -0.942,-1.243 -0.508,-2.516 0.219,-0.648 0.277,-1.184 0.148,-1.387 -0.117,-0.183 -0.214,-0.41 -0.214,-0.507 -0.008,-0.282 1.269,0.285 1.836,0.812 0.515,0.484 0.519,0.484 0.769,0.016 0.141,-0.258 0.184,-0.539 0.102,-0.621 -0.082,-0.082 0.015,-0.153 0.218,-0.153 0.489,0 0.879,0.492 1.157,1.465 0.312,1.09 -0.098,2.465 -0.911,3.063 -0.605,0.437 -0.656,0.601 -0.648,2.113 0.004,0.902 0.152,1.898 0.324,2.211 l 0.317,0.57 0.609,-0.609 c 0.578,-0.578 0.594,-0.672 0.332,-1.715 -0.355,-1.41 0.098,-2.414 1.324,-2.926 0.461,-0.195 1.024,-0.672 1.242,-1.059 0.485,-0.851 0.704,-0.898 0.809,-0.171 0.063,0.453 0.203,0.527 0.887,0.472 0.804,-0.062 0.812,-0.054 0.676,0.789 -0.133,0.801 -0.094,0.864 0.582,1 l 0.722,0.145 -0.738,0.758 c -0.402,0.418 -0.734,0.875 -0.734,1.023 0,0.145 -0.383,0.598 -0.848,1.008 -0.629,0.551 -1.082,0.746 -1.754,0.746 -0.676,0 -1.07,0.168 -1.543,0.66 l -0.633,0.664 0.645,1.004 c 0.636,0.985 0.668,1.004 1.73,0.867 1.86,-0.238 3.196,-2.043 3.512,-4.746 0.105,-0.886 0.266,-1.332 0.484,-1.332 0.231,0 0.328,-0.344 0.328,-1.191 0,-0.91 -0.171,-1.457 -0.722,-2.328 -0.797,-1.258 -0.961,-2.641 -0.344,-2.879 0.231,-0.086 0.516,0.054 0.734,0.367 0.422,0.602 0.875,0.656 1.29,0.152 0.441,-0.531 0.624,-0.449 1.054,0.457 0.508,1.071 0.488,1.86 -0.066,2.828 -0.254,0.438 -0.535,1.067 -0.633,1.395 -0.176,0.598 -0.176,0.598 0.332,0.145 0.297,-0.266 1.008,-0.504 1.711,-0.571 1.191,-0.113 1.203,-0.125 1.203,-0.949 0,-0.457 0.18,-1.211 0.399,-1.676 l 0.402,-0.84 0.348,0.684 c 0.195,0.379 0.488,0.848 0.656,1.047 0.168,0.199 0.359,0.578 0.422,0.84 0.066,0.265 0.129,-0.043 0.144,-0.684 0.024,-0.949 0.156,-1.281 0.715,-1.801 0.375,-0.355 0.875,-1.011 1.109,-1.465 0.426,-0.82 0.43,-0.824 0.832,-0.328 0.352,0.438 0.457,0.457 0.852,0.168 0.703,-0.511 1.082,-0.394 1.238,0.391 0.137,0.687 0.317,0.824 0.985,0.738 0.441,-0.058 0.367,0.246 -0.301,1.235 -0.332,0.484 -0.602,1.14 -0.602,1.457 0,0.886 -0.793,1.425 -2.34,1.586 -1.558,0.164 -2.546,0.714 -2.324,1.296 0.129,0.336 0.309,0.313 1.477,-0.207 0.73,-0.32 1.367,-0.586 1.418,-0.586 0.051,0 0.09,0.422 0.09,0.938 0,0.91 0.031,0.945 0.961,1.102 l 0.96,0.164 -0.421,0.726 c -0.231,0.399 -0.664,0.84 -0.961,0.977 -0.297,0.136 -0.539,0.394 -0.539,0.57 0,0.18 -0.168,0.324 -0.371,0.324 -0.204,0 -0.688,0.16 -1.071,0.36 -0.648,0.336 -0.719,0.328 -0.949,-0.11 -0.219,-0.402 -0.422,-0.449 -1.449,-0.324 -1.11,0.129 -1.199,0.102 -1.199,-0.375 0,-0.516 -0.356,-0.637 -1.059,-0.367 -0.238,0.09 -0.379,0.433 -0.379,0.902 0.004,0.965 0.191,1.227 1.078,1.516 0.645,0.211 0.727,0.347 0.793,1.355 0.039,0.617 0.039,1.121 -0.004,1.121 -0.039,0 -0.414,-0.097 -0.832,-0.214 -0.687,-0.2 -0.769,-0.165 -0.906,0.378 -0.379,1.512 -2.207,2.247 -3.438,1.383 -0.625,-0.437 -0.683,-1.207 -0.183,-2.402 l 0.351,-0.84 -0.734,0.426 c -0.832,0.488 -1.512,1.68 -1.719,3.012 -0.121,0.777 -0.078,0.898 0.332,0.898 0.387,0 0.442,0.109 0.309,0.641 -0.141,0.562 -0.106,0.613 0.293,0.441 0.254,-0.109 0.89,-0.25 1.418,-0.312 0.527,-0.059 1.172,-0.258 1.433,-0.438 0.262,-0.184 0.872,-0.332 1.356,-0.332 0.922,0 1.172,-0.277 1.172,-1.312 0,-0.348 0.176,-0.598 0.48,-0.676 0.344,-0.09 0.477,-0.008 0.477,0.289 0,0.64 0.246,0.75 0.828,0.367 0.398,-0.262 0.504,-0.52 0.426,-1.051 -0.086,-0.582 0.097,-0.906 1.086,-1.918 0.652,-0.672 1.25,-1.219 1.332,-1.219 0.082,0 0.222,0.391 0.308,0.868 0.164,0.855 0.176,0.863 1.121,0.711 l 0.953,-0.153 -0.105,0.903 c -0.082,0.703 0.004,0.992 0.395,1.308 0.492,0.403 0.48,0.418 -0.692,0.942 -0.656,0.289 -1.906,0.605 -2.785,0.703 -1.52,0.168 -3.074,0.695 -2.102,0.711 0.223,0.004 0.684,-0.098 1.02,-0.227 0.488,-0.187 0.617,-0.16 0.617,0.121 0,0.445 0.113,0.442 1.36,-0.035 1.375,-0.523 2.542,-0.293 3.207,0.637 0.32,0.453 0.718,0.711 1.085,0.711 0.524,0 0.551,0.054 0.313,0.582 -0.187,0.41 -0.191,0.793 -0.016,1.3 0.286,0.821 0.188,0.997 -0.558,0.997 -0.406,0 -0.567,0.183 -0.684,0.765 l -0.152,0.762 -0.656,-0.613 c -0.364,-0.34 -1.059,-0.684 -1.543,-0.774 -0.973,-0.172 -2.118,-1.293 -2.118,-2.078 0,-0.535 -0.757,-0.633 -1.156,-0.152 -0.191,0.23 -0.137,0.386 0.215,0.605 0.445,0.278 0.449,0.336 0.09,1.035 -0.309,0.594 -0.485,0.707 -0.906,0.571 -1.879,-0.594 -2.961,-0.821 -3.34,-0.7 -0.731,0.231 1.133,1.329 2.375,1.399 1.281,0.07 2.004,0.676 2.004,1.68 0.004,0.566 0.168,0.836 0.707,1.14 0.695,0.399 1.691,1.996 1.691,2.711 0,0.555 -1.191,0.461 -1.836,-0.144 l -0.547,-0.516 0.278,0.734 c 0.367,0.977 -0.051,2.371 -0.977,3.262 l -0.699,0.668 -0.688,-1.09 c -0.718,-1.133 -1.32,-1.363 -2.265,-0.855 -0.289,0.156 -0.465,0.16 -0.465,0.015 0,-0.492 0.535,-1.609 1.019,-2.125 0.387,-0.414 0.422,-0.539 0.145,-0.539 -0.336,0 -1.402,-0.945 -1.402,-1.242 0,-0.074 0.492,-0.32 1.093,-0.551 1.426,-0.543 1.258,-0.691 -0.265,-0.226 -0.672,0.203 -1.867,0.332 -2.75,0.301 -0.86,-0.036 -1.688,0.015 -1.836,0.109 -0.403,0.246 -0.879,2.473 -0.692,3.234 0.09,0.36 0.414,0.926 0.719,1.254 0.805,0.871 0.945,1.563 0.496,2.461 -0.39,0.785 -0.34,2.086 0.114,2.817 0.183,0.296 0.402,0.265 1.488,-0.211 1.93,-0.856 2.492,-0.899 2.859,-0.231 0.172,0.313 0.371,1.106 0.442,1.766 0.129,1.191 0.14,1.203 1.211,1.48 1.269,0.328 4.476,0.41 4.656,0.117 0.07,-0.113 -0.196,-0.511 -0.59,-0.89 -0.816,-0.785 -1.285,-2.223 -1.059,-3.254 0.223,-1.031 1.032,-1.453 2.75,-1.445 2.278,0.011 2.403,0.089 2.403,1.574 v 1.265 l -1.2,-0.113 c -0.66,-0.062 -1.199,-0.055 -1.199,0.024 0,0.078 0.266,0.406 0.59,0.73 0.801,0.805 0.969,1.645 0.621,3.184 -0.308,1.39 -0.68,1.761 -2.172,2.199 -1.316,0.383 -2.648,0.476 -4.027,0.281 z m -18.414,-1.226 c 1.992,-0.469 2.281,-0.672 2.281,-1.579 0,-0.699 -0.07,-0.812 -0.422,-0.675 -2.07,0.804 -6.172,1.129 -7.922,0.625 -0.683,-0.196 -0.777,-0.168 -0.777,0.242 0,0.754 0.84,1.375 2.082,1.543 0.637,0.086 1.266,0.191 1.399,0.23 0.328,0.106 2.191,-0.109 3.359,-0.386 z m 22.926,-0.102 c 0.449,-0.266 0.875,-0.75 0.972,-1.102 0.161,-0.613 0.145,-0.625 -0.582,-0.418 -1.679,0.481 -6.144,0.133 -8.136,-0.632 -0.329,-0.125 -0.418,-0.035 -0.418,0.418 0,0.914 0.496,1.371 2.043,1.879 1.882,0.621 4.929,0.546 6.121,-0.145 z m -9.965,-1.844 c 0.84,-0.304 0.976,-0.461 1.109,-1.269 0.094,-0.574 0.395,-1.133 0.793,-1.477 0.86,-0.738 0.531,-0.699 -1.703,0.211 -1.535,0.625 -2.301,0.781 -4.176,0.867 -2.109,0.094 -2.437,0.043 -4.078,-0.609 -0.984,-0.391 -2.109,-0.789 -2.504,-0.887 l -0.722,-0.176 0.531,0.563 c 0.289,0.312 0.691,0.953 0.89,1.434 0.372,0.89 0.551,0.972 3.86,1.746 0.933,0.218 5.051,-0.059 6,-0.403 z m -18.449,-1.086 c 0.281,-0.226 0.632,-0.652 0.785,-0.941 0.226,-0.449 0.191,-0.574 -0.235,-0.801 -0.578,-0.308 -1.23,0.141 -1.796,1.238 -0.512,0.989 0.265,1.301 1.246,0.504 z m 29.441,0.274 c 0.461,-0.461 -1.418,-2.125 -1.996,-1.766 -0.262,0.164 -0.141,0.395 0.57,1.063 0.918,0.863 1.149,0.98 1.426,0.703 z m -21.812,-0.535 c 0.07,-0.114 -0.086,-0.403 -0.348,-0.637 -0.461,-0.418 -0.473,-0.41 -0.473,0.207 0,0.617 0.531,0.894 0.821,0.43 z m 13.578,-0.422 c 0,-0.532 -0.055,-0.582 -0.36,-0.328 -0.195,0.164 -0.359,0.445 -0.359,0.628 0,0.18 0.164,0.329 0.359,0.329 0.231,0 0.36,-0.231 0.36,-0.629 z m 8.55,-2.25 c 0.704,0 0.813,-0.078 0.813,-0.602 0,-0.566 -0.074,-0.598 -1.336,-0.598 -1.711,0 -2.266,0.293 -2.266,1.2 v 0.699 l 0.989,-0.352 c 0.547,-0.191 1.355,-0.347 1.8,-0.347 z m -28.753,-0.18 c -0.106,-0.922 -1.083,-1.348 -2.61,-1.137 -1.047,0.145 -1.187,0.231 -1.187,0.739 0,0.527 0.105,0.582 1.14,0.601 0.629,0.012 1.41,0.11 1.742,0.219 0.946,0.301 0.997,0.277 0.915,-0.422 z m 5.14,-2.644 c 0.578,-0.504 0.266,-0.86 -0.363,-0.418 -0.676,0.472 -1.828,0.468 -2.008,-0.008 -0.203,-0.524 0.508,-1.215 2.371,-2.305 1.895,-1.105 2.461,-1.957 2.27,-3.398 -0.071,-0.524 -0.309,-1.129 -0.532,-1.34 -0.378,-0.364 -0.382,-0.34 -0.019,0.379 0.828,1.648 0.312,2.652 -1.988,3.879 -1.598,0.851 -2.426,1.73 -2.426,2.574 0,1.164 1.64,1.551 2.695,0.637 z m 10.149,-0.524 c -0.243,-0.758 -1.051,-1.176 -2.774,-1.426 -0.851,-0.121 -1.765,-0.308 -2.031,-0.414 -0.457,-0.179 -0.461,-0.164 -0.094,0.399 0.442,0.675 1.621,1.156 2.887,1.175 0.484,0.008 1.125,0.219 1.441,0.473 0.66,0.535 0.789,0.488 0.571,-0.207 z m 8.824,-4.82 c -0.07,-0.27 -0.184,-0.438 -0.25,-0.371 -0.129,0.129 0.101,0.859 0.273,0.859 0.055,0 0.047,-0.219 -0.023,-0.488 z m -1.778,-0.719 c 2.766,-2.004 1.352,-3.305 -2.332,-2.148 -0.836,0.261 -2.121,0.476 -2.851,0.476 -1.152,0 -1.285,0.047 -1.027,0.359 0.429,0.516 2.519,0.461 4.359,-0.117 1.859,-0.582 2.332,-0.597 2.527,-0.086 0.188,0.481 -0.914,1.438 -1.902,1.657 -0.367,0.078 -0.664,0.242 -0.664,0.367 0,0.445 0.914,0.199 1.89,-0.508 z m -18.328,-0.172 c -0.097,-0.363 -0.191,-1.019 -0.207,-1.453 l -0.035,-0.793 -0.422,0.52 c -0.711,0.882 -0.488,2.386 0.356,2.386 0.406,0 0.453,-0.101 0.308,-0.66 z m 11.157,-1.601 c 0,-0.188 -0.289,-0.684 -0.641,-1.102 -0.598,-0.715 -0.969,-0.984 -3.258,-2.371 l -0.902,-0.547 v 0.66 c 0,0.903 1.687,2.469 3.375,3.137 0.719,0.281 1.332,0.527 1.367,0.539 0.031,0.012 0.059,-0.129 0.059,-0.316 z m 3.793,-0.973 c 0.449,-0.449 -1.747,-0.824 -2.692,-0.461 -0.547,0.207 -0.469,0.523 0.16,0.656 0.664,0.141 2.325,0.016 2.532,-0.195 z m -12.696,-0.828 c 0.578,-0.367 0.121,-1.012 -0.59,-0.832 -0.445,0.109 -0.828,0.008 -1.316,-0.356 -0.379,-0.281 -0.75,-0.511 -0.82,-0.511 -0.328,0 -0.078,0.863 0.39,1.363 0.539,0.574 1.696,0.742 2.336,0.336 z m -0.937,-1.699 c 0,-0.133 -0.114,-0.239 -0.254,-0.239 -0.141,0 -0.188,0.106 -0.106,0.239 0.082,0.132 0.196,0.242 0.254,0.242 0.059,0 0.106,-0.11 0.106,-0.242 z m 17.886,-0.133 c -0.57,-0.43 -2.167,-0.887 -2.722,-0.774 -0.453,0.09 1.972,1.082 2.715,1.114 0.476,0.019 0.476,0.015 0.007,-0.34 z m -18.902,-0.633 c -0.121,-0.359 -0.535,-0.258 -0.621,0.152 -0.055,0.258 0.043,0.324 0.309,0.223 0.214,-0.082 0.355,-0.25 0.312,-0.375 z m 15.176,0.156 c 0,-0.551 -1.098,-1.551 -1.699,-1.551 -0.508,0 -0.504,0.016 0.093,0.489 0.34,0.265 0.684,0.699 0.77,0.957 0.176,0.558 0.836,0.64 0.836,0.105 z m -3.121,-0.351 c 0.312,-0.2 0.304,-0.231 -0.043,-0.235 -0.223,-0.004 -0.473,0.106 -0.555,0.235 -0.187,0.304 0.129,0.304 0.598,0 z m -12.696,-0.864 c 0.235,-0.285 0.59,-0.355 1.348,-0.269 0.567,0.062 1.028,0.043 1.028,-0.047 0,-0.359 -0.61,-0.738 -1.188,-0.738 -0.684,0 -2.172,0.82 -2.172,1.195 0,0.379 0.625,0.289 0.984,-0.141 z m 19.887,-0.203 c 0.246,-0.297 0.164,-0.328 -0.551,-0.211 -0.523,0.082 -1.25,-0.023 -1.941,-0.289 -1.391,-0.531 -1.687,-0.308 -0.461,0.34 1.086,0.574 2.543,0.652 2.953,0.16 z m -15.258,-3.09 c 0.559,-0.238 0.629,-0.343 0.36,-0.566 -0.258,-0.215 -0.481,-0.145 -1.004,0.305 -0.727,0.625 -0.461,0.734 0.644,0.261 z m -1.699,-0.828 c -0.066,-0.5 0.051,-1.832 0.262,-2.961 0.512,-2.718 0.484,-3.933 -0.106,-5.156 -0.683,-1.41 -2.027,-2.027 -3.539,-1.625 -0.976,0.262 -0.418,0.688 0.903,0.688 1.101,0 1.332,0.086 1.761,0.66 0.641,0.847 0.622,2.441 -0.054,4.359 -0.274,0.777 -0.5,1.836 -0.5,2.352 0,0.996 0.515,2.226 1.015,2.429 0.168,0.067 0.321,0.129 0.344,0.141 0.02,0.012 -0.019,-0.391 -0.086,-0.887 z m 13.258,0.074 c 0.48,-1.148 0.434,-3 -0.133,-5.363 -0.617,-2.57 -0.601,-2.965 0.121,-3.644 0.52,-0.489 0.676,-0.524 1.215,-0.278 0.645,0.293 1.176,0.168 0.938,-0.218 -0.079,-0.125 -0.579,-0.223 -1.114,-0.223 -0.812,0 -1.129,0.152 -1.906,0.93 -1.133,1.132 -1.164,1.625 -0.328,4.816 0.652,2.473 0.719,3.262 0.363,4.195 -0.379,0.993 0.426,0.785 0.844,-0.215 z m -1.445,-0.386 c 0.086,-0.406 0.105,-0.793 0.035,-0.86 -0.227,-0.226 -0.934,1.11 -0.789,1.493 0.203,0.531 0.562,0.23 0.754,-0.633 z m 3.625,-1.551 c -0.075,-0.191 -0.301,-0.352 -0.504,-0.352 -0.508,0 -0.461,0.907 0.054,1.012 0.477,0.098 0.645,-0.148 0.45,-0.66 z m 1.859,-3.77 c 0.219,-0.816 0.18,-1.597 -0.105,-2.132 -0.446,-0.832 -0.946,-0.102 -0.946,1.379 0,1.105 0.067,1.292 0.453,1.292 0.266,0 0.512,-0.222 0.598,-0.539 z m -2.73,-2.742 c 0,-0.449 -0.879,-0.398 -1.055,0.059 -0.078,0.211 -0.145,0.605 -0.145,0.883 0,0.492 0.012,0.492 0.602,-0.063 0.328,-0.308 0.598,-0.703 0.598,-0.879 z m -15.95,-0.062 c -0.195,-0.317 -0.851,-0.34 -0.851,-0.035 0,0.125 0.191,0.265 0.422,0.316 0.523,0.117 0.632,0.047 0.429,-0.281 z"
         style="fill:#bdbcbc;fill-opacity:1;fill-rule:nonzero;stroke:none"
         id="path841" />
      <path
         d="m 19.504,169.875 -0.066,-7.652 -0.958,-0.075 c -2.668,-0.203 -5.964,-1.8 -7.832,-3.796 -1.894,-2.024 -2.746,-3.985 -3.097,-7.149 -0.207,-1.863 -0.188,-2.543 0.125,-3.898 0.527,-2.278 1.613,-4.274 3.207,-5.914 1.543,-1.582 2.851,-2.403 5.031,-3.157 l 1.52,-0.523 -1.637,-0.301 C 9.98,136.34 4.461,132.074 1.938,126.703 0.23,123.078 0,122.027 0,117.941 c 0,-3.226 0.074,-3.957 0.562,-5.507 2.036,-6.489 6.809,-11.426 13,-13.446 3.895,-1.269 8.797,-1.226 12.844,0.121 3.617,1.203 7.602,4.301 9.805,7.625 1.863,2.817 2.684,4.977 3.277,8.629 0.461,2.856 -0.086,7.535 -1.113,9.5 -0.184,0.352 -0.332,0.774 -0.336,0.934 0,0.43 -1.883,3.508 -2.875,4.707 -1.609,1.941 -4.055,3.934 -6.18,5.027 -2.461,1.27 -3.945,1.735 -6.906,2.153 l -2.16,0.308 v 23.735 l 1.746,0.609 c 0.961,0.332 2.207,0.937 2.77,1.348 2.742,1.976 3.746,5.894 2.336,9.097 -1.016,2.301 -3.598,4.254 -6.067,4.59 l -1.137,0.156 z m 1.887,-47.996 c 1.879,-0.774 2.73,-2.02 2.73,-3.996 0,-0.981 -0.152,-1.516 -0.633,-2.262 -0.742,-1.144 -1.445,-1.594 -3.093,-1.98 -1.004,-0.235 -1.356,-0.219 -2.094,0.089 -1.485,0.622 -2.504,1.84 -2.824,3.379 -0.325,1.575 -0.102,2.344 1.066,3.676 1.277,1.453 3.019,1.848 4.848,1.094 z"
         style="fill:#cdb56e;fill-opacity:1;fill-rule:nonzero;stroke:none"
         id="path843" />
    </g>
  </g>
</svg>
