<?xml version="1.0" encoding="UTF-8" standalone="no"?>
<!-- Created with Inkscape (http://www.inkscape.org/) -->

<svg
   width="112.03027mm"
   height="37.41391mm"
   viewBox="0 0 112.03027 37.41391"
   version="1.1"
   id="svg5"
   inkscape:version="1.1.2 (b8e25be833, 2022-02-05)"
   sodipodi:docname="UAB Logo Vector.svg"
   xmlns:inkscape="http://www.inkscape.org/namespaces/inkscape"
   xmlns:sodipodi="http://sodipodi.sourceforge.net/DTD/sodipodi-0.dtd"
   xmlns="http://www.w3.org/2000/svg"
   xmlns:svg="http://www.w3.org/2000/svg">
  <sodipodi:namedview
     id="namedview7"
     pagecolor="#ffffff"
     bordercolor="#666666"
     borderopacity="1.0"
     inkscape:pageshadow="2"
     inkscape:pageopacity="0.0"
     inkscape:pagecheckerboard="0"
     inkscape:document-units="mm"
     showgrid="false"
     inkscape:zoom="1.2810466"
     inkscape:cx="210.37486"
     inkscape:cy="53.081598"
     inkscape:window-width="1920"
     inkscape:window-height="1217"
     inkscape:window-x="-8"
     inkscape:window-y="-8"
     inkscape:window-maximized="1"
     inkscape:current-layer="layer1" />
  <defs
     id="defs2" />
  <g
     inkscape:label="Layer 1"
     inkscape:groupmode="layer"
     id="layer1"
     transform="translate(-83.408416,-96.988886)">
    <path
       id="path1552"
       style="fill:#000000;stroke-width:0.264583"
       d="m 175.16088,97.298717 c -0.34525,-1.61e-4 -0.70062,5.29e-4 -1.0666,0.0011 l -11.04635,0.01757 v 18.293973 18.29397 l 11.57552,0.0512 c 12.34079,0.0546 12.73599,-0.30395 15.39234,-1.66191 1.56139,-0.79821 3.74072,-3.02716 4.45347,-4.55476 1.26546,-2.7122 1.2956,-6.80311 0.0693,-9.33639 -0.70092,-1.44791 -2.57198,-3.19642 -4.18476,-3.90983 l -1.23041,-0.54416 0.64854,-0.42426 c 1.36734,-0.89546 2.30462,-1.89432 3.04994,-3.25045 0.68157,-1.24019 0.77428,-1.67418 0.77928,-3.6561 0.005,-1.88187 -0.10676,-2.49061 -0.68678,-3.72743 -0.80946,-1.72608 -2.17319,-3.178347 -3.74551,-3.988898 -2.38039,-1.227135 -3.30521,-1.598554 -14.00793,-1.603518 z m -2.58795,7.467763 h 4.36045 c 6.11351,0 7.28121,0.5648 7.28121,3.52278 0,1.38477 -0.71708,2.44714 -2.02003,2.99155 -0.62253,0.26011 -2.12852,0.36484 -5.24722,0.36484 h -4.37441 v -3.43959 z m 0,13.18007 5.09323,0.0904 c 4.51867,0.0803 5.19484,0.15065 5.99188,0.62012 1.48916,0.87715 2.00298,1.79374 2.00298,3.57188 0,1.85283 -0.54896,2.77379 -2.12494,3.56567 -0.89455,0.44948 -1.71228,0.53705 -5.80378,0.62115 -2.61938,0.0539 -4.8518,0.007 -4.96094,-0.10439 -0.10914,-0.11121 -0.19843,-2.03875 -0.19843,-4.28345 z" />
    <path
       style="fill:#9f4f17;fill-opacity:1;stroke-width:0.264583"
       d="m 141.02145,120.37711 c -1.85539,-0.53337 -3.37344,-1.0359 -3.37344,-1.11675 0,-0.0809 1.45143,-0.47263 3.22541,-0.87061 l 3.2254,-0.7236 0.65107,0.65107 c 0.62067,0.62067 0.63524,0.70762 0.31209,1.86182 -0.18645,0.66591 -0.41281,1.20108 -0.50304,1.18927 -0.0902,-0.0118 -1.6821,-0.45784 -3.53749,-0.9912 z"
       id="path1558" />
    <path
       style="fill:#000000;stroke-width:0.264583"
       d="m 94.722902,134.0811 c -5.909914,-0.99513 -9.816695,-4.47771 -10.933414,-9.74623 -0.289655,-1.36655 -0.372894,-4.57707 -0.376472,-14.52061 l -0.0046,-12.766154 h 4.748225 4.748226 l 0.08042,12.501564 c 0.0891,13.85156 0.06024,13.61287 1.872551,15.48538 2.027261,2.09459 7.298682,2.16939 9.250872,0.13126 1.66194,-1.7351 1.64941,-1.62325 1.73512,-15.48434 l 0.0781,-12.633864 h 4.75053 4.75052 v 12.846214 c 0,14.37939 -0.0832,15.23561 -1.75153,18.01921 -1.98644,3.31442 -4.89013,5.28275 -8.92122,6.04744 -2.20561,0.41839 -7.85411,0.48607 -10.027355,0.12013 z"
       id="path1550" />
    <path
       style="fill:#9f4f17;fill-opacity:1;stroke-width:0.264583"
       d="m 152.71287,133.67363 c -1.00061,-1.53381 -4.19506,-8.42487 -5.92958,-12.79127 -1.86881,-4.70446 -2.78272,-8.20714 -2.79314,-10.70515 -0.009,-2.13322 -0.67546,-9.4027 -0.88101,-9.60825 -0.0741,-0.0741 -0.26582,0.38335 -0.4261,1.01651 -1.01556,4.01178 -2.25725,7.98962 -3.2666,10.46473 -1.61253,3.95426 -6.49331,15.52991 -7.8983,18.73229 l -1.16082,2.64583 -3.82914,0.073 -3.82913,0.073 0.0897,-8.274 c 0.0581,-5.36187 0.18681,-8.33401 0.36562,-8.44452 0.16727,-0.10338 0.20372,-0.55534 0.0926,-1.14786 -0.30452,-1.62317 -0.40307,-14.17009 -0.12579,-16.013954 0.46136,-3.06797 -0.61572,-2.76083 8.80328,-2.51027 4.53042,0.12051 8.65385,0.20151 9.16318,0.18 0.50932,-0.0215 4.05143,-0.11304 7.87135,-0.20339 l 6.94531,-0.16428 -0.0115,3.399494 c -0.006,1.86972 -0.12599,4.64965 -0.26588,6.17762 -0.13989,1.52797 -0.42431,6.46906 -0.63204,10.98021 -0.30583,6.64147 -0.79705,11.97606 -1.5453,16.78177 -0.0327,0.20977 -0.36009,-0.0842 -0.73664,-0.66146 z"
       id="path836" />
  </g>
</svg>
