<?xml version="1.0" encoding="UTF-8" standalone="no"?>
<!-- Created with Inkscape (http://www.inkscape.org/) -->

<svg
   version="1.1"
   id="svg2"
   xml:space="preserve"
   width="422.39999"
   height="590.40002"
   viewBox="0 0 422.39999 590.40002"
   sodipodi:docname="PCB_PCB_Pika Demultiplexer 3.0 PCB_2022-04-23.svg"
   inkscape:version="1.1.2 (b8e25be833, 2022-02-05)"
   xmlns:inkscape="http://www.inkscape.org/namespaces/inkscape"
   xmlns:sodipodi="http://sodipodi.sourceforge.net/DTD/sodipodi-0.dtd"
   xmlns="http://www.w3.org/2000/svg"
   xmlns:svg="http://www.w3.org/2000/svg"><defs
     id="defs6" /><sodipodi:namedview
     id="namedview4"
     pagecolor="#ffffff"
     bordercolor="#666666"
     borderopacity="1.0"
     inkscape:pageshadow="2"
     inkscape:pageopacity="0.0"
     inkscape:pagecheckerboard="0"
     showgrid="false"
     inkscape:zoom="1.2618563"
     inkscape:cx="211.19679"
     inkscape:cy="294.80377"
     inkscape:window-width="1920"
     inkscape:window-height="1217"
     inkscape:window-x="-8"
     inkscape:window-y="-8"
     inkscape:window-maximized="1"
     inkscape:current-layer="g8" /><g
     id="g8"
     inkscape:groupmode="layer"
     inkscape:label="PCB_PCB_Pika Demultiplexer 3.0 PCB_2022-04-23"
     transform="matrix(1.3333333,0,0,-1.3333333,0,590.4)"><path
       d="M 0,442.8 H 316.8 V 0 H 0 Z"
       style="fill:#ffffff;fill-opacity:1;fill-rule:nonzero;stroke:none"
       id="path10" /><path
       d="m 181.8739,236.326 v 5.493 m 0,0 h -3.139 m -1.995,-1.303 0.267,0.259 -0.267,0.259 -0.259,-0.259 0.259,-0.259 m -3.556,-4.19 0.784,0.259 0.526,0.785 0.259,1.31 v 0.785 l -0.259,1.31 -0.526,0.785 -0.784,0.259 h -0.526 l -0.785,-0.259 -0.525,-0.785 -0.26,-1.31 v -0.785 l 0.26,-1.31 0.525,-0.785 0.785,-0.259 h 0.526 m -3.824,1.044 -0.525,-0.26 -0.785,-0.784 v 5.493"
       style="fill:none;stroke:#000000;stroke-width:1.42;stroke-linecap:round;stroke-linejoin:round;stroke-miterlimit:72;stroke-dasharray:none;stroke-opacity:1"
       id="path12" /><path
       d="m 181.8739,250.726 v 5.493 m 0,0 h -3.139 m -1.995,-1.303 0.267,0.259 -0.267,0.259 -0.259,-0.259 0.259,-0.259 m -3.556,-4.19 0.784,0.259 0.526,0.785 0.259,1.31 v 0.785 l -0.259,1.31 -0.526,0.785 -0.784,0.259 h -0.526 l -0.785,-0.259 -0.525,-0.785 -0.26,-1.31 v -0.785 l 0.26,-1.31 0.525,-0.785 0.785,-0.259 h 0.526 m -4.09,1.31 v -0.266 l -0.259,-0.526 -0.259,-0.259 -0.526,-0.259 h -1.044 l -0.526,0.259 -0.266,0.259 -0.259,0.526 v 0.525 l 0.259,0.526 0.526,0.785 2.62,2.613 h -3.664"
       style="fill:none;stroke:#000000;stroke-width:1.42;stroke-linecap:round;stroke-linejoin:round;stroke-miterlimit:72;stroke-dasharray:none;stroke-opacity:1"
       id="path14" /><path
       d="m 173.1129,264.886 v 5.494 m 0,0 h -3.139 m -1.994,-1.303 0.266,0.259 -0.266,0.259 -0.26,-0.259 0.26,-0.259 m -3.557,-4.191 0.785,0.26 0.525,0.784 0.259,1.311 v 0.785 l -0.259,1.31 -0.525,0.785 -0.785,0.259 h -0.526 l -0.785,-0.259 -0.525,-0.785 -0.259,-1.31 v -0.785 l 0.259,-1.311 0.525,-0.784 0.785,-0.26 h 0.526 m -4.349,0 h -2.88 l 1.57,2.096 h -0.785 l -0.526,0.259 -0.259,0.259 -0.259,0.785 v 0.525 l 0.259,0.785 0.526,0.526 0.784,0.259 h 0.785 l 0.785,-0.259 0.259,-0.259 0.267,-0.526"
       style="fill:none;stroke:#000000;stroke-width:1.42;stroke-linecap:round;stroke-linejoin:round;stroke-miterlimit:72;stroke-dasharray:none;stroke-opacity:1"
       id="path16" /><path
       d="m 172.3929,294.046 v 5.494 m 0,0 h -3.139 m -1.994,-1.303 0.266,0.259 -0.266,0.259 -0.26,-0.259 0.26,-0.259 m -3.557,-4.191 0.785,0.26 0.525,0.784 0.259,1.311 v 0.785 l -0.259,1.31 -0.525,0.785 -0.785,0.259 h -0.526 l -0.785,-0.259 -0.525,-0.785 -0.259,-1.31 v -0.785 l 0.259,-1.311 0.525,-0.784 0.785,-0.26 h 0.526 m -6.97,0 h 2.621 l 0.259,2.355 -0.259,-0.259 -0.785,-0.267 h -0.785 l -0.784,0.267 -0.526,0.518 -0.259,0.785 v 0.525 l 0.259,0.785 0.526,0.526 0.784,0.259 h 0.785 l 0.785,-0.259 0.259,-0.259 0.267,-0.526"
       style="fill:none;stroke:#000000;stroke-width:1.42;stroke-linecap:round;stroke-linejoin:round;stroke-miterlimit:72;stroke-dasharray:none;stroke-opacity:1"
       id="path18" /><path
       d="m 181.8739,279.526 v 5.493 m 0,0 h -3.139 m -1.995,-1.303 0.267,0.259 -0.267,0.259 -0.259,-0.259 0.259,-0.259 m -3.556,-4.19 0.784,0.259 0.526,0.785 0.259,1.31 v 0.785 l -0.259,1.31 -0.526,0.785 -0.784,0.259 h -0.526 l -0.785,-0.259 -0.525,-0.785 -0.26,-1.31 v -0.785 l 0.26,-1.31 0.525,-0.785 0.785,-0.259 h 0.526 m -6.444,0 2.62,3.664 h -3.931 m 1.311,-3.664 v 5.493"
       style="fill:none;stroke:#000000;stroke-width:1.42;stroke-linecap:round;stroke-linejoin:round;stroke-miterlimit:72;stroke-dasharray:none;stroke-opacity:1"
       id="path20" /><path
       d="m 181.8739,308.326 v 5.493 m 0,0 h -3.139 m -1.995,-1.303 0.267,0.259 -0.267,0.259 -0.259,-0.259 0.259,-0.259 m -3.556,-4.19 0.784,0.259 0.526,0.785 0.259,1.31 v 0.785 l -0.259,1.31 -0.526,0.785 -0.784,0.259 h -0.526 l -0.785,-0.259 -0.525,-0.785 -0.26,-1.31 v -0.785 l 0.26,-1.31 0.525,-0.785 0.785,-0.259 h 0.526 m -6.97,0.784 0.266,-0.525 0.785,-0.259 h 0.526 l 0.785,0.259 0.518,0.785 0.266,1.31 v 1.31 l -0.266,1.044 -0.518,0.526 -0.785,0.259 h -0.267 l -0.784,-0.259 -0.526,-0.526 -0.259,-0.784 v -0.26 l 0.259,-0.784 0.526,-0.526 0.784,-0.259 h 0.267 l 0.785,0.259 0.518,0.526 0.266,0.784"
       style="fill:none;stroke:#000000;stroke-width:1.42;stroke-linecap:round;stroke-linejoin:round;stroke-miterlimit:72;stroke-dasharray:none;stroke-opacity:1"
       id="path22" /><path
       d="m 172.0329,322.846 v 5.494 m 0,0 h -3.139 m -1.994,-1.303 0.266,0.259 -0.266,0.259 -0.26,-0.259 0.26,-0.259 m -3.557,-4.191 0.785,0.26 0.525,0.784 0.259,1.311 v 0.785 l -0.259,1.31 -0.525,0.785 -0.785,0.259 h -0.526 l -0.785,-0.259 -0.525,-0.785 -0.259,-1.31 v -0.785 l 0.259,-1.311 0.525,-0.784 0.785,-0.26 h 0.526 m -7.488,0 2.613,5.494 m 1.052,-5.494 h -3.665"
       style="fill:none;stroke:#000000;stroke-width:1.42;stroke-linecap:round;stroke-linejoin:round;stroke-miterlimit:72;stroke-dasharray:none;stroke-opacity:1"
       id="path24" /><path
       d="m 181.8739,337.126 v 5.493 m 0,0 h -3.139 m -1.995,-1.303 0.267,0.259 -0.267,0.259 -0.259,-0.259 0.259,-0.259 m -3.556,-4.19 0.784,0.259 0.526,0.785 0.259,1.31 v 0.785 l -0.259,1.31 -0.526,0.785 -0.784,0.259 h -0.526 l -0.785,-0.259 -0.525,-0.785 -0.26,-1.31 v -0.785 l 0.26,-1.31 0.525,-0.785 0.785,-0.259 h 0.526 m -5.134,0 0.785,0.259 0.259,0.525 v 0.526 l -0.259,0.518 -0.526,0.267 -1.044,0.259 -0.785,0.259 -0.525,0.526 -0.259,0.525 v 0.785 l 0.259,0.526 0.259,0.259 0.792,0.259 h 1.044 l 0.785,-0.259 0.259,-0.259 0.266,-0.526 v -0.785 l -0.266,-0.525 -0.518,-0.526 -0.785,-0.259 -1.051,-0.259 -0.526,-0.267 -0.259,-0.518 v -0.526 l 0.259,-0.525 0.792,-0.259 h 1.044"
       style="fill:none;stroke:#000000;stroke-width:1.42;stroke-linecap:round;stroke-linejoin:round;stroke-miterlimit:72;stroke-dasharray:none;stroke-opacity:1"
       id="path26" /><path
       d="m 171.6729,351.286 v 5.494 m 0,0 h -3.139 m -1.994,-1.303 0.266,0.259 -0.266,0.259 -0.26,-0.259 0.26,-0.259 m -3.557,-4.191 0.785,0.26 0.525,0.784 0.259,1.311 v 0.785 l -0.259,1.31 -0.525,0.785 -0.785,0.259 h -0.526 l -0.785,-0.259 -0.525,-0.785 -0.259,-1.31 v -0.785 l 0.259,-1.311 0.525,-0.784 0.785,-0.26 h 0.526 m -7.229,1.829 0.259,0.785 0.526,0.526 0.785,0.259 h 0.266 l 0.785,-0.259 0.518,-0.526 0.267,-0.785 v -0.259 l -0.267,-0.785 -0.518,-0.525 -0.785,-0.26 h -0.266 l -0.785,0.26 -0.526,0.525 -0.259,1.044 v 1.311 l 0.259,1.31 0.526,0.785 0.785,0.259 h 0.525 l 0.785,-0.259 0.259,-0.526"
       style="fill:none;stroke:#000000;stroke-width:1.42;stroke-linecap:round;stroke-linejoin:round;stroke-miterlimit:72;stroke-dasharray:none;stroke-opacity:1"
       id="path28" /><path
       d="m 181.8739,365.926 v 5.493 m 0,0 h -3.139 m -1.995,-1.303 0.267,0.259 -0.267,0.259 -0.259,-0.259 0.259,-0.259 m -1.987,-3.146 -0.525,-0.26 -0.785,-0.784 v 5.493 m -3.298,-5.493 0.785,0.259 0.526,0.785 0.259,1.31 v 0.785 l -0.259,1.31 -0.526,0.785 -0.785,0.259 h -0.525 l -0.785,-0.259 -0.526,-0.785 -0.259,-1.31 v -0.785 l 0.259,-1.31 0.526,-0.785 0.785,-0.259 h 0.525"
       style="fill:none;stroke:#000000;stroke-width:1.42;stroke-linecap:round;stroke-linejoin:round;stroke-miterlimit:72;stroke-dasharray:none;stroke-opacity:1"
       id="path30" /><path
       d="m 170.9529,380.446 v 5.494 m 0,0 h -3.139 m -1.994,-1.303 0.266,0.259 -0.266,0.259 -0.26,-0.259 0.26,-0.259 m -1.988,-3.147 -0.525,-0.259 -0.785,-0.785 v 5.494 m -1.728,-4.45 -0.526,-0.259 -0.784,-0.785 v 5.494"
       style="fill:none;stroke:#000000;stroke-width:1.42;stroke-linecap:round;stroke-linejoin:round;stroke-miterlimit:72;stroke-dasharray:none;stroke-opacity:1"
       id="path32" /><path
       d="m 181.8739,394.726 v 5.493 m 0,0 h -3.139 m -1.995,-1.303 0.267,0.259 -0.267,0.259 -0.259,-0.259 0.259,-0.259 m -1.987,-3.146 -0.525,-0.26 -0.785,-0.784 v 5.493 m -1.987,-4.183 v -0.266 l -0.267,-0.526 -0.259,-0.259 -0.526,-0.259 h -1.044 l -0.525,0.259 -0.259,0.259 -0.267,0.526 v 0.525 l 0.267,0.526 0.518,0.785 2.621,2.613 h -3.665"
       style="fill:none;stroke:#000000;stroke-width:1.42;stroke-linecap:round;stroke-linejoin:round;stroke-miterlimit:72;stroke-dasharray:none;stroke-opacity:1"
       id="path34" /><path
       d="m 144.0739,236.326 v 5.493 m 0,-5.493 h -2.354 l -0.785,0.259 -0.267,0.259 -0.259,0.526 v 0.525 l 0.259,0.526 0.267,0.259 0.785,0.259 h 2.354 m -1.836,0 -1.829,2.88 m -1.987,-1.303 0.259,0.259 -0.259,0.259 -0.266,-0.259 0.266,-0.259 m -3.564,-4.19 0.785,0.259 0.525,0.785 0.26,1.31 v 0.785 l -0.26,1.31 -0.525,0.785 -0.785,0.259 h -0.526 l -0.784,-0.259 -0.526,-0.785 -0.259,-1.31 v -0.785 l 0.259,-1.31 0.526,-0.785 0.784,-0.259 h 0.526 m -3.823,1.044 -0.526,-0.26 -0.785,-0.784 v 5.493"
       style="fill:none;stroke:#000000;stroke-width:1.42;stroke-linecap:round;stroke-linejoin:round;stroke-miterlimit:72;stroke-dasharray:none;stroke-opacity:1"
       id="path36" /><path
       d="m 144.0739,250.726 v 5.493 m 0,-5.493 h -2.354 l -0.785,0.259 -0.267,0.259 -0.259,0.526 v 0.525 l 0.259,0.526 0.267,0.259 0.785,0.259 h 2.354 m -1.836,0 -1.829,2.88 m -1.987,-1.303 0.259,0.259 -0.259,0.259 -0.266,-0.259 0.266,-0.259 m -3.564,-4.19 0.785,0.259 0.525,0.785 0.26,1.31 v 0.785 l -0.26,1.31 -0.525,0.785 -0.785,0.259 h -0.526 l -0.784,-0.259 -0.526,-0.785 -0.259,-1.31 v -0.785 l 0.259,-1.31 0.526,-0.785 0.784,-0.259 h 0.526 m -4.082,1.31 v -0.266 l -0.267,-0.526 -0.259,-0.259 -0.526,-0.259 h -1.044 l -0.525,0.259 -0.259,0.259 -0.267,0.526 v 0.525 l 0.267,0.526 0.518,0.785 2.621,2.613 h -3.665"
       style="fill:none;stroke:#000000;stroke-width:1.42;stroke-linecap:round;stroke-linejoin:round;stroke-miterlimit:72;stroke-dasharray:none;stroke-opacity:1"
       id="path38" /><path
       d="m 152.2329,264.886 v 5.494 m 0,-5.494 h -2.354 l -0.785,0.26 -0.266,0.259 -0.26,0.525 v 0.526 l 0.26,0.526 0.266,0.259 0.785,0.259 h 2.354 m -1.836,0 -1.829,2.88 m -1.987,-1.303 0.259,0.259 -0.259,0.259 -0.266,-0.259 0.266,-0.259 m -3.564,-4.191 0.785,0.26 0.526,0.784 0.259,1.311 v 0.785 l -0.259,1.31 -0.526,0.785 -0.785,0.259 h -0.525 l -0.785,-0.259 -0.526,-0.785 -0.259,-1.31 v -0.785 l 0.259,-1.311 0.526,-0.784 0.785,-0.26 h 0.525 m -4.349,0 h -2.88 l 1.577,2.096 h -0.792 l -0.518,0.259 -0.267,0.259 -0.259,0.785 v 0.525 l 0.259,0.785 0.526,0.526 0.785,0.259 h 0.785 l 0.784,-0.259 0.267,-0.259 0.259,-0.526"
       style="fill:none;stroke:#000000;stroke-width:1.42;stroke-linecap:round;stroke-linejoin:round;stroke-miterlimit:72;stroke-dasharray:none;stroke-opacity:1"
       id="path40" /><path
       d="m 144.0739,279.526 v 5.493 m 0,-5.493 h -2.354 l -0.785,0.259 -0.267,0.259 -0.259,0.526 v 0.525 l 0.259,0.526 0.267,0.259 0.785,0.259 h 2.354 m -1.836,0 -1.829,2.88 m -1.987,-1.303 0.259,0.259 -0.259,0.259 -0.266,-0.259 0.266,-0.259 m -3.564,-4.19 0.785,0.259 0.525,0.785 0.26,1.31 v 0.785 l -0.26,1.31 -0.525,0.785 -0.785,0.259 h -0.526 l -0.784,-0.259 -0.526,-0.785 -0.259,-1.31 v -0.785 l 0.259,-1.31 0.526,-0.785 0.784,-0.259 h 0.526 m -6.444,0 2.621,3.664 h -3.924 m 1.303,-3.664 v 5.493"
       style="fill:none;stroke:#000000;stroke-width:1.42;stroke-linecap:round;stroke-linejoin:round;stroke-miterlimit:72;stroke-dasharray:none;stroke-opacity:1"
       id="path42" /><path
       d="m 152.2329,294.046 v 5.494 m 0,-5.494 h -2.354 l -0.785,0.26 -0.266,0.259 -0.26,0.525 v 0.526 l 0.26,0.526 0.266,0.259 0.785,0.259 h 2.354 m -1.836,0 -1.829,2.88 m -1.987,-1.303 0.259,0.259 -0.259,0.259 -0.266,-0.259 0.266,-0.259 m -3.564,-4.191 0.785,0.26 0.526,0.784 0.259,1.311 v 0.785 l -0.259,1.31 -0.526,0.785 -0.785,0.259 h -0.525 l -0.785,-0.259 -0.526,-0.785 -0.259,-1.31 v -0.785 l 0.259,-1.311 0.526,-0.784 0.785,-0.26 h 0.525 m -6.962,0 h 2.613 l 0.267,2.355 -0.267,-0.259 -0.784,-0.267 h -0.785 l -0.785,0.267 -0.526,0.518 -0.259,0.785 v 0.525 l 0.259,0.785 0.526,0.526 0.785,0.259 h 0.785 l 0.784,-0.259 0.267,-0.259 0.259,-0.526"
       style="fill:none;stroke:#000000;stroke-width:1.42;stroke-linecap:round;stroke-linejoin:round;stroke-miterlimit:72;stroke-dasharray:none;stroke-opacity:1"
       id="path44" /><path
       d="m 144.0739,308.326 v 5.493 m 0,-5.493 h -2.354 l -0.785,0.259 -0.267,0.259 -0.259,0.526 v 0.525 l 0.259,0.526 0.267,0.259 0.785,0.259 h 2.354 m -1.836,0 -1.829,2.88 m -1.987,-1.303 0.259,0.259 -0.259,0.259 -0.266,-0.259 0.266,-0.259 m -3.564,-4.19 0.785,0.259 0.525,0.785 0.26,1.31 v 0.785 l -0.26,1.31 -0.525,0.785 -0.785,0.259 h -0.526 l -0.784,-0.259 -0.526,-0.785 -0.259,-1.31 v -0.785 l 0.259,-1.31 0.526,-0.785 0.784,-0.259 h 0.526 m -6.962,0.784 0.259,-0.525 0.785,-0.259 h 0.525 l 0.785,0.259 0.526,0.785 0.259,1.31 v 1.31 l -0.259,1.044 -0.526,0.526 -0.785,0.259 h -0.259 l -0.792,-0.259 -0.518,-0.526 -0.267,-0.784 v -0.26 l 0.267,-0.784 0.518,-0.526 0.792,-0.259 h 0.259 l 0.785,0.259 0.526,0.526 0.259,0.784"
       style="fill:none;stroke:#000000;stroke-width:1.42;stroke-linecap:round;stroke-linejoin:round;stroke-miterlimit:72;stroke-dasharray:none;stroke-opacity:1"
       id="path46" /><path
       d="m 152.5929,322.846 v 5.494 m 0,-5.494 h -2.354 l -0.785,0.26 -0.266,0.259 -0.26,0.525 v 0.526 l 0.26,0.526 0.266,0.259 0.785,0.259 h 2.354 m -1.836,0 -1.829,2.88 m -1.987,-1.303 0.259,0.259 -0.259,0.259 -0.266,-0.259 0.266,-0.259 m -3.564,-4.191 0.785,0.26 0.526,0.784 0.259,1.311 v 0.785 l -0.259,1.31 -0.526,0.785 -0.785,0.259 h -0.525 l -0.785,-0.259 -0.526,-0.785 -0.259,-1.31 v -0.785 l 0.259,-1.311 0.526,-0.784 0.785,-0.26 h 0.525 m -7.488,0 2.621,5.494 m 1.044,-5.494 h -3.665"
       style="fill:none;stroke:#000000;stroke-width:1.42;stroke-linecap:round;stroke-linejoin:round;stroke-miterlimit:72;stroke-dasharray:none;stroke-opacity:1"
       id="path48" /><path
       d="m 144.0739,337.126 v 5.493 m 0,-5.493 h -2.354 l -0.785,0.259 -0.267,0.259 -0.259,0.526 v 0.525 l 0.259,0.526 0.267,0.259 0.785,0.259 h 2.354 m -1.836,0 -1.829,2.88 m -1.987,-1.303 0.259,0.259 -0.259,0.259 -0.266,-0.259 0.266,-0.259 m -3.564,-4.19 0.785,0.259 0.525,0.785 0.26,1.31 v 0.785 l -0.26,1.31 -0.525,0.785 -0.785,0.259 h -0.526 l -0.784,-0.259 -0.526,-0.785 -0.259,-1.31 v -0.785 l 0.259,-1.31 0.526,-0.785 0.784,-0.259 h 0.526 m -5.134,0 0.785,0.259 0.267,0.525 v 0.526 l -0.267,0.518 -0.518,0.267 -1.051,0.259 -0.785,0.259 -0.526,0.526 -0.259,0.525 v 0.785 l 0.259,0.526 0.267,0.259 0.784,0.259 h 1.044 l 0.785,-0.259 0.267,-0.259 0.259,-0.526 v -0.785 l -0.259,-0.525 -0.526,-0.526 -0.785,-0.259 -1.051,-0.259 -0.518,-0.267 -0.267,-0.518 v -0.526 l 0.267,-0.525 0.784,-0.259 h 1.044"
       style="fill:none;stroke:#000000;stroke-width:1.42;stroke-linecap:round;stroke-linejoin:round;stroke-miterlimit:72;stroke-dasharray:none;stroke-opacity:1"
       id="path50" /><path
       d="m 151.5129,351.286 v 5.494 m 0,-5.494 h -2.354 l -0.785,0.26 -0.266,0.259 -0.26,0.525 v 0.526 l 0.26,0.526 0.266,0.259 0.785,0.259 h 2.354 m -1.836,0 -1.829,2.88 m -1.987,-1.303 0.259,0.259 -0.259,0.259 -0.266,-0.259 0.266,-0.259 m -3.564,-4.191 0.785,0.26 0.526,0.784 0.259,1.311 v 0.785 l -0.259,1.31 -0.526,0.785 -0.785,0.259 h -0.525 l -0.785,-0.259 -0.526,-0.785 -0.259,-1.31 v -0.785 l 0.259,-1.311 0.526,-0.784 0.785,-0.26 h 0.525 m -7.229,1.829 0.267,0.785 0.518,0.526 0.792,0.259 h 0.259 l 0.785,-0.259 0.526,-0.526 0.259,-0.785 v -0.259 l -0.259,-0.785 -0.526,-0.525 -0.785,-0.26 h -0.259 l -0.792,0.26 -0.518,0.525 -0.267,1.044 v 1.311 l 0.267,1.31 0.518,0.785 0.792,0.259 h 0.519 l 0.784,-0.259 0.267,-0.526"
       style="fill:none;stroke:#000000;stroke-width:1.42;stroke-linecap:round;stroke-linejoin:round;stroke-miterlimit:72;stroke-dasharray:none;stroke-opacity:1"
       id="path52" /><path
       d="m 144.0739,365.926 v 5.493 m 0,-5.493 h -2.354 l -0.785,0.259 -0.267,0.259 -0.259,0.526 v 0.525 l 0.259,0.526 0.267,0.259 0.785,0.259 h 2.354 m -1.836,0 -1.829,2.88 m -1.987,-1.303 0.259,0.259 -0.259,0.259 -0.266,-0.259 0.266,-0.259 m -1.994,-3.146 -0.526,-0.26 -0.785,-0.784 v 5.493 m -3.297,-5.493 0.784,0.259 0.526,0.785 0.259,1.31 v 0.785 l -0.259,1.31 -0.526,0.785 -0.784,0.259 h -0.526 l -0.785,-0.259 -0.518,-0.785 -0.267,-1.31 v -0.785 l 0.267,-1.31 0.518,-0.785 0.785,-0.259 h 0.526"
       style="fill:none;stroke:#000000;stroke-width:1.42;stroke-linecap:round;stroke-linejoin:round;stroke-miterlimit:72;stroke-dasharray:none;stroke-opacity:1"
       id="path54" /><path
       d="m 151.5129,380.446 v 5.494 m 0,-5.494 h -2.354 l -0.785,0.26 -0.266,0.259 -0.26,0.525 v 0.526 l 0.26,0.526 0.266,0.259 0.785,0.259 h 2.354 m -1.836,0 -1.829,2.88 m -1.987,-1.303 0.259,0.259 -0.259,0.259 -0.266,-0.259 0.266,-0.259 m -1.994,-3.147 -0.526,-0.259 -0.785,-0.785 v 5.494 m -1.728,-4.45 -0.518,-0.259 -0.785,-0.785 v 5.494"
       style="fill:none;stroke:#000000;stroke-width:1.42;stroke-linecap:round;stroke-linejoin:round;stroke-miterlimit:72;stroke-dasharray:none;stroke-opacity:1"
       id="path56" /><path
       d="m 144.0739,394.726 v 5.493 m 0,-5.493 h -2.354 l -0.785,0.259 -0.267,0.259 -0.259,0.526 v 0.525 l 0.259,0.526 0.267,0.259 0.785,0.259 h 2.354 m -1.836,0 -1.829,2.88 m -1.987,-1.303 0.259,0.259 -0.259,0.259 -0.266,-0.259 0.266,-0.259 m -1.994,-3.146 -0.526,-0.26 -0.785,-0.784 v 5.493 m -1.987,-4.183 v -0.266 l -0.259,-0.526 -0.267,-0.259 -0.518,-0.259 h -1.051 l -0.526,0.259 -0.259,0.259 -0.259,0.526 v 0.525 l 0.259,0.526 0.526,0.785 2.613,2.613 h -3.665"
       style="fill:none;stroke:#000000;stroke-width:1.42;stroke-linecap:round;stroke-linejoin:round;stroke-miterlimit:72;stroke-dasharray:none;stroke-opacity:1"
       id="path58" /><path
       d="m 41.765904,367.537 h -5.498 m 2.618,0 0.785,-0.786 0.262,-0.524 v -0.785 l -0.262,-0.524 -0.785,-0.261 h -2.618 m 5.498,-2.514 h -4.451 l -0.786,-0.262 -0.261,-0.523 v -0.524 m 3.665,2.095 v -1.833 m 1.833,-2.775 h -4.451 l -0.786,-0.262 -0.261,-0.524 v -0.524 m 3.665,2.095 v -1.833 m 0,-1.99 h -5.498 m 4.713,0 0.523,-0.523 0.262,-0.524 v -0.785 l -0.262,-0.524 -0.523,-0.524 -0.786,-0.261 h -0.523 l -0.786,0.261 -0.524,0.524 -0.261,0.524 v 0.785 l 0.261,0.524 0.524,0.523 m 2.095,-7.749 0.523,0.261 0.262,0.786 v 0.785 l -0.262,0.786 -0.523,0.262 -0.524,-0.262 -0.262,-0.524 -0.262,-1.309 -0.261,-0.524 -0.524,-0.261 h -0.262 l -0.524,0.261 -0.261,0.786 v 0.785 l 0.261,0.786 0.524,0.262 m 2.356,-4.87 -0.261,0.262 -0.262,-0.262 0.262,-0.262 0.261,0.262 m -1.832,0 -0.262,0.262 -0.262,-0.262 0.262,-0.262 0.262,0.262 m 5.236,-6.703 -8.378,4.713 m 8.378,-11.153 -8.378,4.712 m 5.498,-9.582 h -4.189 l -0.785,0.262 -0.262,0.261 -0.262,0.524 v 0.785 l 0.262,0.524 m 4.451,-2.356 0.523,0.523 0.262,0.524 v 0.785 l -0.262,0.524 -0.523,0.524 -0.786,0.262 h -0.523 l -0.786,-0.262 -0.524,-0.524 -0.261,-0.524 v -0.785 l 0.261,-0.524 0.524,-0.523 m 4.713,-1.728 -0.262,-0.262 0.262,-0.262 0.262,0.262 -0.262,0.262 m -1.833,-0.262 h -3.665 m 5.498,-2.775 h -4.451 l -0.786,-0.262 -0.261,-0.524 v -0.523 m 3.665,2.094 v -1.833 m 1.833,-1.989 h -5.498 m 2.618,0 0.785,-0.786 0.262,-0.524 v -0.785 l -0.262,-0.524 -0.785,-0.261 h -2.618 m 3.665,-1.728 h -2.618 l -0.786,-0.262 -0.261,-0.524 v -0.785 l 0.261,-0.524 0.786,-0.785 m 2.618,0 h -3.665 m 5.498,-1.728 h -5.498 m 2.88,0 0.523,-0.524 0.262,-0.524 v -0.785 l -0.262,-0.524 -0.523,-0.523 -0.786,-0.262 h -0.523 l -0.786,0.262 -0.524,0.523 -0.261,0.524 v 0.785 l 0.261,0.524 0.524,0.524 m 0.524,-5.132 -0.262,0.262 -0.262,-0.262 0.262,-0.262 0.262,0.262 m 1.571,-5.132 0.523,0.524 0.262,0.524 v 0.785 l -0.262,0.524 -0.523,0.523 -0.786,0.262 h -0.523 l -0.786,-0.262 -0.524,-0.523 -0.261,-0.524 v -0.785 l 0.261,-0.524 0.524,-0.524 m 2.88,-3.037 -0.262,0.524 -0.523,0.523 -0.786,0.262 h -0.523 l -0.786,-0.262 -0.524,-0.523 -0.261,-0.524 v -0.785 l 0.261,-0.524 0.524,-0.524 0.786,-0.261 h 0.523 l 0.786,0.261 0.523,0.524 0.262,0.524 v 0.785 m 0,-3.822 h -3.665 m 2.618,0 0.785,-0.786 0.262,-0.523 v -0.786 l -0.262,-0.524 -0.785,-0.261 h -2.618 m 2.618,0 0.785,-0.786 0.262,-0.523 v -0.786 l -0.262,-0.524 -0.785,-0.261 h -2.618 m 6.545,-6.441 -8.378,4.713 m 5.498,-6.441 h -3.665 m 2.618,0 0.785,-0.786 0.262,-0.523 v -0.786 l -0.262,-0.523 -0.785,-0.262 h -2.618 m 2.618,0 0.785,-0.786 0.262,-0.523 v -0.786 l -0.262,-0.523 -0.785,-0.262 h -2.618 m 5.498,-1.728 -0.262,-0.262 0.262,-0.262 0.262,0.262 -0.262,0.262 m -1.833,-0.262 h -3.665 m 3.665,-1.99 h -3.665 m 2.618,0 0.785,-0.785 0.262,-0.524 v -0.785 l -0.262,-0.524 -0.785,-0.262 h -2.618 m 3.665,-1.728 h -2.618 l -0.786,-0.262 -0.261,-0.523 v -0.786 l 0.261,-0.523 0.786,-0.786 m 2.618,0 h -3.665 m 2.88,-4.608 0.523,0.262 0.262,0.786 v 0.785 l -0.262,0.785 -0.523,0.262 -0.524,-0.262 -0.262,-0.523 -0.262,-1.309 -0.261,-0.524 -0.524,-0.262 h -0.262 l -0.524,0.262 -0.261,0.786 v 0.785 l 0.261,0.785 0.524,0.262 m 2.88,-4.608 h -3.665 m 2.618,0 0.785,-0.785 0.262,-0.524 v -0.785 l -0.262,-0.524 -0.785,-0.262 h -2.618 m 2.618,0 0.785,-0.785 0.262,-0.524 v -0.785 l -0.262,-0.524 -0.785,-0.262 h -2.618 m 3.665,-4.87 h -3.665 m 2.88,0 0.523,0.524 0.262,0.524 v 0.785 l -0.262,0.524 -0.523,0.523 -0.786,0.262 h -0.523 l -0.786,-0.262 -0.524,-0.523 -0.261,-0.524 v -0.785 l 0.261,-0.524 0.524,-0.524 m 2.88,-4.869 h -4.189 l -0.785,0.261 -0.262,0.262 -0.262,0.524 v 0.785 l 0.262,0.524 m 4.451,-2.356 0.523,0.523 0.262,0.524 v 0.785 l -0.262,0.524 -0.523,0.524 -0.786,0.261 h -0.523 l -0.786,-0.261 -0.524,-0.524 -0.261,-0.524 v -0.785 l 0.261,-0.524 0.524,-0.523 m 4.713,-1.728 -0.262,-0.262 0.262,-0.262 0.262,0.262 -0.262,0.262 m -1.833,-0.262 h -3.665 m 2.88,-4.87 0.523,0.262 0.262,0.785 v 0.786 l -0.262,0.785 -0.523,0.262 -0.524,-0.262 -0.262,-0.523 -0.262,-1.31 -0.261,-0.523 -0.524,-0.262 h -0.262 l -0.524,0.262 -0.261,0.785 v 0.786 l 0.261,0.785 0.524,0.262"
       style="fill:none;stroke:#000000;stroke-width:1.42;stroke-linecap:round;stroke-linejoin:round;stroke-miterlimit:72;stroke-dasharray:none;stroke-opacity:1"
       id="path60" /><path
       d="m 31.652904,363.184 -8.378,4.713 m 7.331,-6.441 h -5.498 m 5.498,0 v -2.357 l -0.262,-0.785 -0.262,-0.262 -0.523,-0.262 h -0.786 l -0.524,0.262 -0.261,0.262 -0.262,0.785 v 2.357 m 2.88,-5.394 -0.262,-0.261 0.262,-0.262 0.262,0.262 -0.262,0.261 m -1.833,-0.261 h -3.665 m 5.498,-1.99 h -5.498 m 3.665,-2.618 -2.618,2.618 m 1.047,-1.048 -2.094,-1.832 m 3.665,-4.87 h -3.665 m 2.88,0 0.523,0.524 0.262,0.523 v 0.786 l -0.262,0.523 -0.523,0.524 -0.786,0.262 h -0.523 l -0.786,-0.262 -0.524,-0.524 -0.261,-0.523 v -0.786 l 0.261,-0.523 0.524,-0.524 m -2.618,-1.728 v -4.713 m 7.331,-1.728 h -5.498 m 5.498,0 -5.498,-3.665 m 5.498,0 h -5.498 m 3.665,-4.87 h -3.665 m 2.88,0 0.523,0.524 0.262,0.523 v 0.786 l -0.262,0.523 -0.523,0.524 -0.786,0.262 h -0.523 l -0.786,-0.262 -0.524,-0.524 -0.261,-0.523 v -0.786 l 0.261,-0.523 0.524,-0.524 m 2.88,-1.728 h -3.665 m 2.618,0 0.785,-0.786 0.262,-0.523 v -0.786 l -0.262,-0.523 -0.785,-0.262 h -2.618 m 3.665,-3.037 -0.262,0.523 -0.523,0.524 -0.786,0.262 h -0.523 l -0.786,-0.262 -0.524,-0.524 -0.261,-0.523 v -0.786 l 0.261,-0.523 0.524,-0.524 0.786,-0.262 h 0.523 l 0.786,0.262 0.523,0.524 0.262,0.523 v 0.786 m 0,-3.823 h -5.498 m 4.713,0 0.523,-0.523 0.262,-0.524 v -0.785 l -0.262,-0.524 -0.523,-0.524 -0.786,-0.262 h -0.523 l -0.786,0.262 -0.524,0.524 -0.261,0.524 v 0.785 l 0.261,0.524 0.524,0.523 m 4.713,-5.655 h -4.451 l -0.786,-0.262 -0.261,-0.523 v -0.524 m 3.665,2.094 v -1.832 m 0,-3.299 -0.262,0.523 -0.523,0.524 -0.786,0.262 h -0.523 l -0.786,-0.262 -0.524,-0.524 -0.261,-0.523 v -0.786 l 0.261,-0.523 0.524,-0.524 0.786,-0.262 h 0.523 l 0.786,0.262 0.523,0.524 0.262,0.523 v 0.786 m -5.498,-3.823 v -4.712 m 7.331,-1.728 h -5.498 m 5.498,0 v -1.833 l -0.262,-0.786 -0.524,-0.523 -0.523,-0.262 -0.786,-0.262 h -1.309 l -0.785,0.262 -0.524,0.262 -0.524,0.523 -0.261,0.786 v 1.833 m 2.094,-5.394 v -3.142 h 0.524 l 0.523,0.262 0.262,0.262 0.262,0.524 v 0.785 l -0.262,0.524 -0.523,0.523 -0.786,0.262 h -0.523 l -0.786,-0.262 -0.524,-0.523 -0.261,-0.524 v -0.785 l 0.261,-0.524 0.524,-0.524 m 2.88,-1.728 h -3.665 m 2.618,0 0.785,-0.785 0.262,-0.524 v -0.785 l -0.262,-0.524 -0.785,-0.262 h -2.618 m 2.618,0 0.785,-0.785 0.262,-0.524 v -0.785 l -0.262,-0.524 -0.785,-0.262 h -2.618 m 3.665,-1.728 h -2.618 l -0.786,-0.262 -0.261,-0.523 v -0.786 l 0.261,-0.523 0.786,-0.786 m 2.618,0 h -3.665 m 5.498,-1.728 h -5.498 m 5.498,-2.513 h -4.451 l -0.786,-0.262 -0.261,-0.524 v -0.523 m 3.665,2.094 v -1.832 m 1.833,-1.99 -0.262,-0.262 0.262,-0.262 0.262,0.262 -0.262,0.262 m -1.833,-0.262 h -3.665 m 3.665,-1.99 h -5.498 m 4.713,0 0.523,-0.524 0.262,-0.523 v -0.786 l -0.262,-0.523 -0.523,-0.524 -0.786,-0.262 h -0.523 l -0.786,0.262 -0.524,0.524 -0.261,0.523 v 0.786 l 0.261,0.523 0.524,0.524 m 4.713,-4.87 h -5.498 m 2.094,-1.728 v -3.142 h 0.524 l 0.523,0.262 0.262,0.262 0.262,0.524 v 0.785 l -0.262,0.524 -0.523,0.523 -0.786,0.262 h -0.523 l -0.786,-0.262 -0.524,-0.523 -0.261,-0.524 v -0.785 l 0.261,-0.524 0.524,-0.524 m 2.88,-1.728 -3.665,-2.88 m 3.665,0 -3.665,2.88 m 2.094,-4.608 v -3.141 h 0.524 l 0.523,0.261 0.262,0.262 0.262,0.524 v 0.785 l -0.262,0.524 -0.523,0.524 -0.786,0.261 h -0.523 l -0.786,-0.261 -0.524,-0.524 -0.261,-0.524 v -0.785 l 0.261,-0.524 0.524,-0.523 m 2.88,-1.728 h -3.665 m 2.094,0 0.786,-0.262 0.523,-0.524 0.262,-0.523 v -0.786"
       style="fill:none;stroke:#000000;stroke-width:1.42;stroke-linecap:round;stroke-linejoin:round;stroke-miterlimit:72;stroke-dasharray:none;stroke-opacity:1"
       id="path62" /><path
       d="m 124.1149,415.041 v 5.501 m 0,-5.501 h -2.354 l -0.785,0.259 -0.259,0.267 -0.267,0.518 v 0.526 l 0.267,0.525 0.259,0.26 0.785,0.266 h 2.354 m -1.829,0 -1.836,2.88 m -1.987,-1.31 0.259,0.259 -0.259,0.266 -0.266,-0.266 0.266,-0.259 m -1.994,-3.147 -0.519,-0.259 -0.784,-0.785 v 5.501 m -1.995,-4.19 v -0.267 l -0.259,-0.518 -0.259,-0.267 -0.526,-0.259 h -1.051 l -0.518,0.259 -0.267,0.267 -0.259,0.518 v 0.526 l 0.259,0.525 0.526,0.785 2.621,2.621 h -3.665"
       style="fill:none;stroke:#000000;stroke-width:1.42;stroke-linecap:round;stroke-linejoin:round;stroke-miterlimit:72;stroke-dasharray:none;stroke-opacity:1"
       id="path64" /><path
       d="m 199.3909,415.724 v 5.501 m 0,0 h -3.139 m -1.987,-1.31 0.259,0.259 -0.259,0.266 -0.267,-0.266 0.267,-0.259 m -1.995,-3.147 -0.525,-0.259 -0.785,-0.785 v 5.501 m -1.987,-4.19 v -0.267 l -0.259,-0.518 -0.267,-0.267 -0.518,-0.259 h -1.051 l -0.526,0.259 -0.259,0.267 -0.259,0.518 v 0.526 l 0.259,0.525 0.525,0.785 2.614,2.621 h -3.665"
       style="fill:none;stroke:#000000;stroke-width:1.42;stroke-linecap:round;stroke-linejoin:round;stroke-miterlimit:72;stroke-dasharray:none;stroke-opacity:1"
       id="path66" /><path
       d="m 84.912904,206.335 v 10.823 m 0,-10.823 h -4.638 l -1.546,0.515 -0.516,0.516 -0.515,1.031 v 1.03 l 0.515,1.031 0.516,0.516 1.546,0.515 h 4.638 m -3.607,0 -3.608,5.669 m -3.917,-2.577 0.515,0.516 -0.515,0.515 -0.516,-0.515 0.516,-0.516 m -7.01,-8.246 1.547,0.515 1.03,1.547 0.516,2.577 v 1.546 l -0.516,2.577 -1.03,1.546 -1.547,0.515 h -1.03 l -1.546,-0.515 -1.031,-1.546 -0.516,-2.577 v -1.546 l 0.516,-2.577 1.031,-1.547 1.546,-0.515 h 1.03 m -7.524,2.062 -1.031,-0.516 -1.546,-1.546 v 10.823"
       style="fill:none;stroke:#000000;stroke-width:2.83;stroke-linecap:round;stroke-linejoin:round;stroke-miterlimit:72;stroke-dasharray:none;stroke-opacity:1"
       id="path68" /><path
       d="m 253.0329,178.975 v 10.823 m 0,0 h -6.184 m -3.917,-2.577 0.515,0.516 -0.515,0.515 -0.516,-0.515 0.516,-0.516 m -7.01,-8.246 1.546,0.515 1.031,1.547 0.516,2.577 v 1.546 l -0.516,2.577 -1.031,1.546 -1.546,0.515 h -1.031 l -1.546,-0.515 -1.03,-1.546 -0.516,-2.577 v -1.546 l 0.516,-2.577 1.03,-1.547 1.546,-0.515 h 1.031 m -7.524,2.062 -1.031,-0.516 -1.546,-1.546 v 10.823"
       style="fill:none;stroke:#000000;stroke-width:2.83;stroke-linecap:round;stroke-linejoin:round;stroke-miterlimit:72;stroke-dasharray:none;stroke-opacity:1"
       id="path70" /><path
       d="m 89.591904,398.085 v 5.5 m 0,-5.5 h -2.355 l -0.785,0.259 -0.259,0.266 -0.266,0.519 v 0.525 l 0.266,0.526 0.259,0.259 0.785,0.266 h 2.355 m -1.829,0 -1.836,2.88 m -1.987,-1.31 0.259,0.259 -0.259,0.267 -0.267,-0.267 0.267,-0.259 m -1.995,-3.146 -0.518,-0.26 -0.785,-0.784 v 5.5 m -1.994,-4.19 v -0.266 l -0.26,-0.519 -0.259,-0.266 -0.525,-0.259 h -1.052 l -0.518,0.259 -0.266,0.266 -0.26,0.519 v 0.525 l 0.26,0.526 0.525,0.785 2.621,2.62 h -3.665"
       style="fill:none;stroke:#000000;stroke-width:1.42;stroke-linecap:round;stroke-linejoin:round;stroke-miterlimit:72;stroke-dasharray:none;stroke-opacity:1"
       id="path72" /><path
       d="m 28.444904,229.297 -5.498,-2.095 m 5.498,-2.094 -5.498,2.094 m 5.498,-8.378 v -2.88 l -2.094,1.571 v -0.785 l -0.262,-0.524 -0.262,-0.262 -0.785,-0.262 h -0.524 l -0.785,0.262 -0.524,0.524 -0.262,0.785 v 0.786 l 0.262,0.785 0.262,0.262 0.523,0.262 m 0.262,-5.655 -0.262,0.261 -0.261,-0.261 0.261,-0.262 0.262,0.262 m 3.142,-1.99 0.262,-0.524 0.785,-0.785 h -5.498"
       style="fill:none;stroke:#000000;stroke-width:1.42;stroke-linecap:round;stroke-linejoin:round;stroke-miterlimit:72;stroke-dasharray:none;stroke-opacity:1"
       id="path74" /><path
       d="m 238.6309,416.804 v 5.501 m 0,0 h -3.139 m -1.987,-1.311 0.259,0.26 -0.259,0.266 -0.266,-0.266 0.266,-0.26 m -1.994,-3.146 -0.526,-0.259 -0.785,-0.785 v 5.501 m -1.987,-4.191 v -0.266 l -0.259,-0.518 -0.267,-0.267 -0.518,-0.259 h -1.051 l -0.526,0.259 -0.259,0.267 -0.259,0.518 v 0.526 l 0.259,0.525 0.526,0.785 2.613,2.621 h -3.665"
       style="fill:none;stroke:#000000;stroke-width:1.42;stroke-linecap:round;stroke-linejoin:round;stroke-miterlimit:72;stroke-dasharray:none;stroke-opacity:1"
       id="path76" /><path
       d="m 290.5479,349.444 c -0.304,0.421 -0.864,1.196 -1.244,1.723 -0.632,0.874 -4.714,6.66 -9.234,13.088 -0.99,1.408 -1.826,2.682 -1.858,2.83 -0.071,0.322 0.482,0.649 2.667,1.577 6.151,2.611 7.502,3.972 7.83,7.885 0.517,6.161 1.037,15.312 1.059,18.625 0.04,5.992 -0.496,6.663 -8.875,11.122 -2.11,1.123 -5.07,2.727 -6.577,3.566 -10.911,6.071 -10.211,5.76 -12.97,5.765 l -2.558,0.004 -6.941,-4.334 c -10.17,-6.35 -13.782,-8.672 -14.718,-9.459 -0.459,-0.386 -1.259,-1.812 -1.778,-3.168 l -0.944,-2.465 0.62,-3.278 c 0.342,-1.803 0.765,-4.139 0.941,-5.192 0.175,-1.053 0.491,-2.948 0.701,-4.212 0.983,-5.919 1.608,-8.89 2.07,-9.84 0.646,-1.329 2.359,-2.638 4.887,-3.733 1.105,-0.478 2.877,-1.282 3.938,-1.785 1.061,-0.503 2.002,-0.915 2.091,-0.915 0.089,0 1.112,-0.451 2.273,-1.003 2.242,-1.066 2.766,-1.303 6.99,-3.17 3.351,-1.481 6.554,-1.622 8.931,-0.394 3.024,1.562 6.952,3.07 7.164,2.75 0.574,-0.863 6.832,-9.532 7.155,-9.909 0.203,-0.238 1.766,-2.429 3.474,-4.869 2.185,-3.122 3.328,-4.442 3.855,-4.451 1.552,-0.027 2.127,1.748 1.051,3.242 m -6.401,36.255 c -0.474,-8.934 -0.523,-9.053 -4.545,-11.027 -1.454,-0.714 -2.745,-1.298 -2.869,-1.298 -0.297,0 -0.29,20.894 0.008,24.591 l 0.232,2.881 2.85,-1.495 c 3.226,-1.692 4.723,-3.271 4.723,-4.98 0,-0.633 -0.179,-4.536 -0.399,-8.672 m -3.346,-62.35 c -3.177,2.511 -13.988,7.926 -22.287,11.163 -0.954,0.373 -1.735,0.804 -1.735,0.958 0,0.154 0.534,0.381 1.187,0.503 6.651,1.242 10.749,1.793 15.054,2.023 4.646,0.248 5.171,0.35 5.937,1.152 0.492,0.515 0.84,1.342 0.84,1.995 0,0.985 -0.397,1.388 -3.38,3.436 -4.377,3.004 -6.146,4.04 -13.427,7.857 -9.55,5.007 -12.009,5.852 -13.376,4.596 -1.094,-1.005 -2.7,-3.806 -2.7,-4.709 0,-0.601 0.24,-0.773 1.078,-0.773 2.448,0 14.528,-4.258 22.954,-8.09 5.728,-2.605 5.73,-2.63 0.255,-2.643 -4.92,-0.012 -14.713,-0.767 -19.63,-1.514 -4.371,-0.664 -5.423,-1.163 -6.543,-3.105 -1.758,-3.046 -1.719,-3.266 0.632,-3.555 7.01,-0.864 21.736,-6.948 31.031,-12.821 1.206,-0.762 2.299,-1.542 2.429,-1.732 0.456,-0.666 1.444,0.149 2.145,1.769 0.945,2.182 0.916,2.4 -0.464,3.49 m -5.268,-86.23 c -1.172,0.731 -2.979,1.731 -4.016,2.222 l -1.886,0.893 -0.254,2.65 c -0.185,1.923 -0.432,2.766 -0.903,3.074 -0.605,0.396 -0.577,0.53 0.404,1.95 1.372,1.984 1.391,3.74 0.062,5.585 -1.091,1.515 -1.036,1.455 -3.482,3.769 -2.029,1.919 -1.909,2.04 0.486,0.496 l 1.756,-1.133 0.722,1.228 c 1.019,1.732 1.291,3.114 0.711,3.61 -1.782,1.522 -7.657,4.244 -15.642,7.246 -8.412,3.163 -12.163,4.348 -13.76,4.348 -2.098,0 -4.762,-4.179 -2.864,-4.493 1.216,-0.201 5.772,-1.287 6.942,-1.655 1.422,-0.447 5.597,-1.901 6.721,-2.34 l 0.875,-0.342 -0.75,-0.85 c -1.033,-1.17 -2.186,-3.639 -2.468,-5.287 -0.517,-3.012 2.103,-6.34 7.018,-8.917 2.618,-1.373 7.236,-2.966 9.429,-3.254 l 1.827,-0.239 0.221,-1.914 c 0.122,-1.053 0.194,-1.953 0.162,-2.001 -0.033,-0.047 -2.352,0.914 -5.154,2.135 -6.51,2.837 -10.126,4.039 -11.258,3.741 -0.536,-0.141 -1.265,-0.908 -1.838,-1.931 -1.124,-2.01 -1.18,-2.519 -0.28,-2.519 1.127,0 10.231,-3.288 14.676,-5.3 l 4.202,-1.902 0.107,-2.729 0.108,-2.729 -2.259,1.908 c -3.524,2.976 -8.061,4.993 -11.26,5.004 -3.061,0.011 -5.89,-3.354 -5.867,-6.979 0.023,-3.651 3.627,-8.076 8.945,-10.982 4.354,-2.379 8.344,-2.941 10.412,-1.466 2.193,1.564 2.705,2.661 2.722,5.827 0.009,1.785 -0.156,3.023 -0.442,3.324 -0.493,0.517 -0.579,3.797 -0.162,6.164 l 0.253,1.435 2.542,-1.342 c 1.398,-0.738 2.705,-1.513 2.905,-1.722 0.199,-0.209 0.475,-0.38 0.613,-0.38 0.455,0 1.373,1.781 1.616,3.135 0.232,1.3 0.185,1.366 -1.892,2.662 m -1.538,135.107 c -0.319,0 -0.744,0.562 -5.917,7.836 -1.492,2.098 -2.91,4.08 -3.152,4.403 -0.857,1.149 -7.476,10.589 -9.405,13.414 -1.078,1.58 -2.387,3.389 -2.908,4.021 -1.005,1.218 -1.048,1.683 -0.197,2.145 0.29,0.157 1.842,1.104 3.45,2.105 2.653,1.651 3.141,1.821 5.297,1.847 2.251,0.028 2.656,-0.12 7.764,-2.821 l 5.389,-2.849 v -15.051 c 0,-8.389 -0.142,-15.05 -0.321,-15.05 m -6.646,0.594 c -4.022,1.859 -5.694,2.654 -10.315,4.908 -1.568,0.764 -2.921,1.39 -3.005,1.39 -0.085,0 -1.186,0.494 -2.447,1.098 -1.261,0.604 -3.115,1.484 -4.12,1.957 -5.966,2.807 -5.663,2.603 -5.663,3.802 0,0.619 -0.154,1.957 -0.343,2.973 -1.457,7.847 -1.529,7.456 1.729,9.454 3.64,2.232 6.103,3.667 6.316,3.678 0.117,0.006 0.766,-0.807 1.443,-1.807 0.677,-1.001 1.327,-1.905 1.444,-2.011 0.118,-0.105 2.229,-3.034 4.692,-6.509 2.463,-3.474 4.677,-6.579 4.92,-6.899 0.243,-0.321 0.93,-1.268 1.527,-2.106 0.597,-0.839 1.22,-1.697 1.386,-1.907 1.908,-2.429 6.744,-9.597 6.529,-9.677 -0.155,-0.058 -1.997,0.688 -4.093,1.656 m 2.423,-96.407 c -1.441,3.334 -7.183,8.136 -11.509,9.624 -4.761,1.638 -7.807,0.782 -9.416,-2.646 -1.986,-4.232 -0.252,-8.383 5.207,-12.466 3.423,-2.56 7.811,-4.323 10.861,-4.364 1.227,-0.016 3.565,1.467 4.389,2.784 0.871,1.393 1.144,5.506 0.468,7.068 m -1.348,42.747 c -2.762,3.287 -9.419,7.156 -14.14,8.218 -1.596,0.358 -2.11,0.332 -3.005,-0.153 -1.3,-0.704 -2.86,-3.068 -3.264,-4.945 -0.278,-1.292 -0.204,-1.45 1.367,-2.899 0.914,-0.843 2.788,-2.311 4.164,-3.261 1.376,-0.95 2.502,-1.795 2.502,-1.878 0,-0.082 -0.861,0.18 -1.913,0.583 -1.052,0.403 -2.453,0.733 -3.113,0.733 -1.033,0 -1.354,-0.252 -2.289,-1.798 -1.467,-2.424 -1.417,-2.965 0.283,-3.087 3.059,-0.22 14.796,-4.872 17.633,-6.989 l 1.028,-0.767 0.783,1.327 c 1.218,2.066 1.141,3.252 -0.278,4.27 -0.932,0.668 -1.086,0.933 -0.684,1.177 0.285,0.173 0.949,0.985 1.476,1.804 0.756,1.176 0.958,1.95 0.958,3.679 0,2.021 -0.116,2.329 -1.508,3.986 m 0.874,-28.873 c -1,1.608 -4.825,5.325 -7.522,7.309 -2.367,1.742 -2.95,2.367 -1.43,1.532 0.349,-0.192 2.189,-1.141 4.089,-2.11 3.173,-1.617 3.486,-1.705 3.836,-1.087 0.727,1.281 1.264,3.187 1.058,3.75 -0.428,1.168 -11.937,6.299 -16.66,7.427 -1.659,0.396 -2.587,-0.231 -3.86,-2.607 -0.795,-1.485 -0.805,-1.579 -0.16,-1.579 0.67,0 7.003,-3.214 7.388,-3.75 0.106,-0.148 1.263,-1.037 2.569,-1.975 4.885,-3.508 8.403,-6.795 8.403,-7.854 0,-0.125 -0.617,0.123 -1.37,0.553 -3.66,2.084 -12.954,5.751 -14.577,5.751 -0.842,0 -1.974,-1.18 -2.826,-2.948 -0.771,-1.599 -0.746,-2.029 0.122,-2.029 1.679,0 9.598,-2.695 14.085,-4.794 3.072,-1.436 4.669,-2.098 5.063,-2.098 0.715,0 2.427,3.12 2.407,4.384 -0.011,0.642 -0.287,1.598 -0.615,2.125 m -3.301,77.983 c -2.553,-1.046 -1.687,-1.327 -15.392,4.997 -4.483,2.069 -5.828,2.868 -6.626,3.936 -1.008,1.351 -1.783,4.595 -1.097,4.595 0.198,0 1.392,-0.494 2.653,-1.098 1.261,-0.604 3.115,-1.485 4.119,-1.957 1.005,-0.473 2.731,-1.286 3.837,-1.807 1.105,-0.521 2.502,-1.171 3.105,-1.444 0.603,-0.273 1.918,-0.886 2.923,-1.363 1.005,-0.476 2.731,-1.282 3.836,-1.792 5.745,-2.65 5.513,-2.506 4.834,-2.983 -0.347,-0.245 -1.334,-0.732 -2.192,-1.084 m 0.297,-96.847 c -2.189,0.091 -4.854,1.043 -8.971,3.203 -5.68,2.981 -8.067,5.709 -6.007,6.864 0.773,0.433 3.795,-0.021 5.81,-0.873 4.786,-2.024 8.751,-4.689 10.291,-6.917 1.261,-1.824 0.994,-2.366 -1.123,-2.277 m -0.7,-49.527 c -4.445,0.624 -13.687,5.694 -14.723,8.075 -0.767,1.765 -0.19,2.253 2.354,1.993 2.743,-0.28 3.917,-0.703 7.863,-2.835 3.178,-1.717 5.565,-3.73 6.694,-5.647 0.607,-1.031 0.615,-1.171 0.086,-1.481 -0.321,-0.189 -1.345,-0.236 -2.274,-0.105 m 1.407,90.199 c -0.206,-0.402 -0.698,-0.913 -1.095,-1.136 -0.607,-0.34 -1.449,0.102 -5.38,2.827 -2.563,1.777 -5.226,3.721 -5.917,4.32 -2.783,2.411 -3.676,3.29 -3.676,3.618 0,0.188 0.641,0.343 1.424,0.343 2.984,0 11.193,-4.365 13.604,-7.233 1.595,-1.898 1.541,-1.756 1.04,-2.739 m 0.209,-61.246 c -0.369,0 -4.155,1.117 -5.864,1.729 -2.855,1.024 -6.847,3.196 -8.426,4.586 -1.307,1.15 -1.436,1.427 -1.404,3.028 0.039,1.965 0.933,3.376 1.918,3.026 0.332,-0.119 2.66,-1.645 5.172,-3.393 4.938,-3.434 8.768,-7.028 8.768,-8.226 0,-0.413 -0.074,-0.75 -0.164,-0.75"
       style="fill:#000000;fill-opacity:1;fill-rule:nonzero;stroke:none"
       id="path78" /><path
       d="m 282.9129,161.977 c 0.233,0.461 0.683,2.04 0.872,3.058 0.236,1.268 0.203,5.359 -0.056,6.965 -0.193,1.201 -0.286,1.699 -0.593,3.173 -0.055,0.264 0.017,0.524 0.226,0.817 0.39,0.549 0.71,1.314 0.964,2.312 0.2,0.785 0.606,1.927 1.016,2.853 l 0.215,0.485 0.541,-0.557 c 0.298,-0.307 0.566,-0.687 0.597,-0.844 0.041,-0.215 0.18,-0.292 0.555,-0.308 0.275,-0.012 0.637,-0.066 0.803,-0.119 0.233,-0.075 0.322,-0.027 0.383,0.207 0.064,0.245 0.151,0.286 0.45,0.211 0.308,-0.077 0.371,-0.043 0.371,0.2 0,0.194 0.109,0.308 0.323,0.338 0.178,0.025 0.323,0.143 0.323,0.261 0,0.119 0.084,0.281 0.186,0.362 0.151,0.119 0.148,0.239 -0.02,0.646 -0.113,0.275 -0.252,0.79 -0.309,1.145 -0.124,0.777 -0.847,3.631 -1.073,4.234 -0.286,0.765 -0.906,2.1 -2.118,4.563 -0.653,1.325 -1.187,2.491 -1.187,2.59 0,0.1 0.081,0.355 0.18,0.568 0.132,0.284 0.285,0.386 0.583,0.387 0.62,0.002 1.95,0.697 2.627,1.375 l 0.61,0.609 0.599,-0.554 c 0.567,-0.523 0.618,-0.542 0.931,-0.337 0.454,0.298 0.518,0.538 0.354,1.321 -0.466,2.222 -1.676,5.124 -2.606,6.253 -0.441,0.535 -1.002,0.69 -1.226,0.339 -0.09,-0.143 -1.225,-0.16 -5.424,-0.08 -2.921,0.056 -6.182,0.131 -7.248,0.167 -1.066,0.037 -2.633,0.005 -3.483,-0.071 -1.329,-0.118 -1.577,-0.106 -1.768,0.086 -0.878,0.877 -1.94,-0.685 -3.215,-4.729 -0.273,-0.865 -0.333,-2.036 -0.128,-2.498 0.108,-0.245 0.271,-0.445 0.36,-0.445 0.09,0 0.402,0.264 0.694,0.587 0.292,0.323 0.542,0.565 0.556,0.538 0.015,-0.026 0.233,-0.316 0.486,-0.643 l 0.459,-0.594 -0.598,-0.397 -0.599,-0.396 0.347,-0.229 c 0.686,-0.453 1.164,-0.917 1.05,-1.021 -0.107,-0.097 -1.302,-0.547 -2.915,-1.097 -0.355,-0.121 -0.699,-0.27 -0.764,-0.331 -0.065,-0.061 0.307,-0.958 0.825,-1.994 0.519,-1.035 0.943,-1.948 0.943,-2.029 0,-0.164 -0.553,-0.425 -4.55,-2.147 l -2.757,-1.188 -0.212,-0.665 c -0.277,-0.87 -0.739,-2.971 -0.951,-4.325 -0.092,-0.592 -0.224,-1.399 -0.292,-1.794 -0.155,-0.892 -0.218,-2.046 -0.117,-2.147 0.213,-0.213 5.122,1.63 7.653,2.872 0.864,0.425 1.582,0.758 1.595,0.741 0.013,-0.016 0.057,-0.464 0.098,-0.995 l 0.074,-0.965 -1.311,-1.26 c -4.102,-3.944 -6.104,-6.608 -7.39,-9.835 -0.154,-0.385 -0.145,-0.395 0.344,-0.395 0.275,0 0.613,0.061 0.75,0.136 0.137,0.075 0.698,0.343 1.247,0.596 2.601,1.196 7.017,4.736 8.492,6.806 0.284,0.399 0.323,0.412 0.574,0.2 0.418,-0.355 2.036,-1.098 3.068,-1.409 1.543,-0.466 2.878,-0.632 4.502,-0.559 l 1.526,0.068 v -0.527 c 0,-0.498 0.103,-1.193 0.45,-3.014 0.491,-2.584 1.285,-5.234 2.02,-6.746 0.596,-1.225 0.806,-1.384 1.088,-0.825 m -1.949,4.234 c -0.287,0.769 -0.84,3.464 -1.183,5.76 -0.179,1.198 -0.178,1.206 0.163,1.468 0.423,0.325 0.4,0.326 -1.2,0.033 -1.66,-0.304 -3.282,-0.133 -5.835,0.613 -0.452,0.132 -2.162,0.976 -2.505,1.236 -0.233,0.177 -0.243,0.244 -0.077,0.51 0.105,0.168 0.136,0.357 0.069,0.42 -0.067,0.063 -0.147,0.046 -0.177,-0.037 -0.262,-0.725 -2.633,-3.293 -4.283,-4.64 -1.185,-0.967 -2.887,-2.17 -3.069,-2.17 -0.216,0 -0.617,1.171 -0.697,2.036 -0.065,0.705 -0.023,0.905 0.308,1.47 0.426,0.726 4.558,4.953 5.534,5.66 0.608,0.44 0.625,0.51 0.113,0.457 -0.226,-0.022 -0.252,0.135 -0.252,1.539 0,1.889 0.274,3.626 0.952,6.053 0.606,2.165 1.484,3.219 3.446,4.133 0.63,0.293 0.764,0.403 0.533,0.437 -0.38,0.057 -1.524,-0.458 -2.225,-1 l -0.524,-0.406 -0.063,0.682 c -0.057,0.619 -0.018,0.73 0.421,1.196 0.594,0.631 0.524,0.96 -0.22,1.022 -0.504,0.042 -0.53,0.07 -0.622,0.689 -0.093,0.619 -0.074,0.667 0.466,1.152 0.856,0.77 0.731,1.288 -0.31,1.288 -0.339,0 -0.418,0.062 -0.418,0.324 0,0.293 0.059,0.32 0.609,0.278 0.483,-0.036 0.752,0.045 1.292,0.391 0.375,0.24 0.682,0.507 0.682,0.594 0,0.088 -0.239,0.011 -0.53,-0.169 -0.368,-0.227 -0.759,-0.329 -1.28,-0.334 -0.825,-0.008 -1.234,0.26 -1.803,1.182 l -0.295,0.476 0.375,0.724 c 0.207,0.397 0.372,0.895 0.369,1.104 -0.006,0.303 -0.113,0.175 -0.522,-0.623 -0.506,-0.988 -1.056,-1.812 -1.044,-1.562 0.004,0.07 0.059,0.401 0.124,0.737 0.065,0.335 0.089,0.61 0.052,0.61 -0.036,0 -0.266,-0.142 -0.509,-0.316 -0.385,-0.274 -0.43,-0.281 -0.345,-0.058 0.055,0.141 0.137,0.429 0.184,0.638 0.293,1.307 1.303,3.678 1.82,4.273 0.387,0.445 0.638,0.432 1.055,-0.052 0.243,-0.283 0.339,-0.33 0.339,-0.164 0.001,0.195 0.288,0.243 1.902,0.315 2.377,0.106 14.729,-0.098 15.069,-0.25 0.141,-0.062 0.251,-0.266 0.251,-0.463 0,-0.198 0.063,-0.313 0.144,-0.263 0.079,0.048 0.145,0.198 0.147,0.331 10e-4,0.133 0.12,0.395 0.263,0.581 l 0.261,0.339 0.441,-0.535 c 0.403,-0.489 0.945,-1.49 1.517,-2.798 0.396,-0.907 0.992,-2.741 0.916,-2.817 -0.041,-0.041 -0.117,0.06 -0.169,0.223 -0.106,0.333 -0.304,0.392 -0.404,0.119 -0.037,-0.099 -0.114,-0.002 -0.171,0.215 -0.058,0.217 -0.171,0.395 -0.25,0.395 -0.081,0 -0.106,-0.143 -0.056,-0.323 0.162,-0.591 0.269,-1.4 0.186,-1.4 -0.095,0 -1.102,2.112 -1.102,2.312 0,0.073 -0.058,0.244 -0.129,0.382 -0.071,0.137 -0.196,0.41 -0.278,0.607 -0.147,0.357 -0.148,0.356 -0.158,-0.092 -0.005,-0.249 0.184,-0.927 0.42,-1.507 0.237,-0.581 0.431,-1.122 0.431,-1.202 10e-4,-0.294 -0.898,-1.227 -1.551,-1.61 -1.012,-0.593 -2.05,-0.556 -3.024,0.108 -0.404,0.275 -0.734,0.549 -0.734,0.608 0,0.059 -0.065,0.107 -0.144,0.107 -0.079,0 -0.144,-0.052 -0.144,-0.116 0,-0.225 0.939,-1.076 1.4,-1.27 0.48,-0.202 0.555,-0.323 0.344,-0.558 -0.206,-0.232 -1.295,-3.118 -1.398,-3.71 -0.135,-0.77 0.132,-0.567 0.422,0.32 0.126,0.384 0.367,1.015 0.535,1.402 l 0.307,0.703 1.314,-2.655 c 1.707,-3.449 2.139,-4.526 2.535,-6.315 0.096,-0.434 0.231,-0.977 0.3,-1.206 0.069,-0.228 0.129,-0.584 0.134,-0.789 0.004,-0.205 0.085,-0.599 0.179,-0.875 0.148,-0.435 0.137,-0.537 -0.085,-0.759 -0.141,-0.141 -0.323,-0.216 -0.404,-0.165 -0.082,0.05 -0.184,-0.044 -0.227,-0.21 -0.044,-0.167 -0.196,-0.302 -0.34,-0.302 -0.143,0 -0.302,-0.132 -0.354,-0.294 -0.072,-0.229 -0.137,-0.259 -0.288,-0.133 -0.107,0.089 -0.157,0.27 -0.111,0.402 0.064,0.185 0.008,0.169 -0.242,-0.068 l -0.324,-0.309 -0.778,0.872 c -0.521,0.584 -0.747,0.946 -0.684,1.098 0.515,1.251 0.425,2.642 -0.255,3.929 -0.578,1.093 -2.73,3.377 -3.903,4.141 -1.388,0.904 -1.481,0.669 -0.13,-0.329 1.044,-0.771 2.905,-2.639 3.305,-3.316 0.31,-0.527 0.311,-0.537 0.035,-0.685 -0.35,-0.187 -0.856,-1.156 -0.856,-1.639 0,-0.719 0.446,-1.537 0.955,-1.75 0.264,-0.11 0.48,-0.236 0.48,-0.281 0,-0.044 -0.256,-0.738 -0.568,-1.541 -0.313,-0.803 -0.668,-1.848 -0.79,-2.321 -0.325,-1.271 -1.043,-2.63 -1.825,-3.459 -0.381,-0.402 -0.692,-0.776 -0.692,-0.83 0,-0.136 0.581,0.175 0.945,0.506 l 0.299,0.271 0.236,-0.981 c 0.338,-1.399 0.671,-4.07 0.672,-5.397 10e-4,-1.128 -0.002,-1.137 -0.545,-1.65 -0.538,-0.509 -1.524,-1.125 -1.84,-1.149 -0.09,-0.007 -0.229,0.165 -0.31,0.382 m -22.516,11.784 c 0.045,0.226 0.121,0.759 0.17,1.184 0.049,0.426 0.144,1.065 0.212,1.42 0.068,0.355 0.198,1.065 0.288,1.579 0.21,1.197 0.409,2.056 0.669,2.893 0.228,0.735 0.201,0.716 2.346,1.598 0.671,0.276 1.657,0.702 2.192,0.947 0.535,0.245 1.003,0.446 1.04,0.446 0.15,0 2.221,1.001 2.221,1.073 0,0.044 -0.448,0.974 -0.996,2.067 l -0.996,1.989 0.674,0.223 c 0.37,0.123 1.121,0.388 1.668,0.59 0.548,0.202 1.007,0.352 1.02,0.334 0.08,-0.112 0.355,-1.442 0.307,-1.49 -0.032,-0.032 -0.341,-0.106 -0.687,-0.165 -0.378,-0.065 -0.643,-0.192 -0.666,-0.319 -0.021,-0.117 0.382,-0.743 0.895,-1.392 0.514,-0.65 0.933,-1.263 0.931,-1.364 -0.001,-0.1 -0.19,-0.459 -0.419,-0.797 -0.712,-1.051 -1.664,-4.734 -1.768,-6.838 l -0.034,-0.707 -1.579,-0.809 c -2.131,-1.092 -6.524,-2.828 -7.23,-2.858 -0.3,-0.012 -0.331,0.034 -0.258,0.396 m 24.619,1.076 c 0.711,0.758 0.506,2.116 -0.375,2.485 -0.578,0.241 -0.97,0.149 -1.508,-0.354 -0.298,-0.28 -0.394,-0.505 -0.394,-0.924 0,-0.633 0.31,-1.325 0.652,-1.456 0.54,-0.207 1.307,-0.089 1.625,0.249 m -1.545,0.433 c -0.239,0.289 -0.035,0.688 0.327,0.636 0.421,-0.06 0.529,-0.833 0.116,-0.833 -0.153,0 -0.353,0.089 -0.443,0.197 m -7.779,1.459 c 0.317,0.361 0.445,0.652 0.445,1.011 0,0.666 -0.357,1.331 -0.806,1.501 -0.709,0.27 -1.204,0.165 -1.738,-0.368 -0.476,-0.477 -0.501,-0.549 -0.434,-1.247 0.092,-0.962 0.554,-1.405 1.464,-1.405 0.534,0 0.687,0.073 1.069,0.508 m -1.205,0.425 c 0,0.363 0.056,0.431 0.356,0.431 0.231,0 0.375,-0.092 0.407,-0.26 0.084,-0.435 -0.094,-0.697 -0.44,-0.647 -0.253,0.036 -0.323,0.139 -0.323,0.476 m 6.314,1.077 c 0.142,0.229 -0.06,0.43 -0.43,0.43 -0.411,0 -0.618,-0.269 -0.342,-0.444 0.267,-0.169 0.664,-0.162 0.772,0.014 m 5.871,0.732 c -0.203,0.224 -0.274,0.518 -0.274,1.133 0,0.616 0.071,0.91 0.274,1.133 0.361,0.399 0.577,0.382 0.78,-0.063 0.177,-0.389 0.232,-2.248 0.071,-2.409 -0.187,-0.187 -0.582,-0.091 -0.851,0.206 m -3.072,0.321 c 0,0.12 -0.087,0.305 -0.194,0.412 -0.112,0.112 -0.238,0.708 -0.297,1.409 -0.232,2.732 -1.117,4.445 -2.295,4.445 -0.778,0 -1.868,-1.129 -2.651,-2.747 -0.325,-0.671 -0.591,-1.324 -0.591,-1.449 0,-0.126 -0.177,-0.358 -0.394,-0.516 -0.477,-0.348 -0.373,-0.521 0.185,-0.309 0.485,0.185 0.864,0.054 2.205,-0.76 l 0.92,-0.559 0.874,0.238 c 0.481,0.13 0.98,0.267 1.109,0.304 0.129,0.036 0.436,-0.103 0.682,-0.31 0.33,-0.277 0.447,-0.319 0.447,-0.158 m -4.344,1.09 c -0.529,0.321 -1.063,0.584 -1.189,0.584 -0.301,0 -0.204,0.333 0.533,1.824 0.614,1.245 1.735,2.481 2.247,2.481 0.339,0 0.931,-0.577 1.223,-1.192 0.121,-0.254 0.327,-0.936 0.459,-1.516 0.226,-0.993 0.225,-1.085 -0.01,-1.608 -0.292,-0.647 -0.549,-0.897 -1.144,-1.113 -0.619,-0.225 -1.035,-0.119 -2.119,0.54 m -5.074,0.588 c 0.962,0.288 1.579,1.449 1.234,2.32 -0.259,0.654 -0.551,0.964 -1.142,1.212 -0.984,0.413 -2.139,-0.172 -2.461,-1.246 -0.14,-0.468 -0.126,-0.666 0.087,-1.224 0.206,-0.539 0.366,-0.717 0.846,-0.935 0.65,-0.295 0.823,-0.31 1.436,-0.127 m -1.437,0.537 c -1.273,1.032 -0.442,2.999 1.142,2.702 1.717,-0.322 1.492,-2.963 -0.252,-2.953 -0.335,0.002 -0.714,0.109 -0.89,0.251 m -1.83,5.667 c -0.285,0.376 -0.518,0.74 -0.518,0.809 0,0.154 0.849,0.294 0.935,0.154 0.094,-0.152 0.264,-1.8 0.177,-1.718 -0.042,0.04 -0.309,0.379 -0.594,0.755 m 6.842,0.665 c 1.347,1.492 2.95,4.777 3.319,6.805 0.055,0.3 0.193,0.581 0.307,0.625 0.267,0.102 0.269,0.569 0.003,0.671 -0.112,0.043 -0.225,0.227 -0.251,0.41 -0.031,0.22 -0.143,0.331 -0.334,0.331 -0.158,0 -0.334,0.116 -0.392,0.258 -0.087,0.212 -0.158,0.229 -0.406,0.096 -0.246,-0.131 -0.337,-0.113 -0.496,0.101 -0.156,0.21 -0.248,0.231 -0.457,0.103 -0.2,-0.121 -0.306,-0.113 -0.445,0.036 -0.255,0.272 -0.422,0.245 -0.607,-0.1 -0.087,-0.163 -0.673,-0.816 -1.303,-1.452 -2.418,-2.441 -3.977,-4.429 -3.826,-4.881 0.032,-0.096 0.275,0.146 0.54,0.536 0.703,1.036 2.023,2.548 3.44,3.94 0.683,0.671 1.288,1.343 1.345,1.493 0.101,0.266 0.109,0.266 0.299,0.005 0.172,-0.234 0.227,-0.242 0.441,-0.064 0.214,0.177 0.263,0.17 0.388,-0.054 0.102,-0.182 0.244,-0.231 0.489,-0.17 0.25,0.063 0.344,0.027 0.344,-0.131 0,-0.12 0.114,-0.219 0.252,-0.219 0.283,-0.001 0.707,-0.756 0.469,-0.835 -0.081,-0.027 -0.146,-0.199 -0.146,-0.383 0,-0.523 -0.79,-2.808 -1.373,-3.97 -0.594,-1.185 -1.664,-2.838 -2.082,-3.217 -0.153,-0.137 -0.277,-0.305 -0.277,-0.371 0,-0.257 0.274,-0.1 0.759,0.437 m -5.925,0.016 c 0,0.191 0.095,0.287 0.287,0.287 0.354,0 0.373,-0.223 0.035,-0.419 -0.332,-0.194 -0.322,-0.198 -0.322,0.132 m -0.574,3.014 c 0,0.36 0.056,0.43 0.35,0.43 0.472,0 0.593,-0.245 0.287,-0.583 -0.373,-0.412 -0.637,-0.349 -0.637,0.153 m -0.909,0.782 c -0.254,0.192 -0.253,0.205 0.026,0.354 0.409,0.219 0.452,0.2 0.452,-0.204 0,-0.405 -0.1,-0.436 -0.478,-0.15 m 21.886,2.232 0.004,0.358 0.115,-0.358 c 0.063,-0.198 0.117,-0.488 0.119,-0.646 l 0.005,-0.287 -0.124,0.287 c -0.068,0.158 -0.121,0.448 -0.119,0.646"
       style="fill:#000000;fill-opacity:1;fill-rule:nonzero;stroke:none"
       id="path80" /><path
       d="m 20.357904,407.19 v -3.902 h 3.901 3.901 v 3.902 3.902 h -3.901 -3.901 v -3.902 m 8.897,3.286 v -0.616 h 1.163 1.164 v 0.616 0.616 h -1.164 -1.163 v -0.616 m 7.802,0.077 c 0,-0.537 -0.003,-0.54 -0.582,-0.582 -0.564,-0.041 -0.583,-0.057 -0.624,-0.556 l -0.042,-0.513 h -1.635 -1.634 v -1.096 -1.095 h -0.479 c -0.456,0 -0.479,0.023 -0.479,0.479 0,0.468 -0.013,0.48 -0.548,0.48 h -0.547 v 0.616 0.616 h -0.616 -0.616 v -1.712 -1.711 h 0.548 0.547 v -0.548 -0.547 h -0.547 -0.548 v -0.548 -0.548 h 0.548 0.547 v -0.547 -0.548 h -0.547 -0.548 v -0.548 -0.547 h -0.548 -0.547 v 0.547 0.548 h -0.548 -0.547 v -0.548 -0.547 h -1.095 -1.095 v 0.547 0.548 h -2.258 -2.259 v -0.616 -0.616 h 1.095 1.095 v -0.48 -0.479 h -1.095 -1.095 v -0.616 -0.616 h 0.548 0.547 v -1.095 -1.096 h -0.547 -0.548 v -0.547 -0.548 h 0.548 0.547 v -0.548 -0.547 h -0.555 -0.556 l 0.042,-0.582 0.043,-0.582 1.06,-0.04 1.061,-0.04 v -0.542 -0.542 h 1.164 1.163 v 0.548 0.548 h 0.548 0.547 v -0.548 -0.548 h 1.095 1.095 v 0.548 0.548 h 0.547 0.548 v -1.027 -1.027 h -1.095 -1.095 v -0.542 -0.543 l -1.129,-0.039 -1.129,-0.04 -0.042,-0.582 c -0.041,-0.564 -0.057,-0.582 -0.514,-0.582 -0.467,0 -0.471,0.005 -0.471,0.616 v 0.616 h -1.095 -1.095 v 0.548 0.548 h -0.616 -0.616 v -0.616 -0.617 h 0.548 0.547 v -1.018 -1.019 l -0.513,-0.042 c -0.498,-0.041 -0.515,-0.06 -0.556,-0.625 l -0.042,-0.582 h 0.624 0.624 v 0.548 0.548 h 1.095 1.095 v -0.548 c 0,-0.533 0.012,-0.548 0.475,-0.548 h 0.475 l 0.038,-1.677 0.039,-1.677 0.581,-0.042 0.582,-0.042 v 0.624 0.624 h 0.547 0.548 v -0.616 -0.616 h 0.547 0.548 v 0.616 c 0,0.613 -0.002,0.616 -0.479,0.616 -0.456,0 -0.479,0.023 -0.479,0.479 0,0.456 0.023,0.479 0.479,0.479 0.477,0 0.479,0.004 0.479,0.616 v 0.616 h 0.547 0.548 v -0.616 -0.616 h 0.548 0.547 v -1.027 -1.026 h -0.547 -0.548 v -0.617 -0.616 h 0.548 0.547 v -0.547 -0.548 h 0.616 0.616 v 0.548 c 0,0.534 0.011,0.547 0.479,0.547 h 0.479 v -1.095 -1.095 h 0.548 0.547 v -0.548 -0.548 h 0.616 0.616 v 0.617 0.616 h -0.548 -0.547 v 1.026 1.027 h 0.547 0.548 v -0.547 c 0,-0.535 0.011,-0.548 0.479,-0.548 h 0.479 v -1.643 -1.643 h -0.479 -0.479 v -1.711 -1.712 h 3.353 3.354 v 0.616 0.616 h 0.547 0.548 v 0.617 0.616 h -0.548 -0.547 v 1.643 1.643 h -0.616 -0.616 v -1.643 -1.643 h -1.021 -1.021 l -0.04,1.061 -0.04,1.061 -0.581,0.042 c -0.564,0.041 -0.582,0.057 -0.582,0.513 v 0.472 h 1.163 1.164 v 0.616 0.616 h -1.711 -1.711 v 0.479 0.479 h 1.711 1.711 v 0.548 0.548 h 0.547 0.548 v 0.616 0.616 h -0.548 c -0.534,0 -0.547,0.011 -0.547,0.479 v 0.479 h 1.095 1.095 v 0.616 0.616 h 0.547 0.548 v -1.095 -1.095 h -0.616 -0.616 v -1.712 -1.711 h 1.095 1.095 v -0.479 c 0,-0.457 -0.023,-0.479 -0.479,-0.479 h -0.479 v -1.164 -1.164 h 1.095 1.095 v -1.095 -1.096 h 0.547 0.548 v -0.616 -0.616 h 0.547 0.548 v 0.616 0.616 h 1.163 1.164 v 0.548 0.548 h 0.547 0.548 v 0.547 0.548 h -0.616 c -0.613,0 -0.616,-0.002 -0.616,-0.479 v -0.479 h -1.574 -1.574 v 0.479 c 0,0.456 0.022,0.479 0.479,0.479 0.467,0 0.479,0.013 0.479,0.548 v 0.547 h 3.353 3.354 v -0.547 -0.548 h -0.616 -0.616 v -0.548 -0.547 h 1.163 1.164 v 2.807 2.806 h -1.095 -1.095 v 1.096 1.095 h 0.547 c 0.535,0 0.548,0.011 0.548,0.479 0,0.456 0.022,0.479 0.479,0.479 0.456,0 0.479,-0.023 0.479,-0.479 0,-0.477 0.003,-0.479 0.616,-0.479 h 0.615 v -0.624 -0.624 l 0.582,0.042 c 0.579,0.042 0.582,0.045 0.624,0.624 l 0.042,0.582 h -0.624 c -0.619,0 -0.624,0.003 -0.624,0.471 0,0.457 0.019,0.473 0.582,0.514 l 0.582,0.042 v 1.163 1.164 l -1.129,0.04 -1.129,0.04 v 0.474 c 0,0.461 -0.015,0.473 -0.548,0.473 h -0.547 v 1.095 1.096 h 0.479 c 0.467,0 0.479,-0.013 0.479,-0.548 v -0.548 h 0.616 0.615 v -0.547 -0.548 h 0.624 0.624 l -0.042,0.582 c -0.042,0.579 -0.045,0.582 -0.624,0.624 -0.563,0.041 -0.582,0.057 -0.582,0.514 0,0.467 0.006,0.471 0.617,0.471 h 0.615 v 1.164 1.163 h -1.163 -1.163 v 1.096 1.095 h 0.547 0.547 v 0.548 0.547 h -1.094 -1.095 v 0.617 0.616 h -1.095 -1.095 v 0.479 c 0,0.468 0.013,0.479 0.547,0.479 h 0.548 v 0.616 0.616 h -0.616 -0.616 v -0.547 c 0,-0.535 -0.012,-0.548 -0.479,-0.548 h -0.479 v 1.095 1.096 h -0.548 -0.547 v 0.547 0.548 h -0.616 -0.616 v -0.616 -0.616 h 0.547 0.548 v -1.575 -1.574 h -0.479 -0.479 v 1.095 1.095 h -0.616 -0.616 v 0.548 c 0,0.535 -0.012,0.548 -0.479,0.548 -0.457,0 -0.479,0.022 -0.479,0.479 0,0.456 0.022,0.479 0.479,0.479 0.476,0 0.479,0.003 0.479,0.616 v 0.616 h 0.616 0.616 v 3.355 3.354 h -0.616 -0.616 v 0.548 0.547 h -0.548 -0.547 v -1.711 -1.711 h -0.548 -0.547 v -1.096 -1.095 h -2.19 -2.19 v 1.095 1.096 h -1.095 -1.095 v 1.095 1.095 h 0.479 c 0.467,0 0.479,-0.013 0.479,-0.547 v -0.548 h 1.163 1.164 v 1.164 1.163 h -0.616 -0.616 v -0.547 c 0,-0.535 -0.012,-0.548 -0.479,-0.548 -0.468,0 -0.479,0.013 -0.479,0.548 v 0.547 h -1.164 -1.163 v -0.539 m 5.612,-0.077 v -0.616 h 0.547 0.548 v 0.616 0.616 h -0.548 -0.547 v -0.616 m 6.57,-3.284 v -3.904 h 3.971 3.972 l -0.037,3.868 -0.036,3.868 -3.935,0.036 -3.935,0.037 v -3.905 m -22.174,-0.07 v -2.738 h -2.737 -2.738 v 2.738 2.738 h 2.738 2.737 v -2.738 m 28.88,0 v -2.738 h -2.737 -2.737 v 2.738 2.738 h 2.737 2.737 v -2.738 m -33.397,0.068 v -1.711 h 1.711 1.711 v 1.711 1.712 h -1.711 -1.711 v -1.712 m 20.121,1.096 v -0.616 h -0.616 -0.616 v -0.548 -0.548 h 1.163 1.164 v 1.164 1.164 h -0.548 -0.547 v -0.616 m 8.76,-1.096 v -1.711 h 1.711 1.711 v 1.711 1.712 h -1.711 -1.711 v -1.712 m -13.277,-0.068 v -0.548 h 0.547 0.548 v -0.547 -0.548 h 0.547 0.548 v -1.095 -1.096 h -0.479 c -0.468,0 -0.479,0.013 -0.479,0.548 v 0.548 h -0.616 -0.616 v -0.548 -0.548 h 0.547 0.548 v -0.547 -0.548 h -0.548 -0.547 v -0.548 -0.547 h -0.548 -0.547 v 2.19 2.191 h -0.548 -0.547 v 0.616 0.616 h -0.548 -0.547 v -0.616 c 0,-0.613 0.002,-0.616 0.479,-0.616 h 0.479 v -1.095 -1.096 h -0.479 -0.479 v -1.163 -1.164 h 1.095 1.095 v -0.472 c 0,-0.456 -0.018,-0.472 -0.582,-0.513 -0.564,-0.041 -0.583,-0.057 -0.624,-0.556 l -0.042,-0.513 h -1.635 -1.634 v -1.164 -1.164 h -0.479 c -0.477,0 -0.479,0.004 -0.479,0.617 v 0.616 h -0.548 -0.547 v 1.026 1.027 h 0.547 0.548 v 0.616 0.617 h -0.548 c -0.534,0 -0.547,0.011 -0.547,0.479 0,0.468 0.013,0.479 0.547,0.479 h 0.548 v 0.616 c 0,0.613 0.002,0.616 0.479,0.616 0.476,0 0.479,-0.003 0.479,-0.616 v -0.616 h 0.616 0.616 v 0.616 0.616 h 0.547 0.548 v 1.096 1.095 h -0.548 -0.547 v 1.095 1.096 h 2.19 2.19 v -0.548 m 8.897,-1.643 v -2.191 h -0.479 -0.479 v 2.191 2.191 h 0.479 0.479 v -2.191 m -13.414,-1.095 v -1.096 h -0.479 c -0.468,0 -0.479,0.013 -0.479,0.548 v 0.548 h -0.548 -0.547 v 0.547 0.548 h 1.026 1.027 v -1.095 m -2.19,-0.617 c 0,-0.456 -0.023,-0.479 -0.479,-0.479 -0.456,0 -0.479,0.023 -0.479,0.479 0,0.457 0.023,0.48 0.479,0.48 0.456,0 0.479,-0.023 0.479,-0.48 m 11.224,0 c 0,-0.467 0.013,-0.479 0.547,-0.479 0.535,0 0.548,0.012 0.548,0.479 0,0.468 0.013,0.48 0.547,0.48 h 0.548 v -1.027 -1.027 h -0.616 -0.616 v -0.548 -0.547 h -1.027 -1.026 v 0.479 c 0,0.468 0.013,0.479 0.547,0.479 h 0.548 v 0.616 0.616 h -0.548 c -0.534,0 -0.547,0.012 -0.547,0.479 0,0.468 0.013,0.48 0.547,0.48 0.535,0 0.548,-0.012 0.548,-0.48 m 8.76,-2.19 v -0.616 h 1.163 1.164 v -1.096 -1.095 h 0.479 c 0.467,0 0.479,-0.013 0.479,-0.548 v -0.547 h 0.616 0.615 v 0.547 0.548 h 0.617 0.615 v 1.711 1.712 h -0.615 -0.617 v -0.548 -0.547 h -0.547 -0.547 v 0.547 0.548 h -1.711 -1.711 v -0.616 m -26.665,-1.13 0.043,-0.513 1.129,-0.04 1.129,-0.04 v -0.542 -0.542 h 1.095 1.095 v -0.548 -0.547 h 0.548 0.547 v -0.548 -0.548 h 0.548 0.547 v -1.095 -1.095 h -0.471 c -0.457,0 -0.473,0.018 -0.513,0.582 -0.042,0.579 -0.045,0.582 -0.624,0.624 l -0.582,0.042 v -0.624 -0.624 h -0.548 -0.547 v -0.548 c 0,-0.535 -0.011,-0.548 -0.479,-0.548 -0.468,0 -0.479,0.013 -0.479,0.548 0,0.535 0.011,0.548 0.479,0.548 0.477,0 0.479,0.003 0.479,0.616 0,0.613 -0.002,0.616 -0.479,0.616 -0.456,0 -0.479,0.023 -0.479,0.479 0,0.457 0.023,0.479 0.479,0.479 0.477,0 0.479,0.004 0.479,0.617 v 0.616 h -0.548 -0.547 v -0.616 -0.617 h -0.548 -0.547 v -1.095 -1.095 h -0.547 -0.548 v 1.711 1.712 h -0.547 -0.548 v 1.574 1.575 h 0.471 c 0.445,0 0.473,-0.028 0.513,-0.514 m 3.396,0.034 c 0,-0.456 -0.023,-0.479 -0.479,-0.479 -0.456,0 -0.479,0.023 -0.479,0.479 0,0.457 0.023,0.48 0.479,0.48 0.456,0 0.479,-0.023 0.479,-0.48 m 2.19,0 c 0,-0.456 -0.023,-0.479 -0.479,-0.479 -0.456,0 -0.479,0.023 -0.479,0.479 0,0.457 0.023,0.48 0.479,0.48 0.456,0 0.479,-0.023 0.479,-0.48 m 15.604,0 v -0.479 h -1.095 -1.095 v 0.479 0.48 h 1.095 1.095 v -0.48 m -6.707,-1.163 v -0.548 h 0.547 c 0.535,0 0.548,-0.011 0.548,-0.479 0,-0.468 -0.013,-0.479 -0.548,-0.479 h -0.547 v -1.096 -1.095 h -0.548 -0.547 v -0.616 -0.616 h 0.616 0.616 v 0.547 c 0,0.535 0.011,0.548 0.479,0.548 0.467,0 0.479,-0.013 0.479,-0.548 v -0.547 h 1.163 1.164 v 1.095 1.095 h -1.095 -1.095 v 0.548 0.548 h 1.095 1.095 v -0.548 -0.548 h 1.095 1.095 v -1.095 -1.095 h 0.547 0.548 v -0.548 -0.548 h -0.548 -0.547 v 0.548 0.548 h -0.616 -0.616 v -1.096 -1.095 h -0.479 -0.479 v -1.095 -1.096 h -0.616 -0.616 v -0.616 c 0,-0.613 -0.003,-0.616 -0.479,-0.616 -0.477,0 -0.479,0.003 -0.479,0.616 v 0.616 h -0.548 c -0.534,0 -0.547,0.012 -0.547,0.48 0,0.467 0.013,0.479 0.547,0.479 h 0.548 v 0.548 0.547 h 0.547 0.548 v 0.616 0.616 h -0.616 -0.616 v -0.547 c 0,-0.535 -0.012,-0.548 -0.479,-0.548 -0.468,0 -0.479,0.013 -0.479,0.548 v 0.547 h -0.616 -0.616 v -0.547 -0.548 h -0.548 -0.547 v -1.164 -1.164 h 0.547 0.548 v -1.642 -1.644 h 0.547 0.548 v -0.547 -0.548 h -0.548 -0.547 v -1.095 -1.095 h -0.548 -0.547 v 0.547 0.548 h -0.616 -0.616 v -1.095 -1.096 h -0.479 -0.479 v 1.096 1.095 h -0.616 -0.616 v -0.548 c 0,-0.534 -0.011,-0.547 -0.479,-0.547 h -0.479 v 1.026 1.027 h 1.642 1.643 v 0.616 0.616 h 0.547 0.548 v 0.617 0.616 h -0.548 c -0.534,0 -0.547,0.011 -0.547,0.479 0,0.468 -0.013,0.479 -0.548,0.479 h -0.547 v 1.095 1.096 h 0.547 0.548 v 0.616 0.616 h -1.095 -1.095 v 0.479 0.48 h 1.095 1.095 v 0.616 0.616 h 0.547 0.548 v 0.616 0.616 h -0.548 c -0.534,0 -0.547,0.011 -0.547,0.479 0,0.468 -0.013,0.479 -0.548,0.479 -0.534,0 -0.547,-0.011 -0.547,-0.479 0,-0.468 -0.013,-0.479 -0.548,-0.479 h -0.547 v 1.027 1.027 h 2.258 2.259 v 1.095 1.095 h 0.479 c 0.467,0 0.479,-0.013 0.479,-0.547 m 3.422,0.068 c 0,-0.468 -0.013,-0.479 -0.548,-0.479 -0.534,0 -0.547,0.011 -0.547,0.479 0,0.468 0.013,0.479 0.547,0.479 0.535,0 0.548,-0.011 0.548,-0.479 m 4.38,-1.095 v -0.479 h -1.643 -1.642 v 0.479 0.479 h 1.642 1.643 v -0.479 m -23.269,-2.807 v -2.191 h -0.547 -0.548 v 1.164 1.164 h -0.547 c -0.535,0 -0.548,0.011 -0.548,0.479 0,0.468 0.013,0.479 0.548,0.479 h 0.547 v 0.548 0.548 h 0.548 0.547 v -2.191 m 26.554,1.643 v -0.548 h 1.095 1.095 v -0.547 -0.548 h 0.616 0.616 v -1.095 -1.096 h -1.095 -1.095 v 0.548 c 0,0.546 -0.002,0.548 -0.54,0.548 -0.537,0 -0.54,0.003 -0.582,0.582 -0.042,0.579 -0.045,0.582 -0.624,0.624 l -0.581,0.042 v -0.624 c 0,-0.622 -0.002,-0.624 -0.479,-0.624 h -0.479 v 1.095 1.095 h 0.547 0.548 v 0.548 c 0,0.535 0.011,0.548 0.479,0.548 0.467,0 0.479,-0.013 0.479,-0.548 m -3.285,-1.643 v -1.095 h -0.479 -0.479 v 1.095 1.095 h 0.479 0.479 v -1.095 m -13.414,-1.095 v -1.096 h -0.547 -0.548 v -0.547 c 0,-0.535 -0.011,-0.548 -0.479,-0.548 h -0.479 v 1.095 1.096 h 0.547 0.548 v 0.547 c 0,0.535 0.011,0.548 0.479,0.548 h 0.479 v -1.095 m 2.19,0.547 c 0,-0.534 -0.011,-0.547 -0.479,-0.547 -0.468,0 -0.479,0.013 -0.479,0.547 0,0.535 0.011,0.548 0.479,0.548 0.468,0 0.479,-0.013 0.479,-0.548 m -5.475,-1.095 c 0,-0.535 -0.011,-0.548 -0.479,-0.548 -0.468,0 -0.479,0.013 -0.479,0.548 0,0.535 0.011,0.548 0.479,0.548 0.468,0 0.479,-0.013 0.479,-0.548 m 21.079,-1.164 c 0,-0.456 -0.023,-0.479 -0.479,-0.479 -0.457,0 -0.479,0.023 -0.479,0.479 0,0.457 0.022,0.48 0.479,0.48 0.456,0 0.479,-0.023 0.479,-0.48 m -19.984,-1.095 c 0,-0.456 -0.023,-0.479 -0.479,-0.479 -0.456,0 -0.479,0.023 -0.479,0.479 0,0.456 0.023,0.479 0.479,0.479 0.456,0 0.479,-0.023 0.479,-0.479 m 2.19,0 c 0,-0.456 -0.023,-0.479 -0.479,-0.479 -0.456,0 -0.479,0.023 -0.479,0.479 0,0.456 0.023,0.479 0.479,0.479 0.456,0 0.479,-0.023 0.479,-0.479 m 5.612,0 c 0,-0.456 -0.023,-0.479 -0.479,-0.479 -0.456,0 -0.479,0.023 -0.479,0.479 0,0.456 0.023,0.479 0.479,0.479 0.456,0 0.479,-0.023 0.479,-0.479 m 16.698,0 c 0,-0.468 -0.012,-0.479 -0.547,-0.479 -0.534,0 -0.547,0.011 -0.547,0.479 0,0.468 0.013,0.479 0.547,0.479 0.535,0 0.547,-0.011 0.547,-0.479 m -25.595,-1.095 c 0,-0.457 -0.023,-0.48 -0.479,-0.48 -0.456,0 -0.479,0.023 -0.479,0.48 0,0.456 0.023,0.479 0.479,0.479 0.456,0 0.479,-0.023 0.479,-0.479 m 2.19,-0.069 v -0.548 h 0.548 0.547 v -0.547 -0.548 h -0.547 -0.548 v -0.547 -0.548 h 0.548 0.547 v -0.548 -0.548 h -1.027 -1.026 v 2.191 2.191 h 0.479 c 0.468,0 0.479,-0.013 0.479,-0.548 m 15.604,0.069 v -0.48 h -1.643 -1.642 v 0.48 0.479 h 1.642 1.643 v -0.479 m 4.38,-0.617 v -1.095 h 0.616 c 0.61,0 0.616,-0.004 0.616,-0.471 0,-0.457 -0.019,-0.473 -0.582,-0.514 -0.579,-0.041 -0.582,-0.044 -0.624,-0.624 l -0.042,-0.582 h 0.624 0.624 v 0.548 c 0,0.535 0.011,0.548 0.479,0.548 0.467,0 0.479,-0.013 0.479,-0.548 0,-0.534 -0.012,-0.548 -0.479,-0.548 -0.468,0 -0.479,-0.013 -0.479,-0.547 v -0.548 h -0.616 -0.616 v -0.547 -0.548 h -1.027 -1.026 v 0.548 0.547 h -0.548 -0.547 v 0.548 0.547 h 0.547 0.548 v 0.548 0.548 h 0.547 0.548 v 1.164 1.163 h -0.548 c -0.534,0 -0.547,0.012 -0.547,0.48 v 0.479 h 1.026 1.027 v -1.096 m -23.269,-0.547 v -0.548 h -1.027 -1.026 v 0.548 0.547 h 1.026 1.027 v -0.547 m 15.604,0 v -0.548 h 1.095 1.095 v -0.479 c 0,-0.468 -0.013,-0.479 -0.548,-0.479 h -0.547 v -1.712 -1.711 h -0.548 -0.547 v -0.616 -0.616 h 0.547 c 0.535,0 0.548,-0.012 0.548,-0.48 0,-0.467 -0.013,-0.479 -0.548,-0.479 h -0.547 v -0.547 -0.548 h -0.548 -0.547 v 0.548 0.547 h -0.548 -0.547 v 1.096 1.095 h 0.547 c 0.535,0 0.548,0.011 0.548,0.479 0,0.468 0.013,0.479 0.547,0.479 h 0.548 v 0.616 0.616 h -0.548 -0.547 v 0.548 0.548 h 0.547 0.548 v 0.548 0.547 h -0.616 c -0.613,0 -0.616,-0.002 -0.616,-0.479 v -0.479 h -1.027 -1.026 v 0.479 c 0,0.468 0.013,0.479 0.547,0.479 h 0.548 v 0.548 0.547 h 1.095 1.095 v -0.547 m 5.475,-1.027 c 0,-0.456 -0.023,-0.479 -0.479,-0.479 -0.457,0 -0.479,0.023 -0.479,0.479 0,0.456 0.022,0.479 0.479,0.479 0.456,0 0.479,-0.023 0.479,-0.479 m -22.174,-1.164 v -0.548 h -1.095 -1.095 v 0.548 0.548 h 1.095 1.095 v -0.548 m 13.277,0 v -0.548 h -1.027 -1.026 v 0.548 0.548 h 1.026 1.027 v -0.548 m 7.802,0 v -0.548 h -0.548 -0.547 v -0.547 -0.548 h -0.548 -0.547 v 1.095 1.096 h 1.095 1.095 v -0.548 m -27.786,-2.19 v -0.548 h -0.547 -0.548 v -0.616 -0.616 h 0.616 0.616 v 0.616 0.616 h 0.548 0.547 v 0.548 0.547 h -0.616 -0.616 v -0.547 m 27.786,-0.069 c 0,-0.456 -0.023,-0.479 -0.479,-0.479 -0.457,0 -0.479,0.023 -0.479,0.479 0,0.456 0.022,0.479 0.479,0.479 0.456,0 0.479,-0.023 0.479,-0.479 m -17.794,-2.191 c 0,-0.456 -0.023,-0.479 -0.479,-0.479 -0.456,0 -0.479,0.023 -0.479,0.479 0,0.457 0.023,0.48 0.479,0.48 0.456,0 0.479,-0.023 0.479,-0.48 m 19.984,-1.095 v -1.574 h -1.574 -1.574 v 1.574 1.575 h 1.574 1.574 v -1.575 m -31.039,-3.32 0.037,-3.936 3.866,-0.037 3.867,-0.036 v 3.973 3.972 h -3.903 -3.903 l 0.036,-3.936 m 28.849,3.32 v -0.616 h 0.616 0.616 v 0.616 0.616 h -0.616 -0.616 v -0.616 m -22.174,-3.354 v -2.739 h -2.737 -2.738 v 2.739 2.738 h 2.738 2.737 v -2.738 m -4.517,0.068 v -1.711 h 1.711 1.711 v 1.711 1.712 h -1.711 -1.711 v -1.712 m 7.802,1.164 v -0.548 h -0.547 -0.548 v -2.335 -2.336 l 0.582,0.042 c 0.579,0.042 0.582,0.045 0.624,0.624 0.04,0.562 0.058,0.582 0.505,0.582 0.447,0 0.465,-0.02 0.505,-0.582 0.042,-0.579 0.045,-0.582 0.624,-0.624 l 0.582,-0.042 v 0.624 0.624 h 0.547 0.548 v 0.617 0.616 h -0.548 c -0.534,0 -0.547,0.011 -0.547,0.479 0,0.468 -0.013,0.479 -0.548,0.479 h -0.547 v 1.164 1.164 h -0.616 -0.616 v -0.548 m 14.509,-0.068 c 0,-0.468 -0.013,-0.48 -0.548,-0.48 -0.534,0 -0.547,0.012 -0.547,0.48 0,0.467 0.013,0.479 0.547,0.479 0.535,0 0.548,-0.012 0.548,-0.479 m 11.086,-1.088 v -0.624 h 0.624 0.624 l -0.042,0.582 c -0.042,0.579 -0.045,0.582 -0.624,0.624 l -0.582,0.042 v -0.624 m -9.991,-0.076 v -0.548 h -0.548 -0.547 v 0.548 0.547 h 0.547 0.548 v -0.547 m -14.509,-1.027 c 0,-0.457 -0.023,-0.479 -0.479,-0.479 -0.456,0 -0.479,0.022 -0.479,0.479 0,0.456 0.023,0.479 0.479,0.479 0.456,0 0.479,-0.023 0.479,-0.479 m 24.5,-1.088 v -0.624 h 0.624 0.624 l -0.042,0.582 c -0.042,0.579 -0.045,0.582 -0.624,0.624 l -0.582,0.042 v -0.624 m -23.405,-0.076 c 0,-0.535 -0.011,-0.548 -0.479,-0.548 -0.468,0 -0.479,0.013 -0.479,0.548 0,0.535 0.011,0.548 0.479,0.548 0.468,0 0.479,-0.013 0.479,-0.548 m 5.612,0 v -0.548 h -0.548 -0.547 v 0.548 0.548 h 0.547 0.548 v -0.548 m 3.285,0 c 0,-0.535 -0.012,-0.548 -0.479,-0.548 -0.468,0 -0.479,0.013 -0.479,0.548 0,0.535 0.011,0.548 0.479,0.548 0.467,0 0.479,-0.013 0.479,-0.548 m 8.923,-1.13 0.042,-0.581 2.224,-0.038 2.225,-0.038 v 0.62 0.619 h -2.267 -2.266 l 0.042,-0.582"
       style="fill:#000000;fill-opacity:1;fill-rule:nonzero;stroke:none"
       id="path82" /></g></svg>
