<?xml version="1.0" encoding="UTF-8" standalone="no"?>
<svg
   version="1.0"
   width="157.13271mm"
   height="130.43893mm"
   id="svg1045"
   sodipodi:docname="GISAXS.svg"
   inkscape:version="1.1.2 (b8e25be833, 2022-02-05)"
   xmlns:inkscape="http://www.inkscape.org/namespaces/inkscape"
   xmlns:sodipodi="http://sodipodi.sourceforge.net/DTD/sodipodi-0.dtd"
   xmlns="http://www.w3.org/2000/svg"
   xmlns:svg="http://www.w3.org/2000/svg">
  <sodipodi:namedview
     id="namedview1047"
     pagecolor="#ffffff"
     bordercolor="#666666"
     borderopacity="1.0"
     inkscape:pageshadow="2"
     inkscape:pageopacity="0.0"
     inkscape:pagecheckerboard="0"
     inkscape:document-units="mm"
     showgrid="false"
     inkscape:zoom="1.0407384"
     inkscape:cx="346.38868"
     inkscape:cy="365.12538"
     inkscape:window-width="1920"
     inkscape:window-height="1217"
     inkscape:window-x="-8"
     inkscape:window-y="-8"
     inkscape:window-maximized="1"
     inkscape:current-layer="svg1045"
     fit-margin-top="0"
     fit-margin-left="0"
     fit-margin-right="0"
     fit-margin-bottom="0" />
  <defs
     id="defs825">
    <pattern
       id="EMFhbasepattern"
       patternUnits="userSpaceOnUse"
       width="6"
       height="6"
       x="0"
       y="0" />
  </defs>
  <path
     style="fill:none;stroke:#515151;stroke-width:3.4015748;stroke-linecap:round;stroke-linejoin:round;stroke-miterlimit:4;stroke-dasharray:none;stroke-opacity:1"
     d="m 108.98652,30.080248 11.92526,13.077659 7.36153,6.841419 7.00145,3.52073 6.48135,3.800788 6.16127,5.161069 6.00125,4.200871 5.52114,3.800788 5.3211,4.000829 5.16107,3.160656 5.00104,3.680763 4.68097,3.000618 4.52094,3.32069 4.32089,2.36049 4.3209,3.16066 4.00083,2.84059 4.00083,2.32048 3.68076,2.840582 3.8408,2.32049 3.48072,1.84038 3.52073,2.32048 3.32069,2.16045 3.32069,2.52052 3.20066,1.84038 3.00062,1.84038 3.00062,2.00042 3.00063,0.16003 2.80058,3.80079 2.84058,1.84038 2.68056,2.00041 2.84059,1.84038 2.48051,1.68035 2.68056,1.64034 2.48051,2.20046 2.52052,1.64033 2.32049,1.68036 2.36049,2.16045 2.32047,1.16024 2.32049,2.52052 2.16045,1.32027 2.20045,2.16045 2.16045,1.68035 2.16044,1.48031 2.00043,1.68034 2.00041,2.32049 2.00041,1.84038 2.00042,1.52032 2.00041,1.80037 1.84038,2.36048 1.84038,1.48031 1.80037,2.16045 1.84039,1.68034 1.84038,2.16045 1.68035,1.68036 1.84038,2.00041 1.64034,2.00042 1.68035,2.16044 1.68035,1.84038 1.64034,1.84038 1.52031,2.00042 1.64034,2.00041 1.52031,2.48052 1.68036,1.32027 1.4803,3.16066 1.52032,1.52031 1.4803,1.68035 1.52032,2.16045 1.4803,2.16045 1.32028,2.32048 1.52032,1.68035 1.32027,2.16044 1.52031,2.52052 1.32028,1.48031 1.32027,2.32049 1.36028,3.00062 1.32028,1.36027 1.32027,2.00043 1.36028,1.4803 1.16024,3.00062 1.32028,2.16045 1.16023,1.16024 1.36029,1.84038 1.16024,2.52053 1.32028,1.64033 1.16024,2.00042 1.20025,1.84038 1.16023,2.16045 1.16024,1.36028 1.16024,1.80037 1.16025,2.00042 1.16024,1.84038 1.00021,2.00041 1.20024,1.68035 1.00021,1.48031 1.16024,1.52032 1.16024,1.64033 1.0002,2.20046 1.00022,1.48031 1.16023,1.16023 1.00021,2.36049 1.00021,0.48011 1.16024,2.16044 0.84017,2.36049 1.16024,0.32007 0.84017,1.68034 1.16025,0.80017 0.84018,2.52053 1.00021,1.68035 1.0002,1.00021 1.00021,0.32006 1.00021,2.84058 0.84017,-0.20004 1.00021,1.00021 0.84017,2.00041 1.0002,0.68015 0.84018,1.52032 1.0002,0.48009 0.80017,1.84038 0.84018,2.00042 1.00021,0.68014 0.84017,1.32027 0.84017,-0.32006 1.00021,1.32027 0.84017,1.84039 0.84018,2.32047 0.80017,0.52011 0.84017,0.32006 0.84017,0.68015 0.84018,1.16024 0.84017,1.80038 0.84018,1.0002 0.84017,0.36008 0.80017,1.00021 0.84017,1.4803 0.68015,-0.16004 0.84017,1.68036 0.84017,-1.00021 0.64013,2.32047 0.84017,1.32028 0.68015,0.68014 0.84017,0.52011 0.80017,2.32049 0.68014,-2.00042 0.84018,1.68034 0.68013,1.64034 0.80017,-0.84017 0.68014,2.00041 h 0.84018 l 0.68013,0.84018 0.64013,1.52032 0.84019,0.64013 0.68013,0.36007 0.64013,0.64013 0.68015,2.36049 0.84017,0.16004 0.68014,1.32027 0.64014,0.32007 0.68014,1.52032 0.68013,-0.68015 0.64014,2.52052 0.68014,-1.16024 0.68014,2.00042 0.80016,1.0002 0.52011,-0.5201 0.68015,1.32027 0.64013,1.52032 0.68014,0.32007 0.68015,-0.16004 0.64013,2.52052 h 0.68013 l 0.68015,1.00021 0.48009,0.16003 0.68014,1.32028 0.64014,2.84058 0.68014,-1.16024 0.68015,-0.36007 0.48009,1.84038 0.68014,-0.84018 0.68014,1.20026 0.4801,0.16003 0.68015,2.00041 h 0.64013 l 0.5201,2.00041 0.68015,-0.68013 h 0.48009 l 0.68015,7.16148 4.64096,2.32049 h 0.52011 l 0.48009,-1.48032 0.68014,2.68057 0.52011,-1.84039 0.4801,1.16024 0.68015,2.8406 0.48009,-1.00021 0.68015,1.00021 0.48009,1.4803 0.52011,-1.32028 0.68014,0.32007 0.48011,0.68014 0.5201,0.84018 h 0.4801 l 0.52011,-0.84018 0.4801,1.48031 0.68014,0.84017 0.48009,-0.64013 0.52011,2.16045 0.4801,-2.68056 0.52011,5.32111 0.4801,0.20004 0.52011,-2.00042 0.48009,2.64055 0.52012,0.36007 0.4801,-3.84079 0.68014,3.16066 0.32007,0.16002 0.5201,-1.84038 0.48011,0.52011 0.68013,2.16045 0.32007,1.64034 0.5201,-1.48031 0.48011,1.00021 0.5201,-0.84018 0.48011,2.32049 0.5201,1.68034 0.4801,-3.68076 0.52011,1.52031 0.32007,0.16004 0.68013,1.84038 0.32007,-1.00021 0.52011,1.32028 0.4801,1.68035 0.32007,-2.32048 0.68014,-0.36008 0.32007,1.52032 0.5201,-0.36008 0.4801,5.00104 0.36007,-2.16045 0.48011,-2.16045 0.5201,3.16066 0.32007,-1.00021 0.68014,-1.4803 0.32007,1.4803 0.52011,-2.84059 0.32006,2.84059 0.4801,0.84017 0.5201,0.32007 0.32007,0.68014 0.52012,0.52011 0.32006,-2.36049 0.68014,0.84017 h 0.32006 0.52012 l 0.32006,1.68035 0.4801,0.32007 0.36008,-1.32027 0.48009,1.4803 0.36008,-0.16003 0.4801,-0.16003 0.32007,2.68055 0.5201,-2.00041 0.32007,0.64013 0.52011,0.16003 0.32006,0.68014 0.52011,2.52053 0.4801,-0.84018 0.32007,-0.52011 0.52011,-1.32027 0.32006,0.68014 0.36008,-2.20045 0.48009,1.52031 0.32007,1.16024 0.52011,1.68035 0.32006,-1.00021 0.52011,2.32049 0.32006,-3.16066 0.32008,2.00042 0.52011,-1.32028 0.32006,3.48072 0.36007,-2.00041 0.4801,0.84017 0.32007,-1.52032 0.52011,1.68036 0.32006,2.32047 0.36008,-4.32089 0.4801,-0.16003 0.16003,2.48051 0.52011,1.00021 0.4801,-3.64076 0.16003,1.64034 0.52011,1.52032 0.32006,1.32027 0.36008,-1.00021 0.4801,-1.32027 0.32006,1.32027 0.36008,-0.84017 0.32007,2.00041 0.5201,1.52032 0.32007,-3.68077 0.32006,3.3607 0.36008,-1.36028 0.48011,-0.4801 0.16002,-1.00021 0.52011,-0.68013 0.32007,4.16085 0.32006,-0.84017 0.36008,-1.4803 0.32007,-0.16004 0.5201,0.16004 0.32007,0.48009 0.32007,1.52032 0.36007,-1.32028 0.32007,-1.84038 0.32007,2.84059 0.36007,0.32007 0.32007,-2.32048 0.48009,2.64054 0.36008,-0.32006 0.32007,0.68014 0.32006,-4.20087 0.36008,4.84101 0.32007,-2.48052 0.32006,-1.16024 0.36007,2.16045 0.32007,1.32027 0.32006,1.68035 0.52011,-2.36049 0.32007,-0.32006 0.16004,3.16065 0.36007,-4.3209 0.32007,1.84038 0.52011,-0.84017 0.32006,3.64075 0.32007,-1.4803 0.16003,-3.68077 0.36007,3.52074 0.32007,-1.68036 0.52011,-0.64013 0.32006,4.48093 0.32007,-3.00062 0.16004,-0.32007 0.36006,-1.0002 0.32008,3.80078 0.32007,0.52011 0.36006,-1.0002 0.32007,-2.32049 0.32007,-2.52052 0.36007,2.52052 0.32007,-1.0002 h 0.16003 l 0.36008,2.64054 0.32006,-1.64034 0.32007,-1.0002 0.52011,0.16003 0.32006,1.00021 0.16004,-2.68056 0.36008,4.00084 h 0.32006 l 0.32007,-2.32049 0.16003,-0.32007 0.36008,-0.20004 0.32006,3.16066 0.32007,-0.80017 0.36007,-1.36028 0.32006,1.84039 0.32007,-0.84019 0.36008,1.52032 0.32006,0.32007 0.32007,-2.84059 0.20004,1.52032 0.32006,1.32027 0.32007,-1.16024 0.16004,-1.48031 0.36008,3.32069 0.32006,-1.36028 0.32007,-3.80079 0.20004,5.16107 0.32007,-2.52053 0.32006,4.16087 0.36007,-2.16045 0.32007,0.16003 0.16003,-4.3209 0.32007,7.6816 0.36008,-3.68076 0.32006,-1.64035 0.16003,0.32008 0.36008,0.16003 0.32007,-0.84017 0.32006,-2.00043 0.16003,0.52012 0.36008,1.48031 0.32006,-0.16004 0.32007,2.00042 0.20004,-2.68056 0.32007,2.00041 0.32006,0.84018 0.16004,-1.16024 0.36008,1.00021 0.32006,-4.84101 0.16003,2.36049 0.36008,-2.36049 0.32007,4.84101 0.16002,-4.3209 0.32007,3.32069 0.36008,0.16004 0.16003,-2.00043 0.32006,1.00022 0.16004,-4.00084 0.36008,3.52073 0.32007,-2.52052 0.32006,3.16065 0.20004,-1.80037 0.32007,-0.84017 0.32006,0.84017 0.16003,0.80017 h 0.36008 l 0.32007,-2.64055 0.16003,3.84079 0.36007,0.32008 0.16004,-2.32049 h 0.32007 l 0.16002,-2.20045 0.36008,2.20045 0.32007,2.32049 0.16004,-3.16066 0.32006,0.32007 0.20004,-1.16024 0.32007,-0.32007 0.32006,-0.52011 0.16003,-0.4801 0.36008,0.64013 h 0.32007 l 0.16003,1.16024 0.16003,-2.16045 0.36008,2.00042 0.16003,-1.48031 0.32007,-1.36028 0.16003,1.00021 0.36007,1.20025 0.32007,2.64054 0.32006,-3.64075 0.20005,1.16024 0.16003,0.16004 0.32007,0.48009 0.16004,-4.48092 0.36006,2.32047 0.16004,-0.84017 0.32007,0.68015 0.32006,-1.00021 0.20004,3.68076 0.32007,-4.36091 0.16003,2.36049 0.16004,-2.84058 0.36007,0.16003 0.16003,1.52031 0.32007,-3.52073 h 0.32006 l 0.20004,2.00042 0.16004,-2.00042 0.32007,0.84018 0.16003,1.00021 0.16003,-1.16024 0.36008,-0.36008 0.32007,-0.80017 0.16003,-1.36028 0.36008,-0.64013 0.16002,2.80058 0.16004,-1.80037 0.32007,-1.68035 0.16003,0.32006 0.36007,1.36029 0.16004,-3.8408 0.32007,2.84059 0.16003,-0.84017 0.20004,-2.84059 0.32006,1.32027 0.32007,0.84017 0.16004,-2.00041 0.20004,0.84018 0.16002,-2.00043 h 0.32007 l 0.32007,-0.5201 0.20005,-1.48031 0.16002,0.48011 0.16004,0.20004 0.32007,-0.68015 0.16003,-1.32027 0.36007,-0.20004 0.16003,2.20046 0.16004,-2.00042 0.32007,-1.52032 0.20004,0.16004 0.32006,-0.64013 h 0.16004 l 0.16003,-1.84038 0.36008,2.48051 0.16002,-3.00062 0.32007,0.20004 0.16004,-2.84059 0.16003,1.84038 h 0.20004 l 0.32006,0.16004 0.32008,-1.00021 0.16003,-0.36008 0.20004,-1.64033 0.16004,-0.36008 0.32006,1.36028 0.16003,0.16003 0.16004,-0.32006 0.20004,1.64034 0.32006,-1.48031 0.32007,-1.52032 0.16003,0.68014 0.20005,-0.68014 0.16003,1.84038 0.32006,-0.48009 0.16004,-0.68015 0.16003,-0.5201 0.20004,3.20066 0.32006,0.4801 0.16004,1.16024 0.16003,-4.3209 0.36008,4.68098 0.16004,-1.68036 0.32006,-2.52051 0.16003,4.68096 0.16004,-1.68034 0.20004,0.20004 0.32006,1.16024 0.16003,0.64013 0.16004,0.52011 h 0.36007 l 0.16004,2.16044 0.16003,-0.84017 0.16003,-0.84017 h 0.32007 l 0.20004,1.00021 0.16004,2.16045 0.16003,1.5203 0.32006,-0.84017 0.16004,-1.32026 0.20004,4.00082 0.16003,-1.36028 0.32006,1.00021 0.16004,1.52032 0.16003,2.32047 0.20005,-4.16086 0.32007,1.68035 0.16002,2.32048 0.16004,-3.00063 0.36007,4.16087 0.16004,0.68014 0.16003,-1.0002 0.16003,-1.00021 0.16003,1.32027 0.16004,1.36028 0.20004,-3.68076 0.32007,3.68076 0.16002,1.48031 0.16004,-1.68035 0.36008,1.84038 0.16003,-3.84079 0.16004,3.52073 0.16002,0.32006 0.32007,1.84039 0.20004,-0.48011 0.16004,-0.68013 0.16003,0.48009 0.16003,2.68056 0.16003,-2.48052 0.36008,1.32028 0.16004,0.4801 0.16003,-3.16066 0.16004,4.84101 0.32006,-2.68056 0.20004,-0.16004 v -1.84038 l 0.32007,6.00125 0.16003,-3.16066 0.16003,0.36008 0.36008,2.80058 0.16003,-2.48051 0.16004,1.68034 0.16003,2.00041 0.16003,-2.20045 0.16003,3.8408 0.20004,-0.32007 0.32007,-2.68056 0.16004,4.68098 0.16002,-4.16087 0.16004,0.84017 0.20004,0.64015 0.16003,2.16043 0.32007,-0.32006 0.16003,1.68035 0.16003,-2.00042 0.20005,1.32028 0.16003,-3.48073 0.16004,5.64118 0.32006,-3.48073 v -1.68034 l 0.36007,3.68076 0.16004,-0.5201 0.16003,-0.16004 0.16004,-0.84017 0.16002,-0.16004 0.16004,-0.32007 0.20004,2.64055 0.32007,-3.84079 v 2.00041 l 0.32006,2.20046 h 0.16004 l 0.20004,-0.68014 0.16003,-0.16004 0.16004,0.32007 0.16003,1.32027 0.32006,2.00042 v -5.00104 l 0.20004,8.52177 0.32007,-3.52073 0.16004,-1.00021 0.16004,1.68035 0.16002,-2.32048 0.20004,3.00062 0.16004,-1.36028 0.16003,-1.80038 0.16004,0.64013 0.32006,1.00022 0.20004,0.84017 v 0 l 0.32007,-0.32007 0.16003,0.84017 0.16004,0.16004 0.16002,-1.52031 0.20005,2.16044 0.16003,-1.64034 0.16004,1.16024 0.16003,1.68035 0.32006,-1.52031 v -0.48011 l 0.20004,3.00063 0.32007,1.0002 v -2.00041 l 0.32007,-0.5201 0.16003,1.16024 0.20004,-2.16045 0.16004,3.32068 0.16003,1.00021 0.16004,-0.80017 0.16003,-1.0002 0.16003,0.16003 0.20004,-1.52031 h 0.16003 l 0.16004,5.16107 0.16003,-0.16003 0.16004,-3.16066 0.36007,0.84017 v -1.32027 l 0.16003,1.64034 0.32007,3.68076 v -2.00041 l 0.32007,-0.52012 v 1.68036 l 0.20004,-2.84059 0.32006,-0.32007 v 2.00042 l 0.32007,1.68035 0.16004,-2.52053 0.20004,-2.68056 0.16002,7.2015 v 0 l 0.32007,-8.36173 0.16004,4.68097 v 0"
     id="path991"
     sodipodi:nodetypes="ccccccccccccccccccccccccccccccccccccccccccccccccccccccccccccccccccccccccccccccccccccccccccccccccccccccccccccccccccccccccccccccccccccccccccccccccccccccccccccccccccccccccccccccccccccccccccccccccccccccccccccccccccccccccccccccccccccccccccccccccccccccccccccccccccccccccccccccccccccccccccccccccccccccccccccccccccccccccccccccccccccccccccccccccccccccccccccccccccccccccccccccccccccccccccccccccccccccccccccccccccccccccccccccccccccccccccccccccccccccccccccccccccccccccccccccccccccccccccccccccccccccccccccccccccccccccccccccccccccccccccccccccccccccccccccccccccccccccccccccccccccccccccccccccccccccccccccccccccccccccccccccccccccccccccccccccccccccccccccccccccccccccccccccccccccccccccccccccc" />
  <path
     style="fill:none;stroke:#f14040;stroke-width:3.4015748;stroke-linecap:round;stroke-linejoin:round;stroke-miterlimit:4;stroke-dasharray:none;stroke-opacity:1"
     d="m 108.98652,30.080248 4.60311,4.42942 7.83339,6.314673 7.31383,7.153965 6.9941,3.517033 6.47454,3.996628 6.19477,5.155651 5.99494,4.156493 5.47538,3.836763 5.31552,3.676898 5.19562,3.317202 4.99578,3.517033 4.63609,3.157336 4.51619,2.837605 4.31636,2.63778 4.31636,3.15733 3.99663,2.83761 3.99663,2.35801 3.67689,2.47791 3.83677,2.517872 3.47706,2.15818 3.51704,2.15818 3.3172,1.63862 3.35717,2.51788 3.15733,1.99831 2.99747,1.99831 2.99747,1.67859 2.99748,0.15986 2.8376,3.47707 2.79764,1.83845 2.67774,2.15818 2.83761,1.51872 2.47791,1.47875 2.67774,1.83845 2.51788,1.67858 2.4779,1.83845 2.31805,1.31889 2.35801,2.15818 2.31804,0.83929 2.31805,2.31804 2.19814,1.35886 2.15818,1.47875 2.15818,1.67858 2.15818,1.47876 1.99832,1.67858 1.99831,1.67859 1.99831,1.79848 1.99832,1.51872 1.99831,1.67858 1.83845,2.15818 1.83845,1.47875 1.83845,1.67859 1.79848,1.99831 1.83845,1.99831 1.67859,1.83845 1.83845,1.63862 1.63861,1.99832 1.67859,1.67858 1.67858,1.83845 1.63862,1.83845 1.51872,2.15818 1.67858,1.99831 1.47875,1.67858 1.67859,1.79849 1.47875,2.8376 1.51872,1.67859 1.47875,1.67858 1.51872,2.15818 1.47875,2.15818 1.35886,2.15818 1.47875,1.99831 1.31889,1.99832 1.51871,2.31804 1.31889,1.67859 1.35886,2.15818 1.31888,1.99831 1.31889,1.99831 1.35885,2.67774 1.31889,1.31889 1.15902,2.31805 1.31889,2.51787 1.19899,1.99832 1.31889,1.99831 1.15902,1.67858 1.31889,1.79849 1.19898,1.99831 1.15903,2.19815 1.15902,1.79848 1.15902,2.35801 1.15902,1.63862 1.15903,1.67858 1.19898,1.83845 0.99916,1.67859 1.15902,1.99831 0.99916,1.63862 1.15902,1.15902 1.15903,1.99831 0.99915,1.83845 0.99916,1.99832 1.15902,1.35885 0.99916,1.47875 0.99916,1.99832 1.15902,0.51956 0.83929,1.99831 1.15902,1.47876 0.83929,1.67858 1.15903,1.47875 0.83929,1.35886 0.99916,0.99915 0.99915,1.79849 0.99916,0.83929 0.99916,2.67774 0.83929,0.15986 0.99916,1.31889 0.83929,0.51956 0.99915,1.47876 0.8393,1.99831 0.99915,0.67943 0.8393,1.31888 0.79932,1.19899 0.99916,1.31889 0.83929,1.47875 h 0.83929 l 0.99916,1.83845 0.83929,0.51956 0.83929,1.99832 0.8393,0.99915 0.79932,0.99916 0.83929,0.15987 0.8393,0.83929 0.83929,1.79848 0.83929,1.67858 0.83929,0.31973 0.79933,0.99916 0.83929,0.19983 0.67943,1.15903 0.83929,0.99915 0.83929,0.4796 0.63946,0.83929 0.83929,1.31889 0.67943,0.83929 0.83929,0.67943 0.79933,1.47875 0.67942,0.99916 0.8393,0.99915 0.67942,1.83845 0.79933,-0.15986 0.67942,0.31973 0.8393,1.35885 0.67942,0.99916 0.63946,0.83929 0.8393,0.4796 0.67942,1.15902 0.63946,1.35885 0.67943,0.31973 0.83929,0.83929 0.67943,1.47876 h 0.63946 l 0.67943,1.15902 0.67942,0.35969 0.63946,0.4796 0.67943,1.51872 0.67943,0.47959 0.79932,1.67859 0.51956,-0.67943 0.67943,1.35885 h 0.63946 l 0.67943,1.47876 0.67943,0.67942 0.63946,-0.51956 0.67942,1.99832 0.67943,0.83929 0.47959,0.31973 0.67943,1.51872 0.63946,1.31888 0.67943,0.51957 0.67943,0.31973 0.47959,1.67858 0.67943,-0.15986 0.67942,-0.3597 0.4796,0.3597 0.67943,0.47959 0.63946,1.31889 0.51956,2.67774 0.67943,-0.99916 0.47959,2.99747 0.67943,4.67606 4.63609,3.15734 0.51956,-2.67775 h 0.47959 l 0.67943,1.15903 0.51956,1.51872 0.4796,1.31888 0.67943,-0.31973 0.47959,0.31973 0.67943,1.99832 0.47959,-1.83845 0.51956,-0.31973 0.67943,1.15902 0.4796,0.83929 0.51956,1.15902 0.47959,1.15903 0.51957,-1.15903 0.47959,3.99663 0.67943,-1.83845 h 0.47959 l 0.51956,-0.79932 h 0.4796 l 0.51956,3.99663 0.4796,-0.99916 0.51956,0.99916 0.47959,-1.99832 0.51957,2.31805 0.47959,0.83929 0.67943,0.83929 0.31973,-1.67858 0.51956,1.47875 0.4796,-0.79933 0.67942,1.47876 0.31973,-0.15987 0.51956,2.15818 0.4796,0.31973 0.51956,-0.99916 0.4796,0.51956 0.51956,2.15818 0.47959,-1.31888 0.51957,-0.3597 0.31973,0.51956 0.67942,0.31973 0.31973,0.99916 0.51956,1.99831 0.4796,0.8393 0.31973,0.31973 0.67943,-0.79933 h 0.31973 l 0.51956,-0.67943 0.47959,0.67943 0.3597,1.15902 0.4796,0.4796 0.51956,0.67942 0.31973,-1.83844 0.67943,1.67858 0.31973,-0.83929 0.51956,3.15733 0.31973,-3.47706 0.47959,2.47791 0.51956,-0.31973 0.31973,-0.3597 h 0.51957 0.31973 l 0.67942,0.19983 0.31973,3.47707 0.51957,0.83929 h 0.31973 l 0.47959,-1.15902 0.3597,-1.67859 h 0.47959 l 0.3597,3.3172 0.4796,-0.99915 0.31973,-0.63946 0.51956,1.31888 0.31973,-1.83844 0.51956,1.35885 0.31973,-0.67943 0.51956,3.3172 0.4796,-2.8376 0.31973,0.35969 0.51956,2.47791 0.31973,-3.15733 0.3597,2.15818 0.47959,-1.83845 0.31973,2.8376 0.51956,-0.15986 0.31973,-0.67943 0.51956,1.35886 0.31973,-2.35802 0.31974,2.83761 0.51956,-0.47959 0.31973,-0.51957 0.35969,3.51704 0.4796,-2.35801 0.31973,-0.31973 0.51956,2.31804 0.31973,-1.99831 0.3597,-0.63946 0.47959,-0.15987 0.15987,2.15818 0.51956,-0.15987 h 0.4796 l 0.15986,-2.19814 0.51956,4.67605 0.31973,-0.47959 h 0.3597 0.47959 l 0.31973,-0.83929 0.3597,-0.67943 h 0.31973 l 0.51956,0.31973 0.31973,0.3597 0.31973,2.63777 0.3597,-2.63777 0.4796,0.99915 0.15986,0.99916 0.51956,-1.35885 0.31973,-0.4796 0.31973,0.31973 0.3597,1.15902 0.31973,-1.15902 0.51956,0.51956 0.31973,0.99916 0.31973,0.31973 0.3597,2.15818 0.31973,-3.99663 0.31973,1.35886 0.3597,0.15986 0.31973,2.15818 h 0.47959 l 0.3597,-1.15902 0.31973,2.47791 0.31973,-1.31889 0.3597,-1.67858 0.31973,0.15986 0.31973,2.51788 0.35969,-0.15987 0.31973,-2.99747 0.31973,1.99832 0.51956,-1.19899 0.31973,0.51956 0.15987,-0.83929 0.3597,3.15733 0.31973,-1.99831 h 0.51956 l 0.31973,0.51956 0.31973,0.31973 0.15986,0.67943 0.3597,-3.83677 0.31973,0.67943 0.51956,3.7968 0.31973,-2.15818 0.31973,0.83929 0.15987,0.15987 0.35969,-0.4796 0.31974,0.15987 0.31973,1.67858 0.35969,-0.83929 0.31973,-1.99832 0.31973,1.47876 0.3597,-1.99832 0.31973,1.99832 0.15986,2.67774 0.3597,-3.3172 0.31973,2.4779 0.31973,-1.15902 0.51956,1.47876 0.31973,-1.31889 0.15987,-0.15987 0.3597,1.47876 0.31973,-0.31974 0.31973,-1.99831 0.15986,0.99916 0.3597,1.83845 0.31973,-0.31973 0.31973,-0.67943 0.35969,-0.67943 0.31973,1.51872 0.31973,-1.15902 0.3597,0.79933 0.31973,-0.15987 0.31973,-0.15987 0.19983,0.15987 0.31973,-0.31973 0.31973,0.99916 0.15987,-0.8393 h 0.3597 l 0.31973,0.31974 h 0.31973 l 0.19983,1.83844 0.31973,-2.15818 0.31973,-0.47959 0.35969,2.79764 0.31973,-1.31889 0.15987,-1.83845 0.31973,-0.99915 0.3597,0.99915 0.31973,1.67859 0.15986,-3.15734 0.3597,0.99916 0.31973,0.83929 0.31973,1.63862 0.15986,-1.99832 0.3597,1.67859 0.31973,-0.8393 0.31973,2.31805 0.19983,-2.63778 0.31973,-0.99915 0.31973,0.99915 0.15987,-0.99915 0.3597,0.47959 0.31973,-0.99915 0.15986,0.51956 0.3597,0.63946 0.31973,1.99831 0.15986,-0.15986 0.31973,-1.83845 0.3597,0.67942 0.15986,-0.47959 h 0.31973 0.15987 l 0.3597,1.99831 0.31973,-1.19898 0.31973,-2.31805 0.19983,2.31805 0.31973,-2.15818 0.31973,1.51871 0.15986,-0.35969 0.3597,0.19983 0.31973,0.15986 0.15987,-1.67858 0.35969,-0.47959 0.15987,0.79932 0.31973,-0.79932 h 0.15986 l 0.3597,0.15986 0.31973,-1.51872 0.15987,2.15818 0.31973,-1.99831 0.19983,2.35801 0.31973,0.31973 0.31973,-1.83845 0.15986,-1.31889 h 0.3597 l 0.31973,-0.15986 0.15986,1.99831 0.15987,-2.99747 0.3597,4.31636 0.15986,-3.63693 0.31973,-0.19984 0.15987,-0.79932 0.35969,1.63862 0.31973,-0.8393 0.31973,1.99832 0.19984,-1.31889 0.15986,-0.15986 0.31973,-1.67859 0.15987,2.31805 0.35969,-3.7968 0.15987,1.47875 0.31973,-0.99915 0.31973,1.99831 0.19983,-2.47791 0.31973,1.83845 0.15986,-0.3597 0.15987,1.35886 0.3597,-2.51788 h 0.15986 l 0.31973,-0.67943 0.31973,-1.47875 0.19983,-1.31889 0.15987,3.15734 0.31973,-1.99831 0.15986,1.47875 h 0.15987 l 0.3597,-0.83929 0.31973,-2.15818 0.15986,4.15649 0.3597,-2.99747 0.15986,1.51872 0.15987,-1.99832 0.31973,0.67943 0.15986,-1.51872 0.3597,-1.15902 0.15987,-0.83929 0.31973,-0.83929 0.15986,1.67858 0.19983,-2.51788 0.31973,0.19984 h 0.31973 l 0.15987,0.31973 0.19983,-1.15903 0.15986,1.31889 0.31973,-1.67858 h 0.31973 l 0.19984,0.51956 0.15986,-1.51872 0.15987,-0.79933 0.31973,-3.67689 0.15986,4.15649 0.3597,-1.99831 0.15986,0.51956 0.15987,0.47959 0.31973,-1.99831 0.19983,0.51956 0.31973,0.31973 0.15987,-2.15818 0.15986,-0.83929 0.3597,0.31973 0.15986,0.67943 0.31973,-2.99748 0.15987,2.47791 0.15986,-1.63861 0.19983,-0.99916 0.31973,0.15986 0.31974,-0.51956 0.15986,0.83929 0.19983,-0.31973 0.15987,1.47876 0.31973,-1.79849 0.15986,1.47876 0.15987,-1.67859 0.19983,1.67859 0.31973,-1.99832 0.31973,0.67943 0.15986,-0.51956 0.19984,1.15902 0.15986,-0.99916 0.31973,2.19815 0.15987,-1.83845 0.15986,-1.35885 0.19983,2.35801 0.31973,-0.3597 0.15987,-0.4796 0.15986,-0.31973 0.3597,3.15734 h 0.15987 l 0.31973,-0.51956 h 0.15986 l 0.15987,0.83929 h 0.19983 l 0.31973,0.83929 0.15986,0.15987 0.15987,1.31889 0.35969,-2.31805 0.15987,3.99663 0.15986,0.31973 0.15987,-2.63778 0.31973,3.15734 0.19983,-2.51787 0.15987,3.99662 0.15986,-0.15986 0.31973,0.3597 0.15987,0.31973 0.19983,0.99915 0.15986,0.31973 0.31973,-0.15986 0.15987,0.15986 0.15986,0.51956 0.19984,0.99916 0.31973,0.63946 0.15986,-2.31804 0.15987,2.51787 0.35969,-0.67942 0.15987,0.83929 0.15986,-0.3597 h 0.15987 l 0.15986,1.67859 0.15987,0.83929 0.19983,-3.6769 0.31973,3.51703 0.15986,0.4796 0.15987,0.35969 0.3597,-0.67942 0.15986,0.15986 0.15987,0.51956 0.15986,1.47876 0.31973,0.67942 0.19983,-0.15986 0.15987,0.79932 0.15986,-1.31888 0.15987,-0.99916 0.15986,0.15987 0.3597,1.99831 0.15987,-0.63946 0.15986,-0.67943 0.15987,1.83845 0.31973,-0.3597 0.19983,-0.79932 v -0.3597 l 0.31973,3.15734 0.15986,0.83929 0.15987,-1.83845 0.3597,0.99916 0.15986,-1.31889 0.15987,3.6769 0.15986,0.79933 0.15987,-3.99663 0.15986,0.51956 0.19983,2.67774 0.31973,1.47875 0.15987,-0.67942 0.15986,-2.63778 0.15987,2.31804 h 0.19983 l 0.15986,-1.31888 h 0.31973 l 0.15987,-0.51956 0.15986,1.15902 0.19984,-1.15902 0.15986,-0.63946 0.15987,5.31551 0.31973,-2.15818 v -0.99916 l 0.35969,1.31889 0.15987,0.99916 0.15986,-1.15902 0.15987,-1.31889 0.15986,4.15649 0.15987,-1.67858 0.19983,1.15902 0.31973,-3.3172 v 0.4796 l 0.31973,2.35801 0.15987,0.83929 0.19983,-0.3597 0.15986,-0.31973 h 0.15987 l 0.15986,-0.15986 0.31973,-1.83845 v 2.47791 l 0.19983,0.67942 0.31973,-3.15733 0.15987,-0.15987 0.15987,3.47707 0.15986,-0.83929 0.19983,-1.15903 0.15987,3.51704 0.15986,-2.15818 0.15987,1.31889 0.31973,0.31973 0.19983,-2.83761 v 3.1973 l 0.31973,-0.83929 0.15986,-0.67943 0.15987,-0.83929 0.15986,1.15902 0.19984,-1.31888 0.15986,2.8376 0.15987,-3.3172 0.15986,2.63778 0.31973,2.99747 v -2.99747 l 0.19983,0.83929 0.31973,-0.15987 v 0.67943 l 0.31973,0.99916 0.15987,-5.19562 0.19983,5.35548 h 0.15987 l 0.15986,-2.35801 0.15987,-0.63946 0.15986,2.47791 0.15987,-1.15902 0.19983,2.99747 0.15986,-0.67943 0.15987,-0.31973 0.15986,-1.31889 0.15987,-1.67858 0.35969,2.99747 v -0.47959 l 0.15987,1.47875 0.31973,-1.15902 v 0.99915 l 0.31973,-0.15986 v -0.15987 l 0.19983,-0.19983 0.31973,-0.79932 v 2.31804 l 0.31973,-2.67774 0.15987,-0.4796 0.19983,1.63862 0.15986,0.3597 v 0.99916 l 0.31973,0.15986 0.15987,-0.99916 0.15986,4.47623"
     id="path993"
     sodipodi:nodetypes="cccccccccccccccccccccccccccccccccccccccccccccccccccccccccccccccccccccccccccccccccccccccccccccccccccccccccccccccccccccccccccccccccccccccccccccccccccccccccccccccccccccccccccccccccccccccccccccccccccccccccccccccccccccccccccccccccccccccccccccccccccccccccccccccccccccccccccccccccccccccccccccccccccccccccccccccccccccccccccccccccccccccccccccccccccccccccccccccccccccccccccccccccccccccccccccccccccccccccccccccccccccccccccccccccccccccccccccccccccccccccccccccccccccccccccccccccccccccccccccccccccccccccccccccccccccccccccccccccccccccccccccccccccccccccccccccccccccccccccccccccccccccccccccccccccccccccccccccccccccccccccccccccccccccccccccccccccccccccccccccccccccccccccccccccccccccccccccccccc" />
  <path
     style="fill:none;stroke:#000000;stroke-width:3.4015748;stroke-linecap:square;stroke-linejoin:round;stroke-miterlimit:4;stroke-dasharray:none;stroke-opacity:1"
     d="M 108.13423,401.16035 H 569.66487"
     id="path827" />
  <path
     style="fill:none;stroke:#000000;stroke-width:3.40157;stroke-linecap:butt;stroke-linejoin:round;stroke-miterlimit:4;stroke-dasharray:none;stroke-opacity:1"
     d="m 111.81113,396.35607 v 3.6769"
     id="path829" />
  <path
     style="fill:none;stroke:#000000;stroke-width:3.40157;stroke-linecap:butt;stroke-linejoin:round;stroke-miterlimit:4;stroke-dasharray:none;stroke-opacity:1"
     d="m 125.71939,396.35607 v 3.6769"
     id="path831" />
  <path
     style="fill:none;stroke:#000000;stroke-width:3.40157;stroke-linecap:butt;stroke-linejoin:round;stroke-miterlimit:4;stroke-dasharray:none;stroke-opacity:1"
     d="m 219.72009,396.35607 v 3.6769"
     id="path833" />
  <path
     style="fill:none;stroke:#000000;stroke-width:3.40157;stroke-linecap:butt;stroke-linejoin:round;stroke-miterlimit:4;stroke-dasharray:none;stroke-opacity:1"
     d="m 267.51977,396.35607 v 3.6769"
     id="path835" />
  <path
     style="fill:none;stroke:#000000;stroke-width:3.40157;stroke-linecap:butt;stroke-linejoin:round;stroke-miterlimit:4;stroke-dasharray:none;stroke-opacity:1"
     d="m 301.57104,396.35607 v 3.6769"
     id="path837" />
  <path
     style="fill:none;stroke:#000000;stroke-width:3.40157;stroke-linecap:butt;stroke-linejoin:round;stroke-miterlimit:4;stroke-dasharray:none;stroke-opacity:1"
     d="m 327.78892,396.35607 v 3.6769"
     id="path839" />
  <path
     style="fill:none;stroke:#000000;stroke-width:3.40157;stroke-linecap:butt;stroke-linejoin:round;stroke-miterlimit:4;stroke-dasharray:none;stroke-opacity:1"
     d="m 349.21085,396.35607 v 3.6769"
     id="path841" />
  <path
     style="fill:none;stroke:#000000;stroke-width:3.40157;stroke-linecap:butt;stroke-linejoin:round;stroke-miterlimit:4;stroke-dasharray:none;stroke-opacity:1"
     d="m 367.43548,396.35607 v 3.6769"
     id="path843" />
  <path
     style="fill:none;stroke:#000000;stroke-width:3.40157;stroke-linecap:butt;stroke-linejoin:round;stroke-miterlimit:4;stroke-dasharray:none;stroke-opacity:1"
     d="m 383.26213,396.35607 v 3.6769"
     id="path845" />
  <path
     style="fill:none;stroke:#000000;stroke-width:3.40157;stroke-linecap:butt;stroke-linejoin:round;stroke-miterlimit:4;stroke-dasharray:none;stroke-opacity:1"
     d="m 397.17039,396.35607 v 3.6769"
     id="path847" />
  <path
     style="fill:none;stroke:#000000;stroke-width:3.40157;stroke-linecap:butt;stroke-linejoin:round;stroke-miterlimit:4;stroke-dasharray:none;stroke-opacity:1"
     d="m 491.17109,396.35607 v 3.6769"
     id="path849" />
  <path
     style="fill:none;stroke:#000000;stroke-width:3.40157;stroke-linecap:butt;stroke-linejoin:round;stroke-miterlimit:4;stroke-dasharray:none;stroke-opacity:1"
     d="m 538.97077,396.35607 v 3.6769"
     id="path851" />
  <path
     style="fill:none;stroke:#000000;stroke-width:3.40157;stroke-linecap:butt;stroke-linejoin:round;stroke-miterlimit:4;stroke-dasharray:none;stroke-opacity:1"
     d="m 138.18888,392.69281 v 7.3538"
     id="path853" />
  <path
     style="fill:none;stroke:#000000;stroke-width:3.40157;stroke-linecap:butt;stroke-linejoin:round;stroke-miterlimit:4;stroke-dasharray:none;stroke-opacity:1"
     d="m 409.48001,392.69281 v 7.3538"
     id="path855" />
  <path
     style="fill:none;stroke:#000000;stroke-width:3.4015748;stroke-linecap:square;stroke-linejoin:round;stroke-miterlimit:4;stroke-dasharray:none;stroke-opacity:1"
     d="M 108.13423,29.154186 H 569.66487"
     id="path857" />
  <path
     style="fill:none;stroke:#000000;stroke-width:3.4015748;stroke-linecap:square;stroke-linejoin:round;stroke-miterlimit:4;stroke-dasharray:none;stroke-opacity:1"
     d="M 108.13423,401.16035 V 29.154186"
     id="path859" />
  <path
     style="fill:none;stroke:#000000;stroke-width:3.40157;stroke-linecap:butt;stroke-linejoin:round;stroke-miterlimit:4;stroke-dasharray:none;stroke-opacity:1"
     d="m 112.93851,392.84737 h -3.51703"
     id="path861" />
  <path
     style="fill:none;stroke:#000000;stroke-width:3.40157;stroke-linecap:butt;stroke-linejoin:round;stroke-miterlimit:4;stroke-dasharray:none;stroke-opacity:1"
     d="m 112.93851,382.93573 h -3.51703"
     id="path863" />
  <path
     style="fill:none;stroke:#000000;stroke-width:3.40157;stroke-linecap:butt;stroke-linejoin:round;stroke-miterlimit:4;stroke-dasharray:none;stroke-opacity:1"
     d="m 112.93851,374.78261 h -3.51703"
     id="path865" />
  <path
     style="fill:none;stroke:#000000;stroke-width:3.40157;stroke-linecap:butt;stroke-linejoin:round;stroke-miterlimit:4;stroke-dasharray:none;stroke-opacity:1"
     d="m 112.93851,367.90841 h -3.51703"
     id="path867" />
  <path
     style="fill:none;stroke:#000000;stroke-width:3.40157;stroke-linecap:butt;stroke-linejoin:round;stroke-miterlimit:4;stroke-dasharray:none;stroke-opacity:1"
     d="m 112.93851,362.15326 h -3.51703"
     id="path869" />
  <path
     style="fill:none;stroke:#000000;stroke-width:3.40157;stroke-linecap:butt;stroke-linejoin:round;stroke-miterlimit:4;stroke-dasharray:none;stroke-opacity:1"
     d="m 112.93851,356.87771 h -3.51703"
     id="path871" />
  <path
     style="fill:none;stroke:#000000;stroke-width:3.40157;stroke-linecap:butt;stroke-linejoin:round;stroke-miterlimit:4;stroke-dasharray:none;stroke-opacity:1"
     d="m 112.93851,321.54752 h -3.51703"
     id="path873" />
  <path
     style="fill:none;stroke:#000000;stroke-width:3.40157;stroke-linecap:butt;stroke-linejoin:round;stroke-miterlimit:4;stroke-dasharray:none;stroke-opacity:1"
     d="m 112.93851,303.48276 h -3.51703"
     id="path875" />
  <path
     style="fill:none;stroke:#000000;stroke-width:3.40157;stroke-linecap:butt;stroke-linejoin:round;stroke-miterlimit:4;stroke-dasharray:none;stroke-opacity:1"
     d="m 112.93851,290.69355 h -3.51703"
     id="path877" />
  <path
     style="fill:none;stroke:#000000;stroke-width:3.40157;stroke-linecap:butt;stroke-linejoin:round;stroke-miterlimit:4;stroke-dasharray:none;stroke-opacity:1"
     d="m 112.93851,280.78191 h -3.51703"
     id="path879" />
  <path
     style="fill:none;stroke:#000000;stroke-width:3.40157;stroke-linecap:butt;stroke-linejoin:round;stroke-miterlimit:4;stroke-dasharray:none;stroke-opacity:1"
     d="m 112.93851,272.62879 h -3.51703"
     id="path881" />
  <path
     style="fill:none;stroke:#000000;stroke-width:3.40157;stroke-linecap:butt;stroke-linejoin:round;stroke-miterlimit:4;stroke-dasharray:none;stroke-opacity:1"
     d="m 112.93851,265.91445 h -3.51703"
     id="path883" />
  <path
     style="fill:none;stroke:#000000;stroke-width:3.40157;stroke-linecap:butt;stroke-linejoin:round;stroke-miterlimit:4;stroke-dasharray:none;stroke-opacity:1"
     d="m 112.93851,259.83958 h -3.51703"
     id="path885" />
  <path
     style="fill:none;stroke:#000000;stroke-width:3.40157;stroke-linecap:butt;stroke-linejoin:round;stroke-miterlimit:4;stroke-dasharray:none;stroke-opacity:1"
     d="m 112.93851,254.72389 h -3.51703"
     id="path887" />
  <path
     style="fill:none;stroke:#000000;stroke-width:3.40157;stroke-linecap:butt;stroke-linejoin:round;stroke-miterlimit:4;stroke-dasharray:none;stroke-opacity:1"
     d="m 112.93851,219.23383 h -3.51703"
     id="path889" />
  <path
     style="fill:none;stroke:#000000;stroke-width:3.40157;stroke-linecap:butt;stroke-linejoin:round;stroke-miterlimit:4;stroke-dasharray:none;stroke-opacity:1"
     d="m 112.93851,201.32894 h -3.51703"
     id="path891" />
  <path
     style="fill:none;stroke:#000000;stroke-width:3.40157;stroke-linecap:butt;stroke-linejoin:round;stroke-miterlimit:4;stroke-dasharray:none;stroke-opacity:1"
     d="m 112.93851,188.53973 h -3.51703"
     id="path893" />
  <path
     style="fill:none;stroke:#000000;stroke-width:3.40157;stroke-linecap:butt;stroke-linejoin:round;stroke-miterlimit:4;stroke-dasharray:none;stroke-opacity:1"
     d="m 112.93851,178.62809 h -3.51703"
     id="path895" />
  <path
     style="fill:none;stroke:#000000;stroke-width:3.40157;stroke-linecap:butt;stroke-linejoin:round;stroke-miterlimit:4;stroke-dasharray:none;stroke-opacity:1"
     d="m 112.93851,170.47497 h -3.51703"
     id="path897" />
  <path
     style="fill:none;stroke:#000000;stroke-width:3.40157;stroke-linecap:butt;stroke-linejoin:round;stroke-miterlimit:4;stroke-dasharray:none;stroke-opacity:1"
     d="m 112.93851,163.60077 h -3.51703"
     id="path899" />
  <path
     style="fill:none;stroke:#000000;stroke-width:3.40157;stroke-linecap:butt;stroke-linejoin:round;stroke-miterlimit:4;stroke-dasharray:none;stroke-opacity:1"
     d="m 112.93851,157.84562 h -3.51703"
     id="path901" />
  <path
     style="fill:none;stroke:#000000;stroke-width:3.40157;stroke-linecap:butt;stroke-linejoin:round;stroke-miterlimit:4;stroke-dasharray:none;stroke-opacity:1"
     d="m 112.93851,152.57007 h -3.51703"
     id="path903" />
  <path
     style="fill:none;stroke:#000000;stroke-width:3.40157;stroke-linecap:butt;stroke-linejoin:round;stroke-miterlimit:4;stroke-dasharray:none;stroke-opacity:1"
     d="m 112.93851,117.08001 h -3.51703"
     id="path905" />
  <path
     style="fill:none;stroke:#000000;stroke-width:3.40157;stroke-linecap:butt;stroke-linejoin:round;stroke-miterlimit:4;stroke-dasharray:none;stroke-opacity:1"
     d="m 112.93851,99.015248 h -3.51703"
     id="path907" />
  <path
     style="fill:none;stroke:#000000;stroke-width:3.40157;stroke-linecap:butt;stroke-linejoin:round;stroke-miterlimit:4;stroke-dasharray:none;stroke-opacity:1"
     d="m 112.93851,86.226038 h -3.51703"
     id="path909" />
  <path
     style="fill:none;stroke:#000000;stroke-width:3.40157;stroke-linecap:butt;stroke-linejoin:round;stroke-miterlimit:4;stroke-dasharray:none;stroke-opacity:1"
     d="m 112.93851,76.314401 h -3.51703"
     id="path911" />
  <path
     style="fill:none;stroke:#000000;stroke-width:3.40157;stroke-linecap:butt;stroke-linejoin:round;stroke-miterlimit:4;stroke-dasharray:none;stroke-opacity:1"
     d="m 112.93851,68.161279 h -3.51703"
     id="path913" />
  <path
     style="fill:none;stroke:#000000;stroke-width:3.40157;stroke-linecap:butt;stroke-linejoin:round;stroke-miterlimit:4;stroke-dasharray:none;stroke-opacity:1"
     d="m 112.93851,61.446943 h -3.51703"
     id="path915" />
  <path
     style="fill:none;stroke:#000000;stroke-width:3.40157;stroke-linecap:butt;stroke-linejoin:round;stroke-miterlimit:4;stroke-dasharray:none;stroke-opacity:1"
     d="m 112.93851,55.531933 h -3.51703"
     id="path917" />
  <path
     style="fill:none;stroke:#000000;stroke-width:3.40157;stroke-linecap:butt;stroke-linejoin:round;stroke-miterlimit:4;stroke-dasharray:none;stroke-opacity:1"
     d="m 112.90701,50.256384 h -3.51704"
     id="path919" />
  <path
     style="fill:none;stroke:#000000;stroke-width:3.40157;stroke-linecap:butt;stroke-linejoin:round;stroke-miterlimit:4;stroke-dasharray:none;stroke-opacity:1"
     d="M 116.08837,352.08176 H 109.0543"
     id="path921" />
  <path
     style="fill:none;stroke:#000000;stroke-width:3.40157;stroke-linecap:butt;stroke-linejoin:round;stroke-miterlimit:4;stroke-dasharray:none;stroke-opacity:1"
     d="M 116.08837,250.0878 H 109.0543"
     id="path923" />
  <path
     style="fill:none;stroke:#000000;stroke-width:3.40157;stroke-linecap:butt;stroke-linejoin:round;stroke-miterlimit:4;stroke-dasharray:none;stroke-opacity:1"
     d="M 116.08837,147.77412 H 109.0543"
     id="path925" />
  <path
     style="fill:none;stroke:#000000;stroke-width:3.40157;stroke-linecap:butt;stroke-linejoin:round;stroke-miterlimit:4;stroke-dasharray:none;stroke-opacity:1"
     d="m 115.65622,45.620295 h -7.03406"
     id="path927" />
  <path
     style="fill:none;stroke:#000000;stroke-width:3.4015748;stroke-linecap:square;stroke-linejoin:round;stroke-miterlimit:4;stroke-dasharray:none;stroke-opacity:1"
     d="M 569.66487,401.16035 V 29.154186"
     id="path929" />
  <text
     xml:space="preserve"
     style="font-style:normal;font-variant:normal;font-weight:400;font-size:24px;line-height:125%;font-family:Arial;text-align:start;letter-spacing:0px;word-spacing:0px;text-anchor:start;fill:#000000;fill-opacity:1;stroke:none"
     x="124.19411"
     y="428.64301"
     id="text935"><tspan
       sodipodi:role="line"
       x="124.19411"
       y="428.64301"
       id="tspan933"
       style="font-style:normal;font-variant:normal;font-weight:normal;font-stretch:normal;font-size:24px;font-family:Bahnschrift;-inkscape-font-specification:Bahnschrift"><tspan
         dx="0"
         dy="0"
         style="font-style:normal;font-variant:normal;font-weight:normal;font-stretch:normal;font-size:24px;font-family:Bahnschrift;-inkscape-font-specification:Bahnschrift;fill:#000000"
         id="tspan931"
         rotate="0 0 0 0">0.1</tspan></tspan></text>
  <text
     xml:space="preserve"
     style="font-style:normal;font-variant:normal;font-weight:400;font-size:24px;line-height:125%;font-family:Arial;text-align:start;letter-spacing:0px;word-spacing:0px;text-anchor:start;fill:#000000;fill-opacity:1;stroke:none"
     x="405.69"
     y="426.09515"
     id="text941"><tspan
       sodipodi:role="line"
       x="405.69"
       y="426.09515"
       id="tspan939"
       style="font-style:normal;font-variant:normal;font-weight:normal;font-stretch:normal;font-size:24px;font-family:Bahnschrift;-inkscape-font-specification:Bahnschrift"><tspan
         dx="0"
         dy="0"
         style="font-style:normal;font-variant:normal;font-weight:normal;font-stretch:normal;font-size:24px;font-family:Bahnschrift;-inkscape-font-specification:Bahnschrift;fill:#000000"
         id="tspan937">1</tspan></tspan></text>
  <text
     xml:space="preserve"
     style="font-style:normal;font-variant:normal;font-weight:400;font-size:16px;line-height:125%;font-family:Arial;text-align:start;letter-spacing:0px;word-spacing:0px;text-anchor:start;fill:#000000;fill-opacity:1;stroke:none"
     x="30.186714"
     y="318.26529"
     id="text947"><tspan
       sodipodi:role="line"
       x="-5.7259941"
       y="1.9608562"
       id="tspan945"><tspan
         style="font-style:normal;font-variant:normal;font-weight:400;font-size:16px;font-family:Arial;fill:#000000"
         id="tspan943" /></tspan></text>
  <text
     xml:space="preserve"
     style="font-style:normal;font-variant:normal;font-weight:400;font-size:24px;line-height:125%;font-family:Arial;text-align:start;letter-spacing:0px;word-spacing:0px;text-anchor:start;fill:#000000;fill-opacity:1;stroke:none"
     x="66.959625"
     y="57.142941"
     id="text959-0-8"><tspan
       sodipodi:role="line"
       x="66.959625"
       y="57.142941"
       id="tspan957-7-4"
       style="font-style:normal;font-variant:normal;font-weight:normal;font-stretch:normal;font-size:24px;font-family:Bahnschrift;-inkscape-font-specification:Bahnschrift"><tspan
         dx="0"
         dy="0"
         style="font-style:normal;font-variant:normal;font-weight:normal;font-stretch:normal;font-size:24px;font-family:Bahnschrift;-inkscape-font-specification:Bahnschrift;fill:#000000"
         id="tspan955-3-4">10<tspan
   style="font-size:65%;baseline-shift:super"
   id="tspan8430">11</tspan></tspan></tspan></text>
  <text
     xml:space="preserve"
     style="font-style:normal;font-variant:normal;font-weight:400;font-size:24px;line-height:125%;font-family:Arial;text-align:start;letter-spacing:0px;word-spacing:0px;text-anchor:start;fill:#000000;fill-opacity:1;stroke:none"
     x="67.032349"
     y="157.54018"
     id="text959-0-8-7"><tspan
       sodipodi:role="line"
       x="67.032349"
       y="157.54018"
       id="tspan957-7-4-7"
       style="font-style:normal;font-variant:normal;font-weight:normal;font-stretch:normal;font-size:24px;font-family:Bahnschrift;-inkscape-font-specification:Bahnschrift"><tspan
         dx="0"
         dy="0"
         style="font-style:normal;font-variant:normal;font-weight:normal;font-stretch:normal;font-size:24px;font-family:Bahnschrift;-inkscape-font-specification:Bahnschrift;fill:#000000"
         id="tspan955-3-4-0">10<tspan
   style="font-size:65%;baseline-shift:super"
   id="tspan8430-1">10</tspan></tspan></tspan></text>
  <text
     xml:space="preserve"
     style="font-style:normal;font-variant:normal;font-weight:400;font-size:24px;line-height:125%;font-family:Arial;text-align:start;letter-spacing:0px;word-spacing:0px;text-anchor:start;fill:#000000;fill-opacity:1;stroke:none"
     x="72.557266"
     y="260.83221"
     id="text959-0-8-7-9"><tspan
       sodipodi:role="line"
       x="72.557266"
       y="260.83221"
       id="tspan957-7-4-7-8"
       style="font-style:normal;font-variant:normal;font-weight:normal;font-stretch:normal;font-size:24px;font-family:Bahnschrift;-inkscape-font-specification:Bahnschrift"><tspan
         dx="0"
         dy="0"
         style="font-style:normal;font-variant:normal;font-weight:normal;font-stretch:normal;font-size:24px;font-family:Bahnschrift;-inkscape-font-specification:Bahnschrift;fill:#000000"
         id="tspan955-3-4-0-8">10<tspan
   style="font-size:65%;baseline-shift:super"
   id="tspan8430-1-9">9</tspan></tspan></tspan></text>
  <text
     xml:space="preserve"
     style="font-style:normal;font-variant:normal;font-weight:400;font-size:24px;line-height:125%;font-family:Arial;text-align:start;letter-spacing:0px;word-spacing:0px;text-anchor:start;fill:#000000;fill-opacity:1;stroke:none"
     x="72.071945"
     y="362.74008"
     id="text959-0-8-7-9-2"><tspan
       sodipodi:role="line"
       x="72.071945"
       y="362.74008"
       id="tspan957-7-4-7-8-1"
       style="font-style:normal;font-variant:normal;font-weight:normal;font-stretch:normal;font-size:24px;font-family:Bahnschrift;-inkscape-font-specification:Bahnschrift"><tspan
         dx="0"
         dy="0"
         style="font-style:normal;font-variant:normal;font-weight:normal;font-stretch:normal;font-size:24px;font-family:Bahnschrift;-inkscape-font-specification:Bahnschrift;fill:#000000"
         id="tspan955-3-4-0-8-3">10<tspan
   style="font-size:65%;baseline-shift:super"
   id="tspan8430-1-9-3">8</tspan></tspan></tspan></text>
  <text
     xml:space="preserve"
     style="font-style:normal;font-variant:normal;font-weight:400;font-size:46.1072px;line-height:125%;font-family:Arial;text-align:start;letter-spacing:0px;word-spacing:0px;text-anchor:start;fill:#000000;fill-opacity:1;stroke:none;stroke-width:1.15268"
     transform="rotate(-90)"
     x="-408.07883"
     y="50.568172"
     id="text999"><tspan
       sodipodi:role="line"
       x="-408.07883"
       y="50.568172"
       id="tspan997"
       style="font-style:normal;font-variant:normal;font-weight:normal;font-stretch:normal;font-size:46.1072px;font-family:Bahnschrift;-inkscape-font-specification:Bahnschrift;stroke-width:1.15268"><tspan
         dx="0"
         dy="0"
         style="font-style:normal;font-variant:normal;font-weight:normal;font-stretch:normal;font-size:46.1072px;font-family:Bahnschrift;-inkscape-font-specification:Bahnschrift;fill:#000000;stroke-width:1.15268"
         id="tspan995">Intensity /arb. units</tspan></tspan></text>
  <text
     xml:space="preserve"
     style="font-style:normal;font-variant:normal;font-weight:400;font-size:38.4227px;line-height:125%;font-family:Arial;text-align:start;letter-spacing:0px;word-spacing:0px;text-anchor:start;fill:#000000;fill-opacity:1;stroke:none;stroke-width:1.15268"
     x="233.87961"
     y="467.04691"
     id="text1005"><tspan
       sodipodi:role="line"
       x="233.87961"
       y="467.04691"
       id="tspan1003"
       style="font-style:normal;font-variant:normal;font-weight:normal;font-stretch:normal;font-size:38.4227px;font-family:Bahnschrift;-inkscape-font-specification:Bahnschrift;stroke-width:1.15268"><tspan
         dx="0"
         dy="0"
         style="font-style:normal;font-variant:normal;font-weight:normal;font-stretch:normal;font-size:38.4227px;font-family:Bahnschrift;-inkscape-font-specification:Bahnschrift;fill:#000000;stroke-width:1.15268"
         id="tspan1001"><tspan
           style="font-size:46.1072px;stroke-width:1.15268"
           id="tspan20183">q /nm</tspan><tspan
           style="font-style:normal;font-variant:normal;font-weight:normal;font-stretch:normal;font-size:29.2012px;font-family:Bahnschrift;-inkscape-font-specification:Bahnschrift;baseline-shift:super;stroke-width:1.15268"
           id="tspan14887">-1</tspan></tspan></tspan></text>
  <g
     id="g1978"
     transform="matrix(1.9491134,0,0,1.9491134,-303.29746,-68.582401)"
     style="stroke-width:2.29216;stroke-miterlimit:4;stroke-dasharray:none">
    <path
       style="fill:none;stroke:#515151;stroke-width:2.29216;stroke-linecap:round;stroke-linejoin:round;stroke-miterlimit:4;stroke-dasharray:none;stroke-opacity:1"
       d="m 332.12285,209.66437 21.94334,-21.41361"
       id="path1029"
       sodipodi:nodetypes="cc" />
    <text
       xml:space="preserve"
       style="font-style:normal;font-variant:normal;font-weight:400;font-size:17.9694px;line-height:125%;font-family:Arial;text-align:start;letter-spacing:0px;word-spacing:0px;text-anchor:start;fill:#000000;fill-opacity:1;stroke:none;stroke-width:2.29216;stroke-miterlimit:4;stroke-dasharray:none"
       x="266.48572"
       y="215.34122"
       id="text1035"><tspan
         sodipodi:role="line"
         x="266.48572"
         y="215.34122"
         id="tspan1033"
         style="font-style:normal;font-variant:normal;font-weight:normal;font-stretch:normal;font-size:17.9694px;font-family:Bahnschrift;-inkscape-font-specification:Bahnschrift;stroke-width:2.29216;stroke-miterlimit:4;stroke-dasharray:none">Pristine</tspan></text>
    <path
       style="fill:none;stroke:#f14040;stroke-width:2.29216;stroke-linecap:round;stroke-linejoin:round;stroke-miterlimit:4;stroke-dasharray:none;stroke-opacity:1"
       d="M 330.84518,152.75041 352.7195,131.23223"
       id="path1037"
       sodipodi:nodetypes="cc" />
    <text
       xml:space="preserve"
       style="font-style:normal;font-variant:normal;font-weight:400;font-size:17.9694px;line-height:125%;font-family:Arial;text-align:start;letter-spacing:0px;word-spacing:0px;text-anchor:start;fill:#000000;fill-opacity:1;stroke:none;stroke-width:2.29216;stroke-miterlimit:4;stroke-dasharray:none"
       x="356.49399"
       y="137.33157"
       id="text1043"><tspan
         sodipodi:role="line"
         x="356.49399"
         y="137.33157"
         id="tspan1041"
         style="font-style:normal;font-variant:normal;font-weight:normal;font-stretch:normal;font-size:17.9694px;font-family:Bahnschrift;-inkscape-font-specification:Bahnschrift;stroke-width:2.29216;stroke-miterlimit:4;stroke-dasharray:none">Annealed</tspan></text>
  </g>
  <path
     style="fill:none;stroke:#000000;stroke-width:3.40157;stroke-linecap:butt;stroke-linejoin:round;stroke-miterlimit:4;stroke-dasharray:none;stroke-opacity:1"
     d="m 564.57698,392.84737 h 3.51703"
     id="path1052" />
  <path
     style="fill:none;stroke:#000000;stroke-width:3.40157;stroke-linecap:butt;stroke-linejoin:round;stroke-miterlimit:4;stroke-dasharray:none;stroke-opacity:1"
     d="m 564.57698,382.93573 h 3.51703"
     id="path1054" />
  <path
     style="fill:none;stroke:#000000;stroke-width:3.40157;stroke-linecap:butt;stroke-linejoin:round;stroke-miterlimit:4;stroke-dasharray:none;stroke-opacity:1"
     d="m 564.57698,374.78261 h 3.51703"
     id="path1056" />
  <path
     style="fill:none;stroke:#000000;stroke-width:3.40157;stroke-linecap:butt;stroke-linejoin:round;stroke-miterlimit:4;stroke-dasharray:none;stroke-opacity:1"
     d="m 564.57698,367.90841 h 3.51703"
     id="path1058" />
  <path
     style="fill:none;stroke:#000000;stroke-width:3.40157;stroke-linecap:butt;stroke-linejoin:round;stroke-miterlimit:4;stroke-dasharray:none;stroke-opacity:1"
     d="m 564.57698,362.15326 h 3.51703"
     id="path1060" />
  <path
     style="fill:none;stroke:#000000;stroke-width:3.40157;stroke-linecap:butt;stroke-linejoin:round;stroke-miterlimit:4;stroke-dasharray:none;stroke-opacity:1"
     d="m 564.57698,356.87771 h 3.51703"
     id="path1062" />
  <path
     style="fill:none;stroke:#000000;stroke-width:3.40157;stroke-linecap:butt;stroke-linejoin:round;stroke-miterlimit:4;stroke-dasharray:none;stroke-opacity:1"
     d="m 564.57698,321.54752 h 3.51703"
     id="path1064" />
  <path
     style="fill:none;stroke:#000000;stroke-width:3.40157;stroke-linecap:butt;stroke-linejoin:round;stroke-miterlimit:4;stroke-dasharray:none;stroke-opacity:1"
     d="m 564.57698,303.48276 h 3.51703"
     id="path1066" />
  <path
     style="fill:none;stroke:#000000;stroke-width:3.40157;stroke-linecap:butt;stroke-linejoin:round;stroke-miterlimit:4;stroke-dasharray:none;stroke-opacity:1"
     d="m 564.57698,290.69355 h 3.51703"
     id="path1068" />
  <path
     style="fill:none;stroke:#000000;stroke-width:3.40157;stroke-linecap:butt;stroke-linejoin:round;stroke-miterlimit:4;stroke-dasharray:none;stroke-opacity:1"
     d="m 564.57698,280.78191 h 3.51703"
     id="path1070" />
  <path
     style="fill:none;stroke:#000000;stroke-width:3.40157;stroke-linecap:butt;stroke-linejoin:round;stroke-miterlimit:4;stroke-dasharray:none;stroke-opacity:1"
     d="m 564.57698,272.62879 h 3.51703"
     id="path1072" />
  <path
     style="fill:none;stroke:#000000;stroke-width:3.40157;stroke-linecap:butt;stroke-linejoin:round;stroke-miterlimit:4;stroke-dasharray:none;stroke-opacity:1"
     d="m 564.57698,265.91445 h 3.51703"
     id="path1074" />
  <path
     style="fill:none;stroke:#000000;stroke-width:3.40157;stroke-linecap:butt;stroke-linejoin:round;stroke-miterlimit:4;stroke-dasharray:none;stroke-opacity:1"
     d="m 564.57698,259.83958 h 3.51703"
     id="path1076" />
  <path
     style="fill:none;stroke:#000000;stroke-width:3.40157;stroke-linecap:butt;stroke-linejoin:round;stroke-miterlimit:4;stroke-dasharray:none;stroke-opacity:1"
     d="m 564.57698,254.72389 h 3.51703"
     id="path1078" />
  <path
     style="fill:none;stroke:#000000;stroke-width:3.40157;stroke-linecap:butt;stroke-linejoin:round;stroke-miterlimit:4;stroke-dasharray:none;stroke-opacity:1"
     d="m 564.57698,219.23383 h 3.51703"
     id="path1080" />
  <path
     style="fill:none;stroke:#000000;stroke-width:3.40157;stroke-linecap:butt;stroke-linejoin:round;stroke-miterlimit:4;stroke-dasharray:none;stroke-opacity:1"
     d="m 564.57698,201.32894 h 3.51703"
     id="path1082" />
  <path
     style="fill:none;stroke:#000000;stroke-width:3.40157;stroke-linecap:butt;stroke-linejoin:round;stroke-miterlimit:4;stroke-dasharray:none;stroke-opacity:1"
     d="m 564.57698,188.53973 h 3.51703"
     id="path1084" />
  <path
     style="fill:none;stroke:#000000;stroke-width:3.40157;stroke-linecap:butt;stroke-linejoin:round;stroke-miterlimit:4;stroke-dasharray:none;stroke-opacity:1"
     d="m 564.57698,178.62809 h 3.51703"
     id="path1086" />
  <path
     style="fill:none;stroke:#000000;stroke-width:3.40157;stroke-linecap:butt;stroke-linejoin:round;stroke-miterlimit:4;stroke-dasharray:none;stroke-opacity:1"
     d="m 564.57698,170.47497 h 3.51703"
     id="path1088" />
  <path
     style="fill:none;stroke:#000000;stroke-width:3.40157;stroke-linecap:butt;stroke-linejoin:round;stroke-miterlimit:4;stroke-dasharray:none;stroke-opacity:1"
     d="m 564.57698,163.60077 h 3.51703"
     id="path1090" />
  <path
     style="fill:none;stroke:#000000;stroke-width:3.40157;stroke-linecap:butt;stroke-linejoin:round;stroke-miterlimit:4;stroke-dasharray:none;stroke-opacity:1"
     d="m 564.57698,157.84562 h 3.51703"
     id="path1092" />
  <path
     style="fill:none;stroke:#000000;stroke-width:3.40157;stroke-linecap:butt;stroke-linejoin:round;stroke-miterlimit:4;stroke-dasharray:none;stroke-opacity:1"
     d="m 564.57698,152.57007 h 3.51703"
     id="path1094" />
  <path
     style="fill:none;stroke:#000000;stroke-width:3.40157;stroke-linecap:butt;stroke-linejoin:round;stroke-miterlimit:4;stroke-dasharray:none;stroke-opacity:1"
     d="m 564.57698,117.08001 h 3.51703"
     id="path1096" />
  <path
     style="fill:none;stroke:#000000;stroke-width:3.40157;stroke-linecap:butt;stroke-linejoin:round;stroke-miterlimit:4;stroke-dasharray:none;stroke-opacity:1"
     d="m 564.57698,99.015248 h 3.51703"
     id="path1098" />
  <path
     style="fill:none;stroke:#000000;stroke-width:3.40157;stroke-linecap:butt;stroke-linejoin:round;stroke-miterlimit:4;stroke-dasharray:none;stroke-opacity:1"
     d="m 564.57698,86.226038 h 3.51703"
     id="path1100" />
  <path
     style="fill:none;stroke:#000000;stroke-width:3.40157;stroke-linecap:butt;stroke-linejoin:round;stroke-miterlimit:4;stroke-dasharray:none;stroke-opacity:1"
     d="m 564.57698,76.314401 h 3.51703"
     id="path1102" />
  <path
     style="fill:none;stroke:#000000;stroke-width:3.40157;stroke-linecap:butt;stroke-linejoin:round;stroke-miterlimit:4;stroke-dasharray:none;stroke-opacity:1"
     d="m 564.57698,68.161279 h 3.51703"
     id="path1104" />
  <path
     style="fill:none;stroke:#000000;stroke-width:3.40157;stroke-linecap:butt;stroke-linejoin:round;stroke-miterlimit:4;stroke-dasharray:none;stroke-opacity:1"
     d="m 564.57698,61.446943 h 3.51703"
     id="path1106" />
  <path
     style="fill:none;stroke:#000000;stroke-width:3.40157;stroke-linecap:butt;stroke-linejoin:round;stroke-miterlimit:4;stroke-dasharray:none;stroke-opacity:1"
     d="m 564.57698,55.531933 h 3.51703"
     id="path1108" />
  <path
     style="fill:none;stroke:#000000;stroke-width:3.40157;stroke-linecap:butt;stroke-linejoin:round;stroke-miterlimit:4;stroke-dasharray:none;stroke-opacity:1"
     d="m 564.60848,50.256384 h 3.51704"
     id="path1110" />
  <path
     style="fill:none;stroke:#000000;stroke-width:3.40157;stroke-linecap:butt;stroke-linejoin:round;stroke-miterlimit:4;stroke-dasharray:none;stroke-opacity:1"
     d="m 561.42712,352.08176 h 7.03407"
     id="path1112" />
  <path
     style="fill:none;stroke:#000000;stroke-width:3.40157;stroke-linecap:butt;stroke-linejoin:round;stroke-miterlimit:4;stroke-dasharray:none;stroke-opacity:1"
     d="m 561.42712,250.0878 h 7.03407"
     id="path1114" />
  <path
     style="fill:none;stroke:#000000;stroke-width:3.40157;stroke-linecap:butt;stroke-linejoin:round;stroke-miterlimit:4;stroke-dasharray:none;stroke-opacity:1"
     d="m 561.42712,147.77412 h 7.03407"
     id="path1116" />
  <path
     style="fill:none;stroke:#000000;stroke-width:3.40157;stroke-linecap:butt;stroke-linejoin:round;stroke-miterlimit:4;stroke-dasharray:none;stroke-opacity:1"
     d="m 561.85927,45.620295 h 7.03406"
     id="path1118" />
  <path
     style="fill:none;stroke:#000000;stroke-width:3.40157;stroke-linecap:butt;stroke-linejoin:round;stroke-miterlimit:4;stroke-dasharray:none;stroke-opacity:1"
     d="m 111.81113,34.02863 v -3.6769"
     id="path1120" />
  <path
     style="fill:none;stroke:#000000;stroke-width:3.40157;stroke-linecap:butt;stroke-linejoin:round;stroke-miterlimit:4;stroke-dasharray:none;stroke-opacity:1"
     d="m 125.71939,34.02863 v -3.6769"
     id="path1122" />
  <path
     style="fill:none;stroke:#000000;stroke-width:3.40157;stroke-linecap:butt;stroke-linejoin:round;stroke-miterlimit:4;stroke-dasharray:none;stroke-opacity:1"
     d="m 219.72009,34.02863 v -3.6769"
     id="path1124" />
  <path
     style="fill:none;stroke:#000000;stroke-width:3.40157;stroke-linecap:butt;stroke-linejoin:round;stroke-miterlimit:4;stroke-dasharray:none;stroke-opacity:1"
     d="m 267.51977,34.02863 v -3.6769"
     id="path1126" />
  <path
     style="fill:none;stroke:#000000;stroke-width:3.40157;stroke-linecap:butt;stroke-linejoin:round;stroke-miterlimit:4;stroke-dasharray:none;stroke-opacity:1"
     d="m 301.57104,34.02863 v -3.6769"
     id="path1128" />
  <path
     style="fill:none;stroke:#000000;stroke-width:3.40157;stroke-linecap:butt;stroke-linejoin:round;stroke-miterlimit:4;stroke-dasharray:none;stroke-opacity:1"
     d="m 327.78892,34.02863 v -3.6769"
     id="path1130" />
  <path
     style="fill:none;stroke:#000000;stroke-width:3.40157;stroke-linecap:butt;stroke-linejoin:round;stroke-miterlimit:4;stroke-dasharray:none;stroke-opacity:1"
     d="m 349.21085,34.02863 v -3.6769"
     id="path1132" />
  <path
     style="fill:none;stroke:#000000;stroke-width:3.40157;stroke-linecap:butt;stroke-linejoin:round;stroke-miterlimit:4;stroke-dasharray:none;stroke-opacity:1"
     d="m 367.43548,34.02863 v -3.6769"
     id="path1134" />
  <path
     style="fill:none;stroke:#000000;stroke-width:3.40157;stroke-linecap:butt;stroke-linejoin:round;stroke-miterlimit:4;stroke-dasharray:none;stroke-opacity:1"
     d="m 383.26213,34.02863 v -3.6769"
     id="path1136" />
  <path
     style="fill:none;stroke:#000000;stroke-width:3.40157;stroke-linecap:butt;stroke-linejoin:round;stroke-miterlimit:4;stroke-dasharray:none;stroke-opacity:1"
     d="m 397.17039,34.02863 v -3.6769"
     id="path1138" />
  <path
     style="fill:none;stroke:#000000;stroke-width:3.40157;stroke-linecap:butt;stroke-linejoin:round;stroke-miterlimit:4;stroke-dasharray:none;stroke-opacity:1"
     d="m 491.17109,34.02863 v -3.6769"
     id="path1140" />
  <path
     style="fill:none;stroke:#000000;stroke-width:3.40157;stroke-linecap:butt;stroke-linejoin:round;stroke-miterlimit:4;stroke-dasharray:none;stroke-opacity:1"
     d="m 538.97077,34.02863 v -3.6769"
     id="path1142" />
  <path
     style="fill:none;stroke:#000000;stroke-width:3.40157;stroke-linecap:butt;stroke-linejoin:round;stroke-miterlimit:4;stroke-dasharray:none;stroke-opacity:1"
     d="m 138.18888,37.69189 v -7.3538"
     id="path1144" />
  <path
     style="fill:none;stroke:#000000;stroke-width:3.40157;stroke-linecap:butt;stroke-linejoin:round;stroke-miterlimit:4;stroke-dasharray:none;stroke-opacity:1"
     d="m 409.48001,37.69189 v -7.3538"
     id="path1146" />
</svg>
