<?xml version="1.0" encoding="UTF-8" standalone="no"?>
<!-- Created with Inkscape (http://www.inkscape.org/) -->

<svg
   version="1.1"
   id="svg2"
   width="2349.3208"
   height="1989.5586"
   viewBox="0 0 2349.3209 1989.5585"
   sodipodi:docname="3. How Do OPV for import.svg"
   inkscape:version="1.1.2 (b8e25be833, 2022-02-05)"
   xmlns:inkscape="http://www.inkscape.org/namespaces/inkscape"
   xmlns:sodipodi="http://sodipodi.sourceforge.net/DTD/sodipodi-0.dtd"
   xmlns:xlink="http://www.w3.org/1999/xlink"
   xmlns="http://www.w3.org/2000/svg"
   xmlns:svg="http://www.w3.org/2000/svg">
  <defs
     id="defs6">
    <linearGradient
       inkscape:collect="always"
       id="linearGradient6290">
      <stop
         style="stop-color:#348800;stop-opacity:1;"
         offset="0"
         id="stop6286" />
      <stop
         style="stop-color:#348800;stop-opacity:0;"
         offset="1"
         id="stop6288" />
    </linearGradient>
    <linearGradient
       inkscape:collect="always"
       id="linearGradient15411">
      <stop
         style="stop-color:#deb996;stop-opacity:1"
         offset="0"
         id="stop15407" />
      <stop
         style="stop-color:#f6fcfd;stop-opacity:0"
         offset="1"
         id="stop15409" />
    </linearGradient>
    <linearGradient
       inkscape:collect="always"
       id="linearGradient14648">
      <stop
         style="stop-color:#97a2de;stop-opacity:1"
         offset="0"
         id="stop14644" />
      <stop
         style="stop-color:#f6fcfd;stop-opacity:0"
         offset="1"
         id="stop14646" />
    </linearGradient>
    <linearGradient
       inkscape:collect="always"
       id="linearGradient10207">
      <stop
         style="stop-color:#ceffad;stop-opacity:1;"
         offset="0"
         id="stop10203" />
      <stop
         style="stop-color:#ceffad;stop-opacity:0;"
         offset="1"
         id="stop10205" />
    </linearGradient>
    <linearGradient
       inkscape:collect="always"
       id="linearGradient2179">
      <stop
         style="stop-color:#97cbde;stop-opacity:1"
         offset="0"
         id="stop2175" />
      <stop
         style="stop-color:#f6fcfd;stop-opacity:0"
         offset="1"
         id="stop2177" />
    </linearGradient>
    <linearGradient
       inkscape:collect="always"
       id="linearGradient855">
      <stop
         style="stop-color:#435055;stop-opacity:1"
         offset="0"
         id="stop851" />
      <stop
         style="stop-color:#6d6d6d;stop-opacity:0"
         offset="1"
         id="stop853" />
    </linearGradient>
    <radialGradient
       inkscape:collect="always"
       xlink:href="#linearGradient855"
       id="radialGradient865"
       cx="493.79834"
       cy="1698.8585"
       fx="493.79834"
       fy="1698.8585"
       r="62.650856"
       gradientTransform="matrix(4.2252024,-0.59400228,2.5420361,18.081778,-4041.9117,-31498.73)"
       gradientUnits="userSpaceOnUse" />
    <radialGradient
       inkscape:collect="always"
       xlink:href="#linearGradient14648"
       id="radialGradient1817"
       gradientUnits="userSpaceOnUse"
       gradientTransform="matrix(1.8443682,-0.68538224,-0.02251347,25.714232,277.05552,-44420.067)"
       cx="493.79834"
       cy="1698.8585"
       fx="493.79834"
       fy="1698.8585"
       r="62.650856" />
    <filter
       inkscape:collect="always"
       style="color-interpolation-filters:sRGB"
       id="filter2517-39-8"
       x="-0.13494463"
       y="-0.1349446"
       width="1.2698893"
       height="1.2698892">
      <feGaussianBlur
         inkscape:collect="always"
         stdDeviation="0.4563102"
         id="feGaussianBlur2519-1-7" />
    </filter>
    <filter
       inkscape:collect="always"
       style="color-interpolation-filters:sRGB"
       id="filter2517-3-6-5"
       x="-0.13494463"
       y="-0.1349446"
       width="1.2698893"
       height="1.2698892">
      <feGaussianBlur
         inkscape:collect="always"
         stdDeviation="0.4563102"
         id="feGaussianBlur2519-6-6-8" />
    </filter>
    <marker
       style="overflow:visible"
       id="marker5556-2-63-4"
       refX="0"
       refY="0"
       orient="auto"
       inkscape:stockid="Arrow2Lend"
       inkscape:isstock="true">
      <path
         transform="matrix(-1.1,0,0,-1.1,-1.1,0)"
         d="M 8.7185878,4.0337352 -2.2072895,0.01601326 8.7185884,-4.0017078 c -1.7454984,2.3720609 -1.7354408,5.6174519 -6e-7,8.035443 z"
         style="fill:context-stroke;fill-rule:evenodd;stroke:context-stroke;stroke-width:0.625;stroke-linejoin:round"
         id="path5316-5-53-3" />
    </marker>
    <linearGradient
       inkscape:collect="always"
       id="linearGradient45300">
      <stop
         style="stop-color:#5698ff;stop-opacity:1"
         offset="0"
         id="stop45296" />
      <stop
         style="stop-color:#ff4e4e;stop-opacity:1"
         offset="1"
         id="stop45298" />
    </linearGradient>
    <filter
       inkscape:collect="always"
       style="color-interpolation-filters:sRGB"
       id="filter45936"
       x="-0.18617951"
       y="-0.12683986"
       width="1.372359"
       height="1.2536797">
      <feGaussianBlur
         inkscape:collect="always"
         stdDeviation="2.0558833"
         id="feGaussianBlur45938" />
    </filter>
    <linearGradient
       inkscape:collect="always"
       xlink:href="#linearGradient45300"
       id="linearGradient1171"
       gradientUnits="userSpaceOnUse"
       x1="156.43158"
       y1="27.773693"
       x2="157.1218"
       y2="95.346176" />
    <linearGradient
       inkscape:collect="always"
       xlink:href="#linearGradient45300"
       id="linearGradient1173"
       gradientUnits="userSpaceOnUse"
       gradientTransform="matrix(2.5679904,0,0,2.5679904,1101.1517,1306.3373)"
       x1="156.597"
       y1="29.427822"
       x2="157.1218"
       y2="95.346176" />
    <linearGradient
       inkscape:collect="always"
       xlink:href="#linearGradient45300"
       id="linearGradient1495"
       gradientUnits="userSpaceOnUse"
       x1="156.43158"
       y1="27.773693"
       x2="157.1218"
       y2="95.346176" />
    <linearGradient
       inkscape:collect="always"
       xlink:href="#linearGradient45300"
       id="linearGradient1497"
       gradientUnits="userSpaceOnUse"
       gradientTransform="matrix(2.5679904,0,0,2.5679904,1101.1517,1306.3373)"
       x1="156.597"
       y1="29.427822"
       x2="157.1218"
       y2="95.346176" />
    <marker
       style="overflow:visible"
       id="marker5556-2-4-0-3-3"
       refX="0"
       refY="0"
       orient="auto"
       inkscape:stockid="Arrow2Lend"
       inkscape:isstock="true">
      <path
         transform="matrix(-1.1,0,0,-1.1,-1.1,0)"
         d="M 8.7185878,4.0337352 -2.2072895,0.01601326 8.7185884,-4.0017078 c -1.7454984,2.3720609 -1.7354408,5.6174519 -6e-7,8.035443 z"
         style="fill:context-stroke;fill-rule:evenodd;stroke:context-stroke;stroke-width:0.625;stroke-linejoin:round"
         id="path5316-5-0-2-4-50" />
    </marker>
    <filter
       inkscape:collect="always"
       style="color-interpolation-filters:sRGB"
       id="filter82878"
       x="-0.24406013"
       y="-0.24381005"
       width="1.4881203"
       height="1.4876201">
      <feGaussianBlur
         inkscape:collect="always"
         stdDeviation="1.4504687"
         id="feGaussianBlur82880" />
    </filter>
    <marker
       style="overflow:visible"
       id="marker1718"
       refX="0"
       refY="0"
       orient="auto"
       inkscape:stockid="Arrow2Lend"
       inkscape:isstock="true">
      <path
         transform="matrix(-1.1,0,0,-1.1,-1.1,0)"
         d="M 8.7185878,4.0337352 -2.2072895,0.01601326 8.7185884,-4.0017078 c -1.7454984,2.3720609 -1.7354408,5.6174519 -6e-7,8.035443 z"
         style="fill:context-stroke;fill-rule:evenodd;stroke:context-stroke;stroke-width:0.625;stroke-linejoin:round"
         id="path1716" />
    </marker>
    <marker
       style="overflow:visible"
       id="marker1726"
       refX="0"
       refY="0"
       orient="auto"
       inkscape:stockid="Arrow2Lend"
       inkscape:isstock="true">
      <path
         transform="matrix(-1.1,0,0,-1.1,-1.1,0)"
         d="M 8.7185878,4.0337352 -2.2072895,0.01601326 8.7185884,-4.0017078 c -1.7454984,2.3720609 -1.7354408,5.6174519 -6e-7,8.035443 z"
         style="fill:context-stroke;fill-rule:evenodd;stroke:context-stroke;stroke-width:0.625;stroke-linejoin:round"
         id="path1724" />
    </marker>
    <marker
       style="overflow:visible"
       id="marker1741"
       refX="0"
       refY="0"
       orient="auto"
       inkscape:stockid="Arrow2Lend"
       inkscape:isstock="true">
      <path
         transform="matrix(-1.1,0,0,-1.1,-1.1,0)"
         d="M 8.7185878,4.0337352 -2.2072895,0.01601326 8.7185884,-4.0017078 c -1.7454984,2.3720609 -1.7354408,5.6174519 -6e-7,8.035443 z"
         style="fill:context-stroke;fill-rule:evenodd;stroke:context-stroke;stroke-width:0.625;stroke-linejoin:round"
         id="path1739" />
    </marker>
    <marker
       style="overflow:visible"
       id="marker1749"
       refX="0"
       refY="0"
       orient="auto"
       inkscape:stockid="Arrow2Lend"
       inkscape:isstock="true">
      <path
         transform="matrix(-1.1,0,0,-1.1,-1.1,0)"
         d="M 8.7185878,4.0337352 -2.2072895,0.01601326 8.7185884,-4.0017078 c -1.7454984,2.3720609 -1.7354408,5.6174519 -6e-7,8.035443 z"
         style="fill:context-stroke;fill-rule:evenodd;stroke:context-stroke;stroke-width:0.625;stroke-linejoin:round"
         id="path1747" />
    </marker>
    <marker
       style="overflow:visible"
       id="marker1764"
       refX="0"
       refY="0"
       orient="auto"
       inkscape:stockid="Arrow2Lend"
       inkscape:isstock="true">
      <path
         transform="matrix(-1.1,0,0,-1.1,-1.1,0)"
         d="M 8.7185878,4.0337352 -2.2072895,0.01601326 8.7185884,-4.0017078 c -1.7454984,2.3720609 -1.7354408,5.6174519 -6e-7,8.035443 z"
         style="fill:context-stroke;fill-rule:evenodd;stroke:context-stroke;stroke-width:0.625;stroke-linejoin:round"
         id="path1762" />
    </marker>
    <filter
       inkscape:collect="always"
       style="color-interpolation-filters:sRGB"
       id="filter10181"
       x="-0.037125479"
       y="-0.033830463"
       width="1.074251"
       height="1.0676609">
      <feGaussianBlur
         inkscape:collect="always"
         stdDeviation="1.268816"
         id="feGaussianBlur10183" />
    </filter>
    <linearGradient
       inkscape:collect="always"
       xlink:href="#linearGradient10207"
       id="linearGradient10209"
       x1="134.73772"
       y1="162.27382"
       x2="152.68378"
       y2="181.12943"
       gradientUnits="userSpaceOnUse" />
    <radialGradient
       inkscape:collect="always"
       xlink:href="#linearGradient2179"
       id="radialGradient13522"
       gradientUnits="userSpaceOnUse"
       gradientTransform="matrix(4.2252024,-0.59400228,2.5420361,18.081778,-5339.5124,-31498.73)"
       cx="493.79834"
       cy="1698.8585"
       fx="493.79834"
       fy="1698.8585"
       r="62.650856" />
    <radialGradient
       inkscape:collect="always"
       xlink:href="#linearGradient15411"
       id="radialGradient14860"
       gradientUnits="userSpaceOnUse"
       gradientTransform="matrix(1.8443682,-0.68538224,-0.02251347,25.714232,1406.4382,-44420.067)"
       cx="493.79834"
       cy="1698.8585"
       fx="493.79834"
       fy="1698.8585"
       r="62.650856" />
    <symbol
       id="v"
       overflow="visible">
      <path
         d="m 18.766,-1.125 c -0.96875,0.5 -1.9805,0.875 -3.0312,1.125 -1.043,0.25781 -2.1367,0.39062 -3.2812,0.39062 -3.3984,0 -6.0898,-0.94531 -8.0781,-2.8438 -1.9922,-1.9062 -2.9844,-4.4844 -2.9844,-7.7344 0,-3.2578 0.99219,-5.8359 2.9844,-7.7344 1.9883,-1.9062 4.6797,-2.8594 8.0781,-2.8594 1.1445,0 2.2383,0.13281 3.2812,0.39062 1.0508,0.25 2.0625,0.625 3.0312,1.125 v 4.2188 c -0.98047,-0.65625 -1.9453,-1.1406 -2.8906,-1.4531 -0.94922,-0.3125 -1.9492,-0.46875 -3,-0.46875 -1.875,0 -3.3516,0.60547 -4.4219,1.8125 -1.0742,1.1992 -1.6094,2.8555 -1.6094,4.9688 0,2.1055 0.53516,3.7617 1.6094,4.9688 1.0703,1.1992 2.5469,1.7969 4.4219,1.7969 1.0508,0 2.0508,-0.14844 3,-0.45312 0.94531,-0.3125 1.9102,-0.80078 2.8906,-1.4688 z"
         id="path30357" />
    </symbol>
    <symbol
       id="b"
       overflow="visible">
      <path
         d="m 13.734,-11.141 c -0.4375,-0.19531 -0.87109,-0.34375 -1.2969,-0.4375 -0.41797,-0.10156 -0.83984,-0.15625 -1.2656,-0.15625 -1.2617,0 -2.2305,0.40625 -2.9062,1.2188 -0.67969,0.80469 -1.0156,1.9531 -1.0156,3.4531 v 7.0625 H 2.3591 v -15.312 h 4.8906 v 2.5156 c 0.625,-1 1.3438,-1.7266 2.1562,-2.1875 0.82031,-0.46875 1.8008,-0.70312 2.9375,-0.70312 0.16406,0 0.34375,0.01172 0.53125,0.03125 0.19531,0.01172 0.47656,0.03906 0.84375,0.07813 z"
         id="path30360" />
    </symbol>
    <symbol
       id="a"
       overflow="visible">
      <path
         d="m 17.641,-7.7031 v 1.4062 H 6.188 c 0.125,1.1484 0.53906,2.0078 1.25,2.5781 0.70703,0.57422 1.7031,0.85938 2.9844,0.85938 1.0312,0 2.082,-0.14844 3.1562,-0.45312 1.082,-0.3125 2.1914,-0.77344 3.3281,-1.3906 v 3.7656 c -1.1562,0.4375 -2.3125,0.76562 -3.4688,0.98438 -1.1562,0.22656 -2.3125,0.34375 -3.4688,0.34375 -2.7734,0 -4.9297,-0.70312 -6.4688,-2.1094 -1.5312,-1.4062 -2.2969,-3.3789 -2.2969,-5.9219 0,-2.5 0.75391,-4.4609 2.2656,-5.8906 1.5078,-1.4375 3.582,-2.1562 6.2188,-2.1562 2.4062,0 4.332,0.73047 5.7812,2.1875 1.4453,1.4492 2.1719,3.3828 2.1719,5.7969 z m -5.0312,-1.625 c 0,-0.92578 -0.27344,-1.6719 -0.8125,-2.2344 -0.54297,-0.57031 -1.25,-0.85938 -2.125,-0.85938 -0.94922,0 -1.7188,0.26562 -2.3125,0.79688 -0.5937,0.53126 -0.96484,1.2969 -1.1094,2.2969 z"
         id="path30363" />
    </symbol>
    <symbol
       id="j"
       overflow="visible">
      <path
         d="m 9.2188,-6.8906 c -1.0234,0 -1.793,0.17188 -2.3125,0.51562 -0.51172,0.34375 -0.76562,0.85547 -0.76562,1.5312 0,0.625 0.20703,1.1172 0.625,1.4688 0.41406,0.34375 0.98828,0.51562 1.7188,0.51562 0.92578,0 1.7031,-0.32812 2.3281,-0.98438 0.63281,-0.66406 0.95312,-1.4922 0.95312,-2.4844 v -0.5625 z m 7.4688,-1.8438 V 0 h -4.9219 v -2.2656 c -0.65625,0.92969 -1.3984,1.6055 -2.2188,2.0312 -0.82422,0.41406 -1.8242,0.625 -3,0.625 -1.5859,0 -2.8711,-0.45703 -3.8594,-1.375 -0.99219,-0.92578 -1.4844,-2.1289 -1.4844,-3.6094 0,-1.7891 0.61328,-3.1016 1.8438,-3.9375 1.2383,-0.84375 3.1797,-1.2656 5.8281,-1.2656 h 2.8906 v -0.39062 c 0,-0.76953 -0.30859,-1.332 -0.92188,-1.6875 -0.61719,-0.36328 -1.5703,-0.54688 -2.8594,-0.54688 -1.0547,0 -2.0312,0.10547 -2.9375,0.3125 -0.89844,0.21094 -1.7305,0.52344 -2.5,0.9375 v -3.7344 c 1.0391,-0.25 2.0859,-0.44141 3.1406,-0.57812 1.0625,-0.13281 2.125,-0.20312 3.1875,-0.20312 2.7578,0 4.75,0.54688 5.9688,1.6406 1.2266,1.0859 1.8438,2.8555 1.8438,5.3125 z"
         id="path30366" />
    </symbol>
    <symbol
       id="e"
       overflow="visible">
      <path
         d="m 7.7031,-19.656 v 4.3438 H 12.75 v 3.5 H 7.7031 v 6.5 c 0,0.71094 0.14062,1.1875 0.42188,1.4375 0.28126,0.25 0.83594,0.375 1.6719,0.375 h 2.5156 v 3.5 h -4.1875 c -1.9375,0 -3.3125,-0.39844 -4.125,-1.2031 -0.80469,-0.8125 -1.2031,-2.1797 -1.2031,-4.1094 v -6.5 h -2.4219 v -3.5 h 2.4219 v -4.3438 z"
         id="path30369" />
    </symbol>
    <symbol
       id="g"
       overflow="visible">
      <path
         d="m 12.766,-13.078 v -8.2031 h 4.9219 V -10e-5 H 12.766 v -2.2188 c -0.66797,0.90625 -1.4062,1.5703 -2.2188,1.9844 -0.8126,0.4141 -1.7578,0.625 -2.8281,0.625 -1.8867,0 -3.4336,-0.75 -4.6406,-2.25 -1.2109,-1.5 -1.8125,-3.4258 -1.8125,-5.7812 0,-2.3633 0.60156,-4.2969 1.8125,-5.7969 1.207,-1.5 2.7539,-2.25 4.6406,-2.25 1.0625,0 2,0.21484 2.8125,0.64062 0.82031,0.42969 1.5664,1.0859 2.2344,1.9688 z m -3.2188,9.9219 c 1.0391,0 1.8359,-0.37891 2.3906,-1.1406 0.55078,-0.76953 0.82812,-1.8828 0.82812,-3.3438 0,-1.457 -0.27734,-2.5664 -0.82812,-3.3281 -0.55469,-0.76953 -1.3516,-1.1562 -2.3906,-1.1562 -1.043,0 -1.8398,0.38672 -2.3906,1.1562 -0.55469,0.76172 -0.82812,1.8711 -0.82812,3.3281 0,1.4609 0.27344,2.5742 0.82812,3.3438 0.55078,0.76172 1.3477,1.1406 2.3906,1.1406 z"
         id="path30372" />
    </symbol>
    <symbol
       id="d"
       overflow="visible">
      <path
         d="m 10.5,-3.1562 c 1.0508,0 1.8516,-0.37891 2.4062,-1.1406 0.55078,-0.76953 0.82812,-1.8828 0.82812,-3.3438 0,-1.457 -0.27734,-2.5664 -0.82812,-3.3281 -0.55469,-0.76953 -1.3555,-1.1562 -2.4062,-1.1562 -1.0547,0 -1.8594,0.38672 -2.4219,1.1562 -0.55469,0.77344 -0.82812,1.8828 -0.82812,3.3281 0,1.4492 0.27344,2.5586 0.82812,3.3281 0.5625,0.77344 1.3672,1.1562 2.4219,1.1562 z m -3.25,-9.9219 c 0.67578,-0.88281 1.4219,-1.5391 2.2344,-1.9688 0.82031,-0.42578 1.7656,-0.64062 2.8281,-0.64062 1.8945,0 3.4453,0.75 4.6562,2.25 1.207,1.5 1.8125,3.4336 1.8125,5.7969 0,2.3555 -0.60547,4.2812 -1.8125,5.7812 -1.2109,1.5 -2.7617,2.25 -4.6562,2.25 -1.0625,0 -2.0078,-0.21094 -2.8281,-0.625 C 8.6719,-0.6602 7.9258,-1.32032 7.25,-2.21882 V -2e-5 H 2.3594 v -21.281 H 7.25 Z"
         id="path30375" />
    </symbol>
    <symbol
       id="f"
       overflow="visible">
      <path
         d="m 0.34375,-15.312 h 4.8906 l 4.125,10.391 3.5,-10.391 h 4.8906 l -6.4375,16.766 c -0.64844,1.6953 -1.4023,2.8828 -2.2656,3.5625 -0.86719,0.6875 -2,1.0312 -3.4062,1.0312 H 2.79685 V 2.8289 h 1.5312 c 0.83203,0 1.4375,-0.13672 1.8125,-0.40625 C 6.52336,2.16093 6.82024,1.69218 7.03117,1.01645 L 7.17179,0.59457 Z"
         id="path30378" />
    </symbol>
    <symbol
       id="i"
       overflow="visible">
      <path
         d="m 0.14062,-20.406 h 18.812 v 3.9688 h -6.7656 V 8e-4 h -5.2656 v -16.438 h -6.7812 z"
         id="path30381" />
    </symbol>
    <symbol
       id="h"
       overflow="visible">
      <path
         d="M 2.3594,-21.281 H 7.25 V 0 H 2.3594 Z"
         id="path30384" />
    </symbol>
    <symbol
       id="u"
       overflow="visible">
      <path
         d="m 20.922,-1.5156 c -1.3125,0.63672 -2.6797,1.1172 -4.0938,1.4375 -1.4062,0.3125 -2.8672,0.46875 -4.375,0.46875 -3.3984,0 -6.0898,-0.94531 -8.0781,-2.8438 -1.9922,-1.9062 -2.9844,-4.4844 -2.9844,-7.7344 0,-3.2891 1.0078,-5.8789 3.0312,-7.7656 2.0312,-1.8828 4.8047,-2.8281 8.3281,-2.8281 1.3516,0 2.6484,0.13281 3.8906,0.39062 1.25,0.25 2.4258,0.625 3.5312,1.125 v 4.2188 c -1.1484,-0.64453 -2.2812,-1.125 -3.4062,-1.4375 -1.125,-0.32031 -2.25,-0.48438 -3.375,-0.48438 -2.1055,0 -3.7266,0.58984 -4.8594,1.7656 -1.125,1.168 -1.6875,2.8398 -1.6875,5.0156 0,2.1562 0.54688,3.8242 1.6406,5 1.0938,1.1797 2.6445,1.7656 4.6562,1.7656 0.53906,0 1.0469,-0.03125 1.5156,-0.09375 0.47656,-0.070313 0.89844,-0.17969 1.2656,-0.32812 v -3.9688 h -3.2031 v -3.5156 h 8.2031 z"
         id="path30387" />
    </symbol>
    <symbol
       id="c"
       overflow="visible">
      <path
         d="m 9.6406,-12.188 c -1.0859,0 -1.9141,0.39062 -2.4844,1.1719 -0.57422,0.78125 -0.85938,1.9062 -0.85938,3.375 0,1.4688 0.28516,2.5938 0.85938,3.375 0.57031,0.77344 1.3984,1.1562 2.4844,1.1562 1.0625,0 1.875,-0.38281 2.4375,-1.1562 0.57031,-0.78125 0.85938,-1.9062 0.85938,-3.375 0,-1.4688 -0.28906,-2.5938 -0.85938,-3.375 -0.5625,-0.78125 -1.375,-1.1719 -2.4375,-1.1719 z m 0,-3.5 c 2.6328,0 4.6914,0.71484 6.1719,2.1406 1.4766,1.418 2.2188,3.3867 2.2188,5.9062 0,2.5117 -0.74219,4.4805 -2.2188,5.9062 C 14.332,-0.317 12.2734,0.39 9.6406,0.39 6.9922,0.39 4.9258,-0.31703 3.4375,-1.735 1.9453,-3.1608 1.2031,-5.1295 1.2031,-7.6412 c 0,-2.5195 0.74219,-4.4883 2.2344,-5.9062 1.4883,-1.4258 3.5547,-2.1406 6.2031,-2.1406 z"
         id="path30390" />
    </symbol>
    <symbol
       id="t"
       overflow="visible">
      <path
         d="M 2.3594,-15.312 H 7.25 V 0 H 2.3594 Z m 0,-5.9688 H 7.25 v 4 H 2.3594 Z"
         id="path30393" />
    </symbol>
    <symbol
       id="s"
       overflow="visible">
      <path
         d="m 12.422,-21.281 v 3.2188 H 9.7189 c -0.6875,0 -1.1719,0.125 -1.4531,0.375 -0.27344,0.25 -0.40625,0.6875 -0.40625,1.3125 v 1.0625 h 4.1875 v 3.5 H 7.85955 V -2e-4 h -4.8906 v -11.812 h -2.4375 v -3.5 h 2.4375 v -1.0625 c 0,-1.6641 0.46094,-2.8984 1.3906,-3.7031 0.92578,-0.80078 2.3672,-1.2031 4.3281,-1.2031 z"
         id="path30396" />
    </symbol>
    <symbol
       id="r"
       overflow="visible">
      <path
         d="m 16.547,-12.766 c 0.61328,-0.94531 1.3477,-1.6719 2.2031,-2.1719 0.85156,-0.5 1.7891,-0.75 2.8125,-0.75 1.7578,0 3.0977,0.54688 4.0156,1.6406 0.92578,1.0859 1.3906,2.6562 1.3906,4.7188 V -4e-4 h -4.9219 v -7.9844 -0.35938 c 0.0078,-0.13281 0.01563,-0.32031 0.01563,-0.5625 0,-1.082 -0.16406,-1.8633 -0.48438,-2.3438 -0.3125,-0.48828 -0.82422,-0.73438 -1.5312,-0.73438 -0.92969,0 -1.6484,0.38672 -2.1562,1.1562 -0.51172,0.76172 -0.77344,1.8672 -0.78125,3.3125 v 7.5156 h -4.9219 v -7.9844 c 0,-1.6953 -0.14844,-2.7852 -0.4375,-3.2656 -0.29297,-0.48828 -0.8125,-0.73438 -1.5625,-0.73438 -0.9375,0 -1.6641,0.38672 -2.1719,1.1562 -0.51172,0.76172 -0.76562,1.8594 -0.76562,3.2969 v 7.5312 h -4.9219 v -15.312 h 4.9219 v 2.2344 c 0.60156,-0.86328 1.2891,-1.5156 2.0625,-1.9531 0.78125,-0.4375 1.6406,-0.65625 2.5781,-0.65625 1.0625,0 2,0.25781 2.8125,0.76562 0.8125,0.51172 1.4258,1.2305 1.8438,2.1562 z"
         id="path30399" />
    </symbol>
    <symbol
       id="q"
       overflow="visible">
      <path
         d="M 17.75,-9.3281 V 0 h -4.9219 v -7.1094 c 0,-1.3438 -0.03125,-2.2656 -0.09375,-2.7656 -0.0625,-0.5 -0.16797,-0.86719 -0.3125,-1.1094 -0.1875,-0.3125 -0.44922,-0.55469 -0.78125,-0.73438 -0.32422,-0.17578 -0.69531,-0.26562 -1.1094,-0.26562 -1.0234,0 -1.8242,0.39844 -2.4062,1.1875 -0.58594,0.78125 -0.875,1.8711 -0.875,3.2656 V -1e-4 H 2.3594 v -21.281 H 7.25 v 8.2031 c 0.73828,-0.88281 1.5195,-1.5391 2.3438,-1.9688 0.83203,-0.42578 1.75,-0.64062 2.75,-0.64062 1.7695,0 3.1133,0.54688 4.0312,1.6406 0.91406,1.0859 1.375,2.6562 1.375,4.7188 z"
         id="path30402" />
    </symbol>
    <symbol
       id="p"
       overflow="visible">
      <path
         d="m 2.5781,-20.406 h 5.875 l 7.4219,14 v -14 h 4.9844 V 0 h -5.875 L 7.5625,-14 V 0 H 2.5781 Z"
         id="path30405" />
    </symbol>
    <symbol
       id="o"
       overflow="visible">
      <path
         d="m 2.1875,-5.9688 v -9.3438 h 4.9219 v 1.5312 c 0,0.83594 -0.00781,1.875 -0.015625,3.125 -0.011719,1.25 -0.015625,2.0859 -0.015625,2.5 0,1.2422 0.03125,2.1328 0.09375,2.6719 0.070313,0.54297 0.17969,0.93359 0.32812,1.1719 0.20703,0.32422 0.47266,0.57422 0.79688,0.75 0.32031,0.16797 0.69141,0.25 1.1094,0.25 1.0195,0 1.8203,-0.39062 2.4062,-1.1719 0.58203,-0.78125 0.875,-1.8672 0.875,-3.2656 v -7.5625 h 4.8906 V -6e-4 H 12.6875 V -2.2194 C 11.94531,-1.32096 11.1641,-0.6608 10.3437,-0.235 9.51948,0.17906 8.6093,0.39 7.6093,0.39 5.8476,0.39 4.5038,-0.14906 3.5781,-1.235 2.64841,-2.317 2.1875,-3.8952 2.1875,-5.9694 Z"
         id="path30408" />
    </symbol>
    <symbol
       id="n"
       overflow="visible">
      <path
         d="M 17.75,-9.3281 V 0 h -4.9219 v -7.1406 c 0,-1.3203 -0.03125,-2.2344 -0.09375,-2.7344 -0.0625,-0.5 -0.16797,-0.86719 -0.3125,-1.1094 -0.1875,-0.3125 -0.44922,-0.55469 -0.78125,-0.73438 -0.32422,-0.17578 -0.69531,-0.26562 -1.1094,-0.26562 -1.0234,0 -1.8242,0.39844 -2.4062,1.1875 -0.58594,0.78125 -0.875,1.8711 -0.875,3.2656 V -1e-4 H 2.3594 v -15.312 H 7.25 v 2.2344 c 0.73828,-0.88281 1.5195,-1.5391 2.3438,-1.9688 0.83203,-0.42578 1.75,-0.64062 2.75,-0.64062 1.7695,0 3.1133,0.54688 4.0312,1.6406 0.91406,1.0859 1.375,2.6562 1.375,4.7188 z"
         id="path30411" />
    </symbol>
    <symbol
       id="m"
       overflow="visible">
      <path
         d="m 2.5781,-20.406 h 8.7344 c 2.5938,0 4.582,0.57812 5.9688,1.7344 1.3945,1.1484 2.0938,2.7891 2.0938,4.9219 0,2.1367 -0.69922,3.7812 -2.0938,4.9375 -1.3867,1.1562 -3.375,1.7344 -5.9688,1.7344 H 7.8281 V 3e-4 h -5.25 z m 5.25,3.8125 v 5.7031 H 10.75 c 1.0195,0 1.8047,-0.25 2.3594,-0.75 0.5625,-0.5 0.84375,-1.2031 0.84375,-2.1094 0,-0.91406 -0.28125,-1.6172 -0.84375,-2.1094 -0.55469,-0.48828 -1.3398,-0.73438 -2.3594,-0.73438 z"
         id="path30414" />
    </symbol>
    <symbol
       id="l"
       overflow="visible">
      <path
         d="M 2.3594,-15.312 H 7.25 v 15.031 c 0,2.0508 -0.49609,3.6172 -1.4844,4.7031 -0.98047,1.082 -2.4062,1.625 -4.2812,1.625 H -0.9375 V 2.8283 h 0.85938 c 0.92578,0 1.5625,-0.21094 1.9062,-0.625 0.35156,-0.41797 0.53125,-1.2461 0.53125,-2.4844 z m 0,-5.9688 H 7.25 v 4 H 2.3594 Z"
         id="path30417" />
    </symbol>
    <symbol
       id="k"
       overflow="visible">
      <path
         d="m 14.719,-14.828 v 3.9844 c -0.65625,-0.45703 -1.3242,-0.79688 -2,-1.0156 -0.66797,-0.21875 -1.3594,-0.32812 -2.0781,-0.32812 -1.3672,0 -2.4336,0.40234 -3.2031,1.2031 -0.76172,0.79297 -1.1406,1.9062 -1.1406,3.3438 0,1.4297 0.37891,2.543 1.1406,3.3438 0.76953,0.79297 1.8359,1.1875 3.2031,1.1875 0.75781,0 1.4844,-0.10938 2.1719,-0.32812 0.6875,-0.22656 1.3203,-0.56641 1.9062,-1.0156 v 4 c -0.76172,0.28125 -1.5391,0.48828 -2.3281,0.625 -0.78125,0.14453 -1.5742,0.21875 -2.375,0.21875 -2.7617,0 -4.9219,-0.70703 -6.4844,-2.125 -1.5547,-1.4141 -2.3281,-3.3828 -2.3281,-5.9062 0,-2.5312 0.77344,-4.5039 2.3281,-5.9219 1.5625,-1.4141 3.7227,-2.125 6.4844,-2.125 0.80078,0 1.5938,0.07422 2.375,0.21875 0.78125,0.13672 1.5547,0.35156 2.3281,0.64062 z"
         id="path30420" />
    </symbol>
    <linearGradient
       inkscape:collect="always"
       xlink:href="#linearGradient6290"
       id="linearGradient6292"
       x1="1061.9459"
       y1="1063.8048"
       x2="981.87805"
       y2="795.34467"
       gradientUnits="userSpaceOnUse" />
    <filter
       inkscape:collect="always"
       style="color-interpolation-filters:sRGB"
       id="filter5437"
       x="-0.14146382"
       y="-0.066873806"
       width="1.2829276"
       height="1.1337476">
      <feGaussianBlur
         inkscape:collect="always"
         stdDeviation="5.2078713"
         id="feGaussianBlur5439" />
    </filter>
  </defs>
  <sodipodi:namedview
     id="namedview4"
     pagecolor="#ffffff"
     bordercolor="#666666"
     borderopacity="1.0"
     inkscape:pageshadow="2"
     inkscape:pageopacity="0.0"
     inkscape:pagecheckerboard="0"
     showgrid="false"
     inkscape:zoom="0.41616182"
     inkscape:cx="926.32236"
     inkscape:cy="1268.7372"
     inkscape:window-width="1920"
     inkscape:window-height="1217"
     inkscape:window-x="-8"
     inkscape:window-y="-8"
     inkscape:window-maximized="1"
     inkscape:current-layer="g8" />
  <g
     inkscape:groupmode="layer"
     id="layer1"
     inkscape:label="Image 1"
     style="display:inline"
     transform="translate(-303.70653,-522.68733)">
    <path
       id="rect2859"
       style="fill:#d79981;fill-rule:evenodd;stroke-width:7.55906;stroke-linejoin:bevel;paint-order:markers fill stroke"
       transform="rotate(90)"
       d="M 1174.792,-1794.5367 H 2253.6992 V -352.78979 H 1174.792 Z" />
    <path
       style="fill:#892c2c;fill-opacity:1;stroke:none;stroke-width:1px;stroke-linecap:butt;stroke-linejoin:miter;stroke-opacity:1"
       d="m 1795.5306,1554.9366 c -16.9912,-39.0797 -33.9824,-39.0797 -66.2655,-79.8585 -47.5644,-60.0814 -107.0443,44.177 -112.1416,64.5664 -5.0974,20.3894 -81.5575,27.1858 -57.7699,69.6637 23.7876,42.4779 -16.9912,-3.3982 20.3893,40.7788 37.3806,44.177 25.4868,50.9734 40.7788,71.3628 15.292,20.3894 20.3894,278.6549 -23.7876,319.4337 -44.177,40.7787 -59.469,30.584 -91.7522,6.7964 -32.2832,-23.7876 -66.2655,-33.9823 -93.4514,-105.3451 -107.3321,-104.6953 28.53,-101.1044 -19.1889,-197.7123 -32.2832,-57.7699 -18.6903,-64.5664 -79.8584,-96.8496 -61.1681,-32.2832 -84.9558,-49.2743 -115.5398,-45.8761 -30.5841,3.3982 -54.3717,-16.9911 -84.9558,11.8938 -30.584,28.885 -33.9823,3.3982 -35.6814,37.3805 -1.6991,33.9823 -18.6903,35.6815 27.1858,69.6638 45.8762,33.9823 23.7877,-10.1947 73.062,45.8761 65.5774,60.326 131.3186,81.8506 27.6845,139.9424 -20.3894,11.8938 -134.2715,-28.885 -180.1476,15.292 -45.87617,44.177 -44.17697,62.8673 -45.87617,73.062 -1.6991,10.1946 0,23.7876 0,23.7876 0,0 -27.1858,3.3982 -8.4955,40.7787 18.6902,37.3806 15.292,27.1859 23.7876,45.8761 8.49557,18.6903 11.89377,30.5841 11.89377,30.5841 0,0 6.7964,8.4956 6.7964,15.292 0,6.7965 1.6992,15.2921 -10.1946,25.4868 -11.89377,10.1947 -66.26547,27.1858 -67.96457,37.3805 -1.6992,10.1947 -6.7965,42.4779 -6.7965,42.4779 l 867.29537,-2.9718 z"
       id="path3394"
       sodipodi:nodetypes="csssssssccsssssccsscsscsssccc" />
    <path
       style="fill:#892c2c;fill-opacity:1;stroke:none;stroke-width:1px;stroke-linecap:butt;stroke-linejoin:miter;stroke-opacity:1"
       d="m 859.31814,1403.7153 c 32.28319,49.2743 56.07079,45.8761 62.86729,98.5486 6.7964,52.6726 -3.3982,73.062 -13.5929,91.7523 -10.1947,18.6903 5.0973,22.0885 -37.38059,28.885 -42.4778,6.7964 -32.2832,18.6902 -59.469,5.0973 -27.1858,-13.5929 -47.5752,-27.1858 -59.469,-40.7788 -11.8938,-13.5929 -18.6903,-20.3894 -30.5841,-64.5664 -11.8938,-44.177 -15.292,-62.8672 -16.9911,-91.7522 -1.6992,-28.8849 -25.4868,-13.5929 3.3982,-56.0708 28.8849,-42.4779 22.0885,-49.2743 52.6726,-54.3717 30.584,-5.0973 52.6725,-6.7964 62.8672,10.1947 10.1947,16.9912 22.0885,56.0708 22.0885,56.0708 z"
       id="path3396" />
    <path
       style="fill:#892c2c;fill-opacity:1;stroke:none;stroke-width:1px;stroke-linecap:butt;stroke-linejoin:miter;stroke-opacity:1"
       d="m 680.91106,2251.5737 c -13.5929,-37.3805 62.86734,-96.8495 47.57524,-169.9115 -15.292,-73.0619 71.36282,-90.0531 62.86732,-125.7345 -8.4956,-35.6814 37.38049,-130.8318 27.18579,-151.2212 -10.1947,-20.3894 -5.0973,-13.5929 -33.9823,-56.0708 -28.885,-42.4779 -23.7876,-59.4691 -56.0708,-69.6637 -32.2832,-10.1947 -35.6814,-16.9912 -79.8584,-8.4956 -44.177,8.4956 -52.6726,10.1947 -67.9646,22.0885 -15.292,11.8938 -8.4956,-1.6991 -16.9912,13.5929 -8.4955,15.292 -11.8938,6.7965 -8.4955,32.2832 3.3982,25.4867 16.9911,166.5133 25.4867,175.0088 8.4956,8.4956 27.1858,25.4868 27.1858,35.6814 0,10.1947 -100.2478,40.7788 -115.5398,-33.9823 -15.292,-74.761 -13.5929,27.1859 -20.3894,-108.7433 -6.7964,-135.9292 8.4956,-161.4159 3.3983,-237.8762 -5.0974,-76.4601 -16.9912,-113.8407 20.3893,-137.6283 37.3806,-23.7876 61.1682,-33.9823 67.9646,-56.0708 6.7965,-22.0885 25.4868,-30.5841 25.4868,-45.8761 0,-15.292 37.3805,-49.2743 37.3805,-49.2743 0,0 44.177,-13.5929 54.3717,-13.5929 10.1947,0 42.4779,-1.6992 52.6725,-5.0974 10.1947,-3.3982 35.6815,0 45.8762,-13.5929 10.1946,-13.5929 25.4867,-18.6903 27.1858,-27.1858 1.6991,-8.4956 -15.292,-11.8939 -28.885,-15.2921 -13.5929,-3.3982 -3.3982,-3.3982 -18.6902,-3.3982 -15.2921,0 -11.8938,5.0973 -22.0885,-1.6991 -10.1947,-6.7965 -33.9823,-8.4956 -33.9823,-8.4956 l -10.1947,-13.5929 h -27.1859 l -312.8292,-2.941 v 1078.9073 z"
       id="path3398"
       sodipodi:nodetypes="cssssssssssssssssscssssssscccccc" />
    <g
       id="rect849"
       transform="rotate(90)">
      <path
         style="color:#000000;fill:url(#radialGradient865);fill-rule:evenodd;stroke-width:7.55906;stroke-linejoin:bevel;-inkscape-stroke:none;paint-order:markers fill stroke"
         d="m 2304.1746,-1794.5367 h 117.7426 v 1441.74703 h -117.7426 z"
         id="path3547" />
      <path
         style="color:#000000;fill:#6f6f6f;fill-rule:evenodd;stroke-linejoin:bevel;-inkscape-stroke:none;paint-order:markers fill stroke"
         d="m 2304.1738,-1798.3164 -3.7793,3.7793 v 1441.74804 l 3.7793,3.77929 h 117.7442 l 3.7793,-3.77929 V -1794.5371 l -3.7793,-3.7793 z m 3.7793,7.5586 h 110.1836 v 1434.18944 h -110.1836 z"
         id="path3549" />
    </g>
    <g
       id="rect13520"
       transform="rotate(90)">
      <path
         style="color:#000000;fill:url(#radialGradient13522);fill-rule:evenodd;stroke-width:7.55906;stroke-linejoin:bevel;-inkscape-stroke:none;paint-order:markers fill stroke"
         d="m 1006.5739,-1794.5367 h 117.7427 v 1441.74703 h -117.7427 z"
         id="path3553" />
      <path
         style="color:#000000;fill:#379ea7;fill-rule:evenodd;stroke-linejoin:bevel;-inkscape-stroke:none;paint-order:markers fill stroke"
         d="m 1006.5742,-1798.3164 -3.7793,3.7793 v 1441.74804 l 3.7793,3.77929 h 117.7422 l 3.7793,-3.77929 V -1794.5371 l -3.7793,-3.7793 z m 3.7793,7.5586 h 110.1836 v 1434.18944 h -110.1836 z"
         id="path3555" />
    </g>
    <g
       id="rect1815"
       transform="rotate(90)">
      <path
         style="color:#000000;fill:url(#radialGradient1817);fill-rule:evenodd;stroke-width:7.55906;stroke-linejoin:bevel;-inkscape-stroke:none;paint-order:markers fill stroke"
         d="m 1124.3165,-1794.5367 h 50.4754 v 1441.74703 h -50.4754 z"
         id="path3559" />
      <path
         style="color:#000000;fill:#617bcb;fill-rule:evenodd;stroke-linejoin:bevel;-inkscape-stroke:none;paint-order:markers fill stroke"
         d="m 1124.3164,-1798.3164 -3.7793,3.7793 v 1441.74804 l 3.7793,3.77929 h 50.4746 l 3.7813,-3.77929 V -1794.5371 l -3.7813,-3.7793 z m 3.7793,7.5586 h 42.916 v 1434.18944 h -42.916 z"
         id="path3561" />
    </g>
    <g
       id="rect14858"
       transform="rotate(90)">
      <path
         style="color:#000000;fill:url(#radialGradient14860);fill-rule:evenodd;stroke-width:7.55906;stroke-linejoin:bevel;-inkscape-stroke:none;paint-order:markers fill stroke"
         d="m 2253.6992,-1794.5367 h 50.4754 v 1441.74703 h -50.4754 z"
         id="path3565" />
      <path
         style="color:#000000;fill:#b86f15;fill-rule:evenodd;stroke-linejoin:bevel;-inkscape-stroke:none;paint-order:markers fill stroke"
         d="m 2253.6992,-1798.3164 -3.7793,3.7793 v 1441.74804 l 3.7793,3.77929 h 50.4746 l 3.7813,-3.77929 V -1794.5371 l -3.7813,-3.7793 z m 3.7793,7.5586 h 42.916 v 1434.18944 h -42.916 z"
         id="path3567" />
    </g>
  </g>
  <g
     inkscape:groupmode="layer"
     inkscape:label="Image"
     id="g8"
     transform="translate(-303.70653,-522.68733)">
    <g
       id="g1169"
       transform="matrix(-0.03258967,-2.0453957,2.0453957,-0.03258967,-1803.7715,4531.4804)">
      <g
         id="g1163"
         transform="matrix(2.5679904,0,0,2.5679904,1125.7217,1306.3373)">
        <g
           id="g1145"
           transform="matrix(-0.0061175,0.80403728,-0.80403728,-0.0061175,233.47417,-70.199954)">
          <g
             id="g1137"
             transform="matrix(1.9664357,0,0,1.9664357,-134.61795,-76.951813)"
             style="fill:#ffffff;filter:url(#filter2517-39-8)">
            <path
               id="circle1133"
               style="fill-rule:evenodd;stroke-width:1.35259;stroke-linecap:round;stroke-linejoin:round"
               d="m 151.209,92.922531 a 4.0577559,4.0577559 0 0 1 -4.05775,4.057756 4.0577559,4.0577559 0 0 1 -4.05776,-4.057756 4.0577559,4.0577559 0 0 1 4.05776,-4.057756 4.0577559,4.0577559 0 0 1 4.05775,4.057756 z" />
            <path
               id="rect1135"
               style="fill-rule:evenodd;stroke-width:0.725764;stroke-linecap:round;stroke-linejoin:bevel;paint-order:markers fill stroke"
               d="m 145.57661,92.378967 h 3.07807 v 1.086373 h -3.07807 z" />
          </g>
          <g
             id="g1143"
             transform="translate(7.5942678,12.851838)">
            <path
               style="color:#000000;fill:#0073de;fill-rule:evenodd;stroke-linecap:round;stroke-linejoin:round;-inkscape-stroke:none"
               d="m 147.15039,88.189453 c -2.60653,0 -4.73242,2.125891 -4.73242,4.732422 0,2.606531 2.12589,4.734375 4.73242,4.734375 2.60653,0 4.73438,-2.127844 4.73438,-4.734375 0,-2.606531 -2.12785,-4.732422 -4.73438,-4.732422 z m 0,1.351563 c 1.87554,0 3.38281,1.505321 3.38281,3.380859 0,1.875538 -1.50727,3.382812 -3.38281,3.382812 -1.87554,0 -3.38086,-1.507274 -3.38086,-3.382812 0,-1.875538 1.50532,-3.380859 3.38086,-3.380859 z"
               id="circle1139" />
            <g
               id="rect1141">
              <path
                 style="color:#000000;fill:#0074e0;fill-rule:evenodd;stroke-width:0.725764;stroke-linecap:round;stroke-linejoin:bevel;-inkscape-stroke:none;paint-order:markers fill stroke"
                 d="m 145.57661,92.378967 h 3.07807 v 1.086373 h -3.07807 z"
                 id="path3599" />
              <path
                 style="color:#000000;fill:#0074e0;fill-rule:evenodd;stroke-linecap:round;stroke-linejoin:bevel;-inkscape-stroke:none;paint-order:markers fill stroke"
                 d="m 145.57617,92.015625 -0.36328,0.363281 v 1.085938 l 0.36328,0.363281 h 3.07813 l 0.36328,-0.363281 v -1.085938 l -0.36328,-0.363281 z m 0.36328,0.726562 h 2.35157 v 0.359375 h -2.35157 z"
                 id="path3601" />
            </g>
          </g>
        </g>
        <g
           id="g1161"
           transform="matrix(0.80406055,0,0,0.80406055,38.223105,-77.590126)">
          <g
             id="g1151"
             transform="matrix(1.9664357,0,0,1.9664357,-153.98645,0.218369)"
             style="fill:#ffffff;filter:url(#filter2517-3-6-5)">
            <path
               id="circle1147"
               style="fill-rule:evenodd;stroke-width:1.35259;stroke-linecap:round;stroke-linejoin:round"
               d="m 151.209,92.922531 a 4.0577559,4.0577559 0 0 1 -4.05775,4.057756 4.0577559,4.0577559 0 0 1 -4.05776,-4.057756 4.0577559,4.0577559 0 0 1 4.05776,-4.057756 4.0577559,4.0577559 0 0 1 4.05775,4.057756 z" />
            <path
               id="rect1149"
               style="fill-rule:evenodd;stroke-width:0.725764;stroke-linecap:round;stroke-linejoin:bevel;paint-order:markers fill stroke"
               d="m 145.57661,92.378967 h 3.07807 v 1.086373 h -3.07807 z" />
          </g>
          <g
             id="g1159"
             transform="translate(-11.51919,8.1784423)">
            <path
               style="color:#000000;fill:#de2500;fill-rule:evenodd;stroke-linecap:round;stroke-linejoin:round;-inkscape-stroke:none"
               d="m 146.88867,170.04102 c -2.60653,0 -4.73437,2.12784 -4.73437,4.73437 0,2.60653 2.12784,4.73438 4.73437,4.73438 2.60653,0 4.73438,-2.12785 4.73438,-4.73438 0,-2.60653 -2.12785,-4.73437 -4.73438,-4.73437 z m 0,1.35351 c 1.87554,0 3.38086,1.50532 3.38086,3.38086 0,1.87554 -1.50532,3.38086 -3.38086,3.38086 -1.87554,0 -3.38086,-1.50532 -3.38086,-3.38086 0,-1.87554 1.50532,-3.38086 3.38086,-3.38086 z"
               id="circle1153" />
            <g
               id="rect1155">
              <path
                 style="color:#000000;fill:#e02500;fill-rule:evenodd;stroke-width:0.725764;stroke-linecap:round;stroke-linejoin:bevel;-inkscape-stroke:none;paint-order:markers fill stroke"
                 d="m 146.42416,172.18327 h 0.93549 v 5.09994 h -0.93549 z"
                 id="path3613" />
              <path
                 style="color:#000000;fill:#e02500;fill-rule:evenodd;stroke-linecap:round;stroke-linejoin:bevel;-inkscape-stroke:none;paint-order:markers fill stroke"
                 d="m 146.42383,171.82031 -0.36328,0.36328 v 5.09961 l 0.36328,0.36328 h 0.93554 l 0.36329,-0.36328 v -5.09961 l -0.36329,-0.36328 z m 0.36328,0.72656 h 0.20898 v 4.37305 h -0.20898 z"
                 id="path3615" />
            </g>
            <g
               id="rect1157"
               transform="rotate(90)">
              <path
                 style="color:#000000;fill:#e02500;fill-rule:evenodd;stroke-width:0.725764;stroke-linecap:round;stroke-linejoin:bevel;-inkscape-stroke:none;paint-order:markers fill stroke"
                 d="m 174.2655,-149.44188 h 0.93549 v 5.09993 h -0.93549 z"
                 id="path3619" />
              <path
                 style="color:#000000;fill:#e02500;fill-rule:evenodd;stroke-linecap:round;stroke-linejoin:bevel;-inkscape-stroke:none;paint-order:markers fill stroke"
                 d="m 174.26562,-149.80469 -0.36328,0.36328 v 5.09961 l 0.36328,0.36328 h 0.93555 l 0.36328,-0.36328 v -5.09961 l -0.36328,-0.36328 z m 0.36329,0.72657 h 0.20898 v 4.37304 h -0.20898 z"
                 id="path3621" />
            </g>
          </g>
        </g>
      </g>
      <path
         style="color:#000000;fill:url(#linearGradient1171);fill-rule:evenodd;stroke-linecap:round;stroke-linejoin:bevel;-inkscape-stroke:none;paint-order:markers fill stroke;filter:url(#filter45936)"
         d="m 156.37305,41.644531 c -3.7829,0 -7.13889,2.308355 -9.48828,5.841797 -2.3494,3.533443 -3.76172,8.32799 -3.76172,13.607422 0,5.279432 1.41232,10.073979 3.76172,13.607422 2.34939,3.533442 5.70538,5.84375 9.48828,5.84375 3.7829,0 7.14084,-2.310308 9.49023,-5.84375 2.3494,-3.533443 3.76172,-8.32799 3.76172,-13.607422 0,-5.279432 -1.41232,-10.073979 -3.76172,-13.607422 -2.34939,-3.533442 -5.70733,-5.841797 -9.49023,-5.841797 z m 0,1.898438 c 3.01073,0 5.80552,1.833706 7.9082,4.996093 2.10268,3.162388 3.44336,7.616629 3.44336,12.554688 0,4.938059 -1.34068,9.394254 -3.44336,12.556641 -2.10268,3.162387 -4.89747,4.99414 -7.9082,4.99414 -3.01073,0 -5.80357,-1.831753 -7.90625,-4.99414 -2.10268,-3.162387 -3.44336,-7.618582 -3.44336,-12.556641 0,-4.938059 1.34068,-9.3923 3.44336,-12.554688 2.10268,-3.162387 4.89552,-4.996093 7.90625,-4.996093 z"
         id="ellipse1165"
         transform="matrix(2.5679904,0,0,2.5679904,1101.1517,1306.3373)" />
      <path
         style="color:#000000;fill:url(#linearGradient1173);fill-rule:evenodd;stroke-linecap:round;stroke-linejoin:bevel;stroke-dasharray:7.70398, 23.1119;-inkscape-stroke:none;paint-order:markers fill stroke"
         d="m 1504.4258,1412.1641 c -2.294,-0.1912 -4.6123,0 -6.8399,0.5742 a 1.92599,1.92599 0 0 0 -1.3886,2.3437 1.92599,1.92599 0 0 0 2.3418,1.3887 c 1.8116,-0.463 3.7053,-0.6238 5.5664,-0.4687 0.4365,0.037 0.866,0.089 1.2871,0.1582 a 1.92599,1.92599 0 0 0 2.2129,-1.5879 1.92599,1.92599 0 0 0 -1.5879,-2.2129 c -0.5331,-0.088 -1.0648,-0.1512 -1.5918,-0.1953 z m 19.5898,13.7461 a 1.92599,1.92599 0 0 0 -1.4531,0.2539 1.92599,1.92599 0 0 0 -0.5918,2.6582 c 1.318,2.0754 2.4637,4.2729 3.459,6.5449 a 1.92599,1.92599 0 0 0 2.5371,0.9902 1.92599,1.92599 0 0 0 0.9902,-2.5371 c -1.0651,-2.4314 -2.3007,-4.8019 -3.7363,-7.0625 a 1.92599,1.92599 0 0 0 -1.2051,-0.8476 z m -43.5508,1.4707 a 1.92599,1.92599 0 0 0 -1.1738,0.8906 c -1.3474,2.3067 -2.5041,4.7112 -3.4961,7.1699 a 1.92599,1.92599 0 0 0 1.0645,2.5078 1.92599,1.92599 0 0 0 2.5078,-1.0664 c 0.9294,-2.3036 2.0067,-4.5394 3.25,-6.668 a 1.92599,1.92599 0 0 0 -0.6934,-2.6347 1.92599,1.92599 0 0 0 -1.459,-0.1992 z m 51.9551,27.6621 a 1.92599,1.92599 0 0 0 -1.7715,2.0683 c 0.1581,2.0335 0.2363,4.0738 0.2364,6.1153 -4e-4,2.5086 -0.117,5.0154 -0.3575,7.5078 a 1.92599,1.92599 0 0 0 1.7325,2.1015 1.92599,1.92599 0 0 0 2.1015,-1.7324 c 0.2528,-2.6199 0.3746,-5.2497 0.375,-7.8769 0,-2.1392 -0.082,-4.2795 -0.248,-6.4141 a 1.92599,1.92599 0 0 0 -2.0684,-1.7695 z m -59.5586,1.6953 a 1.92599,1.92599 0 0 0 -2.0312,1.8144 c -0.1486,2.6258 -0.1708,5.257 -0.07,7.8828 a 1.92599,1.92599 0 0 0 1.998,1.8516 1.92599,1.92599 0 0 0 1.8516,-1.998 c -0.096,-2.5063 -0.075,-5.0176 0.066,-7.5196 a 1.92599,1.92599 0 0 0 -1.8145,-2.0312 z m 3.5235,30.414 a 1.92599,1.92599 0 0 0 -1.127,2.4805 c 0.9312,2.4801 2.0239,4.9107 3.3008,7.252 a 1.92599,1.92599 0 0 0 2.6133,0.7675 1.92599,1.92599 0 0 0 0.7676,-2.6113 c -1.1825,-2.168 -2.2023,-4.4343 -3.0762,-6.7617 a 1.92599,1.92599 0 0 0 -2.4785,-1.127 z m 49.5625,4.2012 a 1.92599,1.92599 0 0 0 -1.0879,0.9922 c -1.0536,2.243 -2.2606,4.4035 -3.6426,6.4297 a 1.92599,1.92599 0 0 0 0.5059,2.6777 1.92599,1.92599 0 0 0 2.6777,-0.5058 c 1.5125,-2.2175 2.8157,-4.5582 3.9453,-6.9629 a 1.92599,1.92599 0 0 0 -0.9258,-2.5625 1.92599,1.92599 0 0 0 -1.4726,-0.068 z m -28.6504,18.2656 a 1.92599,1.92599 0 0 0 -2.4356,1.2188 1.92599,1.92599 0 0 0 1.2168,2.4355 c 0.6579,0.2196 1.3253,0.4079 2,0.5625 v -0 c 2.0819,0.4778 4.2348,0.6352 6.3672,0.4551 a 1.92599,1.92599 0 0 0 1.7578,-2.0821 1.92599,1.92599 0 0 0 -2.082,-1.7558 c -1.729,0.146 -3.4868,0.018 -5.1816,-0.3711 -0.5546,-0.1271 -1.1042,-0.2812 -1.6426,-0.461 z"
         id="ellipse1167" />
    </g>
    <g
       id="g1493"
       transform="matrix(0.34115692,-2.0170071,2.0170071,0.34115692,-1906.9677,4123.2598)">
      <g
         id="g1487"
         transform="matrix(2.5679904,0,0,2.5679904,1125.7217,1306.3373)">
        <g
           id="g1469"
           transform="matrix(0.16284797,0.78739692,-0.78739692,0.16284797,205.5674,-85.497149)">
          <g
             id="g1461"
             transform="matrix(1.9664357,0,0,1.9664357,-134.61795,-76.951813)"
             style="fill:#ffffff;filter:url(#filter2517-39-8)">
            <path
               id="circle1457"
               style="fill-rule:evenodd;stroke-width:1.35259;stroke-linecap:round;stroke-linejoin:round"
               d="m 151.209,92.922531 a 4.0577559,4.0577559 0 0 1 -4.05775,4.057756 4.0577559,4.0577559 0 0 1 -4.05776,-4.057756 4.0577559,4.0577559 0 0 1 4.05776,-4.057756 4.0577559,4.0577559 0 0 1 4.05775,4.057756 z" />
            <path
               id="rect1459"
               style="fill-rule:evenodd;stroke-width:0.725764;stroke-linecap:round;stroke-linejoin:bevel;paint-order:markers fill stroke"
               d="m 145.57661,92.378967 h 3.07807 v 1.086373 h -3.07807 z" />
          </g>
          <g
             id="g1467"
             transform="translate(7.5942678,12.851838)">
            <path
               style="color:#000000;fill:#0073de;fill-rule:evenodd;stroke-linecap:round;stroke-linejoin:round;-inkscape-stroke:none"
               d="m 147.15039,88.189453 c -2.60653,0 -4.73242,2.125891 -4.73242,4.732422 0,2.606531 2.12589,4.734375 4.73242,4.734375 2.60653,0 4.73438,-2.127844 4.73438,-4.734375 0,-2.606531 -2.12785,-4.732422 -4.73438,-4.732422 z m 0,1.351563 c 1.87554,0 3.38281,1.505321 3.38281,3.380859 0,1.875538 -1.50727,3.382812 -3.38281,3.382812 -1.87554,0 -3.38086,-1.507274 -3.38086,-3.382812 0,-1.875538 1.50532,-3.380859 3.38086,-3.380859 z"
               id="circle1463" />
            <g
               id="rect1465">
              <path
                 style="color:#000000;fill:#0074e0;fill-rule:evenodd;stroke-width:0.725764;stroke-linecap:round;stroke-linejoin:bevel;-inkscape-stroke:none;paint-order:markers fill stroke"
                 d="m 145.57661,92.378967 h 3.07807 v 1.086373 h -3.07807 z"
                 id="path3641" />
              <path
                 style="color:#000000;fill:#0074e0;fill-rule:evenodd;stroke-linecap:round;stroke-linejoin:bevel;-inkscape-stroke:none;paint-order:markers fill stroke"
                 d="m 145.57617,92.015625 -0.36328,0.363281 v 1.085938 l 0.36328,0.363281 h 3.07813 l 0.36328,-0.363281 v -1.085938 l -0.36328,-0.363281 z m 0.36328,0.726562 h 2.35157 v 0.359375 h -2.35157 z"
                 id="path3643" />
            </g>
          </g>
        </g>
        <g
           id="g1485"
           transform="matrix(0.80406055,0,0,0.80406055,38.223105,-77.590126)">
          <g
             id="g1475"
             transform="matrix(1.9664357,0,0,1.9664357,-153.98645,0.218369)"
             style="fill:#ffffff;filter:url(#filter2517-3-6-5)">
            <path
               id="circle1471"
               style="fill-rule:evenodd;stroke-width:1.35259;stroke-linecap:round;stroke-linejoin:round"
               d="m 151.209,92.922531 a 4.0577559,4.0577559 0 0 1 -4.05775,4.057756 4.0577559,4.0577559 0 0 1 -4.05776,-4.057756 4.0577559,4.0577559 0 0 1 4.05776,-4.057756 4.0577559,4.0577559 0 0 1 4.05775,4.057756 z" />
            <path
               id="rect1473"
               style="fill-rule:evenodd;stroke-width:0.725764;stroke-linecap:round;stroke-linejoin:bevel;paint-order:markers fill stroke"
               d="m 145.57661,92.378967 h 3.07807 v 1.086373 h -3.07807 z" />
          </g>
          <g
             id="g1483"
             transform="rotate(-11.77168,180.79526,234.73413)">
            <path
               style="color:#000000;fill:#de2500;fill-rule:evenodd;stroke-linecap:round;stroke-linejoin:round;-inkscape-stroke:none"
               d="m 146.88867,170.04102 c -2.60653,0 -4.73437,2.12784 -4.73437,4.73437 0,2.60653 2.12784,4.73438 4.73437,4.73438 2.60653,0 4.73438,-2.12785 4.73438,-4.73438 0,-2.60653 -2.12785,-4.73437 -4.73438,-4.73437 z m 0,1.35351 c 1.87554,0 3.38086,1.50532 3.38086,3.38086 0,1.87554 -1.50532,3.38086 -3.38086,3.38086 -1.87554,0 -3.38086,-1.50532 -3.38086,-3.38086 0,-1.87554 1.50532,-3.38086 3.38086,-3.38086 z"
               id="circle1477" />
            <g
               id="rect1479">
              <path
                 style="color:#000000;fill:#e02500;fill-rule:evenodd;stroke-width:0.725764;stroke-linecap:round;stroke-linejoin:bevel;-inkscape-stroke:none;paint-order:markers fill stroke"
                 d="m 146.42416,172.18327 h 0.93549 v 5.09994 h -0.93549 z"
                 id="path3655" />
              <path
                 style="color:#000000;fill:#e02500;fill-rule:evenodd;stroke-linecap:round;stroke-linejoin:bevel;-inkscape-stroke:none;paint-order:markers fill stroke"
                 d="m 146.42383,171.82031 -0.36328,0.36328 v 5.09961 l 0.36328,0.36328 h 0.93554 l 0.36329,-0.36328 v -5.09961 l -0.36329,-0.36328 z m 0.36328,0.72656 h 0.20898 v 4.37305 h -0.20898 z"
                 id="path3657" />
            </g>
            <g
               id="rect1481"
               transform="rotate(90)">
              <path
                 style="color:#000000;fill:#e02500;fill-rule:evenodd;stroke-width:0.725764;stroke-linecap:round;stroke-linejoin:bevel;-inkscape-stroke:none;paint-order:markers fill stroke"
                 d="m 174.2655,-149.44188 h 0.93549 v 5.09993 h -0.93549 z"
                 id="path3661" />
              <path
                 style="color:#000000;fill:#e02500;fill-rule:evenodd;stroke-linecap:round;stroke-linejoin:bevel;-inkscape-stroke:none;paint-order:markers fill stroke"
                 d="m 174.26562,-149.80469 -0.36328,0.36328 v 5.09961 l 0.36328,0.36328 h 0.93555 l 0.36328,-0.36328 v -5.09961 l -0.36328,-0.36328 z m 0.36329,0.72657 h 0.20898 v 4.37304 h -0.20898 z"
                 id="path3663" />
            </g>
          </g>
        </g>
      </g>
      <path
         style="color:#000000;fill:url(#linearGradient1495);fill-rule:evenodd;stroke-linecap:round;stroke-linejoin:bevel;-inkscape-stroke:none;paint-order:markers fill stroke;filter:url(#filter45936)"
         d="m 156.37305,41.644531 c -3.7829,0 -7.13889,2.308355 -9.48828,5.841797 -2.3494,3.533443 -3.76172,8.32799 -3.76172,13.607422 0,5.279432 1.41232,10.073979 3.76172,13.607422 2.34939,3.533442 5.70538,5.84375 9.48828,5.84375 3.7829,0 7.14084,-2.310308 9.49023,-5.84375 2.3494,-3.533443 3.76172,-8.32799 3.76172,-13.607422 0,-5.279432 -1.41232,-10.073979 -3.76172,-13.607422 -2.34939,-3.533442 -5.70733,-5.841797 -9.49023,-5.841797 z m 0,1.898438 c 3.01073,0 5.80552,1.833706 7.9082,4.996093 2.10268,3.162388 3.44336,7.616629 3.44336,12.554688 0,4.938059 -1.34068,9.394254 -3.44336,12.556641 -2.10268,3.162387 -4.89747,4.99414 -7.9082,4.99414 -3.01073,0 -5.80357,-1.831753 -7.90625,-4.99414 -2.10268,-3.162387 -3.44336,-7.618582 -3.44336,-12.556641 0,-4.938059 1.34068,-9.3923 3.44336,-12.554688 2.10268,-3.162387 4.89552,-4.996093 7.90625,-4.996093 z"
         id="ellipse1489"
         transform="matrix(2.5679904,0,0,2.5679904,1101.1517,1306.3373)" />
      <path
         style="color:#000000;fill:url(#linearGradient1497);fill-rule:evenodd;stroke-linecap:round;stroke-linejoin:bevel;stroke-dasharray:7.70398, 23.1119;-inkscape-stroke:none;paint-order:markers fill stroke"
         d="m 1504.4258,1412.1641 c -2.294,-0.1912 -4.6123,0 -6.8399,0.5742 a 1.92599,1.92599 0 0 0 -1.3886,2.3437 1.92599,1.92599 0 0 0 2.3418,1.3887 c 1.8116,-0.463 3.7053,-0.6238 5.5664,-0.4687 0.4365,0.037 0.866,0.089 1.2871,0.1582 a 1.92599,1.92599 0 0 0 2.2129,-1.5879 1.92599,1.92599 0 0 0 -1.5879,-2.2129 c -0.5331,-0.088 -1.0648,-0.1512 -1.5918,-0.1953 z m 19.5898,13.7461 a 1.92599,1.92599 0 0 0 -1.4531,0.2539 1.92599,1.92599 0 0 0 -0.5918,2.6582 c 1.318,2.0754 2.4637,4.2729 3.459,6.5449 a 1.92599,1.92599 0 0 0 2.5371,0.9902 1.92599,1.92599 0 0 0 0.9902,-2.5371 c -1.0651,-2.4314 -2.3007,-4.8019 -3.7363,-7.0625 a 1.92599,1.92599 0 0 0 -1.2051,-0.8476 z m -43.5508,1.4707 a 1.92599,1.92599 0 0 0 -1.1738,0.8906 c -1.3474,2.3067 -2.5041,4.7112 -3.4961,7.1699 a 1.92599,1.92599 0 0 0 1.0645,2.5078 1.92599,1.92599 0 0 0 2.5078,-1.0664 c 0.9294,-2.3036 2.0067,-4.5394 3.25,-6.668 a 1.92599,1.92599 0 0 0 -0.6934,-2.6347 1.92599,1.92599 0 0 0 -1.459,-0.1992 z m 51.9551,27.6621 a 1.92599,1.92599 0 0 0 -1.7715,2.0683 c 0.1581,2.0335 0.2363,4.0738 0.2364,6.1153 -4e-4,2.5086 -0.117,5.0154 -0.3575,7.5078 a 1.92599,1.92599 0 0 0 1.7325,2.1015 1.92599,1.92599 0 0 0 2.1015,-1.7324 c 0.2528,-2.6199 0.3746,-5.2497 0.375,-7.8769 0,-2.1392 -0.082,-4.2795 -0.248,-6.4141 a 1.92599,1.92599 0 0 0 -2.0684,-1.7695 z m -59.5586,1.6953 a 1.92599,1.92599 0 0 0 -2.0312,1.8144 c -0.1486,2.6258 -0.1708,5.257 -0.07,7.8828 a 1.92599,1.92599 0 0 0 1.998,1.8516 1.92599,1.92599 0 0 0 1.8516,-1.998 c -0.096,-2.5063 -0.075,-5.0176 0.066,-7.5196 a 1.92599,1.92599 0 0 0 -1.8145,-2.0312 z m 3.5235,30.414 a 1.92599,1.92599 0 0 0 -1.127,2.4805 c 0.9312,2.4801 2.0239,4.9107 3.3008,7.252 a 1.92599,1.92599 0 0 0 2.6133,0.7675 1.92599,1.92599 0 0 0 0.7676,-2.6113 c -1.1825,-2.168 -2.2023,-4.4343 -3.0762,-6.7617 a 1.92599,1.92599 0 0 0 -2.4785,-1.127 z m 49.5625,4.2012 a 1.92599,1.92599 0 0 0 -1.0879,0.9922 c -1.0536,2.243 -2.2606,4.4035 -3.6426,6.4297 a 1.92599,1.92599 0 0 0 0.5059,2.6777 1.92599,1.92599 0 0 0 2.6777,-0.5058 c 1.5125,-2.2175 2.8157,-4.5582 3.9453,-6.9629 a 1.92599,1.92599 0 0 0 -0.9258,-2.5625 1.92599,1.92599 0 0 0 -1.4726,-0.068 z m -28.6504,18.2656 a 1.92599,1.92599 0 0 0 -2.4356,1.2188 1.92599,1.92599 0 0 0 1.2168,2.4355 c 0.6579,0.2196 1.3253,0.4079 2,0.5625 v -0 c 2.0819,0.4778 4.2348,0.6352 6.3672,0.4551 a 1.92599,1.92599 0 0 0 1.7578,-2.0821 1.92599,1.92599 0 0 0 -2.082,-1.7558 c -1.729,0.146 -3.4868,0.018 -5.1816,-0.3711 -0.5546,-0.1271 -1.1042,-0.2812 -1.6426,-0.461 z"
         id="ellipse1491" />
    </g>
    <path
       style="color:#000000;fill:#000000;stroke-linecap:round;-inkscape-stroke:none"
       d="m 856.33984,964.80273 a 5.6694999,5.6694999 0 0 0 -4.18554,1.14454 5.6694999,5.6694999 0 0 0 -1.00391,7.95507 c 29.6897,38.27536 67.65957,49.23746 110.61523,54.14846 35.93494,4.1082 75.78808,4.418 119.66018,13.1465 -1.872,5.0522 -4.9489,9.6818 -9.1446,13.4257 a 1.6436693,1.6436693 0 0 0 1.3321,2.8536 l 60.584,-8.8184 a 1.6436693,1.6436693 0 0 0 0.6367,-3.0195 l -51.8652,-32.5313 a 1.6436693,1.6436693 0 0 0 -2.377,2.0547 c 2.1162,4.8073 3.0777,9.8913 2.9609,14.8906 -45.0661,-8.981 -85.49129,-9.2654 -120.49801,-13.2675 -41.875,-4.7874 -75.43651,-14.3683 -102.94531,-49.83208 a 5.6694999,5.6694999 0 0 0 -3.76954,-2.15039 z"
       transform="translate(303.70653,522.68733)"
       id="path3417" />
    <g
       id="path4719">
      <g
         id="g3793">
        <g
           id="path3795" />
      </g>
    </g>
    <g
       id="path6019">
      <g
         id="g3811">
        <g
           id="path3813" />
      </g>
    </g>
    <path
       style="color:#000000;fill:url(#linearGradient10209);-inkscape-stroke:none;filter:url(#filter10181)"
       d="m 93.064453,114.82813 -1.958984,1.21484 c 1.363693,2.19975 3.127972,2.77456 3.982422,3.0957 0.427224,0.16057 0.537616,0.23059 0.626953,0.35742 0.08934,0.12684 0.246978,0.49545 0.255859,1.42383 0.0048,2.50009 -0.132666,4.44477 0.855469,5.98047 0.494643,0.76875 1.433564,1.29442 2.419922,1.33398 0.986356,0.0396 2.039406,-0.24796 3.351566,-0.78515 1.11771,-0.45759 2.04523,-0.61691 2.71093,-0.58203 0.66571,0.0349 1.04008,0.23227 1.2793,0.49219 0.47845,0.51983 0.67872,1.82146 -0.41601,3.97656 -1.32194,2.60241 -1.4694,5.04726 -0.0586,6.58008 0.7054,0.7664 1.73427,1.17182 2.85352,1.23046 1.11924,0.0587 2.35691,-0.19726 3.70703,-0.75 1.11772,-0.45758 2.04522,-0.61691 2.71094,-0.58203 0.66571,0.0349 1.04007,0.23227 1.27929,0.49219 0.47846,0.51983 0.67871,1.82147 -0.41601,3.97656 -1.32194,2.60242 -1.4694,5.04727 -0.0586,6.58008 0.7054,0.76641 1.73428,1.17378 2.85352,1.23242 1.11924,0.0587 2.35691,-0.19922 3.70703,-0.75195 1.11771,-0.45759 2.04523,-0.61691 2.71094,-0.58203 0.6657,0.0349 1.04007,0.23227 1.27929,0.49219 0.47846,0.51983 0.67675,1.82146 -0.41796,3.97656 -1.32195,2.6024 -1.4694,5.04726 -0.0586,6.58008 0.7054,0.7664 1.73623,1.17377 2.85547,1.23242 1.11924,0.0587 2.35495,-0.19922 3.70508,-0.75195 1.11771,-0.45759 2.04718,-0.61692 2.71289,-0.58204 0.66571,0.0349 1.04007,0.23228 1.2793,0.49219 0.47845,0.51983 0.67674,1.82146 -0.41797,3.97656 -1.32193,2.60241 -1.4694,5.04727 -0.0586,6.58008 0.7054,0.76641 1.73623,1.17378 2.85547,1.23242 1.11924,0.0587 2.35497,-0.19726 3.70508,-0.75 1.11772,-0.45758 2.04718,-0.61691 2.71289,-0.58203 0.66571,0.0349 1.04007,0.23032 1.2793,0.49024 0.47845,0.51983 0.67676,1.82146 -0.41797,3.97656 -1.32195,2.60241 -1.4694,5.04726 -0.0586,6.58008 0.7054,0.76641 1.73622,1.17377 2.85546,1.23242 1.11925,0.0587 2.35496,-0.19727 3.70508,-0.75 1.11772,-0.45759 2.04719,-0.61691 2.71289,-0.58203 0.66571,0.0349 1.04007,0.23032 1.2793,0.49023 0.47845,0.51984 0.67676,1.82148 -0.41797,3.97657 -1.32194,2.60241 -1.46939,5.04726 -0.0586,6.58007 0.7054,0.76641 1.73623,1.17378 2.85547,1.23243 1.11924,0.0586 2.35496,-0.19727 3.70507,-0.75 1.11772,-0.45759 2.04718,-0.61692 2.71289,-0.58204 0.66572,0.0349 1.04008,0.23032 1.2793,0.49024 0.47846,0.51983 0.67675,1.82146 -0.41797,3.97656 -1.32193,2.60241 -1.46939,5.04922 -0.0586,6.58203 0.7054,0.76641 1.73623,1.17183 2.85547,1.23047 1.11924,0.0587 2.35495,-0.19726 3.70508,-0.75 l -0.87305,-2.13281 c -1.11772,0.45759 -2.04719,0.61691 -2.71289,0.58203 -0.66571,-0.0349 -1.04007,-0.23227 -1.2793,-0.49219 -0.47845,-0.51982 -0.67674,-1.82147 0.41797,-3.97656 1.32194,-2.60242 1.4694,-5.04726 0.0586,-6.58008 -0.7054,-0.76641 -1.73427,-1.17182 -2.85351,-1.23047 -1.11925,-0.0586 -2.35691,0.19727 -3.70703,0.75 -1.11771,0.45759 -2.04719,0.61692 -2.71289,0.58203 -0.66571,-0.0349 -1.04007,-0.23227 -1.2793,-0.49218 -0.47845,-0.51983 -0.67674,-1.82148 0.41797,-3.97657 1.32195,-2.60241 1.46939,-5.04725 0.0586,-6.58007 -0.7054,-0.76641 -1.73427,-1.17378 -2.85351,-1.23243 -1.11925,-0.0586 -2.35691,0.19922 -3.70703,0.75196 -1.11772,0.45758 -2.04523,0.61691 -2.71094,0.58203 -0.66571,-0.0349 -1.04202,-0.23227 -1.28125,-0.49219 -0.47846,-0.51983 -0.67676,-1.82148 0.41797,-3.97656 1.32195,-2.60243 1.4694,-5.04726 0.0586,-6.58008 -0.7054,-0.76641 -1.73427,-1.17378 -2.85352,-1.23242 -1.11924,-0.0587 -2.3569,0.19922 -3.70703,0.75195 -1.1177,0.45758 -2.04523,0.61692 -2.71093,0.58203 -0.66571,-0.0349 -1.04007,-0.23227 -1.2793,-0.49218 -0.47846,-0.51984 -0.67869,-1.82149 0.41601,-3.97657 1.32195,-2.60242 1.4694,-5.04726 0.0586,-6.58008 -0.7054,-0.7664 -1.73427,-1.17377 -2.85352,-1.23242 -1.11924,-0.0586 -2.35691,0.19727 -3.70703,0.75 -1.11772,0.45759 -2.04523,0.61692 -2.71094,0.58203 -0.6657,-0.0349 -1.04007,-0.23032 -1.27929,-0.49023 -0.47845,-0.51983 -0.67871,-1.82149 0.41601,-3.97656 1.32194,-2.60243 1.4694,-5.04726 0.0586,-6.58008 -0.7054,-0.76641 -1.73427,-1.17378 -2.85352,-1.23242 -1.11924,-0.0587 -2.35691,0.19726 -3.70703,0.75 -1.11771,0.45758 -2.04523,0.61691 -2.71094,0.58203 -0.6657,-0.0349 -1.04007,-0.23032 -1.27929,-0.49024 -0.47846,-0.51983 -0.6787,-1.82147 0.41601,-3.97656 1.32195,-2.60242 1.47136,-5.04726 0.0605,-6.58008 -0.70541,-0.7664 -1.73622,-1.17377 -2.85547,-1.23242 -1.11925,-0.0586 -2.35495,0.19727 -3.70508,0.75 -1.11771,0.45759 -2.04719,0.61691 -2.71289,0.58203 -0.6657,-0.0349 -1.04007,-0.23032 -1.2793,-0.49023 -0.47845,-0.51983 -0.67674,-1.82147 0.41797,-3.97656 1.32196,-2.60243 1.4694,-5.04922 0.0586,-6.58203 -0.7054,-0.76641 -1.73623,-1.17183 -2.85547,-1.23047 -1.11925,-0.0587 -2.35496,0.19726 -3.70508,0.75 -1.15569,0.47313 -1.967339,0.63205 -2.386719,0.61523 -0.419381,-0.0168 -0.427606,-0.0495 -0.574219,-0.27734 -0.293227,-0.45572 -0.48314,-2.25712 -0.488281,-4.74805 v -0.004 -0.004 c -0.01117,-1.16761 -0.19352,-2.04383 -0.675782,-2.72852 -0.482261,-0.68469 -1.175336,-0.99182 -1.701172,-1.18945 -1.051671,-0.39526 -1.786222,-0.46221 -2.833984,-2.15234 z"
       id="path2020"
       transform="matrix(-5.5851334,-2.7693189,2.7693189,-5.5851334,1315.0681,2171.6372)" />
    <g
       id="path1871"
       style="filter:url(#filter82878);opacity:0.30923695"
       transform="matrix(-5.5851334,-2.7693189,2.7693189,-5.5851334,1315.0681,2171.6372)">
      <path
         style="color:#000000;fill:#7aff28;stroke-width:1.15931;-inkscape-stroke:none"
         d="m 89.874035,113.28326 -2.453477,-2.45949"
         id="path3839" />
      <path
         style="color:#000000;fill:#daffc3;-inkscape-stroke:none"
         d="m 87.830078,110.41406 -0.820312,0.81836 2.453125,2.46094 0.822265,-0.82031 z"
         id="path3841" />
      <g
         id="g3829">
        <g
           id="path3831">
          <path
             style="color:#000000;fill:#daffc3;fill-rule:evenodd;stroke-width:0.797026;stroke-linejoin:round;-inkscape-stroke:none"
             d="m 92.531588,123.23094 -6.212805,-13.48273 13.46748,6.24579 c -3.713622,0.56045 -6.634614,3.49241 -7.254675,7.23694 z"
             id="path3835" />
          <path
             style="color:#000000;fill:#daffc3;fill-rule:evenodd;stroke-linejoin:round;-inkscape-stroke:none"
             d="m 86.486328,109.38672 a 0.39855284,0.39855284 0 0 0 -0.529297,0.52734 l 6.212891,13.48438 a 0.39855284,0.39855284 0 0 0 0.753906,-0.10156 c 0.592584,-3.5786 3.380554,-6.37376 6.921875,-6.90821 a 0.39855284,0.39855284 0 0 0 0.107422,-0.75586 z m 0.648438,1.17969 11.566406,5.36328 c -3.02664,0.84495 -5.349944,3.17889 -6.226563,6.22656 z"
             id="path3837" />
        </g>
      </g>
    </g>
    <path
       style="color:#000000;fill:#348800;stroke-width:6.23401;-inkscape-stroke:none;opacity:0.30923695"
       d="m 1124.9451,1290.6753 3.7638,-1.2595 -6.8859,-20.5381 -3.7692,1.2704 z"
       id="path3855" />
    <path
       style="color:#000000;fill:url(#linearGradient6292);fill-rule:evenodd;stroke-width:2.73723;stroke-linejoin:round;-inkscape-stroke:none;fill-opacity:1"
       d="m 913.02881,555.95685 -0.50977,7.14063 c 7.90188,0.56778 14.02659,2.32189 18.26758,4.70898 4.24112,2.38681 6.56452,5.27718 7.48242,8.42578 1.83576,6.29726 -1.94428,15.48091 -14.65625,24.95508 -13.9604,10.40468 -20.2718,22.28652 -17.24023,32.68555 1.51572,5.19948 5.36483,9.5778 10.83398,12.65625 5.46913,3.0785 12.59225,4.99155 21.27148,5.61523 7.90188,0.56778 14.0266,2.3219 18.26758,4.70899 4.24085,2.38736 6.56651,5.27712 7.48438,8.42578 1.83579,6.2972 -1.94629,15.48088 -14.65821,24.95508 -13.96048,10.40457 -20.26976,22.28649 -17.23828,32.68554 1.51573,5.19949 5.36481,9.57786 10.83399,12.65625 5.46912,3.0785 12.58058,4.98572 21.25976,5.60938 7.90188,0.56778 14.03245,2.33752 18.27344,4.72461 4.24113,2.3868 6.57041,5.2654 7.48828,8.41406 1.83582,6.29729 -1.94425,15.48294 -14.65625,24.95703 -13.96051,10.40463 -20.27174,22.28459 -17.24023,32.68359 1.51578,5.19952 5.3667,9.57979 10.83594,12.65821 5.46912,3.0785 12.58055,4.98382 21.25976,5.60742 7.9018,0.56781 14.03252,2.33945 18.27342,4.72656 4.2409,2.38737 6.5587,5.25955 7.4766,8.4082 1.8358,6.29729 -1.9326,15.48675 -14.6446,24.96094 -13.96036,10.40469 -20.27755,22.29827 -17.24604,32.69727 1.51578,5.19951 5.37066,9.56614 10.83984,12.64453 5.4691,3.0785 12.5825,4.98569 21.2617,5.60937 7.9019,0.56779 14.0325,2.33753 18.2735,4.72461 4.2408,2.38737 6.5586,5.26156 7.4765,8.41016 1.8358,6.29726 -1.9345,15.48685 -14.6465,24.96094 -13.9604,10.40468 -20.2756,22.29631 -17.2441,32.69531 1.5158,5.19951 5.3589,9.56221 10.8281,12.64062 5.4691,3.0785 12.5922,4.9897 21.2715,5.6133 7.9019,0.5678 14.0324,2.3395 18.2734,4.7265 4.2409,2.3874 6.5606,5.2596 7.4786,8.4083 1.8357,6.2972 -1.9345,15.4867 -14.6465,24.9609 -13.9605,10.4046 -20.2874,22.2924 -17.2559,32.6914 1.5158,5.1995 5.3706,9.5681 10.8399,12.6465 5.4691,3.0785 12.5864,4.9994 21.2656,5.623 7.9019,0.5678 14.0383,2.3278 18.2793,4.7149 4.2408,2.3873 6.5548,5.2732 7.4726,8.4218 1.8358,6.2973 -1.9287,15.4751 -14.6406,24.9493 -13.9606,10.4046 -20.2873,22.2924 -17.2558,32.6914 1.5157,5.1995 5.3706,9.5661 10.8398,12.6445 5.4691,3.0785 12.5864,5.0014 21.2656,5.625 8.029,0.5769 13.4308,1.922 16.5059,3.6035 3.0751,1.6813 3.9892,3.2271 4.289,5.9063 0.5997,5.3584 -3.881,15.9181 -10.7597,29.8633 l -0,0.012 -0.01,0.012 c -3.008,6.215 -4.1128,10.8861 -3.4785,14.9902 0.6342,4.104 3.0022,7.0019 5.2793,9.4414 1.4351,1.5375 2.9062,2.998 4.3007,4.6562 -4.3466,0.7408 -8.885,0.4703 -13.2656,-0.9355 a 1.3687539,1.3687539 0 0 0 -1.4902,2.1562 l 31.916,39.7579 a 1.3687539,1.3687539 0 0 0 2.4316,-0.8184 l 1.4571,-50.9629 a 1.3687539,1.3687539 0 0 0 -2.4805,-0.8359 c -3.0122,4.1801 -6.9755,7.3748 -11.416,9.4199 -2.1764,-3.1612 -4.4735,-5.4486 -6.2188,-7.3184 -2.0539,-2.2005 -3.1286,-3.6351 -3.4394,-5.6465 -0.3109,-2.0113 0.1494,-5.2383 2.834,-10.7851 6.8913,-13.97 12.4902,-24.4826 11.4472,-33.8027 -0.5218,-4.6629 -3.3506,-8.8604 -7.9707,-11.3868 -4.6199,-2.5266 -10.8579,-3.8464 -19.4101,-4.4609 -7.9019,-0.5678 -14.0383,-2.3278 -18.2793,-4.7148 -4.2412,-2.3868 -6.5548,-5.2713 -7.4727,-8.42 -1.8358,-6.2973 1.9344,-15.4867 14.6465,-24.9609 13.9604,-10.4046 20.2717,-22.2865 17.2402,-32.6855 -1.5158,-5.1995 -5.3667,-9.5779 -10.8359,-12.6563 -5.4691,-3.0785 -12.5805,-4.9857 -21.2598,-5.6094 -7.9018,-0.5678 -14.0382,-2.3258 -18.2793,-4.7129 -4.2411,-2.3868 -6.5528,-5.2732 -7.4707,-8.4218 -1.8358,-6.2973 1.9325,-15.4868 14.6446,-24.961 13.9603,-10.4046 20.2717,-22.2846 17.2402,-32.6836 -1.5158,-5.1995 -5.355,-9.5739 -10.8242,-12.6523 -5.4691,-3.0785 -12.5922,-4.9897 -21.2715,-5.6133 -7.9019,-0.5678 -14.0325,-2.33948 -18.2734,-4.72656 -4.2409,-2.38737 -6.5587,-5.25952 -7.4766,-8.40821 -1.8358,-6.29726 1.9345,-15.48665 14.6465,-24.96093 13.9604,-10.40449 20.2814,-22.28072 17.25,-32.67969 -1.5158,-5.19952 -5.3668,-9.57786 -10.836,-12.65625 -5.4691,-3.0785 -12.5903,-4.99156 -21.2695,-5.61524 -7.9019,-0.56778 -14.0344,-2.33752 -18.27539,-4.72461 -4.24085,-2.38736 -6.55866,-5.26155 -7.47656,-8.41015 -1.83574,-6.29732 1.93449,-15.48671 14.64645,-24.96094 13.9604,-10.40463 20.2874,-22.29045 17.2559,-32.68945 -1.5158,-5.19946 -5.3707,-9.5681 -10.8398,-12.64649 -5.4692,-3.0785 -12.59236,-4.98962 -21.27153,-5.61328 -7.90191,-0.56786 -14.03245,-2.33947 -18.27344,-4.72656 -4.24113,-2.38681 -6.5587,-5.2615 -7.47656,-8.41016 -1.83582,-6.29728 1.94414,-15.48091 14.65625,-24.95508 13.9604,-10.40454 20.27568,-22.29636 17.24414,-32.69531 -1.51573,-5.19948 -5.37067,-9.56809 -10.83985,-12.64648 -5.46912,-3.0785 -12.5923,-4.98963 -21.27148,-5.61328 -7.90188,-0.56779 -14.03245,-2.33753 -18.27344,-4.72461 -4.24113,-2.38681 -6.55867,-5.26156 -7.47656,-8.41016 -1.83574,-6.29731 1.94425,-15.48099 14.65625,-24.95508 13.9604,-10.40468 20.2776,-22.29826 17.24609,-32.69726 -1.51572,-5.19949 -5.37261,-9.56615 -10.84179,-12.64453 -5.46913,-3.0785 -12.58651,-5.00138 -21.26563,-5.625 -7.90194,-0.56781 -14.02659,-2.3219 -18.26758,-4.70899 -4.24112,-2.3868 -6.56452,-5.27718 -7.48242,-8.42578 -1.83582,-6.29729 1.94035,-15.47109 14.65234,-24.94531 13.96038,-10.40463 20.27568,-22.29637 17.24414,-32.69531 -1.51578,-5.19952 -5.37066,-9.5681 -10.83984,-12.64649 -5.46918,-3.07852 -12.58636,-5.00137 -21.26562,-5.625 z"
       id="path3851" />
    <g
       id="path19768">
      <g
         id="g3867">
        <g
           id="path3869" />
      </g>
    </g>
    <g
       id="path22213">
      <g
         id="g3905">
        <g
           id="path3907" />
      </g>
    </g>
    <g
       id="g25189"
       transform="rotate(13.030487,-162.5554,1051.4743)">
      <g
         id="path25173">
        <g
           id="g3929">
          <g
             id="path3931" />
        </g>
      </g>
    </g>
    <g
       id="path25482">
      <g
         id="g3953">
        <g
           id="path3955" />
      </g>
    </g>
    <g
       id="g5444"
       transform="translate(-257.73164,-13.66957)"
       style="opacity:0.30923695">
      <rect
         style="fill:#ffffff;fill-opacity:1;stroke:none;stroke-width:11.3386;stroke-linecap:round;stroke-linejoin:round;filter:url(#filter5437)"
         id="rect5155"
         width="88.353981"
         height="186.90265"
         x="1209.5515"
         y="1190.3147"
         ry="26.432026" />
      <g
         aria-label="1"
         id="text1991"
         style="font-weight:300;font-stretch:condensed;font-size:195.835px;line-height:1.05;font-family:Bahnschrift;-inkscape-font-specification:'Bahnschrift Light Condensed';stroke-width:4.58987">
        <path
           d="m 1271.1268,1350.0315 h -23.7144 v -111.974 l -17.6901,8.3191 v -25.6268 l 17.3077,-9.7535 h 24.0968 z"
           style="font-weight:bold;-inkscape-font-specification:'Bahnschrift Bold Condensed'"
           id="path1292" />
      </g>
    </g>
    <g
       id="g5452"
       transform="translate(13.95347,392.90192)">
      <rect
         style="fill:#ffffff;fill-opacity:1;stroke:none;stroke-width:11.3386;stroke-linecap:round;stroke-linejoin:round;filter:url(#filter5437)"
         id="rect5446"
         width="88.353981"
         height="186.90265"
         x="1209.5515"
         y="1190.3147"
         ry="26.432026"
         transform="matrix(1.256625,0,0,0.98495,-308.99469,19.320681)" />
      <g
         aria-label="2"
         id="text5450"
         style="font-weight:300;font-stretch:condensed;font-size:195.835px;line-height:1.05;font-family:Bahnschrift;-inkscape-font-specification:'Bahnschrift Light Condensed';stroke-width:4.58987">
        <path
           d="m 1234.3122,1328.3252 28.0174,-48.7675 q 6.3111,-10.901 9.2754,-19.6027 3.0599,-8.7016 3.0599,-15.2996 v -1.8168 q 0,-5.068 -2.0081,-7.4586 -1.9124,-2.4861 -6.0242,-2.4861 -4.6855,0 -6.8848,3.0599 -2.1037,3.0599 -2.1037,9.5622 v 4.9724 h -24.0969 v -4.9724 q 0,-12.144 3.538,-20.0807 3.6337,-7.9367 10.8054,-11.8572 7.2673,-4.0161 18.2639,-4.0161 10.9966,0 18.1683,3.7292 7.2673,3.6337 10.8053,11.0922 3.6337,7.363 3.6337,18.5508 v 1.8169 q 0,7.6498 -3.3468,17.5945 -3.3468,9.9448 -10.136,22.7582 l -22.0888,41.5958 h 35.3803 v 23.3319 h -64.2583 z"
           style="font-weight:bold;-inkscape-font-specification:'Bahnschrift Bold Condensed'"
           id="path1355" />
      </g>
    </g>
    <g
       id="g138297"
       transform="translate(-784.63057,821.07889)">
      <g
         aria-label="D"
         id="text138295"
         style="font-weight:300;font-stretch:condensed;font-size:195.835px;line-height:1.05;font-family:Bahnschrift;-inkscape-font-specification:'Bahnschrift Light Condensed';stroke-width:4.58987">
        <path
           d="m 1207.0603,1362.9547 h 17.7858 q 4.7812,0 7.363,-2.8687 2.5818,-2.9643 2.5818,-8.2235 v -71.3344 q 0,-5.2593 -2.5818,-8.1279 -2.5818,-2.9643 -7.363,-2.9643 h -17.7858 v -22.7582 h 20.1764 q 9.9448,0 17.0208,3.7293 7.0761,3.6336 10.8054,10.7097 3.7293,6.9804 3.7293,16.7339 v 76.6893 q 0,9.7535 -3.7293,16.8296 -3.7293,6.9805 -10.901,10.7097 -7.0761,3.6337 -17.0208,3.6337 h -20.0808 z m -15.7777,-116.277 h 23.7144 v 139.0352 h -23.7144 z"
           style="font-weight:bold;-inkscape-font-specification:'Bahnschrift Bold Condensed';fill:#ffffff"
           id="path1250" />
      </g>
      <g
         aria-label="A"
         id="text139197"
         style="font-weight:300;font-stretch:condensed;font-size:195.835px;line-height:1.05;font-family:Bahnschrift;-inkscape-font-specification:'Bahnschrift Light Condensed';stroke-width:4.58987">
        <path
           d="m 1360.4958,653.68654 h 16.6383 l 33.181,139.0352 h -23.5231 l -17.9771,-91.1283 -17.977,91.1283 h -23.5231 z m -10.6141,95.24007 h 37.8665 v 22.18443 h -37.8665 z"
           style="font-weight:bold;-inkscape-font-specification:'Bahnschrift Bold Condensed';fill:#ffffff"
           id="path1271" />
      </g>
    </g>
  </g>
</svg>
