<?xml version="1.0" encoding="UTF-8" standalone="no"?>
<!-- Created with Inkscape (http://www.inkscape.org/) -->

<svg
   width="264.58334mm"
   height="264.58331mm"
   viewBox="0 0 264.58334 264.58331"
   version="1.1"
   id="svg5"
   inkscape:version="1.1.2 (b8e25be833, 2022-02-05)"
   sodipodi:docname="Qr code.svg"
   xmlns:inkscape="http://www.inkscape.org/namespaces/inkscape"
   xmlns:sodipodi="http://sodipodi.sourceforge.net/DTD/sodipodi-0.dtd"
   xmlns="http://www.w3.org/2000/svg"
   xmlns:svg="http://www.w3.org/2000/svg">
  <sodipodi:namedview
     id="namedview7"
     pagecolor="#ffffff"
     bordercolor="#666666"
     borderopacity="1.0"
     inkscape:pageshadow="2"
     inkscape:pageopacity="0.0"
     inkscape:pagecheckerboard="0"
     inkscape:document-units="mm"
     showgrid="false"
     inkscape:zoom="0.16592137"
     inkscape:cx="1612.2095"
     inkscape:cy="1000.4739"
     inkscape:window-width="1920"
     inkscape:window-height="1217"
     inkscape:window-x="-8"
     inkscape:window-y="-8"
     inkscape:window-maximized="1"
     inkscape:current-layer="layer1" />
  <defs
     id="defs2" />
  <g
     inkscape:label="Layer 1"
     inkscape:groupmode="layer"
     id="layer1"
     transform="translate(266.83524,1325.4364)">
    <path
       style="fill:#000000;stroke-width:0.264583"
       d="m -266.83524,-1088.8989 v -28.0458 h 28.04584 28.04583 v 28.0458 28.0458 h -28.04583 -28.04584 z m 48.15417,0 v -20.1083 h -20.10833 -20.10834 v 20.1083 20.1083 h 20.10834 20.10833 z m -32.27917,-0.1323 v -12.0385 h 12.03855 12.03854 v 12.0385 12.0385 h -12.03854 -12.03855 z m 48.15417,8.0698 v -20.1083 h 4.10105 4.10104 v 16.1395 16.1396 h 3.96875 3.96875 v 3.9688 3.9687 h -8.06979 -8.0698 z m 32.01459,12.0385 v -8.0698 h 4.10104 4.10104 v -3.9687 -3.9688 h -4.10104 -4.10104 v -3.9687 -3.9688 h -3.96875 -3.96875 v 7.9375 7.9375 h -3.96875 -3.96875 v -7.9375 -7.9375 h 3.96875 3.96875 v -8.0697 -8.0698 h -3.96875 -3.96875 v -3.9688 -3.9687 h -3.96875 -3.96875 v 3.9687 3.9688 h -4.10104 -4.10105 v -8.0698 -8.0698 h 4.10105 4.10104 v -3.9688 -3.9687 h 7.9375 7.9375 v 8.0698 8.0698 h 8.06979 8.06979 v 3.9687 3.9688 h -4.10104 -4.10104 v 8.0698 8.0697 h 12.03854 12.03854 v -4.101 -4.101 h -3.96875 -3.96875 v -3.9688 -3.9687 h 3.96875 3.96875 v -3.9688 -3.9687 h 4.10104 4.10105 v -8.0698 -8.0698 h -4.10105 -4.10104 v 3.9687 3.9688 h -3.96875 -3.96875 v -3.9688 -3.9687 h -3.96875 -3.96875 v 3.9687 3.9688 h -4.10104 -4.10104 v -7.9375 -7.9375 h 4.10104 4.10104 v -4.1011 -4.101 h -4.10104 -4.10104 v -3.9688 -3.9687 h -7.9375 -7.9375 v 3.9687 3.9688 h 3.96875 3.96875 v 4.101 4.1011 h -3.96875 -3.96875 v -4.1011 -4.101 h -12.03854 -12.03855 v 4.101 4.1011 h 3.96875 3.96875 v 3.9687 3.9688 h -3.96875 -3.96875 v 3.9687 3.9688 h -3.96875 -3.96875 v -3.9688 -3.9687 h -4.10104 -4.10104 v 3.9687 3.9688 h -3.96875 -3.96875 v -3.9688 -3.9687 h -3.96875 -3.96875 v -3.9688 -3.9687 h -4.10104 -4.10105 v -4.1011 -4.101 h 4.10105 4.10104 v -3.9688 -3.9687 h -4.10104 -4.10105 v -3.9688 -3.9687 h -3.96875 -3.96875 v 19.976 19.9761 h -3.96875 -3.96875 v -44.0532 -44.0531 h 3.96875 3.96875 v 3.9688 3.9687 h 3.96875 3.96875 v 4.1011 4.101 h -3.96875 -3.96875 v 3.9688 3.9687 h 3.96875 3.96875 v 3.9688 3.9687 h -3.96875 -3.96875 v 4.101 4.1011 h 3.96875 3.96875 v 3.9687 3.9688 h 4.10105 4.10104 v -3.9688 -3.9687 h 7.9375 7.9375 v 3.9687 3.9688 h 8.06979 8.06979 v 3.9687 3.9688 h 3.96875 3.96875 v -3.9688 -3.9687 h 4.10105 4.10104 v 3.9687 3.9688 h 3.96875 3.96875 v -3.9688 -3.9687 h 3.96875 3.96875 v -8.0698 -8.0698 h 8.06979 8.06979 v 4.101 4.1011 h -4.10104 -4.10104 v 7.9375 7.9375 h 12.03854 12.03854 v -3.9688 -3.9687 h -3.96875 -3.96875 v -3.9688 -3.9687 h 3.96875 3.96875 v -4.1011 -4.101 h 4.10104 4.10105 v -3.9687 -3.9688 h -8.0698 -8.06979 v -3.9687 -3.9688 h -3.96875 -3.96875 v 3.9688 3.9687 h -4.10104 -4.10104 v -8.0698 -8.0698 h 4.10104 4.10104 v -3.9687 -3.9688 h -4.10104 -4.10104 v -3.9687 -3.9688 h -3.96875 -3.96875 v 3.9688 3.9687 h -3.96875 -3.96875 v 8.0698 8.0698 h -3.96875 -3.96875 v -4.101 -4.1011 h -4.10104 -4.10105 v 4.1011 4.101 h -3.96875 -3.96875 v 3.9688 3.9687 h 12.03855 12.03854 v 8.0698 8.0698 h -3.96875 -3.96875 v -4.1011 -4.101 h -4.10104 -4.10105 v 4.101 4.1011 h -7.9375 -7.9375 v -4.1011 -4.101 h 3.96875 3.96875 v -3.9687 -3.9688 h -3.96875 -3.96875 v -3.9687 -3.9688 h -12.03854 -12.03854 v -4.101 -4.1011 h 3.96875 3.96875 v -3.9687 -3.9688 h 16.00729 16.00729 v -3.9687 -3.9688 h 4.10105 4.10104 v -4.101 -4.1011 h -8.0698 -8.06979 v 4.1011 4.101 h -3.96875 -3.96875 v -4.101 -4.1011 h 3.96875 3.96875 v -3.9687 -3.9688 h -8.06979 -8.06979 v 3.9688 3.9687 h -3.96875 -3.96875 v 4.1011 4.101 h -3.96875 -3.96875 v 3.9688 3.9687 h -4.10104 -4.10105 v -3.9687 -3.9688 h -3.96875 -3.96875 v -4.101 -4.1011 h -3.96875 -3.96875 v -3.9687 -3.9688 h 3.96875 3.96875 v -3.9687 -3.9688 h 3.96875 3.96875 v -3.9687 -3.9688 h -7.9375 -7.9375 v -4.101 -4.101 h 19.97605 19.97604 v 4.101 4.101 h 4.10104 4.10104 v -4.101 -4.101 h 19.97605 19.97604 v 4.101 4.101 h -3.96875 -3.96875 v 7.9375 7.9375 h 3.96875 3.96875 v -3.9687 -3.9688 h 8.06979 8.06979 v 3.9688 3.9687 h -4.10104 -4.10104 v 8.0698 8.0698 h 16.13958 16.13959 v 7.9375 7.9375 h -8.0698 -8.06979 v 4.1011 4.101 h 16.00729 16.0073 v 3.9688 3.9687 h 8.06979 8.06979 v -3.9687 -3.9688 h 3.96875 3.968749 v -8.0698 -8.0698 h -7.937499 -7.9375 v -3.9687 -3.9688 h 3.96875 3.96875 v -8.0698 -8.0698 h 7.937499 7.9375 v -3.9687 -3.9688 h 4.10104 4.10105 v -3.9687 -3.9688 h 3.96875 3.96875 v -12.0385 -12.0385 h 3.96875 3.96875 v 7.9375 7.9375 h 4.10104 4.10104 v 4.101 4.101 h 3.96875 3.96875 v -4.101 -4.101 h 3.96875 3.96875 v 4.101 4.101 h -3.96875 -3.96875 v 3.9688 3.9687 h 12.03854 12.038553 v -3.9687 -3.9688 h -3.96875 -3.968753 v -4.101 -4.101 h 3.968753 3.96875 v 4.101 4.101 h 3.96875 3.96875 v -4.101 -4.101 h 4.10104 4.10104 v 4.101 4.101 h 3.9687502 3.96875 v 3.9688 3.9687 h -3.96875 -3.9687502 v 3.9688 3.9687 h -4.10104 -4.10104 v 3.9688 3.9687 h -3.96875 -3.96875 v 4.1011 4.101 h -8.069803 -8.06979 v 3.9688 3.9687 h 4.10104 4.10105 v 3.9688 3.9687 h -4.10105 -4.10104 v 4.1011 4.101 h 4.10104 4.10105 v 3.9688 3.9687 h 3.968753 3.96875 v 8.0698 8.0698 h 3.96875 3.96875 v -12.0386 -12.0385 h -3.96875 -3.96875 v -4.101 -4.1011 h 3.96875 3.96875 v -7.9375 -7.9375 h 8.06979 8.0697902 v 3.9688 3.9687 h -3.96875 -3.9687502 v 3.9688 3.9687 h -4.10104 -4.10104 v 4.1011 4.101 h 4.10104 4.10104 v 3.9688 3.9687 h 3.9687502 3.96875 v 3.9688 3.9687 h -3.96875 -3.9687502 v 4.101 4.1011 h -4.10104 -4.10104 v 3.9687 3.9688 h 4.10104 4.10104 v 3.9687 3.9688 h 3.9687502 3.96875 v 3.9687 3.9688 h -3.96875 -3.9687502 v 4.101 4.1011 h -4.10104 -4.10104 v 3.9687 3.9688 h -7.9375 -7.937503 v 3.9687 3.9688 h 7.937503 7.9375 v 4.101 4.1011 h 4.10104 4.10104 v -8.0698 -8.0698 h 3.9687502 3.96875 v 8.0698 8.0698 h -3.96875 -3.9687502 v 3.9687 3.9688 h -4.10104 -4.10104 v 3.9687 3.9688 h -7.9375 -7.937503 v 8.0698 8.0697 h 7.937503 7.9375 v -3.9687 -3.9688 h 4.10104 4.10104 v -4.101 -4.101 h 3.9687502 3.96875 v 8.0698 8.0697 h -8.0697902 -8.06979 v 8.0698 8.0698 h 4.10104 4.10104 v 3.9688 3.9687 h -4.10104 -4.10104 v -3.9687 -3.9688 h -3.96875 -3.96875 v 3.9688 3.9687 h -3.96875 -3.968753 v -12.0385 -12.0386 h -8.0698 -8.06979 v 3.9688 3.9687 h 3.96875 3.96875 v 4.1011 4.101 h -7.9375 -7.9375 v 3.9688 3.9687 h -20.10833 -20.10834 v -3.9687 -3.9688 h -3.968749 -3.96875 v 3.9688 3.9687 h -3.96875 -3.96875 v -3.9687 -3.9688 h -4.10104 -4.10104 v 3.9688 3.9687 h -3.96875 -3.96875 v -3.9687 -3.9688 h -8.0698 -8.06979 v 3.9688 3.9687 h -3.96875 -3.96875 v -3.9687 -3.9688 h -3.96875 -3.96875 v 3.9688 3.9687 h -4.10104 -4.10104 z m 24.07708,-3.9687 v -4.1011 h -3.96875 -3.96875 v 4.1011 4.101 h 3.96875 3.96875 z m 24.07709,-3.9688 v -8.0698 h 4.10104 4.10104 v 3.9688 3.9687 h 11.90625 11.906249 v -7.9375 -7.9375 h -3.96875 -3.96875 v -8.0697 -8.0698 h -3.968749 -3.96875 v -3.9688 -3.9687 h -3.96875 -3.96875 v 3.9687 3.9688 h -4.10104 -4.10104 v -3.9688 -3.9687 h -3.96875 -3.96875 v 7.9375 7.9375 h -3.96875 -3.96875 v 4.101 4.101 h -4.10105 -4.10104 v 3.9688 3.9687 h 4.10104 4.10105 v 3.9688 3.9687 h 3.96875 3.96875 v 4.1011 4.101 h 3.96875 3.96875 z m -15.875,-12.0385 v -3.9688 h 3.96875 3.96875 v -4.101 -4.101 h 3.96875 3.96875 v 4.101 4.101 h -3.96875 -3.96875 v 3.9688 3.9687 h -3.96875 -3.96875 z m 24.07708,0 v -3.9688 h 7.9375 7.937499 v 3.9688 3.9687 h -7.937499 -7.9375 z m 47.889589,16.0073 v -4.1011 h 4.10104 4.10104 v -3.9687 -3.9688 h 3.96875 3.96875 v -3.9687 -3.9688 h -3.96875 -3.96875 v 3.9688 3.9687 h -12.03854 -12.03854 v 8.0698 8.0698 h 7.9375 7.9375 z m -7.9375,-24.0771 v -4.101 h -3.96875 -3.96875 v 4.101 4.101 h 3.96875 3.96875 z m 32.01458,-16.1396 v -12.0385 h -12.03854 -12.03854 v 12.0385 12.0386 h 12.03854 12.03854 z m -15.875,0.1323 v -3.9687 h 3.96875 3.96875 v 3.9687 3.9688 h -3.96875 -3.96875 z m -24.07708,0 v -3.9687 h 3.96875 3.96875 v -4.1011 -4.101 h -8.0698 -8.06979 v -3.9688 -3.9687 h -7.9375 -7.937499 v 3.9687 3.9688 h 7.937499 7.9375 v 8.0698 8.0698 h 4.10104 4.10105 z m 64.029173,0 v -3.9687 h -3.96875 -3.96875 v 3.9687 3.9688 h 3.96875 3.96875 z m -96.043762,-16.1396 v -3.9687 h -4.10104 -4.10104 v -3.9688 -3.9687 h 24.077079 24.07709 v 3.9687 3.9688 h 3.96875 3.96875 v -3.9688 -3.9687 h -3.96875 -3.96875 v -4.1011 -4.101 h 8.06979 8.06979 v -3.9688 -3.9687 h 3.96875 3.96875 v 3.9687 3.9688 h 3.96875 3.96875 v 4.101 4.1011 h 4.10104 4.10105 v -8.0698 -8.0698 h 3.968753 3.96875 v 8.0698 8.0698 h 3.96875 3.96875 v -12.0386 -12.0385 h -3.96875 -3.96875 v -3.9688 -3.9687 h -3.96875 -3.968753 v -8.0698 -8.0698 h -8.0698 -8.06979 v -3.9687 -3.9688 h -3.96875 -3.96875 v 3.9688 3.9687 h -4.10104 -4.10104 v -3.9687 -3.9688 h -7.9375 -7.9375 v -4.101 -4.1011 h 7.9375 7.9375 v -3.9687 -3.9688 h 4.10104 4.10104 v -3.9687 -3.9688 h 3.96875 3.96875 v -4.101 -4.1011 h 3.96875 3.96875 v -3.9687 -3.9688 h -3.96875 -3.96875 v -3.9687 -3.9688 h -3.96875 -3.96875 v -3.9687 -3.9688 h -8.06979 -8.06979 v 3.9688 3.9687 h -3.96875 -3.96875 v 7.9375 7.9375 h 7.9375 7.9375 v -3.9687 -3.9688 h 8.06979 8.06979 v 3.9688 3.9687 h -3.96875 -3.96875 v 4.1011 4.101 h -8.06979 -8.06979 v 3.9688 3.9687 h -8.0698 -8.06979 v 8.0698 8.0698 h -3.96875 -3.96875 v 7.9375 7.9375 h 3.96875 3.96875 v 4.101 4.1011 h 4.10104 4.10105 v 7.9375 7.9375 h -4.10105 -4.10104 v -3.9688 -3.9687 h -7.9375 -7.937499 v 3.9687 3.9688 h 3.96875 3.968749 v 3.9687 3.9688 h -7.937499 -7.9375 v -7.9375 -7.9375 h -4.10104 -4.10104 v -3.9688 -3.9687 h 8.06979 8.06979 v -4.1011 -4.101 h -12.03854 -12.03854 v 8.0698 8.0698 h -3.96875 -3.96875 v 3.9687 3.9688 h -4.10105 -4.10104 v 3.9687 3.9688 h 4.10104 4.10105 v 8.0698 8.0698 h 7.9375 7.9375 v 3.9687 3.9688 h 4.10104 4.10104 z m -24.07708,-24.0771 v -3.9687 h 3.96875 3.96875 v -3.9688 -3.9687 h 3.96875 3.96875 v 3.9687 3.9688 h -3.96875 -3.96875 v 3.9687 3.9688 h -3.96875 -3.96875 z m 56.091669,0 v -3.9687 h 3.96875 3.96875 v 3.9687 3.9688 h -3.96875 -3.96875 z m 39.95208,-7.9375 v -3.9687 h 4.10104 4.10105 v 3.9687 3.9688 h -4.10105 -4.10104 z m -24.07708,-12.0385 v -8.0698 h 4.10104 4.10104 v -3.9687 -3.9688 h 3.96875 3.96875 v 8.0698 8.0698 h -3.96875 -3.96875 v 3.9687 3.9688 h -4.10104 -4.10104 z m -15.875,-12.0385 v -3.9688 h -4.10105 -4.10104 v -3.9687 -3.9688 h 4.10104 4.10105 v 3.9688 3.9687 h 3.96875 3.96875 v 3.9688 3.9687 h -3.96875 -3.96875 z m -144.462509,48.1541 v -3.9687 h 4.10104 4.10104 v 3.9687 3.9688 h 3.96875 3.96875 v -3.9688 -3.9687 h -3.96875 -3.96875 v -4.1011 -4.101 h 3.96875 3.96875 v -3.9688 -3.9687 h -8.06979 -8.06979 v -3.9688 -3.9687 h -7.9375 -7.9375 v 3.9687 3.9688 h 7.9375 7.9375 v 8.0698 8.0698 h -3.96875 -3.96875 v 3.9687 3.9688 h 3.96875 3.96875 z m 80.16875,0 v -3.9687 h -3.96875 -3.96875 v 3.9687 3.9688 h 3.96875 3.96875 z m -64.02917,-64.1614 v -4.1011 h -3.96875 -3.96875 v 4.1011 4.101 h 3.96875 3.96875 z m -32.01458,-24.0771 v -4.1011 h -4.10104 -4.10105 v -3.9687 -3.9688 h 4.10105 4.10104 v -3.9687 -3.9688 h 3.96875 3.96875 v 3.9688 3.9687 h 3.96875 3.96875 v -3.9687 -3.9688 h -3.96875 -3.96875 v -3.9687 -3.9688 h -3.96875 -3.96875 v 3.9688 3.9687 h -4.10104 -4.10105 v 3.9688 3.9687 h -3.96875 -3.96875 v 3.9688 3.9687 h 3.96875 3.96875 v 4.1011 4.101 h 4.10105 4.10104 z m 64.02917,0 v -4.1011 h -3.96875 -3.96875 v 4.1011 4.101 h 3.96875 3.96875 z m 152.400012,-8.0698 v -3.9688 h 3.96875 3.96875 v -3.9687 -3.9688 h -3.96875 -3.96875 v 3.9688 3.9687 h -3.96875 -3.968753 v 3.9688 3.9687 h 3.968753 3.96875 z m -168.275012,-11.9063 v -7.9375 h -4.10104 -4.10105 v 7.9375 7.9375 h 4.10105 4.10104 z m -16.13959,-3.9687 v -3.9688 h -3.96875 -3.96875 v 3.9688 3.9687 h 3.96875 3.96875 z m -32.01458,64.0292 v -3.9688 h 7.9375 7.9375 v 3.9688 3.9687 h -7.9375 -7.9375 z m 112.18334,-40.0844 v -4.1011 h -3.96875 -3.96875 v -3.9687 -3.9688 h 3.96875 3.96875 v 3.9688 3.9687 h 3.96875 3.96875 v 4.1011 4.101 h -3.96875 -3.96875 z m -24.07709,-8.0698 v -3.9688 h 3.96875 3.96875 v 3.9688 3.9687 h -3.96875 -3.96875 z m 7.9375,-15.875 v -3.9688 h -3.96875 -3.96875 v -4.101 -4.101 h -3.96875 -3.96875 v 4.101 4.101 h -4.10104 -4.10104 v -12.0385 -12.0385 h 4.10104 4.10104 v -4.1011 -4.101 h -4.10104 -4.10104 v -3.9688 -3.9687 h -3.96875 -3.96875 v 12.0385 12.0386 h -3.96875 -3.96875 v -12.0386 -12.0385 h -8.06979 -8.0698 v -3.9688 -3.9687 h 4.10105 4.10104 v -4.1011 -4.101 h -4.10104 -4.10105 v -3.9688 -3.9687 h 4.10105 4.10104 v -3.9688 -3.9687 h 3.96875 3.96875 v 7.9375 7.9375 h 3.96875 3.96875 v -3.9688 -3.9687 h 8.06979 8.06979 v 3.9687 3.9688 h -4.10104 -4.10104 v 8.0698 8.0698 h 16.13958 16.13959 v -8.0698 -8.0698 h 3.96875 3.96875 v 4.101 4.1011 h 3.96875 3.96875 v -4.1011 -4.101 h 8.06979 8.06979 v -7.9375 -7.9375 h 3.96875 3.968749 v 3.9687 3.9688 h 3.96875 3.96875 v 3.9687 3.9688 h 8.06979 8.0698 v 4.101 4.1011 h 3.96875 3.96875 v 3.9687 3.9688 h -3.96875 -3.96875 v 3.9687 3.9688 h -12.03855 -12.03854 v 8.0698 8.0698 h 3.96875 3.96875 v -3.9688 -3.9687 h 4.10104 4.10105 v 7.9375 7.9375 h -12.03855 -12.038539 v 4.101 4.101 h 3.96875 3.968749 v 3.9688 3.9687 h -24.077079 -24.07709 z m 16.13959,-8.0698 v -4.101 h 3.96875 3.96875 v 4.101 4.101 h 4.10104 4.10104 v -8.0698 -8.0697 h 3.96875 3.96875 v -12.0386 -12.0385 h -3.96875 -3.96875 v -3.9688 -3.9687 h -4.10104 -4.10104 v 3.9687 3.9688 h -7.9375 -7.9375 v 3.9687 3.9688 h 3.96875 3.96875 v 8.0698 8.0698 h -3.96875 -3.96875 v -3.9688 -3.9687 h -4.10105 -4.10104 v 3.9687 3.9688 h -3.96875 -3.96875 v -3.9688 -3.9687 h -3.96875 -3.96875 v 3.9687 3.9688 h 3.96875 3.96875 v 3.9687 3.9688 h 3.96875 3.96875 v -3.9688 -3.9687 h 4.10104 4.10105 v 8.0697 8.0698 h 3.96875 3.96875 z m 7.9375,-16.0073 v -3.9687 h 4.10104 4.10104 v 3.9687 3.9688 h -4.10104 -4.10104 z m 0,-16.1396 v -3.9687 h 4.10104 4.10104 v 3.9687 3.9688 h -4.10104 -4.10104 z m -56.09167,-7.9375 v -3.9687 h -3.96875 -3.96875 v 3.9687 3.9688 h 3.96875 3.96875 z m 88.106249,0 v -3.9687 h -3.96875 -3.96875 v 3.9687 3.9688 h 3.96875 3.96875 z m 16.13959,0 v -3.9687 h -3.96875 -3.96875 v 3.9687 3.9688 h 3.96875 3.96875 z m -192.352099,0 v -28.0458 h 28.04584 28.04583 v 28.0458 28.0459 h -28.04583 -28.04584 z m 48.15417,0 v -20.1083 h -20.10833 -20.10834 v 20.1083 20.1084 h 20.10834 20.10833 z m -32.27917,-0.1323 v -12.0385 h 12.03855 12.03854 v 12.0385 12.0386 h -12.03854 -12.03855 z m 48.15417,20.1084 v -8.0698 h 4.10105 4.10104 v 8.0698 8.0698 h -4.10104 -4.10105 z m 144.462509,-19.9761 v -28.0458 h 28.045843 28.0458302 v 28.0458 28.0459 H -30.297718 -58.343561 Z m 48.154173,0 v -20.1083 h -20.10833 -20.108343 v 20.1083 20.1084 h 20.108343 20.10833 z m -32.279173,-0.1323 v -12.0385 h 12.038543 12.03855 v 12.0385 12.0386 h -12.03855 -12.038543 z m -112.183339,-7.9375 v -4.101 h 3.96875 3.96875 v 4.101 4.1011 h -3.96875 -3.96875 z m 7.9375,-16.0073 v -3.9687 h 8.06979 8.0698 v 3.9687 3.9688 h -8.0698 -8.06979 z m 24.07709,0 v -3.9687 h 4.10104 4.10104 v 3.9687 3.9688 h -4.10104 -4.10104 z m 40.216669,0 v -3.9687 h 3.96875 3.96875 v 3.9687 3.9688 h -3.96875 -3.96875 z"
       id="path868" />
  </g>
</svg>
