0
SECTION
2
HEADER
9
$INSUNITS
70
4
9
$ACADVER
1
AC1014
9
$HANDSEED
5
FFFF
0
ENDSEC
0
SECTION
2
TABLES
0
TABLE
2
VPORT
5
8
100
AcDbSymbolTable
0
ENDTAB
0
TABLE
2
LTYPE
5
5
100
AcDbSymbolTable
0
LTYPE
5
14
100
AcDbSymbolTableRecord
100
AcDbLinetypeTableRecord
2
BYBLOCK
70
0
0
LTYPE
5
15
100
AcDbSymbolTableRecord
100
AcDbLinetypeTableRecord
2
BYLAYER
70
0
0
ENDTAB
0
TABLE
2
LAYER
5
2
100
AcDbSymbolTable
70
2
0
LAYER
5
50
100
AcDbSymbolTableRecord
100
AcDbLayerTableRecord
2
0
70
0
6
CONTINUOUS
0
ENDTAB
0
TABLE
2
STYLE
5
3
100
AcDbSymbolTable
70
1
0
STYLE
5
11
100
AcDbSymbolTableRecord
100
AcDbTextStyleTableRecord
2
STANDARD
70
0
0
ENDTAB
0
TABLE
2
VIEW
5
6
100
AcDbSymbolTable
70
0
0
ENDTAB
0
TABLE
2
UCS
5
7
100
AcDbSymbolTable
70
0
0
ENDTAB
0
TABLE
2
APPID
5
9
100
AcDbSymbolTable
70
2
0
APPID
5
12
100
AcDbSymbolTableRecord
100
AcDbRegAppTableRecord
2
ACAD
70
0
0
ENDTAB
0
TABLE
2
DIMSTYLE
5
A
100
AcDbSymbolTable
70
1
0
ENDTAB
0
TABLE
2
BLOCK_RECORD
5
1
100
AcDbSymbolTable
70
1
0
BLOCK_RECORD
5
1F
100
AcDbSymbolTableRecord
100
AcDbBlockTableRecord
2
*MODEL_SPACE
0
BLOCK_RECORD
5
1B
100
AcDbSymbolTableRecord
100
AcDbBlockTableRecord
2
*PAPER_SPACE
0
ENDTAB
0
ENDSEC
0
SECTION
2
BLOCKS
0
BLOCK
5
20
100
AcDbEntity
100
AcDbBlockBegin
2
*MODEL_SPACE
0
ENDBLK
5
21
100
AcDbEntity
100
AcDbBlockEnd
0
BLOCK
5
1C
100
AcDbEntity
100
AcDbBlockBegin
2
*PAPER_SPACE
0
ENDBLK
5
1D
100
AcDbEntity
100
AcDbBlockEnd
0
ENDSEC
0
SECTION
2
ENTITIES
0
LINE
5
100
100
AcDbEntity
8
0
100
AcDbLine
10
0
20
115
30
0
11
-26.484363406212687
21
120.01808990854556
31
0
0
LINE
5
101
100
AcDbEntity
8
0
100
AcDbLine
10
-26.484363406212687
20
120.01808990854556
30
0
11
-76
21
129.40000000000001
31
0
0
LINE
5
102
100
AcDbEntity
8
0
100
AcDbLine
10
0
20
110
30
0
11
-29.300366365003008
21
115.35888279570452
31
0
0
LINE
5
103
100
AcDbEntity
8
0
100
AcDbLine
10
-29.300366365003008
20
115.35888279570452
30
0
11
-76
21
123.90000000000001
31
0
0
LINE
5
104
100
AcDbEntity
8
0
100
AcDbLine
10
-76
20
118.40000000000001
30
0
11
-32.062432482931897
21
110.65311309567483
31
0
0
LINE
5
105
100
AcDbEntity
8
0
100
AcDbLine
10
-32.062432482931897
20
110.65311309567483
30
0
11
0
21
105
31
0
0
LINE
5
106
100
AcDbEntity
8
0
100
AcDbLine
10
0
20
100
30
0
11
-35.120533635033816
21
105.26808004525506
31
0
0
LINE
5
107
100
AcDbEntity
8
0
100
AcDbLine
10
-35.120533635033816
20
105.26808004525506
30
0
11
-76
21
111.40000000000001
31
0
0
LINE
5
108
100
AcDbEntity
8
0
100
AcDbLine
10
-76
20
105.90000000000001
30
0
11
-37.771124231492166
21
100.41717439635875
31
0
0
LINE
5
109
100
AcDbEntity
8
0
100
AcDbLine
10
-37.771124231492166
20
100.41717439635875
30
0
11
0
21
95
31
0
0
LINE
5
110
100
AcDbEntity
8
0
100
AcDbLine
10
0
20
90
30
0
11
-40.25305678644196
21
95.773135775950223
31
0
0
LINE
5
111
100
AcDbEntity
8
0
100
AcDbLine
10
-40.25305678644196
20
95.773135775950223
30
0
11
-76
21
100.90000000000001
31
0
0
LINE
5
112
100
AcDbEntity
8
0
100
AcDbLine
10
-76
20
94.900000000000006
30
0
11
-42.941196343112878
21
90.59365583943179
31
0
0
LINE
5
113
100
AcDbEntity
8
0
100
AcDbLine
10
-42.941196343112878
20
90.59365583943179
30
0
11
0
21
85
31
0
0
LINE
5
114
100
AcDbEntity
8
0
100
AcDbLine
10
0
20
80
30
0
11
-45.835496002424208
21
84.764479189725662
31
0
0
LINE
5
115
100
AcDbEntity
8
0
100
AcDbLine
10
-45.835496002424208
20
84.764479189725662
30
0
11
-76
21
87.900000000000006
31
0
0
LINE
5
116
100
AcDbEntity
8
0
100
AcDbLine
10
-76
20
82.400000000000006
30
0
11
-48.254494417932406
21
79.698463930167108
31
0
0
LINE
5
117
100
AcDbEntity
8
0
100
AcDbLine
10
-48.254494417932406
20
79.698463930167108
30
0
11
0
21
75
31
0
0
LINE
5
118
100
AcDbEntity
8
0
100
AcDbLine
10
0
20
70
30
0
11
-50.869969289589072
21
73.949116036954933
31
0
0
LINE
5
119
100
AcDbEntity
8
0
100
AcDbLine
10
-50.869969289589072
20
73.949116036954933
30
0
11
-76
21
75.900000000000006
31
0
0
LINE
5
120
100
AcDbEntity
8
0
100
AcDbLine
10
-76
20
70.199999999999989
30
0
11
-53.213511856817526
21
68.64092449546645
31
0
0
LINE
5
121
100
AcDbEntity
8
0
100
AcDbLine
10
-53.213511856817526
20
68.64092449546645
30
0
11
0
21
65
31
0
0
LINE
5
122
100
AcDbEntity
8
0
100
AcDbLine
10
0
20
60
30
0
11
-55.542185476056325
21
63.069436565782048
31
0
0
LINE
5
123
100
AcDbEntity
8
0
100
AcDbLine
10
-55.542185476056325
20
63.069436565782048
30
0
11
-76
21
64.199999999999989
31
0
0
LINE
5
124
100
AcDbEntity
8
0
100
AcDbLine
10
-76
20
58.899999999999991
30
0
11
-57.637504893877313
21
57.957714066922648
31
0
0
LINE
5
125
100
AcDbEntity
8
0
100
AcDbLine
10
-57.637504893877313
20
57.957714066922648
30
0
11
0
21
55
31
0
0
LINE
5
126
100
AcDbEntity
8
0
100
AcDbLine
10
0
20
50
30
0
11
-59.831585228936021
21
52.283047331104129
31
0
0
LINE
5
127
100
AcDbEntity
8
0
100
AcDbLine
10
-59.831585228936021
20
52.283047331104129
30
0
11
-76
21
52.899999999999991
31
0
0
LINE
5
128
100
AcDbEntity
8
0
100
AcDbLine
10
-76
20
47.5
30
0
11
-61.831225181553776
21
47.033921880972159
31
0
0
LINE
5
129
100
AcDbEntity
8
0
100
AcDbLine
10
-61.831225181553776
20
47.033921880972159
30
0
11
0
21
45
31
0
0
LINE
5
130
100
AcDbEntity
8
0
100
AcDbLine
10
0
20
40
30
0
11
-63.753306562513458
21
41.677718593750356
31
0
0
LINE
5
131
100
AcDbEntity
8
0
100
AcDbLine
10
-63.753306562513458
20
41.677718593750356
30
0
11
-76
21
42
31
0
0
LINE
5
132
100
AcDbEntity
8
0
100
AcDbLine
10
-76
20
35
30
0
11
-66.081136878848014
21
35
31
0
0
LINE
5
133
100
AcDbEntity
8
0
100
AcDbLine
10
-66.081136878848014
20
35
30
0
11
0
21
35
31
0
0
LINE
5
134
100
AcDbEntity
8
0
100
AcDbLine
10
0
20
30
30
0
11
-67.832885607638758
21
29.553731015739221
31
0
0
LINE
5
135
100
AcDbEntity
8
0
100
AcDbLine
10
-67.832885607638758
20
29.553731015739221
30
0
11
-76
21
29.5
31
0
0
LINE
5
136
100
AcDbEntity
8
0
100
AcDbLine
10
-76
20
24.000000000000004
30
0
11
-69.536529198241652
21
24.085045668444192
31
0
0
LINE
5
137
100
AcDbEntity
8
0
100
AcDbLine
10
-69.536529198241652
20
24.085045668444192
30
0
11
0
21
25
31
0
0
LINE
5
138
100
AcDbEntity
8
0
100
AcDbLine
10
0
20
20
30
0
11
-71.277130462219546
21
18.124286040467908
31
0
0
LINE
5
139
100
AcDbEntity
8
0
100
AcDbLine
10
-71.277130462219546
20
18.124286040467908
30
0
11
-76
21
18.000000000000004
31
0
0
LINE
5
140
100
AcDbEntity
8
0
100
AcDbLine
10
-76
20
12.000000000000002
30
0
11
-72.954548438976786
21
12.120215193198289
31
0
0
LINE
5
141
100
AcDbEntity
8
0
100
AcDbLine
10
-72.954548438976786
20
12.120215193198289
30
0
11
0
21
15
31
0
0
LINE
5
142
100
AcDbEntity
8
0
100
AcDbLine
10
0
20
10
30
0
11
-76
21
6.5000000000000018
31
0
0
LINE
5
143
100
AcDbEntity
8
0
100
AcDbLine
10
-76
20
1.1102230246251565e-15
30
0
11
0
21
5
31
0
0
ENDSEC
0
SECTION
2
OBJECTS
0
DICTIONARY
5
C
100
AcDbDictionary
3
ACAD_GROUP
350
D
3
ACAD_MLINESTYLE
350
17
0
DICTIONARY
5
D
100
AcDbDictionary
0
DICTIONARY
5
1A
330
C
100
AcDbDictionary
0
DICTIONARY
5
17
100
AcDbDictionary
0
ENDSEC
0
EOF
