0
SECTION
2
HEADER
9
$INSUNITS
70
4
9
$ACADVER
1
AC1014
9
$HANDSEED
5
FFFF
0
ENDSEC
0
SECTION
2
TABLES
0
TABLE
2
VPORT
5
8
100
AcDbSymbolTable
0
ENDTAB
0
TABLE
2
LTYPE
5
5
100
AcDbSymbolTable
0
LTYPE
5
14
100
AcDbSymbolTableRecord
100
AcDbLinetypeTableRecord
2
BYBLOCK
70
0
0
LTYPE
5
15
100
AcDbSymbolTableRecord
100
AcDbLinetypeTableRecord
2
BYLAYER
70
0
0
ENDTAB
0
TABLE
2
LAYER
5
2
100
AcDbSymbolTable
70
2
0
LAYER
5
50
100
AcDbSymbolTableRecord
100
AcDbLayerTableRecord
2
0
70
0
6
CONTINUOUS
0
ENDTAB
0
TABLE
2
STYLE
5
3
100
AcDbSymbolTable
70
1
0
STYLE
5
11
100
AcDbSymbolTableRecord
100
AcDbTextStyleTableRecord
2
STANDARD
70
0
0
ENDTAB
0
TABLE
2
VIEW
5
6
100
AcDbSymbolTable
70
0
0
ENDTAB
0
TABLE
2
UCS
5
7
100
AcDbSymbolTable
70
0
0
ENDTAB
0
TABLE
2
APPID
5
9
100
AcDbSymbolTable
70
2
0
APPID
5
12
100
AcDbSymbolTableRecord
100
AcDbRegAppTableRecord
2
ACAD
70
0
0
ENDTAB
0
TABLE
2
DIMSTYLE
5
A
100
AcDbSymbolTable
70
1
0
ENDTAB
0
TABLE
2
BLOCK_RECORD
5
1
100
AcDbSymbolTable
70
1
0
BLOCK_RECORD
5
1F
100
AcDbSymbolTableRecord
100
AcDbBlockTableRecord
2
*MODEL_SPACE
0
BLOCK_RECORD
5
1B
100
AcDbSymbolTableRecord
100
AcDbBlockTableRecord
2
*PAPER_SPACE
0
ENDTAB
0
ENDSEC
0
SECTION
2
BLOCKS
0
BLOCK
5
20
100
AcDbEntity
100
AcDbBlockBegin
2
*MODEL_SPACE
0
ENDBLK
5
21
100
AcDbEntity
100
AcDbBlockEnd
0
BLOCK
5
1C
100
AcDbEntity
100
AcDbBlockBegin
2
*PAPER_SPACE
0
ENDBLK
5
1D
100
AcDbEntity
100
AcDbBlockEnd
0
ENDSEC
0
SECTION
2
ENTITIES
0
ARC
5
100
100
AcDbEntity
8
0
100
AcDbCircle
10
325.03520070676478
20
-95.231003775598793
30
0
40
412.18706467576499
210
0
220
0
230
1
100
AcDbArc
50
148.51924446666877
51
166.64179076902752
0
LINE
5
101
100
AcDbEntity
8
0
100
AcDbLine
10
-75.999999999999972
20
1.0658141036401503e-13
30
0
11
-79.920035085592545
21
-0.79581714465260611
31
0
0
LINE
5
102
100
AcDbEntity
8
0
100
AcDbLine
10
-75.487237479177736
20
2.1340453724969595
30
0
11
-79.411454486981498
21
1.3591125523997913
31
0
0
LINE
5
103
100
AcDbEntity
8
0
100
AcDbLine
10
-74.963119058674977
20
4.2653301812273527
30
0
11
-78.891406726472326
21
3.5113036571373266
31
0
0
LINE
5
104
100
AcDbEntity
8
0
100
AcDbLine
10
-74.427659598673273
20
6.3937939984744467
30
0
11
-78.359906548832342
21
5.660695149092847
31
0
0
LINE
5
105
100
AcDbEntity
8
0
100
AcDbLine
10
-73.880874280903825
20
8.5193764765041973
30
0
11
-77.816969023536359
21
7.8072260871758541
31
0
0
LINE
5
106
100
AcDbEntity
8
0
100
AcDbLine
10
-73.322778608216353
20
10.642017349276342
30
0
11
-77.262609544338687
21
9.9508356114003078
31
0
0
LINE
5
107
100
AcDbEntity
8
0
100
AcDbLine
10
-72.753388404140111
20
12.761656434153089
30
0
11
-76.696843828837359
21
12.091462944610154
31
0
0
LINE
5
108
100
AcDbEntity
8
0
100
AcDbLine
10
-72.172719812434636
20
14.878233633605598
30
0
11
-76.119687918027822
21
14.229047394202677
31
0
0
LINE
5
109
100
AcDbEntity
8
0
100
AcDbLine
10
-71.580789296632986
20
16.99168893691769
30
0
11
-75.531158175849058
21
16.363528353849055
31
0
0
LINE
5
110
100
AcDbEntity
8
0
100
AcDbLine
10
-70.977613639573832
20
19.101962421887478
30
0
11
-74.931271288718577
21
18.494845305212905
31
0
0
LINE
5
111
100
AcDbEntity
8
0
100
AcDbLine
10
-70.363209942926545
20
21.20899425652631
30
0
11
-74.320044265060176
21
20.622937819666099
31
0
0
LINE
5
112
100
AcDbEntity
8
0
100
AcDbLine
10
-69.737595626705655
20
23.312724700755005
30
0
11
-73.697494434821081
21
22.747745560001963
31
0
0
LINE
5
113
100
AcDbEntity
8
0
100
AcDbLine
10
-69.100788428777406
20
25.413094108097937
30
0
11
-73.063639448981036
21
24.869208282146221
31
0
0
LINE
5
114
100
AcDbEntity
8
0
100
AcDbLine
10
-68.452806404356622
20
27.510042927373888
30
0
11
-72.418497279051593
21
26.987265836864871
31
0
0
LINE
5
115
100
AcDbEntity
8
0
100
AcDbLine
10
-67.793667925494688
20
29.603511704384644
30
0
11
-71.762086216566573
21
29.101858171469658
31
0
0
LINE
5
116
100
AcDbEntity
8
0
100
AcDbLine
10
-67.123391680559081
20
31.693441083600675
30
0
11
-71.094424872563792
21
31.212925331520797
31
0
0
LINE
5
117
100
AcDbEntity
8
0
100
AcDbLine
10
-66.441996673702974
20
33.779771809843979
30
0
11
-70.415532177056846
21
33.320407462526759
31
0
0
LINE
5
118
100
AcDbEntity
8
0
100
AcDbLine
10
-65.749502224326804
20
35.862444729968111
30
0
11
-69.725427378498892
21
35.424244811641266
31
0
0
LINE
5
119
100
AcDbEntity
8
0
100
AcDbLine
10
-65.045927966530201
20
37.941400794535454
30
0
11
-69.024130043236426
21
37.524377729357631
31
0
0
LINE
5
120
100
AcDbEntity
8
0
100
AcDbLine
10
-64.331293848555646
20
40.01658105949123
30
0
11
-68.311660054954984
21
39.620746671199726
31
0
0
LINE
5
121
100
AcDbEntity
8
0
100
AcDbLine
10
-63.605620132222562
20
42.087926687834958
30
0
11
-67.588037614115052
21
41.713292199410503
31
0
0
LINE
5
122
100
AcDbEntity
8
0
100
AcDbLine
10
-62.868927392353186
20
44.155378951288469
30
0
11
-66.853283237379614
21
43.801954984637007
31
0
0
LINE
5
123
100
AcDbEntity
8
0
100
AcDbLine
10
-62.121236516188851
20
46.218879231961068
30
0
11
-66.107417757032167
21
45.886675807612612
31
0
0
LINE
5
124
100
AcDbEntity
8
0
100
AcDbLine
10
-61.362568702798008
20
48.278369024011525
30
0
11
-65.3504623203862
21
47.967395560836017
31
0
0
LINE
5
125
100
AcDbEntity
8
0
100
AcDbLine
10
-60.592945462475129
20
50.333789935306882
30
0
11
-64.582438389185654
21
50.04405525024719
31
0
0
LINE
5
126
100
AcDbEntity
8
0
100
AcDbLine
10
-59.812388616130853
20
52.385083689077973
30
0
11
-63.803367738996428
21
52.116595996899875
31
0
0
LINE
5
127
100
AcDbEntity
8
0
100
AcDbLine
10
-59.020920294673047
20
54.432192125571774
30
0
11
-63.013272458588681
21
54.18495903863105
31
0
0
LINE
5
128
100
AcDbEntity
8
0
100
AcDbLine
10
-58.218562938379833
20
56.475057203700388
30
0
11
-62.21217494931107
21
56.249085731726993
31
0
0
LINE
5
129
100
AcDbEntity
8
0
100
AcDbLine
10
-57.405339296262916
20
58.513621002686669
30
0
11
-61.400097924455217
21
58.308917552585989
31
0
0
LINE
5
130
100
AcDbEntity
8
0
100
AcDbLine
10
-56.581272425422782
20
60.547825723706424
30
0
11
-60.577064408611918
21
60.364396099377622
31
0
0
LINE
5
131
100
AcDbEntity
8
0
100
AcDbLine
10
-55.746385690394803
20
62.577613691527119
30
0
11
-59.743097737018111
21
62.415463093698577
31
0
0
LINE
5
132
100
AcDbEntity
8
0
100
AcDbLine
10
-54.900702762487214
20
64.602927356143255
30
0
11
-58.898221554895713
21
64.462060382225118
31
0
0
LINE
5
133
100
AcDbEntity
8
0
100
AcDbLine
10
-54.044247619109299
20
66.623709294407945
30
0
11
-58.042459816780607
21
66.504129938361785
31
0
0
LINE
5
134
100
AcDbEntity
8
0
100
AcDbLine
10
-53.177044543092109
20
68.639902211661067
30
0
11
-57.175836785843885
21
68.54161386388661
31
0
0
LINE
5
135
100
AcDbEntity
8
0
100
AcDbLine
10
-52.299118121999783
20
70.651448943353685
30
0
11
-56.298377033203842
21
70.574454390592749
31
0
0
LINE
5
136
100
AcDbEntity
8
0
100
AcDbLine
10
-51.410493247432392
20
72.658292456668917
30
0
11
-55.410105437229248
21
72.60259388192631
31
0
0
LINE
5
137
100
AcDbEntity
8
0
100
AcDbLine
10
-50.511195114320337
20
74.660375852138884
30
0
11
-54.511047182834076
21
74.625974834620592
31
0
0
LINE
5
138
100
AcDbEntity
8
0
100
AcDbLine
10
-49.60124922020988
20
76.6576423652579
30
0
11
-53.601227760763386
21
76.644539880326263
31
0
0
LINE
5
139
100
AcDbEntity
8
0
100
AcDbLine
10
-48.680681364540078
20
78.650035368092162
30
0
11
-52.680672966870418
21
78.658231787238236
31
0
0
LINE
5
140
100
AcDbEntity
8
0
100
AcDbLine
10
-47.749517647911695
20
80.637498370884941
30
0
11
-51.749408901385571
21
80.666993461717993
31
0
0
LINE
5
141
100
AcDbEntity
8
0
100
AcDbLine
10
-46.807784471346856
20
82.619975023658554
30
0
11
-50.807461968176142
21
82.670767949912545
31
0
0
LINE
5
142
100
AcDbEntity
8
0
100
AcDbLine
10
-45.855508535540565
20
84.59740911781175
30
0
11
-49.854858873997728
21
84.669498439369193
31
0
0
LINE
5
143
100
AcDbEntity
8
0
100
AcDbLine
10
-44.892716840103759
20
86.569744587713657
30
0
11
-48.891626627737082
21
86.663128260646388
31
0
0
LINE
5
144
100
AcDbEntity
8
0
100
AcDbLine
10
-43.919436682797723
20
88.536925512293223
30
0
11
-47.917792539646314
21
88.651600888920285
31
0
0
LINE
5
145
100
AcDbEntity
8
0
100
AcDbLine
10
-42.935695658760139
20
90.49889611662465
30
0
11
-46.933384220568549
21
90.634859945587451
31
0
0
LINE
5
146
100
AcDbEntity
8
0
100
AcDbLine
10
-41.94152165972266
20
92.45560077350909
30
0
11
-45.938429581155056
21
92.612849199863533
31
0
0
LINE
5
147
100
AcDbEntity
8
0
100
AcDbLine
10
-40.936942873220268
20
94.406984005051413
30
0
11
-44.932956831074108
21
94.585512570377276
31
0
0
LINE
5
148
100
AcDbEntity
8
0
100
AcDbLine
10
-39.921987781791728
20
96.352990484233501
30
0
11
-43.916994478210754
21
96.552794126760716
31
0
0
LINE
5
149
100
AcDbEntity
8
0
100
AcDbLine
10
-38.896685162172503
20
98.29356503648269
30
0
11
-42.890571327859071
21
98.514638091234943
31
0
0
LINE
5
150
100
AcDbEntity
8
0
100
AcDbLine
10
-37.861064084478301
20
100.22865264123624
30
0
11
-41.853716481904833
21
100.47098884019162
31
0
0
LINE
5
151
100
AcDbEntity
8
0
100
AcDbLine
10
-36.815153911381458
20
102.15819843350131
30
0
11
-40.806459338001076
21
102.42179090576991
31
0
0
LINE
5
152
100
AcDbEntity
8
0
100
AcDbLine
10
-35.758984297278033
20
104.08214770541048
30
0
11
-39.748829588734161
21
104.36698897742932
31
0
0
LINE
5
153
100
AcDbEntity
8
0
100
AcDbLine
10
-34.692585187447008
20
106.00044590777293
30
0
11
-38.680857220781846
21
106.30652790351782
31
0
0
LINE
5
154
100
AcDbEntity
8
0
100
AcDbLine
10
-33.615986817201431
20
107.91303865162087
30
0
11
-37.602572514063326
21
108.2403526928353
31
0
0
LINE
5
155
100
AcDbEntity
8
0
100
AcDbLine
10
-32.529219711031232
20
109.81987170975204
30
0
11
-36.514006040880751
21
110.16840851619338
31
0
0
LINE
5
156
100
AcDbEntity
8
0
100
AcDbLine
10
-31.432314681737452
20
111.72089101826658
30
0
11
-35.415188665052113
21
112.09064070796913
31
0
0
LINE
5
157
100
AcDbEntity
8
0
100
AcDbLine
10
-30.325302829558911
20
113.6160426781006
30
0
11
-34.306151541036478
21
114.00699476765567
31
0
0
LINE
5
158
100
AcDbEntity
8
0
100
AcDbLine
10
-29.208215541290308
20
115.50527295655372
30
0
11
-33.186926113050454
21
115.91741636140708
31
0
0
LINE
5
159
100
AcDbEntity
8
0
100
AcDbLine
10
-28.081084489392403
20
117.38852828881291
30
0
11
-32.057544114176899
21
117.82185132357884
31
0
0
LINE
5
160
100
AcDbEntity
8
0
100
AcDbLine
10
-26.94394163109374
20
119.26575527947115
30
0
11
-30.918037565464829
21
119.72024565826395
31
0
0
ENDSEC
0
SECTION
2
OBJECTS
0
DICTIONARY
5
C
100
AcDbDictionary
3
ACAD_GROUP
350
D
3
ACAD_MLINESTYLE
350
17
0
DICTIONARY
5
D
100
AcDbDictionary
0
DICTIONARY
5
1A
330
C
100
AcDbDictionary
0
DICTIONARY
5
17
100
AcDbDictionary
0
ENDSEC
0
EOF
