<?xml version="1.0" encoding="UTF-8" standalone="no"?>
<!-- Created with Inkscape (http://www.inkscape.org/) -->

<svg
   width="210mm"
   height="297mm"
   viewBox="0 0 210 297"
   version="1.1"
   id="svg1427"
   inkscape:version="1.1.2 (b8e25be833, 2022-02-05)"
   sodipodi:docname="Acknowledgements.svg"
   xmlns:inkscape="http://www.inkscape.org/namespaces/inkscape"
   xmlns:sodipodi="http://sodipodi.sourceforge.net/DTD/sodipodi-0.dtd"
   xmlns:xlink="http://www.w3.org/1999/xlink"
   xmlns="http://www.w3.org/2000/svg"
   xmlns:svg="http://www.w3.org/2000/svg">
  <sodipodi:namedview
     id="namedview1429"
     pagecolor="#ffffff"
     bordercolor="#666666"
     borderopacity="1.0"
     inkscape:pageshadow="2"
     inkscape:pageopacity="0.0"
     inkscape:pagecheckerboard="0"
     inkscape:document-units="mm"
     showgrid="false"
     inkscape:zoom="0.90583672"
     inkscape:cx="259.42865"
     inkscape:cy="473.59528"
     inkscape:window-width="1920"
     inkscape:window-height="1217"
     inkscape:window-x="-8"
     inkscape:window-y="-8"
     inkscape:window-maximized="1"
     inkscape:current-layer="layer1" />
  <defs
     id="defs1424">
    <linearGradient
       inkscape:collect="always"
       xlink:href="#Rainbowred-4"
       id="linearGradient82795"
       gradientUnits="userSpaceOnUse"
       gradientTransform="translate(27.566724,-11.701356)"
       x1="55.776169"
       y1="270.88968"
       x2="112.93489"
       y2="158.83701" />
    <linearGradient
       inkscape:collect="always"
       id="Rainbowred-4">
      <stop
         style="stop-color:#000000;stop-opacity:1"
         offset="0"
         id="stop4469" />
      <stop
         style="stop-color:#6800f3;stop-opacity:1"
         offset="0.05746778"
         id="stop6470" />
      <stop
         style="stop-color:#0607ff;stop-opacity:1"
         offset="0.08082702"
         id="stop4961" />
      <stop
         style="stop-color:#00c0e6;stop-opacity:1"
         offset="0.12643318"
         id="stop5027" />
      <stop
         style="stop-color:#1cff33;stop-opacity:1"
         offset="0.170927"
         id="stop5093" />
      <stop
         style="stop-color:#faff0f;stop-opacity:1"
         offset="0.22654426"
         id="stop5095" />
      <stop
         style="stop-color:#ffa535;stop-opacity:1"
         offset="0.27993682"
         id="stop5097" />
      <stop
         style="stop-color:#ff2a2a;stop-opacity:1"
         offset="0.32981119"
         id="stop4669" />
      <stop
         style="stop-color:#ae0000;stop-opacity:1"
         offset="0.3727484"
         id="stop7564" />
      <stop
         style="stop-color:#5e0000;stop-opacity:1"
         offset="0.41015071"
         id="stop5889" />
      <stop
         style="stop-color:#290e0e;stop-opacity:1"
         offset="0.45265982"
         id="stop5955" />
      <stop
         style="stop-color:#000000;stop-opacity:1"
         offset="0.70314258"
         id="stop5725" />
      <stop
         style="stop-color:#000000;stop-opacity:1"
         offset="1"
         id="stop4471" />
    </linearGradient>
    <linearGradient
       inkscape:collect="always"
       xlink:href="#Rainbowred-4"
       id="linearGradient90695"
       x1="150.77028"
       y1="310.39572"
       x2="584.44733"
       y2="-281.1601"
       gradientUnits="userSpaceOnUse"
       gradientTransform="translate(-77.445636,-11.701356)" />
  </defs>
  <g
     inkscape:label="Layer 1"
     inkscape:groupmode="layer"
     id="layer1">
    <path
       id="path82767"
       style="fill:#d8ffcc;stroke-width:1.5936;stroke-linecap:round;stroke-linejoin:round"
       d="m 91.183654,76.767455 c 2.4519,-0.0056 10.095586,0.129042 10.095586,0.129042 0,0 -0.005,36.314943 -0.0119,36.314933 H 91.183614 c -1.46375,0 -2.64215,-1.1784 -2.64215,-2.64215 V 79.409606 c 0,-1.463752 1.1784,-2.642151 2.64215,-2.642151 z"
       sodipodi:nodetypes="cccsssc" />
    <path
       id="path82769"
       style="fill:url(#linearGradient82795);stroke-width:1.66187;stroke-linecap:round;stroke-linejoin:round;opacity:0.16880734"
       d="m 91.431294,216.39739 h 6.10424 c 2.45175,0 3.782876,-2.90219 3.782876,-3.72468 v 40.48456 c 0,1.59185 0.28944,2.87337 1.32689,2.87337 H 91.431294 c -1.59184,0 -2.87336,-1.28152 -2.87336,-2.87337 v -33.88651 c 0,-1.59184 1.28152,-2.87337 2.87336,-2.87337 z"
       sodipodi:nodetypes="sscscssss" />
    <path
       id="path82771"
       style="fill:#ccceff;stroke-width:1.84034;stroke-linecap:round;stroke-linejoin:round"
       d="m 92.065184,113.21144 h 9.209356 l 0.0117,48.60305 h -9.221046 c -1.95212,0 -3.52367,-1.57156 -3.52367,-3.52367 v -41.55571 c 0,-1.95211 1.57155,-3.52367 3.52367,-3.52367 z"
       sodipodi:nodetypes="sccsssss" />
    <path
       id="path82773"
       style="fill:#cce8ff;fill-opacity:1;stroke-width:1.84034;stroke-linecap:round;stroke-linejoin:round"
       d="m 92.152174,28.164071 h 10.598056 c -1.10712,0 -1.36124,1.060518 -1.36124,1.060518 v 47.673984 c 0,0 -1.571556,0.02745 -3.523676,0.02745 h -5.71314 c -1.95212,0 -3.52367,-1.571557 -3.52367,-3.52367 V 31.687741 c 0,-1.952113 1.57155,-3.52367 3.52367,-3.52367 z"
       sodipodi:nodetypes="scccsssss" />
    <text
       xml:space="preserve"
       style="font-weight:300;font-stretch:condensed;font-size:11.2889px;line-height:1.05;font-family:Bahnschrift;-inkscape-font-specification:'Bahnschrift Light Condensed';fill:#ffffff;fill-opacity:1;stroke:none;stroke-width:0.264583;stroke-opacity:1"
       x="-111.3709"
       y="98.26564"
       id="text82781"
       transform="rotate(-90)"><tspan
         sodipodi:role="line"
         id="tspan82779"
         style="fill:#ffffff;fill-opacity:1;stroke:none;stroke-width:0.264583;stroke-opacity:1"
         x="-111.3709"
         y="98.26564">attention</tspan></text>
    <text
       xml:space="preserve"
       style="font-weight:300;font-stretch:condensed;font-size:11.2889px;line-height:1.05;font-family:Bahnschrift;-inkscape-font-specification:'Bahnschrift Light Condensed';fill:#ffffff;fill-opacity:1;stroke:none;stroke-width:0.264583;stroke-opacity:1"
       x="-151.74222"
       y="98.26564"
       id="text82785"
       transform="rotate(-90)"><tspan
         sodipodi:role="line"
         id="tspan82783"
         style="fill:#ffffff;fill-opacity:1;stroke:none;stroke-width:0.264583;stroke-opacity:1"
         x="-151.74222"
         y="98.26564">for your </tspan></text>
    <path
       id="rect91638"
       style="fill:#ffdfcc;stroke-width:1.95027;stroke-linecap:round;stroke-linejoin:round"
       d="m 92.498764,161.81448 h 8.785166 c 0,0 0.0181,33.87863 0.0181,50.6257 0,2.19229 -1.764906,3.95721 -3.957196,3.95721 h -4.84608 c -2.19229,0 -3.9572,-1.76492 -3.9572,-3.95721 v -46.6685 c 0,-2.19229 1.76491,-3.9572 3.9572,-3.9572 z"
       sodipodi:nodetypes="sccsssss" />
    <text
       xml:space="preserve"
       style="font-weight:300;font-stretch:condensed;font-size:11.2889px;line-height:1.05;font-family:Bahnschrift;-inkscape-font-specification:'Bahnschrift Light Condensed';fill:#ffffff;fill-opacity:1;stroke:none;stroke-width:0.264583;stroke-opacity:1"
       x="-212.62671"
       y="98.26564"
       id="text82789"
       transform="rotate(-90)"><tspan
         sodipodi:role="line"
         id="tspan82787"
         style="fill:#ffffff;fill-opacity:1;stroke:none;stroke-width:0.264583;stroke-opacity:1"
         x="-212.62671"
         y="98.26564">you so much </tspan></text>
    <text
       xml:space="preserve"
       style="font-weight:300;font-stretch:condensed;font-size:11.2889px;line-height:1.05;font-family:Bahnschrift;-inkscape-font-specification:'Bahnschrift Light Condensed';fill:#ffffff;fill-opacity:1;stroke:none;stroke-width:0.264583;stroke-opacity:1"
       x="-247.14252"
       y="98.849815"
       id="text82793"
       transform="rotate(-90)"><tspan
         sodipodi:role="line"
         id="tspan82791"
         style="fill:#ffffff;fill-opacity:1;stroke:none;stroke-width:0.264583;stroke-opacity:1"
         x="-247.14252"
         y="98.849815">Thank </tspan></text>
    <rect
       style="fill:url(#linearGradient90695);fill-opacity:1;stroke:none;stroke-width:1.61455;stroke-linecap:round;stroke-linejoin:round;opacity:0.16880734"
       id="rect87276"
       width="4.3202724"
       height="227.86621"
       x="101.28291"
       y="28.164417"
       ry="1.3798127" />
    <path
       style="fill:#ffffff;stroke-width:0.00969221"
       d="m 100.62696,51.964655 c -0.002,0.02934 -0.009,0.110008 -0.0139,0.179306 -0.13066,1.596736 -0.944928,3.067931 -2.233719,4.035842 -0.829912,0.623286 -1.796535,0.997398 -2.844666,1.100988 -0.335906,0.03319 -0.813575,0.029 -1.163068,-0.01014 -1.124827,-0.126153 -2.166445,-0.580643 -3.047267,-1.329615 -0.142093,-0.120819 -0.507869,-0.49097 -0.629826,-0.637367 -0.684878,-0.82207 -1.11494,-1.777455 -1.265239,-2.810744 -0.04388,-0.301839 -0.05279,-0.440065 -0.05279,-0.818997 0,-0.378925 0.009,-0.517151 0.05279,-0.81899 0.204631,-1.406812 0.945637,-2.694414 2.063738,-3.586048 1.03322,-0.823941 2.31145,-1.253935 3.634587,-1.222666 0.454805,0.01079 0.826031,0.06026 1.251761,0.166993 1.46876,0.368169 2.742988,1.332213 3.502581,2.649968 0.410048,0.711362 0.645018,1.458402 0.731658,2.326136 0.01,0.10234 0.0202,0.675959 0.0134,0.775374 z m -0.37248,-0.712377 c -0.0276,-0.325416 -0.0706,-0.580471 -0.1499,-0.891682 -0.443256,-1.738219 -1.7678,-3.146786 -3.479556,-3.700286 -0.939364,-0.303746 -1.949843,-0.337572 -2.907669,-0.09733 -1.276374,0.320131 -2.386214,1.107928 -3.117553,2.212934 -0.837556,1.265479 -1.085489,2.862449 -0.671872,4.327582 0.343617,1.217161 1.12002,2.276589 2.180512,2.975392 0.522506,0.344304 1.120755,0.598694 1.73006,0.735672 0.791555,0.177956 1.62041,0.171463 2.403675,-0.01879 0.798211,-0.193907 1.512247,-0.555687 2.155366,-1.092055 0.149352,-0.124555 0.516603,-0.492025 0.637134,-0.637511 0.521167,-0.629058 0.872422,-1.311461 1.070103,-2.078986 0.0922,-0.357693 0.141,-0.686112 0.16366,-1.10007 0.005,-0.10288 -0.003,-0.50948 -0.014,-0.634838 z M 99.018134,50.50598 c -0.0021,0.01597 -0.0085,0.06836 -0.01446,0.116301 -0.05108,0.419704 -0.220667,0.743913 -0.520991,0.99589 -0.04668,0.03922 -0.09448,0.07794 -0.10616,0.08612 -0.02098,0.01474 -0.02008,0.01605 0.0736,0.110968 0.41788,0.423344 0.545178,1.141239 0.345881,1.95061 -0.189425,0.76926 -0.645609,1.414182 -1.180489,1.668881 -0.197501,0.09405 -0.347587,0.128929 -0.554371,0.128847 -0.160241,-6.8e-5 -0.267066,-0.01707 -0.420821,-0.06712 -0.129273,-0.04209 -0.186443,-0.07784 -0.23433,-0.146625 -0.05766,-0.08287 -0.08149,-0.171545 -0.08132,-0.303039 1.1e-4,-0.09531 0.0035,-0.11846 0.02228,-0.159801 0.05971,-0.130348 0.12762,-0.147968 0.319842,-0.08296 0.132468,0.04476 0.254891,0.06328 0.370315,0.0558 0.403976,-0.02605 0.792657,-0.341595 1.046546,-0.849601 0.168468,-0.337071 0.257593,-0.767161 0.22367,-1.0794 -0.05059,-0.465946 -0.287702,-0.737716 -0.684042,-0.784088 -0.1187,-0.01392 -0.148139,-0.02194 -0.199441,-0.0545 -0.05341,-0.03387 -0.09747,-0.0979 -0.126803,-0.184277 -0.01714,-0.05046 -0.0218,-0.08554 -0.02153,-0.161405 6.86e-4,-0.173355 0.05224,-0.257277 0.210568,-0.342918 0.135635,-0.07335 0.224335,-0.139934 0.33618,-0.252341 0.255199,-0.256474 0.396428,-0.584825 0.413067,-0.960343 0.01399,-0.315715 -0.07227,-0.613029 -0.24737,-0.852549 -0.0567,-0.07759 -0.204418,-0.218871 -0.2823,-0.270035 -0.136801,-0.08987 -0.302416,-0.154235 -0.478862,-0.186094 -0.120737,-0.0218 -0.17171,-0.04683 -0.222079,-0.108862 -0.07414,-0.09137 -0.115582,-0.214669 -0.115383,-0.343282 1.85e-4,-0.126894 0.03901,-0.213996 0.112366,-0.252321 0.09625,-0.05026 0.45595,0.03798 0.757261,0.185765 0.572876,0.28101 1.020413,0.777184 1.19071,1.320119 0.05691,0.181425 0.06705,0.259567 0.06975,0.536334 0.0014,0.141271 6.86e-4,0.269933 -0.0014,0.285927 z m -4.33633,0.467453 c -0.02214,0.104369 -0.07937,0.176043 -0.157443,0.197097 -0.08082,0.0218 -0.302457,-0.0078 -0.451439,-0.0604 -0.446071,-0.157279 -0.729845,-0.537931 -0.754498,-1.012077 -0.02695,-0.517721 0.238876,-0.915465 0.816811,-1.222275 0.09515,-0.05053 0.111199,-0.05601 0.163654,-0.05574 0.08966,4.19e-4 0.161192,0.04813 0.22888,0.152685 0.05834,0.09008 0.08092,0.169126 0.08087,0.282924 -6.1e-5,0.156785 -0.02372,0.187074 -0.22916,0.293592 -0.216978,0.112489 -0.326308,0.186312 -0.424674,0.28677 -0.193361,0.197466 -0.192811,0.420375 0.0014,0.536176 0.08057,0.04806 0.203089,0.07888 0.360724,0.09074 0.157511,0.01186 0.197028,0.02523 0.25064,0.08473 0.08967,0.09956 0.142072,0.294731 0.114299,0.425744 z m -0.04867,4.137363 c -0.02448,0.07845 -0.111145,0.110837 -0.314858,0.117631 -0.08964,0.0027 -0.14598,-1.3e-5 -0.195239,-0.01047 -0.385432,-0.08156 -0.702634,-0.442451 -0.795008,-0.904523 -0.02605,-0.130137 -0.02366,-0.380975 0.0047,-0.525344 0.05313,-0.267732 0.152238,-0.436541 0.322975,-0.550045 0.09122,-0.06067 0.212001,-0.114636 0.452481,-0.202281 0.205474,-0.07489 0.20723,-0.07533 0.239616,-0.05985 0.06245,0.02975 0.139131,0.164903 0.180053,0.317231 0.01605,0.05965 0.02207,0.10924 0.02235,0.183509 4.17e-4,0.114293 -0.01413,0.158985 -0.06033,0.185846 -0.0146,0.0084 -0.113587,0.04456 -0.22003,0.08019 -0.246053,0.0824 -0.365097,0.142449 -0.451569,0.22779 -0.120394,0.118824 -0.18453,0.297739 -0.140208,0.391136 0.04628,0.09752 0.290329,0.182027 0.48626,0.168377 0.04339,-0.0027 0.115917,-0.01522 0.161097,-0.02708 l 0.08215,-0.02153 0.03278,0.01912 c 0.0678,0.03955 0.135627,0.161255 0.178963,0.320939 0.01816,0.06705 0.02667,0.24737 0.01358,0.289335 z"
       id="path10954" />
  </g>
</svg>
