<?xml version="1.0" encoding="UTF-8" standalone="no"?>
<svg
   width="1486.3597pt"
   height="843.50659pt"
   version="1.1"
   viewBox="0 0 1486.3597 843.50657"
   id="svg152"
   sodipodi:docname="Electricity only.svg"
   inkscape:version="1.1.2 (b8e25be833, 2022-02-05)"
   xmlns:inkscape="http://www.inkscape.org/namespaces/inkscape"
   xmlns:sodipodi="http://sodipodi.sourceforge.net/DTD/sodipodi-0.dtd"
   xmlns="http://www.w3.org/2000/svg"
   xmlns:svg="http://www.w3.org/2000/svg">
  <sodipodi:namedview
     id="namedview154"
     pagecolor="#ffffff"
     bordercolor="#666666"
     borderopacity="1.0"
     inkscape:pageshadow="2"
     inkscape:pageopacity="0.0"
     inkscape:pagecheckerboard="0"
     inkscape:document-units="pt"
     showgrid="false"
     inkscape:zoom="0.19955357"
     inkscape:cx="-1170.1119"
     inkscape:cy="1573.5123"
     inkscape:window-width="1920"
     inkscape:window-height="1217"
     inkscape:window-x="-8"
     inkscape:window-y="-8"
     inkscape:window-maximized="1"
     inkscape:current-layer="svg152" />
  <defs
     id="defs68">
    <marker
       style="overflow:visible"
       id="marker3318"
       refX="0"
       refY="0"
       orient="auto"
       inkscape:stockid="Arrow2Mend"
       inkscape:isstock="true">
      <path
         transform="scale(-0.6)"
         d="M 8.7185878,4.0337352 -2.2072895,0.01601326 8.7185884,-4.0017078 c -1.7454984,2.3720609 -1.7354408,5.6174519 -6e-7,8.035443 z"
         style="fill:context-stroke;fill-rule:evenodd;stroke:context-stroke;stroke-width:0.625;stroke-linejoin:round"
         id="path3316" />
    </marker>
    <marker
       style="overflow:visible"
       id="Arrow2Mend"
       refX="0"
       refY="0"
       orient="auto"
       inkscape:stockid="Arrow2Mend"
       inkscape:isstock="true">
      <path
         transform="scale(-0.6)"
         d="M 8.7185878,4.0337352 -2.2072895,0.01601326 8.7185884,-4.0017078 c -1.7454984,2.3720609 -1.7354408,5.6174519 -6e-7,8.035443 z"
         style="fill:context-stroke;fill-rule:evenodd;stroke:context-stroke;stroke-width:0.625;stroke-linejoin:round"
         id="path3016" />
    </marker>
    <marker
       style="overflow:visible"
       id="Arrow2Lend"
       refX="0"
       refY="0"
       orient="auto"
       inkscape:stockid="Arrow2Lend"
       inkscape:isstock="true">
      <path
         transform="matrix(-1.1,0,0,-1.1,-1.1,0)"
         d="M 8.7185878,4.0337352 -2.2072895,0.01601326 8.7185884,-4.0017078 c -1.7454984,2.3720609 -1.7354408,5.6174519 -6e-7,8.035443 z"
         style="fill:context-stroke;fill-rule:evenodd;stroke:context-stroke;stroke-width:0.625;stroke-linejoin:round"
         id="path3010" />
    </marker>
    <symbol
       id="v"
       overflow="visible">
      <path
         d="m 18.766,-1.125 c -0.96875,0.5 -1.9805,0.875 -3.0312,1.125 -1.043,0.25781 -2.1367,0.39062 -3.2812,0.39062 -3.3984,0 -6.0898,-0.94531 -8.0781,-2.8438 -1.9922,-1.9062 -2.9844,-4.4844 -2.9844,-7.7344 0,-3.2578 0.99219,-5.8359 2.9844,-7.7344 1.9883,-1.9062 4.6797,-2.8594 8.0781,-2.8594 1.1445,0 2.2383,0.13281 3.2812,0.39062 1.0508,0.25 2.0625,0.625 3.0312,1.125 v 4.2188 c -0.98047,-0.65625 -1.9453,-1.1406 -2.8906,-1.4531 -0.94922,-0.3125 -1.9492,-0.46875 -3,-0.46875 -1.875,0 -3.3516,0.60547 -4.4219,1.8125 -1.0742,1.1992 -1.6094,2.8555 -1.6094,4.9688 0,2.1055 0.53516,3.7617 1.6094,4.9688 1.0703,1.1992 2.5469,1.7969 4.4219,1.7969 1.0508,0 2.0508,-0.14844 3,-0.45312 0.94531,-0.3125 1.9102,-0.80078 2.8906,-1.4688 z"
         id="path2" />
    </symbol>
    <symbol
       id="a"
       overflow="visible">
      <path
         d="m 13.734,-11.141 c -0.4375,-0.19531 -0.87109,-0.34375 -1.2969,-0.4375 -0.41797,-0.10156 -0.83984,-0.15625 -1.2656,-0.15625 -1.2617,0 -2.2305,0.40625 -2.9062,1.2188 -0.67969,0.80469 -1.0156,1.9531 -1.0156,3.4531 v 7.0625 H 2.3591 v -15.312 h 4.8906 v 2.5156 c 0.625,-1 1.3438,-1.7266 2.1562,-2.1875 0.82031,-0.46875 1.8008,-0.70312 2.9375,-0.70312 0.16406,0 0.34375,0.01172 0.53125,0.03125 0.19531,0.01172 0.47656,0.03906 0.84375,0.07813 z"
         id="path5" />
    </symbol>
    <symbol
       id="c"
       overflow="visible">
      <path
         d="m 17.641,-7.7031 v 1.4062 H 6.188 c 0.125,1.1484 0.53906,2.0078 1.25,2.5781 0.70703,0.57422 1.7031,0.85938 2.9844,0.85938 1.0312,0 2.082,-0.14844 3.1562,-0.45312 1.082,-0.3125 2.1914,-0.77344 3.3281,-1.3906 v 3.7656 c -1.1562,0.4375 -2.3125,0.76562 -3.4688,0.98438 -1.1562,0.22656 -2.3125,0.34375 -3.4688,0.34375 -2.7734,0 -4.9297,-0.70312 -6.4688,-2.1094 -1.5312,-1.4062 -2.2969,-3.3789 -2.2969,-5.9219 0,-2.5 0.75391,-4.4609 2.2656,-5.8906 1.5078,-1.4375 3.582,-2.1562 6.2188,-2.1562 2.4062,0 4.332,0.73047 5.7812,2.1875 1.4453,1.4492 2.1719,3.3828 2.1719,5.7969 z m -5.0312,-1.625 c 0,-0.92578 -0.27344,-1.6719 -0.8125,-2.2344 -0.54297,-0.57031 -1.25,-0.85938 -2.125,-0.85938 -0.94922,0 -1.7188,0.26562 -2.3125,0.79688 -0.5937,0.53126 -0.96484,1.2969 -1.1094,2.2969 z"
         id="path8" />
    </symbol>
    <symbol
       id="f"
       overflow="visible">
      <path
         d="m 9.2188,-6.8906 c -1.0234,0 -1.793,0.17188 -2.3125,0.51562 -0.51172,0.34375 -0.76562,0.85547 -0.76562,1.5312 0,0.625 0.20703,1.1172 0.625,1.4688 0.41406,0.34375 0.98828,0.51562 1.7188,0.51562 0.92578,0 1.7031,-0.32812 2.3281,-0.98438 0.63281,-0.66406 0.95312,-1.4922 0.95312,-2.4844 v -0.5625 z m 7.4688,-1.8438 V 0 h -4.9219 v -2.2656 c -0.65625,0.92969 -1.3984,1.6055 -2.2188,2.0312 -0.82422,0.41406 -1.8242,0.625 -3,0.625 -1.5859,0 -2.8711,-0.45703 -3.8594,-1.375 -0.99219,-0.92578 -1.4844,-2.1289 -1.4844,-3.6094 0,-1.7891 0.61328,-3.1016 1.8438,-3.9375 1.2383,-0.84375 3.1797,-1.2656 5.8281,-1.2656 h 2.8906 v -0.39062 c 0,-0.76953 -0.30859,-1.332 -0.92188,-1.6875 -0.61719,-0.36328 -1.5703,-0.54688 -2.8594,-0.54688 -1.0547,0 -2.0312,0.10547 -2.9375,0.3125 -0.89844,0.21094 -1.7305,0.52344 -2.5,0.9375 v -3.7344 c 1.0391,-0.25 2.0859,-0.44141 3.1406,-0.57812 1.0625,-0.13281 2.125,-0.20312 3.1875,-0.20312 2.7578,0 4.75,0.54688 5.9688,1.6406 1.2266,1.0859 1.8438,2.8555 1.8438,5.3125 z"
         id="path11" />
    </symbol>
    <symbol
       id="b"
       overflow="visible">
      <path
         d="m 7.7031,-19.656 v 4.3438 H 12.75 v 3.5 H 7.7031 v 6.5 c 0,0.71094 0.14062,1.1875 0.42188,1.4375 0.28126,0.25 0.83594,0.375 1.6719,0.375 h 2.5156 v 3.5 h -4.1875 c -1.9375,0 -3.3125,-0.39844 -4.125,-1.2031 -0.80469,-0.8125 -1.2031,-2.1797 -1.2031,-4.1094 v -6.5 h -2.4219 v -3.5 h 2.4219 v -4.3438 z"
         id="path14" />
    </symbol>
    <symbol
       id="l"
       overflow="visible">
      <path
         d="m 12.766,-13.078 v -8.2031 h 4.9219 V -1e-4 H 12.766 v -2.2188 c -0.66797,0.90625 -1.4062,1.5703 -2.2188,1.9844 -0.8126,0.4141 -1.7578,0.625 -2.8281,0.625 -1.8867,0 -3.4336,-0.75 -4.6406,-2.25 -1.2109,-1.5 -1.8125,-3.4258 -1.8125,-5.7812 0,-2.3633 0.60156,-4.2969 1.8125,-5.7969 1.207,-1.5 2.7539,-2.25 4.6406,-2.25 1.0625,0 2,0.21484 2.8125,0.64062 0.82031,0.42969 1.5664,1.0859 2.2344,1.9688 z m -3.2188,9.9219 c 1.0391,0 1.8359,-0.37891 2.3906,-1.1406 0.55078,-0.76953 0.82812,-1.8828 0.82812,-3.3438 0,-1.457 -0.27734,-2.5664 -0.82812,-3.3281 -0.55469,-0.76953 -1.3516,-1.1562 -2.3906,-1.1562 -1.043,0 -1.8398,0.38672 -2.3906,1.1562 -0.55469,0.76172 -0.82812,1.8711 -0.82812,3.3281 0,1.4609 0.27344,2.5742 0.82812,3.3438 0.55078,0.76172 1.3477,1.1406 2.3906,1.1406 z"
         id="path17" />
    </symbol>
    <symbol
       id="k"
       overflow="visible">
      <path
         d="m 10.5,-3.1562 c 1.0508,0 1.8516,-0.37891 2.4062,-1.1406 0.55078,-0.76953 0.82812,-1.8828 0.82812,-3.3438 0,-1.457 -0.27734,-2.5664 -0.82812,-3.3281 -0.55469,-0.76953 -1.3555,-1.1562 -2.4062,-1.1562 -1.0547,0 -1.8594,0.38672 -2.4219,1.1562 -0.55469,0.77344 -0.82812,1.8828 -0.82812,3.3281 0,1.4492 0.27344,2.5586 0.82812,3.3281 0.5625,0.77344 1.3672,1.1562 2.4219,1.1562 z m -3.25,-9.9219 c 0.67578,-0.88281 1.4219,-1.5391 2.2344,-1.9688 0.82031,-0.42578 1.7656,-0.64062 2.8281,-0.64062 1.8945,0 3.4453,0.75 4.6562,2.25 1.207,1.5 1.8125,3.4336 1.8125,5.7969 0,2.3555 -0.60547,4.2812 -1.8125,5.7812 -1.2109,1.5 -2.7617,2.25 -4.6562,2.25 -1.0625,0 -2.0078,-0.21094 -2.8281,-0.625 C 8.6719,-0.6602 7.9258,-1.32032 7.25,-2.21882 V -2e-5 H 2.3594 v -21.281 H 7.25 Z"
         id="path20" />
    </symbol>
    <symbol
       id="j"
       overflow="visible">
      <path
         d="m 0.34375,-15.312 h 4.8906 l 4.125,10.391 3.5,-10.391 h 4.8906 l -6.4375,16.766 c -0.64844,1.6953 -1.4023,2.8828 -2.2656,3.5625 -0.86719,0.6875 -2,1.0312 -3.4062,1.0312 H 2.79685 V 2.8289 h 1.5312 c 0.83203,0 1.4375,-0.13672 1.8125,-0.40625 C 6.52336,2.16093 6.82024,1.69218 7.03117,1.01645 L 7.17179,0.59457 Z"
         id="path23" />
    </symbol>
    <symbol
       id="i"
       overflow="visible">
      <path
         d="M 14.953,-3.7188 H 6.7342 L 5.4217,0 H 0.1405 L 7.703,-20.406 h 6.2656 L 21.5311,0 H 16.2499 Z M 8.0468,-7.5 h 5.5781 l -2.7812,-8.125 z"
         id="path26" />
    </symbol>
    <symbol
       id="e"
       overflow="visible">
      <path
         d="M 17.75,-9.3281 V 0 h -4.9219 v -7.1094 c 0,-1.3438 -0.03125,-2.2656 -0.09375,-2.7656 -0.0625,-0.5 -0.16797,-0.86719 -0.3125,-1.1094 -0.1875,-0.3125 -0.44922,-0.55469 -0.78125,-0.73438 -0.32422,-0.17578 -0.69531,-0.26562 -1.1094,-0.26562 -1.0234,0 -1.8242,0.39844 -2.4062,1.1875 -0.58594,0.78125 -0.875,1.8711 -0.875,3.2656 V -1e-4 H 2.3594 v -21.281 H 7.25 v 8.2031 c 0.73828,-0.88281 1.5195,-1.5391 2.3438,-1.9688 0.83203,-0.42578 1.75,-0.64062 2.75,-0.64062 1.7695,0 3.1133,0.54688 4.0312,1.6406 0.91406,1.0859 1.375,2.6562 1.375,4.7188 z"
         id="path29" />
    </symbol>
    <symbol
       id="h"
       overflow="visible">
      <path
         d="m 2.1875,-5.9688 v -9.3438 h 4.9219 v 1.5312 c 0,0.83594 -0.00781,1.875 -0.015625,3.125 -0.011719,1.25 -0.015625,2.0859 -0.015625,2.5 0,1.2422 0.03125,2.1328 0.09375,2.6719 0.070313,0.54297 0.17969,0.93359 0.32812,1.1719 0.20703,0.32422 0.47266,0.57422 0.79688,0.75 0.32031,0.16797 0.69141,0.25 1.1094,0.25 1.0195,0 1.8203,-0.39062 2.4062,-1.1719 0.58203,-0.78125 0.875,-1.8672 0.875,-3.2656 v -7.5625 h 4.8906 V -6e-4 H 12.6875 V -2.2194 C 11.94531,-1.32096 11.1641,-0.6608 10.3437,-0.235 9.51948,0.17906 8.6093,0.39 7.6093,0.39 5.8476,0.39 4.5038,-0.14906 3.5781,-1.235 2.64841,-2.317 2.1875,-3.8952 2.1875,-5.9694 Z"
         id="path32" />
    </symbol>
    <symbol
       id="u"
       overflow="visible">
      <path
         d="m 16.781,-19.766 v 4.3125 c -1.125,-0.5 -2.2266,-0.875 -3.2969,-1.125 -1.0625,-0.25781 -2.0703,-0.39062 -3.0156,-0.39062 -1.25,0 -2.1797,0.17969 -2.7812,0.53125 -0.60547,0.34375 -0.90625,0.88281 -0.90625,1.6094 0,0.54297 0.20312,0.96875 0.60938,1.2812 0.40625,0.30469 1.1406,0.5625 2.2031,0.78125 l 2.25,0.45312 c 2.2695,0.44922 3.8789,1.1406 4.8281,2.0781 0.95703,0.92969 1.4375,2.2461 1.4375,3.9531 0,2.25 -0.66797,3.9297 -2,5.0312 -1.3359,1.0938 -3.3711,1.6406 -6.1094,1.6406 -1.3047,0 -2.6055,-0.125 -3.9062,-0.375 -1.3047,-0.23828 -2.6055,-0.59766 -3.9062,-1.0781 v -4.4531 c 1.3008,0.69922 2.5625,1.2266 3.7812,1.5781 1.2188,0.34375 2.3906,0.51562 3.5156,0.51562 1.1562,0 2.0352,-0.1875 2.6406,-0.5625 0.61328,-0.38281 0.92188,-0.9375 0.92188,-1.6562 0,-0.63281 -0.21094,-1.125 -0.625,-1.4688 -0.41797,-0.34375 -1.2461,-0.65625 -2.4844,-0.9375 l -2.0312,-0.4375 c -2.043,-0.4375 -3.5391,-1.1328 -4.4844,-2.0938 -0.9375,-0.95703 -1.4062,-2.25 -1.4062,-3.875 0,-2.0312 0.65625,-3.5938 1.9688,-4.6875 1.31255,-1.0937 3.1953,-1.6406 5.6562,-1.6406 1.125,0 2.2734,0.08594 3.4531,0.25 1.1875,0.16797 2.4141,0.42188 3.6875,0.76562 z"
         id="path35" />
    </symbol>
    <symbol
       id="t"
       overflow="visible">
      <path
         d="M 2.3594,-21.281 H 7.25 V 0 H 2.3594 Z"
         id="path38" />
    </symbol>
    <symbol
       id="s"
       overflow="visible">
      <path
         d="M 2.3594,-15.312 H 7.25 V 0 H 2.3594 Z m 0,-5.9688 H 7.25 v 4 H 2.3594 Z"
         id="path41" />
    </symbol>
    <symbol
       id="g"
       overflow="visible">
      <path
         d="M 17.75,-9.3281 V 0 h -4.9219 v -7.1406 c 0,-1.3203 -0.03125,-2.2344 -0.09375,-2.7344 -0.0625,-0.5 -0.16797,-0.86719 -0.3125,-1.1094 -0.1875,-0.3125 -0.44922,-0.55469 -0.78125,-0.73438 -0.32422,-0.17578 -0.69531,-0.26562 -1.1094,-0.26562 -1.0234,0 -1.8242,0.39844 -2.4062,1.1875 -0.58594,0.78125 -0.875,1.8711 -0.875,3.2656 V -1e-4 H 2.3594 v -15.312 H 7.25 v 2.2344 c 0.73828,-0.88281 1.5195,-1.5391 2.3438,-1.9688 0.83203,-0.42578 1.75,-0.64062 2.75,-0.64062 1.7695,0 3.1133,0.54688 4.0312,1.6406 0.91406,1.0859 1.375,2.6562 1.375,4.7188 z"
         id="path44" />
    </symbol>
    <symbol
       id="r"
       overflow="visible">
      <path
         d="m 12.422,-21.281 v 3.2188 H 9.7189 c -0.6875,0 -1.1719,0.125 -1.4531,0.375 -0.27344,0.25 -0.40625,0.6875 -0.40625,1.3125 v 1.0625 h 4.1875 v 3.5 H 7.85955 V -2e-4 h -4.8906 v -11.812 h -2.4375 v -3.5 h 2.4375 v -1.0625 c 0,-1.6641 0.46094,-2.8984 1.3906,-3.7031 0.92578,-0.80078 2.3672,-1.2031 4.3281,-1.2031 z"
         id="path47" />
    </symbol>
    <symbol
       id="d"
       overflow="visible">
      <path
         d="m 9.6406,-12.188 c -1.0859,0 -1.9141,0.39062 -2.4844,1.1719 -0.57422,0.78125 -0.85938,1.9062 -0.85938,3.375 0,1.4688 0.28516,2.5938 0.85938,3.375 0.57031,0.77344 1.3984,1.1562 2.4844,1.1562 1.0625,0 1.875,-0.38281 2.4375,-1.1562 0.57031,-0.78125 0.85938,-1.9062 0.85938,-3.375 0,-1.4688 -0.28906,-2.5938 -0.85938,-3.375 -0.5625,-0.78125 -1.375,-1.1719 -2.4375,-1.1719 z m 0,-3.5 c 2.6328,0 4.6914,0.71484 6.1719,2.1406 1.4766,1.418 2.2188,3.3867 2.2188,5.9062 0,2.5117 -0.74219,4.4805 -2.2188,5.9062 C 14.332,-0.317 12.2734,0.39 9.6406,0.39 6.9922,0.39 4.9258,-0.31703 3.4375,-1.735 1.9453,-3.1608 1.2031,-5.1295 1.2031,-7.6412 c 0,-2.5195 0.74219,-4.4883 2.2344,-5.9062 1.4883,-1.4258 3.5547,-2.1406 6.2031,-2.1406 z"
         id="path50" />
    </symbol>
    <symbol
       id="q"
       overflow="visible">
      <path
         d="m 16.547,-12.766 c 0.61328,-0.94531 1.3477,-1.6719 2.2031,-2.1719 0.85156,-0.5 1.7891,-0.75 2.8125,-0.75 1.7578,0 3.0977,0.54688 4.0156,1.6406 0.92578,1.0859 1.3906,2.6562 1.3906,4.7188 V -4e-4 h -4.9219 v -7.9844 -0.35938 c 0.0078,-0.13281 0.01563,-0.32031 0.01563,-0.5625 0,-1.082 -0.16406,-1.8633 -0.48438,-2.3438 -0.3125,-0.48828 -0.82422,-0.73438 -1.5312,-0.73438 -0.92969,0 -1.6484,0.38672 -2.1562,1.1562 -0.51172,0.76172 -0.77344,1.8672 -0.78125,3.3125 v 7.5156 h -4.9219 v -7.9844 c 0,-1.6953 -0.14844,-2.7852 -0.4375,-3.2656 -0.29297,-0.48828 -0.8125,-0.73438 -1.5625,-0.73438 -0.9375,0 -1.6641,0.38672 -2.1719,1.1562 -0.51172,0.76172 -0.76562,1.8594 -0.76562,3.2969 v 7.5312 h -4.9219 v -15.312 h 4.9219 v 2.2344 c 0.60156,-0.86328 1.2891,-1.5156 2.0625,-1.9531 0.78125,-0.4375 1.6406,-0.65625 2.5781,-0.65625 1.0625,0 2,0.25781 2.8125,0.76562 0.8125,0.51172 1.4258,1.2305 1.8438,2.1562 z"
         id="path53" />
    </symbol>
    <symbol
       id="p"
       overflow="visible">
      <path
         d="m 2.5781,-20.406 h 5.875 l 7.4219,14 v -14 h 4.9844 V 0 h -5.875 L 7.5625,-14 V 0 H 2.5781 Z"
         id="path56" />
    </symbol>
    <symbol
       id="o"
       overflow="visible">
      <path
         d="m 2.5781,-20.406 h 8.7344 c 2.5938,0 4.582,0.57812 5.9688,1.7344 1.3945,1.1484 2.0938,2.7891 2.0938,4.9219 0,2.1367 -0.69922,3.7812 -2.0938,4.9375 -1.3867,1.1562 -3.375,1.7344 -5.9688,1.7344 H 7.8281 V 3e-4 h -5.25 z m 5.25,3.8125 v 5.7031 H 10.75 c 1.0195,0 1.8047,-0.25 2.3594,-0.75 0.5625,-0.5 0.84375,-1.2031 0.84375,-2.1094 0,-0.91406 -0.28125,-1.6172 -0.84375,-2.1094 -0.55469,-0.48828 -1.3398,-0.73438 -2.3594,-0.73438 z"
         id="path59" />
    </symbol>
    <symbol
       id="n"
       overflow="visible">
      <path
         d="M 2.3594,-15.312 H 7.25 v 15.031 c 0,2.0508 -0.49609,3.6172 -1.4844,4.7031 -0.98047,1.082 -2.4062,1.625 -4.2812,1.625 H -0.9375 V 2.8283 h 0.85938 c 0.92578,0 1.5625,-0.21094 1.9062,-0.625 0.35156,-0.41797 0.53125,-1.2461 0.53125,-2.4844 z m 0,-5.9688 H 7.25 v 4 H 2.3594 Z"
         id="path62" />
    </symbol>
    <symbol
       id="m"
       overflow="visible">
      <path
         d="m 14.719,-14.828 v 3.9844 c -0.65625,-0.45703 -1.3242,-0.79688 -2,-1.0156 -0.66797,-0.21875 -1.3594,-0.32812 -2.0781,-0.32812 -1.3672,0 -2.4336,0.40234 -3.2031,1.2031 -0.76172,0.79297 -1.1406,1.9062 -1.1406,3.3438 0,1.4297 0.37891,2.543 1.1406,3.3438 0.76953,0.79297 1.8359,1.1875 3.2031,1.1875 0.75781,0 1.4844,-0.10938 2.1719,-0.32812 0.6875,-0.22656 1.3203,-0.56641 1.9062,-1.0156 v 4 c -0.76172,0.28125 -1.5391,0.48828 -2.3281,0.625 -0.78125,0.14453 -1.5742,0.21875 -2.375,0.21875 -2.7617,0 -4.9219,-0.70703 -6.4844,-2.125 -1.5547,-1.4141 -2.3281,-3.3828 -2.3281,-5.9062 0,-2.5312 0.77344,-4.5039 2.3281,-5.9219 1.5625,-1.4141 3.7227,-2.125 6.4844,-2.125 0.80078,0 1.5938,0.07422 2.375,0.21875 0.78125,0.13672 1.5547,0.35156 2.3281,0.64062 z"
         id="path65" />
    </symbol>
    <symbol
       id="v-9"
       overflow="visible">
      <path
         d="M 1.8281,-0.10938 C 1.73435,-0.054692 1.63279,-0.019536 1.53122,0 1.43747,0.019531 1.332,0.03125 1.21872,0.03125 c -0.33594,0 -0.60156,-0.085938 -0.79688,-0.26562 -0.1875,-0.1875 -0.28125,-0.44141 -0.28125,-0.76562 0,-0.3125 0.09375,-0.5625 0.28125,-0.75 0.19531,-0.1875 0.46094,-0.28125 0.79688,-0.28125 0.11328,0 0.21875,0.015625 0.3125,0.046875 0.10156,0.023437 0.20312,0.058594 0.29688,0.10938 v 0.40625 C 1.73435,-1.531235 1.6406,-1.578115 1.54685,-1.609355 1.4531,-1.640595 1.35154,-1.65623 1.24997,-1.65623 c -0.17969,0 -0.32031,0.0625 -0.42188,0.1875 -0.10547,0.11719 -0.15625,0.27344 -0.15625,0.46875 0,0.21094 0.050781,0.375 0.15625,0.5 0.10156,0.11719 0.24219,0.17188 0.42188,0.17188 0.10156,0 0.20312,-0.015625 0.29688,-0.046875 0.09376,-0.03125 0.1875,-0.078125 0.28125,-0.14062 z"
         id="path1139" />
    </symbol>
    <symbol
       id="f-5"
       overflow="visible">
      <path
         d="M 1.3438,-1.0938 C 1.300831,-1.113331 1.257862,-1.12505 1.2188,-1.12505 1.175831,-1.132862 1.132862,-1.140675 1.0938,-1.140675 c -0.125,0 -0.22656,0.042969 -0.29688,0.125 -0.0625,0.074219 -0.09375,0.18359 -0.09375,0.32812 v 0.6875 H 0.23442 v -1.5 h 0.46875 v 0.25 c 0.0625,-0.09375 0.12891,-0.16016 0.20312,-0.20312 C 0.988321,-1.503956 1.08598,-1.5313 1.20317,-1.5313 h 0.046875 c 0.019531,0 0.050781,0.00781 0.09375,0.015625 z"
         id="path1142" />
    </symbol>
    <symbol
       id="a-7"
       overflow="visible">
      <path
         d="m 1.7188,-0.75 v 0.14062 H 0.6094 c 0.007813,0.10547 0.046875,0.1875 0.10938,0.25 0.070312,0.054687 0.17188,0.078125 0.29688,0.078125 0.10156,0 0.20703,-0.015625 0.3125,-0.046875 0.10156,-0.03125 0.21094,-0.070313 0.32812,-0.125 v 0.35938 C 1.53909,-0.050781 1.42581,-0.019531 1.31253,0 1.19534,0.019531 1.08206,0.03125 0.96878,0.03125 c -0.27344,0 -0.48047,-0.066406 -0.625,-0.20312 -0.14844,-0.13281 -0.21875,-0.32812 -0.21875,-0.57812 0,-0.23828 0.070312,-0.42578 0.21875,-0.5625 0.14453,-0.14453 0.34766,-0.21875 0.60938,-0.21875 0.22656,0 0.41016,0.074219 0.54688,0.21875 0.14453,0.13672 0.21875,0.32422 0.21875,0.5625 z M 1.23442,-0.90625 C 1.23442,-1 1.207076,-1.07031 1.156295,-1.125 c -0.054688,-0.0625 -0.125,-0.09375 -0.21875,-0.09375 -0.085938,0 -0.15625,0.027344 -0.21875,0.078125 -0.0625,0.054687 -0.10156,0.13281 -0.10938,0.23438 z"
         id="path1145" />
    </symbol>
    <symbol
       id="e-7"
       overflow="visible">
      <path
         d="m 0.90625,-0.67188 c -0.10547,0 -0.18359,0.015625 -0.23438,0.046875 -0.054687,0.03125 -0.078125,0.085938 -0.078125,0.15625 0,0.0625 0.019531,0.10938 0.0625,0.14062 0.039062,0.03125 0.097656,0.046875 0.17188,0.046875 0.09375,0 0.16406,-0.03125 0.21875,-0.09375 0.0625,-0.0625 0.09375,-0.14453 0.09375,-0.25 V -0.671885 Z M 1.625,-0.85938 V 0 H 1.14062 V -0.21875 C 1.07812,-0.125 1.0039,-0.05469 0.92187,-0.01563 0.847651,0.01562 0.7539,0.031245 0.64062,0.031245 c -0.15625,0 -0.28125,-0.039062 -0.375,-0.125 -0.09375,-0.09375 -0.14062,-0.21094 -0.14062,-0.35938 0,-0.17578 0.054688,-0.30078 0.17188,-0.375 0.125,-0.082031 0.3125,-0.125 0.5625,-0.125 H 1.14063 V -1.00001 c 0,-0.070312 -0.03125,-0.125 -0.09375,-0.15625 -0.054687,-0.039062 -0.14062,-0.0625 -0.26562,-0.0625 -0.10547,0 -0.20312,0.011719 -0.29688,0.03125 C 0.398443,-1.164072 0.32032,-1.132822 0.25,-1.09376 v -0.35938 c 0.10156,-0.03125 0.20703,-0.050781 0.3125,-0.0625 0.10156,-0.00781 0.20312,-0.015625 0.29688,-0.015625 0.26953,0 0.46094,0.054688 0.57812,0.15625 0.125,0.10547 0.1875,0.27734 0.1875,0.51562 z"
         id="path1148" />
    </symbol>
    <symbol
       id="d-9"
       overflow="visible">
      <path
         d="m 0.75,-1.9219 v 0.42188 h 0.5 v 0.34375 h -0.5 v 0.64062 c 0,0.0625 0.007812,0.10938 0.03125,0.14062 0.03125,0.023438 0.085938,0.03125 0.17188,0.03125 h 0.25 V -3e-5 H 0.79688 C 0.60938,-3e-5 0.47266,-0.035186 0.39063,-0.10941 0.316411,-0.191441 0.28125,-0.32816 0.28125,-0.51566 v -0.64062 h -0.25 v -0.34375 h 0.25 v -0.42188 z"
         id="path1151" />
    </symbol>
    <symbol
       id="k-0"
       overflow="visible">
      <path
         d="M 1.25,-1.2812 V -2.07808 H 1.73438 V 2e-5 H 1.25 V -0.21873 C 1.175781,-0.12498 1.09766,-0.05467 1.01562,-0.01561 0.941401,0.01564 0.85156,0.031265 0.75,0.031265 c -0.17969,0 -0.32812,-0.070312 -0.45312,-0.21875 -0.11719,-0.14453 -0.17188,-0.33203 -0.17188,-0.5625 0,-0.22656 0.054688,-0.41406 0.17188,-0.5625 0.125,-0.14453 0.27344,-0.21875 0.45312,-0.21875 0.10156,0 0.19141,0.023438 0.26562,0.0625 0.082031,0.042969 0.16016,0.10547 0.23438,0.1875 z m -0.3125,0.96875 c 0.09375,0 0.16406,-0.035156 0.21875,-0.10938 C 1.21875,-0.492143 1.25,-0.60152 1.25,-0.74995 c 0,-0.13281 -0.03125,-0.23828 -0.09375,-0.3125 -0.054688,-0.082031 -0.125,-0.125 -0.21875,-0.125 -0.10547,0 -0.18359,0.042969 -0.23438,0.125 -0.054687,0.074219 -0.078125,0.17969 -0.078125,0.3125 0,0.14844 0.023438,0.25781 0.078125,0.32812 0.050781,0.074219 0.12891,0.10938 0.23438,0.10938 z"
         id="path1154" />
    </symbol>
    <symbol
       id="j-3"
       overflow="visible">
      <path
         d="m 1.0312,-0.3125 c 0.09375,0 0.16406,-0.035156 0.21875,-0.10938 0.0625,-0.070313 0.09375,-0.17969 0.09375,-0.32812 0,-0.13281 -0.03125,-0.23828 -0.09375,-0.3125 -0.054688,-0.082031 -0.125,-0.125 -0.21875,-0.125 -0.10547,0 -0.1875,0.042969 -0.25,0.125 -0.054688,0.074219 -0.078125,0.17969 -0.078125,0.3125 0,0.14844 0.023437,0.25781 0.078125,0.32812 0.0625,0.074219 0.14453,0.10938 0.25,0.10938 z M 0.70308,-1.28125 c 0.070313,-0.082031 0.14453,-0.14453 0.21875,-0.1875 0.082031,-0.039062 0.17578,-0.0625 0.28125,-0.0625 0.1875,0 0.33594,0.074219 0.45312,0.21875 0.11328,0.14844 0.17188,0.33594 0.17188,0.5625 0,0.23047 -0.058594,0.41797 -0.17188,0.5625 -0.11719,0.14844 -0.26562,0.21875 -0.45312,0.21875 -0.10547,0 -0.19922,-0.015625 -0.28125,-0.046875 -0.074219,-0.039062 -0.14844,-0.10938 -0.21875,-0.20312 V 5e-6 H 0.23433 v -2.0781 h 0.46875 z"
         id="path1157" />
    </symbol>
    <symbol
       id="i-3"
       overflow="visible">
      <path
         d="M 0.03125,-1.5 H 0.51563 L 0.90625,-0.4844 1.25,-1.5 h 0.48438 l -0.625,1.6406 C 1.04688,0.30466 0.96876,0.42185 0.875,0.48435 0.789062,0.554663 0.67969,0.59373 0.54688,0.59373 H 0.28126 v -0.3125 h 0.14062 c 0.082031,0 0.14062,-0.015625 0.17188,-0.046875 0.039062,-0.023437 0.070312,-0.070313 0.09375,-0.14062 l 0.015625,-0.03125 z"
         id="path1160" />
    </symbol>
    <symbol
       id="c-6"
       overflow="visible">
      <path
         d="m 1.3906,-1.4531 v 0.375 C 1.29685,-1.128881 1.19529,-1.164037 1.09372,-1.18748 0.99997,-1.207011 0.91013,-1.21873 0.8281,-1.21873 c -0.085937,0 -0.15234,0.015625 -0.20312,0.046875 -0.042969,0.023437 -0.0625,0.054687 -0.0625,0.09375 0,0.042969 0.015625,0.074219 0.046875,0.09375 0.03125,0.023437 0.09375,0.039063 0.1875,0.046875 l 0.078125,0.015625 c 0.25,0.03125 0.41406,0.085937 0.5,0.15625 0.082031,0.0625 0.125,0.17188 0.125,0.32812 0,0.15624 -0.0625,0.27734 -0.1875,0.35938 -0.11719,0.074219 -0.28906,0.10938 -0.51562,0.10938 -0.10547,0 -0.21094,-0.011719 -0.3125,-0.03125 -0.10547,-0.0078125 -0.21094,-0.03125 -0.3125,-0.0625 v -0.35938 c 0.09375,0.054687 0.1875,0.089844 0.28125,0.10938 0.10156,0.023438 0.20703,0.03125 0.3125,0.03125 0.09375,0 0.16016,-0.007812 0.20312,-0.03125 0.050781,-0.03125 0.078125,-0.070312 0.078125,-0.125 0,-0.039062 -0.015625,-0.070312 -0.046875,-0.09375 C 0.96873,-0.550756 0.89842,-0.566381 0.79686,-0.5781 L 0.718735,-0.593725 c -0.21875,-0.019531 -0.37109,-0.066406 -0.45312,-0.14062 -0.085937,-0.070313 -0.125,-0.17969 -0.125,-0.32812 0,-0.15625 0.050781,-0.26953 0.15625,-0.34375 0.11328,-0.082031 0.28125,-0.125 0.5,-0.125 0.09375,0 0.1875,0.011719 0.28125,0.03125 0.10156,0.011719 0.20703,0.027344 0.3125,0.046875 z"
         id="path1163" />
    </symbol>
    <symbol
       id="b-4"
       overflow="visible">
      <path
         d="M 1.7344,-0.90625 V 0 H 1.25002 v -0.6875 c 0,-0.13281 -0.00781,-0.22266 -0.015625,-0.26562 0,-0.050781 -0.00781,-0.09375 -0.015625,-0.125 -0.023438,-0.03125 -0.046875,-0.050781 -0.078125,-0.0625 -0.03125,-0.019531 -0.070313,-0.03125 -0.10938,-0.03125 -0.10547,0 -0.1875,0.042969 -0.25,0.125 -0.054688,0.074219 -0.078125,0.17969 -0.078125,0.3125 V 1e-5 H 0.23439 v -2.0781 h 0.46875 v 0.79688 c 0.070313,-0.082031 0.14844,-0.14453 0.23438,-0.1875 0.082031,-0.039062 0.17188,-0.0625 0.26562,-0.0625 0.17578,0 0.30469,0.054688 0.39062,0.15625 0.09375,0.10547 0.14062,0.26172 0.14062,0.46875 z"
         id="path1166" />
    </symbol>
    <symbol
       id="h-3"
       overflow="visible">
      <path
         d="M 1.7344,-0.90625 V 0 H 1.25002 v -0.70312 c 0,-0.125 -0.00781,-0.20703 -0.015625,-0.25 0,-0.050781 -0.00781,-0.09375 -0.015625,-0.125 -0.023438,-0.03125 -0.046875,-0.050781 -0.078125,-0.0625 -0.03125,-0.019531 -0.070313,-0.03125 -0.10938,-0.03125 -0.10547,0 -0.1875,0.042969 -0.25,0.125 -0.054688,0.074219 -0.078125,0.17969 -0.078125,0.3125 V 1e-5 H 0.23439 v -1.5 h 0.46875 v 0.21875 c 0.070313,-0.082031 0.14844,-0.14453 0.23438,-0.1875 0.082031,-0.039062 0.17188,-0.0625 0.26562,-0.0625 0.17578,0 0.30469,0.054688 0.39062,0.15625 0.09375,0.10547 0.14062,0.26172 0.14062,0.46875 z"
         id="path1169" />
    </symbol>
    <symbol
       id="u-9"
       overflow="visible">
      <path
         d="m 0.23438,-2.0781 h 0.46875 v 1.125 l 0.54688,-0.54688 h 0.5625 L 1.07813,-0.81248 1.87501,2e-5 H 1.29689 l -0.59375,-0.625 V 2e-5 H 0.23439 Z"
         id="path1172" />
    </symbol>
    <symbol
       id="t-4"
       overflow="visible">
      <path
         d="M 0.23438,-1.5 H 0.70313 V 0 H 0.23438 Z m 0,-0.57812 H 0.70313 V -1.6875 H 0.23438 Z"
         id="path1175" />
    </symbol>
    <symbol
       id="s-7"
       overflow="visible">
      <path
         d="M 1.25,-0.25 C 1.175781,-0.164062 1.09766,-0.10156 1.01562,-0.0625 0.941401,-0.019531 0.85156,0 0.75,0 0.57031,0 0.42188,-0.070312 0.29688,-0.21875 0.17969,-0.36328 0.125,-0.54687 0.125,-0.76563 c 0,-0.21876 0.054688,-0.39844 0.17188,-0.54688 0.125,-0.14453 0.27344,-0.21875 0.45312,-0.21875 0.10156,0 0.19141,0.023438 0.26562,0.0625 0.082031,0.042969 0.16016,0.10547 0.23438,0.1875 v -0.21875 h 0.48438 v 1.3438 C 1.73438,0.08207 1.656255,0.26567 1.5,0.39067 1.34375,0.52348 1.125,0.59379 0.84375,0.59379 0.75,0.59379 0.65625,0.582071 0.5625,0.56254 0.476562,0.550821 0.39453,0.53129 0.3125,0.50004 v -0.375 c 0.082031,0.050781 0.16016,0.085938 0.23438,0.10938 0.082031,0.03125 0.16406,0.046875 0.25,0.046875 0.15625,0 0.26953,-0.039062 0.34375,-0.10938 0.070313,-0.074219 0.10938,-0.17969 0.10938,-0.32812 z M 0.9375,-1.1875 c -0.10547,0 -0.18359,0.039062 -0.23438,0.10938 -0.054687,0.074219 -0.078125,0.17969 -0.078125,0.3125 0,0.13672 0.023438,0.24219 0.078125,0.3125 0.050781,0.074219 0.12891,0.10938 0.23438,0.10938 0.09375,0 0.16406,-0.035156 0.21875,-0.10938 C 1.21875,-0.523433 1.25,-0.6289 1.25,-0.76562 1.25,-0.89843 1.21875,-1.0039 1.15625,-1.07812 1.101562,-1.148433 1.03125,-1.1875 0.9375,-1.1875 Z"
         id="path1178" />
    </symbol>
    <symbol
       id="r-1"
       overflow="visible">
      <path
         d="m 1.2188,-2.0781 v 0.3125 H 0.95318 c -0.074219,0 -0.125,0.015625 -0.15625,0.046875 -0.023437,0.023438 -0.03125,0.0625 -0.03125,0.125 v 0.09375 h 0.40625 v 0.34375 H 0.76568 v 1.1562 H 0.29693 v -1.1562 h -0.25 v -0.34375 h 0.25 v -0.09375 c 0,-0.16406 0.039063,-0.28516 0.125,-0.35938 0.09375,-0.082031 0.23438,-0.125 0.42188,-0.125 z"
         id="path1181" />
    </symbol>
    <symbol
       id="g-5"
       overflow="visible">
      <path
         d="m 0.9375,-1.1875 c -0.10547,0 -0.1875,0.039062 -0.25,0.10938 -0.054688,0.074219 -0.078125,0.18359 -0.078125,0.32812 0,0.14844 0.023437,0.26172 0.078125,0.34375 0.0625,0.074219 0.14453,0.10938 0.25,0.10938 0.10156,0 0.17969,-0.035156 0.23438,-0.10938 0.0625,-0.082031 0.09375,-0.19531 0.09375,-0.34375 0,-0.14453 -0.03125,-0.25391 -0.09375,-0.32812 C 1.117193,-1.148433 1.03907,-1.1875 0.9375,-1.1875 Z m 0,-0.34375 c 0.25781,0 0.46094,0.074219 0.60938,0.21875 0.14453,0.13672 0.21875,0.32422 0.21875,0.5625 0,0.25 -0.074219,0.44531 -0.21875,0.57812 C 1.39844,-0.03516 1.19532,0.03124 0.9375,0.03124 0.67578,0.03124 0.47266,-0.035166 0.32812,-0.17188 0.1914,-0.30469 0.125,-0.5 0.125,-0.75 c 0,-0.23828 0.066406,-0.42578 0.20312,-0.5625 0.14453,-0.14453 0.34766,-0.21875 0.60938,-0.21875 z"
         id="path1184" />
    </symbol>
    <symbol
       id="q-0"
       overflow="visible">
      <path
         d="m 1.6094,-1.25 c 0.0625,-0.09375 0.13281,-0.16016 0.21875,-0.20312 0.082031,-0.050781 0.17578,-0.078125 0.28125,-0.078125 0.16406,0 0.29688,0.054688 0.39062,0.15625 0.09375,0.10547 0.14062,0.26172 0.14062,0.46875 V 5e-6 H 2.15626 v -0.78125 -0.03125 -0.0625 c 0,-0.10156 -0.015625,-0.17578 -0.046875,-0.21875 -0.03125,-0.050781 -0.085937,-0.078125 -0.15625,-0.078125 -0.085937,0 -0.15234,0.039063 -0.20312,0.10938 C 1.695327,-0.988271 1.67189,-0.8789 1.67189,-0.73437 V 1e-5 H 1.18751 v -0.78125 c 0,-0.16406 -0.015625,-0.26953 -0.046875,-0.3125 -0.023437,-0.050781 -0.070313,-0.078125 -0.14062,-0.078125 -0.09375,0 -0.16797,0.042969 -0.21875,0.125 -0.054688,0.074219 -0.078125,0.17969 -0.078125,0.3125 V 1.5e-5 H 0.23439 v -1.5 h 0.46875 v 0.21875 c 0.0625,-0.082031 0.12891,-0.14453 0.20312,-0.1875 0.082031,-0.039062 0.16406,-0.0625 0.25,-0.0625 0.10156,0 0.19141,0.027344 0.26562,0.078125 0.082031,0.054687 0.14453,0.12109 0.1875,0.20312 z"
         id="path1187" />
    </symbol>
    <symbol
       id="p-2"
       overflow="visible">
      <path
         d="m 0.25,-2 h 0.57812 l 0.71875,1.375 V -2 H 2.03125 V 0 H 1.46875 L 0.73437,-1.375 V 0 H 0.24999 Z"
         id="path1190" />
    </symbol>
    <symbol
       id="o-6"
       overflow="visible">
      <path
         d="M 0.21875,-0.57812 V -1.5 H 0.6875 v 0.15625 0.3125 0.23438 0.26562 c 0.007812,0.054688 0.023438,0.089844 0.046875,0.10938 0.019531,0.03125 0.046875,0.058594 0.078125,0.078125 0.03125,0.011719 0.066406,0.015625 0.10938,0.015625 0.09375,0 0.16406,-0.035156 0.21875,-0.10938 0.0625,-0.070312 0.09375,-0.17578 0.09375,-0.3125 V -1.5 H 1.71876 V 0 H 1.23438 V -0.21875 C 1.160161,-0.125 1.08204,-0.05469 1,-0.01563 0.925781,0.01562 0.84375,0.031245 0.75,0.031245 c -0.17969,0 -0.3125,-0.050781 -0.40625,-0.15625 -0.085938,-0.10156 -0.125,-0.25391 -0.125,-0.45312 z"
         id="path1193" />
    </symbol>
    <symbol
       id="n-6"
       overflow="visible">
      <path
         d="m 0.25,-2 h 0.85938 c 0.25,0 0.44141,0.058594 0.57812,0.17188 0.13281,0.11719 0.20312,0.27734 0.20312,0.48438 0,0.21094 -0.070313,0.37109 -0.20312,0.48438 -0.13672,0.11719 -0.32812,0.17188 -0.57812,0.17188 H 0.76563 V 2e-5 H 0.25001 Z m 0.51562,0.375 v 0.5625 h 0.28125 c 0.10156,0 0.17969,-0.019531 0.23438,-0.0625 0.050781,-0.050781 0.078125,-0.125 0.078125,-0.21875 0,-0.09375 -0.027344,-0.16016 -0.078125,-0.20312 C 1.226562,-1.597651 1.14844,-1.624995 1.04687,-1.624995 Z"
         id="path1196" />
    </symbol>
    <symbol
       id="m-1"
       overflow="visible">
      <path
         d="m 0.23438,-1.5 h 0.46875 v 1.4688 c 0,0.20703 -0.046875,0.36328 -0.14062,0.46875 C 0.46876,0.53911 0.32813,0.5938 0.14063,0.5938 H -0.09375 V 0.2813 h 0.078125 c 0.09375,0 0.15625,-0.023438 0.1875,-0.0625 0.039063,-0.042969 0.0625,-0.125 0.0625,-0.25 z m 0,-0.57812 H 0.70313 V -1.6875 H 0.23438 Z"
         id="path1199" />
    </symbol>
    <symbol
       id="l-0"
       overflow="visible">
      <path
         d="m 1.4375,-1.4531 v 0.39062 C 1.375,-1.101542 1.30469,-1.132792 1.23438,-1.15623 1.17188,-1.175761 1.10157,-1.18748 1.03126,-1.18748 c -0.125,0 -0.23047,0.042969 -0.3125,0.125 -0.074219,0.074219 -0.10938,0.17969 -0.10938,0.3125 0,0.14844 0.035156,0.26172 0.10938,0.34375 0.082031,0.074219 0.1875,0.10938 0.3125,0.10938 0.082031,0 0.15625,-0.007813 0.21875,-0.03125 0.070312,-0.03125 0.13281,-0.066406 0.1875,-0.10938 v 0.39062 C 1.363291,-0.01561 1.28517,0.003921 1.20313,0.01564 1.128911,0.0234525 1.05469,0.031265 0.98438,0.031265 c -0.27344,0 -0.48438,-0.066406 -0.64062,-0.20312 -0.14844,-0.13281 -0.21875,-0.32812 -0.21875,-0.57812 0,-0.23828 0.070312,-0.42578 0.21875,-0.5625 0.15625,-0.14453 0.36719,-0.21875 0.64062,-0.21875 0.070313,0 0.14453,0.011719 0.21875,0.03125 0.082031,0.011719 0.16016,0.027344 0.23438,0.046875 z"
         id="path1202" />
    </symbol>
    <symbol
       id="o-4"
       overflow="visible">
      <path
         d="m 32.344,-1.9375 c -1.668,0.86719 -3.4062,1.5156 -5.2188,1.9531 -1.8047,0.44531 -3.6836,0.67188 -5.6406,0.67188 -5.8672,0 -10.512,-1.6328 -13.938,-4.9062 -3.4297,-3.2812 -5.1406,-7.7266 -5.1406,-13.344 0,-5.625 1.7109,-10.07 5.1406,-13.344 3.4258,-3.2812 8.0703,-4.9219 13.938,-4.9219 1.957,0 3.8359,0.21875 5.6406,0.65625 1.8125,0.4375 3.5508,1.0898 5.2188,1.9531 v 7.2812 c -1.6797,-1.1445 -3.3359,-1.9844 -4.9688,-2.5156 -1.6367,-0.53125 -3.3594,-0.79688 -5.1719,-0.79688 -3.2422,0 -5.7891,1.0391 -7.6406,3.1094 -1.8555,2.0742 -2.7812,4.9336 -2.7812,8.5781 0,3.625 0.92578,6.4805 2.7812,8.5625 1.8516,2.0742 4.3984,3.1094 7.6406,3.1094 1.8125,0 3.5352,-0.26562 5.1719,-0.79688 1.6328,-0.53906 3.2891,-1.3828 4.9688,-2.5312 z"
         id="path2-6" />
    </symbol>
    <symbol
       id="b-41"
       overflow="visible">
      <path
         d="m 23.672,-19.219 c -0.74219,-0.34375 -1.4766,-0.59766 -2.2031,-0.76562 -0.73047,-0.16406 -1.4648,-0.25 -2.2031,-0.25 -2.1797,0 -3.8516,0.69922 -5.0156,2.0938 -1.168,1.3984 -1.75,3.3867 -1.75,5.9688 V -2e-5 H 4.0627 v -26.406 h 8.4375 v 4.3438 c 1.082,-1.7266 2.3281,-2.9883 3.7344,-3.7812 1.4062,-0.80078 3.0859,-1.2031 5.0469,-1.2031 0.28906,0 0.59766,0.01563 0.92188,0.04687 0.33203,0.02344 0.8125,0.07031 1.4375,0.14062 z"
         id="path5-5" />
    </symbol>
    <symbol
       id="a-4"
       overflow="visible">
      <path
         d="m 30.406,-13.266 v 2.3906 H 10.672 c 0.20703,1.9922 0.92188,3.4805 2.1406,4.4688 1.2266,0.99219 2.9453,1.4844 5.1562,1.4844 1.7695,0 3.5859,-0.25781 5.4531,-0.78125 1.8633,-0.53125 3.7734,-1.332 5.7344,-2.4062 v 6.5 c -1.9922,0.76172 -3.9844,1.3359 -5.9844,1.7188 -1.9922,0.38281 -3.9844,0.57812 -5.9844,0.57812 -4.7812,0 -8.4961,-1.2109 -11.141,-3.6406 -2.6484,-2.4258 -3.9688,-5.832 -3.9688,-10.219 0,-4.3125 1.2969,-7.7031 3.8906,-10.172 2.6016,-2.4688 6.1875,-3.7031 10.75,-3.7031 4.1445,0 7.4609,1.25 9.9531,3.75 2.4883,2.5 3.7344,5.8438 3.7344,10.031 z m -8.6719,-2.8125 c 0,-1.6016 -0.46875,-2.8945 -1.4062,-3.875 -0.92969,-0.97656 -2.1484,-1.4688 -3.6562,-1.4688 -1.6367,0 -2.9648,0.46094 -3.9844,1.375 -1.0234,0.91797 -1.6562,2.2422 -1.9062,3.9688 z"
         id="path8-3" />
    </symbol>
    <symbol
       id="d-0"
       overflow="visible">
      <path
         d="m 15.891,-11.875 c -1.7617,0 -3.0898,0.29688 -3.9844,0.89062 -0.88672,0.59375 -1.3281,1.4766 -1.3281,2.6406 0,1.0625 0.35938,1.9023 1.0781,2.5156 0.71875,0.60547 1.7109,0.90625 2.9844,0.90625 1.582,0 2.9141,-0.56641 4,-1.7031 1.0938,-1.1445 1.6406,-2.5781 1.6406,-4.2969 v -0.95312 z m 12.891,-3.1875 V -5e-4 h -8.5 v -3.9062 c -1.1367,1.5938 -2.4141,2.7617 -3.8281,3.5 -1.418,0.72656 -3.1367,1.0938 -5.1562,1.0938 -2.7422,0 -4.9648,-0.79688 -6.6719,-2.3906 -1.6992,-1.6016 -2.5469,-3.6758 -2.5469,-6.2188 0,-3.0938 1.0625,-5.3633 3.1875,-6.8125 2.1328,-1.4453 5.4766,-2.1719 10.031,-2.1719 h 4.9844 v -0.65625 c 0,-1.332 -0.53125,-2.3047 -1.5938,-2.9219 -1.0547,-0.625 -2.6953,-0.9375 -4.9219,-0.9375 -1.8047,0 -3.4844,0.18359 -5.0469,0.54688 -1.5547,0.35547 -2.9961,0.89062 -4.3281,1.6094 v -6.4375 c 1.8008,-0.4375 3.6133,-0.76953 5.4375,-1 1.8203,-0.22656 3.6445,-0.34375 5.4688,-0.34375 4.7578,0 8.1953,0.94531 10.312,2.8281 2.1133,1.875 3.1719,4.9297 3.1719,9.1562 z"
         id="path11-8" />
    </symbol>
    <symbol
       id="h-5"
       overflow="visible">
      <path
         d="m 13.266,-33.906 v 7.5 h 8.7031 v 6.0312 H 13.266 v 11.203 c 0,1.2305 0.24219,2.0625 0.73438,2.5 0.48828,0.42969 1.457,0.64062 2.9062,0.64062 h 4.3281 V 2e-5 h -7.2344 c -3.3359,0 -5.6992,-0.69141 -7.0938,-2.0781 -1.3867,-1.3945 -2.0781,-3.7578 -2.0781,-7.0938 v -11.203 h -4.1875 v -6.0312 h 4.1875 v -7.5 z"
         id="path14-7" />
    </symbol>
    <symbol
       id="c-1"
       overflow="visible">
      <path
         d="m 22.016,-22.531 v -14.156 h 8.4844 V 0.001 H 22.016 v -3.8125 c -1.1562,1.5547 -2.4375,2.6953 -3.8438,3.4219 -1.3984,0.71875 -3.0156,1.0781 -4.8594,1.0781 -3.25,0 -5.9219,-1.2891 -8.0156,-3.875 -2.0859,-2.5938 -3.125,-5.9219 -3.125,-9.9844 0,-4.0703 1.0391,-7.3984 3.125,-9.9844 2.0938,-2.5938 4.7656,-3.8906 8.0156,-3.8906 1.8203,0 3.4375,0.37109 4.8438,1.1094 1.4141,0.73047 2.7031,1.8672 3.8594,3.4062 z m -5.5625,17.078 c 1.8125,0 3.1914,-0.65625 4.1406,-1.9688 0.94531,-1.3203 1.4219,-3.2383 1.4219,-5.75 0,-2.5195 -0.47656,-4.4375 -1.4219,-5.75 -0.94922,-1.3203 -2.3281,-1.9844 -4.1406,-1.9844 -1.793,0 -3.1641,0.66406 -4.1094,1.9844 -0.94922,1.3125 -1.4219,3.2305 -1.4219,5.75 0,2.5117 0.47266,4.4297 1.4219,5.75 0.94531,1.3125 2.3164,1.9688 4.1094,1.9688 z"
         id="path17-1" />
    </symbol>
    <symbol
       id="g-8"
       overflow="visible">
      <path
         d="m 18.109,-5.4531 c 1.8008,0 3.1758,-0.65625 4.125,-1.9688 0.95703,-1.3203 1.4375,-3.2383 1.4375,-5.75 0,-2.5195 -0.48047,-4.4375 -1.4375,-5.75 -0.94922,-1.3203 -2.3242,-1.9844 -4.125,-1.9844 -1.8125,0 -3.2031,0.66797 -4.1719,2 -0.96094,1.3242 -1.4375,3.2344 -1.4375,5.7344 0,2.4922 0.47656,4.4023 1.4375,5.7344 0.96875,1.3242 2.3594,1.9844 4.1719,1.9844 z m -5.6094,-17.078 c 1.1562,-1.5391 2.4414,-2.6758 3.8594,-3.4062 1.4141,-0.73828 3.0391,-1.1094 4.875,-1.1094 3.2578,0 5.9297,1.2969 8.0156,3.8906 2.0938,2.5859 3.1406,5.9141 3.1406,9.9844 0,4.0625 -1.0469,7.3906 -3.1406,9.9844 -2.0859,2.5859 -4.7578,3.875 -8.0156,3.875 -1.8359,0 -3.4609,-0.36719 -4.875,-1.0938 -1.418,-0.73828 -2.7031,-1.875 -3.8594,-3.4062 V 2e-4 H 4.0621 v -36.688 h 8.4375 z"
         id="path20-8" />
    </symbol>
    <symbol
       id="f-3"
       overflow="visible">
      <path
         d="m 0.59375,-26.406 h 8.4375 l 7.0938,17.922 6.0312,-17.922 h 8.4375 L 19.49975,2.5 c -1.1172,2.9375 -2.418,4.9883 -3.9062,6.1562 -1.4922,1.1758 -3.4492,1.7656 -5.875,1.7656 H 4.82795 V 4.8749 h 2.6406 c 1.4375,0 2.4766,-0.23047 3.125,-0.6875 0.65625,-0.44922 1.1641,-1.2617 1.5312,-2.4375 l 0.23438,-0.73438 z"
         id="path23-7" />
    </symbol>
    <symbol
       id="e-6"
       overflow="visible">
      <path
         d="M 25.797,-6.4062 H 11.594 L 9.3596,0 h -9.125 l 13.031,-35.203 h 10.828 L 37.1246,0 h -9.125 z m -11.938,-6.5312 h 9.6406 l -4.8125,-14.016 z"
         id="path26-9" />
    </symbol>
    <symbol
       id="n-8"
       overflow="visible">
      <path
         d="M 30.594,-16.078 V 0 h -8.4844 v -12.312 c 0,-2.2695 -0.05469,-3.8359 -0.15625,-4.7031 -0.09375,-0.86328 -0.27344,-1.5039 -0.53125,-1.9219 -0.32422,-0.53906 -0.77344,-0.96094 -1.3438,-1.2656 -0.5625,-0.3125 -1.2031,-0.46875 -1.9219,-0.46875 -1.7617,0 -3.1484,0.68359 -4.1562,2.0469 -1,1.3555 -1.5,3.2344 -1.5,5.6406 V 1.5e-4 H 4.0627 v -26.406 h 8.4375 v 3.875 c 1.2695,-1.5391 2.6172,-2.6758 4.0469,-3.4062 1.4258,-0.73828 3.0039,-1.1094 4.7344,-1.1094 3.0508,0 5.3633,0.9375 6.9375,2.8125 1.582,1.875 2.375,4.5938 2.375,8.1562 z"
         id="path29-2" />
    </symbol>
    <symbol
       id="m-3"
       overflow="visible">
      <path
         d="M 4.0625,-26.406 H 12.5 V -0.468 C 12.5,3.0632 11.64844,5.7586 9.9531,7.6258 8.2539,9.4891 5.789,10.4227 2.5625,10.4227 H -1.6094 V 4.8758 h 1.4688 c 1.6016,0 2.7031,-0.35938 3.2969,-1.0781 0.60156,-0.71875 0.90625,-2.1406 0.90625,-4.2656 z m 0,-10.281 H 12.5 v 6.8906 H 4.0625 Z"
         id="path32-6" />
    </symbol>
    <symbol
       id="l-7"
       overflow="visible">
      <path
         d="m 24.688,-25.578 v 6.4062 c -1.8125,-0.75 -3.5625,-1.3125 -5.25,-1.6875 -1.6797,-0.375 -3.2617,-0.5625 -4.75,-0.5625 -1.6055,0 -2.7969,0.19922 -3.5781,0.59375 -0.77344,0.39844 -1.1562,1.0117 -1.1562,1.8438 0,0.67969 0.28906,1.1992 0.875,1.5625 0.59375,0.36719 1.6484,0.63281 3.1719,0.79688 l 1.4844,0.21875 c 4.3203,0.55469 7.2266,1.4609 8.7188,2.7188 1.5,1.25 2.25,3.2188 2.25,5.9062 0,2.8125 -1.0391,4.9297 -3.1094,6.3438 -2.0742,1.418 -5.1719,2.125 -9.2969,2.125 -1.7422,0 -3.543,-0.14062 -5.4062,-0.42188 C 6.7741,-0.00373 4.864,-0.41389 2.9069,-0.9686 v -6.4062 c 1.6758,0.8125 3.3945,1.4297 5.1562,1.8438 1.7695,0.40625 3.5703,0.60938 5.4062,0.60938 1.6445,0 2.8828,-0.22656 3.7188,-0.6875 0.83203,-0.45703 1.25,-1.1328 1.25,-2.0312 0,-0.75 -0.28906,-1.3047 -0.85938,-1.6719 -0.57422,-0.375 -1.7188,-0.66406 -3.4375,-0.875 l -1.4844,-0.1875 c -3.75,-0.46875 -6.3828,-1.3359 -7.8906,-2.6094 -1.5117,-1.2812 -2.2656,-3.2188 -2.2656,-5.8125 0,-2.7891 0.95703,-4.8633 2.875,-6.2188 1.9141,-1.3516 4.8516,-2.0312 8.8125,-2.0312 1.5625,0 3.1953,0.12109 4.9062,0.35938 1.7188,0.24219 3.582,0.60938 5.5938,1.1094 z"
         id="path35-8" />
    </symbol>
    <symbol
       id="k-6"
       overflow="visible">
      <path
         d="m 4.4375,-35.203 h 9.0781 v 12.859 l 13.078,-12.859 h 10.531 L 20.1866,-18.531 38.8746,0 h -11.359 l -14,-13.859 V 0 H 4.4375 Z"
         id="path38-6" />
    </symbol>
    <symbol
       id="j-5"
       overflow="visible">
      <path
         d="M 4.0625,-26.406 H 12.5 V 0 H 4.0625 Z m 0,-10.281 H 12.5 v 6.8906 H 4.0625 Z"
         id="path41-6" />
    </symbol>
    <symbol
       id="i-4"
       overflow="visible">
      <path
         d="m 28.531,-22.016 c 1.0625,-1.6328 2.3281,-2.8789 3.7969,-3.7344 1.4688,-0.86328 3.082,-1.2969 4.8438,-1.2969 3.0391,0 5.3516,0.9375 6.9375,2.8125 1.582,1.875 2.375,4.5938 2.375,8.1562 V -6e-4 h -8.4844 v -13.766 c 0.01953,-0.20703 0.03125,-0.42188 0.03125,-0.64062 0.0078,-0.21875 0.01563,-0.53125 0.01563,-0.9375 0,-1.875 -0.27734,-3.2266 -0.82812,-4.0625 -0.54297,-0.84375 -1.4297,-1.2656 -2.6562,-1.2656 -1.6055,0 -2.8438,0.66406 -3.7188,1.9844 -0.86719,1.3125 -1.3203,3.2188 -1.3594,5.7188 v 12.969 h -8.4844 v -13.766 c 0,-2.9258 -0.25,-4.8047 -0.75,-5.6406 -0.5,-0.84375 -1.3984,-1.2656 -2.6875,-1.2656 -1.6172,0 -2.8672,0.66797 -3.75,2 -0.875,1.3242 -1.3125,3.2188 -1.3125,5.6875 v 12.984 h -8.5 v -26.406 h 8.5 v 3.875 c 1.0312,-1.5 2.2188,-2.625 3.5625,-3.375 1.3438,-0.75781 2.8281,-1.1406 4.4531,-1.1406 1.8203,0 3.4297,0.44531 4.8281,1.3281 1.3945,0.875 2.457,2.1094 3.1875,3.7031 z"
         id="path44-6" />
    </symbol>
  </defs>
  <path
     style="fill:none;stroke:#000000;stroke-width:37.9104;stroke-linecap:round;stroke-linejoin:miter;stroke-miterlimit:4;stroke-dasharray:none;stroke-opacity:1"
     d="M 900.63751,18.9552 V 824.5514"
     id="path64081" />
  <path
     style="fill:none;stroke:#000000;stroke-width:37.9104;stroke-linecap:round;stroke-linejoin:miter;stroke-miterlimit:4;stroke-dasharray:none;stroke-opacity:1"
     d="M 742.67741,153.22114 H 1058.5975"
     id="path64116" />
  <path
     style="fill:none;stroke:#000000;stroke-width:37.9104;stroke-linecap:round;stroke-linejoin:miter;stroke-miterlimit:4;stroke-dasharray:none;stroke-opacity:1"
     d="M 742.67741,224.30326 H 1058.5975"
     id="path64231" />
  <path
     style="fill:none;stroke:#000000;stroke-width:37.9104;stroke-linecap:round;stroke-linejoin:miter;stroke-miterlimit:4;stroke-dasharray:none;stroke-opacity:1"
     d="m 805.86091,82.13922 v 63.18401"
     id="path64266" />
  <path
     style="fill:none;stroke:#000000;stroke-width:37.9104;stroke-linecap:round;stroke-linejoin:miter;stroke-miterlimit:4;stroke-dasharray:none;stroke-opacity:1"
     d="m 995.41311,82.13922 v 63.18401"
     id="path64301" />
  <path
     style="fill:none;stroke:#000000;stroke-width:15.9266;stroke-linecap:butt;stroke-linejoin:miter;stroke-miterlimit:4;stroke-dasharray:none;stroke-opacity:1"
     d="m 796.33091,78.9623 c 0,0 0,398.1658 -796.3309007000101,398.16487"
     id="path66277"
     sodipodi:nodetypes="cc" />
  <path
     style="fill:none;stroke:#000000;stroke-width:15.9266;stroke-linecap:butt;stroke-linejoin:miter;stroke-miterlimit:4;stroke-dasharray:none;stroke-opacity:1"
     d="m 995.41311,78.9623 c 0,0 0,464.52655 -995.4131007000103,464.52655"
     id="path66534"
     sodipodi:nodetypes="cc" />
  <path
     style="fill:none;stroke:#000000;stroke-width:15.9266;stroke-linecap:round;stroke-linejoin:miter;stroke-miterlimit:4;stroke-dasharray:none;stroke-opacity:1"
     d="m 995.41311,78.9623 c 262.26659,74.25884 351.70019,28.39308 482.98329,-37.69889"
     id="path1699"
     sodipodi:nodetypes="cc" />
  <path
     style="fill:none;stroke:#000000;stroke-width:15.9266;stroke-linecap:round;stroke-linejoin:miter;stroke-miterlimit:4;stroke-dasharray:none;stroke-opacity:1"
     d="M 805.86091,82.13922 C 1068.1275,156.39806 1157.5611,110.5323 1288.8442,44.44033"
     id="path2231"
     sodipodi:nodetypes="cc" />
</svg>
