<?xml version="1.0" encoding="UTF-8" standalone="no"?>
<!-- Created with Inkscape (http://www.inkscape.org/) -->

<svg
   width="73.743469mm"
   height="125.73545mm"
   viewBox="0 0 73.743469 125.73545"
   version="1.1"
   id="svg5"
   inkscape:version="1.1.2 (b8e25be833, 2022-02-05)"
   sodipodi:docname="Fern.svg"
   xmlns:inkscape="http://www.inkscape.org/namespaces/inkscape"
   xmlns:sodipodi="http://sodipodi.sourceforge.net/DTD/sodipodi-0.dtd"
   xmlns="http://www.w3.org/2000/svg"
   xmlns:svg="http://www.w3.org/2000/svg">
  <sodipodi:namedview
     id="namedview7"
     pagecolor="#ffffff"
     bordercolor="#666666"
     borderopacity="1.0"
     inkscape:pageshadow="2"
     inkscape:pageopacity="0.0"
     inkscape:pagecheckerboard="0"
     inkscape:document-units="mm"
     showgrid="false"
     inkscape:zoom="1.3273709"
     inkscape:cx="95.301168"
     inkscape:cy="319.42842"
     inkscape:window-width="1920"
     inkscape:window-height="1217"
     inkscape:window-x="-8"
     inkscape:window-y="-8"
     inkscape:window-maximized="1"
     inkscape:current-layer="layer1" />
  <defs
     id="defs2" />
  <g
     inkscape:label="Layer 1"
     inkscape:groupmode="layer"
     id="layer1"
     transform="translate(-77.511077,-75.029496)">
    <path
       style="fill:#40b400;fill-opacity:1;stroke-width:0.264583"
       d="m 149.30017,199.95356 c -0.41163,-0.51066 -1.04607,-1.25894 -1.40987,-1.66285 -0.36381,-0.40391 -1.07818,-1.23469 -1.5875,-1.84617 -0.50933,-0.61149 -1.2237,-1.43664 -1.5875,-1.83367 -0.36381,-0.39703 -1.19178,-1.33147 -1.83994,-2.07652 l -1.17848,-1.35464 -1.07048,0.58189 c -0.58876,0.32004 -1.13001,0.6421 -1.20277,0.71569 -0.31673,0.32034 -2.09495,1.586 -2.22828,1.586 -0.0808,0 -0.38962,0.20836 -0.68625,0.46302 -1.55307,1.33332 -5.50089,3.27055 -7.0121,3.44088 -1.34726,0.15186 -3.03795,-0.11322 -3.03795,-0.47631 0,-0.13893 0.12756,-0.25259 0.28348,-0.25259 0.15591,0 0.43898,-0.14883 0.62904,-0.33073 0.19005,-0.1819 0.60879,-0.50933 0.93052,-0.72761 0.32173,-0.21828 0.85663,-0.635 1.18866,-0.92604 0.33203,-0.29104 0.92388,-0.7595 1.31522,-1.04103 0.39134,-0.28152 1.0319,-0.79216 1.42345,-1.13474 1.17836,-1.03098 4.32286,-2.45536 5.80495,-2.6295 0.76387,-0.0898 1.59271,-0.31224 1.84187,-0.49443 0.41859,-0.30608 0.3942,-0.41612 -0.32092,-1.44804 -0.42566,-0.61423 -1.17567,-1.4232 -1.66668,-1.79771 -0.79524,-0.60657 -0.95522,-0.64155 -1.46481,-0.32029 -0.31464,0.19835 -0.8102,0.49041 -1.10124,0.64902 -0.29104,0.15861 -0.84659,0.50182 -1.23455,0.76269 -1.14721,0.7714 -5.63011,2.26635 -8.0742,2.69256 -3.33935,0.58233 -8.81521,0.50762 -8.81521,-0.12027 0,-0.1044 2.38698,-1.23207 5.30441,-2.50594 5.93903,-2.59323 8.86871,-3.3841 11.6139,-3.13518 1.47337,0.1336 1.60252,0.10277 1.60252,-0.38255 0,-0.57613 -1.63347,-2.86661 -2.17648,-3.05192 -0.48988,-0.16717 -2.99633,0.45258 -7.21623,1.78431 -5.22614,1.64929 -6.81072,1.9782 -9.55166,1.98265 -2.47153,0.004 -4.07485,-0.34306 -4.07376,-0.88187 2.7e-4,-0.16766 1.51839,-0.95092 3.37344,-1.74057 6.98416,-2.97298 10.26357,-3.66104 13.46517,-2.82517 1.89368,0.49441 3.00452,0.54414 3.00452,0.13453 0,-1.07565 -2.90178,-4.20801 -3.89825,-4.20801 -0.34983,0 -1.78873,0.29019 -3.19755,0.64487 -5.9087,1.48754 -9.71051,2.06091 -12.9706,1.95616 -2.7243,-0.0875 -3.27009,-0.18704 -4.67214,-0.85182 -1.6373,-0.77633 -2.51354,-1.40042 -2.51354,-1.79022 0,-0.12296 0.59546,-0.22357 1.32326,-0.22357 0.8846,0 2.70456,-0.45642 5.4901,-1.37682 4.03329,-1.33269 4.26437,-1.37713 7.20956,-1.38633 2.70695,-0.008 3.372,0.0891 6.02686,0.88416 1.64128,0.49152 3.05327,0.82454 3.13775,0.74006 0.19127,-0.19126 -0.48895,-1.77149 -0.76254,-1.77149 -0.10999,0 -0.19999,-0.12408 -0.19999,-0.27575 0,-0.32718 -0.12749,-0.49256 -1.77726,-2.30541 l -1.26545,-1.39054 -1.69787,0.53707 c -5.53722,1.75153 -12.18392,2.65157 -16.01153,2.16813 -2.83449,-0.358 -6.76526,-1.51237 -6.76311,-1.98616 7.9e-4,-0.18223 1.50522,-0.75012 3.50573,-1.32337 9.20097,-2.63657 14.87725,-2.93953 18.68439,-0.99727 0.87071,0.4442 2.1501,0.49964 2.1501,0.0932 0,-0.16746 -0.88492,-1.7587 -1.0723,-1.92819 -0.0804,-0.0728 -0.41758,-0.57878 -0.74919,-1.12448 -0.3316,-0.5457 -0.62298,-0.99183 -0.64749,-0.99139 -0.0245,5.3e-4 -1.23519,0.23193 -2.6904,0.51442 -7.26545,1.41038 -15.53876,1.834 -19.04409,0.97513 -1.90675,-0.46718 -4.21899,-1.62417 -3.98915,-1.99606 0.0718,-0.11622 1.05697,-0.27639 2.18921,-0.35592 1.65861,-0.11652 2.64984,-0.39182 5.10132,-1.41683 3.02863,-1.26633 3.05618,-1.27213 5.95313,-1.25304 3.19831,0.0211 4.83908,0.36597 8.82143,1.85426 1.35928,0.50799 2.5306,0.86445 2.60292,0.79213 0.15365,-0.15365 -2.22693,-4.84053 -2.81947,-5.55095 -0.78514,-0.94136 -1.19752,-0.98732 -3.88788,-0.43336 -3.23695,0.66652 -9.94931,1.731 -12.31607,1.95316 -2.59813,0.24388 -9.20197,-1.18543 -9.20197,-1.99163 0,-0.12972 -0.13487,-0.23586 -0.2997,-0.23586 -0.25245,0 -1.2878,-0.97759 -1.2878,-1.21596 0,-0.0422 0.56554,-0.0767 1.25677,-0.0767 0.69122,-1e-5 2.14974,-0.24661 3.24114,-0.548 4.29124,-1.18502 7.34704,-1.88635 8.87492,-2.03688 2.10014,-0.2069 4.80259,0.2681 8.81872,1.55004 2.07194,0.66135 3.3663,0.95255 3.52567,0.79318 0.35524,-0.35524 -1.41912,-3.7833 -2.53669,-4.90086 l -0.90104,-0.90104 -3.1361,0.49146 c -9.02354,1.41409 -12.42133,1.58778 -17.39716,0.88929 -2.75346,-0.38651 -5.342917,-1.24922 -5.070865,-1.68941 0.07312,-0.1183 0.999905,-0.29411 2.059515,-0.39067 1.22886,-0.11199 3.22015,-0.62285 5.49845,-1.4106 2.95259,-1.02091 3.98473,-1.25444 5.95313,-1.34695 2.80021,-0.1316 5.80944,0.36616 9.25531,1.53094 2.71938,0.91921 2.51864,0.87953 2.51864,0.49783 0,-0.35998 -1.36484,-3.4845 -1.6036,-3.67111 -0.0931,-0.0728 -0.31674,-0.41214 -0.49699,-0.75418 -0.2707,-0.51368 -0.47324,-0.59591 -1.16408,-0.47259 -4.65193,0.8304 -6.91603,1.00768 -11.28741,0.88381 -5.17945,-0.14677 -7.79337,-0.60786 -9.98297,-1.761 -1.370575,-0.7218 -2.587169,-1.90645 -2.276699,-2.21692 0.08713,-0.0871 0.395303,-0.0316 0.684834,0.12332 0.99794,0.53408 3.432985,0.30981 6.426035,-0.59184 4.22903,-1.27399 5.85641,-1.21144 10.24297,0.3937 3.01499,1.10325 5.40077,1.74987 6.45636,1.74987 0.26496,0 0.31771,-0.20057 0.19134,-0.7276 -0.19871,-0.82874 -0.87278,-2.24997 -1.16076,-2.4474 -0.10612,-0.0728 -0.50527,-0.75151 -0.88697,-1.50832 -0.5778,-1.14561 -0.86053,-1.42228 -1.68835,-1.65217 -1.49542,-0.4153 -4.44812,-0.33753 -9.62887,0.25362 -5.28896,0.60349 -7.50435,0.45952 -9.915525,-0.64435 -1.28886,-0.59006 -3.763159,-2.66646 -3.495903,-2.93371 0.238289,-0.2383 9.809828,-1.45252 11.419508,-1.44866 2.32908,0.006 4.34168,0.55565 8.09913,2.21356 1.81143,0.79927 3.38901,1.39419 3.50573,1.32205 0.4149,-0.25642 0.20047,-1.12275 -0.6541,-2.6427 l -0.86633,-1.54085 -1.84565,-0.34593 c -3.35065,-0.628 -7.89456,-1.66314 -10.30165,-2.34682 -2.5569,-0.72622 -6.492962,-2.41478 -6.492962,-2.78546 0,-0.12526 -0.124087,-0.22776 -0.275752,-0.22776 -0.151662,0 -0.419552,-0.11727 -0.595312,-0.2606 -0.175758,-0.14332 -0.716765,-0.57925 -1.202235,-0.96872 -0.812255,-0.65164 -1.535007,-1.86515 -1.269183,-2.13097 0.176316,-0.17632 7.459624,0.43369 10.049154,0.84166 1.74415,0.27478 2.70548,0.58969 3.77032,1.23505 0.78609,0.47642 1.42926,0.96013 1.42926,1.0749 0,0.11478 0.10428,0.20868 0.23174,0.20868 0.12746,0 1.4657,0.83707 2.97387,1.86016 1.50817,1.02309 2.78467,1.73254 2.83666,1.57656 0.12676,-0.38028 -1.5773,-4.23047 -1.87237,-4.23047 -0.12781,0 -0.1588,-0.11906 -0.0689,-0.26458 0.0899,-0.14552 0.0555,-0.26459 -0.0765,-0.26459 -0.13201,0 -0.45876,-0.48509 -0.72612,-1.07797 -0.81735,-1.81257 -2.45749,-2.39893 -8.40498,-3.00482 -3.28326,-0.33447 -3.86336,-0.4736 -5.754686,-1.38016 -1.156843,-0.55451 -2.10335,-1.1 -2.10335,-1.21221 0,-0.1122 -0.127566,-0.204 -0.283482,-0.204 -0.155914,0 -0.438984,-0.14883 -0.629039,-0.33073 -0.190056,-0.1819 -0.604594,-0.50932 -0.921197,-0.72761 -0.914165,-0.63027 -2.497844,-2.18836 -2.963387,-2.9155 l -0.426744,-0.66654 3.074946,0.32378 c 8.102969,0.8532 9.561669,1.13118 10.461929,1.99366 0.19436,0.18621 0.6172,0.51716 0.93965,0.73544 0.32244,0.21828 0.8315,0.60523 1.13124,0.85989 0.29973,0.25466 0.61605,0.46493 0.70292,0.46725 0.0869,0.002 0.57467,0.35824 1.084,0.79092 1.42024,1.20654 1.45121,1.22996 2.04979,1.55031 0.8608,0.46069 0.88188,0.39273 0.29662,-0.95639 -1.02888,-2.37176 -1.10885,-2.58013 -1.06622,-2.77813 0.0235,-0.10914 -0.0686,-0.19844 -0.20473,-0.19844 -0.1361,0 -0.39815,-0.41671 -0.58232,-0.92604 -0.18418,-0.50932 -0.43001,-0.92604 -0.54629,-0.92604 -0.11629,0 -0.21144,-0.13517 -0.21144,-0.30039 0,-0.49865 -1.3572,-1.5968 -2.77013,-2.24137 -0.732,-0.33394 -2.93825,-1.0409 -4.90278,-1.57103 -4.591095,-1.2389 -6.842532,-2.31592 -8.930296,-4.27197 -0.909172,-0.85182 -1.65304,-1.69497 -1.65304,-1.87367 0,-0.17869 -0.106324,-0.3249 -0.236276,-0.3249 -0.308108,0 -0.59156,-0.741457 -0.342336,-0.895484 0.105615,-0.06527 0.820661,0.1027 1.588992,0.373284 0.768329,0.27057 2.671014,0.74324 4.228188,1.05037 2.630315,0.5188 5.873928,1.72447 5.873928,2.18338 0,0.10938 0.12409,0.19887 0.27576,0.19887 0.2854,0 0.43415,0.10261 1.61909,1.11696 0.38733,0.33155 0.96746,0.78142 1.28919,0.9997 0.32174,0.21828 0.71921,0.51748 0.88328,0.66489 0.64507,0.57956 1.80742,1.22148 1.95128,1.07762 0.0835,-0.0835 -0.048,-0.53951 -0.29229,-1.01332 -0.24428,-0.47382 -0.72649,-1.6335 -1.07159,-2.57709 -0.5875,-1.60641 -0.69063,-1.72874 -1.62025,-1.92189 -1.21419,-0.25227 -6.209466,-2.572909 -6.209466,-2.88471 0,-0.123566 -0.127376,-0.224665 -0.283056,-0.224665 -0.240419,0 -2.168428,-1.219057 -3.024236,-1.912187 -0.608803,-0.493078 -1.473432,-1.164001 -2.138867,-1.659688 -1.517362,-1.130294 -3.814258,-3.632295 -3.814258,-4.154856 0,-1.027871 10.040234,3.018853 11.792003,4.752773 0.42664,0.422296 1.01383,1.089513 1.30487,1.482706 1.15904,1.565846 2.77813,2.815317 2.77813,2.143915 0,-0.311459 -1.42184,-2.954581 -2.01397,-3.743864 -0.34753,-0.463233 -0.63187,-0.969249 -0.63187,-1.124479 0,-0.155231 -0.11906,-0.282237 -0.26458,-0.282237 -0.14552,0 -0.26458,-0.124088 -0.26458,-0.27575 0,-0.151663 -0.12127,-0.419554 -0.26949,-0.595313 C 88.81967,92.113942 88.49325,91.607879 87.69444,89.960534 86.48105,87.458218 86.037,85.00211 85.81755,79.579213 l -0.184113,-4.549717 0.576701,0.150811 c 0.674484,0.176382 2.110412,2.244448 3.078852,4.434264 0.37448,0.846778 1.20218,3.32087 1.83933,5.497983 0.63715,2.177113 1.22566,4.025596 1.3078,4.107739 0.27129,0.271286 1.48485,-2.85048 2.48196,-6.384557 0.53984,-1.91341 1.1006,-3.525527 1.24612,-3.582482 0.47893,-0.187445 1.19053,1.713755 1.46715,3.919838 0.2616,2.086287 0.23163,2.335858 -0.79105,6.589211 -1.71966,7.152062 -2.04224,9.449348 -1.64892,11.742977 0.3193,1.86205 0.83366,3.03167 0.84653,1.925 0.0572,-4.917491 1.00045,-9.400546 2.60715,-12.391429 0.38178,-0.710689 0.81167,-1.51436 0.95532,-1.785937 0.14365,-0.271577 0.35201,-0.493776 0.46302,-0.493776 0.11102,0 0.20184,-0.178594 0.20184,-0.396875 0,-0.218282 0.11907,-0.396875 0.26459,-0.396875 0.14552,0 0.26458,-0.172678 0.26458,-0.383728 0,-0.21105 0.17621,-0.482337 0.39157,-0.602859 0.21536,-0.120523 0.68775,-0.62059 1.04975,-1.11126 l 0.6582,-0.892129 0.29808,0.767384 c 0.42191,1.086144 0.0932,4.22989 -0.70732,6.763851 -0.36493,1.1552 -1.41193,3.850451 -2.32666,5.989448 -2.2372,5.231405 -2.6312,6.498005 -2.65265,8.527435 -0.0173,1.63761 0.67389,3.96061 1.17846,3.96061 0.10468,0 0.27335,-1.22039 0.37483,-2.71198 0.23997,-3.52717 1.11981,-6.91825 1.97363,-7.60677 0.0902,-0.0728 0.39835,-0.57878 0.68471,-1.124481 0.28636,-0.545703 0.61264,-0.992188 0.72507,-0.992188 0.11243,0 0.20441,-0.168672 0.20441,-0.374826 0,-0.206155 0.0934,-0.414514 0.20748,-0.463021 0.29447,-0.125169 2.10478,-3.899664 2.32648,-4.850694 0.3054,-1.310052 0.48523,-1.379486 0.68525,-0.264584 0.74023,4.125843 -0.081,7.969134 -3.22269,15.081254 -0.76884,1.74051 -2.11231,5.6769 -2.11643,6.20119 -0.004,0.50634 1.39392,3.70368 1.6236,3.71357 0.0908,0.004 0.22394,-1.33234 0.29579,-2.96945 0.099,-2.25452 0.30522,-3.51507 0.85028,-5.19649 0.62381,-1.92434 2.60845,-6.25737 3.04295,-6.64361 0.0819,-0.0728 0.38311,-0.57878 0.66947,-1.12448 0.28636,-0.54571 0.61265,-0.99219 0.72507,-0.99219 0.11243,0 0.20442,-0.1786 0.20442,-0.39688 0,-0.21828 0.11906,-0.396872 0.26458,-0.396872 0.14553,0 0.26459,-0.127566 0.26459,-0.283483 0,-0.155913 0.16796,-0.451445 0.37325,-0.656733 0.20529,-0.205288 0.42853,-0.524205 0.49609,-0.708705 0.0947,-0.258565 0.19905,-0.263801 0.4553,-0.02284 0.21881,0.205749 0.32541,1.064957 0.31185,2.513543 -0.0299,3.19615 -1.18353,7.40184 -3.43417,12.51968 -1.02391,2.32833 -2.23017,5.16227 -2.68056,6.29763 l -0.81891,2.0643 0.86264,1.57031 c 0.91332,1.66257 1.41497,1.89384 1.35625,0.62526 -0.0693,-1.49728 0.45096,-4.50072 1.14135,-6.58875 0.60051,-1.81624 2.8248,-6.61278 3.2514,-7.01146 0.0779,-0.0728 0.30924,-0.4577 0.51419,-0.85543 0.20494,-0.39773 0.59171,-0.9583 0.85947,-1.24571 0.26777,-0.28741 0.48685,-0.5921 0.48685,-0.67709 0,-0.1591 0.33859,-0.60583 1.09462,-1.44421 0.23824,-0.2642 0.55129,-0.69142 0.69565,-0.94939 0.24147,-0.43146 0.28919,-0.41914 0.59586,0.15388 0.40297,0.75293 0.19853,4.76775 -0.37862,7.43559 -0.42138,1.9478 -1.86128,5.60041 -2.43321,6.17234 -0.20243,0.20243 -0.36805,0.49562 -0.36805,0.65154 0,0.15591 -0.11906,0.28348 -0.26459,0.28348 -0.14552,0 -0.26458,0.13204 -0.26458,0.29343 0,0.1614 -0.26789,0.59018 -0.59531,0.95286 -0.32742,0.36268 -0.77391,0.85661 -0.99219,1.09762 -0.74842,0.82635 -2.30018,3.3447 -2.59253,4.20742 -0.33483,0.98807 0.0221,2.28524 1.16601,4.2371 0.87922,1.50028 1.31661,1.33228 1.21672,-0.46734 -0.0874,-1.57367 0.32835,-3.90986 0.94203,-5.29401 0.22581,-0.50932 0.42718,-0.98557 0.44749,-1.05833 0.22862,-0.81913 0.48466,-1.32292 0.67236,-1.32292 0.12591,0 0.3128,-0.26789 0.4153,-0.59531 0.21284,-0.67989 1.6948,-2.93199 2.0167,-3.06476 0.11761,-0.0485 0.21384,-0.25687 0.21384,-0.46302 0,-0.20615 0.11104,-0.37483 0.24675,-0.37483 0.13572,0 0.31567,-0.21713 0.3999,-0.48252 0.0842,-0.26539 0.36618,-0.71187 0.62654,-0.99219 0.26037,-0.28031 0.84738,-1.25894 1.30448,-2.17472 0.80483,-1.61246 0.84201,-1.64589 1.17723,-1.05833 0.22468,0.39382 0.34614,1.58229 0.34614,3.38692 0,2.46758 -0.0852,2.98077 -0.75738,4.56406 -0.41655,0.98113 -0.83397,1.78387 -0.9276,1.78387 -0.0936,0 -0.31661,0.32742 -0.49554,0.7276 -0.17893,0.40018 -0.59495,1.04394 -0.92449,1.43057 -0.32954,0.38664 -0.77775,0.96329 -0.99603,1.28145 -0.21828,0.31817 -0.60303,0.83527 -0.85499,1.14912 -1.71476,2.13591 -2.88543,4.54624 -3.05538,6.29077 -0.0917,0.9416 0.0477,1.59376 0.60714,2.84043 0.66362,1.47874 1.44907,2.55426 1.45258,1.98902 7.9e-4,-0.12696 0.24569,-1.89463 0.54422,-3.92816 0.51246,-3.49071 1.55375,-6.75372 2.15524,-6.75372 0.11523,0 0.20952,-0.13884 0.20952,-0.30853 0,-0.1697 0.17103,-0.49712 0.38007,-0.72761 0.20903,-0.23049 0.77458,-0.84648 1.25677,-1.36887 0.48219,-0.5224 1.23389,-1.39423 1.67045,-1.9374 0.43657,-0.54318 0.98891,-1.22008 1.22743,-1.50424 0.23852,-0.28416 0.58039,-0.87084 0.7597,-1.30375 0.17932,-0.4329 0.43359,-0.7871 0.56506,-0.7871 0.89672,0 1.08254,4.84268 0.27461,7.15648 -0.51982,1.48868 -1.57221,3.71433 -1.87057,3.95602 -0.0898,0.0728 -0.331,0.4577 -0.53595,0.85543 -0.20494,0.39773 -0.59171,0.9583 -0.85947,1.24571 -0.26777,0.28741 -0.48875,0.61684 -0.49107,0.73207 -0.002,0.11522 -0.35824,0.62622 -0.79093,1.13554 -0.43268,0.50932 -0.90703,1.06985 -1.05411,1.2456 -0.14707,0.17576 -0.26741,0.44365 -0.26741,0.59532 0,0.15166 -0.11906,0.27575 -0.26458,0.27575 -0.14552,0 -0.26458,0.17859 -0.26458,0.39687 0,0.21828 -0.11906,0.39688 -0.26459,0.39688 -0.14552,0 -0.26458,0.16867 -0.26458,0.37483 0,0.20615 -0.0893,0.41451 -0.19844,0.46302 -0.10914,0.0485 -0.40873,0.54277 -0.66575,1.09837 l -0.46732,1.01017 1.0217,2.16483 c 0.56193,1.19065 1.28634,2.39897 1.60981,2.68515 l 0.58811,0.52033 -0.0681,-3.69533 c -0.0647,-3.50691 -0.0311,-3.78463 0.65776,-5.44674 0.39924,-0.96328 0.95757,-2.0001 1.24074,-2.30404 0.28317,-0.30395 0.51485,-0.68041 0.51485,-0.83658 0,-0.15618 0.1786,-0.35249 0.39688,-0.43625 0.21828,-0.0838 0.39687,-0.26344 0.39687,-0.39928 0,-0.21632 0.9565,-1.71562 1.32545,-2.07765 0.0742,-0.0728 0.36912,-0.57877 0.65549,-1.12448 0.28635,-0.5457 0.61264,-0.99219 0.72506,-0.99219 0.11243,0 0.20442,-0.17859 0.20442,-0.39687 0,-0.21828 0.11906,-0.39688 0.26459,-0.39688 0.14552,0 0.26458,-0.17859 0.26458,-0.39687 0,-0.21828 0.11906,-0.39688 0.26458,-0.39688 0.14552,0 0.26459,-0.17859 0.26459,-0.39687 0,-0.21828 0.11906,-0.39688 0.26458,-0.39688 0.14552,0 0.26458,-0.17859 0.26458,-0.39687 0,-0.66079 0.50712,-0.44455 0.69284,0.29543 0.31516,1.25569 -0.0946,5.97672 -0.68021,7.8374 -0.599,1.90313 -2.03673,5.25884 -2.3511,5.48752 -0.10432,0.0759 -0.4207,0.66144 -0.70306,1.30123 -0.28236,0.63978 -0.65722,1.30709 -0.83303,1.4829 -0.17581,0.17581 -0.88028,1.65602 -1.56548,3.28936 -1.17092,2.79118 -1.22713,3.03208 -0.93497,4.0072 0.17096,0.57063 0.40704,1.0375 0.52462,1.0375 0.11757,0 0.42853,0.47625 0.69102,1.05834 0.26248,0.58208 0.56433,1.05833 0.67078,1.05833 0.28009,0 0.51206,-1.02407 0.51623,-2.27899 0.007,-2.19071 1.25911,-6.71685 1.85774,-6.71685 0.11285,0 0.27988,-0.29765 0.37119,-0.66145 0.0913,-0.36381 0.28281,-0.66146 0.42556,-0.66146 0.14274,0 0.25954,-0.18233 0.25954,-0.40518 0,-0.22285 0.17859,-0.47371 0.39687,-0.55747 0.21828,-0.0838 0.39688,-0.26713 0.39688,-0.40748 0,-0.14034 0.14883,-0.41067 0.33073,-0.60073 0.1819,-0.19005 0.50932,-0.61286 0.7276,-0.93956 0.21828,-0.3267 0.52373,-0.72824 0.67876,-0.89231 0.50823,-0.53785 1.65596,-2.65326 2.17156,-4.00248 0.27806,-0.7276 0.60283,-1.56104 0.72171,-1.85208 0.11888,-0.29105 0.18935,-0.64823 0.15659,-0.79375 -0.0327,-0.14552 0.13565,-0.073 0.37423,0.16109 0.67629,0.66367 0.7069,7.02195 0.0425,8.83474 -0.80117,2.18603 -2.09194,4.89479 -2.33245,4.89479 -0.12398,0 -0.22542,0.1786 -0.22542,0.39688 0,0.21828 -0.11906,0.39687 -0.26458,0.39687 -0.14552,0 -0.26458,0.16402 -0.26458,0.36448 0,0.20046 -0.18548,0.51841 -0.41217,0.70654 -0.22668,0.18814 -0.58857,0.70873 -0.80417,1.15688 -0.7545,1.56822 -1.49337,2.93261 -1.65915,3.06377 -0.092,0.0728 -0.54352,0.99361 -1.00344,2.04633 -0.75412,1.7261 -0.90382,2.98075 -0.35565,2.98075 0.1109,0 0.35954,0.38695 0.55254,0.8599 0.19301,0.47294 0.7422,1.27661 1.22043,1.78594 l 0.86951,0.92604 0.002,-1.63037 c 0.004,-2.55678 0.6753,-5.44234 1.85078,-7.95076 0.59415,-1.26788 1.16658,-2.36924 1.27207,-2.44747 0.10549,-0.0782 0.42609,-0.58872 0.71245,-1.13442 0.28636,-0.54571 0.61265,-0.99219 0.72507,-0.99219 0.11243,0 0.20442,-0.1786 0.20442,-0.39688 0,-0.21828 0.11906,-0.39687 0.26458,-0.39687 0.14552,0 0.26459,-0.17009 0.26459,-0.37798 0,-0.20789 0.14882,-0.54034 0.33073,-0.73878 0.47814,-0.52162 0.88251,-1.21378 1.62753,-2.78585 0.36206,-0.76398 0.77313,-1.38906 0.91349,-1.38906 0.14035,0 0.40365,0.83074 0.5851,1.84608 0.50029,2.79943 0.0742,5.22055 -1.4941,8.49054 -0.69331,1.44538 -1.35899,2.62797 -1.47937,2.62797 -0.12039,0 -0.21888,0.17009 -0.21888,0.37797 0,0.20789 -0.14883,0.54034 -0.33073,0.73878 -0.38952,0.42493 -0.75644,1.01119 -1.53659,2.45512 -0.3145,0.58208 -0.66139,1.11786 -0.77086,1.19063 -0.10948,0.0728 -0.58391,1.1497 -1.05429,2.39321 l -0.85524,2.26092 0.55949,0.91408 c 0.30772,0.50274 0.70221,1.2415 0.87665,1.64168 0.17444,0.40018 0.39568,0.72761 0.49164,0.72761 0.096,0 0.32429,0.36167 0.50739,0.80372 0.57053,1.37738 0.8352,0.7394 0.88554,-2.13454 0.0385,-2.19703 0.20033,-3.25176 0.78224,-5.09744 0.72146,-2.2883 2.40365,-6.25102 2.77096,-6.52757 0.10304,-0.0776 0.48251,-0.7066 0.84327,-1.39782 0.36076,-0.69122 0.74772,-1.25677 0.85989,-1.25677 0.11218,0 0.20397,-0.1786 0.20397,-0.39688 0,-0.21828 0.10518,-0.39687 0.23372,-0.39687 0.12855,0 0.31605,-0.26789 0.41666,-0.59531 0.17494,-0.56932 0.19431,-0.56065 0.44365,0.19843 0.44103,1.34265 0.29485,5.11635 -0.28534,7.36671 -0.29425,1.14127 -1.36014,3.82017 -2.36865,5.95312 -1.76086,3.72414 -2.67337,6.1971 -2.67337,7.24495 0,0.27098 0.29765,0.8137 0.66145,1.20605 0.36381,0.39234 0.66146,0.86339 0.66146,1.04678 0,0.18339 0.11906,0.33344 0.26459,0.33344 0.14552,0 0.26458,0.17859 0.26458,0.39687 0,0.22668 0.23807,0.39688 0.55514,0.39688 0.52026,0 0.54399,-0.0961 0.37764,-1.52945 -0.23858,-2.05557 0.37215,-4.62003 1.77811,-7.46639 0.61098,-1.23693 1.20347,-2.28864 1.31665,-2.33715 0.11319,-0.0485 0.20579,-0.25687 0.20579,-0.46302 0,-0.20616 0.11906,-0.37483 0.26459,-0.37483 0.14552,0 0.26458,-0.17859 0.26458,-0.39687 0,-0.21828 0.11906,-0.39688 0.26458,-0.39688 0.14552,0 0.26459,-0.17859 0.26459,-0.39687 0,-0.21828 0.11906,-0.39688 0.26458,-0.39688 0.14552,0 0.26458,-0.10954 0.26458,-0.24341 0,-0.13388 0.58111,-1.08697 1.29136,-2.11797 0.71024,-1.031 1.43906,-2.23115 1.6196,-2.667 0.52449,-1.26625 0.79356,-0.92729 0.78862,0.99349 -0.005,1.95688 -0.56197,4.981 -1.0938,5.93929 -0.18594,0.33503 -0.34814,0.66867 -0.36045,0.74144 -0.0961,0.56832 -0.46984,1.32291 -0.65514,1.32291 -0.12443,0 -0.36376,0.41672 -0.53185,0.92604 -0.1681,0.50933 -0.41546,0.92605 -0.54969,0.92605 -0.13424,0 -0.24406,0.17859 -0.24406,0.39687 0,0.21828 -0.11907,0.39688 -0.26459,0.39688 -0.14552,0 -0.26458,0.16867 -0.26458,0.37482 0,0.20616 -0.0893,0.41451 -0.19844,0.46302 -0.54724,0.24322 -2.85133,4.83118 -3.31181,6.59458 -0.38319,1.46737 -0.29756,1.92108 0.53369,2.82791 0.1819,0.19844 0.33073,0.47638 0.33073,0.61765 0,0.14127 0.12312,0.40065 0.2736,0.57641 0.15049,0.17576 0.43008,0.54611 0.62132,0.82301 0.56934,0.82432 0.87751,0.29681 1.33655,-2.28783 0.65483,-3.68702 1.33934,-5.73246 2.54011,-7.59029 0.59713,-0.92388 1.22632,-1.83869 1.3982,-2.03291 1.14534,-1.29421 2.25789,-3.03896 2.97521,-4.66585 0.2406,-0.54571 0.5436,-0.99219 0.67332,-0.99219 0.37176,0 0.26936,3.97357 -0.13637,5.29167 -0.40548,1.31727 -1.75812,4.05101 -2.07281,4.18923 -0.11044,0.0485 -0.2008,0.25687 -0.2008,0.46302 0,0.20616 -0.11906,0.37483 -0.26458,0.37483 -0.14553,0 -0.26459,0.12757 -0.26459,0.28348 0,0.15592 -0.14883,0.44944 -0.33073,0.65228 -0.78516,0.87552 -0.99218,1.17481 -0.99218,1.43432 0,0.15167 -0.11907,0.27575 -0.26459,0.27575 -0.14552,0 -0.26458,0.15615 -0.26458,0.34699 0,0.19084 -0.23979,0.60436 -0.53286,0.91894 -0.29307,0.31457 -0.84739,1.52664 -1.23182,2.69347 -0.69156,2.09904 -0.69393,2.13268 -0.22424,3.17426 0.26109,0.57901 0.69191,1.24931 0.95738,1.48955 0.62455,0.56521 1.39194,0.29758 1.16818,-0.40742 -0.20899,-0.65849 0.31042,-3.55917 0.85492,-4.7743 0.2287,-0.51037 0.42795,-0.98748 0.44279,-1.06024 0.11211,-0.54971 0.78799,-1.85208 0.96117,-1.85208 0.11806,0 0.29852,-0.26789 0.40102,-0.59531 0.26154,-0.83544 1.90736,-3.21987 3.07746,-4.45856 0.24752,-0.26203 0.68395,-0.92875 0.96985,-1.48159 l 0.5198,-1.00517 0.31145,0.79375 c 0.69046,1.75973 -0.0959,6.47289 -1.54504,9.26042 -0.22696,0.43656 -0.44099,0.96042 -0.47564,1.16414 -0.0346,0.20371 -0.1602,0.44184 -0.27902,0.52916 -0.11881,0.0873 -0.5112,0.72433 -0.87196,1.41555 -0.36076,0.69123 -0.73481,1.25678 -0.83121,1.25678 -0.0964,0 -0.24436,0.27522 -0.32879,0.61161 -0.0844,0.33639 -0.44407,0.94977 -0.79921,1.36307 -1.16981,1.36139 -1.36696,1.92376 -0.86777,2.47535 0.24211,0.26753 0.44021,0.62588 0.44021,0.79632 0,0.17044 0.11906,0.3099 0.26458,0.3099 0.14552,0 0.26458,0.14995 0.26458,0.33323 0,0.18327 0.24083,0.48362 0.53517,0.66745 0.63726,0.39797 0.64117,0.39038 1.05904,-2.05902 0.29144,-1.70827 1.24597,-4.16606 1.90048,-4.89347 0.76302,-0.84799 1.00323,-1.17999 1.00323,-1.38656 0,-0.11932 0.20836,-0.40347 0.46302,-0.63144 0.25466,-0.22797 0.64161,-0.68574 0.8599,-1.01726 0.21828,-0.33153 0.52039,-0.73701 0.67136,-0.90108 0.15096,-0.16407 0.55859,-0.77456 0.90584,-1.35665 0.83266,-1.39578 0.79651,-1.365 1.07896,-0.91838 0.39111,0.61844 0.29361,3.46789 -0.17237,5.03755 -0.40401,1.36091 -1.83269,4.45935 -2.18761,4.74438 -0.0906,0.0728 -0.33349,0.45971 -0.53975,0.85989 -0.20626,0.40018 -0.47396,0.72761 -0.59489,0.72761 -0.12093,0 -0.21988,0.11449 -0.21988,0.25442 0,0.13994 -0.53371,0.80358 -1.18602,1.47476 l -1.18603,1.22034 0.55523,1.08834 c 0.30537,0.59859 0.69026,1.22878 0.85529,1.40042 0.16504,0.17164 0.89539,1.00272 1.62299,1.84683 0.7276,0.84412 1.59081,1.79636 1.91823,2.1161 0.32742,0.31974 0.59531,0.71652 0.59531,0.88173 0,0.16521 0.11906,0.30039 0.26459,0.30039 0.14552,0 0.26458,0.17859 0.26458,0.39687 0,0.21829 0.0987,0.39688 0.21935,0.39688 0.32343,0 1.46025,2.54734 1.27244,2.85122 -0.41469,0.67098 -1.20166,0.508 -1.934,-0.40053 z"
       id="path836" />
  </g>
</svg>
