<?xml version="1.0" encoding="UTF-8" standalone="no"?>
<svg
   width="1026.2068pt"
   height="1096.2087pt"
   version="1.1"
   viewBox="0 0 1026.2068 1096.2087"
   id="svg131"
   sodipodi:docname="Fossil Fuels.svg"
   inkscape:version="1.1.2 (b8e25be833, 2022-02-05)"
   xmlns:inkscape="http://www.inkscape.org/namespaces/inkscape"
   xmlns:sodipodi="http://sodipodi.sourceforge.net/DTD/sodipodi-0.dtd"
   xmlns="http://www.w3.org/2000/svg"
   xmlns:svg="http://www.w3.org/2000/svg">
  <sodipodi:namedview
     id="namedview133"
     pagecolor="#ffffff"
     bordercolor="#666666"
     borderopacity="1.0"
     inkscape:pageshadow="2"
     inkscape:pageopacity="0.0"
     inkscape:pagecheckerboard="0"
     inkscape:document-units="pt"
     showgrid="false"
     inkscape:zoom="0.19955357"
     inkscape:cx="804.2953"
     inkscape:cy="175.3915"
     inkscape:window-width="1920"
     inkscape:window-height="1217"
     inkscape:window-x="-8"
     inkscape:window-y="-8"
     inkscape:window-maximized="1"
     inkscape:current-layer="g129" />
  <defs
     id="defs59">
    <symbol
       id="s"
       overflow="visible">
      <path
         d="m 28.422,-1.7031 c -1.4688,0.76172 -3,1.3359 -4.5938,1.7188 -1.5859,0.38281 -3.2344,0.57812 -4.9531,0.57812 -5.1562,0 -9.2422,-1.4375 -12.25,-4.3125 -3.0117,-2.875 -4.5156,-6.7812 -4.5156,-11.719 0,-4.9378 1.5039,-8.8438 4.5156,-11.719 3.0078,-2.8828 7.0938,-4.3281 12.25,-4.3281 1.7188,0 3.3672,0.19531 4.9531,0.57812 1.5938,0.38672 3.125,0.96094 4.5938,1.7188 v 6.4062 c -1.4805,-1.0078 -2.9375,-1.75 -4.375,-2.2188 -1.4375,-0.4688 -2.9492,-0.70312 -4.5312,-0.70312 -2.8438,0 -5.0859,0.91406 -6.7188,2.7344 -1.625,1.8242 -2.4375,4.3359 -2.4375,7.5312 0,3.1992 0.8125,5.7109 2.4375,7.5312 1.6328,1.8242 3.875,2.7344 6.7188,2.7344 1.582,0 3.0938,-0.23438 4.5312,-0.70312 1.4375,-0.47656 2.8945,-1.2188 4.375,-2.2188 z"
         id="path2" />
    </symbol>
    <symbol
       id="c"
       overflow="visible">
      <path
         d="m 20.797,-16.875 c -0.64844,-0.3125 -1.293,-0.53516 -1.9375,-0.67188 -0.64844,-0.14453 -1.293,-0.21875 -1.9375,-0.21875 -1.9062,0 -3.375,0.60938 -4.4062,1.8281 -1.0234,1.2188 -1.5312,2.9688 -1.5312,5.25 V 4.7e-4 H 3.5627 v -23.203 h 7.4219 v 3.8125 c 0.94531,-1.5195 2.0352,-2.6289 3.2656,-3.3281 1.2383,-0.69531 2.7227,-1.0469 4.4531,-1.0469 0.25,0 0.51953,0.01172 0.8125,0.03125 0.28906,0.02344 0.71094,0.07031 1.2656,0.14062 z"
         id="path5" />
    </symbol>
    <symbol
       id="b"
       overflow="visible">
      <path
         d="m 26.719,-11.656 v 2.1094 H 9.391 c 0.17578,1.7422 0.80078,3.0469 1.875,3.9219 1.082,0.86719 2.5859,1.2969 4.5156,1.2969 1.5625,0 3.1602,-0.22656 4.7969,-0.6875 1.6328,-0.46875 3.3164,-1.1719 5.0469,-2.1094 v 5.7188 c -1.75,0.65625 -3.5078,1.1523 -5.2656,1.4844 -1.75,0.34375 -3.5078,0.51562 -5.2656,0.51562 -4.1992,0 -7.4609,-1.0625 -9.7812,-3.1875 -2.3242,-2.1328 -3.4844,-5.1289 -3.4844,-8.9844 0,-3.7812 1.1406,-6.7539 3.4219,-8.9219 2.2812,-2.1758 5.4258,-3.2656 9.4375,-3.2656 3.6445,0 6.5625,1.1016 8.75,3.2969 2.1875,2.1992 3.2812,5.1367 3.2812,8.8125 z m -7.625,-2.4688 c 0,-1.4062 -0.41406,-2.5391 -1.2344,-3.4062 -0.8125,-0.86328 -1.8867,-1.2969 -3.2188,-1.2969 -1.4375,0 -2.6055,0.40625 -3.5,1.2188 -0.89844,0.80469 -1.4531,1.9648 -1.6719,3.4844 z"
         id="path8" />
    </symbol>
    <symbol
       id="j"
       overflow="visible">
      <path
         d="m 13.969,-10.438 c -1.5547,0 -2.7188,0.26562 -3.5,0.79688 -0.78125,0.52344 -1.1719,1.293 -1.1719,2.3125 0,0.9375 0.3125,1.6719 0.9375,2.2031 0.63281,0.53125 1.5078,0.79688 2.625,0.79688 1.3945,0 2.5664,-0.5 3.5156,-1.5 0.95703,-1 1.4375,-2.2539 1.4375,-3.7656 v -0.84375 z m 11.328,-2.7969 V -9e-4 h -7.4844 v -3.4375 c -0.99219,1.4062 -2.1094,2.4336 -3.3594,3.0781 -1.2422,0.63281 -2.75,0.95312 -4.5312,0.95312 -2.4062,0 -4.3594,-0.69531 -5.8594,-2.0938 -1.4922,-1.4062 -2.2344,-3.2227 -2.2344,-5.4531 0,-2.7266 0.92969,-4.7266 2.7969,-6 1.875,-1.2695 4.8125,-1.9062 8.8125,-1.9062 h 4.375 v -0.57812 c 0,-1.1641 -0.46484,-2.0195 -1.3906,-2.5625 -0.92969,-0.55078 -2.3711,-0.82812 -4.3281,-0.82812 -1.5859,0 -3.0625,0.16406 -4.4375,0.48438 -1.3672,0.3125 -2.6328,0.78906 -3.7969,1.4219 v -5.6562 c 1.582,-0.38281 3.1758,-0.67578 4.7812,-0.875 1.6016,-0.20703 3.2031,-0.3125 4.7969,-0.3125 4.1875,0 7.207,0.82812 9.0625,2.4844 1.8633,1.6484 2.7969,4.3281 2.7969,8.0469 z"
         id="path11" />
    </symbol>
    <symbol
       id="a"
       overflow="visible">
      <path
         d="m 11.656,-29.781 v 6.5781 h 7.6562 v 5.3125 H 11.656 v 9.8281 c 0,1.0859 0.21094,1.8203 0.64062,2.2031 0.4375,0.375 1.2891,0.5625 2.5625,0.5625 h 3.7969 V 2e-4 h -6.3594 c -2.9297,0 -5,-0.60938 -6.2188,-1.8281 -1.2188,-1.2266 -1.8281,-3.3047 -1.8281,-6.2344 v -9.8281 h -3.6875 v -5.3125 h 3.6875 v -6.5781 z"
         id="path14" />
    </symbol>
    <symbol
       id="i"
       overflow="visible">
      <path
         d="m 19.344,-19.797 v -12.438 h 7.4531 V -10e-4 H 19.344 v -3.3594 c -1.0234,1.3672 -2.1484,2.3672 -3.375,3 -1.2305,0.63281 -2.6523,0.95312 -4.2656,0.95312 -2.8555,0 -5.2031,-1.1328 -7.0469,-3.4062 -1.8359,-2.2695 -2.75,-5.1914 -2.75,-8.7656 0,-3.5703 0.91406,-6.4922 2.75,-8.7656 1.8438,-2.2812 4.1914,-3.4219 7.0469,-3.4219 1.6016,0 3.0195,0.32422 4.25,0.96875 1.2383,0.64844 2.3672,1.6484 3.3906,3 z m -4.8906,15.016 c 1.5938,0 2.8047,-0.57812 3.6406,-1.7344 0.83203,-1.1641 1.25,-2.8516 1.25,-5.0625 0,-2.207 -0.41797,-3.8906 -1.25,-5.0469 -0.83594,-1.1641 -2.0469,-1.75 -3.6406,-1.75 -1.5742,0 -2.7773,0.58594 -3.6094,1.75 -0.83594,1.1562 -1.25,2.8398 -1.25,5.0469 0,2.2109 0.41406,3.8984 1.25,5.0625 0.83203,1.1562 2.0352,1.7344 3.6094,1.7344 z"
         id="path17" />
    </symbol>
    <symbol
       id="h"
       overflow="visible">
      <path
         d="m 15.906,-4.7812 c 1.5938,0 2.8047,-0.57812 3.6406,-1.7344 0.83203,-1.1641 1.25,-2.8516 1.25,-5.0625 0,-2.207 -0.41797,-3.8906 -1.25,-5.0469 -0.83594,-1.1641 -2.0469,-1.75 -3.6406,-1.75 -1.5859,0 -2.8047,0.58594 -3.6562,1.75 -0.84375,1.168 -1.2656,2.8516 -1.2656,5.0469 0,2.1992 0.42188,3.8828 1.2656,5.0469 0.85156,1.168 2.0703,1.75 3.6562,1.75 z m -4.9219,-15.016 c 1.0195,-1.3516 2.1484,-2.3516 3.3906,-3 1.2383,-0.64453 2.6641,-0.96875 4.2812,-0.96875 2.8633,0 5.2109,1.1406 7.0469,3.4219 1.832,2.2734 2.75,5.1953 2.75,8.7656 0,3.5742 -0.91797,6.4961 -2.75,8.7656 -1.8359,2.2734 -4.1836,3.4062 -7.0469,3.4062 -1.6172,0 -3.043,-0.32031 -4.2812,-0.95312 -1.2422,-0.64453 -2.3711,-1.6445 -3.3906,-3 v 3.3594 H 3.5622 v -32.234 h 7.4219 z"
         id="path20" />
    </symbol>
    <symbol
       id="g"
       overflow="visible">
      <path
         d="m 0.51562,-23.203 h 7.4219 l 6.2344,15.75 5.2969,-15.75 h 7.4219 l -9.7656,25.406 c -0.98047,2.5703 -2.1211,4.375 -3.4219,5.4062 -1.3047,1.0312 -3.0273,1.5469 -5.1719,1.5469 h -4.2812 v -4.875 h 2.3125 c 1.2578,0 2.1758,-0.19922 2.75,-0.59375 0.57031,-0.39844 1.0156,-1.1172 1.3281,-2.1562 l 0.21875,-0.64062 z"
         id="path23" />
    </symbol>
    <symbol
       id="f"
       overflow="visible">
      <path
         d="m 0.20312,-30.922 h 8.0156 l 8.2031,22.828 8.1875,-22.828 h 8.0156 L 21.17192,0 h -9.5156 z"
         id="path26" />
    </symbol>
    <symbol
       id="r"
       overflow="visible">
      <path
         d="m 22.312,-22.469 v 6.0469 c -1.0117,-0.69531 -2.0273,-1.207 -3.0469,-1.5312 -1.0117,-0.33203 -2.0625,-0.5 -3.1562,-0.5 -2.0625,0 -3.6719,0.60547 -4.8281,1.8125 -1.1562,1.2109 -1.7344,2.8984 -1.7344,5.0625 0,2.168 0.57812,3.8555 1.7344,5.0625 1.1562,1.2109 2.7656,1.8125 4.8281,1.8125 1.1641,0 2.2695,-0.17188 3.3125,-0.51562 1.0391,-0.34375 2.0039,-0.85156 2.8906,-1.5312 v 6.0625 c -1.168,0.42969 -2.3516,0.74219 -3.5469,0.95312 -1.1875,0.21875 -2.3828,0.32812 -3.5781,0.32812 -4.1875,0 -7.4648,-1.0703 -9.8281,-3.2188 -2.3555,-2.1445 -3.5312,-5.1289 -3.5312,-8.9531 0,-3.8203 1.1758,-6.8047 3.5312,-8.9531 2.3633,-2.1562 5.6406,-3.2344 9.8281,-3.2344 1.207,0 2.3984,0.10938 3.5781,0.32812 1.1875,0.21875 2.3672,0.54297 3.5469,0.96875 z"
         id="path29" />
    </symbol>
    <symbol
       id="e"
       overflow="visible">
      <path
         d="m 14.609,-18.453 c -1.6484,0 -2.9023,0.59375 -3.7656,1.7812 -0.86719,1.1797 -1.2969,2.875 -1.2969,5.0938 0,2.2188 0.42969,3.9219 1.2969,5.1094 0.86328,1.1797 2.1172,1.7656 3.7656,1.7656 1.6133,0 2.8477,-0.58594 3.7031,-1.7656 0.85156,-1.1875 1.2812,-2.8906 1.2812,-5.1094 0,-2.2188 -0.42969,-3.9141 -1.2812,-5.0938 -0.85547,-1.1875 -2.0898,-1.7812 -3.7031,-1.7812 z m 0,-5.3125 c 3.9883,0 7.1016,1.0781 9.3438,3.2344 2.25,2.1562 3.375,5.1406 3.375,8.9531 0,3.8125 -1.125,6.7969 -3.375,8.9531 -2.2422,2.1484 -5.3555,3.2188 -9.3438,3.2188 -4.0117,0 -7.1484,-1.0703 -9.4062,-3.2188 -2.25,-2.1562 -3.375,-5.1406 -3.375,-8.9531 0,-3.8125 1.125,-6.7969 3.375,-8.9531 2.2578,-2.1562 5.3945,-3.2344 9.4062,-3.2344 z"
         id="path32" />
    </symbol>
    <symbol
       id="q"
       overflow="visible">
      <path
         d="m 21.688,-22.469 v 5.625 c -1.5859,-0.65625 -3.1172,-1.1484 -4.5938,-1.4844 -1.4805,-0.33203 -2.875,-0.5 -4.1875,-0.5 -1.4062,0 -2.4531,0.17969 -3.1406,0.53125 -0.6875,0.35547 -1.0312,0.89844 -1.0312,1.625 0,0.59375 0.25781,1.0547 0.78125,1.375 0.51953,0.3125 1.4453,0.54297 2.7812,0.6875 l 1.3125,0.1875 c 3.8008,0.49219 6.3516,1.2891 7.6562,2.3906 1.3125,1.1055 1.9688,2.8398 1.9688,5.2031 0,2.4688 -0.91406,4.3242 -2.7344,5.5625 -1.8242,1.2422 -4.543,1.8594 -8.1562,1.8594 -1.5312,0 -3.1172,-0.12109 -4.75,-0.35938 -1.6367,-0.23828 -3.3203,-0.59766 -5.0469,-1.0781 v -5.6406 c 1.4766,0.71875 2.9922,1.2617 4.5469,1.625 1.5508,0.35547 3.1289,0.53125 4.7344,0.53125 1.4453,0 2.5352,-0.19531 3.2656,-0.59375 0.73828,-0.40625 1.1094,-1.0039 1.1094,-1.7969 0,-0.65625 -0.25781,-1.1445 -0.76562,-1.4688 -0.5,-0.32031 -1.5078,-0.57812 -3.0156,-0.76562 l -1.2969,-0.15625 c -3.3047,-0.41406 -5.6172,-1.1797 -6.9375,-2.2969 -1.3242,-1.125 -1.9844,-2.8281 -1.9844,-5.1094 0,-2.457 0.83594,-4.2812 2.5156,-5.4688 1.6875,-1.1875 4.2695,-1.7812 7.75,-1.7812 1.3633,0 2.7969,0.10547 4.2969,0.3125 1.5078,0.21094 3.1484,0.53906 4.9219,0.98438 z"
         id="path35" />
    </symbol>
    <symbol
       id="d"
       overflow="visible">
      <path
         d="m 3.8906,-30.922 h 13.234 c 3.9375,0 6.957,0.875 9.0625,2.625 2.1016,1.7422 3.1562,4.2266 3.1562,7.4531 0,3.25 -1.0547,5.75 -3.1562,7.5 -2.1055,1.7422 -5.125,2.6094 -9.0625,2.6094 h -5.25 V -5e-4 H 3.8902 Z m 7.9844,5.7812 v 8.625 h 4.4062 c 1.5391,0 2.7344,-0.375 3.5781,-1.125 0.8437,-0.75 1.2656,-1.8164 1.2656,-3.2031 0,-1.375 -0.42188,-2.4297 -1.2656,-3.1719 -0.84375,-0.75 -2.0391,-1.125 -3.5781,-1.125 z"
         id="path38" />
    </symbol>
    <symbol
       id="p"
       overflow="visible">
      <path
         d="m 3.5625,-23.203 h 7.4219 V 0 H 3.5625 Z m 0,-9.0312 h 7.4219 v 6.0469 H 3.5625 Z"
         id="path41" />
    </symbol>
    <symbol
       id="o"
       overflow="visible">
      <path
         d="M 26.891,-14.125 V 0 h -7.4688 v -10.812 c 0,-2 -0.04687,-3.3789 -0.14062,-4.1406 -0.08594,-0.75781 -0.23438,-1.3203 -0.45312,-1.6875 -0.29297,-0.47656 -0.6875,-0.85156 -1.1875,-1.125 -0.49219,-0.26953 -1.0547,-0.40625 -1.6875,-0.40625 -1.5547,0 -2.7734,0.60156 -3.6562,1.7969 -0.875,1.1992 -1.3125,2.8555 -1.3125,4.9688 v 11.406 h -7.4219 v -23.203 h 7.4219 v 3.4062 c 1.1133,-1.3516 2.2969,-2.3516 3.5469,-3 1.2578,-0.64453 2.6484,-0.96875 4.1719,-0.96875 2.6758,0 4.707,0.82422 6.0938,2.4688 1.3945,1.6484 2.0938,4.0391 2.0938,7.1719 z"
         id="path44" />
    </symbol>
    <symbol
       id="n"
       overflow="visible">
      <path
         d="m 18.828,-32.234 v 4.875 h -4.0938 c -1.0547,0 -1.7891,0.19531 -2.2031,0.57812 -0.41797,0.375 -0.625,1.0312 -0.625,1.9688 v 1.6094 h 6.3438 v 5.3125 H 11.9061 V 8.2e-4 H 4.4999 v -17.891 H 0.8124 v -5.3125 h 3.6875 v -1.6094 c 0,-2.5312 0.70312,-4.3984 2.1094,-5.6094 1.4062,-1.207 3.5859,-1.8125 6.5469,-1.8125 z"
         id="path47" />
    </symbol>
    <symbol
       id="m"
       overflow="visible">
      <path
         d="M 26.891,-14.125 V 0 h -7.4688 v -10.766 c 0,-2.0312 -0.04687,-3.4258 -0.14062,-4.1875 -0.08594,-0.75781 -0.23438,-1.3203 -0.45312,-1.6875 -0.29297,-0.47656 -0.6875,-0.85156 -1.1875,-1.125 -0.49219,-0.26953 -1.0547,-0.40625 -1.6875,-0.40625 -1.5547,0 -2.7734,0.60156 -3.6562,1.7969 -0.875,1.1992 -1.3125,2.8555 -1.3125,4.9688 v 11.406 h -7.4219 v -32.234 h 7.4219 v 12.438 c 1.1133,-1.3516 2.2969,-2.3516 3.5469,-3 1.2578,-0.64453 2.6484,-0.96875 4.1719,-0.96875 2.6758,0 4.707,0.82422 6.0938,2.4688 1.3945,1.6484 2.0938,4.0391 2.0938,7.1719 z"
         id="path50" />
    </symbol>
    <symbol
       id="l"
       overflow="visible">
      <path
         d="m 3.8906,-30.922 h 8.9062 l 11.25,21.203 v -21.203 h 7.5625 V 0 h -8.9062 l -11.25,-21.219 V 0 H 3.8906 Z"
         id="path53" />
    </symbol>
    <symbol
       id="k"
       overflow="visible">
      <path
         d="m 3.5625,-23.203 h 7.4219 v 22.781 c 0,3.1133 -0.75,5.4883 -2.25,7.125 C 7.2422,8.3358 5.0821,9.1561 2.25,9.1561 h -3.6562 v -4.875 h 1.2812 c 1.4062,0 2.3672,-0.32031 2.8906,-0.95312 0.53125,-0.63672 0.79688,-1.8867 0.79688,-3.75 z m 0,-9.0312 h 7.4219 v 6.0469 H 3.5625 Z"
         id="path56" />
    </symbol>
    <symbol
       id="w"
       overflow="visible">
      <path
         d="m 18.766,-1.125 c -0.96875,0.5 -1.9805,0.875 -3.0312,1.125 -1.043,0.25781 -2.1367,0.39062 -3.2812,0.39062 -3.3984,0 -6.0898,-0.94531 -8.0781,-2.8438 -1.9922,-1.9062 -2.9844,-4.4844 -2.9844,-7.7344 0,-3.2578 0.99219,-5.8359 2.9844,-7.7344 1.9883,-1.9062 4.6797,-2.8594 8.0781,-2.8594 1.1445,0 2.2383,0.13281 3.2812,0.39062 1.0508,0.25 2.0625,0.625 3.0312,1.125 v 4.2188 c -0.98047,-0.65625 -1.9453,-1.1406 -2.8906,-1.4531 -0.94922,-0.3125 -1.9492,-0.46875 -3,-0.46875 -1.875,0 -3.3516,0.60547 -4.4219,1.8125 -1.0742,1.1992 -1.6094,2.8555 -1.6094,4.9688 0,2.1055 0.53516,3.7617 1.6094,4.9688 1.0703,1.1992 2.5469,1.7969 4.4219,1.7969 1.0508,0 2.0508,-0.14844 3,-0.45312 0.94531,-0.3125 1.9102,-0.80078 2.8906,-1.4688 z"
         id="path1106" />
    </symbol>
    <symbol
       id="d-8"
       overflow="visible">
      <path
         d="m 13.734,-11.141 c -0.4375,-0.19531 -0.87109,-0.34375 -1.2969,-0.4375 -0.41797,-0.10156 -0.83984,-0.15625 -1.2656,-0.15625 -1.2617,0 -2.2305,0.40625 -2.9062,1.2188 -0.67969,0.80469 -1.0156,1.9531 -1.0156,3.4531 v 7.0625 H 2.3591 v -15.312 h 4.8906 v 2.5156 c 0.625,-1 1.3438,-1.7266 2.1562,-2.1875 0.82031,-0.46875 1.8008,-0.70312 2.9375,-0.70312 0.16406,0 0.34375,0.01172 0.53125,0.03125 0.19531,0.01172 0.47656,0.03906 0.84375,0.07813 z"
         id="path1109" />
    </symbol>
    <symbol
       id="a-3"
       overflow="visible">
      <path
         d="m 17.641,-7.7031 v 1.4062 H 6.188 c 0.125,1.1484 0.53906,2.0078 1.25,2.5781 0.70703,0.57422 1.7031,0.85938 2.9844,0.85938 1.0312,0 2.082,-0.14844 3.1562,-0.45312 1.082,-0.3125 2.1914,-0.77344 3.3281,-1.3906 v 3.7656 c -1.1562,0.4375 -2.3125,0.76562 -3.4688,0.98438 -1.1562,0.22656 -2.3125,0.34375 -3.4688,0.34375 -2.7734,0 -4.9297,-0.70312 -6.4688,-2.1094 -1.5312,-1.4062 -2.2969,-3.3789 -2.2969,-5.9219 0,-2.5 0.75391,-4.4609 2.2656,-5.8906 1.5078,-1.4375 3.582,-2.1562 6.2188,-2.1562 2.4062,0 4.332,0.73047 5.7812,2.1875 1.4453,1.4492 2.1719,3.3828 2.1719,5.7969 z m -5.0312,-1.625 c 0,-0.92578 -0.27344,-1.6719 -0.8125,-2.2344 -0.54297,-0.57031 -1.25,-0.85938 -2.125,-0.85938 -0.94922,0 -1.7188,0.26562 -2.3125,0.79688 -0.5937,0.53126 -0.96484,1.2969 -1.1094,2.2969 z"
         id="path1112" />
    </symbol>
    <symbol
       id="g-8"
       overflow="visible">
      <path
         d="m 9.2188,-6.8906 c -1.0234,0 -1.793,0.17188 -2.3125,0.51562 -0.51172,0.34375 -0.76562,0.85547 -0.76562,1.5312 0,0.625 0.20703,1.1172 0.625,1.4688 0.41406,0.34375 0.98828,0.51562 1.7188,0.51562 0.92578,0 1.7031,-0.32812 2.3281,-0.98438 0.63281,-0.66406 0.95312,-1.4922 0.95312,-2.4844 v -0.5625 z m 7.4688,-1.8438 V 0 h -4.9219 v -2.2656 c -0.65625,0.92969 -1.3984,1.6055 -2.2188,2.0312 -0.82422,0.41406 -1.8242,0.625 -3,0.625 -1.5859,0 -2.8711,-0.45703 -3.8594,-1.375 -0.99219,-0.92578 -1.4844,-2.1289 -1.4844,-3.6094 0,-1.7891 0.61328,-3.1016 1.8438,-3.9375 1.2383,-0.84375 3.1797,-1.2656 5.8281,-1.2656 h 2.8906 v -0.39062 c 0,-0.76953 -0.30859,-1.332 -0.92188,-1.6875 -0.61719,-0.36328 -1.5703,-0.54688 -2.8594,-0.54688 -1.0547,0 -2.0312,0.10547 -2.9375,0.3125 -0.89844,0.21094 -1.7305,0.52344 -2.5,0.9375 v -3.7344 c 1.0391,-0.25 2.0859,-0.44141 3.1406,-0.57812 1.0625,-0.13281 2.125,-0.20312 3.1875,-0.20312 2.7578,0 4.75,0.54688 5.9688,1.6406 1.2266,1.0859 1.8438,2.8555 1.8438,5.3125 z"
         id="path1115" />
    </symbol>
    <symbol
       id="c-3"
       overflow="visible">
      <path
         d="m 7.7031,-19.656 v 4.3438 H 12.75 v 3.5 H 7.7031 v 6.5 c 0,0.71094 0.14062,1.1875 0.42188,1.4375 0.28126,0.25 0.83594,0.375 1.6719,0.375 h 2.5156 v 3.5 h -4.1875 c -1.9375,0 -3.3125,-0.39844 -4.125,-1.2031 -0.80469,-0.8125 -1.2031,-2.1797 -1.2031,-4.1094 v -6.5 h -2.4219 v -3.5 h 2.4219 v -4.3438 z"
         id="path1118" />
    </symbol>
    <symbol
       id="f-2"
       overflow="visible">
      <path
         d="m 12.766,-13.078 v -8.2031 h 4.9219 V -10e-5 H 12.766 v -2.2188 c -0.66797,0.90625 -1.4062,1.5703 -2.2188,1.9844 -0.8126,0.4141 -1.7578,0.625 -2.8281,0.625 -1.8867,0 -3.4336,-0.75 -4.6406,-2.25 -1.2109,-1.5 -1.8125,-3.4258 -1.8125,-5.7812 0,-2.3633 0.60156,-4.2969 1.8125,-5.7969 1.207,-1.5 2.7539,-2.25 4.6406,-2.25 1.0625,0 2,0.21484 2.8125,0.64062 0.82031,0.42969 1.5664,1.0859 2.2344,1.9688 z m -3.2188,9.9219 c 1.0391,0 1.8359,-0.37891 2.3906,-1.1406 0.55078,-0.76953 0.82812,-1.8828 0.82812,-3.3438 0,-1.457 -0.27734,-2.5664 -0.82812,-3.3281 -0.55469,-0.76953 -1.3516,-1.1562 -2.3906,-1.1562 -1.043,0 -1.8398,0.38672 -2.3906,1.1562 -0.55469,0.76172 -0.82812,1.8711 -0.82812,3.3281 0,1.4609 0.27344,2.5742 0.82812,3.3438 0.55078,0.76172 1.3477,1.1406 2.3906,1.1406 z"
         id="path1121" />
    </symbol>
    <symbol
       id="m-3"
       overflow="visible">
      <path
         d="m 10.5,-3.1562 c 1.0508,0 1.8516,-0.37891 2.4062,-1.1406 0.55078,-0.76953 0.82812,-1.8828 0.82812,-3.3438 0,-1.457 -0.27734,-2.5664 -0.82812,-3.3281 -0.55469,-0.76953 -1.3555,-1.1562 -2.4062,-1.1562 -1.0547,0 -1.8594,0.38672 -2.4219,1.1562 -0.55469,0.77344 -0.82812,1.8828 -0.82812,3.3281 0,1.4492 0.27344,2.5586 0.82812,3.3281 0.5625,0.77344 1.3672,1.1562 2.4219,1.1562 z m -3.25,-9.9219 c 0.67578,-0.88281 1.4219,-1.5391 2.2344,-1.9688 0.82031,-0.42578 1.7656,-0.64062 2.8281,-0.64062 1.8945,0 3.4453,0.75 4.6562,2.25 1.207,1.5 1.8125,3.4336 1.8125,5.7969 0,2.3555 -0.60547,4.2812 -1.8125,5.7812 -1.2109,1.5 -2.7617,2.25 -4.6562,2.25 -1.0625,0 -2.0078,-0.21094 -2.8281,-0.625 C 8.6719,-0.6602 7.9258,-1.32032 7.25,-2.21882 V -2e-5 H 2.3594 v -21.281 H 7.25 Z"
         id="path1124" />
    </symbol>
    <symbol
       id="l-6"
       overflow="visible">
      <path
         d="m 0.34375,-15.312 h 4.8906 l 4.125,10.391 3.5,-10.391 h 4.8906 l -6.4375,16.766 c -0.64844,1.6953 -1.4023,2.8828 -2.2656,3.5625 -0.86719,0.6875 -2,1.0312 -3.4062,1.0312 H 2.79685 V 2.8289 h 1.5312 c 0.83203,0 1.4375,-0.13672 1.8125,-0.40625 C 6.52336,2.16093 6.82024,1.69218 7.03117,1.01645 L 7.17179,0.59457 Z"
         id="path1127" />
    </symbol>
    <symbol
       id="k-9"
       overflow="visible">
      <path
         d="m 2.5781,-20.406 h 6.6875 l 4.6562,10.922 4.6719,-10.922 h 6.6875 V 0 H 20.2968 V -14.938 L 15.5937,-3.922 H 12.2656 L 7.5625,-14.938 V 0 H 2.5781 Z"
         id="path1130" />
    </symbol>
    <symbol
       id="v"
       overflow="visible">
      <path
         d="M 2.3594,-15.312 H 7.25 V 0 H 2.3594 Z m 0,-5.9688 H 7.25 v 4 H 2.3594 Z"
         id="path1133" />
    </symbol>
    <symbol
       id="j-3"
       overflow="visible">
      <path
         d="m 14.719,-14.828 v 3.9844 c -0.65625,-0.45703 -1.3242,-0.79688 -2,-1.0156 -0.66797,-0.21875 -1.3594,-0.32812 -2.0781,-0.32812 -1.3672,0 -2.4336,0.40234 -3.2031,1.2031 -0.76172,0.79297 -1.1406,1.9062 -1.1406,3.3438 0,1.4297 0.37891,2.543 1.1406,3.3438 0.76953,0.79297 1.8359,1.1875 3.2031,1.1875 0.75781,0 1.4844,-0.10938 2.1719,-0.32812 0.6875,-0.22656 1.3203,-0.56641 1.9062,-1.0156 v 4 c -0.76172,0.28125 -1.5391,0.48828 -2.3281,0.625 -0.78125,0.14453 -1.5742,0.21875 -2.375,0.21875 -2.7617,0 -4.9219,-0.70703 -6.4844,-2.125 -1.5547,-1.4141 -2.3281,-3.3828 -2.3281,-5.9062 0,-2.5312 0.77344,-4.5039 2.3281,-5.9219 1.5625,-1.4141 3.7227,-2.125 6.4844,-2.125 0.80078,0 1.5938,0.07422 2.375,0.21875 0.78125,0.13672 1.5547,0.35156 2.3281,0.64062 z"
         id="path1136" />
    </symbol>
    <symbol
       id="e-7"
       overflow="visible">
      <path
         d="M 17.75,-9.3281 V 0 h -4.9219 v -7.1094 c 0,-1.3438 -0.03125,-2.2656 -0.09375,-2.7656 -0.0625,-0.5 -0.16797,-0.86719 -0.3125,-1.1094 -0.1875,-0.3125 -0.44922,-0.55469 -0.78125,-0.73438 -0.32422,-0.17578 -0.69531,-0.26562 -1.1094,-0.26562 -1.0234,0 -1.8242,0.39844 -2.4062,1.1875 -0.58594,0.78125 -0.875,1.8711 -0.875,3.2656 V -1e-4 H 2.3594 v -21.281 H 7.25 v 8.2031 c 0.73828,-0.88281 1.5195,-1.5391 2.3438,-1.9688 0.83203,-0.42578 1.75,-0.64062 2.75,-0.64062 1.7695,0 3.1133,0.54688 4.0312,1.6406 0.91406,1.0859 1.375,2.6562 1.375,4.7188 z"
         id="path1139" />
    </symbol>
    <symbol
       id="i-1"
       overflow="visible">
      <path
         d="M 2.3594,-21.281 H 7.25 V 0 H 2.3594 Z"
         id="path1142" />
    </symbol>
    <symbol
       id="u"
       overflow="visible">
      <path
         d="m 0.82812,-20.406 h 5.0469 l 3.5312,14.828 3.5,-14.828 h 5.0781 l 3.5,14.828 3.5156,-14.828 h 5.0156 L 25.20302,0 h -6.0781 L 15.42182,-15.516 11.76562,0 h -6.0781 z"
         id="path1145" />
    </symbol>
    <symbol
       id="b-6"
       overflow="visible">
      <path
         d="m 9.6406,-12.188 c -1.0859,0 -1.9141,0.39062 -2.4844,1.1719 -0.57422,0.78125 -0.85938,1.9062 -0.85938,3.375 0,1.4688 0.28516,2.5938 0.85938,3.375 0.57031,0.77344 1.3984,1.1562 2.4844,1.1562 1.0625,0 1.875,-0.38281 2.4375,-1.1562 0.57031,-0.78125 0.85938,-1.9062 0.85938,-3.375 0,-1.4688 -0.28906,-2.5938 -0.85938,-3.375 -0.5625,-0.78125 -1.375,-1.1719 -2.4375,-1.1719 z m 0,-3.5 c 2.6328,0 4.6914,0.71484 6.1719,2.1406 1.4766,1.418 2.2188,3.3867 2.2188,5.9062 0,2.5117 -0.74219,4.4805 -2.2188,5.9062 C 14.332,-0.317 12.2734,0.39 9.6406,0.39 6.9922,0.39 4.9258,-0.31703 3.4375,-1.735 1.9453,-3.1608 1.2031,-5.1295 1.2031,-7.6412 c 0,-2.5195 0.74219,-4.4883 2.2344,-5.9062 1.4883,-1.4258 3.5547,-2.1406 6.2031,-2.1406 z"
         id="path1148" />
    </symbol>
    <symbol
       id="t"
       overflow="visible">
      <path
         d="m 0.98438,-15.312 h 4.7656 l 2.5625,10.547 2.5781,-10.547 h 4.0938 l 2.5781,10.438 2.5781,-10.438 h 4.75 L 20.85938,0 h -5.3438 L 12.93748,-10.531 10.35938,0 h -5.3438 z"
         id="path1151" />
    </symbol>
    <symbol
       id="h-9"
       overflow="visible">
      <path
         d="M 17.75,-9.3281 V 0 h -4.9219 v -7.1406 c 0,-1.3203 -0.03125,-2.2344 -0.09375,-2.7344 -0.0625,-0.5 -0.16797,-0.86719 -0.3125,-1.1094 -0.1875,-0.3125 -0.44922,-0.55469 -0.78125,-0.73438 -0.32422,-0.17578 -0.69531,-0.26562 -1.1094,-0.26562 -1.0234,0 -1.8242,0.39844 -2.4062,1.1875 -0.58594,0.78125 -0.875,1.8711 -0.875,3.2656 V -1e-4 H 2.3594 v -15.312 H 7.25 v 2.2344 c 0.73828,-0.88281 1.5195,-1.5391 2.3438,-1.9688 0.83203,-0.42578 1.75,-0.64062 2.75,-0.64062 1.7695,0 3.1133,0.54688 4.0312,1.6406 0.91406,1.0859 1.375,2.6562 1.375,4.7188 z"
         id="path1154" />
    </symbol>
    <symbol
       id="s-2"
       overflow="visible">
      <path
         d="m 12.422,-21.281 v 3.2188 H 9.7189 c -0.6875,0 -1.1719,0.125 -1.4531,0.375 -0.27344,0.25 -0.40625,0.6875 -0.40625,1.3125 v 1.0625 h 4.1875 v 3.5 H 7.85955 V -2e-4 h -4.8906 v -11.812 h -2.4375 v -3.5 h 2.4375 v -1.0625 c 0,-1.6641 0.46094,-2.8984 1.3906,-3.7031 0.92578,-0.80078 2.3672,-1.2031 4.3281,-1.2031 z"
         id="path1157" />
    </symbol>
    <symbol
       id="r-8"
       overflow="visible">
      <path
         d="m 16.547,-12.766 c 0.61328,-0.94531 1.3477,-1.6719 2.2031,-2.1719 0.85156,-0.5 1.7891,-0.75 2.8125,-0.75 1.7578,0 3.0977,0.54688 4.0156,1.6406 0.92578,1.0859 1.3906,2.6562 1.3906,4.7188 V -4e-4 h -4.9219 v -7.9844 -0.35938 c 0.0078,-0.13281 0.01563,-0.32031 0.01563,-0.5625 0,-1.082 -0.16406,-1.8633 -0.48438,-2.3438 -0.3125,-0.48828 -0.82422,-0.73438 -1.5312,-0.73438 -0.92969,0 -1.6484,0.38672 -2.1562,1.1562 -0.51172,0.76172 -0.77344,1.8672 -0.78125,3.3125 v 7.5156 h -4.9219 v -7.9844 c 0,-1.6953 -0.14844,-2.7852 -0.4375,-3.2656 -0.29297,-0.48828 -0.8125,-0.73438 -1.5625,-0.73438 -0.9375,0 -1.6641,0.38672 -2.1719,1.1562 -0.51172,0.76172 -0.76562,1.8594 -0.76562,3.2969 v 7.5312 h -4.9219 v -15.312 h 4.9219 v 2.2344 c 0.60156,-0.86328 1.2891,-1.5156 2.0625,-1.9531 0.78125,-0.4375 1.6406,-0.65625 2.5781,-0.65625 1.0625,0 2,0.25781 2.8125,0.76562 0.8125,0.51172 1.4258,1.2305 1.8438,2.1562 z"
         id="path1160" />
    </symbol>
    <symbol
       id="q-4"
       overflow="visible">
      <path
         d="m 2.5781,-20.406 h 5.875 l 7.4219,14 v -14 h 4.9844 V 0 h -5.875 L 7.5625,-14 V 0 H 2.5781 Z"
         id="path1163" />
    </symbol>
    <symbol
       id="p-1"
       overflow="visible">
      <path
         d="m 2.1875,-5.9688 v -9.3438 h 4.9219 v 1.5312 c 0,0.83594 -0.00781,1.875 -0.015625,3.125 -0.011719,1.25 -0.015625,2.0859 -0.015625,2.5 0,1.2422 0.03125,2.1328 0.09375,2.6719 0.070313,0.54297 0.17969,0.93359 0.32812,1.1719 0.20703,0.32422 0.47266,0.57422 0.79688,0.75 0.32031,0.16797 0.69141,0.25 1.1094,0.25 1.0195,0 1.8203,-0.39062 2.4062,-1.1719 0.58203,-0.78125 0.875,-1.8672 0.875,-3.2656 v -7.5625 h 4.8906 V -6e-4 H 12.6875 V -2.2194 C 11.94531,-1.32096 11.1641,-0.6608 10.3437,-0.235 9.51948,0.17906 8.6093,0.39 7.6093,0.39 5.8476,0.39 4.5038,-0.14906 3.5781,-1.235 2.64841,-2.317 2.1875,-3.8952 2.1875,-5.9694 Z"
         id="path1166" />
    </symbol>
    <symbol
       id="o-2"
       overflow="visible">
      <path
         d="m 2.5781,-20.406 h 8.7344 c 2.5938,0 4.582,0.57812 5.9688,1.7344 1.3945,1.1484 2.0938,2.7891 2.0938,4.9219 0,2.1367 -0.69922,3.7812 -2.0938,4.9375 -1.3867,1.1562 -3.375,1.7344 -5.9688,1.7344 H 7.8281 V 3e-4 h -5.25 z m 5.25,3.8125 v 5.7031 H 10.75 c 1.0195,0 1.8047,-0.25 2.3594,-0.75 0.5625,-0.5 0.84375,-1.2031 0.84375,-2.1094 0,-0.91406 -0.28125,-1.6172 -0.84375,-2.1094 -0.55469,-0.48828 -1.3398,-0.73438 -2.3594,-0.73438 z"
         id="path1169" />
    </symbol>
    <symbol
       id="n-4"
       overflow="visible">
      <path
         d="M 2.3594,-15.312 H 7.25 v 15.031 c 0,2.0508 -0.49609,3.6172 -1.4844,4.7031 -0.98047,1.082 -2.4062,1.625 -4.2812,1.625 H -0.9375 V 2.8283 h 0.85938 c 0.92578,0 1.5625,-0.21094 1.9062,-0.625 0.35156,-0.41797 0.53125,-1.2461 0.53125,-2.4844 z m 0,-5.9688 H 7.25 v 4 H 2.3594 Z"
         id="path1172" />
    </symbol>
    <symbol
       id="u-3"
       overflow="visible">
      <path
         d="m 18.766,-1.125 c -0.96875,0.5 -1.9805,0.875 -3.0312,1.125 -1.043,0.25781 -2.1367,0.39062 -3.2812,0.39062 -3.3984,0 -6.0898,-0.94531 -8.0781,-2.8438 -1.9922,-1.9062 -2.9844,-4.4844 -2.9844,-7.7344 0,-3.2578 0.99219,-5.8359 2.9844,-7.7344 1.9883,-1.9062 4.6797,-2.8594 8.0781,-2.8594 1.1445,0 2.2383,0.13281 3.2812,0.39062 1.0508,0.25 2.0625,0.625 3.0312,1.125 v 4.2188 c -0.98047,-0.65625 -1.9453,-1.1406 -2.8906,-1.4531 -0.94922,-0.3125 -1.9492,-0.46875 -3,-0.46875 -1.875,0 -3.3516,0.60547 -4.4219,1.8125 -1.0742,1.1992 -1.6094,2.8555 -1.6094,4.9688 0,2.1055 0.53516,3.7617 1.6094,4.9688 1.0703,1.1992 2.5469,1.7969 4.4219,1.7969 1.0508,0 2.0508,-0.14844 3,-0.45312 0.94531,-0.3125 1.9102,-0.80078 2.8906,-1.4688 z"
         id="path1359" />
    </symbol>
    <symbol
       id="d-3"
       overflow="visible">
      <path
         d="m 13.734,-11.141 c -0.4375,-0.19531 -0.87109,-0.34375 -1.2969,-0.4375 -0.41797,-0.10156 -0.83984,-0.15625 -1.2656,-0.15625 -1.2617,0 -2.2305,0.40625 -2.9062,1.2188 -0.67969,0.80469 -1.0156,1.9531 -1.0156,3.4531 v 7.0625 H 2.3591 v -15.312 h 4.8906 v 2.5156 c 0.625,-1 1.3438,-1.7266 2.1562,-2.1875 0.82031,-0.46875 1.8008,-0.70312 2.9375,-0.70312 0.16406,0 0.34375,0.01172 0.53125,0.03125 0.19531,0.01172 0.47656,0.03906 0.84375,0.07813 z"
         id="path1362" />
    </symbol>
    <symbol
       id="b-2"
       overflow="visible">
      <path
         d="m 17.641,-7.7031 v 1.4062 H 6.188 c 0.125,1.1484 0.53906,2.0078 1.25,2.5781 0.70703,0.57422 1.7031,0.85938 2.9844,0.85938 1.0312,0 2.082,-0.14844 3.1562,-0.45312 1.082,-0.3125 2.1914,-0.77344 3.3281,-1.3906 v 3.7656 c -1.1562,0.4375 -2.3125,0.76562 -3.4688,0.98438 -1.1562,0.22656 -2.3125,0.34375 -3.4688,0.34375 -2.7734,0 -4.9297,-0.70312 -6.4688,-2.1094 -1.5312,-1.4062 -2.2969,-3.3789 -2.2969,-5.9219 0,-2.5 0.75391,-4.4609 2.2656,-5.8906 1.5078,-1.4375 3.582,-2.1562 6.2188,-2.1562 2.4062,0 4.332,0.73047 5.7812,2.1875 1.4453,1.4492 2.1719,3.3828 2.1719,5.7969 z m -5.0312,-1.625 c 0,-0.92578 -0.27344,-1.6719 -0.8125,-2.2344 -0.54297,-0.57031 -1.25,-0.85938 -2.125,-0.85938 -0.94922,0 -1.7188,0.26562 -2.3125,0.79688 -0.5937,0.53126 -0.96484,1.2969 -1.1094,2.2969 z"
         id="path1365" />
    </symbol>
    <symbol
       id="f-3"
       overflow="visible">
      <path
         d="m 9.2188,-6.8906 c -1.0234,0 -1.793,0.17188 -2.3125,0.51562 -0.51172,0.34375 -0.76562,0.85547 -0.76562,1.5312 0,0.625 0.20703,1.1172 0.625,1.4688 0.41406,0.34375 0.98828,0.51562 1.7188,0.51562 0.92578,0 1.7031,-0.32812 2.3281,-0.98438 0.63281,-0.66406 0.95312,-1.4922 0.95312,-2.4844 v -0.5625 z m 7.4688,-1.8438 V 0 h -4.9219 v -2.2656 c -0.65625,0.92969 -1.3984,1.6055 -2.2188,2.0312 -0.82422,0.41406 -1.8242,0.625 -3,0.625 -1.5859,0 -2.8711,-0.45703 -3.8594,-1.375 -0.99219,-0.92578 -1.4844,-2.1289 -1.4844,-3.6094 0,-1.7891 0.61328,-3.1016 1.8438,-3.9375 1.2383,-0.84375 3.1797,-1.2656 5.8281,-1.2656 h 2.8906 v -0.39062 c 0,-0.76953 -0.30859,-1.332 -0.92188,-1.6875 -0.61719,-0.36328 -1.5703,-0.54688 -2.8594,-0.54688 -1.0547,0 -2.0312,0.10547 -2.9375,0.3125 -0.89844,0.21094 -1.7305,0.52344 -2.5,0.9375 v -3.7344 c 1.0391,-0.25 2.0859,-0.44141 3.1406,-0.57812 1.0625,-0.13281 2.125,-0.20312 3.1875,-0.20312 2.7578,0 4.75,0.54688 5.9688,1.6406 1.2266,1.0859 1.8438,2.8555 1.8438,5.3125 z"
         id="path1368" />
    </symbol>
    <symbol
       id="c-34"
       overflow="visible">
      <path
         d="m 7.7031,-19.656 v 4.3438 H 12.75 v 3.5 H 7.7031 v 6.5 c 0,0.71094 0.14062,1.1875 0.42188,1.4375 0.28126,0.25 0.83594,0.375 1.6719,0.375 h 2.5156 v 3.5 h -4.1875 c -1.9375,0 -3.3125,-0.39844 -4.125,-1.2031 -0.80469,-0.8125 -1.2031,-2.1797 -1.2031,-4.1094 v -6.5 h -2.4219 v -3.5 h 2.4219 v -4.3438 z"
         id="path1371" />
    </symbol>
    <symbol
       id="k-2"
       overflow="visible">
      <path
         d="m 12.766,-13.078 v -8.2031 h 4.9219 V -10e-5 H 12.766 v -2.2188 c -0.66797,0.90625 -1.4062,1.5703 -2.2188,1.9844 -0.8126,0.4141 -1.7578,0.625 -2.8281,0.625 -1.8867,0 -3.4336,-0.75 -4.6406,-2.25 -1.2109,-1.5 -1.8125,-3.4258 -1.8125,-5.7812 0,-2.3633 0.60156,-4.2969 1.8125,-5.7969 1.207,-1.5 2.7539,-2.25 4.6406,-2.25 1.0625,0 2,0.21484 2.8125,0.64062 0.82031,0.42969 1.5664,1.0859 2.2344,1.9688 z m -3.2188,9.9219 c 1.0391,0 1.8359,-0.37891 2.3906,-1.1406 0.55078,-0.76953 0.82812,-1.8828 0.82812,-3.3438 0,-1.457 -0.27734,-2.5664 -0.82812,-3.3281 -0.55469,-0.76953 -1.3516,-1.1562 -2.3906,-1.1562 -1.043,0 -1.8398,0.38672 -2.3906,1.1562 -0.55469,0.76172 -0.82812,1.8711 -0.82812,3.3281 0,1.4609 0.27344,2.5742 0.82812,3.3438 0.55078,0.76172 1.3477,1.1406 2.3906,1.1406 z"
         id="path1374" />
    </symbol>
    <symbol
       id="j-2"
       overflow="visible">
      <path
         d="m 10.5,-3.1562 c 1.0508,0 1.8516,-0.37891 2.4062,-1.1406 0.55078,-0.76953 0.82812,-1.8828 0.82812,-3.3438 0,-1.457 -0.27734,-2.5664 -0.82812,-3.3281 -0.55469,-0.76953 -1.3555,-1.1562 -2.4062,-1.1562 -1.0547,0 -1.8594,0.38672 -2.4219,1.1562 -0.55469,0.77344 -0.82812,1.8828 -0.82812,3.3281 0,1.4492 0.27344,2.5586 0.82812,3.3281 0.5625,0.77344 1.3672,1.1562 2.4219,1.1562 z m -3.25,-9.9219 c 0.67578,-0.88281 1.4219,-1.5391 2.2344,-1.9688 0.82031,-0.42578 1.7656,-0.64062 2.8281,-0.64062 1.8945,0 3.4453,0.75 4.6562,2.25 1.207,1.5 1.8125,3.4336 1.8125,5.7969 0,2.3555 -0.60547,4.2812 -1.8125,5.7812 -1.2109,1.5 -2.7617,2.25 -4.6562,2.25 -1.0625,0 -2.0078,-0.21094 -2.8281,-0.625 C 8.6719,-0.6602 7.9258,-1.32032 7.25,-2.21882 V -2e-5 H 2.3594 v -21.281 H 7.25 Z"
         id="path1377" />
    </symbol>
    <symbol
       id="e-8"
       overflow="visible">
      <path
         d="m 0.34375,-15.312 h 4.8906 l 4.125,10.391 3.5,-10.391 h 4.8906 l -6.4375,16.766 c -0.64844,1.6953 -1.4023,2.8828 -2.2656,3.5625 -0.86719,0.6875 -2,1.0312 -3.4062,1.0312 H 2.79685 V 2.8289 h 1.5312 c 0.83203,0 1.4375,-0.13672 1.8125,-0.40625 C 6.52336,2.16093 6.82024,1.69218 7.03117,1.01645 L 7.17179,0.59457 Z"
         id="path1380" />
    </symbol>
    <symbol
       id="i-5"
       overflow="visible">
      <path
         d="m 10.047,-11.359 c 1.1016,0 1.8945,-0.20312 2.375,-0.60938 0.47656,-0.41406 0.71875,-1.0938 0.71875,-2.0312 0,-0.92578 -0.24219,-1.5859 -0.71875,-1.9844 -0.48047,-0.40625 -1.2734,-0.60938 -2.375,-0.60938 H 7.8282 v 5.2344 z M 7.8282,-7.7184 V 4e-4 h -5.25 v -20.406 h 8.0312 c 2.6875,0 4.6562,0.45312 5.9062,1.3594 1.2578,0.89844 1.8906,2.3203 1.8906,4.2656 0,1.3555 -0.32812,2.4648 -0.98438,3.3281 -0.64844,0.86719 -1.625,1.5 -2.9375,1.9062 0.71875,0.16797 1.3594,0.54297 1.9219,1.125 0.57031,0.57422 1.1484,1.4492 1.7344,2.625 l 2.8594,5.7969 h -5.6094 l -2.4844,-5.0781 c -0.5,-1.0195 -1.0117,-1.7109 -1.5312,-2.0781 -0.51172,-0.375 -1.1953,-0.5625 -2.0469,-0.5625 z"
         id="path1383" />
    </symbol>
    <symbol
       id="a-9"
       overflow="visible">
      <path
         d="m 9.6406,-12.188 c -1.0859,0 -1.9141,0.39062 -2.4844,1.1719 -0.57422,0.78125 -0.85938,1.9062 -0.85938,3.375 0,1.4688 0.28516,2.5938 0.85938,3.375 0.57031,0.77344 1.3984,1.1562 2.4844,1.1562 1.0625,0 1.875,-0.38281 2.4375,-1.1562 0.57031,-0.78125 0.85938,-1.9062 0.85938,-3.375 0,-1.4688 -0.28906,-2.5938 -0.85938,-3.375 -0.5625,-0.78125 -1.375,-1.1719 -2.4375,-1.1719 z m 0,-3.5 c 2.6328,0 4.6914,0.71484 6.1719,2.1406 1.4766,1.418 2.2188,3.3867 2.2188,5.9062 0,2.5117 -0.74219,4.4805 -2.2188,5.9062 C 14.332,-0.317 12.2734,0.39 9.6406,0.39 6.9922,0.39 4.9258,-0.31703 3.4375,-1.735 1.9453,-3.1608 1.2031,-5.1295 1.2031,-7.6412 c 0,-2.5195 0.74219,-4.4883 2.2344,-5.9062 1.4883,-1.4258 3.5547,-2.1406 6.2031,-2.1406 z"
         id="path1386" />
    </symbol>
    <symbol
       id="t-2"
       overflow="visible">
      <path
         d="M 2.3594,-21.281 H 7.25 V 0 H 2.3594 Z"
         id="path1389" />
    </symbol>
    <symbol
       id="s-27"
       overflow="visible">
      <path
         d="m 2.5781,-20.406 h 5.25 V 0 h -5.25 z"
         id="path1392" />
    </symbol>
    <symbol
       id="h-8"
       overflow="visible">
      <path
         d="m 14.719,-14.828 v 3.9844 c -0.65625,-0.45703 -1.3242,-0.79688 -2,-1.0156 -0.66797,-0.21875 -1.3594,-0.32812 -2.0781,-0.32812 -1.3672,0 -2.4336,0.40234 -3.2031,1.2031 -0.76172,0.79297 -1.1406,1.9062 -1.1406,3.3438 0,1.4297 0.37891,2.543 1.1406,3.3438 0.76953,0.79297 1.8359,1.1875 3.2031,1.1875 0.75781,0 1.4844,-0.10938 2.1719,-0.32812 0.6875,-0.22656 1.3203,-0.56641 1.9062,-1.0156 v 4 c -0.76172,0.28125 -1.5391,0.48828 -2.3281,0.625 -0.78125,0.14453 -1.5742,0.21875 -2.375,0.21875 -2.7617,0 -4.9219,-0.70703 -6.4844,-2.125 -1.5547,-1.4141 -2.3281,-3.3828 -2.3281,-5.9062 0,-2.5312 0.77344,-4.5039 2.3281,-5.9219 1.5625,-1.4141 3.7227,-2.125 6.4844,-2.125 0.80078,0 1.5938,0.07422 2.375,0.21875 0.78125,0.13672 1.5547,0.35156 2.3281,0.64062 z"
         id="path1395" />
    </symbol>
    <symbol
       id="g-1"
       overflow="visible">
      <path
         d="M 17.75,-9.3281 V 0 h -4.9219 v -7.1406 c 0,-1.3203 -0.03125,-2.2344 -0.09375,-2.7344 -0.0625,-0.5 -0.16797,-0.86719 -0.3125,-1.1094 -0.1875,-0.3125 -0.44922,-0.55469 -0.78125,-0.73438 -0.32422,-0.17578 -0.69531,-0.26562 -1.1094,-0.26562 -1.0234,0 -1.8242,0.39844 -2.4062,1.1875 -0.58594,0.78125 -0.875,1.8711 -0.875,3.2656 V -1e-4 H 2.3594 v -15.312 H 7.25 v 2.2344 c 0.73828,-0.88281 1.5195,-1.5391 2.3438,-1.9688 0.83203,-0.42578 1.75,-0.64062 2.75,-0.64062 1.7695,0 3.1133,0.54688 4.0312,1.6406 0.91406,1.0859 1.375,2.6562 1.375,4.7188 z"
         id="path1398" />
    </symbol>
    <symbol
       id="r-1"
       overflow="visible">
      <path
         d="m 12.422,-21.281 v 3.2188 H 9.7189 c -0.6875,0 -1.1719,0.125 -1.4531,0.375 -0.27344,0.25 -0.40625,0.6875 -0.40625,1.3125 v 1.0625 h 4.1875 v 3.5 H 7.85955 V -2e-4 h -4.8906 v -11.812 h -2.4375 v -3.5 h 2.4375 v -1.0625 c 0,-1.6641 0.46094,-2.8984 1.3906,-3.7031 0.92578,-0.80078 2.3672,-1.2031 4.3281,-1.2031 z"
         id="path1401" />
    </symbol>
    <symbol
       id="q-2"
       overflow="visible">
      <path
         d="m 16.547,-12.766 c 0.61328,-0.94531 1.3477,-1.6719 2.2031,-2.1719 0.85156,-0.5 1.7891,-0.75 2.8125,-0.75 1.7578,0 3.0977,0.54688 4.0156,1.6406 0.92578,1.0859 1.3906,2.6562 1.3906,4.7188 V -4e-4 h -4.9219 v -7.9844 -0.35938 c 0.0078,-0.13281 0.01563,-0.32031 0.01563,-0.5625 0,-1.082 -0.16406,-1.8633 -0.48438,-2.3438 -0.3125,-0.48828 -0.82422,-0.73438 -1.5312,-0.73438 -0.92969,0 -1.6484,0.38672 -2.1562,1.1562 -0.51172,0.76172 -0.77344,1.8672 -0.78125,3.3125 v 7.5156 h -4.9219 v -7.9844 c 0,-1.6953 -0.14844,-2.7852 -0.4375,-3.2656 -0.29297,-0.48828 -0.8125,-0.73438 -1.5625,-0.73438 -0.9375,0 -1.6641,0.38672 -2.1719,1.1562 -0.51172,0.76172 -0.76562,1.8594 -0.76562,3.2969 v 7.5312 h -4.9219 v -15.312 h 4.9219 v 2.2344 c 0.60156,-0.86328 1.2891,-1.5156 2.0625,-1.9531 0.78125,-0.4375 1.6406,-0.65625 2.5781,-0.65625 1.0625,0 2,0.25781 2.8125,0.76562 0.8125,0.51172 1.4258,1.2305 1.8438,2.1562 z"
         id="path1404" />
    </symbol>
    <symbol
       id="p-9"
       overflow="visible">
      <path
         d="M 17.75,-9.3281 V 0 h -4.9219 v -7.1094 c 0,-1.3438 -0.03125,-2.2656 -0.09375,-2.7656 -0.0625,-0.5 -0.16797,-0.86719 -0.3125,-1.1094 -0.1875,-0.3125 -0.44922,-0.55469 -0.78125,-0.73438 -0.32422,-0.17578 -0.69531,-0.26562 -1.1094,-0.26562 -1.0234,0 -1.8242,0.39844 -2.4062,1.1875 -0.58594,0.78125 -0.875,1.8711 -0.875,3.2656 V -1e-4 H 2.3594 v -21.281 H 7.25 v 8.2031 c 0.73828,-0.88281 1.5195,-1.5391 2.3438,-1.9688 0.83203,-0.42578 1.75,-0.64062 2.75,-0.64062 1.7695,0 3.1133,0.54688 4.0312,1.6406 0.91406,1.0859 1.375,2.6562 1.375,4.7188 z"
         id="path1407" />
    </symbol>
    <symbol
       id="o-6"
       overflow="visible">
      <path
         d="m 2.5781,-20.406 h 5.875 l 7.4219,14 v -14 h 4.9844 V 0 h -5.875 L 7.5625,-14 V 0 H 2.5781 Z"
         id="path1410" />
    </symbol>
    <symbol
       id="n-0"
       overflow="visible">
      <path
         d="m 2.1875,-5.9688 v -9.3438 h 4.9219 v 1.5312 c 0,0.83594 -0.00781,1.875 -0.015625,3.125 -0.011719,1.25 -0.015625,2.0859 -0.015625,2.5 0,1.2422 0.03125,2.1328 0.09375,2.6719 0.070313,0.54297 0.17969,0.93359 0.32812,1.1719 0.20703,0.32422 0.47266,0.57422 0.79688,0.75 0.32031,0.16797 0.69141,0.25 1.1094,0.25 1.0195,0 1.8203,-0.39062 2.4062,-1.1719 0.58203,-0.78125 0.875,-1.8672 0.875,-3.2656 v -7.5625 h 4.8906 V -6e-4 H 12.6875 V -2.2194 C 11.94531,-1.32096 11.1641,-0.6608 10.3437,-0.235 9.51948,0.17906 8.6093,0.39 7.6093,0.39 5.8476,0.39 4.5038,-0.14906 3.5781,-1.235 2.64841,-2.317 2.1875,-3.8952 2.1875,-5.9694 Z"
         id="path1413" />
    </symbol>
    <symbol
       id="m-1"
       overflow="visible">
      <path
         d="m 2.5781,-20.406 h 8.7344 c 2.5938,0 4.582,0.57812 5.9688,1.7344 1.3945,1.1484 2.0938,2.7891 2.0938,4.9219 0,2.1367 -0.69922,3.7812 -2.0938,4.9375 -1.3867,1.1562 -3.375,1.7344 -5.9688,1.7344 H 7.8281 V 3e-4 h -5.25 z m 5.25,3.8125 v 5.7031 H 10.75 c 1.0195,0 1.8047,-0.25 2.3594,-0.75 0.5625,-0.5 0.84375,-1.2031 0.84375,-2.1094 0,-0.91406 -0.28125,-1.6172 -0.84375,-2.1094 -0.55469,-0.48828 -1.3398,-0.73438 -2.3594,-0.73438 z"
         id="path1416" />
    </symbol>
    <symbol
       id="l-8"
       overflow="visible">
      <path
         d="M 2.3594,-15.312 H 7.25 v 15.031 c 0,2.0508 -0.49609,3.6172 -1.4844,4.7031 -0.98047,1.082 -2.4062,1.625 -4.2812,1.625 H -0.9375 V 2.8283 h 0.85938 c 0.92578,0 1.5625,-0.21094 1.9062,-0.625 0.35156,-0.41797 0.53125,-1.2461 0.53125,-2.4844 z m 0,-5.9688 H 7.25 v 4 H 2.3594 Z"
         id="path1419" />
    </symbol>
  </defs>
  <g
     id="g129"
     transform="translate(-198.8,-7.465094)">
    <path
       d="m 198.8,458.95 h 302.4 v 6.0234 c 0,20.871 -16.969,37.844 -37.844,37.844 h -226.71 c -20.871,0 -37.844,-16.969 -37.844,-37.844 z"
       id="path61" />
    <path
       d="m 324.01,388.24 c 0.0273,33.891 51.961,34.223 51.961,-0.19922 -0.25,-5.6016 -9.2227,-23.871 -25.992,-48.625 -16.746,24.723 -25.711,42.984 -25.969,48.824 z"
       id="path63" />
    <path
       d="m 290.06,353.99 c 0,18.234 8.0742,35.699 23.891,47.629 -1.6641,-4.3125 -2.6602,-8.9023 -2.6602,-13.652 0.67969,-15.723 25.801,-52.504 33.484,-63.41 2.3867,-3.3789 8.0195,-3.3789 10.406,0 7.6875,10.918 32.836,47.738 33.508,63.211 0.004,4.832 -0.98438,9.4727 -2.6289,13.816 15.633,-11.836 23.809,-29.27 23.809,-47.594 0,-25.836 -39.531,-80.09 -59.906,-105.3 -20.371,25.219 -59.902,79.48 -59.902,105.3 z"
       id="path65" />
    <path
       d="m 198.8,212.71 v 233.5 H 501.2 V 212.71 Z M 349.96,426.7 c -39.582,0 -72.625,-32.184 -72.625,-72.715 0,-38.449 64.988,-116.12 67.754,-119.41 2.418,-2.875 7.3242,-2.875 9.7461,0 2.7656,3.2852 67.762,80.953 67.762,119.41 -0.004,40.129 -32.551,72.715 -72.637,72.715 z"
       id="path67" />
    <path
       d="m 481.18,546.17 c 0,3.5625 -2.8867,6.3633 -6.3633,6.3633 h -0.16797 -242.16 c -2.293,0 -4.4141,-1.1875 -5.6016,-3.2227 -1.1016,-1.9531 -1.1016,-4.4102 0.0859,-6.3633 l 16.461,-27.406 h 220.18 l 15.777,26.305 c 1.1016,1.1016 1.7812,2.6289 1.7812,4.3242 z"
       id="path69" />
    <path
       d="M 452.16,112.34 V 43.274 c 0,-19.77 -16.121,-35.805 -35.891,-35.805 L 283.739,7.46509 c -19.77,0 -35.805,16.035 -35.805,35.805 v 69.066 c -28.934,7.8047 -49.129,20.109 -49.129,38.352 v 49.297 h 302.4 v -49.297 c 0,-18.238 -20.191,-30.543 -49.043,-38.348 z m -12.727,-3.0547 c -16.121,-3.3945 -34.195,-5.6016 -51.93,-6.7891 l 0.004,-42.594 h 11.711 c 3.4805,0 6.3633,-2.8828 6.3633,-6.3633 0,-3.5625 -2.8828,-6.3633 -6.3633,-6.3633 h -98.426 c -3.4805,0 -6.3633,2.8008 -6.3633,6.3633 0,3.4805 2.8867,6.3633 6.3633,6.3633 h 11.711 v 42.594 c -17.82,1.1875 -35.891,3.3945 -51.844,6.7891 v -66.012 c 0,-12.727 10.352,-23.078 23.078,-23.078 h 132.54 c 12.727,0 23.164,10.352 23.164,23.078 z"
       id="path71" />
    <g
       id="g1263"
       transform="translate(-976.07512,-632.50163)">
      <path
         d="m 2201.0819,963.4958 -41.955,-57.33853 -62.0935,-33.56352 -53.7024,27.69081 -60.6949,24.89332 -50.0664,83.07092 17.9009,42.515 2.2378,37.4793 35.2417,21.2567 43.6328,1.6779 49.2282,27.6908 82.5115,-24.6141 19.8597,-40.2773 -19.2998,-37.7606 z m -52.5836,-51.18513 35.8016,47.26983 -44.1926,-7.55241 -27.9701,-23.21511 -7.2717,-39.43622 z m -113.5583,76.07845 9.5093,-48.66833 8.9514,52.02423 z m 55.94,-99.01386 1.9589,17.34091 -38.8783,2.23785 z m 77.7567,181.52544 -62.0935,5.3148 -46.9886,-76.0785 51.4648,46.9887 38.3185,-8.6703 z"
         id="path1177"
         style="stroke-width:0.499465" />
      <path
         d="m 1908.827,710.58121 -69.1665,-16.24551 -68.991,14.91184 -22.7649,55.96863 -29.8951,58.39374 21.6656,67.47046 32.799,19.69925 14.8094,30.76402 50.9282,3.54855 45.5014,-6.44343 55.4001,-34.49095 39.1275,-54.52388 -11.1243,-43.5077 -39.2243,-16.11822 z m -73.2343,-4.65737 57.9427,12.60296 -27.1983,31.47411 -41.0428,2.44788 -37.7577,-35.55207 z m -47.0724,151.38952 -25.3833,-59.11871 51.9213,29.92456 z m -11.6052,-131.31841 12.7701,11.89409 -28.068,26.99476 z m 177.1539,87.25885 -43.6956,44.4359 -85.1818,-27.20155 62.1375,-7.19745 30.9746,-22.11936 z"
         id="path1744"
         style="stroke-width:0.499465"
         sodipodi:nodetypes="ccccccccccccccccccccccccccccccccccc" />
      <path
         d="m 1863.6987,1035.7369 -16.6475,-35.2898 -29.9839,-24.5687 -31.8428,9.3349 -35.3216,7.0978 -21.6074,32.3684 2.7366,20.8331 -8.1674,16.8788 15.8751,23.1098 18.3171,17.3624 33.7587,12.0355 36.8122,-1.806 14.9059,-19.6485 -6.4717,-22.3722 z m -28.0028,-31.4184 14.3787,29.2194 -17.8427,-2.6014 -39.0355,-35.95489 21.8318,-6.04957 z m -8.9897,84.9549 -31.3682,-2.1386 -31.0328,-9.2749 -3.7273,-27.3393 27.5829,2.7379 31.5204,16.5088 z"
         id="path2491"
         style="stroke-width:0.274302"
         sodipodi:nodetypes="cccccccccccccccccccccccccccc" />
    </g>
    <g
       id="g1498"
       transform="translate(332.07725,599.14047)">
      <path
         d="m 239.64,55.484 c -28.578,0 -54.414,6.4805 -73.5,17.148 -19.086,10.668 -31.852,26.062 -31.852,43.926 v 9.4492 c -0.0273,0.28906 -0.0273,0.58594 0,0.875 v 63.348 c -0.0273,0.28906 -0.0273,0.58594 0,0.875 v 63.348 c -0.0156,0.23438 -0.0156,0.46875 0,0.69922 v 64.227 c 0,17.859 12.762,33.258 31.852,43.926 18.012,10.066 42.105,16.293 68.773,16.977 v 63.348 c 0,17.859 12.59,33.258 31.676,43.926 19.086,10.668 45.098,16.977 73.672,16.977 28.578,0 54.414,-6.3047 73.5,-16.977 19.086,-10.668 31.852,-26.062 31.852,-43.926 v -15.75 c 4.832,0.38672 9.6758,0.69922 14.699,0.69922 28.578,0 54.414,-6.4805 73.5,-17.148 19.086,-10.668 31.852,-26.062 31.852,-43.926 v -192.5 c 0.0703,-0.46484 0.0703,-0.9375 0,-1.3984 v -8.9258 c 0,-17.859 -12.762,-33.258 -31.852,-43.926 -19.086,-10.668 -44.922,-17.148 -73.5,-17.148 -28.578,0 -54.414,6.4805 -73.5,17.148 -19.086,10.668 -31.852,26.062 -31.852,43.926 v 9.4492 c -0.0273,0.28906 -0.0273,0.58594 0,0.875 v 5.4258 c -3.2891,-0.25781 -6.5938,-0.44141 -9.9766,-0.52344 v -53.023 c 0.0703,-0.46484 0.0703,-0.9375 0,-1.3984 v -8.9258 c 0,-17.859 -12.762,-33.258 -31.852,-43.926 -19.086,-10.668 -44.922,-17.148 -73.5,-17.148 z m 0,9.625 c 27.152,0 51.672,6.0898 68.945,15.75 17.277,9.6602 26.949,22.41 26.949,35.699 v 9.1016 c -0.0508,0.40625 -0.0508,0.82031 0,1.2266 0,13.289 -9.6719,25.867 -26.949,35.523 -17.277,9.6602 -41.801,15.926 -68.945,15.926 -27.152,0 -51.496,-6.2656 -68.773,-15.926 -17.277,-9.6604 -27.125,-22.234 -27.125,-35.523 0.0273,-0.28906 0.0273,-0.58594 0,-0.875 v -9.4492 c 0,-13.289 9.8477,-26.043 27.125,-35.699 17.277,-9.6602 41.625,-15.75 68.773,-15.75 z m 46.551,39.199 c -7.0039,0 -13.359,1.1562 -18.375,3.1484 -2.5078,0.99609 -4.6602,2.1367 -6.4766,3.8516 -1.8164,1.7109 -3.3242,4.2773 -3.3242,7.1758 v 0.17578 c 0,2.8984 1.5078,5.4648 3.3242,7.1758 1.8164,1.7109 3.9688,2.8555 6.4766,3.8516 5.0156,1.9922 11.371,3.1484 18.375,3.1484 7.0039,0 13.359,-1.1562 18.375,-3.1484 2.5078,-0.99609 4.6602,-2.1367 6.4766,-3.8516 1.8164,-1.7109 3.3242,-4.2773 3.3242,-7.1758 v -0.17578 c 0,-2.8984 -1.5078,-5.4648 -3.3242,-7.1758 -1.8164,-1.7109 -3.9688,-2.8555 -6.4766,-3.8516 -5.0156,-1.9922 -11.371,-3.1484 -18.375,-3.1484 z m 174.12,8.9258 c 27.152,0 51.672,6.0898 68.945,15.75 17.277,9.6602 26.949,22.41 26.949,35.699 v 9.1016 c -0.0508,0.40625 -0.0508,0.82031 0,1.2266 0,13.289 -9.6719,25.867 -26.949,35.523 -17.277,9.6602 -41.801,15.926 -68.945,15.926 -6.1797,0 -12.188,-0.25781 -18.023,-0.875 -4.9258,-11.449 -15.098,-21.371 -28.523,-28.875 -13.312,-7.4414 -29.957,-12.688 -48.477,-15.227 -0.52344,-2.1445 -0.875,-4.2812 -0.875,-6.4766 0.0273,-0.28906 0.0273,-0.58594 0,-0.875 v -9.4492 c 0,-13.289 9.8477,-26.043 27.125,-35.699 17.277,-9.6602 41.625,-15.75 68.773,-15.75 z m -174.12,0.69922 c 5.9883,0 11.41,0.89844 14.875,2.2734 1.7305,0.6875 2.9492,1.5781 3.5,2.1016 0.16797,0.16016 0.12109,0.28516 0.17578,0.35156 -0.0586,0.0664 -0.0391,0.043 -0.17578,0.17578 -0.55078,0.51953 -1.7695,1.4102 -3.5,2.1016 -3.4648,1.375 -8.8867,2.2734 -14.875,2.2734 -5.9883,0 -11.41,-0.89844 -14.875,-2.2734 -1.7305,-0.6875 -2.9492,-1.5781 -3.5,-2.1016 -0.13672,-0.12891 -0.11719,-0.10938 -0.17578,-0.17578 0.0547,-0.0625 0.004,-0.19141 0.17578,-0.35156 0.55078,-0.51953 1.7695,-1.4102 3.5,-2.1016 3.4648,-1.375 8.8867,-2.2734 14.875,-2.2734 z m -142.45,38.5 c 5.5352,7.0547 13.234,13.25 22.398,18.375 19.086,10.668 44.922,16.977 73.5,16.977 28.578,0 54.414,-6.3047 73.5,-16.977 9.168,-5.125 16.863,-11.32 22.398,-18.375 v 27.477 c -26.715,0.65234 -50.918,6.7227 -68.945,16.801 -19.086,10.668 -31.676,26.238 -31.676,44.102 v 1.5742 c -25.219,-0.6875 -47.793,-6.6641 -64.055,-15.75 -17.277,-9.6602 -27.125,-22.234 -27.125,-35.523 0.0273,-0.28906 0.0273,-0.58594 0,-0.875 v -37.801 z m 363.12,0 c -7.0039,0 -13.359,1.1562 -18.375,3.1484 -2.5078,0.99609 -4.6602,2.1367 -6.4766,3.8516 -1.8164,1.7109 -3.3242,4.2773 -3.3242,7.1758 v 0.17578 c 0,2.8984 1.5078,5.4648 3.3242,7.1758 1.8164,1.7109 3.9688,2.8555 6.4766,3.8516 5.0156,1.9922 11.371,3.1484 18.375,3.1484 7.0039,0 13.359,-1.1562 18.375,-3.1484 2.5078,-0.99609 4.6602,-2.1367 6.4766,-3.8516 1.8164,-1.7109 3.3242,-4.2773 3.3242,-7.1758 v -0.17578 c 0,-2.8984 -1.5078,-5.4648 -3.3242,-7.1758 -1.8164,-1.7109 -3.9688,-2.8555 -6.4766,-3.8516 -5.0156,-1.9922 -11.371,-3.1484 -18.375,-3.1484 z m 0,9.625 c 5.9883,0 11.41,0.89844 14.875,2.2734 1.7305,0.6875 2.9492,1.5781 3.5,2.1016 0.16797,0.16016 0.12109,0.28516 0.17578,0.35156 -0.0586,0.0664 -0.0391,0.043 -0.17578,0.17578 -0.55078,0.51953 -1.7695,1.4102 -3.5,2.1016 -3.4648,1.375 -8.8867,2.2734 -14.875,2.2734 -5.9883,0 -11.41,-0.89844 -14.875,-2.2734 -1.7305,-0.6875 -2.9492,-1.5781 -3.5,-2.1016 -0.13672,-0.12891 -0.11719,-0.10938 -0.17578,-0.17578 0.0547,-0.0625 0.004,-0.19141 0.17578,-0.35156 0.55078,-0.51953 1.7695,-1.4102 3.5,-2.1016 3.4648,-1.375 8.8867,-2.2734 14.875,-2.2734 z m -166.6,27.125 c 27.152,0 51.496,6.2656 68.773,15.926 17.277,9.6602 26.949,22.41 26.949,35.699 v 9.625 l 0.004,0.004 c -0.008,0.17578 -0.008,0.34766 0,0.52344 0,13.289 -9.6719,26.043 -26.949,35.699 -17.277,9.6602 -41.625,15.926 -68.773,15.926 -27.152,0 -51.672,-6.2656 -68.945,-15.926 -17.277,-9.6562 -26.949,-22.41 -26.949,-35.699 h -0.004 c 0.0273,-0.28906 0.0273,-0.58203 0,-0.875 v -9.2734 c 0,-13.289 9.6719,-26.043 26.949,-35.699 17.277,-9.6602 41.801,-15.926 68.945,-15.926 z m 215.95,11.375 v 38.676 c 0,13.289 -9.6719,25.867 -26.949,35.523 -17.277,9.6562 -41.801,15.926 -68.945,15.926 -5.0312,0 -9.8906,-0.28516 -14.699,-0.69922 v -39.023 h 0.004 c 0.004,-0.11719 0.004,-0.23438 0,-0.35156 v -9.8008 c 0,-1.8789 -0.0742,-3.7773 -0.35156,-5.6016 4.9453,0.39844 9.9023,0.69922 15.051,0.69922 28.578,0 54.414,-6.3047 73.5,-16.977 9.168,-5.125 16.863,-11.32 22.398,-18.375 z m -412.47,16.102 c 5.5352,7.0547 13.234,13.25 22.398,18.375 18.012,10.066 42.105,16.137 68.773,16.801 v 54.773 c -25.219,-0.6875 -47.793,-6.6641 -64.055,-15.75 -17.277,-9.6602 -27.125,-22.41 -27.125,-35.699 0.0273,-0.28906 0.0273,-0.58594 0,-0.875 v -37.625 z m 242.9,11.898 c -7.0039,0 -13.359,0.98047 -18.375,2.9766 -2.5078,0.99609 -4.6602,2.3125 -6.4766,4.0234 -1.8164,1.7109 -3.3242,4.1016 -3.3242,7 v 0.35156 c 0,2.8984 1.5078,5.2891 3.3242,7 1.8164,1.7109 3.9688,3.0273 6.4766,4.0234 5.0156,1.9922 11.371,2.9766 18.375,2.9766 7.0039,0 13.359,-0.98047 18.375,-2.9766 2.5078,-0.99609 4.6602,-2.3125 6.4766,-4.0234 1.8164,-1.7109 3.3242,-4.1016 3.3242,-7 v -0.35156 c 0,-2.8984 -1.5078,-5.2891 -3.3242,-7 -1.8164,-1.7109 -3.9688,-3.0273 -6.4766,-4.0234 -5.0156,-1.9922 -11.371,-2.9766 -18.375,-2.9766 z m 0,9.4492 c 5.9883,0 11.41,1.0742 14.875,2.4492 1.7305,0.6875 2.9492,1.4062 3.5,1.9258 0.21094,0.19922 0.30469,0.29688 0.35156,0.35156 -0.0156,0.0156 -0.0742,0.0898 -0.35156,0.35156 -0.55078,0.51953 -1.7695,1.2383 -3.5,1.9258 -3.4648,1.375 -8.8867,2.4492 -14.875,2.4492 -5.9883,0 -11.41,-1.0742 -14.875,-2.4492 -1.7305,-0.6875 -2.9492,-1.4062 -3.5,-1.9258 -0.20703,-0.19531 -0.30469,-0.12109 -0.35156,-0.17578 -0.0117,0.0117 -0.0117,-0.13672 0,-0.17578 0.043,-0.0508 0.13672,-0.14844 0.35156,-0.35156 0.55078,-0.51953 1.7695,-1.2383 3.5,-1.9258 3.4648,-1.375 8.8867,-2.4492 14.875,-2.4492 z m 169.57,26.773 v 38.5 c 0,13.289 -9.6719,26.043 -26.949,35.699 -17.277,9.6602 -41.801,15.926 -68.945,15.926 -5.0312,0 -9.8906,-0.28516 -14.699,-0.69922 v -54.773 c 4.832,0.37891 9.6758,0.69922 14.699,0.69922 28.578,0 54.414,-6.3047 73.5,-16.977 9.168,-5.125 16.863,-11.32 22.398,-18.375 z m -311.85,11.898 c 5.4961,7.0938 13.059,13.25 22.227,18.375 19.086,10.668 45.098,16.977 73.672,16.977 28.578,0 54.414,-6.3047 73.5,-16.977 9.082,-5.0781 16.699,-11.184 22.227,-18.199 v 37.801 l 0.004,0.004 c -0.004,0.11719 -0.004,0.23438 0,0.34766 v 0.17188 c 0,13.289 -9.6719,26.043 -26.949,35.699 -17.277,9.6562 -41.625,15.75 -68.773,15.75 -27.152,0 -51.672,-6.0938 -68.945,-15.75 -17.277,-9.6602 -26.949,-22.41 -26.949,-35.699 l -0.004,0.004 c 0.0273,-0.29297 0.0273,-0.58594 0,-0.875 v -37.625 z m -100.62,4.1992 c 5.5352,7.0938 13.234,13.25 22.398,18.375 18.012,10.066 42.105,16.137 68.773,16.801 v 54.602 c -25.219,-0.67188 -47.793,-6.4883 -64.055,-15.574 -17.277,-9.6562 -27.125,-22.41 -27.125,-35.699 v -38.5 z m 412.47,48.125 v 38.5 c 0,13.289 -9.6719,26.043 -26.949,35.699 -17.277,9.6602 -41.801,15.75 -68.945,15.75 -5.0312,0 -9.8906,-0.29688 -14.699,-0.69922 v -54.598 c 4.832,0.37891 9.6758,0.69922 14.699,0.69922 28.578,0 54.414,-6.3047 73.5,-16.977 9.168,-5.125 16.863,-11.281 22.398,-18.375 z m -311.85,11.727 c 5.4961,7.0547 13.059,13.25 22.227,18.375 19.086,10.668 45.098,17.148 73.672,17.148 28.578,0 54.414,-6.4805 73.5,-17.148 9.082,-5.0781 16.699,-11.227 22.227,-18.199 v 37.977 l 0.004,0.004 c -0.004,0.11328 -0.004,0.23047 0,0.34766 v 0.17188 c 0,13.289 -9.6719,26.043 -26.949,35.699 -17.277,9.6602 -41.625,15.75 -68.773,15.75 -27.152,0 -51.672,-6.0898 -68.945,-15.75 -17.277,-9.6562 -26.949,-22.41 -26.949,-35.699 h -0.004 c 0.0273,-0.28906 0.0273,-0.58203 0,-0.875 v -37.801 z m 0,64.227 c 5.4961,7.0547 13.059,13.25 22.227,18.375 19.086,10.668 45.098,17.148 73.672,17.148 28.578,0 54.414,-6.4805 73.5,-17.148 9.082,-5.0781 16.699,-11.227 22.227,-18.199 v 38.5 c 0,13.289 -9.6719,25.867 -26.949,35.523 -17.277,9.6602 -41.625,15.926 -68.773,15.926 -27.152,0 -51.672,-6.2656 -68.945,-15.926 -17.277,-9.6602 -26.949,-22.234 -26.949,-35.523 v -38.676 z"
         id="path1424" />
    </g>
  </g>
</svg>
