<?xml version="1.0" encoding="UTF-8" standalone="no"?>
<svg
   width="314.9996pt"
   height="524.99597pt"
   version="1.1"
   viewBox="0 0 314.9996 524.99597"
   id="svg109"
   sodipodi:docname="noun-nuclear-3088639.svg"
   inkscape:version="1.1.2 (b8e25be833, 2022-02-05)"
   xmlns:inkscape="http://www.inkscape.org/namespaces/inkscape"
   xmlns:sodipodi="http://sodipodi.sourceforge.net/DTD/sodipodi-0.dtd"
   xmlns="http://www.w3.org/2000/svg"
   xmlns:svg="http://www.w3.org/2000/svg">
  <sodipodi:namedview
     id="namedview111"
     pagecolor="#ffffff"
     bordercolor="#666666"
     borderopacity="1.0"
     inkscape:pageshadow="2"
     inkscape:pageopacity="0.0"
     inkscape:pagecheckerboard="0"
     inkscape:document-units="pt"
     showgrid="false"
     inkscape:zoom="0.79821429"
     inkscape:cx="198.56823"
     inkscape:cy="454.7651"
     inkscape:window-width="1920"
     inkscape:window-height="1217"
     inkscape:window-x="-8"
     inkscape:window-y="-8"
     inkscape:window-maximized="1"
     inkscape:current-layer="g107" />
  <defs
     id="defs41">
    <symbol
       id="m"
       overflow="visible">
      <path
         d="m 29.312,-1.75 c -1.5117,0.78125 -3.0898,1.3711 -4.7344,1.7656 -1.6367,0.40625 -3.3398,0.60938 -5.1094,0.60938 -5.3125,0 -9.5273,-1.4844 -12.641,-4.4531 -3.1055,-2.9688 -4.6562,-7 -4.6562,-12.094 0,-5.094 1.5508,-9.125 4.6562,-12.094 3.1133,-2.9688 7.3281,-4.4531 12.641,-4.4531 1.7695,0 3.4727,0.19922 5.1094,0.59375 1.6445,0.39844 3.2227,0.99219 4.7344,1.7812 v 6.5938 c -1.5312,-1.0391 -3.0391,-1.8008 -4.5156,-2.2812 -1.4805,-0.48828 -3.0391,-0.73438 -4.6719,-0.73438 -2.9375,0 -5.2461,0.94531 -6.9219,2.8281 -1.6797,1.875 -2.5156,4.4648 -2.5156,7.7656 0,3.293 0.83594,5.8828 2.5156,7.7656 1.6758,1.875 3.9844,2.8125 6.9219,2.8125 1.6328,0 3.1914,-0.23828 4.6719,-0.71875 1.4766,-0.48828 2.9844,-1.2539 4.5156,-2.2969 z"
         id="path2" />
    </symbol>
    <symbol
       id="h"
       overflow="visible">
      <path
         d="m 21.453,-17.406 c -0.67969,-0.3125 -1.3516,-0.53906 -2.0156,-0.6875 -0.65625,-0.15625 -1.3203,-0.23438 -1.9844,-0.23438 -1.9688,0 -3.4844,0.63281 -4.5469,1.8906 -1.0547,1.2617 -1.5781,3.0703 -1.5781,5.4219 V 6.2e-4 H 3.6718 v -23.922 h 7.6562 v 3.9219 c 0.97656,-1.5625 2.1016,-2.7031 3.375,-3.4219 1.2812,-0.71875 2.8125,-1.0781 4.5938,-1.0781 0.25,0 0.52344,0.01172 0.82812,0.03125 0.30078,0.02344 0.73438,0.07031 1.2969,0.14062 z"
         id="path5" />
    </symbol>
    <symbol
       id="c"
       overflow="visible">
      <path
         d="m 27.562,-12.031 v 2.1875 H 9.671 c 0.1875,1.793 0.83203,3.1367 1.9375,4.0312 1.1133,0.89844 2.6719,1.3438 4.6719,1.3438 1.6016,0 3.25,-0.23438 4.9375,-0.70312 1.6875,-0.47656 3.4219,-1.2031 5.2031,-2.1719 v 5.8906 c -1.8047,0.6875 -3.6094,1.2031 -5.4219,1.5469 -1.8125,0.35156 -3.6211,0.53125 -5.4219,0.53125 -4.3359,0 -7.7031,-1.0977 -10.109,-3.2969 -2.3984,-2.207 -3.5938,-5.2969 -3.5938,-9.2656 0,-3.9062 1.1758,-6.9727 3.5312,-9.2031 2.3633,-2.2383 5.6094,-3.3594 9.7344,-3.3594 3.7578,0 6.7695,1.1367 9.0312,3.4062 2.2578,2.2617 3.3906,5.2812 3.3906,9.0625 z m -7.8594,-2.5312 c 0,-1.457 -0.42969,-2.6289 -1.2812,-3.5156 -0.84375,-0.89453 -1.9492,-1.3438 -3.3125,-1.3438 -1.4922,0 -2.6992,0.41797 -3.625,1.25 -0.91797,0.83594 -1.4922,2.0391 -1.7188,3.6094 z"
         id="path8" />
    </symbol>
    <symbol
       id="b"
       overflow="visible">
      <path
         d="m 14.391,-10.766 c -1.5938,0 -2.793,0.27344 -3.5938,0.8125 -0.80469,0.54297 -1.2031,1.3398 -1.2031,2.3906 0,0.96875 0.32031,1.7305 0.96875,2.2812 0.64453,0.54297 1.5469,0.8125 2.7031,0.8125 1.4375,0 2.6445,-0.51562 3.625,-1.5469 0.98828,-1.0312 1.4844,-2.3203 1.4844,-3.875 v -0.875 z m 11.688,-2.8906 V -6e-4 h -7.7031 v -3.5469 c -1.0312,1.4492 -2.1875,2.5078 -3.4688,3.1719 -1.2813,0.6641 -2.8398,1 -4.6719,1 -2.4805,0 -4.4961,-0.72266 -6.0469,-2.1719 -1.543,-1.4453 -2.3125,-3.3203 -2.3125,-5.625 0,-2.8125 0.96094,-4.8672 2.8906,-6.1719 1.9375,-1.3125 4.9688,-1.9688 9.0938,-1.9688 h 4.5156 v -0.60938 c 0,-1.207 -0.48047,-2.0938 -1.4375,-2.6562 -0.94922,-0.5625 -2.4375,-0.84375 -4.4688,-0.84375 -1.6367,0 -3.1562,0.16797 -4.5625,0.5 -1.4062,0.32422 -2.7188,0.8125 -3.9375,1.4688 v -5.8281 c 1.6445,-0.40625 3.2891,-0.70703 4.9375,-0.90625 1.6562,-0.20703 3.3047,-0.3125 4.9531,-0.3125 4.3203,0 7.4375,0.85547 9.3438,2.5625 1.9141,1.6992 2.875,4.4609 2.875,8.2812 z"
         id="path11" />
    </symbol>
    <symbol
       id="g"
       overflow="visible">
      <path
         d="m 12.031,-30.719 v 6.7969 h 7.875 v 5.4688 h -7.875 v 10.141 c 0,1.1172 0.21875,1.8711 0.65625,2.2656 0.4375,0.38672 1.3125,0.57812 2.625,0.57812 h 3.9375 v 5.4688 h -6.5625 c -3.0234,0 -5.1641,-0.62891 -6.4219,-1.8906 -1.2617,-1.2578 -1.8906,-3.3984 -1.8906,-6.4219 v -10.141 h -3.7969 v -5.4688 h 3.7969 v -6.7969 z"
         id="path14" />
    </symbol>
    <symbol
       id="f"
       overflow="visible">
      <path
         d="m 19.953,-20.422 v -12.812 h 7.6875 V 0 H 19.953 v -3.4531 c -1.0547,1.4062 -2.2148,2.4375 -3.4844,3.0938 -1.2734,0.65625 -2.7422,0.98438 -4.4062,0.98438 -2.9492,0 -5.3711,-1.1719 -7.2656,-3.5156 -1.8867,-2.3438 -2.8281,-5.3594 -2.8281,-9.0469 0,-3.6875 0.94141,-6.7031 2.8281,-9.0469 1.8945,-2.3438 4.3164,-3.5156 7.2656,-3.5156 1.6562,0 3.1172,0.33594 4.3906,1 1.2812,0.65625 2.4453,1.6836 3.5,3.0781 z m -5.0469,15.484 c 1.6445,0 2.8945,-0.59766 3.75,-1.7969 0.86328,-1.1953 1.2969,-2.9297 1.2969,-5.2031 0,-2.2812 -0.43359,-4.0195 -1.2969,-5.2188 -0.85547,-1.1953 -2.1055,-1.7969 -3.75,-1.7969 -1.625,0 -2.8711,0.60156 -3.7344,1.7969 -0.85547,1.1992 -1.2812,2.9375 -1.2812,5.2188 0,2.2734 0.42578,4.0078 1.2812,5.2031 0.86328,1.1992 2.1094,1.7969 3.7344,1.7969 z"
         id="path17" />
    </symbol>
    <symbol
       id="e"
       overflow="visible">
      <path
         d="m 16.406,-4.9375 c 1.6328,0 2.8828,-0.59766 3.75,-1.7969 0.86328,-1.1953 1.2969,-2.9297 1.2969,-5.2031 0,-2.2812 -0.43359,-4.0195 -1.2969,-5.2188 -0.86719,-1.1953 -2.1172,-1.7969 -3.75,-1.7969 -1.6367,0 -2.8906,0.60547 -3.7656,1.8125 -0.875,1.1992 -1.3125,2.9336 -1.3125,5.2031 0,2.2617 0.4375,3.9961 1.3125,5.2031 0.875,1.1992 2.1289,1.7969 3.7656,1.7969 z m -5.0781,-15.484 c 1.0508,-1.3945 2.2188,-2.4219 3.5,-3.0781 1.2812,-0.66406 2.7539,-1 4.4219,-1 2.9453,0 5.3672,1.1719 7.2656,3.5156 1.8945,2.3438 2.8438,5.3594 2.8438,9.0469 0,3.6875 -0.94922,6.7031 -2.8438,9.0469 -1.8984,2.3438 -4.3203,3.5156 -7.2656,3.5156 -1.668,0 -3.1406,-0.33594 -4.4219,-1 -1.2813,-0.66406 -2.4492,-1.6914 -3.5,-3.0781 V 4e-4 H 3.6717 v -33.234 h 7.6562 z"
         id="path20" />
    </symbol>
    <symbol
       id="a"
       overflow="visible">
      <path
         d="m 0.53125,-23.922 h 7.6562 l 6.4219,16.234 5.4688,-16.234 h 7.6562 l -10.062,26.188 c -1.0117,2.6641 -2.1953,4.5234 -3.5469,5.5781 -1.3438,1.0625 -3.1211,1.5938 -5.3281,1.5938 H 4.37545 V 4.4223 h 2.3906 c 1.3008,0 2.2422,-0.21094 2.8281,-0.625 0.59375,-0.40625 1.0547,-1.1484 1.3906,-2.2188 l 0.20312,-0.65625 z"
         id="path23" />
    </symbol>
    <symbol
       id="d"
       overflow="visible">
      <path
         d="m 4.0156,-31.891 h 22.203 v 6.2188 h -13.984 v 5.9375 h 13.141 v 6.2188 h -13.141 v 7.2969 h 14.453 V -2e-4 H 4.0156 Z"
         id="path26" />
    </symbol>
    <symbol
       id="l"
       overflow="visible">
      <path
         d="m 3.4219,-9.3125 v -14.609 h 7.6875 v 2.3906 c 0,1.293 -0.01172,2.918 -0.03125,4.875 -0.01172,1.9609 -0.01563,3.2656 -0.01563,3.9219 0,1.9297 0.04687,3.3125 0.14062,4.1562 0.10156,0.84375 0.28125,1.4609 0.53125,1.8438 0.3125,0.5 0.71875,0.88672 1.2188,1.1562 0.50781,0.27344 1.0938,0.40625 1.75,0.40625 1.5938,0 2.8438,-0.60938 3.75,-1.8281 0.91406,-1.2266 1.375,-2.9297 1.375,-5.1094 v -11.812 h 7.6406 v 23.922 h -7.6406 v -3.4531 c -1.1562,1.3867 -2.3828,2.4141 -3.6719,3.0781 -1.2812,0.66406 -2.6992,1 -4.25,1 -2.7734,0 -4.8828,-0.84766 -6.3281,-2.5469 -1.4375,-1.6953 -2.1562,-4.1602 -2.1562,-7.3906 z"
         id="path29" />
    </symbol>
    <symbol
       id="k"
       overflow="visible">
      <path
         d="m 23,-23.172 v 6.2344 c -1.0312,-0.71875 -2.0742,-1.2422 -3.125,-1.5781 -1.043,-0.34375 -2.125,-0.51562 -3.25,-0.51562 -2.1367,0 -3.8047,0.625 -5,1.875 -1.1875,1.2422 -1.7812,2.9805 -1.7812,5.2188 0,2.2305 0.59375,3.9688 1.7812,5.2188 1.1953,1.25 2.8633,1.875 5,1.875 1.1953,0 2.332,-0.17578 3.4062,-0.53125 1.0703,-0.36328 2.0625,-0.89453 2.9688,-1.5938 v 6.2656 c -1.1875,0.4375 -2.4023,0.76562 -3.6406,0.98438 -1.2305,0.22656 -2.4648,0.34375 -3.7031,0.34375 -4.3125,0 -7.6875,-1.1094 -10.125,-3.3281 -2.4375,-2.2187 -3.6562,-5.2969 -3.6562,-9.2344 0,-3.9453 1.2188,-7.0234 3.6562,-9.2344 2.4375,-2.2188 5.8125,-3.3281 10.125,-3.3281 1.25,0 2.4844,0.10938 3.7031,0.32812 1.2187,0.21874 2.4297,0.55469 3.6406,1 z"
         id="path32" />
    </symbol>
    <symbol
       id="j"
       overflow="visible">
      <path
         d="m 3.6719,-33.234 h 7.6562 V 0 H 3.6719 Z"
         id="path35" />
    </symbol>
    <symbol
       id="i"
       overflow="visible">
      <path
         d="M 11.328,-3.4531 V 9.0939 H 3.6718 v -33.016 h 7.6562 v 3.5 c 1.0508,-1.3945 2.2188,-2.4219 3.5,-3.0781 1.2812,-0.66406 2.7539,-1 4.4219,-1 2.9453,0 5.3672,1.1719 7.2656,3.5156 1.8945,2.3438 2.8438,5.3594 2.8438,9.0469 0,3.6875 -0.94922,6.7031 -2.8438,9.0469 -1.8984,2.3438 -4.3203,3.5156 -7.2656,3.5156 -1.668,0 -3.1406,-0.33594 -4.4219,-1 -1.2813,-0.66406 -2.4492,-1.6914 -3.5,-3.0781 z m 5.0781,-15.5 c -1.6367,0 -2.8906,0.60547 -3.7656,1.8125 -0.875,1.1992 -1.3125,2.9336 -1.3125,5.2031 0,2.2617 0.4375,3.9961 1.3125,5.2031 0.875,1.1992 2.1289,1.7969 3.7656,1.7969 1.6328,0 2.8828,-0.59766 3.75,-1.7969 0.86328,-1.1953 1.2969,-2.9297 1.2969,-5.2031 0,-2.2812 -0.43359,-4.0195 -1.2969,-5.2188 -0.86719,-1.1953 -2.1172,-1.7969 -3.75,-1.7969 z"
         id="path38" />
    </symbol>
  </defs>
  <g
     id="g107"
     transform="translate(-201.25,-8.75)">
    <path
       d="m 298.29,350 h 27.074 c 1.0859,-3.0547 2.7109,-5.8086 4.7852,-8.2266 l -13.59,-23.457 c -9.4961,7.8672 -16.129,19.023 -18.27,31.684 z"
       id="path43" />
    <path
       d="m 350,385 c -1.6172,0 -3.1953,-0.19141 -4.7344,-0.48047 l -13.547,23.379 c 5.707,2.1367 11.852,3.3516 18.281,3.3516 6.429,0 12.574,-1.2148 18.27,-3.3438 l -13.547,-23.379 c -1.5273,0.28125 -3.1055,0.47266 -4.7227,0.47266 z"
       id="path45" />
    <path
       d="m 298.29,367.5 c 2.1367,12.66 8.7656,23.816 18.27,31.684 l 13.59,-23.457 c -2.0664,-2.4141 -3.6914,-5.1719 -4.7773,-8.2266 z"
       id="path47" />
    <path
       d="m 218.75,494.73 v 12.766 c 0,7.6211 46,26.25 131.25,26.25 85.25,0 131.25,-18.629 131.25,-26.25 V 494.73 c -30.371,16.52 -93.273,21.516 -131.25,21.516 -37.977,0 -100.88,-4.9961 -131.25,-21.516 z"
       id="path49" />
    <path
       d="m 358.75,358.75 c 0,4.832 -3.918,8.75 -8.75,8.75 -4.832,0 -8.75,-3.918 -8.75,-8.75 0,-4.832 3.918,-8.75 8.75,-8.75 4.832,0 8.75,3.918 8.75,8.75"
       id="path51" />
    <path
       d="m 218.75,442.23 v 30.266 c 0,7.6211 46,26.25 131.25,26.25 85.25,0 131.25,-18.629 131.25,-26.25 V 442.23 c -30.371,16.52 -93.273,21.516 -131.25,21.516 -37.977,0 -100.88,-4.9961 -131.25,-21.516 z"
       id="path53" />
    <path
       d="m 383.44,318.32 -13.59,23.457 c 2.0664,2.4141 3.6914,5.1719 4.7852,8.2266 h 27.074 c -2.1406,-12.66 -8.7734,-23.816 -18.27,-31.684 z"
       id="path55" />
    <path
       d="m 463.75,332.5 v -70 c 0,19.301 -15.699,35 -35,35 -16.992,0 -31.16,-12.18 -34.316,-28.254 -14.367,1.1914 -29.078,2.0039 -44.434,2.0039 -37.977,0 -100.88,-4.9961 -131.25,-21.516 v 170.27 c 0,7.6211 46,26.25 131.25,26.25 85.25,0 131.25,-18.629 131.25,-26.25 v -57.363 c -10.414,-6.0742 -17.5,-17.238 -17.5,-30.137 z M 350,428.75 c -38.598,0 -70,-31.402 -70,-70 0,-38.598 31.402,-70 70,-70 38.598,0 70,31.402 70,70 0,38.598 -31.402,70 -70,70 z"
       id="path57" />
    <path
       d="m 393.67,199.46 c -0.21875,-4.6094 -3.9219,-8.3203 -8.5234,-8.3203 -12.258,0.91797 -23.844,1.3633 -35.148,1.3633 -18.848,0 -91.551,-1.3047 -131.25,-20.43 v 2.9297 c 0,7.6211 46,26.25 131.25,26.25 15.086,0 29.688,-0.62109 43.672,-1.793 z"
       id="path59" />
    <path
       d="m 218.75,227.5 c 0,7.6211 46,26.25 131.25,26.25 15.109,0 29.742,-0.62109 43.75,-1.793 V 217 c -14.051,1.1367 -28.672,1.75 -43.75,1.75 -37.977,0 -100.88,-4.9961 -131.25,-21.516 z"
       id="path61" />
    <path
       d="m 331.73,309.59 13.547,23.379 c 1.5273,-0.28125 3.1055,-0.47266 4.7227,-0.47266 1.6172,0 3.1953,0.19141 4.7344,0.48047 l 13.547,-23.379 c -5.707,-2.1367 -11.852,-3.3516 -18.281,-3.3516 -6.429,0 -12.574,1.2148 -18.27,3.3438 z"
       id="path63" />
    <path
       d="m 369.86,375.73 13.59,23.457 c 9.4922,-7.8672 16.125,-19.023 18.27,-31.684 h -27.074 c -1.0938,3.0547 -2.7227,5.8086 -4.7852,8.2266 z"
       id="path65" />
    <path
       d="M 507.5,61.25 C 507.5,75.746 495.746,87.5 481.25,87.5 466.754,87.5 455,75.746 455,61.25 455,46.754 466.754,35 481.25,35 c 14.496,0 26.25,11.754 26.25,26.25"
       id="path67" />
    <path
       d="m 245,96.25 c 24.125,0 43.75,-19.625 43.75,-43.75 0,-24.125 -19.625,-43.75 -43.75,-43.75 -24.125,0 -43.75,19.625 -43.75,43.75 0,24.125 19.625,43.75 43.75,43.75 z M 253.75,35 v 17.5 c -3.9219,0 -8.75,4.8203 -8.75,8.75 H 227.5 C 227.5,47.758 240.258,35 253.75,35 Z"
       id="path69" />
    <path
       d="m 420,105 h -1.2422 l -67.516,0.008 c -0.41797,0 -0.82031,-0.008 -1.2422,-0.008 -77.324,0 -140,15.672 -140,35 0,19.328 62.676,35 140,35 11.41,0 22.504,-0.47266 33.129,-1.2773 15.207,-1.1641 28.121,10.887 28.121,26.137 v 62.641 c 0,9.668 7.832,17.5 17.5,17.5 9.668,0 17.5,-7.832 17.5,-17.5 v -43.75 c 0,-9.668 7.832,-17.5 17.5,-17.5 9.668,0 17.5,7.832 17.5,17.5 v 113.75 c 0,9.668 7.832,17.5 17.5,17.5 9.668,0 17.5,-7.832 17.5,-17.5 v -157.5 c 0,-52.5 -52.5,-70 -96.25,-70 z m 26.25,61.25 -2.0195,0.008 c -0.68359,0 -1.3828,0.008 -2.082,0.008 -6.0977,0 -12.66,-0.4375 -17.465,-5.1875 -3.1094,-3.0781 -4.6836,-7.2266 -4.6836,-12.328 0,-14.473 11.777,-26.25 26.25,-26.25 14.473,0 26.25,11.777 26.25,26.25 0,17.5 -17.727,17.5 -26.25,17.5 z"
       id="path71" />
    <path
       d="m 446.25,140 c -4.7617,0 -8.6367,3.8164 -8.75,8.5469 1.6523,0.25391 4.543,0.23438 6.5781,0.21094 l 2.1719,-0.008 c 2.6172,0 6.7305,0 8.7422,-0.47266 -0.25391,-4.6094 -4.0781,-8.2773 -8.7422,-8.2773 z"
       id="path73" />
  </g>
</svg>
