<?xml version="1.0" encoding="UTF-8" standalone="no"?>
<svg
   width="600.53528pt"
   height="726.00684pt"
   version="1.1"
   viewBox="0 0 600.53529 726.00683"
   id="svg170"
   sodipodi:docname="noun-integral-734388.svg"
   inkscape:version="1.1.2 (b8e25be833, 2022-02-05)"
   xmlns:inkscape="http://www.inkscape.org/namespaces/inkscape"
   xmlns:sodipodi="http://sodipodi.sourceforge.net/DTD/sodipodi-0.dtd"
   xmlns="http://www.w3.org/2000/svg"
   xmlns:svg="http://www.w3.org/2000/svg">
  <sodipodi:namedview
     id="namedview172"
     pagecolor="#ffffff"
     bordercolor="#666666"
     borderopacity="1.0"
     inkscape:pageshadow="2"
     inkscape:pageopacity="0.0"
     inkscape:pagecheckerboard="0"
     inkscape:document-units="pt"
     showgrid="false"
     inkscape:zoom="0.39910714"
     inkscape:cx="184.16107"
     inkscape:cy="488.5906"
     inkscape:window-width="1920"
     inkscape:window-height="1217"
     inkscape:window-x="-8"
     inkscape:window-y="-8"
     inkscape:window-maximized="1"
     inkscape:current-layer="svg170" />
  <defs
     id="defs68">
    <symbol
       id="j"
       overflow="visible">
      <path
         d="m 18.766,-1.125 c -0.96875,0.5 -1.9805,0.875 -3.0312,1.125 -1.043,0.25781 -2.1367,0.39062 -3.2812,0.39062 -3.3984,0 -6.0898,-0.94531 -8.0781,-2.8438 -1.9922,-1.9062 -2.9844,-4.4844 -2.9844,-7.7344 0,-3.2578 0.99219,-5.8359 2.9844,-7.7344 1.9883,-1.9062 4.6797,-2.8594 8.0781,-2.8594 1.1445,0 2.2383,0.13281 3.2812,0.39062 1.0508,0.25 2.0625,0.625 3.0312,1.125 v 4.2188 c -0.98047,-0.65625 -1.9453,-1.1406 -2.8906,-1.4531 -0.94922,-0.3125 -1.9492,-0.46875 -3,-0.46875 -1.875,0 -3.3516,0.60547 -4.4219,1.8125 -1.0742,1.1992 -1.6094,2.8555 -1.6094,4.9688 0,2.1055 0.53516,3.7617 1.6094,4.9688 1.0703,1.1992 2.5469,1.7969 4.4219,1.7969 1.0508,0 2.0508,-0.14844 3,-0.45312 0.94531,-0.3125 1.9102,-0.80078 2.8906,-1.4688 z"
         id="path2" />
    </symbol>
    <symbol
       id="b"
       overflow="visible">
      <path
         d="m 13.734,-11.141 c -0.4375,-0.19531 -0.87109,-0.34375 -1.2969,-0.4375 -0.41797,-0.10156 -0.83984,-0.15625 -1.2656,-0.15625 -1.2617,0 -2.2305,0.40625 -2.9062,1.2188 -0.67969,0.80469 -1.0156,1.9531 -1.0156,3.4531 v 7.0625 H 2.3591 v -15.312 h 4.8906 v 2.5156 c 0.625,-1 1.3438,-1.7266 2.1562,-2.1875 0.82031,-0.46875 1.8008,-0.70312 2.9375,-0.70312 0.16406,0 0.34375,0.01172 0.53125,0.03125 0.19531,0.01172 0.47656,0.03906 0.84375,0.07813 z"
         id="path5" />
    </symbol>
    <symbol
       id="d"
       overflow="visible">
      <path
         d="m 17.641,-7.7031 v 1.4062 H 6.188 c 0.125,1.1484 0.53906,2.0078 1.25,2.5781 0.70703,0.57422 1.7031,0.85938 2.9844,0.85938 1.0312,0 2.082,-0.14844 3.1562,-0.45312 1.082,-0.3125 2.1914,-0.77344 3.3281,-1.3906 v 3.7656 c -1.1562,0.4375 -2.3125,0.76562 -3.4688,0.98438 -1.1562,0.22656 -2.3125,0.34375 -3.4688,0.34375 -2.7734,0 -4.9297,-0.70312 -6.4688,-2.1094 -1.5312,-1.4062 -2.2969,-3.3789 -2.2969,-5.9219 0,-2.5 0.75391,-4.4609 2.2656,-5.8906 1.5078,-1.4375 3.582,-2.1562 6.2188,-2.1562 2.4062,0 4.332,0.73047 5.7812,2.1875 1.4453,1.4492 2.1719,3.3828 2.1719,5.7969 z m -5.0312,-1.625 c 0,-0.92578 -0.27344,-1.6719 -0.8125,-2.2344 -0.54297,-0.57031 -1.25,-0.85938 -2.125,-0.85938 -0.94922,0 -1.7188,0.26562 -2.3125,0.79688 -0.5937,0.53126 -0.96484,1.2969 -1.1094,2.2969 z"
         id="path8" />
    </symbol>
    <symbol
       id="a"
       overflow="visible">
      <path
         d="m 9.2188,-6.8906 c -1.0234,0 -1.793,0.17188 -2.3125,0.51562 -0.51172,0.34375 -0.76562,0.85547 -0.76562,1.5312 0,0.625 0.20703,1.1172 0.625,1.4688 0.41406,0.34375 0.98828,0.51562 1.7188,0.51562 0.92578,0 1.7031,-0.32812 2.3281,-0.98438 0.63281,-0.66406 0.95312,-1.4922 0.95312,-2.4844 v -0.5625 z m 7.4688,-1.8438 V 0 h -4.9219 v -2.2656 c -0.65625,0.92969 -1.3984,1.6055 -2.2188,2.0312 -0.82422,0.41406 -1.8242,0.625 -3,0.625 -1.5859,0 -2.8711,-0.45703 -3.8594,-1.375 -0.99219,-0.92578 -1.4844,-2.1289 -1.4844,-3.6094 0,-1.7891 0.61328,-3.1016 1.8438,-3.9375 1.2383,-0.84375 3.1797,-1.2656 5.8281,-1.2656 h 2.8906 v -0.39062 c 0,-0.76953 -0.30859,-1.332 -0.92188,-1.6875 -0.61719,-0.36328 -1.5703,-0.54688 -2.8594,-0.54688 -1.0547,0 -2.0312,0.10547 -2.9375,0.3125 -0.89844,0.21094 -1.7305,0.52344 -2.5,0.9375 v -3.7344 c 1.0391,-0.25 2.0859,-0.44141 3.1406,-0.57812 1.0625,-0.13281 2.125,-0.20312 3.1875,-0.20312 2.7578,0 4.75,0.54688 5.9688,1.6406 1.2266,1.0859 1.8438,2.8555 1.8438,5.3125 z"
         id="path11" />
    </symbol>
    <symbol
       id="c"
       overflow="visible">
      <path
         d="m 7.7031,-19.656 v 4.3438 H 12.75 v 3.5 H 7.7031 v 6.5 c 0,0.71094 0.14062,1.1875 0.42188,1.4375 0.28126,0.25 0.83594,0.375 1.6719,0.375 h 2.5156 v 3.5 h -4.1875 c -1.9375,0 -3.3125,-0.39844 -4.125,-1.2031 -0.80469,-0.8125 -1.2031,-2.1797 -1.2031,-4.1094 v -6.5 h -2.4219 v -3.5 h 2.4219 v -4.3438 z"
         id="path14" />
    </symbol>
    <symbol
       id="n"
       overflow="visible">
      <path
         d="m 12.766,-13.078 v -8.2031 h 4.9219 V -1e-4 H 12.766 v -2.2188 c -0.66797,0.90625 -1.4062,1.5703 -2.2188,1.9844 -0.8126,0.4141 -1.7578,0.625 -2.8281,0.625 -1.8867,0 -3.4336,-0.75 -4.6406,-2.25 -1.2109,-1.5 -1.8125,-3.4258 -1.8125,-5.7812 0,-2.3633 0.60156,-4.2969 1.8125,-5.7969 1.207,-1.5 2.7539,-2.25 4.6406,-2.25 1.0625,0 2,0.21484 2.8125,0.64062 0.82031,0.42969 1.5664,1.0859 2.2344,1.9688 z m -3.2188,9.9219 c 1.0391,0 1.8359,-0.37891 2.3906,-1.1406 0.55078,-0.76953 0.82812,-1.8828 0.82812,-3.3438 0,-1.457 -0.27734,-2.5664 -0.82812,-3.3281 -0.55469,-0.76953 -1.3516,-1.1562 -2.3906,-1.1562 -1.043,0 -1.8398,0.38672 -2.3906,1.1562 -0.55469,0.76172 -0.82812,1.8711 -0.82812,3.3281 0,1.4609 0.27344,2.5742 0.82812,3.3438 0.55078,0.76172 1.3477,1.1406 2.3906,1.1406 z"
         id="path17" />
    </symbol>
    <symbol
       id="m"
       overflow="visible">
      <path
         d="m 10.5,-3.1562 c 1.0508,0 1.8516,-0.37891 2.4062,-1.1406 0.55078,-0.76953 0.82812,-1.8828 0.82812,-3.3438 0,-1.457 -0.27734,-2.5664 -0.82812,-3.3281 -0.55469,-0.76953 -1.3555,-1.1562 -2.4062,-1.1562 -1.0547,0 -1.8594,0.38672 -2.4219,1.1562 -0.55469,0.77344 -0.82812,1.8828 -0.82812,3.3281 0,1.4492 0.27344,2.5586 0.82812,3.3281 0.5625,0.77344 1.3672,1.1562 2.4219,1.1562 z m -3.25,-9.9219 c 0.67578,-0.88281 1.4219,-1.5391 2.2344,-1.9688 0.82031,-0.42578 1.7656,-0.64062 2.8281,-0.64062 1.8945,0 3.4453,0.75 4.6562,2.25 1.207,1.5 1.8125,3.4336 1.8125,5.7969 0,2.3555 -0.60547,4.2812 -1.8125,5.7812 -1.2109,1.5 -2.7617,2.25 -4.6562,2.25 -1.0625,0 -2.0078,-0.21094 -2.8281,-0.625 C 8.6719,-0.6602 7.9258,-1.32032 7.25,-2.21882 V -2e-5 H 2.3594 v -21.281 H 7.25 Z"
         id="path20" />
    </symbol>
    <symbol
       id="l"
       overflow="visible">
      <path
         d="m 0.34375,-15.312 h 4.8906 l 4.125,10.391 3.5,-10.391 h 4.8906 l -6.4375,16.766 c -0.64844,1.6953 -1.4023,2.8828 -2.2656,3.5625 -0.86719,0.6875 -2,1.0312 -3.4062,1.0312 H 2.79685 V 2.8289 h 1.5312 c 0.83203,0 1.4375,-0.13672 1.8125,-0.40625 C 6.52336,2.16093 6.82024,1.69218 7.03117,1.01645 L 7.17179,0.59457 Z"
         id="path23" />
    </symbol>
    <symbol
       id="k"
       overflow="visible">
      <path
         d="m 16.781,-19.766 v 4.3125 c -1.125,-0.5 -2.2266,-0.875 -3.2969,-1.125 -1.0625,-0.25781 -2.0703,-0.39062 -3.0156,-0.39062 -1.25,0 -2.1797,0.17969 -2.7812,0.53125 -0.60547,0.34375 -0.90625,0.88281 -0.90625,1.6094 0,0.54297 0.20312,0.96875 0.60938,1.2812 0.40625,0.30469 1.1406,0.5625 2.2031,0.78125 l 2.25,0.45312 c 2.2695,0.44922 3.8789,1.1406 4.8281,2.0781 0.95703,0.92969 1.4375,2.2461 1.4375,3.9531 0,2.25 -0.66797,3.9297 -2,5.0312 -1.3359,1.0938 -3.3711,1.6406 -6.1094,1.6406 -1.3047,0 -2.6055,-0.125 -3.9062,-0.375 -1.3047,-0.23828 -2.6055,-0.59766 -3.9062,-1.0781 v -4.4531 c 1.3008,0.69922 2.5625,1.2266 3.7812,1.5781 1.2188,0.34375 2.3906,0.51562 3.5156,0.51562 1.1562,0 2.0352,-0.1875 2.6406,-0.5625 0.61328,-0.38281 0.92188,-0.9375 0.92188,-1.6562 0,-0.63281 -0.21094,-1.125 -0.625,-1.4688 -0.41797,-0.34375 -1.2461,-0.65625 -2.4844,-0.9375 l -2.0312,-0.4375 c -2.043,-0.4375 -3.5391,-1.1328 -4.4844,-2.0938 -0.9375,-0.95703 -1.4062,-2.25 -1.4062,-3.875 0,-2.0312 0.65625,-3.5938 1.9688,-4.6875 1.31255,-1.0937 3.1953,-1.6406 5.6562,-1.6406 1.125,0 2.2734,0.08594 3.4531,0.25 1.1875,0.16797 2.4141,0.42188 3.6875,0.76562 z"
         id="path26" />
    </symbol>
    <symbol
       id="h"
       overflow="visible">
      <path
         d="m 2.1875,-5.9688 v -9.3438 h 4.9219 v 1.5312 c 0,0.83594 -0.00781,1.875 -0.015625,3.125 -0.011719,1.25 -0.015625,2.0859 -0.015625,2.5 0,1.2422 0.03125,2.1328 0.09375,2.6719 0.070313,0.54297 0.17969,0.93359 0.32812,1.1719 0.20703,0.32422 0.47266,0.57422 0.79688,0.75 0.32031,0.16797 0.69141,0.25 1.1094,0.25 1.0195,0 1.8203,-0.39062 2.4062,-1.1719 0.58203,-0.78125 0.875,-1.8672 0.875,-3.2656 v -7.5625 h 4.8906 V -6e-4 H 12.6875 V -2.2194 C 11.94531,-1.32096 11.1641,-0.6608 10.3437,-0.235 9.51948,0.17906 8.6093,0.39 7.6093,0.39 5.8476,0.39 4.5038,-0.14906 3.5781,-1.235 2.64841,-2.317 2.1875,-3.8952 2.1875,-5.9694 Z"
         id="path29" />
    </symbol>
    <symbol
       id="g"
       overflow="visible">
      <path
         d="m 16.547,-12.766 c 0.61328,-0.94531 1.3477,-1.6719 2.2031,-2.1719 0.85156,-0.5 1.7891,-0.75 2.8125,-0.75 1.7578,0 3.0977,0.54688 4.0156,1.6406 0.92578,1.0859 1.3906,2.6562 1.3906,4.7188 V -4e-4 h -4.9219 v -7.9844 -0.35938 c 0.0078,-0.13281 0.01563,-0.32031 0.01563,-0.5625 0,-1.082 -0.16406,-1.8633 -0.48438,-2.3438 -0.3125,-0.48828 -0.82422,-0.73438 -1.5312,-0.73438 -0.92969,0 -1.6484,0.38672 -2.1562,1.1562 -0.51172,0.76172 -0.77344,1.8672 -0.78125,3.3125 v 7.5156 h -4.9219 v -7.9844 c 0,-1.6953 -0.14844,-2.7852 -0.4375,-3.2656 -0.29297,-0.48828 -0.8125,-0.73438 -1.5625,-0.73438 -0.9375,0 -1.6641,0.38672 -2.1719,1.1562 -0.51172,0.76172 -0.76562,1.8594 -0.76562,3.2969 v 7.5312 h -4.9219 v -15.312 h 4.9219 v 2.2344 c 0.60156,-0.86328 1.2891,-1.5156 2.0625,-1.9531 0.78125,-0.4375 1.6406,-0.65625 2.5781,-0.65625 1.0625,0 2,0.25781 2.8125,0.76562 0.8125,0.51172 1.4258,1.2305 1.8438,2.1562 z"
         id="path32" />
    </symbol>
    <symbol
       id="f"
       overflow="visible">
      <path
         d="M 17.75,-9.3281 V 0 h -4.9219 v -7.1406 c 0,-1.3203 -0.03125,-2.2344 -0.09375,-2.7344 -0.0625,-0.5 -0.16797,-0.86719 -0.3125,-1.1094 -0.1875,-0.3125 -0.44922,-0.55469 -0.78125,-0.73438 -0.32422,-0.17578 -0.69531,-0.26562 -1.1094,-0.26562 -1.0234,0 -1.8242,0.39844 -2.4062,1.1875 -0.58594,0.78125 -0.875,1.8711 -0.875,3.2656 V -1e-4 H 2.3594 v -15.312 H 7.25 v 2.2344 c 0.73828,-0.88281 1.5195,-1.5391 2.3438,-1.9688 0.83203,-0.42578 1.75,-0.64062 2.75,-0.64062 1.7695,0 3.1133,0.54688 4.0312,1.6406 0.91406,1.0859 1.375,2.6562 1.375,4.7188 z"
         id="path35" />
    </symbol>
    <symbol
       id="i"
       overflow="visible">
      <path
         d="M 17.75,-9.3281 V 0 h -4.9219 v -7.1094 c 0,-1.3438 -0.03125,-2.2656 -0.09375,-2.7656 -0.0625,-0.5 -0.16797,-0.86719 -0.3125,-1.1094 -0.1875,-0.3125 -0.44922,-0.55469 -0.78125,-0.73438 -0.32422,-0.17578 -0.69531,-0.26562 -1.1094,-0.26562 -1.0234,0 -1.8242,0.39844 -2.4062,1.1875 -0.58594,0.78125 -0.875,1.8711 -0.875,3.2656 V -1e-4 H 2.3594 v -21.281 H 7.25 v 8.2031 c 0.73828,-0.88281 1.5195,-1.5391 2.3438,-1.9688 0.83203,-0.42578 1.75,-0.64062 2.75,-0.64062 1.7695,0 3.1133,0.54688 4.0312,1.6406 0.91406,1.0859 1.375,2.6562 1.375,4.7188 z"
         id="path38" />
    </symbol>
    <symbol
       id="v"
       overflow="visible">
      <path
         d="m 0.98438,-15.312 h 4.7656 l 2.5625,10.547 2.5781,-10.547 h 4.0938 l 2.5781,10.438 2.5781,-10.438 h 4.75 L 20.85938,0 h -5.3438 L 12.93748,-10.531 10.35938,0 h -5.3438 z"
         id="path41" />
    </symbol>
    <symbol
       id="e"
       overflow="visible">
      <path
         d="m 9.6406,-12.188 c -1.0859,0 -1.9141,0.39062 -2.4844,1.1719 -0.57422,0.78125 -0.85938,1.9062 -0.85938,3.375 0,1.4688 0.28516,2.5938 0.85938,3.375 0.57031,0.77344 1.3984,1.1562 2.4844,1.1562 1.0625,0 1.875,-0.38281 2.4375,-1.1562 0.57031,-0.78125 0.85938,-1.9062 0.85938,-3.375 0,-1.4688 -0.28906,-2.5938 -0.85938,-3.375 -0.5625,-0.78125 -1.375,-1.1719 -2.4375,-1.1719 z m 0,-3.5 c 2.6328,0 4.6914,0.71484 6.1719,2.1406 1.4766,1.418 2.2188,3.3867 2.2188,5.9062 0,2.5117 -0.74219,4.4805 -2.2188,5.9062 C 14.332,-0.317 12.2734,0.39 9.6406,0.39 6.9922,0.39 4.9258,-0.31703 3.4375,-1.735 1.9453,-3.1608 1.2031,-5.1295 1.2031,-7.6412 c 0,-2.5195 0.74219,-4.4883 2.2344,-5.9062 1.4883,-1.4258 3.5547,-2.1406 6.2031,-2.1406 z"
         id="path44" />
    </symbol>
    <symbol
       id="u"
       overflow="visible">
      <path
         d="M 2.3594,-21.281 H 7.25 v 11.594 l 5.625,-5.625 h 5.6875 L 11.0937,-8.2808 19.1562,4e-4 H 13.2187 L 7.2499,-6.3902 V 4e-4 H 2.3593 Z"
         id="path47" />
    </symbol>
    <symbol
       id="t"
       overflow="visible">
      <path
         d="M 2.3594,-15.312 H 7.25 V 0 H 2.3594 Z m 0,-5.9688 H 7.25 v 4 H 2.3594 Z"
         id="path50" />
    </symbol>
    <symbol
       id="s"
       overflow="visible">
      <path
         d="m 12.422,-21.281 v 3.2188 H 9.7189 c -0.6875,0 -1.1719,0.125 -1.4531,0.375 -0.27344,0.25 -0.40625,0.6875 -0.40625,1.3125 v 1.0625 h 4.1875 v 3.5 H 7.85955 V -2e-4 h -4.8906 v -11.812 h -2.4375 v -3.5 h 2.4375 v -1.0625 c 0,-1.6641 0.46094,-2.8984 1.3906,-3.7031 0.92578,-0.80078 2.3672,-1.2031 4.3281,-1.2031 z"
         id="path53" />
    </symbol>
    <symbol
       id="r"
       overflow="visible">
      <path
         d="m 2.5781,-20.406 h 5.875 l 7.4219,14 v -14 h 4.9844 V 0 h -5.875 L 7.5625,-14 V 0 H 2.5781 Z"
         id="path56" />
    </symbol>
    <symbol
       id="q"
       overflow="visible">
      <path
         d="m 2.5781,-20.406 h 8.7344 c 2.5938,0 4.582,0.57812 5.9688,1.7344 1.3945,1.1484 2.0938,2.7891 2.0938,4.9219 0,2.1367 -0.69922,3.7812 -2.0938,4.9375 -1.3867,1.1562 -3.375,1.7344 -5.9688,1.7344 H 7.8281 V 3e-4 h -5.25 z m 5.25,3.8125 v 5.7031 H 10.75 c 1.0195,0 1.8047,-0.25 2.3594,-0.75 0.5625,-0.5 0.84375,-1.2031 0.84375,-2.1094 0,-0.91406 -0.28125,-1.6172 -0.84375,-2.1094 -0.55469,-0.48828 -1.3398,-0.73438 -2.3594,-0.73438 z"
         id="path59" />
    </symbol>
    <symbol
       id="p"
       overflow="visible">
      <path
         d="M 2.3594,-15.312 H 7.25 v 15.031 c 0,2.0508 -0.49609,3.6172 -1.4844,4.7031 -0.98047,1.082 -2.4062,1.625 -4.2812,1.625 H -0.9375 V 2.8283 h 0.85938 c 0.92578,0 1.5625,-0.21094 1.9062,-0.625 0.35156,-0.41797 0.53125,-1.2461 0.53125,-2.4844 z m 0,-5.9688 H 7.25 v 4 H 2.3594 Z"
         id="path62" />
    </symbol>
    <symbol
       id="o"
       overflow="visible">
      <path
         d="m 14.719,-14.828 v 3.9844 c -0.65625,-0.45703 -1.3242,-0.79688 -2,-1.0156 -0.66797,-0.21875 -1.3594,-0.32812 -2.0781,-0.32812 -1.3672,0 -2.4336,0.40234 -3.2031,1.2031 -0.76172,0.79297 -1.1406,1.9062 -1.1406,3.3438 0,1.4297 0.37891,2.543 1.1406,3.3438 0.76953,0.79297 1.8359,1.1875 3.2031,1.1875 0.75781,0 1.4844,-0.10938 2.1719,-0.32812 0.6875,-0.22656 1.3203,-0.56641 1.9062,-1.0156 v 4 c -0.76172,0.28125 -1.5391,0.48828 -2.3281,0.625 -0.78125,0.14453 -1.5742,0.21875 -2.375,0.21875 -2.7617,0 -4.9219,-0.70703 -6.4844,-2.125 -1.5547,-1.4141 -2.3281,-3.3828 -2.3281,-5.9062 0,-2.5312 0.77344,-4.5039 2.3281,-5.9219 1.5625,-1.4141 3.7227,-2.125 6.4844,-2.125 0.80078,0 1.5938,0.07422 2.375,0.21875 0.78125,0.13672 1.5547,0.35156 2.3281,0.64062 z"
         id="path65" />
    </symbol>
  </defs>
  <path
     d="m 218.94583,132.9619 c -109.76001,0 -109.20001,174.16 -109.20001,239.68 0.5586,40.879 -1.6797,208.32 -50.397988,212.24 -31.359,2.2383 -25.762,-36.398 -52.0780001,-23.52 -22.3979999,11.199 11.7620001,41.441 37.5200001,41.441 110.319998,0.55859 109.749998,-173.6 109.749998,-239.12 -0.55859,-40.879 1.6797,-208.32 50.398,-212.24 31.359,-2.2383 25.762,36.398 52.078,23.52 21.844,-11.762 -11.754,-42 -38.074,-42 z"
     id="path70" />
  <g
     aria-label="-3.6x108"
     id="text4570"
     style="font-size:150px;font-family:Bahnschrift;-inkscape-font-specification:Bahnschrift;stroke-width:0.75">
    <path
       d="m 82.548244,679.64453 v 14.20899 h -49.21875 v -14.20899 z"
       id="path27835" />
    <path
       d="m 132.05996,726.00684 q -8.93554,0 -15.74707,-3.22266 -6.81152,-3.2959 -10.98633,-9.44824 -4.10156,-6.22559 -5.20019,-14.94141 v 0 h 15.23437 v 0 q 0.65918,4.54102 2.85645,7.4707 2.19727,2.92969 5.63965,4.39454 3.51562,1.3916 8.20312,1.3916 7.39746,0 11.49903,-3.95508 4.10156,-3.95508 4.10156,-11.13281 v -3.22266 q 0,-7.9834 -3.88184,-12.30469 -3.88183,-4.39453 -10.98632,-4.39453 h -7.54395 v -14.20898 h 7.54395 q 6.22558,0 9.66796,-3.73535 3.44239,-3.73536 3.44239,-10.54688 v -3.2959 q 0,-6.29883 -3.66211,-9.74121 -3.58887,-3.44238 -10.25391,-3.44238 -3.80859,0 -6.81152,1.46484 -3.00293,1.3916 -5.12696,4.39453 -2.05078,2.92969 -3.00293,7.39746 v 0 h -15.16113 v 0 q 1.46485,-8.71582 5.49317,-14.9414 4.10156,-6.22559 10.32714,-9.44824 6.22559,-3.22266 14.28223,-3.22266 13.76953,0 21.31348,7.25098 7.54394,7.25097 7.54394,20.43457 v 1.75781 q 0,7.9834 -4.32129,13.91601 -4.32129,5.93262 -12.23144,8.64258 8.71582,1.9043 13.47656,8.56934 4.83399,6.66504 4.83399,16.99219 v 1.75781 q 0,9.30176 -3.58887,15.89355 -3.58887,6.5918 -10.47363,10.03418 -6.81153,3.44239 -16.4795,3.44239 z"
       id="path27837" />
    <path
       d="m 182.01114,709.23437 h 15.67382 v 15.67383 h -15.67382 z"
       id="path27839" />
    <path
       d="m 245.29239,726.00684 q -9.375,0 -16.04004,-3.73536 -6.66504,-3.80859 -10.18067,-10.98632 -3.44238,-7.25098 -3.44238,-17.43164 v -0.0733 q 0,-5.93261 1.3916,-12.45117 1.3916,-6.51855 4.02832,-12.81738 0.43945,-1.09863 0.95215,-2.12402 0.51269,-1.09864 1.02539,-2.12403 l 23.14453,-45.84961 h 16.11328 l -27.17285,53.10059 0.0732,-2.63672 q 1.83106,-3.44238 5.34668,-5.34668 3.51563,-1.9043 8.20313,-1.9043 8.27637,0 14.20898,3.73535 5.93262,3.73536 9.00879,10.91309 3.07617,7.10449 3.07617,17.13867 v 0.0732 q 0,10.25391 -3.51562,17.57813 -3.44238,7.32422 -10.18067,11.13281 -6.66503,3.8086 -16.04003,3.8086 z m 0,-14.35547 q 7.10449,0 10.91308,-4.39453 3.88184,-4.39454 3.88184,-12.52442 v -0.0732 q 0,-8.93555 -4.02832,-13.76953 -4.02832,-4.90723 -11.49903,-4.90723 -6.66504,0 -10.32715,4.90723 -3.6621,4.90722 -3.6621,13.84277 v 0.0732 q 0,8.12989 3.80859,12.52442 3.88184,4.32129 10.91309,4.32129 z"
       id="path27841" />
    <path
       d="m 301.7084,706.4707 -14.92187,-22.10937 h 8.86718 l 11.64063,18.16406 15.35156,22.38281 h -8.82812 z m -0.23437,-3.94531 3.82812,7.34375 -10.3125,15.03906 h -8.82812 z m 2.8125,-3.78906 8.86718,-14.375 h 8.86719 l -14.375,21.875 z"
       id="path27843" />
    <path
       d="m 344.75528,724.9082 h -7.96875 v -48.125 l -8.08594,4.96094 v -8.24219 l 8.08594,-5.39062 h 7.96875 z"
       id="path27845" />
    <path
       d="m 373.85684,725.49414 q -7.96875,0 -12.10938,-4.25781 -4.10156,-4.25781 -4.10156,-11.875 v -25.82031 q 0,-7.65625 4.14063,-11.875 4.14062,-4.25782 12.07031,-4.25782 7.96875,0 12.07031,4.21875 4.14063,4.21875 4.14063,11.91407 v 25.82031 q 0,7.65625 -4.14063,11.91406 -4.14062,4.21875 -12.07031,4.21875 z m 0,-7.57812 q 4.21875,0 6.21094,-2.1875 2.03125,-2.22657 2.03125,-6.36719 v -25.82031 q 0,-4.14063 -1.99219,-6.32813 -1.99219,-2.22656 -6.25,-2.22656 -4.25781,0 -6.25,2.22656 -1.99219,2.1875 -1.99219,6.32813 v 25.82031 q 0,4.14062 1.99219,6.36719 2.03125,2.1875 6.25,2.1875 z"
       id="path27847" />
    <path
       d="m 412.80215,665.34766 q -3.86719,0 -6.79687,-1.46485 -2.92969,-1.46484 -4.54102,-4.13086 -1.58203,-2.69531 -1.58203,-6.24023 v -0.70313 q 0,-3.19336 1.58203,-6.00586 1.61133,-2.8125 4.27734,-4.24804 -2.25586,-1.23047 -3.63281,-3.54492 -1.34765,-2.34375 -1.34765,-4.92188 v -1.02539 q 0,-3.33984 1.49414,-5.85938 1.49414,-2.54882 4.21875,-3.92578 2.72461,-1.40625 6.32812,-1.40625 3.60352,0 6.32813,1.40625 2.72461,1.37696 4.21875,3.92578 1.49414,2.51954 1.49414,5.85938 v 1.02539 q 0,2.63672 -1.40625,4.95117 -1.37696,2.31446 -3.66211,3.51563 2.69531,1.46484 4.30664,4.27734 1.64062,2.7832 1.64062,5.97656 v 0.70313 q 0,3.54492 -1.61133,6.24023 -1.58203,2.66602 -4.51171,4.13086 -2.92969,1.46485 -6.79688,1.46485 z m 0,-5.74219 q 2.08008,0 3.66211,-0.82031 1.58203,-0.82032 2.43164,-2.28516 0.87891,-1.49414 0.87891,-3.42773 v -0.41016 q 0,-1.96289 -0.87891,-3.42774 -0.84961,-1.49414 -2.43164,-2.31445 -1.58203,-0.82031 -3.66211,-0.82031 -2.08008,0 -3.66211,0.82031 -1.58203,0.82031 -2.46094,2.31445 -0.84961,1.49415 -0.84961,3.45704 v 0.43945 q 0,1.93359 0.84961,3.39844 0.87891,1.46484 2.46094,2.28515 1.58203,0.79102 3.66211,0.79102 z m 0,-19.24805 q 1.78711,0 3.16406,-0.76172 1.37696,-0.79101 2.13868,-2.22656 0.76171,-1.43555 0.76171,-3.31055 v -0.41015 q 0,-1.78711 -0.76171,-3.16407 -0.76172,-1.37695 -2.13868,-2.10937 -1.37695,-0.76172 -3.16406,-0.76172 -1.78711,0 -3.16406,0.76172 -1.37695,0.73242 -2.13867,2.10937 -0.76172,1.37696 -0.76172,3.19336 v 0.43946 q 0,1.8457 0.76172,3.28125 0.76172,1.40625 2.13867,2.19726 1.37695,0.76172 3.16406,0.76172 z"
       id="path27849" />
  </g>
  <g
     aria-label="-2.9x108"
     id="text25452"
     style="font-size:150px;font-family:Bahnschrift;-inkscape-font-specification:Bahnschrift;stroke-width:0.75">
    <path
       d="M 259.19254,62.329102 V 76.538086 H 209.97379 V 62.329102 Z"
       id="path27802" />
    <path
       d="m 279.55386,94.628906 37.13379,-49.511719 q 3.22266,-4.248046 4.98047,-8.789062 1.83106,-4.614258 1.83106,-8.569336 v -0.146484 q 0,-6.372071 -3.73536,-9.887696 -3.73535,-3.515625 -10.62011,-3.515625 -6.51856,0 -10.54688,3.881836 -4.02832,3.808594 -4.90722,10.839844 v 0.07324 H 278.2355 v -0.07324 q 1.31836,-9.155273 5.34668,-15.600586 4.10157,-6.5185546 10.54688,-9.8876952 Q 300.57437,0 308.99722,0 q 9.52149,0 16.25977,3.2958984 6.73828,3.2226563 10.2539,9.4482426 3.51563,6.225586 3.51563,15.014648 v 0.07324 q 0,5.639649 -2.34375,11.791992 -2.34375,6.152344 -6.51855,11.865235 l -30.83497,41.894531 h 40.28321 v 14.208981 h -60.0586 z"
       id="path27804" />
    <path
       d="M 356.82437,91.918945 H 372.4982 V 107.59277 H 356.82437 Z"
       id="path27806" />
    <path
       d="m 430.35953,54.711914 -0.0732,2.636719 q -1.83106,3.36914 -5.56641,4.980469 -3.66211,1.538085 -8.71582,1.538085 -7.61719,0 -13.40332,-3.881835 -5.78613,-3.881836 -9.00879,-10.913086 -3.14941,-7.104493 -3.14941,-16.40625 v -0.07324 q 0,-10.327148 3.44238,-17.651367 Q 397.40054,7.6171875 404.06558,3.8085938 410.80386,0 420.17886,0 q 9.375,0 16.04004,3.8818359 6.66504,3.881836 10.10742,11.2792971 3.51563,7.397461 3.51563,17.797851 v 0.07324 q 0,5.71289 -1.46484,12.231445 -1.46485,6.445312 -4.17481,12.817383 -0.43945,0.952148 -0.87891,1.977539 -0.43945,0.952148 -0.95214,1.904297 l -22.70508,45.629879 h -16.11328 z m -10.18067,-4.467773 q 7.03125,0 10.83985,-4.760743 3.88183,-4.760742 3.88183,-13.40332 v -0.07324 q 0,-8.422852 -3.88183,-13.037109 -3.8086,-4.614258 -10.83985,-4.614258 -7.10449,0 -10.98632,4.614258 -3.8086,4.614257 -3.8086,13.110351 v 0.07324 q 0,8.642578 3.8086,13.403321 3.88183,4.6875 10.98632,4.6875 z"
       id="path27808" />
    <path
       d="M 476.52164,89.155273 461.59976,67.045898 h 8.86719 l 11.64062,18.164063 15.35157,22.382809 h -8.82813 z m -0.23438,-3.945312 3.82813,7.34375 -10.3125,15.039059 h -8.82813 z m 2.8125,-3.789063 8.86719,-14.375 h 8.86719 l -14.375,21.875 z"
       id="path27810" />
    <path
       d="m 519.56851,107.59277 h -7.96875 V 59.467773 l -8.08594,4.960938 v -8.242188 l 8.08594,-5.390625 h 7.96875 z"
       id="path27812" />
    <path
       d="m 548.67007,108.17871 q -7.96875,0 -12.10937,-4.25781 -4.10156,-4.257814 -4.10156,-11.875002 V 66.225586 q 0,-7.65625 4.14062,-11.875 4.14063,-4.257813 12.07031,-4.257813 7.96875,0 12.07032,4.21875 4.14062,4.21875 4.14062,11.914063 v 25.820312 q 0,7.65625 -4.14062,11.914062 -4.14063,4.21875 -12.07032,4.21875 z m 0,-7.57812 q 4.21875,0 6.21094,-2.187504 2.03125,-2.226563 2.03125,-6.367188 V 66.225586 q 0,-4.140625 -1.99219,-6.328125 -1.99218,-2.226563 -6.25,-2.226563 -4.25781,0 -6.25,2.226563 -1.99218,2.1875 -1.99218,6.328125 v 25.820312 q 0,4.140625 1.99218,6.367188 2.03125,2.187504 6.25,2.187504 z"
       id="path27814" />
    <path
       d="m 587.61539,48.032227 q -3.86719,0 -6.79688,-1.464844 -2.92969,-1.464844 -4.54101,-4.13086 -1.58203,-2.695312 -1.58203,-6.240234 v -0.703125 q 0,-3.193359 1.58203,-6.005859 1.61132,-2.8125 4.27734,-4.248047 -2.25586,-1.230469 -3.63281,-3.544922 -1.34766,-2.34375 -1.34766,-4.921875 V 15.74707 q 0,-3.339843 1.49414,-5.8593747 1.49414,-2.5488281 4.21875,-3.9257812 2.72461,-1.40625 6.32813,-1.40625 3.60351,0 6.32812,1.40625 2.72461,1.3769531 4.21875,3.9257812 1.49414,2.5195317 1.49414,5.8593747 v 1.025391 q 0,2.636719 -1.40625,4.951172 -1.37695,2.314453 -3.66211,3.515625 2.69532,1.464844 4.30664,4.277344 1.64063,2.783203 1.64063,5.976562 v 0.703125 q 0,3.544922 -1.61133,6.240234 -1.58203,2.666016 -4.51172,4.13086 -2.92969,1.464844 -6.79687,1.464844 z m 0,-5.742188 q 2.08008,0 3.66211,-0.820312 1.58203,-0.820313 2.43164,-2.285157 0.8789,-1.49414 0.8789,-3.427734 V 35.34668 q 0,-1.962891 -0.8789,-3.427735 -0.84961,-1.49414 -2.43164,-2.314453 -1.58203,-0.820312 -3.66211,-0.820312 -2.08008,0 -3.66211,0.820312 -1.58203,0.820313 -2.46094,2.314453 -0.84961,1.494141 -0.84961,3.457032 v 0.439453 q 0,1.933593 0.84961,3.398437 0.87891,1.464844 2.46094,2.285156 1.58203,0.791016 3.66211,0.791016 z m 0,-19.248047 q 1.78711,0 3.16406,-0.761719 1.37695,-0.791015 2.13867,-2.226562 0.76172,-1.435547 0.76172,-3.310547 v -0.410156 q 0,-1.78711 -0.76172,-3.164063 -0.76172,-1.376953 -2.13867,-2.109375 -1.37695,-0.761718 -3.16406,-0.761718 -1.78711,0 -3.16407,0.761718 -1.37695,0.732422 -2.13867,2.109375 -0.76172,1.376953 -0.76172,3.19336 v 0.439453 q 0,1.845703 0.76172,3.28125 0.76172,1.40625 2.13867,2.197265 1.37696,0.761719 3.16407,0.761719 z"
       id="path27816" />
  </g>
</svg>
