<?xml version="1.0" encoding="UTF-8" standalone="no"?>
<svg
   width="525pt"
   height="525pt"
   version="1.1"
   viewBox="0 0 525 525"
   id="svg8"
   sodipodi:docname="noun-refining-1837438.svg"
   inkscape:version="1.1.2 (b8e25be833, 2022-02-05)"
   xmlns:inkscape="http://www.inkscape.org/namespaces/inkscape"
   xmlns:sodipodi="http://sodipodi.sourceforge.net/DTD/sodipodi-0.dtd"
   xmlns="http://www.w3.org/2000/svg"
   xmlns:svg="http://www.w3.org/2000/svg">
  <defs
     id="defs12" />
  <sodipodi:namedview
     id="namedview10"
     pagecolor="#ffffff"
     bordercolor="#666666"
     borderopacity="1.0"
     inkscape:pageshadow="2"
     inkscape:pageopacity="0.0"
     inkscape:pagecheckerboard="0"
     inkscape:document-units="pt"
     showgrid="false"
     inkscape:zoom="0.79821429"
     inkscape:cx="350.1566"
     inkscape:cy="442.23714"
     inkscape:window-width="1920"
     inkscape:window-height="1217"
     inkscape:window-x="-8"
     inkscape:window-y="-8"
     inkscape:window-maximized="1"
     inkscape:current-layer="g6" />
  <g
     id="g6"
     transform="translate(-87.5,-17.5)">
    <path
       d="m 326.69,105.04 c -12.508,0.37109 -24.379,5.6016 -33.094,14.578 -8.7188,8.9805 -13.594,21 -13.598,33.512 v 153.12 c 0,4.6406 -1.8438,9.0938 -5.125,12.375 -3.2812,3.2812 -7.7344,5.125 -12.375,5.125 v -58.824 c -0.004,-6.8672 -2.0273,-13.582 -5.8203,-19.305 -3.793,-5.7266 -9.1875,-10.211 -15.508,-12.891 -25.52,-10.855 -54.359,-10.855 -79.879,0 -6.3125,2.6875 -11.699,7.1719 -15.484,12.898 -3.7891,5.7227 -5.8086,12.434 -5.8086,19.297 v 172.57 h -17.5 v 17.5 h 157.5 v -17.5 h -17.5 v -96.25 c 9.2812,0 18.184,-3.6875 24.75,-10.25 6.5625,-6.5664 10.25,-15.469 10.25,-24.75 v -153.12 c 0.004,-10.938 5.8398,-21.047 15.316,-26.512 9.4727,-5.4688 21.145,-5.4688 30.617,0 9.4766,5.4648 15.312,15.574 15.316,26.512 v 8.1328 c -3.9141,0.39844 -7.7969,1.0625 -11.621,1.9844 -9.1562,2.2148 -17.301,7.4414 -23.129,14.844 -5.8281,7.4023 -8.9961,16.547 -9,25.965 v 233.45 h -17.5 v 17.5 h 140 v -17.5 h -17.5 v -35 c 9.2812,0 18.184,-3.6875 24.75,-10.25 6.5625,-6.5664 10.25,-15.469 10.25,-24.75 v -148.75 c 0.004,-10.938 5.8398,-21.047 15.316,-26.512 9.4727,-5.4688 21.145,-5.4688 30.617,0 9.4766,5.4648 15.312,15.574 15.316,26.512 v 14.219 c -10.141,0.75781 -20.141,2.8516 -29.738,6.2188 -4.0977,1.4492 -7.6484,4.1328 -10.16,7.6836 -2.5117,3.5508 -3.8555,7.793 -3.8516,12.141 v 126.67 c 0,4.9648 1.7539,9.7695 4.957,13.559 3.207,3.793 7.6484,6.3281 12.543,7.1523 v 31.105 h -17.5 v 17.5 h 105 v -17.5 h -17.5 v -31.105 c 4.8945,-0.82422 9.3359,-3.3594 12.543,-7.1523 3.2031,-3.7891 4.957,-8.5938 4.957,-13.559 v -126.67 c 0,-4.3516 -1.3477,-8.5977 -3.8672,-12.148 -2.5156,-3.5508 -6.0742,-6.2344 -10.18,-7.6758 -9.5859,-3.3672 -19.574,-5.457 -29.703,-6.2188 v -14.219 c 0,-17.195 -9.1719,-33.082 -24.062,-41.676 -14.891,-8.5977 -33.234,-8.5977 -48.125,0 -14.891,8.5938 -24.062,24.48 -24.062,41.676 v 148.75 c 0,4.6406 -1.8438,9.0938 -5.125,12.375 -3.2812,3.2812 -7.7344,5.125 -12.375,5.125 v -180.95 c -0.004,-9.4219 -3.1797,-18.57 -9.0117,-25.973 -5.8359,-7.4023 -13.988,-12.629 -23.152,-14.836 -3.8125,-0.92188 -7.6836,-1.5859 -11.586,-1.9844 v -8.1328 c -0.004,-13.012 -5.2734,-25.465 -14.613,-34.523 -9.3359,-9.0625 -21.941,-13.957 -34.945,-13.566 z M 366.987,210 c 4.7266,-0.13672 9.3125,1.6445 12.707,4.9414 3.3945,3.2969 5.3086,7.8281 5.3047,12.559 0.004,4.6445 -1.8398,9.0977 -5.1211,12.379 -3.2852,3.2852 -7.7344,5.1289 -12.379,5.1289 -4.6446,0 -9.0938,-1.8438 -12.379,-5.1289 -3.2812,-3.2812 -5.125,-7.7344 -5.1211,-12.379 0,-4.5547 1.7695,-8.9297 4.9414,-12.195 3.1719,-3.2695 7.4922,-5.1719 12.047,-5.3047 z m -166.52,70 c 7.0977,-0.21094 13.977,2.457 19.07,7.4062 5.0938,4.9453 7.9688,11.742 7.9648,18.844 0,9.3789 -5.0039,18.043 -13.125,22.734 -8.1211,4.6875 -18.129,4.6875 -26.25,0 -8.1211,-4.6914 -13.125,-13.355 -13.125,-22.734 -0.004,-6.8281 2.6562,-13.387 7.4102,-18.289 4.7539,-4.9023 11.23,-7.7578 18.055,-7.9609 z m 0.51172,17.5 c -4.7266,0.14844 -8.4805,4.0234 -8.4766,8.75 0.004,4.832 3.918,8.7461 8.75,8.7461 4.832,0 8.7461,-3.9141 8.75,-8.7461 0,-2.3672 -0.95703,-4.6367 -2.6602,-6.2852 -1.6992,-1.6484 -3.9961,-2.5391 -6.3633,-2.4648 z m 306.52,113.24 c 11.598,1.7734 23.402,1.7734 35,0 v 26.762 h -35 z"
       id="path2" />
    <path
       d="m 140,17.5 c -13.926,0 -27.277,5.5312 -37.125,15.375 C 93.0312,42.7227 87.5,56.074 87.5,70 v 420 c 0,13.922 5.5312,27.277 15.375,37.121 9.8477,9.8477 23.199,15.379 37.125,15.379 h 420 c 13.926,0 27.277,-5.5312 37.125,-15.379 C 606.9688,517.2772 612.5,503.922 612.5,490 V 70 C 612.5,56.074 606.9688,42.723 597.125,32.875 587.2773,23.0312 573.926,17.5 560,17.5 Z m 0,17.5 h 420 c 9.2812,0 18.184,3.6875 24.75,10.25 C 591.3125,51.8125 595,60.719 595,70 v 420 c 0,9.2812 -3.6875,18.184 -10.25,24.75 C 578.1836,521.3125 569.281,525 560,525 H 140 c -9.2812,0 -18.184,-3.6875 -24.75,-10.25 C 108.6875,508.1836 105,499.281 105,490 V 70 c 0,-9.2812 3.6875,-18.184 10.25,-24.75 C 121.8164,38.6875 130.719,35 140,35 Z"
       id="path4" />
  </g>
</svg>
