<?xml version="1.0" encoding="UTF-8"?>
<svg width="700pt" height="700pt" version="1.1" viewBox="0 0 700 700" xmlns="http://www.w3.org/2000/svg" xmlns:xlink="http://www.w3.org/1999/xlink">
 <defs>
  <symbol id="u" overflow="visible">
   <path d="m21.156-1.2656c-1.0938 0.5625-2.2344 0.99219-3.4219 1.2812-1.1797 0.28906-2.4062 0.4375-3.6875 0.4375-3.8359 0-6.8711-1.0703-9.1094-3.2188-2.2422-2.1445-3.3594-5.0508-3.3594-8.7188 0-3.6758 1.1172-6.5859 3.3594-8.7344 2.2383-2.1445 5.2734-3.2188 9.1094-3.2188 1.2812 0 2.5078 0.14844 3.6875 0.4375 1.1875 0.28125 2.3281 0.71094 3.4219 1.2812v4.7656c-1.1055-0.75781-2.1953-1.3125-3.2656-1.6562-1.0625-0.35156-2.1836-0.53125-3.3594-0.53125-2.125 0-3.7969 0.68359-5.0156 2.0469-1.2109 1.3555-1.8125 3.2266-1.8125 5.6094 0 2.375 0.60156 4.2422 1.8125 5.5938 1.2188 1.3555 2.8906 2.0312 5.0156 2.0312 1.1758 0 2.2969-0.17188 3.3594-0.51562 1.0703-0.35156 2.1602-0.90625 3.2656-1.6562z"/>
  </symbol>
  <symbol id="e" overflow="visible">
   <path d="m15.484-12.562c-0.49219-0.22656-0.97656-0.39453-1.4531-0.5-0.46875-0.11328-0.94922-0.17188-1.4375-0.17188-1.418 0-2.5117 0.46094-3.2812 1.375-0.76172 0.90625-1.1406 2.2109-1.1406 3.9062v7.9531h-5.5156v-17.266h5.5156v2.8281c0.70703-1.125 1.5195-1.9453 2.4375-2.4688 0.92578-0.51953 2.0312-0.78125 3.3125-0.78125 0.1875 0 0.38281 0.011719 0.59375 0.03125 0.21875 0.011719 0.53516 0.042969 0.95312 0.09375z"/>
  </symbol>
  <symbol id="b" overflow="visible">
   <path d="m19.891-8.6875v1.5781h-12.906c0.13281 1.293 0.60156 2.2656 1.4062 2.9219 0.80078 0.64844 1.9219 0.96875 3.3594 0.96875 1.1562 0 2.3438-0.17188 3.5625-0.51562s2.4727-0.86328 3.7656-1.5625v4.25c-1.3125 0.49219-2.6211 0.85938-3.9219 1.1094-1.3047 0.25781-2.6094 0.39062-3.9219 0.39062-3.125 0-5.5547-0.78906-7.2812-2.375-1.7305-1.5938-2.5938-3.8281-2.5938-6.7031 0-2.8125 0.84766-5.0234 2.5469-6.6406 1.6953-1.6133 4.0391-2.4219 7.0312-2.4219 2.707 0 4.875 0.82031 6.5 2.4531 1.6328 1.6367 2.4531 3.8203 2.4531 6.5469zm-5.6719-1.8281c0-1.0508-0.30859-1.8945-0.92188-2.5312-0.61719-0.64453-1.4141-0.96875-2.3906-0.96875-1.0742 0-1.9453 0.30469-2.6094 0.90625-0.66797 0.59375-1.0859 1.4609-1.25 2.5938z"/>
  </symbol>
  <symbol id="d" overflow="visible">
   <path d="m10.391-7.7656c-1.1484 0-2.0117 0.19922-2.5938 0.59375-0.58594 0.38672-0.875 0.96094-0.875 1.7188 0 0.69922 0.23438 1.2461 0.70312 1.6406 0.46875 0.39844 1.1172 0.59375 1.9531 0.59375 1.0312 0 1.8984-0.36719 2.6094-1.1094 0.71875-0.75 1.0781-1.6875 1.0781-2.8125v-0.625zm8.4375-2.0938v9.8594h-5.5625v-2.5625c-0.74219 1.0547-1.5742 1.8203-2.5 2.2969-0.92969 0.47656-2.0547 0.71875-3.375 0.71875-1.793 0-3.2461-0.51953-4.3594-1.5625-1.1172-1.0508-1.6719-2.4102-1.6719-4.0781 0-2.0195 0.69141-3.5039 2.0781-4.4531 1.3945-0.94531 3.582-1.4219 6.5625-1.4219h3.2656v-0.42188c0-0.875-0.35156-1.5156-1.0469-1.9219-0.6875-0.40625-1.7617-0.60938-3.2188-0.60938-1.1797 0-2.2773 0.12109-3.2969 0.35938-1.0234 0.23047-1.9648 0.58594-2.8281 1.0625v-4.2188c1.1758-0.28125 2.3594-0.49219 3.5469-0.64062 1.1953-0.15625 2.3906-0.23438 3.5781-0.23438 3.1133 0 5.3633 0.61719 6.75 1.8438 1.3828 1.2305 2.0781 3.2266 2.0781 5.9844z"/>
  </symbol>
  <symbol id="c" overflow="visible">
   <path d="m8.6875-22.172v4.9062h5.6875v3.9375h-5.6875v7.3281c0 0.80469 0.15625 1.3438 0.46875 1.625 0.32031 0.28125 0.95703 0.42188 1.9062 0.42188h2.8281v3.9531h-4.7344c-2.1797 0-3.7266-0.45312-4.6406-1.3594-0.90625-0.91406-1.3594-2.4609-1.3594-4.6406v-7.3281h-2.7344v-3.9375h2.7344v-4.9062z"/>
  </symbol>
  <symbol id="h" overflow="visible">
   <path d="m14.406-14.734v-9.25h5.5469v23.984h-5.5469v-2.5c-0.76172 1.0234-1.6016 1.7734-2.5156 2.25-0.91797 0.46875-1.9766 0.70312-3.1719 0.70312-2.1367 0-3.8867-0.84375-5.25-2.5312-1.3672-1.6953-2.0469-3.8789-2.0469-6.5469 0-2.6562 0.67969-4.8281 2.0469-6.5156 1.3633-1.6953 3.1133-2.5469 5.25-2.5469 1.1875 0 2.2383 0.24219 3.1562 0.71875 0.92578 0.48047 1.7695 1.2266 2.5312 2.2344zm-3.6406 11.172c1.1758 0 2.0781-0.42969 2.7031-1.2969 0.625-0.86328 0.9375-2.1172 0.9375-3.7656 0-1.6445-0.3125-2.8945-0.9375-3.75-0.625-0.86328-1.5273-1.2969-2.7031-1.2969-1.1797 0-2.0781 0.43359-2.7031 1.2969-0.61719 0.85547-0.92188 2.1055-0.92188 3.75 0 1.6484 0.30469 2.9023 0.92188 3.7656 0.625 0.86719 1.5234 1.2969 2.7031 1.2969z"/>
  </symbol>
  <symbol id="j" overflow="visible">
   <path d="m11.844-3.5625c1.1758 0 2.0781-0.42969 2.7031-1.2969 0.625-0.86328 0.9375-2.1172 0.9375-3.7656 0-1.6445-0.3125-2.8945-0.9375-3.75-0.625-0.86328-1.5273-1.2969-2.7031-1.2969-1.1875 0-2.1016 0.43359-2.7344 1.2969-0.625 0.86719-0.9375 2.1172-0.9375 3.75 0 1.6367 0.3125 2.8906 0.9375 3.7656 0.63281 0.86719 1.5469 1.2969 2.7344 1.2969zm-3.6719-11.172c0.75781-1.0078 1.6016-1.7539 2.5312-2.2344 0.92578-0.47656 1.9883-0.71875 3.1875-0.71875 2.125 0 3.8672 0.85156 5.2344 2.5469 1.375 1.6875 2.0625 3.8594 2.0625 6.5156 0 2.668-0.6875 4.8516-2.0625 6.5469-1.3672 1.6875-3.1094 2.5312-5.2344 2.5312-1.1992 0-2.2617-0.24219-3.1875-0.71875-0.92969-0.47656-1.7734-1.2227-2.5312-2.2344v2.5h-5.5156v-23.984h5.5156z"/>
  </symbol>
  <symbol id="i" overflow="visible">
   <path d="m0.39062-17.266h5.5156l4.6406 11.719 3.9531-11.719h5.5156l-7.2656 18.906c-0.73047 1.9141-1.5781 3.2539-2.5469 4.0156-0.96875 0.76953-2.25 1.1562-3.8438 1.1562h-3.2031v-3.625h1.7344c0.9375 0 1.6172-0.15234 2.0469-0.45312 0.42578-0.29297 0.75391-0.82422 0.98438-1.5938l0.15625-0.48438z"/>
  </symbol>
  <symbol id="g" overflow="visible">
   <path d="m2.9062-23.016h6.625l8.375 15.781v-15.781h5.625v23.016h-6.625l-8.375-15.797v15.797h-5.625z"/>
  </symbol>
  <symbol id="t" overflow="visible">
   <path d="m2.6562-23.984h5.5156v23.984h-5.5156z"/>
  </symbol>
  <symbol id="s" overflow="visible">
   <path d="m2.6562-17.266h5.5156v17.266h-5.5156zm0-6.7188h5.5156v4.5h-5.5156z"/>
  </symbol>
  <symbol id="r" overflow="visible">
   <path d="m0.9375-23.016h5.6875l3.9844 16.719 3.9531-16.719h5.7188l3.9375 16.719 3.9844-16.719h5.6406l-5.4219 23.016h-6.8438l-4.1875-17.5-4.125 17.5h-6.8438z"/>
  </symbol>
  <symbol id="a" overflow="visible">
   <path d="m10.875-13.734c-1.2305 0-2.168 0.4375-2.8125 1.3125-0.63672 0.875-0.95312 2.1406-0.95312 3.7969s0.31641 2.9297 0.95312 3.8125c0.64453 0.875 1.582 1.3125 2.8125 1.3125 1.1953 0 2.1133-0.4375 2.75-1.3125 0.64453-0.88281 0.96875-2.1562 0.96875-3.8125s-0.32422-2.9219-0.96875-3.7969c-0.63672-0.875-1.5547-1.3125-2.75-1.3125zm0-3.9531c2.9688 0 5.2852 0.80469 6.9531 2.4062 1.6758 1.6055 2.5156 3.8242 2.5156 6.6562 0 2.8438-0.83984 5.0703-2.5156 6.6719-1.668 1.6055-3.9844 2.4062-6.9531 2.4062-2.9805 0-5.3125-0.80078-7-2.4062-1.6797-1.6016-2.5156-3.8281-2.5156-6.6719 0-2.832 0.83594-5.0508 2.5156-6.6562 1.6875-1.6016 4.0195-2.4062 7-2.4062z"/>
  </symbol>
  <symbol id="f" overflow="visible">
   <path d="m14.016-23.984v3.6094h-3.0469c-0.78125 0-1.3281 0.14844-1.6406 0.4375-0.3125 0.28125-0.46875 0.77344-0.46875 1.4688v1.2031h4.7188v3.9375h-4.7188v13.328h-5.5156v-13.328h-2.75v-3.9375h2.75v-1.2031c0-1.8828 0.51953-3.2734 1.5625-4.1719 1.0508-0.89453 2.6797-1.3438 4.8906-1.3438z"/>
  </symbol>
  <symbol id="q" overflow="visible">
   <path d="m18.656-14.406c0.69531-1.0625 1.5234-1.875 2.4844-2.4375 0.96875-0.5625 2.0234-0.84375 3.1719-0.84375 1.9883 0 3.5 0.61719 4.5312 1.8438 1.0391 1.2188 1.5625 2.9961 1.5625 5.3281v10.516h-5.5469v-9c0.007813-0.13281 0.015625-0.27344 0.015625-0.42188 0.007812-0.14453 0.015625-0.34766 0.015625-0.60938 0-1.2266-0.18359-2.1133-0.54688-2.6562-0.35547-0.55078-0.93359-0.82812-1.7344-0.82812-1.0547 0-1.8672 0.43359-2.4375 1.2969-0.57422 0.85547-0.86719 2.1016-0.875 3.7344v8.4844h-5.5625v-9c0-1.9141-0.16797-3.1445-0.5-3.6875-0.32422-0.55078-0.90625-0.82812-1.75-0.82812-1.0547 0-1.8711 0.43359-2.4531 1.2969-0.57422 0.86719-0.85938 2.1055-0.85938 3.7188v8.5h-5.5469v-17.266h5.5469v2.5312c0.67578-0.97656 1.4531-1.7109 2.3281-2.2031 0.88281-0.5 1.8594-0.75 2.9219-0.75 1.1875 0 2.2383 0.29297 3.1562 0.875 0.91406 0.57422 1.6094 1.375 2.0781 2.4062z"/>
  </symbol>
  <symbol id="p" overflow="visible">
   <path d="m20.016-10.516v10.516h-5.5469v-8.0156c0-1.5078-0.039062-2.5469-0.10938-3.1094-0.0625-0.57031-0.17969-0.98828-0.34375-1.25-0.21875-0.36328-0.51562-0.64453-0.89062-0.84375-0.36719-0.19531-0.78125-0.29688-1.25-0.29688-1.1562 0-2.0625 0.44531-2.7188 1.3281-0.65625 0.88672-0.98438 2.1172-0.98438 3.6875v8.5h-5.5156v-23.984h5.5156v9.25c0.83203-1.0078 1.7188-1.7539 2.6562-2.2344 0.9375-0.47656 1.9688-0.71875 3.0938-0.71875 2 0 3.5156 0.61719 4.5469 1.8438 1.0312 1.2188 1.5469 2.9961 1.5469 5.3281z"/>
  </symbol>
  <symbol id="o" overflow="visible">
   <path d="m2.4688-6.7188v-10.547h5.5469v1.7188c0 0.9375-0.007813 2.1172-0.015625 3.5312-0.011719 1.4062-0.015625 2.3516-0.015625 2.8281 0 1.3867 0.035156 2.3867 0.10938 3 0.070312 0.61719 0.19531 1.0586 0.375 1.3281 0.21875 0.36719 0.50781 0.64844 0.875 0.84375 0.375 0.1875 0.79688 0.28125 1.2656 0.28125 1.1445 0 2.0469-0.44141 2.7031-1.3281 0.66406-0.88281 1-2.1133 1-3.6875v-8.5156h5.5156v17.266h-5.5156v-2.5c-0.83594 1.0117-1.7188 1.7578-2.6562 2.2344-0.92969 0.47656-1.9492 0.71875-3.0625 0.71875-2 0-3.5234-0.60938-4.5625-1.8281-1.043-1.2266-1.5625-3.0078-1.5625-5.3438z"/>
  </symbol>
  <symbol id="n" overflow="visible">
   <path d="m20.016-10.516v10.516h-5.5469v-8.0469c0-1.4883-0.039062-2.5156-0.10938-3.0781-0.0625-0.57031-0.17969-0.98828-0.34375-1.25-0.21875-0.36328-0.51562-0.64453-0.89062-0.84375-0.36719-0.19531-0.78125-0.29688-1.25-0.29688-1.1562 0-2.0625 0.44531-2.7188 1.3281-0.65625 0.88672-0.98438 2.1172-0.98438 3.6875v8.5h-5.5156v-17.266h5.5156v2.5312c0.83203-1.0078 1.7188-1.7539 2.6562-2.2344 0.9375-0.47656 1.9688-0.71875 3.0938-0.71875 2 0 3.5156 0.61719 4.5469 1.8438 1.0312 1.2188 1.5469 2.9961 1.5469 5.3281z"/>
  </symbol>
  <symbol id="m" overflow="visible">
   <path d="m2.9062-23.016h9.8438c2.9258 0 5.1719 0.65234 6.7344 1.9531 1.5703 1.293 2.3594 3.1406 2.3594 5.5469 0 2.418-0.78906 4.2773-2.3594 5.5781-1.5625 1.3047-3.8086 1.9531-6.7344 1.9531h-3.9219v7.9844h-5.9219zm5.9219 4.2969v6.4375h3.2969c1.1445 0 2.0312-0.28125 2.6562-0.84375 0.63281-0.5625 0.95312-1.3594 0.95312-2.3906 0-1.0195-0.32031-1.8047-0.95312-2.3594-0.625-0.5625-1.5117-0.84375-2.6562-0.84375z"/>
  </symbol>
  <symbol id="l" overflow="visible">
   <path d="m2.6562-17.266h5.5156v16.953c0 2.3125-0.55859 4.0781-1.6719 5.2969-1.1055 1.2188-2.7109 1.8281-4.8125 1.8281h-2.7344v-3.625h0.95312c1.0508 0 1.7695-0.24219 2.1562-0.71875 0.39453-0.46875 0.59375-1.3984 0.59375-2.7812zm0-6.7188h5.5156v4.5h-5.5156z"/>
  </symbol>
  <symbol id="k" overflow="visible">
   <path d="m16.609-16.734v4.5c-0.75-0.50781-1.5078-0.88281-2.2656-1.125-0.75-0.25-1.5312-0.375-2.3438-0.375-1.543 0-2.7461 0.44922-3.6094 1.3438-0.85547 0.89844-1.2812 2.1523-1.2812 3.7656 0 1.6172 0.42578 2.875 1.2812 3.7812 0.86328 0.89844 2.0664 1.3438 3.6094 1.3438 0.86328 0 1.6797-0.125 2.4531-0.375 0.78125-0.25781 1.5-0.64453 2.1562-1.1562v4.5156c-0.86719 0.32422-1.7461 0.5625-2.6406 0.71875-0.88672 0.16406-1.7773 0.25-2.6719 0.25-3.1172 0-5.5547-0.79688-7.3125-2.3906-1.75-1.6016-2.625-3.832-2.625-6.6875 0-2.8438 0.875-5.0625 2.625-6.6562 1.7578-1.6016 4.1953-2.4062 7.3125-2.4062 0.90625 0 1.7969 0.085938 2.6719 0.25 0.88281 0.15625 1.7656 0.39062 2.6406 0.70312z"/>
  </symbol>
 </defs>
 <g>
  <path d="m350 0c-42.453 0-82.668 9.5078-118.71 26.426 0.023438-0.14062 0.089844-0.25781 0.10156-0.40234-3.6367 1.6914-7.2383 3.4609-10.809 5.3125 0.18359 0.058593 0.39844 0.074218 0.59375 0.12109-0.65625 0.34766-1.332 0.66797-1.9844 1.0234-0.0625-0.10547-0.15234-0.17188-0.20312-0.27734-2.0664 1.0859-4.125 2.168-6.1523 3.3047 0.20312 0.039063 0.38672 0.09375 0.58203 0.13281-2.1602 1.207-4.3086 2.4336-6.4297 3.6953-0.11328-0.089844-0.22656-0.14063-0.33594-0.23438 1.207-0.70703 2.3945-1.4414 3.6016-2.1289-1.2188 0.70703-2.457 1.4102-3.668 2.1289 0.007813 0.007813 0.019531 0.011719 0.023438 0.019532-0.50391 0.30469-1.0156 0.60547-1.5234 0.91016 0.23438-0.023438 0.35938 0.0625 0.5625 0.082031-1.0938 0.65625-2.1523 1.3516-3.2344 2.0195 0.074219-0.22266 0.12109-0.41797 0.20312-0.64453 0 0-0.007812 0-0.011719 0.007813 0-0.007813 0.007813-0.011719 0.007813-0.019532-0.19531 0.125-0.39844 0.25781-0.61328 0.38672 0.12109-0.074219 0.23438-0.14062 0.35938-0.20703-0.42969 0.27344-0.87109 0.54297-1.3086 0.81641 0.13281-0.089844 0.25781-0.17188 0.39062-0.25391-1.2266 0.75781-2.4648 1.5234-3.6758 2.3047 0.80859-0.51953 1.6289-1.0156 2.4453-1.5156-0.81641 0.51953-1.6172 1.0469-2.4336 1.5781 0 0.15234 0.03125 0.33594 0.039062 0.49219-0.074219 0.050781-0.15234 0.10156-0.23438 0.15234-0.074219-0.12109-0.125-0.25781-0.22266-0.36719 0.13281-0.089843 0.25781-0.17578 0.39062-0.26562 0.011718-0.023437 0-0.050781 0-0.070312-0.14453 0.09375-0.29688 0.19531-0.44922 0.29688 0.019531 0.007812 0.023437 0.03125 0.03125 0.050781-7.6992 4.9883-15.152 10.32-22.309 16.031 0.058594 0.16406 0.15234 0.31641 0.21484 0.46875-64.047 51.309-105.11 130.15-105.11 218.62 0 154.64 125.31 280 279.88 280s279.89-125.36 279.89-280c0-154.64-125.32-280-279.89-280zm200.93 93.391c0.28516 0.47266 0.61719 0.89844 0.87891 1.3828-7.3125 2.1367-6.7031-3.6367-12.93-2.5781 2.6133 4.5156 4.4766 13.844 10.34 7.75 0.51953 3.4492 3.543 1.0977 6.2891-1.4766 39.699 44.945 64.926 102.97 68.305 166.82h-10.031c16.297 25.336-18.469 36.254-33.578 46.508 4.6055 10.695 14.781-3.2734 20.66 2.5781-2.5391 25.898-20.836 35.984-33.578 51.68 0.64453 19.637 1.3711 24.918 0 43.918-26.262 17.938-27.969 73.27-69.75 67.16-6.9219-18.91-7.1953-44.484-15.508-62 17.211-24.785-7.0039-41.363-5.168-72.328-3.4688-4.2812-13.555-1.9258-12.918-10.34-16.113 5.5664-27.695 3.2891-43.918 5.168-11.633-6.4492-16.297-19.871-25.832-28.41 8.7109-25.031-5.4883-51.566 23.258-62.008-1.3828-30.73 47.5-35.598 67.16-28.41v10.328c10.137 1.9336 14.949 9.1758 23.258 12.918-0.42969-6.4688 3.9844-8.0898 7.7617-10.34 7.8828 5.0078 5.9297 12.113 18.082 7.7617 4.543 1.4766 15.172-3.125 15.492 2.582 3.832-2.1914 3.7383-8.3203 5.168-12.922-2.3672-8.8164-15.906-6.4883-23.27-10.328-3.5312-3.2969-3.5312-12.203 0-15.508-16.449-1.1992-2.6523 12.477-12.902 15.508h-5.168c2.2227-8.25-4.0625-7.9883-5.168-12.918-7.6875-0.63672-9.8086 17.504-18.07 7.75 18.379-3.0273-10.41-26.012-12.918-15.5-0.44141-3.8672 0.92188-9.5312-2.5898-10.332-9.1758 2.8594-15.129 8.9805-23.258 12.918v10.332c-2.2812 1.1562-4.6094 2.2734-5.1523 5.1602h-23.27c-0.125-3.2969-3.2891-3.5742-2.5781-7.7617 3.8008-5.6719-0.29688-19.246 7.7617-20.66 7.4297-3.6016 13.125 7.043 15.492 0h2.5898c1.1484-9.7461-5.1094-12.129-7.7617-18.078 0.28516-4.875 8.5508-1.793 7.7617-7.7578 22.02-1.2188 22.664-23.836 36.172-33.578-2.1719 3-3.418 6.9219-2.5781 12.91 9.5117 2.375 4.6875-13.625 2.5781-15.5-5.9922-0.82031-9.918 0.41016-12.918 2.5898-3.5859-3.3086-1.5781-12.195-5.168-15.512 16.332-14.66 21.23-40.773 49.082-43.91 8.3125 2.0391 15.805 4.9023 22.234 8.8359 5.4219 4.9727 10.633 10.188 15.656 15.594zm-115.43 29.812c13.461 2.8984 9.7344 23.004 20.672 28.418v5.168c-6.2148-1.0547-5.6133 4.7227-12.918 2.5898-4.8828-0.58203-5.6992 2.8984-10.328 2.5781 10.457-13.746-2.9766-25.109 2.5742-38.754zm-2.5625 30.996h-12.93c-1.0234-9.6328 2.0703-15.16 10.34-15.5 2.9805 3.0586 2.9258 9.1406 2.5898 15.5zm-41.34-54.246c-2.2812-5.457-7.8711-7.6367-7.7617-15.5 10.34 2.5312 15.52 2.5312 25.848 0 0.49219 2.0898 2.6016 2.5781 2.5781 5.1602-0.35938 9.9805-10.09 10.59-20.664 10.34zm-15.508 15.5c-3.9609 10.676-16.562 12.707-25.828 18.078-2.9297-0.48047-1.4453-2.5898 0-2.5781-0.39062-4.7734-8.7461-1.5898-10.34-5.168-2.5938-31.57 38.992-38.898 36.168-10.332zm196.35 322.93c-6.4727-19.852 7.8203-27.762 15.492-43.918 7.6367 6.1328-3.1094 15.633-2.5781 23.242-2.7852 4.7891-6.2656 8.9062-7.6367 15.133-0.10156 0.13281-0.18359 0.28516-0.28516 0.42969-2.75 0.60937-3.8789 2.8438-4.9922 5.1133zm-180.36-429.51c-0.17188 0.22266-0.24609 0.39062-0.46875 0.63281 1.6289 0.33594 3.5625 0.35547 5.5898 0.28516 4.332 0.75 8.6211 1.5977 12.879 2.5508-4.168 1.9023-5.293 6.8516-10.695 7.4961-1.875 7.8945 2.6289 9.418 2.5625 15.5-4.4414 1.0156-6.625-3.8281-7.75 0 8.8672 11.434-12.684 21.379 0 31-18.816 9.6055-45.324 11.516-56.84 28.418-5.582 6.4609-8.1484 15.961-15.5 20.66-18.43-5.3047-21.992-35.727-16.449-47.398 0.53125-0.38672 0.91016-0.92188 0.92188-1.6602-0.33594 0.5-0.63672 1.0547-0.92188 1.6562-1.3594 0.95312-3.7656 0.65234-4.2188-1.6797 12.113-34.289-29.559-24.234-36.172-43.918 4.3086-3.4414 16.449 0.94141 15.5-7.75-0.36328 0.050781-0.68359 0.14453-1.0586 0.1875 22.504-5.9766 46.133-9.2031 70.516-9.2031 14.324 0 28.375 1.1055 42.105 3.2227zm-170.96 28.945c5.2305 1.707 9.5625 2.6953 15.461-2.4492-3.3711-0.20312-7.3945 0.23828-10.789 0.058594 12.184-6.2031 24.879-11.52 38.031-15.871-10.02 5.1875-16.645 13.762-22.051 23.555-12.07 1.1758-21.477 2.3672-29.098-0.53516 2.8008-1.6367 5.5977-3.2422 8.4453-4.7578zm-12.398 7.0195c0.58203 1.2461 1.6797 1.9688 4.6289 0.83984-2.7461 5.8555-7.832 9.3867-15.5 10.332 1.9219-2.5273 2.7539-4.5234 3.1836-6.3086 2.5469-1.6484 5.0859-3.3047 7.6875-4.8633zm-29.875 20.875c0.30859 0.21484 0.60547 0.44922 0.92188 0.63672-0.61328 7.125-9.6016 5.8984-12.91 10.34 17.324 5.1367 18.039-15.48 28.418-2.5898 1.0625-6.2148-4.7188-5.6133-2.5781-12.902 3.2969-0.14062 3.5742-3.3164 7.7578-2.582 1.2617 14.723 9.6367 8.0859 12.91 18.078 0.55078-2.8984 2.8672-4.0312 5.168-5.1602 2.7461-9.6328-9.6953-4.0859-7.75-12.918 0.35938-14.289 21.809-7.4648 31-12.918 0.042969 4.2695 7.1641 1.4453 7.75 5.168-3.3906-0.33594-18.691-0.39063-10.332 2.582 26.371-2.0703 25.961 17.555 41.332 31.008-5.0781-0.77734-5.1289 3.4883-7.7617 5.1523-3.4297 0.39062-7.7891-10.496-10.328-2.5703 5.6523 0.37891 5.5508 6.5039 5.1602 12.918-12.809-4.2148-1.4609 0.30859-7.7578 5.1602-9.6445-4.9961-17.074-12.211-28.422-15.508 6.3398-2.2617 14.895-2.3164 15.508-10.328 1.9219-7.957-7.1055-4.957-5.168-12.918-3.7891 0.023438-21.148-0.97266-12.918 2.5898 2.1211 11.586-7.4141 11.535-10.34 18.082 3.7891 2.2422 8.1914 3.8711 7.7578 10.332-2.0781-1.3633-4.1953-2.6914-7.7578-2.582-3.2539 0.64453-2.6016 5.1406 0 5.168-0.46875 4.3633-12.273-1.1953-10.34-7.75-12.242 4.1055-18.262 14.457-25.828 23.25 2.2188 9.8398 12.047 12.07 20.66 15.5 2.0859 1.3711 4.207 2.6953 7.7617 2.5781-1.8711 7.9023 2.6406 9.4102 2.5781 15.5 8.8125-20.77 16.391-15.418 15.508-49.082 2.1992 0.46875 2.4375-1.0117 2.5781-2.582 2.5391-0.22266 6.1406 6.8203 15.508 5.1602 6.5625 2.0469 1.3945 15.828 10.328 15.508 8.3633 3.1953 1.9688-8.3555 10.34-5.1719 8.0898 24.117 22.145 36.395 25.832 59.422-7.8945 1.8711-9.4102-2.6406-15.492-2.5781-9.0312 2.3047-4.4141-8.4258-2.5898-10.34 3.7148-1.4453 6.3047-4.0352 7.7578-7.7578-9.7383 2.4492-17.504 16.031-25.832 5.168 2.1367 7.2969-3.6367 6.6953-2.582 12.918-0.48047 2.1992 1.0039 2.4375 2.582 2.582 2.0039 0.57422 5.1055 0.0625 5.1602 2.5781v2.5898c-12.285 7.9453-44.32 17.109-49.082 46.5-7.5742 0.16406-9.5938 5.9062-12.91 10.332-5.4766 2.3047 5.1094 18.07-2.5898 23.258-6.2461-3.2344-8.3516-10.598-10.34-18.082-23.488-13.629-66.086 29.441-25.832 38.758h2.5898c-0.93359-8.1914 14.172-11.57 15.488-2.582-3.8281 2.1992-5.5508 6.4922-5.1602 12.902-0.4375 5.6133 9.1641 1.1875 12.918 2.5898-0.72656 11.445-5.4844 21.344 7.75 23.242 2.0078 0.58203 5.1094 0.074219 5.1719 2.5898 10.145-1.0469 11.035-11.352 20.668-12.918 5.7852 5.3672 16.68 7.5742 33.578 7.75 3.625 16.184 23.242 16.371 33.578 25.848v12.918c18.457 4.8008 32.074 14.434 49.082 20.652-2.4336 24.281-18.426 34.973-18.07 62.012-6.9492 3.4062-13.746 6.9336-20.672 10.328-2.3945 16.984-13.555 37.512-28.422 33.578-1.0547 6.2266 4.7227 5.6133 2.5781 12.93-26.457 7.4766-20.57 23.574-24.809 44.586-6.7266-2.7031-13.328-5.6406-19.789-8.8438-10.25-20.141 6.8984-57.301 0.70703-94.031-4.8203-28.617-45.535-45.117-38.309-79.188 4.6055-5.6133 9.9609-10.473 12.766-17.887-18.59-27.375-55.086-36.875-81.734-56.191 0.74609-14.371-4.4844-22.766-12.773-28.094 0.42969 7.2383 4.6875 10.645 5.1211 17.875-17.98-17.559-24.527-45.258-25.289-71.543 16.605-52.191 48.414-97.574 90.195-131.02zm52.574 212.5c0.89062 11.086-9.4102 6.9805-15.492 5.168 2.3672-4.5156 8.0664-5.7109 15.492-5.168zm-46.5-10.34c7-11.289 24.641 4.5156 31.008 10.348-14.066 0.27344-16.156-11.426-31.008-10.348z"/>
  <use x="70.121094" y="654.742188" xlink:href="#u"/>
  <use x="93.296875" y="654.742188" xlink:href="#e"/>
  <use x="108.871094" y="654.742188" xlink:href="#b"/>
  <use x="130.292969" y="654.742188" xlink:href="#d"/>
  <use x="151.601562" y="654.742188" xlink:href="#c"/>
  <use x="166.699219" y="654.742188" xlink:href="#b"/>
  <use x="188.117188" y="654.742188" xlink:href="#h"/>
  <use x="221.71875" y="654.742188" xlink:href="#j"/>
  <use x="244.324219" y="654.742188" xlink:href="#i"/>
  <use x="275.90625" y="654.742188" xlink:href="#g"/>
  <use x="302.339844" y="654.742188" xlink:href="#d"/>
  <use x="323.648438" y="654.742188" xlink:href="#c"/>
  <use x="338.746094" y="654.742188" xlink:href="#d"/>
  <use x="360.058594" y="654.742188" xlink:href="#t"/>
  <use x="370.882813" y="654.742188" xlink:href="#s"/>
  <use x="381.707031" y="654.742188" xlink:href="#d"/>
  <use x="414.015625" y="654.742188" xlink:href="#r"/>
  <use x="448.847656" y="654.742188" xlink:href="#a"/>
  <use x="470.546875" y="654.742188" xlink:href="#a"/>
  <use x="492.242188" y="654.742188" xlink:href="#h"/>
  <use x="514.847656" y="654.742188" xlink:href="#e"/>
  <use x="530.425781" y="654.742188" xlink:href="#a"/>
  <use x="552.121094" y="654.742188" xlink:href="#f"/>
  <use x="565.859375" y="654.742188" xlink:href="#f"/>
  <use x="579.601562" y="654.742188" xlink:href="#b"/>
  <use x="70.121094" y="686.324219" xlink:href="#f"/>
  <use x="83.859375" y="686.324219" xlink:href="#e"/>
  <use x="99.433594" y="686.324219" xlink:href="#a"/>
  <use x="121.132812" y="686.324219" xlink:href="#q"/>
  <use x="165.035156" y="686.324219" xlink:href="#c"/>
  <use x="180.128906" y="686.324219" xlink:href="#p"/>
  <use x="202.613281" y="686.324219" xlink:href="#b"/>
  <use x="235.027344" y="686.324219" xlink:href="#g"/>
  <use x="261.457031" y="686.324219" xlink:href="#a"/>
  <use x="283.15625" y="686.324219" xlink:href="#o"/>
  <use x="305.636719" y="686.324219" xlink:href="#n"/>
  <use x="339.117188" y="686.324219" xlink:href="#m"/>
  <use x="362.261719" y="686.324219" xlink:href="#e"/>
  <use x="377.835938" y="686.324219" xlink:href="#a"/>
  <use x="399.535156" y="686.324219" xlink:href="#l"/>
  <use x="410.359375" y="686.324219" xlink:href="#b"/>
  <use x="431.777344" y="686.324219" xlink:href="#k"/>
  <use x="450.5" y="686.324219" xlink:href="#c"/>
 </g>
</svg>
