<?xml version="1.0" encoding="UTF-8"?>
<svg width="700pt" height="700pt" version="1.1" viewBox="0 0 700 700" xmlns="http://www.w3.org/2000/svg" xmlns:xlink="http://www.w3.org/1999/xlink">
 <defs>
  <symbol id="w" overflow="visible">
   <path d="m18.766-1.125c-0.96875 0.5-1.9805 0.875-3.0312 1.125-1.043 0.25781-2.1367 0.39062-3.2812 0.39062-3.3984 0-6.0898-0.94531-8.0781-2.8438-1.9922-1.9062-2.9844-4.4844-2.9844-7.7344 0-3.2578 0.99219-5.8359 2.9844-7.7344 1.9883-1.9062 4.6797-2.8594 8.0781-2.8594 1.1445 0 2.2383 0.13281 3.2812 0.39062 1.0508 0.25 2.0625 0.625 3.0312 1.125v4.2188c-0.98047-0.65625-1.9453-1.1406-2.8906-1.4531-0.94922-0.3125-1.9492-0.46875-3-0.46875-1.875 0-3.3516 0.60547-4.4219 1.8125-1.0742 1.1992-1.6094 2.8555-1.6094 4.9688 0 2.1055 0.53516 3.7617 1.6094 4.9688 1.0703 1.1992 2.5469 1.7969 4.4219 1.7969 1.0508 0 2.0508-0.14844 3-0.45312 0.94531-0.3125 1.9102-0.80078 2.8906-1.4688z"/>
  </symbol>
  <symbol id="c" overflow="visible">
   <path d="m13.734-11.141c-0.4375-0.19531-0.87109-0.34375-1.2969-0.4375-0.41797-0.10156-0.83984-0.15625-1.2656-0.15625-1.2617 0-2.2305 0.40625-2.9062 1.2188-0.67969 0.80469-1.0156 1.9531-1.0156 3.4531v7.0625h-4.8906v-15.312h4.8906v2.5156c0.625-1 1.3438-1.7266 2.1562-2.1875 0.82031-0.46875 1.8008-0.70312 2.9375-0.70312 0.16406 0 0.34375 0.011719 0.53125 0.03125 0.19531 0.011719 0.47656 0.039062 0.84375 0.078125z"/>
  </symbol>
  <symbol id="a" overflow="visible">
   <path d="m17.641-7.7031v1.4062h-11.453c0.125 1.1484 0.53906 2.0078 1.25 2.5781 0.70703 0.57422 1.7031 0.85938 2.9844 0.85938 1.0312 0 2.082-0.14844 3.1562-0.45312 1.082-0.3125 2.1914-0.77344 3.3281-1.3906v3.7656c-1.1562 0.4375-2.3125 0.76562-3.4688 0.98438-1.1562 0.22656-2.3125 0.34375-3.4688 0.34375-2.7734 0-4.9297-0.70312-6.4688-2.1094-1.5312-1.4062-2.2969-3.3789-2.2969-5.9219 0-2.5 0.75391-4.4609 2.2656-5.8906 1.5078-1.4375 3.582-2.1562 6.2188-2.1562 2.4062 0 4.332 0.73047 5.7812 2.1875 1.4453 1.4492 2.1719 3.3828 2.1719 5.7969zm-5.0312-1.625c0-0.92578-0.27344-1.6719-0.8125-2.2344-0.54297-0.57031-1.25-0.85938-2.125-0.85938-0.94922 0-1.7188 0.26562-2.3125 0.79688s-0.96484 1.2969-1.1094 2.2969z"/>
  </symbol>
  <symbol id="f" overflow="visible">
   <path d="m9.2188-6.8906c-1.0234 0-1.793 0.17188-2.3125 0.51562-0.51172 0.34375-0.76562 0.85547-0.76562 1.5312 0 0.625 0.20703 1.1172 0.625 1.4688 0.41406 0.34375 0.98828 0.51562 1.7188 0.51562 0.92578 0 1.7031-0.32812 2.3281-0.98438 0.63281-0.66406 0.95312-1.4922 0.95312-2.4844v-0.5625zm7.4688-1.8438v8.7344h-4.9219v-2.2656c-0.65625 0.92969-1.3984 1.6055-2.2188 2.0312-0.82422 0.41406-1.8242 0.625-3 0.625-1.5859 0-2.8711-0.45703-3.8594-1.375-0.99219-0.92578-1.4844-2.1289-1.4844-3.6094 0-1.7891 0.61328-3.1016 1.8438-3.9375 1.2383-0.84375 3.1797-1.2656 5.8281-1.2656h2.8906v-0.39062c0-0.76953-0.30859-1.332-0.92188-1.6875-0.61719-0.36328-1.5703-0.54688-2.8594-0.54688-1.0547 0-2.0312 0.10547-2.9375 0.3125-0.89844 0.21094-1.7305 0.52344-2.5 0.9375v-3.7344c1.0391-0.25 2.0859-0.44141 3.1406-0.57812 1.0625-0.13281 2.125-0.20312 3.1875-0.20312 2.7578 0 4.75 0.54688 5.9688 1.6406 1.2266 1.0859 1.8438 2.8555 1.8438 5.3125z"/>
  </symbol>
  <symbol id="b" overflow="visible">
   <path d="m7.7031-19.656v4.3438h5.0469v3.5h-5.0469v6.5c0 0.71094 0.14062 1.1875 0.42188 1.4375s0.83594 0.375 1.6719 0.375h2.5156v3.5h-4.1875c-1.9375 0-3.3125-0.39844-4.125-1.2031-0.80469-0.8125-1.2031-2.1797-1.2031-4.1094v-6.5h-2.4219v-3.5h2.4219v-4.3438z"/>
  </symbol>
  <symbol id="m" overflow="visible">
   <path d="m12.766-13.078v-8.2031h4.9219v21.281h-4.9219v-2.2188c-0.66797 0.90625-1.4062 1.5703-2.2188 1.9844s-1.7578 0.625-2.8281 0.625c-1.8867 0-3.4336-0.75-4.6406-2.25-1.2109-1.5-1.8125-3.4258-1.8125-5.7812 0-2.3633 0.60156-4.2969 1.8125-5.7969 1.207-1.5 2.7539-2.25 4.6406-2.25 1.0625 0 2 0.21484 2.8125 0.64062 0.82031 0.42969 1.5664 1.0859 2.2344 1.9688zm-3.2188 9.9219c1.0391 0 1.8359-0.37891 2.3906-1.1406 0.55078-0.76953 0.82812-1.8828 0.82812-3.3438 0-1.457-0.27734-2.5664-0.82812-3.3281-0.55469-0.76953-1.3516-1.1562-2.3906-1.1562-1.043 0-1.8398 0.38672-2.3906 1.1562-0.55469 0.76172-0.82812 1.8711-0.82812 3.3281 0 1.4609 0.27344 2.5742 0.82812 3.3438 0.55078 0.76172 1.3477 1.1406 2.3906 1.1406z"/>
  </symbol>
  <symbol id="l" overflow="visible">
   <path d="m10.5-3.1562c1.0508 0 1.8516-0.37891 2.4062-1.1406 0.55078-0.76953 0.82812-1.8828 0.82812-3.3438 0-1.457-0.27734-2.5664-0.82812-3.3281-0.55469-0.76953-1.3555-1.1562-2.4062-1.1562-1.0547 0-1.8594 0.38672-2.4219 1.1562-0.55469 0.77344-0.82812 1.8828-0.82812 3.3281 0 1.4492 0.27344 2.5586 0.82812 3.3281 0.5625 0.77344 1.3672 1.1562 2.4219 1.1562zm-3.25-9.9219c0.67578-0.88281 1.4219-1.5391 2.2344-1.9688 0.82031-0.42578 1.7656-0.64062 2.8281-0.64062 1.8945 0 3.4453 0.75 4.6562 2.25 1.207 1.5 1.8125 3.4336 1.8125 5.7969 0 2.3555-0.60547 4.2812-1.8125 5.7812-1.2109 1.5-2.7617 2.25-4.6562 2.25-1.0625 0-2.0078-0.21094-2.8281-0.625-0.8125-0.42578-1.5586-1.0859-2.2344-1.9844v2.2188h-4.8906v-21.281h4.8906z"/>
  </symbol>
  <symbol id="k" overflow="visible">
   <path d="m0.34375-15.312h4.8906l4.125 10.391 3.5-10.391h4.8906l-6.4375 16.766c-0.64844 1.6953-1.4023 2.8828-2.2656 3.5625-0.86719 0.6875-2 1.0312-3.4062 1.0312h-2.8438v-3.2188h1.5312c0.83203 0 1.4375-0.13672 1.8125-0.40625 0.38281-0.26172 0.67969-0.73047 0.89062-1.4062l0.14062-0.42188z"/>
  </symbol>
  <symbol id="j" overflow="visible">
   <path d="m16.781-19.766v4.3125c-1.125-0.5-2.2266-0.875-3.2969-1.125-1.0625-0.25781-2.0703-0.39062-3.0156-0.39062-1.25 0-2.1797 0.17969-2.7812 0.53125-0.60547 0.34375-0.90625 0.88281-0.90625 1.6094 0 0.54297 0.20312 0.96875 0.60938 1.2812 0.40625 0.30469 1.1406 0.5625 2.2031 0.78125l2.25 0.45312c2.2695 0.44922 3.8789 1.1406 4.8281 2.0781 0.95703 0.92969 1.4375 2.2461 1.4375 3.9531 0 2.25-0.66797 3.9297-2 5.0312-1.3359 1.0938-3.3711 1.6406-6.1094 1.6406-1.3047 0-2.6055-0.125-3.9062-0.375-1.3047-0.23828-2.6055-0.59766-3.9062-1.0781v-4.4531c1.3008 0.69922 2.5625 1.2266 3.7812 1.5781 1.2188 0.34375 2.3906 0.51562 3.5156 0.51562 1.1562 0 2.0352-0.1875 2.6406-0.5625 0.61328-0.38281 0.92188-0.9375 0.92188-1.6562 0-0.63281-0.21094-1.125-0.625-1.4688-0.41797-0.34375-1.2461-0.65625-2.4844-0.9375l-2.0312-0.4375c-2.043-0.4375-3.5391-1.1328-4.4844-2.0938-0.9375-0.95703-1.4062-2.25-1.4062-3.875 0-2.0312 0.65625-3.5938 1.9688-4.6875s3.1953-1.6406 5.6562-1.6406c1.125 0 2.2734 0.085938 3.4531 0.25 1.1875 0.16797 2.4141 0.42188 3.6875 0.76562z"/>
  </symbol>
  <symbol id="i" overflow="visible">
   <path d="m12.422-21.281v3.2188h-2.7031c-0.6875 0-1.1719 0.125-1.4531 0.375-0.27344 0.25-0.40625 0.6875-0.40625 1.3125v1.0625h4.1875v3.5h-4.1875v11.812h-4.8906v-11.812h-2.4375v-3.5h2.4375v-1.0625c0-1.6641 0.46094-2.8984 1.3906-3.7031 0.92578-0.80078 2.3672-1.2031 4.3281-1.2031z"/>
  </symbol>
  <symbol id="e" overflow="visible">
   <path d="m2.1875-5.9688v-9.3438h4.9219v1.5312c0 0.83594-0.007813 1.875-0.015625 3.125-0.011719 1.25-0.015625 2.0859-0.015625 2.5 0 1.2422 0.03125 2.1328 0.09375 2.6719 0.070313 0.54297 0.17969 0.93359 0.32812 1.1719 0.20703 0.32422 0.47266 0.57422 0.79688 0.75 0.32031 0.16797 0.69141 0.25 1.1094 0.25 1.0195 0 1.8203-0.39062 2.4062-1.1719 0.58203-0.78125 0.875-1.8672 0.875-3.2656v-7.5625h4.8906v15.312h-4.8906v-2.2188c-0.74219 0.89844-1.5234 1.5586-2.3438 1.9844-0.82422 0.41406-1.7344 0.625-2.7344 0.625-1.7617 0-3.1055-0.53906-4.0312-1.625-0.92969-1.082-1.3906-2.6602-1.3906-4.7344z"/>
  </symbol>
  <symbol id="h" overflow="visible">
   <path d="m2.3594-21.281h4.8906v21.281h-4.8906z"/>
  </symbol>
  <symbol id="v" overflow="visible">
   <path d="m2.5781-20.406h6.6875l4.6562 10.922 4.6719-10.922h6.6875v20.406h-4.9844v-14.938l-4.7031 11.016h-3.3281l-4.7031-11.016v14.938h-4.9844z"/>
  </symbol>
  <symbol id="u" overflow="visible">
   <path d="m14.312-14.828v3.7188c-1.043-0.4375-2.0547-0.76562-3.0312-0.98438-0.98047-0.21875-1.9023-0.32812-2.7656-0.32812-0.92969 0-1.6211 0.11719-2.0781 0.34375-0.44922 0.23047-0.67188 0.58984-0.67188 1.0781 0 0.38672 0.17188 0.68359 0.51562 0.89062 0.34375 0.21094 0.95703 0.36719 1.8438 0.46875l0.85938 0.125c2.5078 0.32422 4.1953 0.85156 5.0625 1.5781 0.86328 0.73047 1.2969 1.8711 1.2969 3.4219 0 1.6367-0.60547 2.8672-1.8125 3.6875-1.1992 0.8125-2.9922 1.2188-5.375 1.2188-1.0234 0-2.0742-0.078125-3.1562-0.23438-1.0742-0.15625-2.1797-0.39453-3.3125-0.71875v-3.7188c0.96875 0.48047 1.9609 0.83984 2.9844 1.0781 1.0312 0.23047 2.0781 0.34375 3.1406 0.34375 0.95703 0 1.6758-0.12891 2.1562-0.39062 0.47656-0.26953 0.71875-0.66406 0.71875-1.1875 0-0.4375-0.16797-0.75781-0.5-0.96875-0.33594-0.21875-0.99609-0.38281-1.9844-0.5l-0.85938-0.10938c-2.1797-0.26953-3.7031-0.77344-4.5781-1.5156-0.875-0.73828-1.3125-1.8594-1.3125-3.3594 0-1.625 0.55078-2.8281 1.6562-3.6094 1.1133-0.78906 2.8203-1.1875 5.125-1.1875 0.89453 0 1.8359 0.074219 2.8281 0.21875 1 0.13672 2.082 0.35156 3.25 0.64062z"/>
  </symbol>
  <symbol id="t" overflow="visible">
   <path d="m2.3594-15.312h4.8906v15.312h-4.8906zm0-5.9688h4.8906v4h-4.8906z"/>
  </symbol>
  <symbol id="g" overflow="visible">
   <path d="m16.547-12.766c0.61328-0.94531 1.3477-1.6719 2.2031-2.1719 0.85156-0.5 1.7891-0.75 2.8125-0.75 1.7578 0 3.0977 0.54688 4.0156 1.6406 0.92578 1.0859 1.3906 2.6562 1.3906 4.7188v9.3281h-4.9219v-7.9844-0.35938c0.007813-0.13281 0.015625-0.32031 0.015625-0.5625 0-1.082-0.16406-1.8633-0.48438-2.3438-0.3125-0.48828-0.82422-0.73438-1.5312-0.73438-0.92969 0-1.6484 0.38672-2.1562 1.1562-0.51172 0.76172-0.77344 1.8672-0.78125 3.3125v7.5156h-4.9219v-7.9844c0-1.6953-0.14844-2.7852-0.4375-3.2656-0.29297-0.48828-0.8125-0.73438-1.5625-0.73438-0.9375 0-1.6641 0.38672-2.1719 1.1562-0.51172 0.76172-0.76562 1.8594-0.76562 3.2969v7.5312h-4.9219v-15.312h4.9219v2.2344c0.60156-0.86328 1.2891-1.5156 2.0625-1.9531 0.78125-0.4375 1.6406-0.65625 2.5781-0.65625 1.0625 0 2 0.25781 2.8125 0.76562 0.8125 0.51172 1.4258 1.2305 1.8438 2.1562z"/>
  </symbol>
  <symbol id="d" overflow="visible">
   <path d="m9.6406-12.188c-1.0859 0-1.9141 0.39062-2.4844 1.1719-0.57422 0.78125-0.85938 1.9062-0.85938 3.375s0.28516 2.5938 0.85938 3.375c0.57031 0.77344 1.3984 1.1562 2.4844 1.1562 1.0625 0 1.875-0.38281 2.4375-1.1562 0.57031-0.78125 0.85938-1.9062 0.85938-3.375s-0.28906-2.5938-0.85938-3.375c-0.5625-0.78125-1.375-1.1719-2.4375-1.1719zm0-3.5c2.6328 0 4.6914 0.71484 6.1719 2.1406 1.4766 1.418 2.2188 3.3867 2.2188 5.9062 0 2.5117-0.74219 4.4805-2.2188 5.9062-1.4805 1.418-3.5391 2.125-6.1719 2.125-2.6484 0-4.7148-0.70703-6.2031-2.125-1.4922-1.4258-2.2344-3.3945-2.2344-5.9062 0-2.5195 0.74219-4.4883 2.2344-5.9062 1.4883-1.4258 3.5547-2.1406 6.2031-2.1406z"/>
  </symbol>
  <symbol id="s" overflow="visible">
   <path d="m17.75-9.3281v9.3281h-4.9219v-7.1094c0-1.3438-0.03125-2.2656-0.09375-2.7656s-0.16797-0.86719-0.3125-1.1094c-0.1875-0.3125-0.44922-0.55469-0.78125-0.73438-0.32422-0.17578-0.69531-0.26562-1.1094-0.26562-1.0234 0-1.8242 0.39844-2.4062 1.1875-0.58594 0.78125-0.875 1.8711-0.875 3.2656v7.5312h-4.8906v-21.281h4.8906v8.2031c0.73828-0.88281 1.5195-1.5391 2.3438-1.9688 0.83203-0.42578 1.75-0.64062 2.75-0.64062 1.7695 0 3.1133 0.54688 4.0312 1.6406 0.91406 1.0859 1.375 2.6562 1.375 4.7188z"/>
  </symbol>
  <symbol id="r" overflow="visible">
   <path d="m2.5781-20.406h5.875l7.4219 14v-14h4.9844v20.406h-5.875l-7.4219-14v14h-4.9844z"/>
  </symbol>
  <symbol id="q" overflow="visible">
   <path d="m17.75-9.3281v9.3281h-4.9219v-7.1406c0-1.3203-0.03125-2.2344-0.09375-2.7344s-0.16797-0.86719-0.3125-1.1094c-0.1875-0.3125-0.44922-0.55469-0.78125-0.73438-0.32422-0.17578-0.69531-0.26562-1.1094-0.26562-1.0234 0-1.8242 0.39844-2.4062 1.1875-0.58594 0.78125-0.875 1.8711-0.875 3.2656v7.5312h-4.8906v-15.312h4.8906v2.2344c0.73828-0.88281 1.5195-1.5391 2.3438-1.9688 0.83203-0.42578 1.75-0.64062 2.75-0.64062 1.7695 0 3.1133 0.54688 4.0312 1.6406 0.91406 1.0859 1.375 2.6562 1.375 4.7188z"/>
  </symbol>
  <symbol id="p" overflow="visible">
   <path d="m2.5781-20.406h8.7344c2.5938 0 4.582 0.57812 5.9688 1.7344 1.3945 1.1484 2.0938 2.7891 2.0938 4.9219 0 2.1367-0.69922 3.7812-2.0938 4.9375-1.3867 1.1562-3.375 1.7344-5.9688 1.7344h-3.4844v7.0781h-5.25zm5.25 3.8125v5.7031h2.9219c1.0195 0 1.8047-0.25 2.3594-0.75 0.5625-0.5 0.84375-1.2031 0.84375-2.1094 0-0.91406-0.28125-1.6172-0.84375-2.1094-0.55469-0.48828-1.3398-0.73438-2.3594-0.73438z"/>
  </symbol>
  <symbol id="o" overflow="visible">
   <path d="m2.3594-15.312h4.8906v15.031c0 2.0508-0.49609 3.6172-1.4844 4.7031-0.98047 1.082-2.4062 1.625-4.2812 1.625h-2.4219v-3.2188h0.85938c0.92578 0 1.5625-0.21094 1.9062-0.625 0.35156-0.41797 0.53125-1.2461 0.53125-2.4844zm0-5.9688h4.8906v4h-4.8906z"/>
  </symbol>
  <symbol id="n" overflow="visible">
   <path d="m14.719-14.828v3.9844c-0.65625-0.45703-1.3242-0.79688-2-1.0156-0.66797-0.21875-1.3594-0.32812-2.0781-0.32812-1.3672 0-2.4336 0.40234-3.2031 1.2031-0.76172 0.79297-1.1406 1.9062-1.1406 3.3438 0 1.4297 0.37891 2.543 1.1406 3.3438 0.76953 0.79297 1.8359 1.1875 3.2031 1.1875 0.75781 0 1.4844-0.10938 2.1719-0.32812 0.6875-0.22656 1.3203-0.56641 1.9062-1.0156v4c-0.76172 0.28125-1.5391 0.48828-2.3281 0.625-0.78125 0.14453-1.5742 0.21875-2.375 0.21875-2.7617 0-4.9219-0.70703-6.4844-2.125-1.5547-1.4141-2.3281-3.3828-2.3281-5.9062 0-2.5312 0.77344-4.5039 2.3281-5.9219 1.5625-1.4141 3.7227-2.125 6.4844-2.125 0.80078 0 1.5938 0.074219 2.375 0.21875 0.78125 0.13672 1.5547 0.35156 2.3281 0.64062z"/>
  </symbol>
 </defs>
 <g>
  <path d="m466.65 94.922c-19.977-20.531-44.984-35.559-75.039-45.078-1.8633-0.56641-3.2656-1.6797-4.1992-3.3672-0.93359-1.6797-1.0312-3.4492-0.28125-5.3125 0.55859-1.8711 1.6797-3.2695 3.3594-4.1992 1.6797-0.93359 3.457-1.0312 5.3203-0.28516 32.48 10.086 59.457 26.23 80.922 48.441 1.4961 1.4961 2.2344 3.168 2.2344 5.0391 0 1.8633-0.74609 3.4492-2.2344 4.7617-1.4883 1.3086-3.2656 1.9609-5.3203 1.9609-1.8672-0.003906-3.457-0.65234-4.7617-1.9609zm-105.56-66.922c3.1758 0.375 5.7852 1.1211 7.8398 2.2383 7.0938 3.7344 13.25 15.023 18.48 33.879l3.9219 19.32c2.8008 17.168 4.1992 36.586 4.1992 58.234 0 24.27-1.7695 45.27-5.3203 63l-1.3984 7.5664c-0.37109 2.2344-1.5859 4.0156-3.6406 5.3203-0.74609 0.37109-1.7695 0.55859-3.0781 0.55859-1.4961 0-2.6133-0.18359-3.3594-0.55859-12.32-6.1641-23.801-6.2539-34.441-0.28516-2.0508 1.3086-4.1055 1.5-6.1602 0.56641-1.8633-0.75-3.2656-2.3359-4.1992-4.7656l-1.3984-8.6797c-3.5508-17.734-5.3203-38.633-5.3203-62.719 0-30.613 2.6133-56.465 7.8398-77.559 6.3438-23.703 14.93-35.746 25.762-36.121h0.27344zm1.6797 14.84-1.9609-0.56641c-4.2969 2.4297-8.3047 11.016-12.039 25.766-5.0352 19.969-7.5586 44.52-7.5586 73.633 0 22.031 1.5859 41.91 4.7617 59.641 4.8555-1.6797 9.8008-2.5195 14.84-2.5195 5.2305 0 10.457 0.83984 15.68 2.5195 3.3672-16.984 5.0391-36.863 5.0391-59.641 0-22.215-1.3047-40.785-3.9219-55.715l-3.9219-18.199c-3.5391-13.438-7.1836-21.742-10.918-24.918zm42.285 40.324c5.7852 2.4297 12.129 5.8789 19.035 10.359 1.6797 0.93359 2.7031 2.4297 3.0781 4.4805 0.375 1.8633 0 3.5508-1.1133 5.0391-1.3047 2.2383-3.2734 3.3555-5.8867 3.3555-1.1133 0-2.3281-0.46484-3.6328-1.3984-6.1641-3.7344-11.766-6.625-16.801-8.6797-1.8633-0.74609-3.168-2.0547-3.9219-3.9219-0.74609-1.8633-0.74609-3.6328 0-5.3203 0.75-1.8633 2.0547-3.168 3.9219-3.9141 1.8633-0.75 3.6328-0.75 5.3203 0zm-44.52 154.84c-5.2305 0-9.7031 1.8633-13.441 5.6016-3.543 3.5508-5.3203 7.9336-5.3203 13.164 0 4.6641 1.7734 8.9609 5.3203 12.879 3.7344 3.7344 8.2148 5.6016 13.441 5.6016 5.2266 0 9.5195-1.8633 12.879-5.6016 3.9219-3.5508 5.8789-7.8398 5.8789-12.879 0-5.2305-1.8633-9.7031-5.6016-13.441-3.9219-3.5508-8.3086-5.3242-13.156-5.3242zm44.797 24.641c2.0508-1.4961 4.1055-1.7734 6.1602-0.83984l7.5664 2.8008c17.914 6.9062 36.77 16.895 56.559 29.965 25.016 16.051 45.078 32.098 60.199 48.16 15.68 17.543 21.371 30.895 17.078 40.039l-1.1211 2.2344-4.4805 4.1992h-0.28125c-2.9844 1.8633-7 2.8008-12.039 2.8008-7.6484 0-16.801-1.8633-27.434-5.6016l-17.922-6.4336c-16.801-7.4688-33.879-16.703-51.238-27.719-19.785-12.879-36.68-25.766-50.68-38.641l-5.6016-6.1602c-1.4961-1.4961-2.0508-3.3672-1.6797-5.6016 0.37109-2.2383 1.4961-3.9219 3.3594-5.0391 11.574-7.0938 17.734-16.703 18.484-28.836-0.007813-2.4336 1.0156-4.2031 3.0703-5.3281zm-21.844 17.078c-6.3438 6.3438-14 9.5195-22.961 9.5195-8.9648 0-16.703-3.2656-23.238-9.8008-6.3438-6.3516-9.5195-13.906-9.5195-22.68 0-8.7734 3.0859-16.613 9.2383-23.52 6.9062-6.3516 14.75-9.5195 23.52-9.5195 8.9609 0 16.613 3.168 22.961 9.5195 6.5352 6.7188 9.8008 14.559 9.8008 23.52 0 8.7773-3.2656 16.434-9.8008 22.961zm128.52 93.52c13.254 4.4805 22.398 5.8789 27.441 4.1992l0.83594-0.83984c0.93359-4.2969-4.1055-12.32-15.121-24.078-13.625-14.746-32.762-30.238-57.398-46.48-18.664-12.137-36.301-21.465-52.914-28-2.6133 10.449-8.2148 19.035-16.801 25.762 12.504 11.574 28.465 23.703 47.879 36.398 16.984 11.016 33.32 19.977 49 26.879zm-29.398 17.926c-6.3438 4.4805-12.879 8.1133-19.602 10.914l-2.5195 0.28516c-2.9844 0-5.2266-1.3984-6.7188-4.1992-0.74609-1.6875-0.74609-3.457 0-5.3203 0.75-1.8633 2.0547-3.1758 3.9219-3.9219 5.7852-2.2383 11.297-5.3203 16.52-9.2383 1.6797-1.1133 3.5508-1.4883 5.6016-1.1133 1.8633 0.37109 3.3594 1.3008 4.4805 2.8008 1.1211 1.4961 1.4961 3.2656 1.1211 5.3125-0.37891 1.8672-1.3164 3.3555-2.8047 4.4805zm43.676 18.203c-25.945 21.094-54.035 34.898-84.281 41.434l-1.6797 0.28125c-3.5508 0-5.7852-1.8633-6.7188-5.6016-0.37109-1.8633 0-3.6328 1.1211-5.3125 0.93359-1.6875 2.3359-2.7031 4.1992-3.0859 28.184-5.9688 54.414-18.945 78.68-38.914 1.4961-1.3047 3.168-1.7695 5.0391-1.3984 1.8633 0.18359 3.4492 1.0312 4.7617 2.5156 1.3047 1.5 1.8633 3.2695 1.6797 5.3203-0.37109 1.8594-1.3086 3.4492-2.8008 4.7617zm-148.96-82.602c7.4648 31.914 14.559 95.664 21.281 191.23h29.398c1.8633 0 3.5508 0.75 5.0391 2.2383 1.3047 1.3047 1.9609 2.8945 1.9609 4.7617 0 2.0547-0.64844 3.7344-1.9609 5.0391-1.3086 1.3047-2.9805 1.9609-5.0391 1.9609h-143.92c-1.8633 0-3.543-0.64844-5.0352-1.9609-1.3047-1.3047-1.9648-2.9844-1.9648-5.0391 0-1.8633 0.65625-3.4492 1.9648-4.7617 1.4961-1.4961 3.168-2.2383 5.0352-2.2383h29.965c5.7852-61.41 11.199-108.27 16.234-140.56 3.5508-22.398 6.7188-39.297 9.5195-50.68 2.6133-9.9023 5.2305-16.984 7.8398-21.285 3.3594-5.2266 7.4648-7.6484 12.312-7.2812 7.1094 0.57031 12.895 10.086 17.371 28.57zm-23.797 3.6328c-2.8008 10.266-5.9688 26.602-9.5195 49-4.8477 33.039-10.168 79.238-15.961 138.6h56.559c-8.2148-117.23-16.801-184.98-25.762-203.28-2.0547 4.2969-3.8281 9.5195-5.3164 15.68zm-190.12-81.477c0.93359 1.6797 1.2148 3.457 0.83984 5.3203-6.7188 28-5.9766 57.121 2.2344 87.359 0.375 1.8633 0.09375 3.6406-0.83594 5.3203-0.93359 1.8711-2.3359 3.0781-4.1992 3.6406l-1.9648-0.003906c-3.543 0-5.7852-1.7695-6.7188-5.3203-8.5859-31.922-9.3281-63.281-2.2344-94.078 0.37109-1.8711 1.3984-3.3672 3.0781-4.4844 1.6797-0.92969 3.457-1.2148 5.3203-0.83594 1.8633 0.375 3.3555 1.3984 4.4805 3.082zm142.52 8.957c2.0508-0.92969 4.0156-0.74609 5.8789 0.56641 1.6797 1.1211 2.7031 2.8945 3.0781 5.3203 1.6797 13.629 7.75 23.43 18.199 29.398 1.8711 0.92969 2.9844 2.6133 3.3672 5.0352 0.37109 2.6133-0.28516 4.5742-1.9648 5.8789l-5.6016 5.6016c-14 13.254-30.895 26.137-50.68 38.641-25.199 15.871-48.535 27.07-70 33.602-10.266 3.543-19.137 5.3203-26.602 5.3203-8.2148 0-14-2.4297-17.359-7.2812-1.4961-2.8008-2.3359-5.2305-2.5195-7.2852-0.75-8.7695 5.4141-20.25 18.48-34.434l13.719-14 0.83984-0.5625c13.254-11.016 28.934-22.215 47.039-33.602 19.602-12.312 38.359-22.113 56.281-29.398zm12.602 42.285c-7.8398-6.5352-13.164-15.215-15.965-26.039-16.801 6.9062-34.531 16.336-53.199 28.281-17.914 10.832-33.035 21.465-45.359 31.922l-13.441 13.719c-10.078 10.633-15.113 18.297-15.113 22.961l0.55859 1.3984c0.18359 0 1.9609 0.28125 5.3203 0.83984 5.6016 0 13.16-1.4961 22.68-4.4805 20.16-6.1641 42.371-17.086 66.641-32.766 19.031-11.762 34.996-23.703 47.879-35.836zm-117.32 10.637c0.37109 1.8633 0 3.5508-1.1211 5.0391-0.92969 1.6797-2.4258 2.7031-4.4805 3.0781l-1.3984 0.28125c-1.4961 0-2.8945-0.55859-4.1992-1.6797-1.3047-1.1211-2.1445-2.5195-2.5195-4.1992-1.4961-7.6562-1.9609-15.031-1.3984-22.121 0-1.8633 0.75-3.4492 2.2383-4.7617 1.3047-1.3047 2.9844-1.8633 5.0352-1.6797 1.8711 0 3.457 0.74609 4.7656 2.2344 1.3047 1.3047 1.8633 3.0781 1.6797 5.3203-0.19141 5.4219 0.27344 11.582 1.3984 18.488z" fill-rule="evenodd"/>
  <use x="70" y="644" xlink:href="#w"/>
  <use x="90.550781" y="644" xlink:href="#c"/>
  <use x="104.359375" y="644" xlink:href="#a"/>
  <use x="123.347656" y="644" xlink:href="#f"/>
  <use x="142.242188" y="644" xlink:href="#b"/>
  <use x="155.628906" y="644" xlink:href="#a"/>
  <use x="174.617188" y="644" xlink:href="#m"/>
  <use x="204.410156" y="644" xlink:href="#l"/>
  <use x="224.453125" y="644" xlink:href="#k"/>
  <use x="252.453125" y="644" xlink:href="#j"/>
  <use x="272.617188" y="644" xlink:href="#f"/>
  <use x="291.511719" y="644" xlink:href="#a"/>
  <use x="310.5" y="644" xlink:href="#i"/>
  <use x="322.683594" y="644" xlink:href="#e"/>
  <use x="342.617188" y="644" xlink:href="#h"/>
  <use x="361.960938" y="644" xlink:href="#v"/>
  <use x="389.828125" y="644" xlink:href="#e"/>
  <use x="409.757812" y="644" xlink:href="#u"/>
  <use x="426.425781" y="644" xlink:href="#h"/>
  <use x="436.023438" y="644" xlink:href="#t"/>
  <use x="445.621094" y="644" xlink:href="#g"/>
  <use x="70" y="672" xlink:href="#i"/>
  <use x="82.183594" y="672" xlink:href="#c"/>
  <use x="95.992188" y="672" xlink:href="#d"/>
  <use x="115.226562" y="672" xlink:href="#g"/>
  <use x="154.152344" y="672" xlink:href="#b"/>
  <use x="167.535156" y="672" xlink:href="#s"/>
  <use x="187.46875" y="672" xlink:href="#a"/>
  <use x="216.207031" y="672" xlink:href="#r"/>
  <use x="239.640625" y="672" xlink:href="#d"/>
  <use x="258.878906" y="672" xlink:href="#e"/>
  <use x="278.8125" y="672" xlink:href="#q"/>
  <use x="308.492188" y="672" xlink:href="#p"/>
  <use x="329.015625" y="672" xlink:href="#c"/>
  <use x="342.820312" y="672" xlink:href="#d"/>
  <use x="362.058594" y="672" xlink:href="#o"/>
  <use x="371.65625" y="672" xlink:href="#a"/>
  <use x="390.648438" y="672" xlink:href="#n"/>
  <use x="407.242188" y="672" xlink:href="#b"/>
 </g>
</svg>
