<?xml version="1.0" encoding="UTF-8" standalone="no"?>
<!-- Created with Inkscape (http://www.inkscape.org/) -->

<svg
   version="1.1"
   id="svg2"
   width="1878.4008"
   height="1566.0223"
   viewBox="0 0 1878.4008 1566.0223"
   sodipodi:docname="CTS Region.svg"
   inkscape:version="1.1.2 (b8e25be833, 2022-02-05)"
   xmlns:inkscape="http://www.inkscape.org/namespaces/inkscape"
   xmlns:sodipodi="http://sodipodi.sourceforge.net/DTD/sodipodi-0.dtd"
   xmlns:xlink="http://www.w3.org/1999/xlink"
   xmlns="http://www.w3.org/2000/svg"
   xmlns:svg="http://www.w3.org/2000/svg">
  <defs
     id="defs6">
    <marker
       style="overflow:visible;"
       id="Arrow2Send"
       refX="0.0"
       refY="0.0"
       orient="auto"
       inkscape:stockid="Arrow2Send"
       inkscape:isstock="true">
      <path
         transform="scale(0.3) rotate(180) translate(-2.3,0)"
         d="M 8.7185878,4.0337352 L -2.2072895,0.016013256 L 8.7185884,-4.0017078 C 6.9730900,-1.6296469 6.9831476,1.6157441 8.7185878,4.0337352 z "
         style="stroke:context-stroke;fill-rule:evenodd;fill:context-stroke;stroke-width:0.62500000;stroke-linejoin:round;"
         id="path32279" />
    </marker>
    <linearGradient
       inkscape:collect="always"
       id="linearGradient5718">
      <stop
         style="stop-color:#ceffad;stop-opacity:1;"
         offset="0"
         id="stop5714" />
      <stop
         style="stop-color:#ceffad;stop-opacity:0;"
         offset="1"
         id="stop5716" />
    </linearGradient>
    <linearGradient
       inkscape:collect="always"
       id="linearGradient5122">
      <stop
         style="stop-color:#348800;stop-opacity:1;"
         offset="0"
         id="stop5118" />
      <stop
         style="stop-color:#348800;stop-opacity:0;"
         offset="1"
         id="stop5120" />
    </linearGradient>
    <linearGradient
       inkscape:collect="always"
       id="linearGradient15411">
      <stop
         style="stop-color:#deb996;stop-opacity:1"
         offset="0"
         id="stop15407" />
      <stop
         style="stop-color:#f6fcfd;stop-opacity:0"
         offset="1"
         id="stop15409" />
    </linearGradient>
    <linearGradient
       inkscape:collect="always"
       id="linearGradient14648">
      <stop
         style="stop-color:#97a2de;stop-opacity:1"
         offset="0"
         id="stop14644" />
      <stop
         style="stop-color:#f6fcfd;stop-opacity:0"
         offset="1"
         id="stop14646" />
    </linearGradient>
    <linearGradient
       inkscape:collect="always"
       id="linearGradient2179">
      <stop
         style="stop-color:#97cbde;stop-opacity:1"
         offset="0"
         id="stop2175" />
      <stop
         style="stop-color:#f6fcfd;stop-opacity:0"
         offset="1"
         id="stop2177" />
    </linearGradient>
    <linearGradient
       inkscape:collect="always"
       id="linearGradient855">
      <stop
         style="stop-color:#435055;stop-opacity:1"
         offset="0"
         id="stop851" />
      <stop
         style="stop-color:#6d6d6d;stop-opacity:0"
         offset="1"
         id="stop853" />
    </linearGradient>
    <radialGradient
       inkscape:collect="always"
       xlink:href="#linearGradient855"
       id="radialGradient865"
       cx="493.79834"
       cy="1698.8585"
       fx="493.79834"
       fy="1698.8585"
       r="62.650856"
       gradientTransform="matrix(4.2252024,-0.76875258,2.5420361,23.40128,-5345.6424,-40463.177)"
       gradientUnits="userSpaceOnUse" />
    <radialGradient
       inkscape:collect="always"
       xlink:href="#linearGradient14648"
       id="radialGradient1817"
       gradientUnits="userSpaceOnUse"
       gradientTransform="matrix(1.8443682,-0.88701573,-0.02251347,33.279135,-644.79904,-57185.859)"
       cx="493.79834"
       cy="1698.8585"
       fx="493.79834"
       fy="1698.8585"
       r="62.650856" />
    <filter
       inkscape:collect="always"
       style="color-interpolation-filters:sRGB"
       id="filter2517-39-8"
       x="-0.1349446"
       y="-0.1349446"
       width="1.2698892"
       height="1.2698892">
      <feGaussianBlur
         inkscape:collect="always"
         stdDeviation="0.4563102"
         id="feGaussianBlur2519-1-7" />
    </filter>
    <filter
       inkscape:collect="always"
       style="color-interpolation-filters:sRGB"
       id="filter2517-3-6-5"
       x="-0.1349446"
       y="-0.1349446"
       width="1.2698892"
       height="1.2698892">
      <feGaussianBlur
         inkscape:collect="always"
         stdDeviation="0.4563102"
         id="feGaussianBlur2519-6-6-8" />
    </filter>
    <marker
       style="overflow:visible"
       id="marker5556-2-63-4"
       refX="0"
       refY="0"
       orient="auto"
       inkscape:stockid="Arrow2Lend"
       inkscape:isstock="true">
      <path
         transform="matrix(-1.1,0,0,-1.1,-1.1,0)"
         d="M 8.7185878,4.0337352 -2.2072895,0.01601326 8.7185884,-4.0017078 c -1.7454984,2.3720609 -1.7354408,5.6174519 -6e-7,8.035443 z"
         style="fill:context-stroke;fill-rule:evenodd;stroke:context-stroke;stroke-width:0.625;stroke-linejoin:round"
         id="path5316-5-53-3" />
    </marker>
    <linearGradient
       inkscape:collect="always"
       id="linearGradient45300">
      <stop
         style="stop-color:#5698ff;stop-opacity:1"
         offset="0"
         id="stop45296" />
      <stop
         style="stop-color:#ff4e4e;stop-opacity:1"
         offset="1"
         id="stop45298" />
    </linearGradient>
    <filter
       inkscape:collect="always"
       style="color-interpolation-filters:sRGB"
       id="filter45936"
       x="-0.23917294"
       y="-0.15902663"
       width="1.4783459"
       height="1.3180533">
      <feGaussianBlur
         inkscape:collect="always"
         stdDeviation="2.0558833"
         id="feGaussianBlur45938" />
    </filter>
    <filter
       inkscape:collect="always"
       style="color-interpolation-filters:sRGB"
       id="filter11067"
       x="-0.074037575"
       y="-0.28623161"
       width="1.1480751"
       height="1.5724632">
      <feGaussianBlur
         inkscape:collect="always"
         stdDeviation="14.527836"
         id="feGaussianBlur11069" />
    </filter>
    <marker
       style="overflow:visible"
       id="marker5556-2-4-0-3-3"
       refX="0"
       refY="0"
       orient="auto"
       inkscape:stockid="Arrow2Lend"
       inkscape:isstock="true">
      <path
         transform="matrix(-1.1,0,0,-1.1,-1.1,0)"
         d="M 8.7185878,4.0337352 -2.2072895,0.01601326 8.7185884,-4.0017078 c -1.7454984,2.3720609 -1.7354408,5.6174519 -6e-7,8.035443 z"
         style="fill:context-stroke;fill-rule:evenodd;stroke:context-stroke;stroke-width:0.625;stroke-linejoin:round"
         id="path5316-5-0-2-4-50" />
    </marker>
    <marker
       style="overflow:visible"
       id="marker1718"
       refX="0"
       refY="0"
       orient="auto"
       inkscape:stockid="Arrow2Lend"
       inkscape:isstock="true">
      <path
         transform="matrix(-1.1,0,0,-1.1,-1.1,0)"
         d="M 8.7185878,4.0337352 -2.2072895,0.01601326 8.7185884,-4.0017078 c -1.7454984,2.3720609 -1.7354408,5.6174519 -6e-7,8.035443 z"
         style="fill:context-stroke;fill-rule:evenodd;stroke:context-stroke;stroke-width:0.625;stroke-linejoin:round"
         id="path1716" />
    </marker>
    <marker
       style="overflow:visible"
       id="marker1726"
       refX="0"
       refY="0"
       orient="auto"
       inkscape:stockid="Arrow2Lend"
       inkscape:isstock="true">
      <path
         transform="matrix(-1.1,0,0,-1.1,-1.1,0)"
         d="M 8.7185878,4.0337352 -2.2072895,0.01601326 8.7185884,-4.0017078 c -1.7454984,2.3720609 -1.7354408,5.6174519 -6e-7,8.035443 z"
         style="fill:context-stroke;fill-rule:evenodd;stroke:context-stroke;stroke-width:0.625;stroke-linejoin:round"
         id="path1724" />
    </marker>
    <marker
       style="overflow:visible"
       id="marker1741"
       refX="0"
       refY="0"
       orient="auto"
       inkscape:stockid="Arrow2Lend"
       inkscape:isstock="true">
      <path
         transform="matrix(-1.1,0,0,-1.1,-1.1,0)"
         d="M 8.7185878,4.0337352 -2.2072895,0.01601326 8.7185884,-4.0017078 c -1.7454984,2.3720609 -1.7354408,5.6174519 -6e-7,8.035443 z"
         style="fill:context-stroke;fill-rule:evenodd;stroke:context-stroke;stroke-width:0.625;stroke-linejoin:round"
         id="path1739" />
    </marker>
    <marker
       style="overflow:visible"
       id="marker1749"
       refX="0"
       refY="0"
       orient="auto"
       inkscape:stockid="Arrow2Lend"
       inkscape:isstock="true">
      <path
         transform="matrix(-1.1,0,0,-1.1,-1.1,0)"
         d="M 8.7185878,4.0337352 -2.2072895,0.01601326 8.7185884,-4.0017078 c -1.7454984,2.3720609 -1.7354408,5.6174519 -6e-7,8.035443 z"
         style="fill:context-stroke;fill-rule:evenodd;stroke:context-stroke;stroke-width:0.625;stroke-linejoin:round"
         id="path1747" />
    </marker>
    <marker
       style="overflow:visible"
       id="marker1764"
       refX="0"
       refY="0"
       orient="auto"
       inkscape:stockid="Arrow2Lend"
       inkscape:isstock="true">
      <path
         transform="matrix(-1.1,0,0,-1.1,-1.1,0)"
         d="M 8.7185878,4.0337352 -2.2072895,0.01601326 8.7185884,-4.0017078 c -1.7454984,2.3720609 -1.7354408,5.6174519 -6e-7,8.035443 z"
         style="fill:context-stroke;fill-rule:evenodd;stroke:context-stroke;stroke-width:0.625;stroke-linejoin:round"
         id="path1762" />
    </marker>
    <radialGradient
       inkscape:collect="always"
       xlink:href="#linearGradient2179"
       id="radialGradient13522"
       gradientUnits="userSpaceOnUse"
       gradientTransform="matrix(4.2252024,-0.76875258,2.5420361,23.40128,-6261.367,-40463.177)"
       cx="493.79834"
       cy="1698.8585"
       fx="493.79834"
       fy="1698.8585"
       r="62.650856" />
    <radialGradient
       inkscape:collect="always"
       xlink:href="#linearGradient15411"
       id="radialGradient14860"
       gradientUnits="userSpaceOnUse"
       gradientTransform="matrix(1.8443682,-0.88701573,-0.02251347,33.279135,102.70756,-57185.859)"
       cx="493.79834"
       cy="1698.8585"
       fx="493.79834"
       fy="1698.8585"
       r="62.650856" />
    <symbol
       id="v"
       overflow="visible">
      <path
         d="m18.766-1.125c-0.96875 0.5-1.9805 0.875-3.0312 1.125-1.043 0.25781-2.1367 0.39062-3.2812 0.39062-3.3984 0-6.0898-0.94531-8.0781-2.8438-1.9922-1.9062-2.9844-4.4844-2.9844-7.7344 0-3.2578 0.99219-5.8359 2.9844-7.7344 1.9883-1.9062 4.6797-2.8594 8.0781-2.8594 1.1445 0 2.2383 0.13281 3.2812 0.39062 1.0508 0.25 2.0625 0.625 3.0312 1.125v4.2188c-0.98047-0.65625-1.9453-1.1406-2.8906-1.4531-0.94922-0.3125-1.9492-0.46875-3-0.46875-1.875 0-3.3516 0.60547-4.4219 1.8125-1.0742 1.1992-1.6094 2.8555-1.6094 4.9688 0 2.1055 0.53516 3.7617 1.6094 4.9688 1.0703 1.1992 2.5469 1.7969 4.4219 1.7969 1.0508 0 2.0508-0.14844 3-0.45312 0.94531-0.3125 1.9102-0.80078 2.8906-1.4688z"
         id="path30357" />
    </symbol>
    <symbol
       id="b"
       overflow="visible">
      <path
         d="m13.734-11.141c-0.4375-0.19531-0.87109-0.34375-1.2969-0.4375-0.41797-0.10156-0.83984-0.15625-1.2656-0.15625-1.2617 0-2.2305 0.40625-2.9062 1.2188-0.67969 0.80469-1.0156 1.9531-1.0156 3.4531v7.0625h-4.8906v-15.312h4.8906v2.5156c0.625-1 1.3438-1.7266 2.1562-2.1875 0.82031-0.46875 1.8008-0.70312 2.9375-0.70312 0.16406 0 0.34375 0.011719 0.53125 0.03125 0.19531 0.011719 0.47656 0.039062 0.84375 0.078125z"
         id="path30360" />
    </symbol>
    <symbol
       id="a"
       overflow="visible">
      <path
         d="m17.641-7.7031v1.4062h-11.453c0.125 1.1484 0.53906 2.0078 1.25 2.5781 0.70703 0.57422 1.7031 0.85938 2.9844 0.85938 1.0312 0 2.082-0.14844 3.1562-0.45312 1.082-0.3125 2.1914-0.77344 3.3281-1.3906v3.7656c-1.1562 0.4375-2.3125 0.76562-3.4688 0.98438-1.1562 0.22656-2.3125 0.34375-3.4688 0.34375-2.7734 0-4.9297-0.70312-6.4688-2.1094-1.5312-1.4062-2.2969-3.3789-2.2969-5.9219 0-2.5 0.75391-4.4609 2.2656-5.8906 1.5078-1.4375 3.582-2.1562 6.2188-2.1562 2.4062 0 4.332 0.73047 5.7812 2.1875 1.4453 1.4492 2.1719 3.3828 2.1719 5.7969zm-5.0312-1.625c0-0.92578-0.27344-1.6719-0.8125-2.2344-0.54297-0.57031-1.25-0.85938-2.125-0.85938-0.94922 0-1.7188 0.26562-2.3125 0.79688s-0.96484 1.2969-1.1094 2.2969z"
         id="path30363" />
    </symbol>
    <symbol
       id="j"
       overflow="visible">
      <path
         d="m9.2188-6.8906c-1.0234 0-1.793 0.17188-2.3125 0.51562-0.51172 0.34375-0.76562 0.85547-0.76562 1.5312 0 0.625 0.20703 1.1172 0.625 1.4688 0.41406 0.34375 0.98828 0.51562 1.7188 0.51562 0.92578 0 1.7031-0.32812 2.3281-0.98438 0.63281-0.66406 0.95312-1.4922 0.95312-2.4844v-0.5625zm7.4688-1.8438v8.7344h-4.9219v-2.2656c-0.65625 0.92969-1.3984 1.6055-2.2188 2.0312-0.82422 0.41406-1.8242 0.625-3 0.625-1.5859 0-2.8711-0.45703-3.8594-1.375-0.99219-0.92578-1.4844-2.1289-1.4844-3.6094 0-1.7891 0.61328-3.1016 1.8438-3.9375 1.2383-0.84375 3.1797-1.2656 5.8281-1.2656h2.8906v-0.39062c0-0.76953-0.30859-1.332-0.92188-1.6875-0.61719-0.36328-1.5703-0.54688-2.8594-0.54688-1.0547 0-2.0312 0.10547-2.9375 0.3125-0.89844 0.21094-1.7305 0.52344-2.5 0.9375v-3.7344c1.0391-0.25 2.0859-0.44141 3.1406-0.57812 1.0625-0.13281 2.125-0.20312 3.1875-0.20312 2.7578 0 4.75 0.54688 5.9688 1.6406 1.2266 1.0859 1.8438 2.8555 1.8438 5.3125z"
         id="path30366" />
    </symbol>
    <symbol
       id="e"
       overflow="visible">
      <path
         d="m7.7031-19.656v4.3438h5.0469v3.5h-5.0469v6.5c0 0.71094 0.14062 1.1875 0.42188 1.4375s0.83594 0.375 1.6719 0.375h2.5156v3.5h-4.1875c-1.9375 0-3.3125-0.39844-4.125-1.2031-0.80469-0.8125-1.2031-2.1797-1.2031-4.1094v-6.5h-2.4219v-3.5h2.4219v-4.3438z"
         id="path30369" />
    </symbol>
    <symbol
       id="g"
       overflow="visible">
      <path
         d="m12.766-13.078v-8.2031h4.9219v21.281h-4.9219v-2.2188c-0.66797 0.90625-1.4062 1.5703-2.2188 1.9844s-1.7578 0.625-2.8281 0.625c-1.8867 0-3.4336-0.75-4.6406-2.25-1.2109-1.5-1.8125-3.4258-1.8125-5.7812 0-2.3633 0.60156-4.2969 1.8125-5.7969 1.207-1.5 2.7539-2.25 4.6406-2.25 1.0625 0 2 0.21484 2.8125 0.64062 0.82031 0.42969 1.5664 1.0859 2.2344 1.9688zm-3.2188 9.9219c1.0391 0 1.8359-0.37891 2.3906-1.1406 0.55078-0.76953 0.82812-1.8828 0.82812-3.3438 0-1.457-0.27734-2.5664-0.82812-3.3281-0.55469-0.76953-1.3516-1.1562-2.3906-1.1562-1.043 0-1.8398 0.38672-2.3906 1.1562-0.55469 0.76172-0.82812 1.8711-0.82812 3.3281 0 1.4609 0.27344 2.5742 0.82812 3.3438 0.55078 0.76172 1.3477 1.1406 2.3906 1.1406z"
         id="path30372" />
    </symbol>
    <symbol
       id="d"
       overflow="visible">
      <path
         d="m10.5-3.1562c1.0508 0 1.8516-0.37891 2.4062-1.1406 0.55078-0.76953 0.82812-1.8828 0.82812-3.3438 0-1.457-0.27734-2.5664-0.82812-3.3281-0.55469-0.76953-1.3555-1.1562-2.4062-1.1562-1.0547 0-1.8594 0.38672-2.4219 1.1562-0.55469 0.77344-0.82812 1.8828-0.82812 3.3281 0 1.4492 0.27344 2.5586 0.82812 3.3281 0.5625 0.77344 1.3672 1.1562 2.4219 1.1562zm-3.25-9.9219c0.67578-0.88281 1.4219-1.5391 2.2344-1.9688 0.82031-0.42578 1.7656-0.64062 2.8281-0.64062 1.8945 0 3.4453 0.75 4.6562 2.25 1.207 1.5 1.8125 3.4336 1.8125 5.7969 0 2.3555-0.60547 4.2812-1.8125 5.7812-1.2109 1.5-2.7617 2.25-4.6562 2.25-1.0625 0-2.0078-0.21094-2.8281-0.625-0.8125-0.42578-1.5586-1.0859-2.2344-1.9844v2.2188h-4.8906v-21.281h4.8906z"
         id="path30375" />
    </symbol>
    <symbol
       id="f"
       overflow="visible">
      <path
         d="m0.34375-15.312h4.8906l4.125 10.391 3.5-10.391h4.8906l-6.4375 16.766c-0.64844 1.6953-1.4023 2.8828-2.2656 3.5625-0.86719 0.6875-2 1.0312-3.4062 1.0312h-2.8438v-3.2188h1.5312c0.83203 0 1.4375-0.13672 1.8125-0.40625 0.38281-0.26172 0.67969-0.73047 0.89062-1.4062l0.14062-0.42188z"
         id="path30378" />
    </symbol>
    <symbol
       id="i"
       overflow="visible">
      <path
         d="m0.14062-20.406h18.812v3.9688h-6.7656v16.438h-5.2656v-16.438h-6.7812z"
         id="path30381" />
    </symbol>
    <symbol
       id="h"
       overflow="visible">
      <path
         d="m2.3594-21.281h4.8906v21.281h-4.8906z"
         id="path30384" />
    </symbol>
    <symbol
       id="u"
       overflow="visible">
      <path
         d="m20.922-1.5156c-1.3125 0.63672-2.6797 1.1172-4.0938 1.4375-1.4062 0.3125-2.8672 0.46875-4.375 0.46875-3.3984 0-6.0898-0.94531-8.0781-2.8438-1.9922-1.9062-2.9844-4.4844-2.9844-7.7344 0-3.2891 1.0078-5.8789 3.0312-7.7656 2.0312-1.8828 4.8047-2.8281 8.3281-2.8281 1.3516 0 2.6484 0.13281 3.8906 0.39062 1.25 0.25 2.4258 0.625 3.5312 1.125v4.2188c-1.1484-0.64453-2.2812-1.125-3.4062-1.4375-1.125-0.32031-2.25-0.48438-3.375-0.48438-2.1055 0-3.7266 0.58984-4.8594 1.7656-1.125 1.168-1.6875 2.8398-1.6875 5.0156 0 2.1562 0.54688 3.8242 1.6406 5 1.0938 1.1797 2.6445 1.7656 4.6562 1.7656 0.53906 0 1.0469-0.03125 1.5156-0.09375 0.47656-0.070313 0.89844-0.17969 1.2656-0.32812v-3.9688h-3.2031v-3.5156h8.2031z"
         id="path30387" />
    </symbol>
    <symbol
       id="c"
       overflow="visible">
      <path
         d="m9.6406-12.188c-1.0859 0-1.9141 0.39062-2.4844 1.1719-0.57422 0.78125-0.85938 1.9062-0.85938 3.375s0.28516 2.5938 0.85938 3.375c0.57031 0.77344 1.3984 1.1562 2.4844 1.1562 1.0625 0 1.875-0.38281 2.4375-1.1562 0.57031-0.78125 0.85938-1.9062 0.85938-3.375s-0.28906-2.5938-0.85938-3.375c-0.5625-0.78125-1.375-1.1719-2.4375-1.1719zm0-3.5c2.6328 0 4.6914 0.71484 6.1719 2.1406 1.4766 1.418 2.2188 3.3867 2.2188 5.9062 0 2.5117-0.74219 4.4805-2.2188 5.9062-1.4805 1.418-3.5391 2.125-6.1719 2.125-2.6484 0-4.7148-0.70703-6.2031-2.125-1.4922-1.4258-2.2344-3.3945-2.2344-5.9062 0-2.5195 0.74219-4.4883 2.2344-5.9062 1.4883-1.4258 3.5547-2.1406 6.2031-2.1406z"
         id="path30390" />
    </symbol>
    <symbol
       id="t"
       overflow="visible">
      <path
         d="m2.3594-15.312h4.8906v15.312h-4.8906zm0-5.9688h4.8906v4h-4.8906z"
         id="path30393" />
    </symbol>
    <symbol
       id="s"
       overflow="visible">
      <path
         d="m12.422-21.281v3.2188h-2.7031c-0.6875 0-1.1719 0.125-1.4531 0.375-0.27344 0.25-0.40625 0.6875-0.40625 1.3125v1.0625h4.1875v3.5h-4.1875v11.812h-4.8906v-11.812h-2.4375v-3.5h2.4375v-1.0625c0-1.6641 0.46094-2.8984 1.3906-3.7031 0.92578-0.80078 2.3672-1.2031 4.3281-1.2031z"
         id="path30396" />
    </symbol>
    <symbol
       id="r"
       overflow="visible">
      <path
         d="m16.547-12.766c0.61328-0.94531 1.3477-1.6719 2.2031-2.1719 0.85156-0.5 1.7891-0.75 2.8125-0.75 1.7578 0 3.0977 0.54688 4.0156 1.6406 0.92578 1.0859 1.3906 2.6562 1.3906 4.7188v9.3281h-4.9219v-7.9844-0.35938c0.007813-0.13281 0.015625-0.32031 0.015625-0.5625 0-1.082-0.16406-1.8633-0.48438-2.3438-0.3125-0.48828-0.82422-0.73438-1.5312-0.73438-0.92969 0-1.6484 0.38672-2.1562 1.1562-0.51172 0.76172-0.77344 1.8672-0.78125 3.3125v7.5156h-4.9219v-7.9844c0-1.6953-0.14844-2.7852-0.4375-3.2656-0.29297-0.48828-0.8125-0.73438-1.5625-0.73438-0.9375 0-1.6641 0.38672-2.1719 1.1562-0.51172 0.76172-0.76562 1.8594-0.76562 3.2969v7.5312h-4.9219v-15.312h4.9219v2.2344c0.60156-0.86328 1.2891-1.5156 2.0625-1.9531 0.78125-0.4375 1.6406-0.65625 2.5781-0.65625 1.0625 0 2 0.25781 2.8125 0.76562 0.8125 0.51172 1.4258 1.2305 1.8438 2.1562z"
         id="path30399" />
    </symbol>
    <symbol
       id="q"
       overflow="visible">
      <path
         d="m17.75-9.3281v9.3281h-4.9219v-7.1094c0-1.3438-0.03125-2.2656-0.09375-2.7656s-0.16797-0.86719-0.3125-1.1094c-0.1875-0.3125-0.44922-0.55469-0.78125-0.73438-0.32422-0.17578-0.69531-0.26562-1.1094-0.26562-1.0234 0-1.8242 0.39844-2.4062 1.1875-0.58594 0.78125-0.875 1.8711-0.875 3.2656v7.5312h-4.8906v-21.281h4.8906v8.2031c0.73828-0.88281 1.5195-1.5391 2.3438-1.9688 0.83203-0.42578 1.75-0.64062 2.75-0.64062 1.7695 0 3.1133 0.54688 4.0312 1.6406 0.91406 1.0859 1.375 2.6562 1.375 4.7188z"
         id="path30402" />
    </symbol>
    <symbol
       id="p"
       overflow="visible">
      <path
         d="m2.5781-20.406h5.875l7.4219 14v-14h4.9844v20.406h-5.875l-7.4219-14v14h-4.9844z"
         id="path30405" />
    </symbol>
    <symbol
       id="o"
       overflow="visible">
      <path
         d="m2.1875-5.9688v-9.3438h4.9219v1.5312c0 0.83594-0.007813 1.875-0.015625 3.125-0.011719 1.25-0.015625 2.0859-0.015625 2.5 0 1.2422 0.03125 2.1328 0.09375 2.6719 0.070313 0.54297 0.17969 0.93359 0.32812 1.1719 0.20703 0.32422 0.47266 0.57422 0.79688 0.75 0.32031 0.16797 0.69141 0.25 1.1094 0.25 1.0195 0 1.8203-0.39062 2.4062-1.1719 0.58203-0.78125 0.875-1.8672 0.875-3.2656v-7.5625h4.8906v15.312h-4.8906v-2.2188c-0.74219 0.89844-1.5234 1.5586-2.3438 1.9844-0.82422 0.41406-1.7344 0.625-2.7344 0.625-1.7617 0-3.1055-0.53906-4.0312-1.625-0.92969-1.082-1.3906-2.6602-1.3906-4.7344z"
         id="path30408" />
    </symbol>
    <symbol
       id="n"
       overflow="visible">
      <path
         d="m17.75-9.3281v9.3281h-4.9219v-7.1406c0-1.3203-0.03125-2.2344-0.09375-2.7344s-0.16797-0.86719-0.3125-1.1094c-0.1875-0.3125-0.44922-0.55469-0.78125-0.73438-0.32422-0.17578-0.69531-0.26562-1.1094-0.26562-1.0234 0-1.8242 0.39844-2.4062 1.1875-0.58594 0.78125-0.875 1.8711-0.875 3.2656v7.5312h-4.8906v-15.312h4.8906v2.2344c0.73828-0.88281 1.5195-1.5391 2.3438-1.9688 0.83203-0.42578 1.75-0.64062 2.75-0.64062 1.7695 0 3.1133 0.54688 4.0312 1.6406 0.91406 1.0859 1.375 2.6562 1.375 4.7188z"
         id="path30411" />
    </symbol>
    <symbol
       id="m"
       overflow="visible">
      <path
         d="m2.5781-20.406h8.7344c2.5938 0 4.582 0.57812 5.9688 1.7344 1.3945 1.1484 2.0938 2.7891 2.0938 4.9219 0 2.1367-0.69922 3.7812-2.0938 4.9375-1.3867 1.1562-3.375 1.7344-5.9688 1.7344h-3.4844v7.0781h-5.25zm5.25 3.8125v5.7031h2.9219c1.0195 0 1.8047-0.25 2.3594-0.75 0.5625-0.5 0.84375-1.2031 0.84375-2.1094 0-0.91406-0.28125-1.6172-0.84375-2.1094-0.55469-0.48828-1.3398-0.73438-2.3594-0.73438z"
         id="path30414" />
    </symbol>
    <symbol
       id="l"
       overflow="visible">
      <path
         d="m2.3594-15.312h4.8906v15.031c0 2.0508-0.49609 3.6172-1.4844 4.7031-0.98047 1.082-2.4062 1.625-4.2812 1.625h-2.4219v-3.2188h0.85938c0.92578 0 1.5625-0.21094 1.9062-0.625 0.35156-0.41797 0.53125-1.2461 0.53125-2.4844zm0-5.9688h4.8906v4h-4.8906z"
         id="path30417" />
    </symbol>
    <symbol
       id="k"
       overflow="visible">
      <path
         d="m14.719-14.828v3.9844c-0.65625-0.45703-1.3242-0.79688-2-1.0156-0.66797-0.21875-1.3594-0.32812-2.0781-0.32812-1.3672 0-2.4336 0.40234-3.2031 1.2031-0.76172 0.79297-1.1406 1.9062-1.1406 3.3438 0 1.4297 0.37891 2.543 1.1406 3.3438 0.76953 0.79297 1.8359 1.1875 3.2031 1.1875 0.75781 0 1.4844-0.10938 2.1719-0.32812 0.6875-0.22656 1.3203-0.56641 1.9062-1.0156v4c-0.76172 0.28125-1.5391 0.48828-2.3281 0.625-0.78125 0.14453-1.5742 0.21875-2.375 0.21875-2.7617 0-4.9219-0.70703-6.4844-2.125-1.5547-1.4141-2.3281-3.3828-2.3281-5.9062 0-2.5312 0.77344-4.5039 2.3281-5.9219 1.5625-1.4141 3.7227-2.125 6.4844-2.125 0.80078 0 1.5938 0.074219 2.375 0.21875 0.78125 0.13672 1.5547 0.35156 2.3281 0.64062z"
         id="path30420" />
    </symbol>
    <filter
       inkscape:collect="always"
       style="color-interpolation-filters:sRGB"
       id="filter2742"
       x="-0.20019793"
       y="-0.010526191"
       width="1.4003959"
       height="1.0210524">
      <feGaussianBlur
         inkscape:collect="always"
         stdDeviation="6.36342"
         id="feGaussianBlur2744" />
    </filter>
    <filter
       inkscape:collect="always"
       style="color-interpolation-filters:sRGB"
       id="filter2742-3"
       x="-0.38756457"
       y="-0.015834928"
       width="1.7751291"
       height="1.0277336">
      <feGaussianBlur
         inkscape:collect="always"
         stdDeviation="6.36342"
         id="feGaussianBlur2744-3" />
    </filter>
    <marker
       style="overflow:visible"
       id="marker5556-2-4-0-3-3-5"
       refX="0"
       refY="0"
       orient="auto"
       inkscape:stockid="Arrow2Lend"
       inkscape:isstock="true">
      <path
         transform="matrix(-1.1,0,0,-1.1,-1.1,0)"
         d="M 8.7185878,4.0337352 -2.2072895,0.01601326 8.7185884,-4.0017078 c -1.7454984,2.3720609 -1.7354408,5.6174519 -6e-7,8.035443 z"
         style="fill:context-stroke;fill-rule:evenodd;stroke:context-stroke;stroke-width:0.625;stroke-linejoin:round"
         id="path5316-5-0-2-4-50-1" />
    </marker>
    <filter
       inkscape:collect="always"
       style="color-interpolation-filters:sRGB"
       id="filter82878-0"
       x="-2.0303313"
       y="-2.0147089"
       width="8.651647"
       height="8.636696">
      <feGaussianBlur
         inkscape:collect="always"
         stdDeviation="1.4504687"
         id="feGaussianBlur82880-8" />
    </filter>
    <marker
       style="overflow:visible"
       id="marker2859"
       refX="0"
       refY="0"
       orient="auto"
       inkscape:stockid="Arrow2Lend"
       inkscape:isstock="true">
      <path
         transform="matrix(-1.1,0,0,-1.1,-1.1,0)"
         d="M 8.7185878,4.0337352 -2.2072895,0.01601326 8.7185884,-4.0017078 c -1.7454984,2.3720609 -1.7354408,5.6174519 -6e-7,8.035443 z"
         style="fill:context-stroke;fill-rule:evenodd;stroke:context-stroke;stroke-width:0.625;stroke-linejoin:round"
         id="path2857" />
    </marker>
    <linearGradient
       inkscape:collect="always"
       xlink:href="#linearGradient5718"
       id="linearGradient6632"
       gradientUnits="userSpaceOnUse"
       x1="358.06589"
       y1="-34.194897"
       x2="359.76501"
       y2="-238.08875" />
    <linearGradient
       inkscape:collect="always"
       xlink:href="#linearGradient5122"
       id="linearGradient6634"
       gradientUnits="userSpaceOnUse"
       x1="566.07251"
       y1="825.00507"
       x2="564.37341"
       y2="690.77496" />
    <linearGradient
       inkscape:collect="always"
       xlink:href="#linearGradient45300"
       id="linearGradient12140"
       gradientUnits="userSpaceOnUse"
       x1="156.43158"
       y1="27.773693"
       x2="157.1218"
       y2="95.346176" />
    <linearGradient
       inkscape:collect="always"
       xlink:href="#linearGradient45300"
       id="linearGradient12142"
       gradientUnits="userSpaceOnUse"
       gradientTransform="matrix(2.5679904,0,0,2.5679904,1101.1517,1306.3373)"
       x1="156.597"
       y1="29.427822"
       x2="157.1218"
       y2="95.346176" />
    <filter
       inkscape:collect="always"
       style="color-interpolation-filters:sRGB"
       id="filter2757"
       x="-0.0096871265"
       y="-0.034995554"
       width="1.0193743"
       height="1.0699911">
      <feGaussianBlur
         inkscape:collect="always"
         stdDeviation="7.5298146"
         id="feGaussianBlur2759" />
    </filter>
  </defs>
  <sodipodi:namedview
     id="namedview4"
     pagecolor="#ffffff"
     bordercolor="#666666"
     borderopacity="1.0"
     inkscape:pageshadow="2"
     inkscape:pageopacity="0.0"
     inkscape:pagecheckerboard="0"
     showgrid="false"
     inkscape:zoom="0.83232363"
     inkscape:cx="895.68526"
     inkscape:cy="738.89528"
     inkscape:window-width="1920"
     inkscape:window-height="1017"
     inkscape:window-x="-8"
     inkscape:window-y="-8"
     inkscape:window-maximized="1"
     inkscape:current-layer="g8" />
  <g
     inkscape:groupmode="layer"
     id="layer2"
     inkscape:label="Image 2">
    <rect
       style="display:inline;fill:#d79981;fill-opacity:1;fill-rule:evenodd;stroke:none;stroke-width:6.89649;stroke-linejoin:bevel;stroke-miterlimit:4;stroke-dasharray:none;stroke-opacity:1;paint-order:markers fill stroke"
       id="rect2859"
       width="694.9071"
       height="1863.2234"
       x="252.93744"
       y="-2017.5952"
       ry="0"
       transform="rotate(90)" />
    <rect
       style="display:inline;fill:url(#radialGradient13522);fill-opacity:1;fill-rule:evenodd;stroke:#379ea7;stroke-width:8.59938;stroke-linejoin:bevel;stroke-miterlimit:4;stroke-dasharray:none;stroke-opacity:1;paint-order:markers fill stroke"
       id="rect13520"
       width="117.74265"
       height="1865.8966"
       x="84.719353"
       y="-2020.2682"
       transform="rotate(90)" />
    <rect
       style="display:inline;fill:url(#radialGradient1817);fill-opacity:1;fill-rule:evenodd;stroke:#617bcb;stroke-width:8.59937;stroke-linejoin:bevel;stroke-miterlimit:4;stroke-dasharray:none;stroke-opacity:1;paint-order:markers fill stroke"
       id="rect1815"
       width="50.475418"
       height="1865.8966"
       x="202.46198"
       y="-2020.2682"
       transform="rotate(90)" />
    <path
       style="display:inline;fill:#892c2c;fill-opacity:1;stroke:none;stroke-width:1.1732px;stroke-linecap:butt;stroke-linejoin:miter;stroke-opacity:1"
       d="m 358.39525,356.81411 c 39.75699,18.6903 60.8048,30.5841 107.5777,115.53986 46.77292,84.9557 70.15938,129.1327 144.99605,152.9203 74.83668,23.7876 280.63752,-37.3805 285.31482,-57.7699 4.67729,-20.3894 9.35458,-74.761 60.80479,-74.761 51.45019,0 51.45019,6.7964 65.48209,67.9646 14.0319,61.1681 32.741,125.7345 65.4821,163.115 32.741,37.3805 37.4184,67.9646 121.6096,84.9558 84.1912,16.9911 93.5458,40.7787 121.6096,3.3982 28.0638,-37.3805 60.8048,-50.9735 60.8048,-91.7522 0,-40.7788 60.8048,-78.1593 60.8048,-78.1593 0,0 116.9322,-30.5841 93.5459,-3.3982 -23.3866,27.1858 -4.6774,-10.1947 -32.7411,33.9823 -28.0638,44.1769 -56.1275,74.761 -14.0319,91.7522 42.0956,16.9911 14.0319,10.1947 56.1275,20.3893 42.0956,10.1947 52.1886,-0.5626 70.1594,23.7877 12.4104,19.4236 22.0458,7.0335 31.6056,-5.7991 29.7661,-36.0437 0,7.2087 39.6882,-48.0583 39.6881,-55.2669 26.4588,-50.4611 49.6101,-64.8786 23.1514,-14.4175 49.6102,-33.6407 49.6102,-33.6407 39.6882,-12.0146 49.6102,-9.6117 92.6056,2.4029 42.9956,12.0145 69.4544,0 89.2983,0 19.8442,0 39.6883,1.2014 39.6883,1.2014 l 0,289.28612 H 153.78633 l 0,-593.25438 c 0,0 164.85193,-17.9143 204.60892,0.776 z"
       id="path3731"
       sodipodi:nodetypes="zssssssssscssssccsssssccccz" />
    <rect
       style="display:inline;fill:url(#radialGradient865);fill-opacity:1;fill-rule:evenodd;stroke:#6f6f6f;stroke-width:8.59938;stroke-linejoin:bevel;stroke-miterlimit:4;stroke-dasharray:none;stroke-opacity:1;paint-order:markers fill stroke"
       id="rect849"
       width="117.74265"
       height="1865.8966"
       x="1000.4437"
       y="-2020.2682"
       transform="rotate(90)" />
    <rect
       style="display:inline;fill:url(#radialGradient14860);fill-opacity:1;fill-rule:evenodd;stroke:#b86f15;stroke-width:8.59938;stroke-linejoin:bevel;stroke-miterlimit:4;stroke-dasharray:none;stroke-opacity:1;paint-order:markers fill stroke"
       id="rect14858"
       width="50.475418"
       height="1865.8966"
       x="949.96838"
       y="-2020.2682"
       transform="rotate(90)" />
    <path
       id="path3362-2"
       style="display:inline;mix-blend-mode:normal;fill:#84dea8;fill-opacity:1;stroke:none;stroke-width:1.1732px;stroke-linecap:butt;stroke-linejoin:miter;stroke-opacity:1;filter:url(#filter2757)"
       d="m 276.00885,328.88287 c -58.00276,0.6853 -122.99916,4.0793 -122.99916,4.0793 l 1.20146,45.1644 c 0,0 152.95785,-21.3114 192.71484,-2.6211 23.45934,11.0286 38.11056,18.5841 55.73047,40.0743 12.24088,14.9295 25.87709,36.3907 45.05078,71.2168 46.77292,84.9556 85.45239,136.7788 160.28906,160.5664 74.83668,23.7876 306.12348,-44.177 310.80078,-64.5664 4.67729,-20.3895 5.11568,-74.5736 48.48632,-73.4864 25.7465,0.6454 22.9896,-2.9729 37.0215,58.1953 14.0319,61.1681 37.839,128.7074 70.5801,166.0879 32.741,37.3805 46.3381,73.0616 130.5293,90.0528 84.1912,16.9911 115.2093,38.22987 143.2731,0.84937 28.0638,-37.3805 65.0526,-58.6177 65.0526,-99.3964 0,-40.7788 39.991,-62.01815 39.991,-62.01815 0,0 59.3742,-15.29325 35.9879,11.89265 -23.3866,27.1858 8.0668,-8.28233 -19.9969,35.89467 -28.0638,44.1769 -19.3113,58.13761 22.7843,75.12881 42.0956,16.9911 18.5273,10.55535 60.6229,20.74995 42.0956,10.1947 38.8676,0.90923 56.8384,25.25953 12.4104,19.4236 57.3199,3.28222 66.8797,-9.55038 29.7661,-36.0437 4.6497,-6.64085 44.3379,-61.90785 39.6881,-55.2669 21.5091,-38.28988 44.6604,-52.70738 23.1514,-14.4175 42.7618,-30.93757 42.7618,-30.93757 39.6882,-12.0146 30.9327,-5.78826 73.9281,6.22634 42.9956,12.0145 71.1522,5.09747 90.9961,5.09747 17.5596,0 40.3005,0.60932 44.6367,0.61432 0.5641,6e-4 0.3046,-53.04653 0.3046,-53.04653 0,0 -17.2966,0.49795 -37.1408,0.49795 -19.8439,0 -42.0535,7.34191 -85.0491,-4.67259 -42.9954,-12.0146 -62.2644,-13.14254 -101.9526,-1.12794 0,0 -30.0685,16.462 -53.2199,30.8795 -23.1513,14.4175 -18.2737,11.81675 -57.9618,67.08365 -39.6882,55.267 -5.1691,13.11322 -34.9352,49.15692 -9.5598,12.8326 -3.0785,29.77954 -15.4889,10.35594 -17.9708,-24.3503 -15.8595,-14.7939 -57.9551,-24.9886 -42.0956,-10.1946 -10.3259,3.40772 -52.4215,-13.58338 -42.0956,-16.9912 -20.6902,-13.90047 7.3736,-58.07737 28.0637,-44.177 33.0613,-25.7741 53.1385,-55.4879 34.1994,-50.6142 -128.3605,-25.67651 -128.3605,-25.67651 0,0 -87.7079,59.58869 -87.7079,100.36749 0,40.7787 -18.0835,40.46047 -46.1473,77.84097 -28.0638,37.3805 -20.6601,22.44022 -104.8513,5.44912 -84.1912,-16.9912 -80.1578,-40.9666 -112.8988,-78.3471 -32.7411,-37.3805 -47.5458,-98.3427 -61.5777,-159.5109 -6.259,-27.2843 -17.7056,-56.8822 -24.1923,-66.7527 -8.0558,-12.2579 -29.3076,-12.3256 -57.8082,-12.3256 -8.40205,0 -26.56111,1.8634 -32.67209,4.3785 -31.31023,12.8867 -45.84536,53.6238 -49.75884,70.6835 -4.6773,20.3894 -188.85352,72.5463 -263.6902,48.7587 -74.83667,-23.7876 -82.60425,-53.5468 -129.37717,-138.5025 -11.61277,-21.0928 -20.12689,-37.3452 -29.24818,-50.6527 -27.61663,-40.2913 -57.45278,-58.6459 -87.33891,-72.6957 -14.90887,-7.0089 -56.4202,-10.374 -91.22186,-9.9629 z"
       sodipodi:nodetypes="sccssssssssssscssssccsscssscsscssccsssscssssssssssssss" />
  </g>
  <g
     inkscape:groupmode="layer"
     id="layer1"
     inkscape:label="Image 1"
     style="display:inline"
     transform="translate(-198.57818,-921.85456)" />
  <g
     inkscape:groupmode="layer"
     inkscape:label="Image"
     id="g8"
     transform="translate(-198.57818,-921.85456)">
    <g
       id="g1009"
       transform="matrix(-4.328552,0,0,-4.328552,-1312.3095,2689.4774)"
       style="display:inline">
      <g
         id="g1001"
         transform="matrix(1.9664357,0,0,1.9664357,-134.61795,-76.951813)"
         style="fill:#ffffff;fill-opacity:1;stroke:none;filter:url(#filter2517-39-8)">
        <circle
           style="fill:#ffffff;fill-opacity:1;fill-rule:evenodd;stroke:none;stroke-width:1.35259;stroke-linecap:round;stroke-linejoin:round;stroke-miterlimit:4;stroke-dasharray:none;stroke-opacity:1"
           id="circle997"
           cx="147.15125"
           cy="92.922531"
           r="4.0577559" />
        <rect
           style="fill:#ffffff;fill-opacity:1;fill-rule:evenodd;stroke:none;stroke-width:0.725764;stroke-linecap:round;stroke-linejoin:bevel;stroke-opacity:1;paint-order:markers fill stroke"
           id="rect999"
           width="3.0780656"
           height="1.0863732"
           x="145.57661"
           y="92.378967" />
      </g>
      <g
         id="g1007"
         transform="translate(7.5942678,12.851838)">
        <circle
           style="fill:none;fill-opacity:1;fill-rule:evenodd;stroke:#0073de;stroke-width:1.35259;stroke-linecap:round;stroke-linejoin:round;stroke-miterlimit:4;stroke-dasharray:none;stroke-opacity:1"
           id="circle1003"
           cx="147.15125"
           cy="92.922531"
           r="4.0577559" />
        <rect
           style="fill:#0074e0;fill-opacity:1;fill-rule:evenodd;stroke:#0074e0;stroke-width:0.725764;stroke-linecap:round;stroke-linejoin:bevel;stroke-opacity:1;paint-order:markers fill stroke"
           id="rect1005"
           width="3.0780656"
           height="1.0863732"
           x="145.57661"
           y="92.378967" />
      </g>
    </g>
    <g
       id="g1847"
       transform="matrix(0.01734148,-4.2238739,-4.2238739,-0.01734148,-903.51376,2606.1476)"
       style="display:inline">
      <g
         id="g1837"
         transform="matrix(1.9664357,0,0,1.9664357,-153.98645,0.218369)"
         style="fill:#ffffff;fill-opacity:1;stroke:none;filter:url(#filter2517-3-6-5)">
        <circle
           style="fill:#ffffff;fill-opacity:1;fill-rule:evenodd;stroke:none;stroke-width:1.35259;stroke-linecap:round;stroke-linejoin:round;stroke-miterlimit:4;stroke-dasharray:none;stroke-opacity:1"
           id="circle1833"
           cx="147.15125"
           cy="92.922531"
           r="4.0577559" />
        <rect
           style="fill:#ffffff;fill-opacity:1;fill-rule:evenodd;stroke:none;stroke-width:0.725764;stroke-linecap:round;stroke-linejoin:bevel;stroke-opacity:1;paint-order:markers fill stroke"
           id="rect1835"
           width="3.0780656"
           height="1.0863732"
           x="145.57661"
           y="92.378967" />
      </g>
      <g
         id="g1845"
         transform="translate(-11.51919,8.1784423)">
        <circle
           style="fill:none;fill-opacity:1;fill-rule:evenodd;stroke:#de2500;stroke-width:1.35259;stroke-linecap:round;stroke-linejoin:round;stroke-miterlimit:4;stroke-dasharray:none;stroke-opacity:1"
           id="circle1839"
           cx="146.88841"
           cy="174.77542"
           r="4.0577559" />
        <rect
           style="fill:#e02500;fill-opacity:1;fill-rule:evenodd;stroke:#e02500;stroke-width:0.725764;stroke-linecap:round;stroke-linejoin:bevel;stroke-opacity:1;paint-order:markers fill stroke"
           id="rect1841"
           width="0.93549085"
           height="5.0999341"
           x="146.42416"
           y="172.18327" />
        <rect
           style="fill:#e02500;fill-opacity:1;fill-rule:evenodd;stroke:#e02500;stroke-width:0.725764;stroke-linecap:round;stroke-linejoin:bevel;stroke-opacity:1;paint-order:markers fill stroke"
           id="rect1843"
           width="0.93549085"
           height="5.0999341"
           x="174.2655"
           y="-149.44188"
           transform="rotate(90)" />
      </g>
    </g>
    <g
       id="g2267"
       transform="matrix(2.1341804,-3.6450906,3.6450906,2.1341804,-2622.5849,2358.9532)"
       style="display:inline">
      <g
         id="g2257"
         transform="matrix(1.9664357,0,0,1.9664357,-153.98645,0.218369)"
         style="fill:#ffffff;fill-opacity:1;stroke:none;filter:url(#filter2517-3-6-5)">
        <circle
           style="fill:#ffffff;fill-opacity:1;fill-rule:evenodd;stroke:none;stroke-width:1.35259;stroke-linecap:round;stroke-linejoin:round;stroke-miterlimit:4;stroke-dasharray:none;stroke-opacity:1"
           id="circle2253"
           cx="147.15125"
           cy="92.922531"
           r="4.0577559" />
        <rect
           style="fill:#ffffff;fill-opacity:1;fill-rule:evenodd;stroke:none;stroke-width:0.725764;stroke-linecap:round;stroke-linejoin:bevel;stroke-opacity:1;paint-order:markers fill stroke"
           id="rect2255"
           width="3.0780656"
           height="1.0863732"
           x="145.57661"
           y="92.378967" />
      </g>
      <g
         id="g2265"
         transform="rotate(-30.417529,156.17056,200.05066)">
        <circle
           style="fill:none;fill-opacity:1;fill-rule:evenodd;stroke:#de2500;stroke-width:1.35259;stroke-linecap:round;stroke-linejoin:round;stroke-miterlimit:4;stroke-dasharray:none;stroke-opacity:1"
           id="circle2259"
           cx="146.88841"
           cy="174.77542"
           r="4.0577559" />
        <rect
           style="fill:#e02500;fill-opacity:1;fill-rule:evenodd;stroke:#e02500;stroke-width:0.725764;stroke-linecap:round;stroke-linejoin:bevel;stroke-opacity:1;paint-order:markers fill stroke"
           id="rect2261"
           width="0.93549085"
           height="5.0999341"
           x="146.42416"
           y="172.18327" />
        <rect
           style="fill:#e02500;fill-opacity:1;fill-rule:evenodd;stroke:#e02500;stroke-width:0.725764;stroke-linecap:round;stroke-linejoin:bevel;stroke-opacity:1;paint-order:markers fill stroke"
           id="rect2263"
           width="0.93549085"
           height="5.0999341"
           x="174.2655"
           y="-149.44188"
           transform="rotate(90)" />
      </g>
    </g>
    <path
       style="fill:none;stroke:#000000;stroke-width:11.3386;stroke-linecap:round;stroke-linejoin:miter;stroke-miterlimit:4;stroke-dasharray:none;stroke-opacity:1"
       d="m -873.87208,3286.7218 c -11.3716,23.4818 -29.0335,19.3311 -63.0107,20.6715"
       id="path5131"
       sodipodi:nodetypes="cc" />
    <path
       style="fill:none;stroke:#000000;stroke-width:4.7811;stroke-linecap:butt;stroke-linejoin:miter;stroke-miterlimit:4;stroke-dasharray:none;stroke-opacity:1;marker-end:url(#marker5556-2-63-4)"
       d="m -953.13848,3303.3007 -16.1187,-0.673"
       id="path5133"
       sodipodi:nodetypes="cc" />
    <g
       id="g3058"
       transform="translate(-175.41254,-16.82038)">
      <rect
         style="mix-blend-mode:normal;fill:#caecd5;fill-opacity:1;fill-rule:evenodd;stroke:none;stroke-width:13.1836;stroke-linecap:round;stroke-linejoin:bevel;stroke-miterlimit:4;stroke-dasharray:none;stroke-opacity:1;paint-order:markers fill stroke;filter:url(#filter11067)"
         id="rect10809"
         width="501.23892"
         height="130.83185"
         x="1269.2389"
         y="1712.708"
         transform="matrix(1.2169746,0,0,1.4905327,-49.81535,-1304.5717)" />
      <text
         xml:space="preserve"
         style="font-size:66.6667px;line-height:1;font-family:Bahnschrift;-inkscape-font-specification:Bahnschrift;letter-spacing:0px;word-spacing:0px"
         x="1795.4738"
         y="1332.5713"
         id="text8111"><tspan
           sodipodi:role="line"
           id="tspan8109"
           x="1795.4738"
           y="1332.5713"
           style="font-size:66.6667px;text-align:center;text-anchor:middle">CTS</tspan><tspan
           sodipodi:role="line"
           x="1795.4738"
           y="1399.238"
           id="tspan8113"
           style="font-size:66.6667px;text-align:center;text-anchor:middle">Absorption Region</tspan></text>
    </g>
    <path
       style="fill:none;stroke:#000000;stroke-width:17.2535;stroke-linecap:round;stroke-linejoin:miter;stroke-miterlimit:4;stroke-dasharray:none;stroke-opacity:1;marker-end:url(#Arrow2Send)"
       d="m 1162.8994,1213.7427 v 158.5922"
       id="path32244" />
    <path
       style="fill:none;stroke:#000000;stroke-width:17.2535;stroke-linecap:round;stroke-linejoin:miter;stroke-miterlimit:4;stroke-dasharray:none;stroke-opacity:1;marker-end:url(#Arrow2Send)"
       d="M 1162.8994,1612.9219 V 1454.3297"
       id="path32645" />
    <g
       id="g1197"
       transform="translate(-747.30548,2.4029115)">
      <rect
         style="opacity:1;fill:#ffffff;fill-opacity:1;fill-rule:evenodd;stroke-width:13.1836;stroke-linecap:round;stroke-linejoin:bevel;stroke-miterlimit:4;stroke-dasharray:none;paint-order:markers fill stroke;filter:url(#filter11067)"
         id="rect11071"
         width="501.23892"
         height="130.83185"
         x="657.5575"
         y="2015.1505"
         transform="matrix(0,0.98706816,-1.2101962,0,3192.8577,633.86676)" />
      <text
         xml:space="preserve"
         style="font-size:66.6667px;line-height:1;font-family:Bahnschrift;-inkscape-font-specification:Bahnschrift;letter-spacing:0px;word-spacing:0px"
         x="1526.5238"
         y="-692.80493"
         id="text11077"
         transform="rotate(90)"><tspan
           sodipodi:role="line"
           id="tspan11073"
           x="1526.5238"
           y="-692.80493"
           style="font-size:66.6667px;text-align:center;text-anchor:middle">Non-geminate</tspan><tspan
           sodipodi:role="line"
           x="1526.5238"
           y="-626.13824"
           id="tspan11075"
           style="font-size:66.6667px;text-align:center;text-anchor:middle">Recombination</tspan></text>
    </g>
    <g
       id="g1210"
       transform="translate(-2251.5281,-139.36886)">
      <rect
         style="opacity:1;fill:#ffffff;fill-opacity:1;fill-rule:evenodd;stroke-width:13.1836;stroke-linecap:round;stroke-linejoin:bevel;stroke-miterlimit:4;stroke-dasharray:none;paint-order:markers fill stroke;filter:url(#filter11067)"
         id="rect14207"
         width="501.23892"
         height="130.83185"
         x="657.5575"
         y="2015.1505"
         transform="matrix(0,0.77314359,-1.2976214,0,4223.1823,619.6412)" />
      <text
         xml:space="preserve"
         style="font-size:66.6667px;line-height:1;font-family:Bahnschrift;-inkscape-font-specification:Bahnschrift;letter-spacing:0px;word-spacing:0px"
         x="1319.2318"
         y="-1537.2651"
         id="text14213"
         transform="rotate(90)"><tspan
           sodipodi:role="line"
           id="tspan14209"
           x="1319.2318"
           y="-1537.2651"
           style="font-size:66.6667px;text-align:center;text-anchor:middle">Exciton</tspan><tspan
           sodipodi:role="line"
           x="1319.2318"
           y="-1470.5984"
           style="font-size:66.6667px;text-align:center;text-anchor:middle"
           id="tspan14327">Generation</tspan><tspan
           sodipodi:role="line"
           x="1319.2318"
           y="-1403.9318"
           id="tspan14211"
           style="font-size:66.6667px;text-align:center;text-anchor:middle" /></text>
    </g>
    <g
       id="g1217"
       transform="translate(-2304.3921,-50.461144)">
      <rect
         style="opacity:1;fill:#ffffff;fill-opacity:1;fill-rule:evenodd;stroke-width:13.1836;stroke-linecap:round;stroke-linejoin:bevel;stroke-miterlimit:4;stroke-dasharray:none;paint-order:markers fill stroke;filter:url(#filter11067)"
         id="rect16253"
         width="501.23892"
         height="130.83185"
         x="657.5575"
         y="2015.1505"
         transform="matrix(0,0.94316002,-1.2775769,0,4328.056,998.54673)" />
      <text
         xml:space="preserve"
         style="font-size:66.6667px;line-height:1;font-family:Bahnschrift;-inkscape-font-specification:Bahnschrift;letter-spacing:0px;word-spacing:0px"
         x="1852.6782"
         y="-1683.8428"
         id="text16261"
         transform="rotate(90)"><tspan
           sodipodi:role="line"
           id="tspan16255"
           x="1852.6782"
           y="-1683.8428"
           style="font-size:66.6667px;text-align:center;text-anchor:middle">Exciton</tspan><tspan
           sodipodi:role="line"
           x="1852.6782"
           y="-1617.176"
           style="font-size:66.6667px;text-align:center;text-anchor:middle"
           id="tspan16257">Recombination</tspan><tspan
           sodipodi:role="line"
           x="1852.6782"
           y="-1550.5094"
           id="tspan16259"
           style="font-size:66.6667px;text-align:center;text-anchor:middle" /></text>
    </g>
    <g
       id="g1185"
       transform="translate(-1915.1205,374.8542)">
      <rect
         style="opacity:1;mix-blend-mode:normal;fill:#ffffff;fill-opacity:1;fill-rule:evenodd;stroke-width:13.1836;stroke-linecap:round;stroke-linejoin:bevel;stroke-miterlimit:4;stroke-dasharray:none;paint-order:markers fill stroke;filter:url(#filter11067)"
         id="rect17143"
         width="501.23892"
         height="130.83185"
         x="1269.2389"
         y="1712.708"
         transform="matrix(0,0.8578782,-1.472521,0,3936.9917,1164.7139)" />
      <text
         xml:space="preserve"
         style="font-size:66.6667px;line-height:1;font-family:Bahnschrift;-inkscape-font-specification:Bahnschrift;letter-spacing:0px;word-spacing:0px"
         x="2464.1646"
         y="-1331.8759"
         id="text17149"
         transform="rotate(90)"><tspan
           sodipodi:role="line"
           x="2464.1646"
           y="-1331.8759"
           id="tspan17147"
           style="font-size:66.6667px;text-align:center;text-anchor:middle">Free Carrier</tspan><tspan
           sodipodi:role="line"
           x="2464.1646"
           y="-1265.2091"
           style="font-size:66.6667px;text-align:center;text-anchor:middle"
           id="tspan17175">Generation</tspan></text>
    </g>
    <g
       id="g1203"
       transform="translate(-2155.4116,-273.93191)">
      <rect
         style="opacity:1;mix-blend-mode:normal;fill:#ffffff;fill-opacity:1;fill-rule:evenodd;stroke-width:13.1836;stroke-linecap:round;stroke-linejoin:bevel;stroke-miterlimit:4;stroke-dasharray:none;paint-order:markers fill stroke;filter:url(#filter11067)"
         id="rect17535"
         width="501.23892"
         height="130.83185"
         x="1269.2389"
         y="1712.708"
         transform="matrix(0,0.8578782,-1.472521,0,3622.2103,-240.98938)" />
      <text
         xml:space="preserve"
         style="font-size:66.6667px;line-height:1;font-family:Bahnschrift;-inkscape-font-specification:Bahnschrift;letter-spacing:0px;word-spacing:0px"
         x="1058.4612"
         y="-1017.0945"
         id="text17541"
         transform="rotate(90)"><tspan
           sodipodi:role="line"
           x="1058.4612"
           y="-1017.0945"
           id="tspan17537"
           style="font-size:66.6667px;text-align:center;text-anchor:middle">Free Carrier</tspan><tspan
           sodipodi:role="line"
           x="1058.4612"
           y="-950.4278"
           style="font-size:66.6667px;text-align:center;text-anchor:middle"
           id="tspan17539">Generation</tspan></text>
    </g>
    <g
       id="g1227"
       transform="translate(-1179.8295,192.23292)">
      <rect
         style="opacity:1;mix-blend-mode:normal;fill:#ffffff;fill-opacity:1;fill-rule:evenodd;stroke-width:13.1836;stroke-linecap:round;stroke-linejoin:bevel;stroke-miterlimit:4;stroke-dasharray:none;paint-order:markers fill stroke;filter:url(#filter11067)"
         id="rect17543"
         width="470.93393"
         height="121.81326"
         x="1299.5438"
         y="1721.7266"
         transform="matrix(0,0.31716413,-0.79932447,0,2565.705,1225.5587)" />
      <text
         xml:space="preserve"
         style="font-size:66.6667px;line-height:1;font-family:Bahnschrift;-inkscape-font-specification:Bahnschrift;letter-spacing:0px;word-spacing:0px"
         x="1709.835"
         y="-1117.3673"
         id="text17549"
         transform="rotate(90)"><tspan
           sodipodi:role="line"
           x="1709.835"
           y="-1117.3673"
           id="tspan17547"
           style="font-size:66.6667px;text-align:center;text-anchor:middle">CTS</tspan></text>
    </g>
    <g
       id="g1222"
       transform="translate(-2160.2174,372.45129)">
      <rect
         style="opacity:1;mix-blend-mode:normal;fill:#ffffff;fill-opacity:1;fill-rule:evenodd;stroke-width:13.1836;stroke-linecap:round;stroke-linejoin:bevel;stroke-miterlimit:4;stroke-dasharray:none;paint-order:markers fill stroke;filter:url(#filter11067)"
         id="rect21610"
         width="875.6239"
         height="127.64709"
         x="1097.1989"
         y="1718.8097"
         transform="matrix(0.10586425,0.29897466,-0.75348294,0.26680156,2673.5101,962.89457)" />
      <text
         xml:space="preserve"
         style="font-size:66.6667px;line-height:1;font-family:Bahnschrift;-inkscape-font-specification:Bahnschrift;letter-spacing:0px;word-spacing:0px"
         x="2284.323"
         y="-750.44696"
         id="text21614"
         transform="rotate(70.501401)"><tspan
           sodipodi:role="line"
           x="2284.323"
           y="-750.44696"
           id="tspan21612"
           style="font-size:66.6667px;text-align:center;text-anchor:middle">Diffusion</tspan></text>
    </g>
    <g
       id="g2932">
      <path
         style="mix-blend-mode:normal;fill:none;fill-opacity:1;stroke:#ceffad;stroke-width:14.366;stroke-linecap:butt;stroke-linejoin:miter;stroke-miterlimit:4;stroke-dasharray:none;stroke-opacity:1;filter:url(#filter2742-3)"
         d="m -521.59899,-610.4102 c 31.2803,11.26754 31.5039,34.45472 0.4475,46.37447 -31.0566,11.91985 -30.8328,35.10702 0.4475,46.37474 31.2801,11.26742 31.5038,34.45469 0.4474,46.37449 -31.0566,11.91962 -30.833,35.10698 0.4473,46.37452 31.2802,11.26764 31.5039,34.45499 0.4474,46.37457 -31.0566,11.91976 -30.8329,35.10706 0.4475,46.37465 31.28,11.26747 31.5037,34.45482 0.4474,46.37457 -31.0566,11.91984 -30.8329,35.10706 0.4474,46.37465 31.2802,11.26764 31.5038,34.45486 0.4474,46.37443 -31.0565,11.91989 -30.8329,35.10716 0.4474,46.3747 31.2802,11.26755 31.5039,34.45481 0.4475,46.37457 -31.0567,11.919719 -30.8329,35.107019 0.4474,46.374689 31.2802,11.26747 31.504,34.45473 0.4475,46.3745205 -31.0567,11.91972 -30.8329,35.1070295 0.4473,46.3745795 31.2802,11.26754 31.5039,34.45472 0.4475,46.37447 -31.0566,11.91984 -30.8329,35.107021 0.4474,46.374741 31.2802,11.26742 31.5039,34.45468 0.4475,46.37448 -31.0566,11.91962 -30.833,35.10698 0.4473,46.37452 31.2801,11.26764 31.5039,34.45499 0.4474,46.37457 -31.0567,11.91976 -30.8329,35.10706 0.4474,46.37465 31.28,11.26747 31.5038,34.45482 0.4475,46.37457 -31.0566,11.91984 -30.8329,35.10706 0.4473,46.37465 31.2803,11.26764 31.5039,34.45486 0.4475,46.37443 -31.0566,11.91989 -30.8329,35.10716 0.4474,46.3747 31.2802,11.26755 31.5039,34.45481 0.4474,46.37457 -31.0566,11.91972 -30.8328,35.10702 0.4475,46.37469 31.2802,11.26747 31.5039,34.45473 0.4475,46.37452 -31.0568,11.91972 -30.833,35.10707 0.4472,46.37457 31.2803,11.2676 21.2665,23.2165 0.4475,46.3746 -17.3257,19.5654 5.538,18.3011 0.4474,46.3746"
         id="path2020-2-9"
         sodipodi:nodetypes="ccccccccccccccccccccccccccccccc" />
      <path
         style="fill:#7aff28;fill-opacity:1;stroke:#daffc3;stroke-width:1.15931;stroke-linecap:butt;stroke-linejoin:miter;stroke-miterlimit:4;stroke-dasharray:none;stroke-opacity:1;marker-end:url(#marker5556-2-4-0-3-3-5);filter:url(#filter82878-0)"
         d="m 89.874035,113.28326 -2.453477,-2.45949"
         id="path1871-5"
         sodipodi:nodetypes="cc"
         transform="matrix(-4.6274024,-4.1773184,4.1773184,-4.6274024,-564.27629,1699.6599)" />
      <path
         style="fill:none;stroke:#348800;stroke-width:3.98143;stroke-linecap:butt;stroke-linejoin:miter;stroke-miterlimit:4;stroke-dasharray:none;stroke-opacity:1;marker-end:url(#marker5556-2-4-0-3-3-5)"
         d="m -508.01849,778.39018 1.0791,21.63"
         id="path1875-8"
         sodipodi:nodetypes="cc" />
      <path
         style="fill:none;stroke:#348800;stroke-width:7.1514;stroke-linecap:butt;stroke-linejoin:miter;stroke-miterlimit:4;stroke-dasharray:none;stroke-opacity:1"
         d="m -520.70429,-517.66109 c 31.2803,11.26754 31.504,34.45472 0.4476,46.37447 -31.0566,11.91984 -30.8329,35.10702 0.4474,46.37474 31.2801,11.26742 31.5039,34.45468 0.4474,46.37448 -31.0565,11.91962 -30.8329,35.10698 0.4473,46.37452 31.2802,11.26764 31.504,34.45499 0.4475,46.37457 -31.0567,11.91976 -30.8329,35.10706 0.4474,46.37465 31.28,11.26747 31.5038,34.45482 0.4474,46.37457 -31.0565,11.91984 -30.8329,35.10706 0.4474,46.37465 31.2803,11.26764 31.5039,34.45486 0.4475,46.37443 -31.0566,11.919889 -30.8329,35.107159 0.4473,46.374699 31.2802,11.26755 31.504,34.45481 0.4475,46.3745705 -31.0566,11.91972 -30.8329,35.1070195 0.4475,46.3746895 31.2802,11.26754 31.5039,34.45472 0.4475,46.37447 -31.0566,11.91984 -30.8329,35.107021 0.4474,46.374741 31.2802,11.26742 31.5039,34.45468 0.4475,46.37448 -31.0566,11.91962 -30.833,35.10698 0.4473,46.37452 31.2801,11.26764 31.5039,34.45499 0.4474,46.37457 -31.0567,11.91976 -30.8329,35.10706 0.4474,46.37465 31.28,11.26747 31.5038,34.45482 0.4475,46.37457 -31.0566,11.91984 -30.8329,35.10706 0.4473,46.37465 31.2803,11.26764 31.5039,34.45486 0.4475,46.37443 -31.0566,11.91989 -30.8329,35.10716 0.4474,46.3747 31.2802,11.26755 31.5039,34.45481 0.4474,46.37457 -31.0566,11.91972 -30.8328,35.10702 0.4475,46.37469 31.2802,11.26747 31.5039,34.45473 0.4475,46.37452 -31.0568,11.91972 -30.833,35.10707 0.4472,46.37457 31.2803,11.2676 21.2665,23.2165 0.4475,46.3746 -17.3257,19.5654 5.538,18.3011 0.4474,46.3746"
         id="path1873-4-3"
         sodipodi:nodetypes="ccccccccccccccccccccccccccccc" />
    </g>
    <g
       id="g7170"
       transform="translate(1240.3889,308.965)" />
    <g
       id="g6630"
       transform="translate(143.32942,278.31329)">
      <path
         id="path6626"
         style="color:#000000;fill:url(#linearGradient6632);fill-opacity:1;-inkscape-stroke:none;filter:url(#filter2742)"
         d="m 354.4375,-1192.9141 -4.86719,13.5157 c 7.08361,2.5516 12.04764,5.6964 14.98242,8.6386 2.93478,2.9423 3.84788,5.4132 3.86915,7.6153 0.0425,4.404 -4.47679,11.2567 -18.54493,16.6562 -16.98831,6.5203 -27.88506,17.2206 -27.75976,30.2071 0.0627,6.493 3.12829,12.6762 8.0625,17.623 4.93422,4.9468 11.72864,8.9276 20.28515,12.0098 7.08357,2.5515 12.04767,5.6944 14.98243,8.6367 2.93476,2.9422 3.84789,5.4151 3.86914,7.6172 0.0425,4.4041 -4.47481,11.2567 -18.54297,16.6562 -16.98831,6.5202 -27.88696,17.2207 -27.76172,30.2071 0.0626,6.4931 3.1283,12.6762 8.0625,17.623 4.93421,4.9468 11.72863,8.92565 20.28516,12.00781 7.08357,2.55162 12.04764,5.69638 14.98242,8.63867 2.93478,2.9423 3.8479,5.41317 3.86914,7.61524 0.0425,4.40412 -4.47479,11.25684 -18.54297,16.65625 -16.98836,6.52024 -27.88702,17.22066 -27.76172,30.20703 0.0627,6.49318 3.12828,12.67622 8.0625,17.62304 4.93423,4.94683 11.72863,8.92759 20.28516,12.00977 7.08353,2.55158 12.04767,5.69445 14.98242,8.63672 2.93475,2.94227 3.8479,5.41511 3.86914,7.61719 0.0425,4.40414 -4.47488,11.25676 -18.54297,16.65625 -16.9883,6.52029 -27.887,17.22068 -27.76172,30.20703 0.0626,6.49317 3.12829,12.67622 8.0625,17.62304 4.9342,4.94683 11.72866,8.92564 20.28516,12.00782 7.08361,2.55162 12.04765,5.69638 14.98242,8.63867 2.93478,2.94228 3.8479,5.4132 3.86914,7.61523 0.0425,4.40407 -4.47483,11.25881 -18.54297,16.65821 -16.98829,6.52032 -27.887,17.22067 -27.76172,30.20703 0.0626,6.49317 3.13025,12.67622 8.06446,17.62304 4.93421,4.94683 11.72669,8.92566 20.2832,12.00782 7.08359,2.55161 12.04764,5.69639 14.98242,8.63867 2.93477,2.94227 3.84789,5.41318 3.86914,7.61523 0.0425,4.40411 -4.47479,11.25676 -18.54297,16.65625 -16.98835,6.52023 -27.88704,17.22067 -27.76172,30.20703 0.0627,6.49318 3.13024,12.67622 8.06446,17.62305 4.93423,4.94683 11.72862,8.92758 20.28515,12.00977 7.08358,2.55159 12.04764,5.69445 14.98243,8.63672 2.93476,2.94227 3.84789,5.41513 3.86914,7.61718 0.0425,4.4041 -4.47677,11.25674 -18.54493,16.65625 -16.98839,6.52023 -27.88699,17.22068 -27.76171,30.20703 0.0626,6.49318 3.13025,12.67623 8.06445,17.62305 4.93421,4.94682 11.72865,8.92565 20.28515,12.00781 7.08361,2.5516 12.04765,5.69641 14.98243,8.63868 2.93478,2.94227 3.8479,5.41319 3.86914,7.61523 0.0425,4.40407 -4.47676,11.25676 -18.54493,16.65625 -16.9883,6.52029 -27.88505,17.22068 -27.75976,30.20703 0.0626,6.49318 3.12829,12.67621 8.0625,17.62305 4.93422,4.94683 11.72865,8.92755 20.28516,12.00976 7.08357,2.55157 12.04766,5.69446 14.98242,8.63672 2.93476,2.94226 3.8479,5.41514 3.86914,7.61719 0.0425,4.40409 -4.4748,11.25673 -18.54297,16.65625 -16.98831,6.52018 -27.88697,17.22068 -27.76172,30.20703 0.0626,6.49317 3.12829,12.67622 8.0625,17.62305 4.9342,4.94683 11.72864,8.92564 20.28516,12.00781 7.08359,2.55162 12.04764,5.69638 14.98242,8.63867 2.93478,2.9423 3.8479,5.41318 3.86914,7.61524 0.0425,4.40413 -4.4748,11.25685 -18.54297,16.65625 -16.98837,6.52025 -27.88703,17.22066 -27.76172,30.20703 0.0626,6.49318 3.12827,12.67622 8.0625,17.62304 4.93422,4.94683 11.72864,8.92759 20.28516,12.00977 7.08353,2.55158 12.04767,5.69445 14.98242,8.63672 2.93476,2.94227 3.84789,5.41512 3.86914,7.61719 0.0425,4.40415 -4.47488,11.25677 -18.54297,16.65625 -16.98831,6.5203 -27.887,17.22068 -27.76172,30.20703 0.0626,6.49317 3.13025,12.67622 8.06446,17.62304 4.93421,4.94683 11.7267,8.92564 20.2832,12.00782 7.08361,2.55162 12.04764,5.69639 14.98242,8.63867 2.93477,2.94228 3.84789,5.4132 3.86914,7.61523 0.0425,4.40407 -4.47483,11.25881 -18.54297,16.65821 -16.98829,6.52032 -27.887,17.22067 -27.76172,30.207028 0.0626,6.493168 3.13025,12.676226 8.06446,17.623046 4.93422,4.94683 11.72863,8.925643 20.28515,12.007813 7.08358,2.5516 12.04569,5.696392 14.98047,8.638672 2.93477,2.94227 3.84985,5.413184 3.8711,7.615234 0.0425,4.40411 -4.47674,11.25676 -18.54493,16.65625 -16.98835,6.52023 -27.88703,17.220671 -27.76171,30.2070314 0.0627,6.49318 3.13023,12.676217 8.06445,17.6230466 4.93423,4.94683 11.72863,8.927566 20.28515,12.009766 7.08358,2.55158 12.04766,5.694459 14.98243,8.636719 2.93477,2.94227 3.84789,5.415137 3.86914,7.617187 0.0425,4.4041 -4.47676,11.25674 -18.54492,16.65625 -16.98839,6.52023 -27.88504,17.220631 -27.75977,30.207031 0.0626,6.4931 3.1283,12.676246 8.0625,17.623046 4.93421,4.9468 11.72866,8.92571 20.28516,12.00781 7.32426,2.6383 11.7351,5.28934 13.60546,7.11914 1.87037,1.8297 1.77536,2.02266 1.50196,3.68946 -0.54679,3.3337 -7.18672,12.45776 -17.56836,24.00586 l -0.0176,0.0195 -0.0176,0.0215 c -4.82579,5.4496 -7.64878,10.26632 -8.27734,15.44922 -0.27986,2.30763 -0.007,4.41218 0.47266,6.3457 -6.41193,-1.25087 -12.63494,-3.73872 -18.30469,-7.49023 a 2.4845812,2.4845812 0 0 0 -3.6543,3.04883 l 36.22461,85.1582 a 2.4845812,2.4845812 0 0 0 4.65234,-0.22851 l 27.57813,-88.35157 a 2.4845812,2.4845812 0 0 0 -3.91211,-2.67968 c -7.96377,6.34011 -17.32322,10.08603 -26.90625,11.16601 -0.14652,-0.28083 -0.34656,-0.70168 -0.47852,-0.95703 -1.30619,-2.5277 -1.52658,-3.3231 -1.41015,-4.2832 0.11644,-0.9601 0.93444,-3.3212 4.77148,-7.6543 10.42012,-11.5876 19.18097,-20.01289 21.02344,-31.24609 0.92239,-5.6236 -1.23379,-11.97981 -5.63281,-16.28321 -4.39902,-4.3034 -10.46539,-7.36973 -18.78125,-10.36523 -7.08358,-2.5516 -12.04767,-5.696373 -14.98242,-8.638673 -2.93478,-2.9423 -3.84791,-5.413234 -3.86915,-7.615235 -0.0425,-4.404099 4.47467,-11.25677 18.54297,-16.65625 16.98825,-6.520268 27.88703,-17.220701 27.76172,-30.207031 -0.0627,-6.49316 -3.13024,-12.676237 -8.06445,-17.623047 -4.93421,-4.9468 -11.72867,-8.927625 -20.28516,-12.009765 -7.08363,-2.55164 -12.04567,-5.694419 -14.98047,-8.636719 -2.9348,-2.9423 -3.84984,-5.4151275 -3.87109,-7.6171875 -0.0425,-4.40412 4.47666,-11.2567695 18.54492,-16.6562505 16.98827,-6.52025 27.88702,-17.220701 27.76172,-30.207031 -0.0626,-6.49317 -3.13024,-12.676227 -8.06445,-17.623047 -4.9342,-4.94682 -11.72867,-8.925642 -20.28516,-12.007812 -7.08361,-2.5516 -12.04764,-5.696402 -14.98242,-8.638672 -2.93477,-2.94228 -3.84789,-5.413164 -3.86914,-7.615234 -0.0425,-4.404116 4.4767,-11.258646 18.54492,-16.658206 16.98823,-6.52015 27.88505,-17.22071 27.75977,-30.20703 -0.0626,-6.49316 -3.12829,-12.67427 -8.0625,-17.62109 -4.9342,-4.94683 -11.72864,-8.92758 -20.28516,-12.00977 -7.08359,-2.55161 -12.04764,-5.69444 -14.98242,-8.63672 -2.93477,-2.94228 -3.8479,-5.41512 -3.86914,-7.61718 -0.0425,-4.4041 4.47668,-11.25671 18.54492,-16.65625 16.9882,-6.52025 27.88507,-17.22072 27.75977,-30.20704 -0.0626,-6.49315 -3.12834,-12.67622 -8.0625,-17.62304 -4.93418,-4.94682 -11.7287,-8.92565 -20.28516,-12.00782 -7.08362,-2.5516 -12.04762,-5.69638 -14.98242,-8.63867 -2.93479,-2.94229 -3.84789,-5.41318 -3.86914,-7.61523 -0.0425,-4.40411 4.4747,-11.2587 18.54296,-16.6582 16.9883,-6.52015 27.88702,-17.2207 27.76172,-30.20704 -0.0626,-6.49317 -3.1283,-12.67621 -8.0625,-17.62304 -4.9342,-4.94684 -11.72865,-8.92562 -20.28515,-12.00782 -7.0836,-2.5516 -12.04765,-5.69639 -14.98242,-8.63867 -2.93477,-2.94227 -3.84791,-5.41318 -3.86915,-7.61523 -0.0425,-4.40411 4.47476,-11.25682 18.54297,-16.65625 16.98825,-6.52028 27.88701,-17.22071 27.76172,-30.20703 -0.0627,-6.49316 -3.1283,-12.67625 -8.0625,-17.62305 -4.93421,-4.9468 -11.72866,-8.92568 -20.28515,-12.00781 -7.08362,-2.55165 -12.04764,-5.69637 -14.98243,-8.63867 -2.93479,-2.94229 -3.84789,-5.41514 -3.86914,-7.61719 -0.0425,-4.40411 4.47473,-11.25671 18.54297,-16.65625 16.98822,-6.52025 27.88701,-17.22071 27.76172,-30.20703 -0.0626,-6.49317 -3.13023,-12.67624 -8.06445,-17.62305 -4.93421,-4.94681 -11.72865,-8.92565 -20.28516,-12.00781 -7.08359,-2.55161 -12.0457,-5.69639 -14.98047,-8.63867 -2.93478,-2.94227 -3.84984,-5.41319 -3.87109,-7.61524 -0.0425,-4.4041 4.47661,-11.25677 18.54492,-16.65625 16.98824,-6.52027 27.88703,-17.2207 27.76172,-30.20703 -0.0626,-6.49316 -3.13024,-12.67624 -8.06445,-17.62305 -4.93421,-4.94681 -11.72867,-8.92762 -20.28516,-12.00976 -7.08363,-2.55164 -12.04762,-5.69442 -14.98242,-8.63672 -2.9348,-2.9423 -3.84789,-5.41513 -3.86914,-7.61719 -0.0425,-4.40412 4.47667,-11.25677 18.54492,-16.65625 16.98828,-6.52025 27.88702,-17.2207 27.76172,-30.20703 -0.0626,-6.49317 -3.13024,-12.67623 -8.06445,-17.62305 -4.93421,-4.94682 -11.72866,-8.92564 -20.28516,-12.00781 -7.0836,-2.5516 -12.04764,-5.6964 -14.98242,-8.63867 -2.93477,-2.94228 -3.8479,-5.41317 -3.86914,-7.61524 -0.0425,-4.40412 4.47671,-11.25864 18.54492,-16.6582 16.98824,-6.52015 27.88504,-17.22071 27.75976,-30.20703 -0.0626,-6.49316 -3.12829,-12.67427 -8.0625,-17.62109 -4.93421,-4.94683 -11.72863,-8.92758 -20.28515,-12.00977 -7.0836,-2.55161 -12.04764,-5.69444 -14.98242,-8.63672 -2.93477,-2.94228 -3.8479,-5.41512 -3.86914,-7.61719 -0.0425,-4.40409 4.47472,-11.25671 18.54296,-16.65624 16.9882,-6.52027 27.88702,-17.22072 27.76172,-30.20704 -0.0626,-6.49315 -3.12832,-12.67622 -8.0625,-17.62304 -4.93419,-4.94682 -11.72869,-8.92567 -20.28515,-12.00782 -7.08362,-2.55161 -12.04762,-5.69638 -14.98243,-8.63867 -2.93479,-2.94229 -3.84789,-5.41318 -3.86914,-7.61523 -0.0425,-4.40411 4.47469,-11.25871 18.54297,-16.6582 16.98829,-6.52017 27.88702,-17.2207 27.76172,-30.20704 -0.0627,-6.49317 -3.1283,-12.67621 -8.0625,-17.62304 -4.9342,-4.94679 -11.72865,-8.92559 -20.28515,-12.00779 -7.0836,-2.5516 -12.04767,-5.6964 -14.98243,-8.6387 -2.93477,-2.9423 -3.8479,-5.4132 -3.86914,-7.6152 -0.0425,-4.4041 4.47476,-11.2568 18.54297,-16.6563 16.98825,-6.5203 27.88701,-17.2207 27.76172,-30.207 -0.0626,-6.4932 -3.13024,-12.6764 -8.06445,-17.623 -4.9342,-4.947 -11.72672,-8.9257 -20.28321,-12.0079 -7.08362,-2.5516 -12.04763,-5.6963 -14.98242,-8.6386 -2.93479,-2.9423 -3.8479,-5.4152 -3.86914,-7.6172 -0.0425,-4.4041 4.47472,-11.2567 18.54297,-16.6563 16.98822,-6.5202 27.88702,-17.2207 27.76172,-30.207 -0.0626,-6.4932 -3.13023,-12.6762 -8.06445,-17.623 -4.93421,-4.947 -11.72864,-8.9257 -20.28516,-12.0079 z"
         transform="translate(198.57818,921.85456)" />
      <path
         id="path6628"
         style="color:#000000;fill:url(#linearGradient6634);fill-opacity:1;fill-rule:evenodd;stroke-width:2.73723;stroke-linejoin:round;-inkscape-stroke:none"
         d="m 552.68951,-174.91494 -2.42383,6.7265 c 7.45346,2.6849 12.87567,6.0388 16.3125,9.4844 3.43684,3.4456 4.89219,6.8494 4.92383,10.1289 0.0633,6.5591 -6.05801,14.3777 -20.85938,20.0586 -16.25508,6.2389 -25.55176,15.9733 -25.44726,26.8047 0.0523,5.4157 2.57956,10.6659 7.01172,15.1094 4.43216,4.4435 10.76645,8.215 18.95312,11.16403 7.45341,2.6848 12.87763,6.03878 16.31445,9.48438 3.43682,3.44559 4.89024,6.8474 4.92188,10.12695 0.0633,6.55909 -6.05799,14.37961 -20.85938,20.06055 -16.25507,6.23875 -25.54977,15.97334 -25.44531,26.80468 0.0522,5.41568 2.57762,10.66589 7.00977,15.10938 4.43215,4.44349 10.76645,8.21317 18.95312,11.16211 7.45343,2.68485 12.87763,6.03874 16.31446,9.48437 3.43683,3.44564 4.89022,6.84935 4.92187,10.12891 0.0633,6.55912 -6.056,14.37776 -20.85742,20.05859 -16.25513,6.23883 -25.55179,15.97333 -25.44727,26.80469 0.0523,5.41568 2.5776,10.66784 7.00977,15.11133 4.43217,4.44348 10.76644,8.21315 18.95312,11.16211 7.45338,2.6848 12.87765,6.03876 16.31446,9.48437 3.43681,3.44561 4.89022,6.84934 4.92187,10.12891 0.0633,6.55913 -6.05609,14.37768 -20.85742,20.05859 -16.25507,6.23887 -25.55176,15.97334 -25.44727,26.80469 0.0522,5.41567 2.57762,10.6659 7.00977,15.10938 4.43216,4.44349 10.76646,8.21315 18.95312,11.1621 7.45346,2.68485 12.87763,6.03876 16.31446,9.48438 3.43684,3.44562 4.89023,6.84938 4.92187,10.12891 0.0633,6.55908 -6.05605,14.37776 -20.85742,20.05859 -16.25506,6.2389 -25.55175,15.97333 -25.44726,26.80469 0.0522,5.41567 2.5776,10.66785 7.00976,15.11133 4.43215,4.44349 10.76646,8.21316 18.95313,11.1621 7.45343,2.68484 12.87762,6.03876 16.31445,9.48438 3.43684,3.44561 4.89023,6.84936 4.92187,10.12891 0.0633,6.55911 -6.056,14.37767 -20.85742,20.05859 -16.25511,6.23881 -25.55178,15.97332 -25.44726,26.80469 0.0523,5.41568 2.57955,10.66588 7.01172,15.10937 4.43217,4.4435 10.76644,8.21314 18.95312,11.16211 7.45345,2.68483 12.87566,6.03877 16.3125,9.48438 3.43683,3.4456 4.89219,6.84936 4.92383,10.1289 0.0633,6.55908 -6.058,14.37964 -20.85938,20.06055 -16.25508,6.23887 -25.55176,15.97333 -25.44726,26.80469 0.0523,5.41567 2.57956,10.66588 7.01172,15.10937 4.43216,4.4435 10.76645,8.21313 18.95312,11.16211 7.45341,2.6848 12.87764,6.03878 16.31445,9.48438 3.43683,3.44559 4.89024,6.84936 4.92188,10.1289 0.0633,6.55909 -6.05798,14.37766 -20.85938,20.0586 -16.25507,6.23875 -25.54977,15.97334 -25.44531,26.80468 0.0522,5.41568 2.57763,10.66589 7.00977,15.10938 4.43215,4.44349 10.76645,8.21512 18.95312,11.16406 7.45343,2.68485 12.87763,6.03874 16.31446,9.48438 3.43684,3.44563 4.89022,6.84739 4.92187,10.12695 0.0633,6.55911 -6.056,14.37972 -20.85742,20.06055 -16.25512,6.23882 -25.55179,15.97332 -25.44727,26.80468 0.0523,5.41568 2.5776,10.66589 7.00977,15.10938 4.43217,4.44348 10.76644,8.21316 18.95312,11.16211 7.45338,2.6848 12.87765,6.03876 16.31446,9.48437 3.43681,3.44561 4.89022,6.84934 4.92187,10.12891 0.0633,6.55913 -6.0561,14.37768 -20.85742,20.05859 -16.25508,6.23887 -25.55175,15.97334 -25.44726,26.80469 0.0522,5.41567 2.5776,10.66785 7.00976,15.11133 4.43215,4.44348 10.76647,8.21316 18.95313,11.16211 7.45346,2.68485 12.87762,6.03875 16.31445,9.48437 3.43684,3.44562 4.89023,6.84937 4.92187,10.12891 0.0633,6.55907 -6.05605,14.37777 -20.85742,20.05859 -16.25506,6.2389 -25.55175,15.97333 -25.44726,26.80469 0.0522,5.41568 2.5776,10.6659 7.00976,15.10938 4.43215,4.44349 10.76646,8.21318 18.95313,11.16211 7.45343,2.68483 12.87762,6.03875 16.31445,9.48437 3.43684,3.44562 4.89023,6.84935 4.92187,10.12891 0.0633,6.5591 -6.056,14.37767 -20.85742,20.05859 -16.25511,6.23881 -25.55178,15.97332 -25.44726,26.80469 0.0523,5.41568 2.57955,10.66784 7.01172,15.11133 4.43217,4.4435 10.76644,8.21314 18.95312,11.16211 7.45342,2.68481 12.87567,6.03876 16.3125,9.48437 3.43683,3.4456 4.89219,6.84936 4.92383,10.12891 0.0633,6.55909 -6.05799,14.37766 -20.85938,20.05859 -16.25516,6.23881 -25.55174,15.9733 -25.44726,26.8047 0.0523,5.4157 2.57957,10.6659 7.01172,15.1094 4.43215,4.4435 10.76647,8.2132 18.95312,11.1621 7.57325,2.728 12.39899,5.4847 14.9043,7.9355 2.50532,2.4509 2.97542,4.1912 2.53906,6.8516 -0.87272,5.3208 -8.04775,14.2704 -18.44336,25.834 l -0.01,0.012 -0.008,0.01 c -4.57752,5.1693 -6.89651,9.3696 -7.39648,13.4922 -0.49996,4.1226 0.99928,7.5529 2.53125,10.5175 0.95413,1.8464 1.9185,3.6871 2.80469,5.6329 -4.36093,-0.4722 -8.63226,-1.9589 -12.44922,-4.4844 a 1.3687519,1.3687519 0 0 0 -2.01367,1.6758 l 19.95898,46.916 a 1.3687519,1.3687519 0 0 0 2.56445,-0.1289 l 15.19141,-48.668 a 1.3687519,1.3687519 0 0 0 -1.06836,-1.7539 1.3687519,1.3687519 0 0 0 -1.0918,0.2754 c -4.06297,3.2346 -8.78577,5.2398 -13.65429,5.9922 -1.23165,-3.5556 -2.73186,-6.5017 -3.88867,-8.7403 -1.3819,-2.6742 -2.03019,-4.3525 -1.78516,-6.373 0.24503,-2.0204 1.56508,-4.9979 5.65039,-9.6113 10.4145,-11.584 18.64611,-20.1849 20.16406,-29.4395 0.75942,-4.63 -0.82968,-9.4368 -4.59375,-13.1191 -3.76408,-3.6823 -9.41556,-6.645 -17.48242,-9.5508 -7.45343,-2.6848 -12.87762,-6.0387 -16.31445,-9.4844 -3.43683,-3.4456 -4.89025,-6.8493 -4.92188,-10.1289 -0.0633,-6.5591 6.05589,-14.37964 20.85742,-20.06054 16.25501,-6.23885 25.55179,-15.97336 25.44727,-26.80469 -0.0522,-5.41566 -2.57762,-10.66591 -7.00977,-15.10938 -4.43215,-4.44347 -10.76647,-8.21319 -18.95312,-11.16211 -7.45346,-2.68486 -12.87759,-6.03873 -16.31445,-9.48437 -3.43685,-3.44563 -4.89024,-6.84935 -4.92188,-10.12891 -0.0633,-6.55912 6.05593,-14.37769 20.85742,-20.05859 16.25504,-6.23883 25.55178,-15.97336 25.44727,-26.80469 -0.0522,-5.41567 -2.57957,-10.66785 -7.01172,-15.11133 -4.43214,-4.44348 -10.76647,-8.21317 -18.95313,-11.16211 -7.45344,-2.68483 -12.87566,-6.03875 -16.3125,-9.48437 -3.43682,-3.44561 -4.89218,-6.84739 -4.92382,-10.12695 -0.0633,-6.55913 6.05792,-14.37956 20.85937,-20.06055 16.255,-6.23873 25.55176,-15.97337 25.44727,-26.80469 -0.0522,-5.41566 -2.57957,-10.66588 -7.01172,-15.10937 -4.43215,-4.44348 -10.76646,-8.21314 -18.95313,-11.16211 -7.45345,-2.68484 -12.87567,-6.03876 -16.3125,-9.48438 -3.43683,-3.44562 -4.89218,-6.84936 -4.92382,-10.1289 -0.0633,-6.5591 6.0579,-14.37764 20.85937,-20.0586 16.25496,-6.23883 25.54982,-15.97336 25.44531,-26.80469 -0.0523,-5.41567 -2.57763,-10.66784 -7.00976,-15.11132 -4.43212,-4.44348 -10.76653,-8.21319 -18.95313,-11.16211 -7.45347,-2.68484 -12.87759,-6.03876 -16.31445,-9.48438 -3.43685,-3.44563 -4.89024,-6.84934 -4.92188,-10.1289 -0.0633,-6.55912 6.05787,-14.37768 20.85938,-20.0586 16.25506,-6.23874 25.54981,-15.97334 25.44531,-26.80469 -0.0523,-5.41567 -2.57761,-10.66587 -7.00976,-15.10937 -4.43215,-4.44349 -10.76649,-8.21314 -18.95313,-11.16211 -7.45346,-2.68482 -12.87762,-6.03876 -16.31445,-9.48438 -3.43682,-3.44562 -4.89025,-6.84934 -4.92188,-10.1289 -0.0633,-6.5591 6.05598,-14.37775 20.85742,-20.0586 16.25501,-6.23885 25.55177,-15.97335 25.44727,-26.80468 -0.0523,-5.41566 -2.57761,-10.66786 -7.00977,-15.11133 -4.43214,-4.44346 -10.76648,-8.2132 -18.95312,-11.16211 -7.45346,-2.68486 -12.8776,-6.03874 -16.31445,-9.48438 -3.43684,-3.44564 -4.89024,-6.84934 -4.92188,-10.1289 -0.0633,-6.55911 6.05595,-14.37764 20.85742,-20.0586 16.25499,-6.23883 25.55178,-15.97336 25.44727,-26.80468 -0.0522,-5.41566 -2.57762,-10.66591 -7.00977,-15.10938 -4.43216,-4.44347 -10.76645,-8.21317 -18.95312,-11.16211 -7.45347,-2.68486 -12.87759,-6.03873 -16.31445,-9.48437 -3.43685,-3.44564 -4.89024,-6.84935 -4.92188,-10.12891 -0.0633,-6.55912 6.05593,-14.37965 20.85742,-20.06055 16.25504,-6.23883 25.55178,-15.97334 25.44727,-26.80468 -0.0522,-5.41567 -2.57762,-10.6659 -7.00977,-15.10938 -4.43215,-4.44348 -10.76843,-8.21317 -18.95508,-11.16211 -7.45345,-2.68483 -12.87567,-6.03875 -16.3125,-9.48437 -3.43683,-3.44561 -4.89218,-6.84935 -4.92382,-10.12891 -0.0633,-6.55912 6.05792,-14.37761 20.85937,-20.05859 16.255,-6.23873 25.55176,-15.97337 25.44727,-26.80469 -0.0522,-5.41567 -2.57957,-10.66785 -7.01172,-15.11133 -4.43215,-4.44349 -10.76646,-8.21315 -18.95313,-11.16211 -7.45345,-2.68484 -12.87567,-6.03875 -16.3125,-9.48437 -3.43683,-3.44562 -4.89219,-6.84936 -4.92383,-10.12891 -0.0633,-6.55911 6.05792,-14.37763 20.85938,-20.05859 16.25497,-6.23883 25.54982,-15.97336 25.44531,-26.80469 -0.0523,-5.41567 -2.57763,-10.6659 -7.00976,-15.10938 -4.43212,-4.44348 -10.76653,-8.21318 -18.95313,-11.1621 -7.45347,-2.68484 -12.87759,-6.03875 -16.31445,-9.48438 -3.43685,-3.44563 -4.89024,-6.84935 -4.92188,-10.12891 -0.0633,-6.55911 6.05787,-14.37767 20.85938,-20.05859 16.25506,-6.23874 25.54981,-15.97334 25.44531,-26.80469 -0.0523,-5.41567 -2.57761,-10.66783 -7.00976,-15.11133 -4.43215,-4.44349 -10.76649,-8.21314 -18.95313,-11.1621 -7.45346,-2.68483 -12.87762,-6.03876 -16.31445,-9.48438 -3.43682,-3.44562 -4.89025,-6.84935 -4.92188,-10.12891 -0.0633,-6.5591 6.05597,-14.37774 20.85742,-20.05859 16.25501,-6.23885 25.55178,-15.97336 25.44727,-26.80469 -0.0522,-5.41566 -2.57763,-10.66591 -7.00977,-15.10937 -4.43215,-4.44346 -10.76648,-8.2132 -18.95312,-11.1621 -7.45346,-2.6849 -12.8776,-6.0388 -16.31445,-9.4844 -3.43684,-3.4456 -4.89024,-6.8494 -4.92188,-10.1289 -0.0633,-6.5591 6.05595,-14.3796 20.85742,-20.0606 16.25499,-6.2388 25.55178,-15.9714 25.44727,-26.8027 -0.0522,-5.4157 -2.57762,-10.6679 -7.00977,-15.1113 -4.43216,-4.4435 -10.76645,-8.2132 -18.95312,-11.1621 z" />
    </g>
    <g
       id="g12138"
       transform="matrix(1.4101302,1.4819711,-1.4819711,1.4101302,785.61057,-2794.298)">
      <g
         id="g12132"
         transform="matrix(2.5679904,0,0,2.5679904,1125.7217,1306.3373)">
        <g
           id="g12114"
           transform="matrix(0.16284797,0.78739692,-0.78739692,0.16284797,205.5674,-85.497149)"
           style="display:inline">
          <g
             id="g12106"
             transform="matrix(1.9664357,0,0,1.9664357,-134.61795,-76.951813)"
             style="fill:#ffffff;fill-opacity:1;stroke:none;filter:url(#filter2517-39-8)">
            <circle
               style="fill:#ffffff;fill-opacity:1;fill-rule:evenodd;stroke:none;stroke-width:1.35259;stroke-linecap:round;stroke-linejoin:round;stroke-miterlimit:4;stroke-dasharray:none;stroke-opacity:1"
               id="circle12102"
               cx="147.15125"
               cy="92.922531"
               r="4.0577559" />
            <rect
               style="fill:#ffffff;fill-opacity:1;fill-rule:evenodd;stroke:none;stroke-width:0.725764;stroke-linecap:round;stroke-linejoin:bevel;stroke-opacity:1;paint-order:markers fill stroke"
               id="rect12104"
               width="3.0780656"
               height="1.0863732"
               x="145.57661"
               y="92.378967" />
          </g>
          <g
             id="g12112"
             transform="translate(7.5942678,12.851838)">
            <circle
               style="fill:none;fill-opacity:1;fill-rule:evenodd;stroke:#0073de;stroke-width:1.35259;stroke-linecap:round;stroke-linejoin:round;stroke-miterlimit:4;stroke-dasharray:none;stroke-opacity:1"
               id="circle12108"
               cx="147.15125"
               cy="92.922531"
               r="4.0577559" />
            <rect
               style="fill:#0074e0;fill-opacity:1;fill-rule:evenodd;stroke:#0074e0;stroke-width:0.725764;stroke-linecap:round;stroke-linejoin:bevel;stroke-opacity:1;paint-order:markers fill stroke"
               id="rect12110"
               width="3.0780656"
               height="1.0863732"
               x="145.57661"
               y="92.378967" />
          </g>
        </g>
        <g
           id="g12130"
           transform="matrix(0.80406055,0,0,0.80406055,38.223105,-77.590126)"
           style="display:inline">
          <g
             id="g12120"
             transform="matrix(1.9664357,0,0,1.9664357,-153.98645,0.218369)"
             style="fill:#ffffff;fill-opacity:1;stroke:none;filter:url(#filter2517-3-6-5)">
            <circle
               style="fill:#ffffff;fill-opacity:1;fill-rule:evenodd;stroke:none;stroke-width:1.35259;stroke-linecap:round;stroke-linejoin:round;stroke-miterlimit:4;stroke-dasharray:none;stroke-opacity:1"
               id="circle12116"
               cx="147.15125"
               cy="92.922531"
               r="4.0577559" />
            <rect
               style="fill:#ffffff;fill-opacity:1;fill-rule:evenodd;stroke:none;stroke-width:0.725764;stroke-linecap:round;stroke-linejoin:bevel;stroke-opacity:1;paint-order:markers fill stroke"
               id="rect12118"
               width="3.0780656"
               height="1.0863732"
               x="145.57661"
               y="92.378967" />
          </g>
          <g
             id="g12128"
             transform="rotate(-11.77168,180.79526,234.73413)">
            <circle
               style="fill:none;fill-opacity:1;fill-rule:evenodd;stroke:#de2500;stroke-width:1.35259;stroke-linecap:round;stroke-linejoin:round;stroke-miterlimit:4;stroke-dasharray:none;stroke-opacity:1"
               id="circle12122"
               cx="146.88841"
               cy="174.77542"
               r="4.0577559" />
            <rect
               style="fill:#e02500;fill-opacity:1;fill-rule:evenodd;stroke:#e02500;stroke-width:0.725764;stroke-linecap:round;stroke-linejoin:bevel;stroke-opacity:1;paint-order:markers fill stroke"
               id="rect12124"
               width="0.93549085"
               height="5.0999341"
               x="146.42416"
               y="172.18327" />
            <rect
               style="fill:#e02500;fill-opacity:1;fill-rule:evenodd;stroke:#e02500;stroke-width:0.725764;stroke-linecap:round;stroke-linejoin:bevel;stroke-opacity:1;paint-order:markers fill stroke"
               id="rect12126"
               width="0.93549085"
               height="5.0999341"
               x="174.2655"
               y="-149.44188"
               transform="rotate(90)" />
          </g>
        </g>
      </g>
      <ellipse
         style="fill:none;fill-opacity:1;fill-rule:evenodd;stroke:url(#linearGradient12140);stroke-width:1.9;stroke-linecap:round;stroke-linejoin:bevel;stroke-miterlimit:4;stroke-dasharray:none;stroke-dashoffset:0;stroke-opacity:1;paint-order:markers fill stroke;filter:url(#filter45936)"
         id="ellipse12134"
         cx="156.37347"
         cy="61.094292"
         rx="12.300974"
         ry="18.500423"
         transform="matrix(2.5679904,0,0,2.5679904,1101.1517,1306.3373)" />
      <ellipse
         style="fill:none;fill-opacity:1;fill-rule:evenodd;stroke:url(#linearGradient12142);stroke-width:3.85198;stroke-linecap:round;stroke-linejoin:bevel;stroke-miterlimit:4;stroke-dasharray:7.70398, 23.1119;stroke-dashoffset:0;stroke-opacity:1;paint-order:markers fill stroke"
         id="ellipse12136"
         cx="1502.7173"
         cy="1463.2271"
         rx="30.092983"
         ry="49.208023" />
    </g>
  </g>
</svg>
