<?xml version="1.0" encoding="UTF-8" standalone="no"?>
<!-- Created with Inkscape (http://www.inkscape.org/) -->

<svg
   version="1.1"
   id="svg2"
   width="1931.5862"
   height="1196.8281"
   viewBox="0 0 1931.5862 1196.8281"
   sodipodi:docname="CTS Region for import.svg"
   inkscape:version="1.1.2 (b8e25be833, 2022-02-05)"
   xmlns:inkscape="http://www.inkscape.org/namespaces/inkscape"
   xmlns:sodipodi="http://sodipodi.sourceforge.net/DTD/sodipodi-0.dtd"
   xmlns:xlink="http://www.w3.org/1999/xlink"
   xmlns="http://www.w3.org/2000/svg"
   xmlns:svg="http://www.w3.org/2000/svg">
  <defs
     id="defs6">
    <marker
       style="overflow:visible"
       id="Arrow2Send"
       refX="0"
       refY="0"
       orient="auto"
       inkscape:stockid="Arrow2Send"
       inkscape:isstock="true">
      <path
         transform="matrix(-0.3,0,0,-0.3,0.69,0)"
         d="M 8.7185878,4.0337352 -2.2072895,0.01601326 8.7185884,-4.0017078 c -1.7454984,2.3720609 -1.7354408,5.6174519 -6e-7,8.035443 z"
         style="fill:context-stroke;fill-rule:evenodd;stroke:context-stroke;stroke-width:0.625;stroke-linejoin:round"
         id="path32279" />
    </marker>
    <linearGradient
       inkscape:collect="always"
       id="linearGradient5718">
      <stop
         style="stop-color:#ceffad;stop-opacity:1;"
         offset="0"
         id="stop5714" />
      <stop
         style="stop-color:#ceffad;stop-opacity:0;"
         offset="1"
         id="stop5716" />
    </linearGradient>
    <linearGradient
       inkscape:collect="always"
       id="linearGradient5122">
      <stop
         style="stop-color:#348800;stop-opacity:1;"
         offset="0"
         id="stop5118" />
      <stop
         style="stop-color:#348800;stop-opacity:0;"
         offset="1"
         id="stop5120" />
    </linearGradient>
    <linearGradient
       inkscape:collect="always"
       id="linearGradient15411">
      <stop
         style="stop-color:#deb996;stop-opacity:1"
         offset="0"
         id="stop15407" />
      <stop
         style="stop-color:#f6fcfd;stop-opacity:0"
         offset="1"
         id="stop15409" />
    </linearGradient>
    <linearGradient
       inkscape:collect="always"
       id="linearGradient14648">
      <stop
         style="stop-color:#97a2de;stop-opacity:1"
         offset="0"
         id="stop14644" />
      <stop
         style="stop-color:#f6fcfd;stop-opacity:0"
         offset="1"
         id="stop14646" />
    </linearGradient>
    <linearGradient
       inkscape:collect="always"
       id="linearGradient2179">
      <stop
         style="stop-color:#97cbde;stop-opacity:1"
         offset="0"
         id="stop2175" />
      <stop
         style="stop-color:#f6fcfd;stop-opacity:0"
         offset="1"
         id="stop2177" />
    </linearGradient>
    <linearGradient
       inkscape:collect="always"
       id="linearGradient855">
      <stop
         style="stop-color:#435055;stop-opacity:1"
         offset="0"
         id="stop851" />
      <stop
         style="stop-color:#6d6d6d;stop-opacity:0"
         offset="1"
         id="stop853" />
    </linearGradient>
    <radialGradient
       inkscape:collect="always"
       xlink:href="#linearGradient855"
       id="radialGradient865"
       cx="493.79834"
       cy="1698.8585"
       fx="493.79834"
       fy="1698.8585"
       r="62.650856"
       gradientTransform="matrix(4.2252024,-0.76875258,2.5420361,23.40128,-5345.6424,-40463.177)"
       gradientUnits="userSpaceOnUse" />
    <radialGradient
       inkscape:collect="always"
       xlink:href="#linearGradient14648"
       id="radialGradient1817"
       gradientUnits="userSpaceOnUse"
       gradientTransform="matrix(1.8443682,-0.88701573,-0.02251347,33.279135,-644.79904,-57185.859)"
       cx="493.79834"
       cy="1698.8585"
       fx="493.79834"
       fy="1698.8585"
       r="62.650856" />
    <filter
       inkscape:collect="always"
       style="color-interpolation-filters:sRGB"
       id="filter2517-39-8"
       x="-0.1349446"
       y="-0.1349446"
       width="1.2698892"
       height="1.2698892">
      <feGaussianBlur
         inkscape:collect="always"
         stdDeviation="0.4563102"
         id="feGaussianBlur2519-1-7" />
    </filter>
    <filter
       inkscape:collect="always"
       style="color-interpolation-filters:sRGB"
       id="filter2517-3-6-5"
       x="-0.1349446"
       y="-0.1349446"
       width="1.2698892"
       height="1.2698892">
      <feGaussianBlur
         inkscape:collect="always"
         stdDeviation="0.4563102"
         id="feGaussianBlur2519-6-6-8" />
    </filter>
    <marker
       style="overflow:visible"
       id="marker5556-2-63-4"
       refX="0"
       refY="0"
       orient="auto"
       inkscape:stockid="Arrow2Lend"
       inkscape:isstock="true">
      <path
         transform="matrix(-1.1,0,0,-1.1,-1.1,0)"
         d="M 8.7185878,4.0337352 -2.2072895,0.01601326 8.7185884,-4.0017078 c -1.7454984,2.3720609 -1.7354408,5.6174519 -6e-7,8.035443 z"
         style="fill:context-stroke;fill-rule:evenodd;stroke:context-stroke;stroke-width:0.625;stroke-linejoin:round"
         id="path5316-5-53-3" />
    </marker>
    <linearGradient
       inkscape:collect="always"
       id="linearGradient45300">
      <stop
         style="stop-color:#5698ff;stop-opacity:1"
         offset="0"
         id="stop45296" />
      <stop
         style="stop-color:#ff4e4e;stop-opacity:1"
         offset="1"
         id="stop45298" />
    </linearGradient>
    <filter
       inkscape:collect="always"
       style="color-interpolation-filters:sRGB"
       id="filter45936"
       x="-0.23917294"
       y="-0.15902663"
       width="1.4783459"
       height="1.3180533">
      <feGaussianBlur
         inkscape:collect="always"
         stdDeviation="2.0558833"
         id="feGaussianBlur45938" />
    </filter>
    <filter
       inkscape:collect="always"
       style="color-interpolation-filters:sRGB"
       id="filter11067"
       x="-0.06956125"
       y="-0.26650091"
       width="1.1391225"
       height="1.5330018">
      <feGaussianBlur
         inkscape:collect="always"
         stdDeviation="14.527836"
         id="feGaussianBlur11069" />
    </filter>
    <marker
       style="overflow:visible"
       id="marker5556-2-4-0-3-3"
       refX="0"
       refY="0"
       orient="auto"
       inkscape:stockid="Arrow2Lend"
       inkscape:isstock="true">
      <path
         transform="matrix(-1.1,0,0,-1.1,-1.1,0)"
         d="M 8.7185878,4.0337352 -2.2072895,0.01601326 8.7185884,-4.0017078 c -1.7454984,2.3720609 -1.7354408,5.6174519 -6e-7,8.035443 z"
         style="fill:context-stroke;fill-rule:evenodd;stroke:context-stroke;stroke-width:0.625;stroke-linejoin:round"
         id="path5316-5-0-2-4-50" />
    </marker>
    <marker
       style="overflow:visible"
       id="marker1718"
       refX="0"
       refY="0"
       orient="auto"
       inkscape:stockid="Arrow2Lend"
       inkscape:isstock="true">
      <path
         transform="matrix(-1.1,0,0,-1.1,-1.1,0)"
         d="M 8.7185878,4.0337352 -2.2072895,0.01601326 8.7185884,-4.0017078 c -1.7454984,2.3720609 -1.7354408,5.6174519 -6e-7,8.035443 z"
         style="fill:context-stroke;fill-rule:evenodd;stroke:context-stroke;stroke-width:0.625;stroke-linejoin:round"
         id="path1716" />
    </marker>
    <marker
       style="overflow:visible"
       id="marker1726"
       refX="0"
       refY="0"
       orient="auto"
       inkscape:stockid="Arrow2Lend"
       inkscape:isstock="true">
      <path
         transform="matrix(-1.1,0,0,-1.1,-1.1,0)"
         d="M 8.7185878,4.0337352 -2.2072895,0.01601326 8.7185884,-4.0017078 c -1.7454984,2.3720609 -1.7354408,5.6174519 -6e-7,8.035443 z"
         style="fill:context-stroke;fill-rule:evenodd;stroke:context-stroke;stroke-width:0.625;stroke-linejoin:round"
         id="path1724" />
    </marker>
    <marker
       style="overflow:visible"
       id="marker1741"
       refX="0"
       refY="0"
       orient="auto"
       inkscape:stockid="Arrow2Lend"
       inkscape:isstock="true">
      <path
         transform="matrix(-1.1,0,0,-1.1,-1.1,0)"
         d="M 8.7185878,4.0337352 -2.2072895,0.01601326 8.7185884,-4.0017078 c -1.7454984,2.3720609 -1.7354408,5.6174519 -6e-7,8.035443 z"
         style="fill:context-stroke;fill-rule:evenodd;stroke:context-stroke;stroke-width:0.625;stroke-linejoin:round"
         id="path1739" />
    </marker>
    <marker
       style="overflow:visible"
       id="marker1749"
       refX="0"
       refY="0"
       orient="auto"
       inkscape:stockid="Arrow2Lend"
       inkscape:isstock="true">
      <path
         transform="matrix(-1.1,0,0,-1.1,-1.1,0)"
         d="M 8.7185878,4.0337352 -2.2072895,0.01601326 8.7185884,-4.0017078 c -1.7454984,2.3720609 -1.7354408,5.6174519 -6e-7,8.035443 z"
         style="fill:context-stroke;fill-rule:evenodd;stroke:context-stroke;stroke-width:0.625;stroke-linejoin:round"
         id="path1747" />
    </marker>
    <marker
       style="overflow:visible"
       id="marker1764"
       refX="0"
       refY="0"
       orient="auto"
       inkscape:stockid="Arrow2Lend"
       inkscape:isstock="true">
      <path
         transform="matrix(-1.1,0,0,-1.1,-1.1,0)"
         d="M 8.7185878,4.0337352 -2.2072895,0.01601326 8.7185884,-4.0017078 c -1.7454984,2.3720609 -1.7354408,5.6174519 -6e-7,8.035443 z"
         style="fill:context-stroke;fill-rule:evenodd;stroke:context-stroke;stroke-width:0.625;stroke-linejoin:round"
         id="path1762" />
    </marker>
    <radialGradient
       inkscape:collect="always"
       xlink:href="#linearGradient2179"
       id="radialGradient13522"
       gradientUnits="userSpaceOnUse"
       gradientTransform="matrix(4.2252024,-0.76875258,2.5420361,23.40128,-6261.367,-40463.177)"
       cx="493.79834"
       cy="1698.8585"
       fx="493.79834"
       fy="1698.8585"
       r="62.650856" />
    <radialGradient
       inkscape:collect="always"
       xlink:href="#linearGradient15411"
       id="radialGradient14860"
       gradientUnits="userSpaceOnUse"
       gradientTransform="matrix(1.8443682,-0.88701573,-0.02251347,33.279135,102.70756,-57185.859)"
       cx="493.79834"
       cy="1698.8585"
       fx="493.79834"
       fy="1698.8585"
       r="62.650856" />
    <symbol
       id="v"
       overflow="visible">
      <path
         d="m 18.766,-1.125 c -0.96875,0.5 -1.9805,0.875 -3.0312,1.125 -1.043,0.25781 -2.1367,0.39062 -3.2812,0.39062 -3.3984,0 -6.0898,-0.94531 -8.0781,-2.8438 -1.9922,-1.9062 -2.9844,-4.4844 -2.9844,-7.7344 0,-3.2578 0.99219,-5.8359 2.9844,-7.7344 1.9883,-1.9062 4.6797,-2.8594 8.0781,-2.8594 1.1445,0 2.2383,0.13281 3.2812,0.39062 1.0508,0.25 2.0625,0.625 3.0312,1.125 v 4.2188 c -0.98047,-0.65625 -1.9453,-1.1406 -2.8906,-1.4531 -0.94922,-0.3125 -1.9492,-0.46875 -3,-0.46875 -1.875,0 -3.3516,0.60547 -4.4219,1.8125 -1.0742,1.1992 -1.6094,2.8555 -1.6094,4.9688 0,2.1055 0.53516,3.7617 1.6094,4.9688 1.0703,1.1992 2.5469,1.7969 4.4219,1.7969 1.0508,0 2.0508,-0.14844 3,-0.45312 0.94531,-0.3125 1.9102,-0.80078 2.8906,-1.4688 z"
         id="path30357" />
    </symbol>
    <symbol
       id="b"
       overflow="visible">
      <path
         d="m 13.734,-11.141 c -0.4375,-0.19531 -0.87109,-0.34375 -1.2969,-0.4375 -0.41797,-0.10156 -0.83984,-0.15625 -1.2656,-0.15625 -1.2617,0 -2.2305,0.40625 -2.9062,1.2188 -0.67969,0.80469 -1.0156,1.9531 -1.0156,3.4531 v 7.0625 H 2.3591 v -15.312 h 4.8906 v 2.5156 c 0.625,-1 1.3438,-1.7266 2.1562,-2.1875 0.82031,-0.46875 1.8008,-0.70312 2.9375,-0.70312 0.16406,0 0.34375,0.01172 0.53125,0.03125 0.19531,0.01172 0.47656,0.03906 0.84375,0.07813 z"
         id="path30360" />
    </symbol>
    <symbol
       id="a"
       overflow="visible">
      <path
         d="m 17.641,-7.7031 v 1.4062 H 6.188 c 0.125,1.1484 0.53906,2.0078 1.25,2.5781 0.70703,0.57422 1.7031,0.85938 2.9844,0.85938 1.0312,0 2.082,-0.14844 3.1562,-0.45312 1.082,-0.3125 2.1914,-0.77344 3.3281,-1.3906 v 3.7656 c -1.1562,0.4375 -2.3125,0.76562 -3.4688,0.98438 -1.1562,0.22656 -2.3125,0.34375 -3.4688,0.34375 -2.7734,0 -4.9297,-0.70312 -6.4688,-2.1094 -1.5312,-1.4062 -2.2969,-3.3789 -2.2969,-5.9219 0,-2.5 0.75391,-4.4609 2.2656,-5.8906 1.5078,-1.4375 3.582,-2.1562 6.2188,-2.1562 2.4062,0 4.332,0.73047 5.7812,2.1875 1.4453,1.4492 2.1719,3.3828 2.1719,5.7969 z m -5.0312,-1.625 c 0,-0.92578 -0.27344,-1.6719 -0.8125,-2.2344 -0.54297,-0.57031 -1.25,-0.85938 -2.125,-0.85938 -0.94922,0 -1.7188,0.26562 -2.3125,0.79688 -0.5937,0.53126 -0.96484,1.2969 -1.1094,2.2969 z"
         id="path30363" />
    </symbol>
    <symbol
       id="j"
       overflow="visible">
      <path
         d="m 9.2188,-6.8906 c -1.0234,0 -1.793,0.17188 -2.3125,0.51562 -0.51172,0.34375 -0.76562,0.85547 -0.76562,1.5312 0,0.625 0.20703,1.1172 0.625,1.4688 0.41406,0.34375 0.98828,0.51562 1.7188,0.51562 0.92578,0 1.7031,-0.32812 2.3281,-0.98438 0.63281,-0.66406 0.95312,-1.4922 0.95312,-2.4844 v -0.5625 z m 7.4688,-1.8438 V 0 h -4.9219 v -2.2656 c -0.65625,0.92969 -1.3984,1.6055 -2.2188,2.0312 -0.82422,0.41406 -1.8242,0.625 -3,0.625 -1.5859,0 -2.8711,-0.45703 -3.8594,-1.375 -0.99219,-0.92578 -1.4844,-2.1289 -1.4844,-3.6094 0,-1.7891 0.61328,-3.1016 1.8438,-3.9375 1.2383,-0.84375 3.1797,-1.2656 5.8281,-1.2656 h 2.8906 v -0.39062 c 0,-0.76953 -0.30859,-1.332 -0.92188,-1.6875 -0.61719,-0.36328 -1.5703,-0.54688 -2.8594,-0.54688 -1.0547,0 -2.0312,0.10547 -2.9375,0.3125 -0.89844,0.21094 -1.7305,0.52344 -2.5,0.9375 v -3.7344 c 1.0391,-0.25 2.0859,-0.44141 3.1406,-0.57812 1.0625,-0.13281 2.125,-0.20312 3.1875,-0.20312 2.7578,0 4.75,0.54688 5.9688,1.6406 1.2266,1.0859 1.8438,2.8555 1.8438,5.3125 z"
         id="path30366" />
    </symbol>
    <symbol
       id="e"
       overflow="visible">
      <path
         d="m 7.7031,-19.656 v 4.3438 H 12.75 v 3.5 H 7.7031 v 6.5 c 0,0.71094 0.14062,1.1875 0.42188,1.4375 0.28126,0.25 0.83594,0.375 1.6719,0.375 h 2.5156 v 3.5 h -4.1875 c -1.9375,0 -3.3125,-0.39844 -4.125,-1.2031 -0.80469,-0.8125 -1.2031,-2.1797 -1.2031,-4.1094 v -6.5 h -2.4219 v -3.5 h 2.4219 v -4.3438 z"
         id="path30369" />
    </symbol>
    <symbol
       id="g"
       overflow="visible">
      <path
         d="m 12.766,-13.078 v -8.2031 h 4.9219 V -1e-4 H 12.766 v -2.2188 c -0.66797,0.90625 -1.4062,1.5703 -2.2188,1.9844 -0.8126,0.4141 -1.7578,0.625 -2.8281,0.625 -1.8867,0 -3.4336,-0.75 -4.6406,-2.25 -1.2109,-1.5 -1.8125,-3.4258 -1.8125,-5.7812 0,-2.3633 0.60156,-4.2969 1.8125,-5.7969 1.207,-1.5 2.7539,-2.25 4.6406,-2.25 1.0625,0 2,0.21484 2.8125,0.64062 0.82031,0.42969 1.5664,1.0859 2.2344,1.9688 z m -3.2188,9.9219 c 1.0391,0 1.8359,-0.37891 2.3906,-1.1406 0.55078,-0.76953 0.82812,-1.8828 0.82812,-3.3438 0,-1.457 -0.27734,-2.5664 -0.82812,-3.3281 -0.55469,-0.76953 -1.3516,-1.1562 -2.3906,-1.1562 -1.043,0 -1.8398,0.38672 -2.3906,1.1562 -0.55469,0.76172 -0.82812,1.8711 -0.82812,3.3281 0,1.4609 0.27344,2.5742 0.82812,3.3438 0.55078,0.76172 1.3477,1.1406 2.3906,1.1406 z"
         id="path30372" />
    </symbol>
    <symbol
       id="d"
       overflow="visible">
      <path
         d="m 10.5,-3.1562 c 1.0508,0 1.8516,-0.37891 2.4062,-1.1406 0.55078,-0.76953 0.82812,-1.8828 0.82812,-3.3438 0,-1.457 -0.27734,-2.5664 -0.82812,-3.3281 -0.55469,-0.76953 -1.3555,-1.1562 -2.4062,-1.1562 -1.0547,0 -1.8594,0.38672 -2.4219,1.1562 -0.55469,0.77344 -0.82812,1.8828 -0.82812,3.3281 0,1.4492 0.27344,2.5586 0.82812,3.3281 0.5625,0.77344 1.3672,1.1562 2.4219,1.1562 z m -3.25,-9.9219 c 0.67578,-0.88281 1.4219,-1.5391 2.2344,-1.9688 0.82031,-0.42578 1.7656,-0.64062 2.8281,-0.64062 1.8945,0 3.4453,0.75 4.6562,2.25 1.207,1.5 1.8125,3.4336 1.8125,5.7969 0,2.3555 -0.60547,4.2812 -1.8125,5.7812 -1.2109,1.5 -2.7617,2.25 -4.6562,2.25 -1.0625,0 -2.0078,-0.21094 -2.8281,-0.625 C 8.6719,-0.6602 7.9258,-1.32032 7.25,-2.21882 V -2e-5 H 2.3594 v -21.281 H 7.25 Z"
         id="path30375" />
    </symbol>
    <symbol
       id="f"
       overflow="visible">
      <path
         d="m 0.34375,-15.312 h 4.8906 l 4.125,10.391 3.5,-10.391 h 4.8906 l -6.4375,16.766 c -0.64844,1.6953 -1.4023,2.8828 -2.2656,3.5625 -0.86719,0.6875 -2,1.0312 -3.4062,1.0312 H 2.79685 V 2.8289 h 1.5312 c 0.83203,0 1.4375,-0.13672 1.8125,-0.40625 C 6.52336,2.16093 6.82024,1.69218 7.03117,1.01645 L 7.17179,0.59457 Z"
         id="path30378" />
    </symbol>
    <symbol
       id="i"
       overflow="visible">
      <path
         d="m 0.14062,-20.406 h 18.812 v 3.9688 h -6.7656 V 8e-4 h -5.2656 v -16.438 h -6.7812 z"
         id="path30381" />
    </symbol>
    <symbol
       id="h"
       overflow="visible">
      <path
         d="M 2.3594,-21.281 H 7.25 V 0 H 2.3594 Z"
         id="path30384" />
    </symbol>
    <symbol
       id="u"
       overflow="visible">
      <path
         d="m 20.922,-1.5156 c -1.3125,0.63672 -2.6797,1.1172 -4.0938,1.4375 -1.4062,0.3125 -2.8672,0.46875 -4.375,0.46875 -3.3984,0 -6.0898,-0.94531 -8.0781,-2.8438 -1.9922,-1.9062 -2.9844,-4.4844 -2.9844,-7.7344 0,-3.2891 1.0078,-5.8789 3.0312,-7.7656 2.0312,-1.8828 4.8047,-2.8281 8.3281,-2.8281 1.3516,0 2.6484,0.13281 3.8906,0.39062 1.25,0.25 2.4258,0.625 3.5312,1.125 v 4.2188 c -1.1484,-0.64453 -2.2812,-1.125 -3.4062,-1.4375 -1.125,-0.32031 -2.25,-0.48438 -3.375,-0.48438 -2.1055,0 -3.7266,0.58984 -4.8594,1.7656 -1.125,1.168 -1.6875,2.8398 -1.6875,5.0156 0,2.1562 0.54688,3.8242 1.6406,5 1.0938,1.1797 2.6445,1.7656 4.6562,1.7656 0.53906,0 1.0469,-0.03125 1.5156,-0.09375 0.47656,-0.070313 0.89844,-0.17969 1.2656,-0.32812 v -3.9688 h -3.2031 v -3.5156 h 8.2031 z"
         id="path30387" />
    </symbol>
    <symbol
       id="c"
       overflow="visible">
      <path
         d="m 9.6406,-12.188 c -1.0859,0 -1.9141,0.39062 -2.4844,1.1719 -0.57422,0.78125 -0.85938,1.9062 -0.85938,3.375 0,1.4688 0.28516,2.5938 0.85938,3.375 0.57031,0.77344 1.3984,1.1562 2.4844,1.1562 1.0625,0 1.875,-0.38281 2.4375,-1.1562 0.57031,-0.78125 0.85938,-1.9062 0.85938,-3.375 0,-1.4688 -0.28906,-2.5938 -0.85938,-3.375 -0.5625,-0.78125 -1.375,-1.1719 -2.4375,-1.1719 z m 0,-3.5 c 2.6328,0 4.6914,0.71484 6.1719,2.1406 1.4766,1.418 2.2188,3.3867 2.2188,5.9062 0,2.5117 -0.74219,4.4805 -2.2188,5.9062 C 14.332,-0.317 12.2734,0.39 9.6406,0.39 6.9922,0.39 4.9258,-0.31703 3.4375,-1.735 1.9453,-3.1608 1.2031,-5.1295 1.2031,-7.6412 c 0,-2.5195 0.74219,-4.4883 2.2344,-5.9062 1.4883,-1.4258 3.5547,-2.1406 6.2031,-2.1406 z"
         id="path30390" />
    </symbol>
    <symbol
       id="t"
       overflow="visible">
      <path
         d="M 2.3594,-15.312 H 7.25 V 0 H 2.3594 Z m 0,-5.9688 H 7.25 v 4 H 2.3594 Z"
         id="path30393" />
    </symbol>
    <symbol
       id="s"
       overflow="visible">
      <path
         d="m 12.422,-21.281 v 3.2188 H 9.7189 c -0.6875,0 -1.1719,0.125 -1.4531,0.375 -0.27344,0.25 -0.40625,0.6875 -0.40625,1.3125 v 1.0625 h 4.1875 v 3.5 H 7.85955 V -2e-4 h -4.8906 v -11.812 h -2.4375 v -3.5 h 2.4375 v -1.0625 c 0,-1.6641 0.46094,-2.8984 1.3906,-3.7031 0.92578,-0.80078 2.3672,-1.2031 4.3281,-1.2031 z"
         id="path30396" />
    </symbol>
    <symbol
       id="r"
       overflow="visible">
      <path
         d="m 16.547,-12.766 c 0.61328,-0.94531 1.3477,-1.6719 2.2031,-2.1719 0.85156,-0.5 1.7891,-0.75 2.8125,-0.75 1.7578,0 3.0977,0.54688 4.0156,1.6406 0.92578,1.0859 1.3906,2.6562 1.3906,4.7188 V -4e-4 h -4.9219 v -7.9844 -0.35938 c 0.0078,-0.13281 0.01563,-0.32031 0.01563,-0.5625 0,-1.082 -0.16406,-1.8633 -0.48438,-2.3438 -0.3125,-0.48828 -0.82422,-0.73438 -1.5312,-0.73438 -0.92969,0 -1.6484,0.38672 -2.1562,1.1562 -0.51172,0.76172 -0.77344,1.8672 -0.78125,3.3125 v 7.5156 h -4.9219 v -7.9844 c 0,-1.6953 -0.14844,-2.7852 -0.4375,-3.2656 -0.29297,-0.48828 -0.8125,-0.73438 -1.5625,-0.73438 -0.9375,0 -1.6641,0.38672 -2.1719,1.1562 -0.51172,0.76172 -0.76562,1.8594 -0.76562,3.2969 v 7.5312 h -4.9219 v -15.312 h 4.9219 v 2.2344 c 0.60156,-0.86328 1.2891,-1.5156 2.0625,-1.9531 0.78125,-0.4375 1.6406,-0.65625 2.5781,-0.65625 1.0625,0 2,0.25781 2.8125,0.76562 0.8125,0.51172 1.4258,1.2305 1.8438,2.1562 z"
         id="path30399" />
    </symbol>
    <symbol
       id="q"
       overflow="visible">
      <path
         d="M 17.75,-9.3281 V 0 h -4.9219 v -7.1094 c 0,-1.3438 -0.03125,-2.2656 -0.09375,-2.7656 -0.0625,-0.5 -0.16797,-0.86719 -0.3125,-1.1094 -0.1875,-0.3125 -0.44922,-0.55469 -0.78125,-0.73438 -0.32422,-0.17578 -0.69531,-0.26562 -1.1094,-0.26562 -1.0234,0 -1.8242,0.39844 -2.4062,1.1875 -0.58594,0.78125 -0.875,1.8711 -0.875,3.2656 V -1e-4 H 2.3594 v -21.281 H 7.25 v 8.2031 c 0.73828,-0.88281 1.5195,-1.5391 2.3438,-1.9688 0.83203,-0.42578 1.75,-0.64062 2.75,-0.64062 1.7695,0 3.1133,0.54688 4.0312,1.6406 0.91406,1.0859 1.375,2.6562 1.375,4.7188 z"
         id="path30402" />
    </symbol>
    <symbol
       id="p"
       overflow="visible">
      <path
         d="m 2.5781,-20.406 h 5.875 l 7.4219,14 v -14 h 4.9844 V 0 h -5.875 L 7.5625,-14 V 0 H 2.5781 Z"
         id="path30405" />
    </symbol>
    <symbol
       id="o"
       overflow="visible">
      <path
         d="m 2.1875,-5.9688 v -9.3438 h 4.9219 v 1.5312 c 0,0.83594 -0.00781,1.875 -0.015625,3.125 -0.011719,1.25 -0.015625,2.0859 -0.015625,2.5 0,1.2422 0.03125,2.1328 0.09375,2.6719 0.070313,0.54297 0.17969,0.93359 0.32812,1.1719 0.20703,0.32422 0.47266,0.57422 0.79688,0.75 0.32031,0.16797 0.69141,0.25 1.1094,0.25 1.0195,0 1.8203,-0.39062 2.4062,-1.1719 0.58203,-0.78125 0.875,-1.8672 0.875,-3.2656 v -7.5625 h 4.8906 V -6e-4 H 12.6875 V -2.2194 C 11.94531,-1.32096 11.1641,-0.6608 10.3437,-0.235 9.51948,0.17906 8.6093,0.39 7.6093,0.39 5.8476,0.39 4.5038,-0.14906 3.5781,-1.235 2.64841,-2.317 2.1875,-3.8952 2.1875,-5.9694 Z"
         id="path30408" />
    </symbol>
    <symbol
       id="n"
       overflow="visible">
      <path
         d="M 17.75,-9.3281 V 0 h -4.9219 v -7.1406 c 0,-1.3203 -0.03125,-2.2344 -0.09375,-2.7344 -0.0625,-0.5 -0.16797,-0.86719 -0.3125,-1.1094 -0.1875,-0.3125 -0.44922,-0.55469 -0.78125,-0.73438 -0.32422,-0.17578 -0.69531,-0.26562 -1.1094,-0.26562 -1.0234,0 -1.8242,0.39844 -2.4062,1.1875 -0.58594,0.78125 -0.875,1.8711 -0.875,3.2656 V -1e-4 H 2.3594 v -15.312 H 7.25 v 2.2344 c 0.73828,-0.88281 1.5195,-1.5391 2.3438,-1.9688 0.83203,-0.42578 1.75,-0.64062 2.75,-0.64062 1.7695,0 3.1133,0.54688 4.0312,1.6406 0.91406,1.0859 1.375,2.6562 1.375,4.7188 z"
         id="path30411" />
    </symbol>
    <symbol
       id="m"
       overflow="visible">
      <path
         d="m 2.5781,-20.406 h 8.7344 c 2.5938,0 4.582,0.57812 5.9688,1.7344 1.3945,1.1484 2.0938,2.7891 2.0938,4.9219 0,2.1367 -0.69922,3.7812 -2.0938,4.9375 -1.3867,1.1562 -3.375,1.7344 -5.9688,1.7344 H 7.8281 V 3e-4 h -5.25 z m 5.25,3.8125 v 5.7031 H 10.75 c 1.0195,0 1.8047,-0.25 2.3594,-0.75 0.5625,-0.5 0.84375,-1.2031 0.84375,-2.1094 0,-0.91406 -0.28125,-1.6172 -0.84375,-2.1094 -0.55469,-0.48828 -1.3398,-0.73438 -2.3594,-0.73438 z"
         id="path30414" />
    </symbol>
    <symbol
       id="l"
       overflow="visible">
      <path
         d="M 2.3594,-15.312 H 7.25 v 15.031 c 0,2.0508 -0.49609,3.6172 -1.4844,4.7031 -0.98047,1.082 -2.4062,1.625 -4.2812,1.625 H -0.9375 V 2.8283 h 0.85938 c 0.92578,0 1.5625,-0.21094 1.9062,-0.625 0.35156,-0.41797 0.53125,-1.2461 0.53125,-2.4844 z m 0,-5.9688 H 7.25 v 4 H 2.3594 Z"
         id="path30417" />
    </symbol>
    <symbol
       id="k"
       overflow="visible">
      <path
         d="m 14.719,-14.828 v 3.9844 c -0.65625,-0.45703 -1.3242,-0.79688 -2,-1.0156 -0.66797,-0.21875 -1.3594,-0.32812 -2.0781,-0.32812 -1.3672,0 -2.4336,0.40234 -3.2031,1.2031 -0.76172,0.79297 -1.1406,1.9062 -1.1406,3.3438 0,1.4297 0.37891,2.543 1.1406,3.3438 0.76953,0.79297 1.8359,1.1875 3.2031,1.1875 0.75781,0 1.4844,-0.10938 2.1719,-0.32812 0.6875,-0.22656 1.3203,-0.56641 1.9062,-1.0156 v 4 c -0.76172,0.28125 -1.5391,0.48828 -2.3281,0.625 -0.78125,0.14453 -1.5742,0.21875 -2.375,0.21875 -2.7617,0 -4.9219,-0.70703 -6.4844,-2.125 -1.5547,-1.4141 -2.3281,-3.3828 -2.3281,-5.9062 0,-2.5312 0.77344,-4.5039 2.3281,-5.9219 1.5625,-1.4141 3.7227,-2.125 6.4844,-2.125 0.80078,0 1.5938,0.07422 2.375,0.21875 0.78125,0.13672 1.5547,0.35156 2.3281,0.64062 z"
         id="path30420" />
    </symbol>
    <filter
       inkscape:collect="always"
       style="color-interpolation-filters:sRGB"
       id="filter2742"
       x="-0.20019793"
       y="-0.010526191"
       width="1.4003959"
       height="1.0210524">
      <feGaussianBlur
         inkscape:collect="always"
         stdDeviation="6.36342"
         id="feGaussianBlur2744" />
    </filter>
    <marker
       style="overflow:visible"
       id="marker5556-2-4-0-3-3-5"
       refX="0"
       refY="0"
       orient="auto"
       inkscape:stockid="Arrow2Lend"
       inkscape:isstock="true">
      <path
         transform="matrix(-1.1,0,0,-1.1,-1.1,0)"
         d="M 8.7185878,4.0337352 -2.2072895,0.01601326 8.7185884,-4.0017078 c -1.7454984,2.3720609 -1.7354408,5.6174519 -6e-7,8.035443 z"
         style="fill:context-stroke;fill-rule:evenodd;stroke:context-stroke;stroke-width:0.625;stroke-linejoin:round"
         id="path5316-5-0-2-4-50-1" />
    </marker>
    <marker
       style="overflow:visible"
       id="marker2859"
       refX="0"
       refY="0"
       orient="auto"
       inkscape:stockid="Arrow2Lend"
       inkscape:isstock="true">
      <path
         transform="matrix(-1.1,0,0,-1.1,-1.1,0)"
         d="M 8.7185878,4.0337352 -2.2072895,0.01601326 8.7185884,-4.0017078 c -1.7454984,2.3720609 -1.7354408,5.6174519 -6e-7,8.035443 z"
         style="fill:context-stroke;fill-rule:evenodd;stroke:context-stroke;stroke-width:0.625;stroke-linejoin:round"
         id="path2857" />
    </marker>
    <linearGradient
       inkscape:collect="always"
       xlink:href="#linearGradient5718"
       id="linearGradient6632"
       gradientUnits="userSpaceOnUse"
       x1="358.06589"
       y1="-34.194897"
       x2="359.76501"
       y2="-238.08875" />
    <linearGradient
       inkscape:collect="always"
       xlink:href="#linearGradient5122"
       id="linearGradient6634"
       gradientUnits="userSpaceOnUse"
       x1="566.07251"
       y1="825.00507"
       x2="564.37341"
       y2="690.77496" />
    <linearGradient
       inkscape:collect="always"
       xlink:href="#linearGradient45300"
       id="linearGradient12140"
       gradientUnits="userSpaceOnUse"
       x1="156.43158"
       y1="27.773693"
       x2="157.1218"
       y2="95.346176" />
    <linearGradient
       inkscape:collect="always"
       xlink:href="#linearGradient45300"
       id="linearGradient12142"
       gradientUnits="userSpaceOnUse"
       gradientTransform="matrix(2.5679904,0,0,2.5679904,1101.1517,1306.3373)"
       x1="156.597"
       y1="29.427822"
       x2="157.1218"
       y2="95.346176" />
    <filter
       inkscape:collect="always"
       style="color-interpolation-filters:sRGB"
       id="filter2757"
       x="-0.0096871265"
       y="-0.034995554"
       width="1.0193743"
       height="1.0699911">
      <feGaussianBlur
         inkscape:collect="always"
         stdDeviation="7.5298146"
         id="feGaussianBlur2759" />
    </filter>
  </defs>
  <sodipodi:namedview
     id="namedview4"
     pagecolor="#ffffff"
     bordercolor="#666666"
     borderopacity="1.0"
     inkscape:pageshadow="2"
     inkscape:pageopacity="0.0"
     inkscape:pagecheckerboard="0"
     showgrid="false"
     inkscape:zoom="0.41616181"
     inkscape:cx="755.71567"
     inkscape:cy="593.51914"
     inkscape:window-width="1920"
     inkscape:window-height="1017"
     inkscape:window-x="-8"
     inkscape:window-y="-8"
     inkscape:window-maximized="1"
     inkscape:current-layer="g8" />
  <g
     inkscape:groupmode="layer"
     id="layer2"
     inkscape:label="Image 2"
     transform="translate(-125.32648,50.407413)">
    <rect
       style="display:inline;fill:#d79981;fill-opacity:1;fill-rule:evenodd;stroke:none;stroke-width:6.89649;stroke-linejoin:bevel;stroke-miterlimit:4;stroke-dasharray:none;stroke-opacity:1;paint-order:markers fill stroke"
       id="rect2859"
       width="694.9071"
       height="1863.2234"
       x="252.93744"
       y="-2017.5952"
       ry="0"
       transform="rotate(90)" />
    <rect
       style="display:inline;fill:url(#radialGradient13522);fill-opacity:1;fill-rule:evenodd;stroke:#379ea7;stroke-width:8.59938;stroke-linejoin:bevel;stroke-miterlimit:4;stroke-dasharray:none;stroke-opacity:1;paint-order:markers fill stroke"
       id="rect13520"
       width="117.74265"
       height="1865.8966"
       x="84.719353"
       y="-2020.2682"
       transform="rotate(90)" />
    <rect
       style="display:inline;fill:url(#radialGradient1817);fill-opacity:1;fill-rule:evenodd;stroke:#617bcb;stroke-width:8.59937;stroke-linejoin:bevel;stroke-miterlimit:4;stroke-dasharray:none;stroke-opacity:1;paint-order:markers fill stroke"
       id="rect1815"
       width="50.475418"
       height="1865.8966"
       x="202.46198"
       y="-2020.2682"
       transform="rotate(90)" />
    <path
       style="display:inline;fill:#892c2c;fill-opacity:1;stroke:none;stroke-width:1.1732px;stroke-linecap:butt;stroke-linejoin:miter;stroke-opacity:1"
       d="m 358.39525,356.81411 c 39.75699,18.6903 60.8048,30.5841 107.5777,115.53986 46.77292,84.9557 70.15938,129.1327 144.99605,152.9203 74.83668,23.7876 280.63752,-37.3805 285.31482,-57.7699 4.67729,-20.3894 9.35458,-74.761 60.80479,-74.761 51.45019,0 51.45019,6.7964 65.48209,67.9646 14.0319,61.1681 32.741,125.7345 65.4821,163.115 32.741,37.3805 37.4184,67.9646 121.6096,84.9558 84.1912,16.9911 93.5458,40.7787 121.6096,3.3982 28.0638,-37.3805 60.8048,-50.9735 60.8048,-91.7522 0,-40.7788 60.8048,-78.1593 60.8048,-78.1593 0,0 116.9322,-30.5841 93.5459,-3.3982 -23.3866,27.1858 -4.6774,-10.1947 -32.7411,33.9823 -28.0638,44.1769 -56.1275,74.761 -14.0319,91.7522 42.0956,16.9911 14.0319,10.1947 56.1275,20.3893 42.0956,10.1947 52.1886,-0.5626 70.1594,23.7877 12.4104,19.4236 22.0458,7.0335 31.6056,-5.7991 29.7661,-36.0437 0,7.2087 39.6882,-48.0583 39.6881,-55.2669 26.4588,-50.4611 49.6101,-64.8786 23.1514,-14.4175 49.6102,-33.6407 49.6102,-33.6407 39.6882,-12.0146 49.6102,-9.6117 92.6056,2.4029 42.9956,12.0145 69.4544,0 89.2983,0 19.8442,0 39.6883,1.2014 39.6883,1.2014 V 949.29249 H 153.78633 V 356.03811 c 0,0 164.85193,-17.9143 204.60892,0.776 z"
       id="path3731"
       sodipodi:nodetypes="zssssssssscssssccsssssccccz" />
    <rect
       style="display:inline;fill:url(#radialGradient865);fill-opacity:1;fill-rule:evenodd;stroke:#6f6f6f;stroke-width:8.59938;stroke-linejoin:bevel;stroke-miterlimit:4;stroke-dasharray:none;stroke-opacity:1;paint-order:markers fill stroke"
       id="rect849"
       width="117.74265"
       height="1865.8966"
       x="1000.4437"
       y="-2020.2682"
       transform="rotate(90)" />
    <rect
       style="display:inline;fill:url(#radialGradient14860);fill-opacity:1;fill-rule:evenodd;stroke:#b86f15;stroke-width:8.59938;stroke-linejoin:bevel;stroke-miterlimit:4;stroke-dasharray:none;stroke-opacity:1;paint-order:markers fill stroke"
       id="rect14858"
       width="50.475418"
       height="1865.8966"
       x="949.96838"
       y="-2020.2682"
       transform="rotate(90)" />
    <path
       id="path3362-2"
       style="display:inline;mix-blend-mode:normal;fill:#84dea8;fill-opacity:1;stroke:none;stroke-width:1.1732px;stroke-linecap:butt;stroke-linejoin:miter;stroke-opacity:1;filter:url(#filter2757)"
       d="m 276.00885,328.88287 c -58.00276,0.6853 -122.99916,4.0793 -122.99916,4.0793 l 1.20146,45.1644 c 0,0 152.95785,-21.3114 192.71484,-2.6211 23.45934,11.0286 38.11056,18.5841 55.73047,40.0743 12.24088,14.9295 25.87709,36.3907 45.05078,71.2168 46.77292,84.9556 85.45239,136.7788 160.28906,160.5664 74.83668,23.7876 306.12348,-44.177 310.80078,-64.5664 4.67729,-20.3895 5.11568,-74.5736 48.48632,-73.4864 25.7465,0.6454 22.9896,-2.9729 37.0215,58.1953 14.0319,61.1681 37.839,128.7074 70.5801,166.0879 32.741,37.3805 46.3381,73.0616 130.5293,90.0528 84.1912,16.9911 115.2093,38.22987 143.2731,0.84937 28.0638,-37.3805 65.0526,-58.6177 65.0526,-99.3964 0,-40.7788 39.991,-62.01815 39.991,-62.01815 0,0 59.3742,-15.29325 35.9879,11.89265 -23.3866,27.1858 8.0668,-8.28233 -19.9969,35.89467 -28.0638,44.1769 -19.3113,58.13761 22.7843,75.12881 42.0956,16.9911 18.5273,10.55535 60.6229,20.74995 42.0956,10.1947 38.8676,0.90923 56.8384,25.25953 12.4104,19.4236 57.3199,3.28222 66.8797,-9.55038 29.7661,-36.0437 4.6497,-6.64085 44.3379,-61.90785 39.6881,-55.2669 21.5091,-38.28988 44.6604,-52.70738 23.1514,-14.4175 42.7618,-30.93757 42.7618,-30.93757 39.6882,-12.0146 30.9327,-5.78826 73.9281,6.22634 42.9956,12.0145 71.1522,5.09747 90.9961,5.09747 17.5596,0 40.3005,0.60932 44.6367,0.61432 0.5641,6e-4 0.3046,-53.04653 0.3046,-53.04653 0,0 -17.2966,0.49795 -37.1408,0.49795 -19.8439,0 -42.0535,7.34191 -85.0491,-4.67259 -42.9954,-12.0146 -62.2644,-13.14254 -101.9526,-1.12794 0,0 -30.0685,16.462 -53.2199,30.8795 -23.1513,14.4175 -18.2737,11.81675 -57.9618,67.08365 -39.6882,55.267 -5.1691,13.11322 -34.9352,49.15692 -9.5598,12.8326 -3.0785,29.77954 -15.4889,10.35594 -17.9708,-24.3503 -15.8595,-14.7939 -57.9551,-24.9886 -42.0956,-10.1946 -10.3259,3.40772 -52.4215,-13.58338 -42.0956,-16.9912 -20.6902,-13.90047 7.3736,-58.07737 28.0637,-44.177 33.0613,-25.7741 53.1385,-55.4879 34.1994,-50.6142 -128.3605,-25.67651 -128.3605,-25.67651 0,0 -87.7079,59.58869 -87.7079,100.36749 0,40.7787 -18.0835,40.46047 -46.1473,77.84097 -28.0638,37.3805 -20.6601,22.44022 -104.8513,5.44912 -84.1912,-16.9912 -80.1578,-40.9666 -112.8988,-78.3471 -32.7411,-37.3805 -47.5458,-98.3427 -61.5777,-159.5109 -6.259,-27.2843 -17.7056,-56.8822 -24.1923,-66.7527 -8.0558,-12.2579 -29.3076,-12.3256 -57.8082,-12.3256 -8.40205,0 -26.56111,1.8634 -32.67209,4.3785 -31.31023,12.8867 -45.84536,53.6238 -49.75884,70.6835 -4.6773,20.3894 -188.85352,72.5463 -263.6902,48.7587 -74.83667,-23.7876 -82.60425,-53.5468 -129.37717,-138.5025 -11.61277,-21.0928 -20.12689,-37.3452 -29.24818,-50.6527 -27.61663,-40.2913 -57.45278,-58.6459 -87.33891,-72.6957 -14.90887,-7.0089 -56.4202,-10.374 -91.22186,-9.9629 z"
       sodipodi:nodetypes="sccssssssssssscssssccsscssscsscssccsssscssssssssssssss" />
  </g>
  <g
     inkscape:groupmode="layer"
     id="layer1"
     inkscape:label="Image 1"
     style="display:inline"
     transform="translate(-323.90466,-871.44714)" />
  <g
     inkscape:groupmode="layer"
     inkscape:label="Image"
     id="g8"
     transform="translate(-323.90466,-871.44714)">
    <g
       id="g3058"
       transform="translate(-175.41254,-16.82038)">
      <rect
         style="mix-blend-mode:normal;fill:#caecd5;fill-opacity:1;fill-rule:evenodd;stroke:none;stroke-width:13.1836;stroke-linecap:round;stroke-linejoin:bevel;stroke-miterlimit:4;stroke-dasharray:none;stroke-opacity:1;paint-order:markers fill stroke;filter:url(#filter11067)"
         id="rect10809"
         width="501.23892"
         height="130.83185"
         x="1269.2389"
         y="1712.708"
         transform="matrix(1.2169746,0,0,1.4905327,-49.81535,-1304.5717)" />
      <g
         aria-label="CTS
Absorption Region"
         id="text8111"
         style="font-size:66.6667px;line-height:1;font-family:Bahnschrift;-inkscape-font-specification:Bahnschrift;letter-spacing:0px;word-spacing:0px">
        <path
           d="m 1759.6339,1333.0596 q -4.9154,0 -8.6589,-2.181 -3.7109,-2.181 -5.7617,-6.1849 -2.0508,-4.0039 -2.0508,-9.2774 v -12.9883 q 0,-5.2734 2.0508,-9.2773 2.0508,-4.0039 5.7617,-6.1849 3.7435,-2.2135 8.6589,-2.2135 4.069,0 7.487,1.7578 3.4179,1.7252 5.6966,4.9153 2.3112,3.1901 3.125,7.3894 v 0 h -6.8034 v 0 q -0.6185,-2.2136 -2.0833,-3.9388 -1.4323,-1.7579 -3.3854,-2.7019 -1.9532,-0.944 -4.0365,-0.944 -2.8971,0 -5.0781,1.3998 -2.181,1.3997 -3.3855,3.9388 -1.2044,2.5065 -1.2044,5.8593 v 12.9883 q 0,3.3203 1.2044,5.8594 1.2045,2.5391 3.3855,3.9388 2.181,1.3672 5.0781,1.3672 2.1159,0 4.0365,-0.8789 1.9531,-0.8789 3.3854,-2.6042 1.4648,-1.7252 2.0833,-4.1015 v 0 h 6.8034 v 0 q -0.8138,4.1992 -3.125,7.3893 -2.3112,3.1901 -5.7292,4.9479 -3.4179,1.7253 -7.4544,1.7253 z"
           style="text-align:center;text-anchor:middle"
           id="path1906" />
        <path
           d="m 1792.2511,1289.1142 h 6.6406 v 43.4571 h -6.6406 z m -13.3789,-3.8737 h 33.3984 v 6.3151 h -33.3984 z"
           style="text-align:center;text-anchor:middle"
           id="path1908" />
        <path
           d="m 1831.7042,1333.0596 q -3.4179,0 -6.4778,-0.6511 -3.0599,-0.651 -5.7292,-1.9531 -2.6367,-1.3021 -4.9479,-3.2552 v 0 l 4.1341,-5.0781 v 0 q 2.7018,2.3437 5.957,3.5156 3.2552,1.1719 7.0638,1.1719 5.1433,0 7.9753,-1.8881 2.832,-1.9205 2.832,-5.4036 v -0.033 q 0,-2.4739 -1.302,-3.9062 -1.2696,-1.4649 -3.3204,-2.1484 -2.0182,-0.7162 -5.2408,-1.3021 -0.098,-0.033 -0.2279,-0.033 -0.098,0 -0.1953,-0.033 l -0.4883,-0.098 q -4.7526,-0.8138 -7.7474,-1.8229 -2.9622,-1.0417 -5.0781,-3.7435 -2.1159,-2.7344 -2.1159,-7.7474 v -0.033 q 0,-4.3945 1.9531,-7.4869 1.9857,-3.125 5.7617,-4.7526 3.7761,-1.6276 9.0821,-1.6276 2.539,0 4.9804,0.5533 2.474,0.5534 4.8503,1.6602 2.4089,1.0742 4.7201,2.7344 v 0 l -3.7761,5.2734 v 0 q -2.7018,-1.9857 -5.4036,-2.9622 -2.6693,-1.0091 -5.3711,-1.0091 -4.8503,0 -7.5521,1.9531 -2.6693,1.9206 -2.6693,5.4687 v 0.033 q 0,2.4414 1.3672,3.8411 1.3997,1.3998 3.4505,2.0834 2.0833,0.651 5.7617,1.3672 0.1302,0.033 0.2279,0.065 0.1302,0 0.2604,0.033 0.1628,0.033 0.3581,0.065 0.1953,0.033 0.3581,0.065 4.2968,0.8789 7.1614,2.0834 2.8972,1.2044 4.8177,3.9062 1.9532,2.6693 1.9532,7.3242 v 0.065 q 0,4.3295 -2.0508,7.4219 -2.0508,3.0599 -5.9571,4.6875 -3.8737,1.5951 -9.375,1.5951 z"
           style="text-align:center;text-anchor:middle"
           id="path1910" />
        <path
           d="m 1539.6631,1351.9072 h 5.664 l 17.448,47.3308 h -7.1615 l -13.1185,-38.1836 -13.1185,38.1836 h -7.1615 z m -9.4076,30.6316 h 24.9024 v 6.3151 h -24.9024 z"
           style="text-align:center;text-anchor:middle"
           id="path1912" />
        <path
           d="m 1584.4222,1399.7263 q -3.1575,0 -5.5013,-1.4974 -2.3437,-1.53 -3.4505,-4.2969 l 0.4557,-7.0638 q 0,2.181 0.7813,3.7109 0.7812,1.53 2.2461,2.3438 1.4974,0.8138 3.6132,0.8138 3.2878,0 5.0782,-1.9857 1.8229,-2.0182 1.8229,-5.6641 v -7.3242 q 0,-3.7109 -1.8229,-5.7617 -1.7904,-2.0508 -5.0782,-2.0508 -2.1158,0 -3.6132,0.7813 -1.4649,0.7812 -2.2461,2.3112 -0.7813,1.4974 -0.7813,3.6132 l -0.6836,-6.5104 q 1.53,-2.9622 4.0039,-4.5573 2.474,-1.6276 5.5013,-1.6276 3.5808,0 6.1198,1.6276 2.5716,1.5951 3.9063,4.6875 1.3346,3.0925 1.3346,7.4545 v 7.3567 q 0,4.2969 -1.3672,7.3568 -1.3672,3.0599 -4.0039,4.6875 -2.6367,1.5951 -6.3151,1.5951 z m -15.1367,-47.8191 h 6.6406 v 47.3308 h -6.6406 z"
           style="text-align:center;text-anchor:middle"
           id="path1914" />
        <path
           d="m 1617.4951,1399.7263 q -2.9948,0 -5.6315,-0.586 -2.6041,-0.5859 -4.8828,-1.7578 -2.2786,-1.1719 -4.1992,-2.9297 v 0 l 3.9388,-4.8502 v 0 q 2.7344,2.0833 5.4362,3.125 2.7018,1.0416 5.3385,1.0416 3.9388,0 5.892,-1.2044 1.9857,-1.237 1.9857,-3.6784 0,-1.6276 -1.0743,-2.4414 -1.0742,-0.8138 -2.6692,-1.0742 -1.5951,-0.293 -4.4922,-0.5208 -0.2604,0 -0.5534,0 -0.293,-0.033 -0.5534,-0.065 -0.1302,0 -0.2604,0 -0.1302,-0.033 -0.2604,-0.033 -3.2878,-0.2604 -5.5664,-0.944 -2.2787,-0.7162 -3.8086,-2.6367 -1.4974,-1.9206 -1.4974,-5.5013 0,-3.5808 1.4648,-5.9571 1.4649,-2.3763 4.362,-3.5481 2.8971,-1.2045 7.2591,-1.2045 2.6367,0 5.013,0.4883 2.4089,0.4883 4.5899,1.4649 2.181,0.944 4.1992,2.4088 v 0 l -4.0039,4.8503 v 0 q -2.5391,-1.6276 -5.013,-2.4414 -2.4414,-0.8138 -4.7852,-0.8138 -3.3854,0 -5.0781,1.1718 -1.6927,1.1394 -1.6927,3.4506 0,1.3672 0.944,2.0507 0.9765,0.6836 2.4414,0.9115 1.4648,0.2279 4.1667,0.3906 0.1953,0.033 0.3906,0.033 0.2278,0 0.4557,0.033 0.098,0 0.1953,0 0.098,0 0.1953,0.033 3.5482,0.2278 6.0222,0.944 2.5065,0.7161 4.1992,2.832 1.6927,2.1159 1.6927,6.1198 0,3.6459 -1.5625,6.0547 -1.5625,2.3763 -4.72,3.5807 -3.1251,1.2045 -7.8777,1.2045 z"
           style="text-align:center;text-anchor:middle"
           id="path1916" />
        <path
           d="m 1653.0746,1399.7263 q -4.3945,0 -7.5195,-1.7253 -3.1251,-1.7252 -4.7852,-5.013 -1.6276,-3.3203 -1.6276,-7.9753 v -5.5013 q 0,-4.5898 1.6276,-7.845 1.6601,-3.2878 4.7852,-4.9805 3.125,-1.7253 7.5195,-1.7253 4.3945,0 7.5195,1.7253 3.125,1.6927 4.7526,4.9805 1.6602,3.2552 1.6602,7.845 v 5.599 q 0,4.6224 -1.6602,7.9101 -1.6276,3.2553 -4.7526,4.9805 -3.125,1.7253 -7.5195,1.7253 z m 0,-6.3151 q 3.4831,0 5.3711,-2.181 1.9206,-2.181 1.9206,-6.1198 v -5.599 q 0,-3.9388 -1.9206,-6.0872 -1.888,-2.1485 -5.3711,-2.1485 -3.4831,0 -5.4037,2.1485 -1.888,2.1484 -1.888,6.0872 v 5.599 q 0,3.9388 1.888,6.1198 1.9206,2.181 5.4037,2.181 z"
           style="text-align:center;text-anchor:middle"
           id="path1918" />
        <path
           d="m 1676.447,1365.4489 h 6.6406 v 33.7891 h -6.6406 z m 18.5872,8.0078 q -0.8789,-1.0742 -2.2135,-1.6276 -1.3346,-0.5534 -3.0925,-0.5534 -3.1575,0 -4.9153,1.7579 -1.7253,1.7252 -1.7253,4.8177 l -0.6836,-6.5105 q 1.5625,-3.0273 4.0365,-4.6875 2.4739,-1.6927 5.4687,-1.6927 2.3112,0 4.1667,0.6836 1.888,0.6511 3.2878,1.9531 z"
           style="text-align:center;text-anchor:middle"
           id="path1920" />
        <path
           d="m 1704.8975,1365.4489 h 6.6407 v 47.5261 h -6.6407 z m 15.1368,34.2774 q -3.1576,0 -5.5013,-1.4974 -2.3438,-1.53 -3.4506,-4.2969 l 0.4558,-7.0638 q 0,2.181 0.7812,3.7109 0.7813,1.53 2.2461,2.3438 1.4974,0.8138 3.6133,0.8138 3.2878,0 5.0781,-1.9857 1.8229,-2.0182 1.8229,-5.6641 v -7.3242 q 0,-3.7109 -1.8229,-5.7617 -1.7903,-2.0508 -5.0781,-2.0508 -2.1159,0 -3.6133,0.7813 -1.4648,0.7812 -2.2461,2.3112 -0.7812,1.4974 -0.7812,3.6132 l -0.6836,-6.5104 q 1.5299,-2.9622 4.0039,-4.5573 2.4739,-1.6276 5.5013,-1.6276 3.5807,0 6.1198,1.6276 2.5716,1.5951 3.9062,4.6875 1.3347,3.0925 1.3347,7.4545 v 7.3567 q 0,4.2969 -1.3672,7.3568 -1.3672,3.0599 -4.0039,4.6875 -2.6367,1.5951 -6.3151,1.5951 z"
           style="text-align:center;text-anchor:middle"
           id="path1922" />
        <path
           d="m 1749.9496,1399.4008 q -4.1015,0 -6.0221,-2.2461 -1.888,-2.2787 -1.888,-6.7058 v -34.8307 h 6.6406 v 34.8958 q 0,1.237 0.4883,1.9206 0.4883,0.651 1.4323,0.651 h 3.1901 v 6.3152 z m -11.3932,-33.9519 h 15.2344 v 5.9896 h -15.2344 z"
           style="text-align:center;text-anchor:middle"
           id="path1924" />
        <path
           d="m 1762.9054,1351.9072 h 6.6406 v 6.6407 h -6.6406 z m 0,13.5417 h 6.6406 v 33.7891 h -6.6406 z"
           style="text-align:center;text-anchor:middle"
           id="path1926" />
        <path
           d="m 1792.5929,1399.7263 q -4.3945,0 -7.5195,-1.7253 -3.125,-1.7252 -4.7852,-5.013 -1.6276,-3.3203 -1.6276,-7.9753 v -5.5013 q 0,-4.5898 1.6276,-7.845 1.6602,-3.2878 4.7852,-4.9805 3.125,-1.7253 7.5195,-1.7253 4.3945,0 7.5195,1.7253 3.125,1.6927 4.7526,4.9805 1.6602,3.2552 1.6602,7.845 v 5.599 q 0,4.6224 -1.6602,7.9101 -1.6276,3.2553 -4.7526,4.9805 -3.125,1.7253 -7.5195,1.7253 z m 0,-6.3151 q 3.4831,0 5.3711,-2.181 1.9206,-2.181 1.9206,-6.1198 v -5.599 q 0,-3.9388 -1.9206,-6.0872 -1.888,-2.1485 -5.3711,-2.1485 -3.4831,0 -5.4037,2.1485 -1.888,2.1484 -1.888,6.0872 v 5.599 q 0,3.9388 1.888,6.1198 1.9206,2.181 5.4037,2.181 z"
           style="text-align:center;text-anchor:middle"
           id="path1928" />
        <path
           d="m 1815.9653,1365.4489 h 6.6406 v 33.7891 h -6.6406 z m 20.5078,13.3138 q 0,-3.5807 -1.8554,-5.5338 -1.8555,-1.9532 -5.2084,-1.9532 -3.2552,0 -5.0456,1.7253 -1.7578,1.7253 -1.7578,4.8503 l -0.6836,-6.5105 q 1.5625,-3.0599 4.069,-4.72 2.5391,-1.6602 5.599,-1.6602 5.5013,0 8.4961,3.6133 3.0274,3.5807 3.0274,10.1563 v 20.5078 h -6.6407 z"
           style="text-align:center;text-anchor:middle"
           id="path1930" />
        <path
           d="m 1874.6567,1372.9033 h 16.1459 q 1.888,0 3.3528,-0.9114 1.4649,-0.9115 2.2461,-2.5716 0.8138,-1.6927 0.8138,-3.8737 v 0 q 0,-2.181 -0.8138,-3.8412 -0.7812,-1.6927 -2.2461,-2.6041 -1.4323,-0.9115 -3.3528,-0.9115 h -16.1459 v -6.3151 h 15.8855 q 4.1015,0 7.194,1.6927 3.125,1.6927 4.8177,4.8177 1.7252,3.0925 1.7252,7.1615 v 0 q 0,4.069 -1.7252,7.194 -1.7253,3.0924 -4.8503,4.7851 -3.0924,1.6927 -7.1614,1.6927 h -15.8855 z m -2.8971,-21.0286 h 6.6406 v 47.3633 h -6.6406 z m 15.7878,25.8789 6.608,-1.4974 12.1094,22.9818 h -7.8776 z"
           style="text-align:center;text-anchor:middle"
           id="path1932" />
        <path
           d="m 1927.0982,1399.7263 q -4.6875,0 -8.0079,-1.7578 -3.3203,-1.7579 -5.0781,-5.1433 -1.7252,-3.4179 -1.7252,-8.2357 v -3.8085 q 0,-5.0131 1.6601,-8.5613 1.6927,-3.5481 4.8828,-5.4036 3.1901,-1.8555 7.6823,-1.8555 4.2318,0 7.2266,2.1159 2.9948,2.1159 4.5573,6.1198 1.595,4.0039 1.595,9.6029 v 2.2135 h -22.7864 v -5.3385 h 16.4713 v 0 q -0.2929,-4.1341 -2.1484,-6.4128 -1.8229,-2.3112 -4.9154,-2.3112 -3.776,0 -5.8594,2.474 -2.0507,2.4739 -2.0507,6.9987 v 4.2969 q 0,4.1992 2.2135,6.4453 2.2135,2.2461 6.2826,2.2461 2.0182,0 4.0039,-0.8138 1.9856,-0.8138 3.5481,-2.2787 v 0 l 4.362,4.362 v 0 q -2.5065,2.4089 -5.6315,3.7435 -3.125,1.3021 -6.2825,1.3021 z"
           style="text-align:center;text-anchor:middle"
           id="path1934" />
        <path
           d="m 1960.3339,1412.975 q -3.8086,0 -6.836,-1.4323 -2.9948,-1.3998 -4.6549,-3.9714 v 0 l 4.4922,-4.069 v 0 q 1.302,1.7904 3.0924,2.7669 1.8229,0.9766 3.8086,0.9766 3.8086,0 5.8919,-2.1159 2.0834,-2.0833 2.0834,-5.9245 v -33.7565 h 6.6406 v 32.78 q 0,4.6549 -1.7253,7.9752 -1.6927,3.3204 -4.9479,5.0456 -3.2552,1.7253 -7.845,1.7253 z m -0.6185,-13.1511 q -3.711,0 -6.3477,-1.595 -2.6042,-1.6276 -3.9713,-4.7201 -1.3672,-3.0924 -1.3672,-7.4219 v -7.4544 q 0,-4.362 1.3346,-7.4544 1.3346,-3.0925 3.8737,-4.6875 2.5716,-1.6276 6.1524,-1.6276 2.9947,0 5.4687,1.5625 2.5065,1.5625 4.0365,4.3945 l -0.6836,6.9011 q 0,-2.1485 -0.7813,-3.6784 -0.7812,-1.53 -2.2786,-2.3112 -1.4649,-0.8138 -3.5808,-0.8138 -3.2877,0 -5.1106,2.0507 -1.7904,2.0508 -1.7904,5.7618 v 7.3567 q 0,3.6784 1.7904,5.6967 1.8229,1.9856 5.1106,1.9856 2.1159,0 3.5808,-0.8138 1.4974,-0.8463 2.2786,-2.4088 0.7813,-1.5625 0.7813,-3.7435 l 0.4557,7.1289 q -1.0091,2.5065 -3.3203,4.1992 -2.2787,1.6927 -5.6315,1.6927 z"
           style="text-align:center;text-anchor:middle"
           id="path1936" />
        <path
           d="m 1984.9433,1351.9072 h 6.6406 v 6.6407 h -6.6406 z m 0,13.5417 h 6.6406 v 33.7891 h -6.6406 z"
           style="text-align:center;text-anchor:middle"
           id="path1938" />
        <path
           d="m 2014.6308,1399.7263 q -4.3946,0 -7.5196,-1.7253 -3.125,-1.7252 -4.7851,-5.013 -1.6276,-3.3203 -1.6276,-7.9753 v -5.5013 q 0,-4.5898 1.6276,-7.845 1.6601,-3.2878 4.7851,-4.9805 3.125,-1.7253 7.5196,-1.7253 4.3945,0 7.5195,1.7253 3.125,1.6927 4.7526,4.9805 1.6602,3.2552 1.6602,7.845 v 5.599 q 0,4.6224 -1.6602,7.9101 -1.6276,3.2553 -4.7526,4.9805 -3.125,1.7253 -7.5195,1.7253 z m 0,-6.3151 q 3.4831,0 5.3711,-2.181 1.9206,-2.181 1.9206,-6.1198 v -5.599 q 0,-3.9388 -1.9206,-6.0872 -1.888,-2.1485 -5.3711,-2.1485 -3.4831,0 -5.4037,2.1485 -1.888,2.1484 -1.888,6.0872 v 5.599 q 0,3.9388 1.888,6.1198 1.9206,2.181 5.4037,2.181 z"
           style="text-align:center;text-anchor:middle"
           id="path1940" />
        <path
           d="m 2038.0032,1365.4489 h 6.6406 v 33.7891 h -6.6406 z m 20.5078,13.3138 q 0,-3.5807 -1.8555,-5.5338 -1.8554,-1.9532 -5.2083,-1.9532 -3.2552,0 -5.0456,1.7253 -1.7578,1.7253 -1.7578,4.8503 l -0.6836,-6.5105 q 1.5625,-3.0599 4.069,-4.72 2.5391,-1.6602 5.599,-1.6602 5.5013,0 8.4961,3.6133 3.0273,3.5807 3.0273,10.1563 v 20.5078 h -6.6406 z"
           style="text-align:center;text-anchor:middle"
           id="path1942" />
      </g>
    </g>
    <g
       id="path32244">
      <path
         id="path4049"
         style="color:#000000;fill:#000000;stroke-linecap:round;-inkscape-stroke:none"
         d="m 964.32031,283.25977 a 8.62675,8.62675 0 0 0 -8.625,8.62695 v 129.39062 c -3.93727,-1.04324 -7.71703,-2.81168 -11.1289,-5.32226 a 1.6176767,1.6176767 0 0 0 -2.47657,1.86133 l 20.79688,56.55273 a 1.6176767,1.6176767 0 0 0 3.03516,0 l 20.79687,-56.55273 a 1.6176767,1.6176767 0 0 0 -1.15625,-2.13477 v -0.002 a 1.6176767,1.6176767 0 0 0 -1.30469,0.26367 c -3.493,2.50701 -7.33343,4.28122 -11.31054,5.32812 V 291.88672 a 8.62675,8.62675 0 0 0 -8.62696,-8.62695 z m -0.082,224.26757 a 1.6176767,1.6176767 0 0 0 -1.51758,1.0586 l -20.79687,56.55273 a 1.6176767,1.6176767 0 0 0 2.46094,1.87305 c 3.493,-2.50702 7.33342,-4.27904 11.31054,-5.32617 v 129.38086 a 8.62675,8.62675 0 0 0 8.625,8.62695 8.62675,8.62675 0 0 0 8.62696,-8.62695 V 561.67773 c 3.93726,1.04301 7.71706,2.81172 11.1289,5.32227 a 1.6176767,1.6176767 0 0 0 2.47656,-1.86133 l -20.79687,-56.55273 a 1.6176767,1.6176767 0 0 0 -1.51758,-1.0586 z"
         transform="translate(198.57818,921.85456)" />
      <g
         id="g4039">
        <g
           id="path4041" />
      </g>
    </g>
    <g
       id="path32645">
      <g
         id="g4025">
        <g
           id="path4027" />
      </g>
    </g>
    <g
       id="g7170"
       transform="translate(1240.3889,308.965)" />
    <g
       id="g6630"
       transform="translate(143.32942,278.31329)">
      <path
         id="path6626"
         style="color:#000000;fill:url(#linearGradient6632);fill-opacity:1;-inkscape-stroke:none;filter:url(#filter2742)"
         d="m 354.4375,-1192.9141 -4.86719,13.5157 c 7.08361,2.5516 12.04764,5.6964 14.98242,8.6386 2.93478,2.9423 3.84788,5.4132 3.86915,7.6153 0.0425,4.404 -4.47679,11.2567 -18.54493,16.6562 -16.98831,6.5203 -27.88506,17.2206 -27.75976,30.2071 0.0627,6.493 3.12829,12.6762 8.0625,17.623 4.93422,4.9468 11.72864,8.9276 20.28515,12.0098 7.08357,2.5515 12.04767,5.6944 14.98243,8.6367 2.93476,2.9422 3.84789,5.4151 3.86914,7.6172 0.0425,4.4041 -4.47481,11.2567 -18.54297,16.6562 -16.98831,6.5202 -27.88696,17.2207 -27.76172,30.2071 0.0626,6.4931 3.1283,12.6762 8.0625,17.623 4.93421,4.9468 11.72863,8.92565 20.28516,12.00781 7.08357,2.55162 12.04764,5.69638 14.98242,8.63867 2.93478,2.9423 3.8479,5.41317 3.86914,7.61524 0.0425,4.40412 -4.47479,11.25684 -18.54297,16.65625 -16.98836,6.52024 -27.88702,17.22066 -27.76172,30.20703 0.0627,6.49318 3.12828,12.67622 8.0625,17.62304 4.93423,4.94683 11.72863,8.92759 20.28516,12.00977 7.08353,2.55158 12.04767,5.69445 14.98242,8.63672 2.93475,2.94227 3.8479,5.41511 3.86914,7.61719 0.0425,4.40414 -4.47488,11.25676 -18.54297,16.65625 -16.9883,6.52029 -27.887,17.22068 -27.76172,30.20703 0.0626,6.49317 3.12829,12.67622 8.0625,17.62304 4.9342,4.94683 11.72866,8.92564 20.28516,12.00782 7.08361,2.55162 12.04765,5.69638 14.98242,8.63867 2.93478,2.94228 3.8479,5.4132 3.86914,7.61523 0.0425,4.40407 -4.47483,11.25881 -18.54297,16.65821 -16.98829,6.52032 -27.887,17.22067 -27.76172,30.20703 0.0626,6.49317 3.13025,12.67622 8.06446,17.62304 4.93421,4.94683 11.72669,8.92566 20.2832,12.00782 7.08359,2.55161 12.04764,5.69639 14.98242,8.63867 2.93477,2.94227 3.84789,5.41318 3.86914,7.61523 0.0425,4.40411 -4.47479,11.25676 -18.54297,16.65625 -16.98835,6.52023 -27.88704,17.22067 -27.76172,30.20703 0.0627,6.49318 3.13024,12.67622 8.06446,17.62305 4.93423,4.94683 11.72862,8.92758 20.28515,12.00977 7.08358,2.55159 12.04764,5.69445 14.98243,8.63672 2.93476,2.94227 3.84789,5.41513 3.86914,7.61718 0.0425,4.4041 -4.47677,11.25674 -18.54493,16.65625 -16.98839,6.52023 -27.88699,17.22068 -27.76171,30.20703 0.0626,6.49318 3.13025,12.67623 8.06445,17.62305 4.93421,4.94682 11.72865,8.92565 20.28515,12.00781 7.08361,2.5516 12.04765,5.69641 14.98243,8.63868 2.93478,2.94227 3.8479,5.41319 3.86914,7.61523 0.0425,4.40407 -4.47676,11.25676 -18.54493,16.65625 -16.9883,6.52029 -27.88505,17.22068 -27.75976,30.20703 0.0626,6.49318 3.12829,12.67621 8.0625,17.62305 4.93422,4.94683 11.72865,8.92755 20.28516,12.00976 7.08357,2.55157 12.04766,5.69446 14.98242,8.63672 2.93476,2.94226 3.8479,5.41514 3.86914,7.61719 0.0425,4.40409 -4.4748,11.25673 -18.54297,16.65625 -16.98831,6.52018 -27.88697,17.22068 -27.76172,30.20703 0.0626,6.49317 3.12829,12.67622 8.0625,17.62305 4.9342,4.94683 11.72864,8.92564 20.28516,12.00781 7.08359,2.55162 12.04764,5.69638 14.98242,8.63867 2.93478,2.9423 3.8479,5.41318 3.86914,7.61524 0.0425,4.40413 -4.4748,11.25685 -18.54297,16.65625 -16.98837,6.52025 -27.88703,17.22066 -27.76172,30.20703 0.0626,6.49318 3.12827,12.67622 8.0625,17.62304 4.93422,4.94683 11.72864,8.92759 20.28516,12.00977 7.08353,2.55158 12.04767,5.69445 14.98242,8.63672 2.93476,2.94227 3.84789,5.41512 3.86914,7.61719 0.0425,4.40415 -4.47488,11.25677 -18.54297,16.65625 -16.98831,6.5203 -27.887,17.22068 -27.76172,30.20703 0.0626,6.49317 3.13025,12.67622 8.06446,17.62304 4.93421,4.94683 11.7267,8.92564 20.2832,12.00782 7.08361,2.55162 12.04764,5.69639 14.98242,8.63867 2.93477,2.94228 3.84789,5.4132 3.86914,7.61523 0.0425,4.40407 -4.47483,11.25881 -18.54297,16.65821 -16.98829,6.52032 -27.887,17.22067 -27.76172,30.207028 0.0626,6.493168 3.13025,12.676226 8.06446,17.623046 4.93422,4.94683 11.72863,8.925643 20.28515,12.007813 7.08358,2.5516 12.04569,5.696392 14.98047,8.638672 2.93477,2.94227 3.84985,5.413184 3.8711,7.615234 0.0425,4.40411 -4.47674,11.25676 -18.54493,16.65625 -16.98835,6.52023 -27.88703,17.220671 -27.76171,30.2070314 0.0627,6.49318 3.13023,12.676217 8.06445,17.6230466 4.93423,4.94683 11.72863,8.927566 20.28515,12.009766 7.08358,2.55158 12.04766,5.694459 14.98243,8.636719 2.93477,2.94227 3.84789,5.415137 3.86914,7.617187 0.0425,4.4041 -4.47676,11.25674 -18.54492,16.65625 -16.98839,6.52023 -27.88504,17.220631 -27.75977,30.207031 0.0626,6.4931 3.1283,12.676246 8.0625,17.623046 4.93421,4.9468 11.72866,8.92571 20.28516,12.00781 7.32426,2.6383 11.7351,5.28934 13.60546,7.11914 1.87037,1.8297 1.77536,2.02266 1.50196,3.68946 -0.54679,3.3337 -7.18672,12.45776 -17.56836,24.00586 l -0.0176,0.0195 -0.0176,0.0215 c -4.82579,5.4496 -7.64878,10.26632 -8.27734,15.44922 -0.27986,2.30763 -0.007,4.41218 0.47266,6.3457 -6.41193,-1.25087 -12.63494,-3.73872 -18.30469,-7.49023 a 2.4845812,2.4845812 0 0 0 -3.6543,3.04883 l 36.22461,85.1582 a 2.4845812,2.4845812 0 0 0 4.65234,-0.22851 l 27.57813,-88.35157 a 2.4845812,2.4845812 0 0 0 -3.91211,-2.67968 c -7.96377,6.34011 -17.32322,10.08603 -26.90625,11.16601 -0.14652,-0.28083 -0.34656,-0.70168 -0.47852,-0.95703 -1.30619,-2.5277 -1.52658,-3.3231 -1.41015,-4.2832 0.11644,-0.9601 0.93444,-3.3212 4.77148,-7.6543 10.42012,-11.5876 19.18097,-20.01289 21.02344,-31.24609 0.92239,-5.6236 -1.23379,-11.97981 -5.63281,-16.28321 -4.39902,-4.3034 -10.46539,-7.36973 -18.78125,-10.36523 -7.08358,-2.5516 -12.04767,-5.696373 -14.98242,-8.638673 -2.93478,-2.9423 -3.84791,-5.413234 -3.86915,-7.615235 -0.0425,-4.404099 4.47467,-11.25677 18.54297,-16.65625 16.98825,-6.520268 27.88703,-17.220701 27.76172,-30.207031 -0.0627,-6.49316 -3.13024,-12.676237 -8.06445,-17.623047 -4.93421,-4.9468 -11.72867,-8.927625 -20.28516,-12.009765 -7.08363,-2.55164 -12.04567,-5.694419 -14.98047,-8.636719 -2.9348,-2.9423 -3.84984,-5.4151275 -3.87109,-7.6171875 -0.0425,-4.40412 4.47666,-11.2567695 18.54492,-16.6562505 16.98827,-6.52025 27.88702,-17.220701 27.76172,-30.207031 -0.0626,-6.49317 -3.13024,-12.676227 -8.06445,-17.623047 -4.9342,-4.94682 -11.72867,-8.925642 -20.28516,-12.007812 -7.08361,-2.5516 -12.04764,-5.696402 -14.98242,-8.638672 -2.93477,-2.94228 -3.84789,-5.413164 -3.86914,-7.615234 -0.0425,-4.404116 4.4767,-11.258646 18.54492,-16.658206 16.98823,-6.52015 27.88505,-17.22071 27.75977,-30.20703 -0.0626,-6.49316 -3.12829,-12.67427 -8.0625,-17.62109 -4.9342,-4.94683 -11.72864,-8.92758 -20.28516,-12.00977 -7.08359,-2.55161 -12.04764,-5.69444 -14.98242,-8.63672 -2.93477,-2.94228 -3.8479,-5.41512 -3.86914,-7.61718 -0.0425,-4.4041 4.47668,-11.25671 18.54492,-16.65625 16.9882,-6.52025 27.88507,-17.22072 27.75977,-30.20704 -0.0626,-6.49315 -3.12834,-12.67622 -8.0625,-17.62304 -4.93418,-4.94682 -11.7287,-8.92565 -20.28516,-12.00782 -7.08362,-2.5516 -12.04762,-5.69638 -14.98242,-8.63867 -2.93479,-2.94229 -3.84789,-5.41318 -3.86914,-7.61523 -0.0425,-4.40411 4.4747,-11.2587 18.54296,-16.6582 16.9883,-6.52015 27.88702,-17.2207 27.76172,-30.20704 -0.0626,-6.49317 -3.1283,-12.67621 -8.0625,-17.62304 -4.9342,-4.94684 -11.72865,-8.92562 -20.28515,-12.00782 -7.0836,-2.5516 -12.04765,-5.69639 -14.98242,-8.63867 -2.93477,-2.94227 -3.84791,-5.41318 -3.86915,-7.61523 -0.0425,-4.40411 4.47476,-11.25682 18.54297,-16.65625 16.98825,-6.52028 27.88701,-17.22071 27.76172,-30.20703 -0.0627,-6.49316 -3.1283,-12.67625 -8.0625,-17.62305 -4.93421,-4.9468 -11.72866,-8.92568 -20.28515,-12.00781 -7.08362,-2.55165 -12.04764,-5.69637 -14.98243,-8.63867 -2.93479,-2.94229 -3.84789,-5.41514 -3.86914,-7.61719 -0.0425,-4.40411 4.47473,-11.25671 18.54297,-16.65625 16.98822,-6.52025 27.88701,-17.22071 27.76172,-30.20703 -0.0626,-6.49317 -3.13023,-12.67624 -8.06445,-17.62305 -4.93421,-4.94681 -11.72865,-8.92565 -20.28516,-12.00781 -7.08359,-2.55161 -12.0457,-5.69639 -14.98047,-8.63867 -2.93478,-2.94227 -3.84984,-5.41319 -3.87109,-7.61524 -0.0425,-4.4041 4.47661,-11.25677 18.54492,-16.65625 16.98824,-6.52027 27.88703,-17.2207 27.76172,-30.20703 -0.0626,-6.49316 -3.13024,-12.67624 -8.06445,-17.62305 -4.93421,-4.94681 -11.72867,-8.92762 -20.28516,-12.00976 -7.08363,-2.55164 -12.04762,-5.69442 -14.98242,-8.63672 -2.9348,-2.9423 -3.84789,-5.41513 -3.86914,-7.61719 -0.0425,-4.40412 4.47667,-11.25677 18.54492,-16.65625 16.98828,-6.52025 27.88702,-17.2207 27.76172,-30.20703 -0.0626,-6.49317 -3.13024,-12.67623 -8.06445,-17.62305 -4.93421,-4.94682 -11.72866,-8.92564 -20.28516,-12.00781 -7.0836,-2.5516 -12.04764,-5.6964 -14.98242,-8.63867 -2.93477,-2.94228 -3.8479,-5.41317 -3.86914,-7.61524 -0.0425,-4.40412 4.47671,-11.25864 18.54492,-16.6582 16.98824,-6.52015 27.88504,-17.22071 27.75976,-30.20703 -0.0626,-6.49316 -3.12829,-12.67427 -8.0625,-17.62109 -4.93421,-4.94683 -11.72863,-8.92758 -20.28515,-12.00977 -7.0836,-2.55161 -12.04764,-5.69444 -14.98242,-8.63672 -2.93477,-2.94228 -3.8479,-5.41512 -3.86914,-7.61719 -0.0425,-4.40409 4.47472,-11.25671 18.54296,-16.65624 16.9882,-6.52027 27.88702,-17.22072 27.76172,-30.20704 -0.0626,-6.49315 -3.12832,-12.67622 -8.0625,-17.62304 -4.93419,-4.94682 -11.72869,-8.92567 -20.28515,-12.00782 -7.08362,-2.55161 -12.04762,-5.69638 -14.98243,-8.63867 -2.93479,-2.94229 -3.84789,-5.41318 -3.86914,-7.61523 -0.0425,-4.40411 4.47469,-11.25871 18.54297,-16.6582 16.98829,-6.52017 27.88702,-17.2207 27.76172,-30.20704 -0.0627,-6.49317 -3.1283,-12.67621 -8.0625,-17.62304 -4.9342,-4.94679 -11.72865,-8.92559 -20.28515,-12.00779 -7.0836,-2.5516 -12.04767,-5.6964 -14.98243,-8.6387 -2.93477,-2.9423 -3.8479,-5.4132 -3.86914,-7.6152 -0.0425,-4.4041 4.47476,-11.2568 18.54297,-16.6563 16.98825,-6.5203 27.88701,-17.2207 27.76172,-30.207 -0.0626,-6.4932 -3.13024,-12.6764 -8.06445,-17.623 -4.9342,-4.947 -11.72672,-8.9257 -20.28321,-12.0079 -7.08362,-2.5516 -12.04763,-5.6963 -14.98242,-8.6386 -2.93479,-2.9423 -3.8479,-5.4152 -3.86914,-7.6172 -0.0425,-4.4041 4.47472,-11.2567 18.54297,-16.6563 16.98822,-6.5202 27.88702,-17.2207 27.76172,-30.207 -0.0626,-6.4932 -3.13023,-12.6762 -8.06445,-17.623 -4.93421,-4.947 -11.72864,-8.9257 -20.28516,-12.0079 z"
         transform="translate(198.57818,921.85456)" />
      <path
         id="path6628"
         style="color:#000000;fill:url(#linearGradient6634);fill-opacity:1;fill-rule:evenodd;stroke-width:2.73723;stroke-linejoin:round;-inkscape-stroke:none"
         d="m 552.68951,-174.91494 -2.42383,6.7265 c 7.45346,2.6849 12.87567,6.0388 16.3125,9.4844 3.43684,3.4456 4.89219,6.8494 4.92383,10.1289 0.0633,6.5591 -6.05801,14.3777 -20.85938,20.0586 -16.25508,6.2389 -25.55176,15.9733 -25.44726,26.8047 0.0523,5.4157 2.57956,10.6659 7.01172,15.1094 4.43216,4.4435 10.76645,8.215 18.95312,11.16403 7.45341,2.6848 12.87763,6.03878 16.31445,9.48438 3.43682,3.44559 4.89024,6.8474 4.92188,10.12695 0.0633,6.55909 -6.05799,14.37961 -20.85938,20.06055 -16.25507,6.23875 -25.54977,15.97334 -25.44531,26.80468 0.0522,5.41568 2.57762,10.66589 7.00977,15.10938 4.43215,4.44349 10.76645,8.21317 18.95312,11.16211 7.45343,2.68485 12.87763,6.03874 16.31446,9.48437 3.43683,3.44564 4.89022,6.84935 4.92187,10.12891 0.0633,6.55912 -6.056,14.37776 -20.85742,20.05859 -16.25513,6.23883 -25.55179,15.97333 -25.44727,26.80469 0.0523,5.41568 2.5776,10.66784 7.00977,15.11133 4.43217,4.44348 10.76644,8.21315 18.95312,11.16211 7.45338,2.6848 12.87765,6.03876 16.31446,9.48437 3.43681,3.44561 4.89022,6.84934 4.92187,10.12891 0.0633,6.55913 -6.05609,14.37768 -20.85742,20.05859 -16.25507,6.23887 -25.55176,15.97334 -25.44727,26.80469 0.0522,5.41567 2.57762,10.6659 7.00977,15.10938 4.43216,4.44349 10.76646,8.21315 18.95312,11.1621 7.45346,2.68485 12.87763,6.03876 16.31446,9.48438 3.43684,3.44562 4.89023,6.84938 4.92187,10.12891 0.0633,6.55908 -6.05605,14.37776 -20.85742,20.05859 -16.25506,6.2389 -25.55175,15.97333 -25.44726,26.80469 0.0522,5.41567 2.5776,10.66785 7.00976,15.11133 4.43215,4.44349 10.76646,8.21316 18.95313,11.1621 7.45343,2.68484 12.87762,6.03876 16.31445,9.48438 3.43684,3.44561 4.89023,6.84936 4.92187,10.12891 0.0633,6.55911 -6.056,14.37767 -20.85742,20.05859 -16.25511,6.23881 -25.55178,15.97332 -25.44726,26.80469 0.0523,5.41568 2.57955,10.66588 7.01172,15.10937 4.43217,4.4435 10.76644,8.21314 18.95312,11.16211 7.45345,2.68483 12.87566,6.03877 16.3125,9.48438 3.43683,3.4456 4.89219,6.84936 4.92383,10.1289 0.0633,6.55908 -6.058,14.37964 -20.85938,20.06055 -16.25508,6.23887 -25.55176,15.97333 -25.44726,26.80469 0.0523,5.41567 2.57956,10.66588 7.01172,15.10937 4.43216,4.4435 10.76645,8.21313 18.95312,11.16211 7.45341,2.6848 12.87764,6.03878 16.31445,9.48438 3.43683,3.44559 4.89024,6.84936 4.92188,10.1289 0.0633,6.55909 -6.05798,14.37766 -20.85938,20.0586 -16.25507,6.23875 -25.54977,15.97334 -25.44531,26.80468 0.0522,5.41568 2.57763,10.66589 7.00977,15.10938 4.43215,4.44349 10.76645,8.21512 18.95312,11.16406 7.45343,2.68485 12.87763,6.03874 16.31446,9.48438 3.43684,3.44563 4.89022,6.84739 4.92187,10.12695 0.0633,6.55911 -6.056,14.37972 -20.85742,20.06055 -16.25512,6.23882 -25.55179,15.97332 -25.44727,26.80468 0.0523,5.41568 2.5776,10.66589 7.00977,15.10938 4.43217,4.44348 10.76644,8.21316 18.95312,11.16211 7.45338,2.6848 12.87765,6.03876 16.31446,9.48437 3.43681,3.44561 4.89022,6.84934 4.92187,10.12891 0.0633,6.55913 -6.0561,14.37768 -20.85742,20.05859 -16.25508,6.23887 -25.55175,15.97334 -25.44726,26.80469 0.0522,5.41567 2.5776,10.66785 7.00976,15.11133 4.43215,4.44348 10.76647,8.21316 18.95313,11.16211 7.45346,2.68485 12.87762,6.03875 16.31445,9.48437 3.43684,3.44562 4.89023,6.84937 4.92187,10.12891 0.0633,6.55907 -6.05605,14.37777 -20.85742,20.05859 -16.25506,6.2389 -25.55175,15.97333 -25.44726,26.80469 0.0522,5.41568 2.5776,10.6659 7.00976,15.10938 4.43215,4.44349 10.76646,8.21318 18.95313,11.16211 7.45343,2.68483 12.87762,6.03875 16.31445,9.48437 3.43684,3.44562 4.89023,6.84935 4.92187,10.12891 0.0633,6.5591 -6.056,14.37767 -20.85742,20.05859 -16.25511,6.23881 -25.55178,15.97332 -25.44726,26.80469 0.0523,5.41568 2.57955,10.66784 7.01172,15.11133 4.43217,4.4435 10.76644,8.21314 18.95312,11.16211 7.45342,2.68481 12.87567,6.03876 16.3125,9.48437 3.43683,3.4456 4.89219,6.84936 4.92383,10.12891 0.0633,6.55909 -6.05799,14.37766 -20.85938,20.05859 -16.25516,6.23881 -25.55174,15.9733 -25.44726,26.8047 0.0523,5.4157 2.57957,10.6659 7.01172,15.1094 4.43215,4.4435 10.76647,8.2132 18.95312,11.1621 7.57325,2.728 12.39899,5.4847 14.9043,7.9355 2.50532,2.4509 2.97542,4.1912 2.53906,6.8516 -0.87272,5.3208 -8.04775,14.2704 -18.44336,25.834 l -0.01,0.012 -0.008,0.01 c -4.57752,5.1693 -6.89651,9.3696 -7.39648,13.4922 -0.49996,4.1226 0.99928,7.5529 2.53125,10.5175 0.95413,1.8464 1.9185,3.6871 2.80469,5.6329 -4.36093,-0.4722 -8.63226,-1.9589 -12.44922,-4.4844 a 1.3687519,1.3687519 0 0 0 -2.01367,1.6758 l 19.95898,46.916 a 1.3687519,1.3687519 0 0 0 2.56445,-0.1289 l 15.19141,-48.668 a 1.3687519,1.3687519 0 0 0 -1.06836,-1.7539 1.3687519,1.3687519 0 0 0 -1.0918,0.2754 c -4.06297,3.2346 -8.78577,5.2398 -13.65429,5.9922 -1.23165,-3.5556 -2.73186,-6.5017 -3.88867,-8.7403 -1.3819,-2.6742 -2.03019,-4.3525 -1.78516,-6.373 0.24503,-2.0204 1.56508,-4.9979 5.65039,-9.6113 10.4145,-11.584 18.64611,-20.1849 20.16406,-29.4395 0.75942,-4.63 -0.82968,-9.4368 -4.59375,-13.1191 -3.76408,-3.6823 -9.41556,-6.645 -17.48242,-9.5508 -7.45343,-2.6848 -12.87762,-6.0387 -16.31445,-9.4844 -3.43683,-3.4456 -4.89025,-6.8493 -4.92188,-10.1289 -0.0633,-6.5591 6.05589,-14.37964 20.85742,-20.06054 16.25501,-6.23885 25.55179,-15.97336 25.44727,-26.80469 -0.0522,-5.41566 -2.57762,-10.66591 -7.00977,-15.10938 -4.43215,-4.44347 -10.76647,-8.21319 -18.95312,-11.16211 -7.45346,-2.68486 -12.87759,-6.03873 -16.31445,-9.48437 -3.43685,-3.44563 -4.89024,-6.84935 -4.92188,-10.12891 -0.0633,-6.55912 6.05593,-14.37769 20.85742,-20.05859 16.25504,-6.23883 25.55178,-15.97336 25.44727,-26.80469 -0.0522,-5.41567 -2.57957,-10.66785 -7.01172,-15.11133 -4.43214,-4.44348 -10.76647,-8.21317 -18.95313,-11.16211 -7.45344,-2.68483 -12.87566,-6.03875 -16.3125,-9.48437 -3.43682,-3.44561 -4.89218,-6.84739 -4.92382,-10.12695 -0.0633,-6.55913 6.05792,-14.37956 20.85937,-20.06055 16.255,-6.23873 25.55176,-15.97337 25.44727,-26.80469 -0.0522,-5.41566 -2.57957,-10.66588 -7.01172,-15.10937 -4.43215,-4.44348 -10.76646,-8.21314 -18.95313,-11.16211 -7.45345,-2.68484 -12.87567,-6.03876 -16.3125,-9.48438 -3.43683,-3.44562 -4.89218,-6.84936 -4.92382,-10.1289 -0.0633,-6.5591 6.0579,-14.37764 20.85937,-20.0586 16.25496,-6.23883 25.54982,-15.97336 25.44531,-26.80469 -0.0523,-5.41567 -2.57763,-10.66784 -7.00976,-15.11132 -4.43212,-4.44348 -10.76653,-8.21319 -18.95313,-11.16211 -7.45347,-2.68484 -12.87759,-6.03876 -16.31445,-9.48438 -3.43685,-3.44563 -4.89024,-6.84934 -4.92188,-10.1289 -0.0633,-6.55912 6.05787,-14.37768 20.85938,-20.0586 16.25506,-6.23874 25.54981,-15.97334 25.44531,-26.80469 -0.0523,-5.41567 -2.57761,-10.66587 -7.00976,-15.10937 -4.43215,-4.44349 -10.76649,-8.21314 -18.95313,-11.16211 -7.45346,-2.68482 -12.87762,-6.03876 -16.31445,-9.48438 -3.43682,-3.44562 -4.89025,-6.84934 -4.92188,-10.1289 -0.0633,-6.5591 6.05598,-14.37775 20.85742,-20.0586 16.25501,-6.23885 25.55177,-15.97335 25.44727,-26.80468 -0.0523,-5.41566 -2.57761,-10.66786 -7.00977,-15.11133 -4.43214,-4.44346 -10.76648,-8.2132 -18.95312,-11.16211 -7.45346,-2.68486 -12.8776,-6.03874 -16.31445,-9.48438 -3.43684,-3.44564 -4.89024,-6.84934 -4.92188,-10.1289 -0.0633,-6.55911 6.05595,-14.37764 20.85742,-20.0586 16.25499,-6.23883 25.55178,-15.97336 25.44727,-26.80468 -0.0522,-5.41566 -2.57762,-10.66591 -7.00977,-15.10938 -4.43216,-4.44347 -10.76645,-8.21317 -18.95312,-11.16211 -7.45347,-2.68486 -12.87759,-6.03873 -16.31445,-9.48437 -3.43685,-3.44564 -4.89024,-6.84935 -4.92188,-10.12891 -0.0633,-6.55912 6.05593,-14.37965 20.85742,-20.06055 16.25504,-6.23883 25.55178,-15.97334 25.44727,-26.80468 -0.0522,-5.41567 -2.57762,-10.6659 -7.00977,-15.10938 -4.43215,-4.44348 -10.76843,-8.21317 -18.95508,-11.16211 -7.45345,-2.68483 -12.87567,-6.03875 -16.3125,-9.48437 -3.43683,-3.44561 -4.89218,-6.84935 -4.92382,-10.12891 -0.0633,-6.55912 6.05792,-14.37761 20.85937,-20.05859 16.255,-6.23873 25.55176,-15.97337 25.44727,-26.80469 -0.0522,-5.41567 -2.57957,-10.66785 -7.01172,-15.11133 -4.43215,-4.44349 -10.76646,-8.21315 -18.95313,-11.16211 -7.45345,-2.68484 -12.87567,-6.03875 -16.3125,-9.48437 -3.43683,-3.44562 -4.89219,-6.84936 -4.92383,-10.12891 -0.0633,-6.55911 6.05792,-14.37763 20.85938,-20.05859 16.25497,-6.23883 25.54982,-15.97336 25.44531,-26.80469 -0.0523,-5.41567 -2.57763,-10.6659 -7.00976,-15.10938 -4.43212,-4.44348 -10.76653,-8.21318 -18.95313,-11.1621 -7.45347,-2.68484 -12.87759,-6.03875 -16.31445,-9.48438 -3.43685,-3.44563 -4.89024,-6.84935 -4.92188,-10.12891 -0.0633,-6.55911 6.05787,-14.37767 20.85938,-20.05859 16.25506,-6.23874 25.54981,-15.97334 25.44531,-26.80469 -0.0523,-5.41567 -2.57761,-10.66783 -7.00976,-15.11133 -4.43215,-4.44349 -10.76649,-8.21314 -18.95313,-11.1621 -7.45346,-2.68483 -12.87762,-6.03876 -16.31445,-9.48438 -3.43682,-3.44562 -4.89025,-6.84935 -4.92188,-10.12891 -0.0633,-6.5591 6.05597,-14.37774 20.85742,-20.05859 16.25501,-6.23885 25.55178,-15.97336 25.44727,-26.80469 -0.0522,-5.41566 -2.57763,-10.66591 -7.00977,-15.10937 -4.43215,-4.44346 -10.76648,-8.2132 -18.95312,-11.1621 -7.45346,-2.6849 -12.8776,-6.0388 -16.31445,-9.4844 -3.43684,-3.4456 -4.89024,-6.8494 -4.92188,-10.1289 -0.0633,-6.5591 6.05595,-14.3796 20.85742,-20.0606 16.25499,-6.2388 25.55178,-15.9714 25.44727,-26.8027 -0.0522,-5.4157 -2.57762,-10.6679 -7.00977,-15.1113 -4.43216,-4.4435 -10.76645,-8.2132 -18.95312,-11.1621 z" />
    </g>
    <g
       id="g12138"
       transform="matrix(1.4101302,1.4819711,-1.4819711,1.4101302,785.61057,-2794.298)">
      <g
         id="g12132"
         transform="matrix(2.5679904,0,0,2.5679904,1125.7217,1306.3373)">
        <g
           id="g12114"
           transform="matrix(0.16284797,0.78739692,-0.78739692,0.16284797,205.5674,-85.497149)"
           style="display:inline">
          <g
             id="g12106"
             transform="matrix(1.9664357,0,0,1.9664357,-134.61795,-76.951813)"
             style="fill:#ffffff;fill-opacity:1;stroke:none;filter:url(#filter2517-39-8)">
            <circle
               style="fill:#ffffff;fill-opacity:1;fill-rule:evenodd;stroke:none;stroke-width:1.35259;stroke-linecap:round;stroke-linejoin:round;stroke-miterlimit:4;stroke-dasharray:none;stroke-opacity:1"
               id="circle12102"
               cx="147.15125"
               cy="92.922531"
               r="4.0577559" />
            <rect
               style="fill:#ffffff;fill-opacity:1;fill-rule:evenodd;stroke:none;stroke-width:0.725764;stroke-linecap:round;stroke-linejoin:bevel;stroke-opacity:1;paint-order:markers fill stroke"
               id="rect12104"
               width="3.0780656"
               height="1.0863732"
               x="145.57661"
               y="92.378967" />
          </g>
          <g
             id="g12112"
             transform="translate(7.5942678,12.851838)">
            <circle
               style="fill:none;fill-opacity:1;fill-rule:evenodd;stroke:#0073de;stroke-width:1.35259;stroke-linecap:round;stroke-linejoin:round;stroke-miterlimit:4;stroke-dasharray:none;stroke-opacity:1"
               id="circle12108"
               cx="147.15125"
               cy="92.922531"
               r="4.0577559" />
            <rect
               style="fill:#0074e0;fill-opacity:1;fill-rule:evenodd;stroke:#0074e0;stroke-width:0.725764;stroke-linecap:round;stroke-linejoin:bevel;stroke-opacity:1;paint-order:markers fill stroke"
               id="rect12110"
               width="3.0780656"
               height="1.0863732"
               x="145.57661"
               y="92.378967" />
          </g>
        </g>
        <g
           id="g12130"
           transform="matrix(0.80406055,0,0,0.80406055,38.223105,-77.590126)"
           style="display:inline">
          <g
             id="g12120"
             transform="matrix(1.9664357,0,0,1.9664357,-153.98645,0.218369)"
             style="fill:#ffffff;fill-opacity:1;stroke:none;filter:url(#filter2517-3-6-5)">
            <circle
               style="fill:#ffffff;fill-opacity:1;fill-rule:evenodd;stroke:none;stroke-width:1.35259;stroke-linecap:round;stroke-linejoin:round;stroke-miterlimit:4;stroke-dasharray:none;stroke-opacity:1"
               id="circle12116"
               cx="147.15125"
               cy="92.922531"
               r="4.0577559" />
            <rect
               style="fill:#ffffff;fill-opacity:1;fill-rule:evenodd;stroke:none;stroke-width:0.725764;stroke-linecap:round;stroke-linejoin:bevel;stroke-opacity:1;paint-order:markers fill stroke"
               id="rect12118"
               width="3.0780656"
               height="1.0863732"
               x="145.57661"
               y="92.378967" />
          </g>
          <g
             id="g12128"
             transform="rotate(-11.77168,180.79526,234.73413)">
            <circle
               style="fill:none;fill-opacity:1;fill-rule:evenodd;stroke:#de2500;stroke-width:1.35259;stroke-linecap:round;stroke-linejoin:round;stroke-miterlimit:4;stroke-dasharray:none;stroke-opacity:1"
               id="circle12122"
               cx="146.88841"
               cy="174.77542"
               r="4.0577559" />
            <rect
               style="fill:#e02500;fill-opacity:1;fill-rule:evenodd;stroke:#e02500;stroke-width:0.725764;stroke-linecap:round;stroke-linejoin:bevel;stroke-opacity:1;paint-order:markers fill stroke"
               id="rect12124"
               width="0.93549085"
               height="5.0999341"
               x="146.42416"
               y="172.18327" />
            <rect
               style="fill:#e02500;fill-opacity:1;fill-rule:evenodd;stroke:#e02500;stroke-width:0.725764;stroke-linecap:round;stroke-linejoin:bevel;stroke-opacity:1;paint-order:markers fill stroke"
               id="rect12126"
               width="0.93549085"
               height="5.0999341"
               x="174.2655"
               y="-149.44188"
               transform="rotate(90)" />
          </g>
        </g>
      </g>
      <ellipse
         style="fill:none;fill-opacity:1;fill-rule:evenodd;stroke:url(#linearGradient12140);stroke-width:1.9;stroke-linecap:round;stroke-linejoin:bevel;stroke-miterlimit:4;stroke-dasharray:none;stroke-dashoffset:0;stroke-opacity:1;paint-order:markers fill stroke;filter:url(#filter45936)"
         id="ellipse12134"
         cx="156.37347"
         cy="61.094292"
         rx="12.300974"
         ry="18.500423"
         transform="matrix(2.5679904,0,0,2.5679904,1101.1517,1306.3373)" />
      <ellipse
         style="fill:none;fill-opacity:1;fill-rule:evenodd;stroke:url(#linearGradient12142);stroke-width:3.85198;stroke-linecap:round;stroke-linejoin:bevel;stroke-miterlimit:4;stroke-dasharray:7.70398, 23.1119;stroke-dashoffset:0;stroke-opacity:1;paint-order:markers fill stroke"
         id="ellipse12136"
         cx="1502.7173"
         cy="1463.2271"
         rx="30.092983"
         ry="49.208023" />
    </g>
  </g>
</svg>
