<?xml version="1.0" encoding="UTF-8" standalone="no"?>
<!-- Created with Inkscape (http://www.inkscape.org/) -->

<svg
   version="1.1"
   id="svg2"
   xml:space="preserve"
   width="945.33331"
   height="762.66669"
   viewBox="0 0 945.33331 762.66669"
   sodipodi:docname="EQE CTS Tail.svg"
   inkscape:version="1.1.2 (b8e25be833, 2022-02-05)"
   xmlns:inkscape="http://www.inkscape.org/namespaces/inkscape"
   xmlns:sodipodi="http://sodipodi.sourceforge.net/DTD/sodipodi-0.dtd"
   xmlns:xlink="http://www.w3.org/1999/xlink"
   xmlns="http://www.w3.org/2000/svg"
   xmlns:svg="http://www.w3.org/2000/svg"><defs
     id="defs6"><marker
       style="overflow:visible;"
       id="Arrow2Send"
       refX="0.0"
       refY="0.0"
       orient="auto"
       inkscape:stockid="Arrow2Send"
       inkscape:isstock="true"><path
         transform="scale(0.3) rotate(180) translate(-2.3,0)"
         d="M 8.7185878,4.0337352 L -2.2072895,0.016013256 L 8.7185884,-4.0017078 C 6.9730900,-1.6296469 6.9831476,1.6157441 8.7185878,4.0337352 z "
         style="stroke:context-stroke;fill-rule:evenodd;fill:context-stroke;stroke-width:0.62500000;stroke-linejoin:round;"
         id="path17347" /></marker><linearGradient
       inkscape:collect="always"
       id="linearGradient14569"><stop
         style="stop-color:#d08d00;stop-opacity:1;"
         offset="0"
         id="stop14565" /><stop
         style="stop-color:#d08d00;stop-opacity:0;"
         offset="1"
         id="stop14567" /></linearGradient><clipPath
       clipPathUnits="userSpaceOnUse"
       id="clipPath16"><path
         d="M 0,0 H 2607.14 V 2100.67 H 0 Z"
         clip-rule="evenodd"
         id="path14" /></clipPath><clipPath
       clipPathUnits="userSpaceOnUse"
       id="clipPath36"><path
         d="M 384,119 H 2807 V 1978 H 384 Z"
         clip-rule="evenodd"
         id="path34" /></clipPath><clipPath
       clipPathUnits="userSpaceOnUse"
       id="clipPath56"><path
         d="M 0,0 H 2953 V 2382 H 0 Z"
         clip-rule="evenodd"
         id="path54" /></clipPath><clipPath
       clipPathUnits="userSpaceOnUse"
       id="clipPath172"><path
         d="M 0,0 H 2953 V 2382 H 0 Z"
         clip-rule="evenodd"
         id="path170" /></clipPath><clipPath
       clipPathUnits="userSpaceOnUse"
       id="clipPath196"><path
         d="M 0,0 H 2953 V 2382 H 0 Z"
         clip-rule="evenodd"
         id="path194" /></clipPath><clipPath
       clipPathUnits="userSpaceOnUse"
       id="clipPath220"><path
         d="M 0,0 H 2953 V 2382 H 0 Z"
         clip-rule="evenodd"
         id="path218" /></clipPath><clipPath
       clipPathUnits="userSpaceOnUse"
       id="clipPath244"><path
         d="M 0,0 H 2953 V 2382 H 0 Z"
         clip-rule="evenodd"
         id="path242" /></clipPath><clipPath
       clipPathUnits="userSpaceOnUse"
       id="clipPath268"><path
         d="M 0,0 H 2953 V 2382 H 0 Z"
         clip-rule="evenodd"
         id="path266" /></clipPath><clipPath
       clipPathUnits="userSpaceOnUse"
       id="clipPath324"><path
         d="M 0,0 H 2953 V 2382 H 0 Z"
         clip-rule="evenodd"
         id="path322" /></clipPath><clipPath
       clipPathUnits="userSpaceOnUse"
       id="clipPath344"><path
         d="M 0,0 H 2953 V 2382 H 0 Z"
         clip-rule="evenodd"
         id="path342" /></clipPath><linearGradient
       inkscape:collect="always"
       xlink:href="#linearGradient14569"
       id="linearGradient14571"
       x1="410.64481"
       y1="118.57138"
       x2="367.38525"
       y2="120.15839"
       gradientUnits="userSpaceOnUse" /></defs><sodipodi:namedview
     id="namedview4"
     pagecolor="#ffffff"
     bordercolor="#666666"
     borderopacity="1.0"
     inkscape:pageshadow="2"
     inkscape:pageopacity="0.0"
     inkscape:pagecheckerboard="0"
     showgrid="false"
     inkscape:zoom="0.97683564"
     inkscape:cx="540.00896"
     inkscape:cy="426.8886"
     inkscape:window-width="1920"
     inkscape:window-height="1017"
     inkscape:window-x="-8"
     inkscape:window-y="-8"
     inkscape:window-maximized="1"
     inkscape:current-layer="g8" /><g
     id="g8"
     inkscape:groupmode="layer"
     inkscape:label="EQE MEasurement cemitech patterned p3ht cells for thesis - Copy"
     transform="matrix(1.3333333,0,0,-1.3333333,0,762.66667)"><path
       style="fill:url(#linearGradient14571);fill-opacity:1;stroke:none;stroke-width:2.16001;stroke-linecap:round;stroke-linejoin:round;stroke-miterlimit:10;stroke-dasharray:none;stroke-opacity:1"
       d="m 364.46175,98.499422 0.0889,77.425688 8.64959,-24.23799 1.20479,-2.89205 1.19039,-2.39764 1.2048,-2.16003 1.19039,-2.39764 1.20719,-1.92243 1.2048,-1.90563 1.19039,-1.68243 1.20479,-1.44722 1.2072,-1.44482 1.19039,-1.19042 1.20479,-1.20722 1.1904,-1.19282 1.20479,-0.96722 1.20719,-0.95281 1.18799,-0.96962 1.2072,-0.71521 1.20719,-0.71521 1.18799,-0.72961 1.4448,-0.71522 1.20719,-0.71521 1.18799,-0.47521 1.20719,-0.73201 1.2048,-0.4752 1.19039,-0.47761 1.20719,-0.47521 1.188,-0.49441 1.20719,-0.47521 1.20479,-0.2376 1.1904,-0.47761 1.20719,-0.2376 1.20479,-0.23761 1.19039,-0.4944 1.2048,-0.23761 1.19039,-0.2376 1.20479,-0.2376 1.2072,-0.24001 1.19039,-0.2376 h 1.20479 l 1.2072,-0.23761 1.18799,-0.2376 h 1.44479 l 1.20719,-0.24 h 1.188 l 1.20719,-0.25441 h 1.20719 l 1.188,-0.2376 h 1.20719 l 1.18799,-0.23761 h 1.2072 l 1.20479,-0.2376 h 1.19039 l 1.20719,-0.24 1.2048,-0.23761 1.19039,-0.2376 1.20479,-0.23761 1.1904,-0.4944 1.20719,-0.23761 1.20479,-0.4776 1.1904,-0.47521 1.20479,-0.23761 1.20719,-0.4776 1.18799,-0.49201 1.4448,-0.47761 1.20719,-0.2376 1.18799,-0.47521 1.2072,-0.23761 1.19039,-0.24 1.20479,-0.49201 1.20719,-0.2376 1.188,-0.24 1.20719,-0.23761 1.20719,-0.2376 1.188,-0.23761 1.20719,-0.24 1.20479,-0.2376 1.1904,-0.25441 h 1.20719 l 1.18799,-0.2376 1.2072,-0.23761 1.20479,-0.24 h 1.19039 l 1.20479,-0.2376 h 1.2072 l 1.19039,-0.23761 h 1.44239 l 1.2072,-0.2376 1.18799,-0.24 h 1.20719 l 1.19039,-0.23761 h 1.2048 l 1.20719,-0.2544 h 1.18799 l 1.2072,-0.23761 h 1.20719 l 1.18799,-0.24 h 1.2072 l 1.20479,-0.2376 h 1.19039 l 1.20719,-0.23761 h 1.188 1.20719 l 1.20479,-0.2376 h 1.1904 l 1.20719,-0.23761 h 1.20479 l 1.1904,-0.24 h 1.44239 1.20719 l 1.19039,-0.2376 h 1.2048 l 1.19039,-0.25441 h 1.20479 1.2072 l 1.19039,-0.2376 h 1.20479 1.2072 l 1.18799,-0.24001 h 1.20719 1.18799 l 1.2072,-0.2376 h 1.20719 1.18799 1.2072 l 1.20719,-0.2376 h 1.18799 1.2072 l 1.20479,-0.23761 h 1.42799 1.20719 1.2048 l 1.19039,-0.2376 h 1.20479 1.1904 l 1.20479,-0.24 h 1.20719 1.1904 1.20479 1.20719 l 1.18799,-0.23761 h 1.2072 1.19039 1.20479 l 1.2072,-0.2544 h 1.18799 1.20719 1.2072 l 1.18799,-0.23761 h 1.20719 1.20479 1.428 1.20719 l 1.20479,-0.24 h 1.1904 1.20479 1.19039 1.20719 l 1.2048,-0.2376 h 1.19039 1.20479 1.2072 1.19039 l 1.20479,-0.237608 h 1.1904 1.20479 1.20719 1.188 1.20719 l 1.20719,-0.237604 h 1.18799 1.2072 1.20719 1.42559 1.2072 l 1.20479,-0.240004 h 1.19039 1.20719 1.188 1.20719 1.20479 l 1.1904,-0.237604 h 1.20719 1.20479 1.1904 1.20479 1.19039 1.20479 1.2072 l 1.19039,-0.237603 h 1.20479 1.2072 1.18799 1.20719 1.1904 1.44239 1.20719 1.20719 1.188 l 1.20719,-0.254405 h 1.18799 1.2072 1.20479 1.19039 1.2072 1.20479 1.19039 1.20479 1.1904 1.20719 1.20479 l 1.1904,-0.237603 1.20479,-0.240004 1.20719,0.240004 h 1.188 1.20719 1.19039 1.44239 1.2072 1.19039 1.20479 1.2072 1.18799 1.20719 1.20719 1.188 1.20719 1.20479 1.1904 1.20719 1.18799 1.2072 1.20479 1.19039 1.2048 1.20719 1.19039 1.20479 1.1904 1.44239 1.20719 1.1904 l 1.20479,-0.240004 h 1.20719 1.18799 1.2072 1.20719 1.18799 1.2072 1.20479"
       id="path12650"
       sodipodi:nodetypes="ccccccccccccccccccccccccccccccccccccccccccccccccccccccccccccccccccccccccccccccccccccccccccccccccccccccccccccccccccccccccccccccccccccccccccccccccccccccccccccccccccccccccccccccccccccccccccccccccccccccccccccccccccccccccccccccccccccccccccccccccccccccccccc" /><g
       id="g18"
       transform="scale(0.271838,0.272147)" /><g
       id="g20"
       transform="scale(0.271838,0.272147)" /><g
       id="g22"
       transform="scale(0.271838,0.272147)" /><g
       id="g24"
       transform="scale(0.271838,0.272147)" /><g
       id="g26"
       transform="scale(0.271838,0.272147)" /><g
       id="g28"
       transform="scale(0.271838,0.272147)" /><path
       style="fill:none;fill-opacity:1;stroke:#000000;stroke-width:2.16001;stroke-linecap:round;stroke-linejoin:round;stroke-miterlimit:10;stroke-dasharray:none;stroke-opacity:1"
       d="m 371.99305,154.56237 0.05,-0.11896 1.15724,-2.75629 1.20479,-2.89205 1.19039,-2.39764 1.2048,-2.16003 1.19039,-2.39764 1.20719,-1.92243 1.2048,-1.90563 1.19039,-1.68243 1.20479,-1.44722 1.2072,-1.44482 1.19039,-1.19042 1.20479,-1.20722 1.1904,-1.19282 1.20479,-0.96722 1.20719,-0.95281 1.18799,-0.96962 1.2072,-0.71521 1.20719,-0.71521 1.18799,-0.72961 1.4448,-0.71522 1.20719,-0.71521 1.18799,-0.47521 1.20719,-0.73201 1.2048,-0.4752 1.19039,-0.47761 1.20719,-0.47521 1.188,-0.49441 1.20719,-0.47521 1.20479,-0.2376 1.1904,-0.47761 1.20719,-0.2376 1.20479,-0.23761 1.19039,-0.4944 1.2048,-0.23761 1.19039,-0.2376 1.20479,-0.2376 1.2072,-0.24001 1.19039,-0.2376 h 1.20479 l 1.2072,-0.23761 1.18799,-0.2376 h 1.44479 l 1.20719,-0.24 h 1.188 l 1.20719,-0.25441 h 1.20719 l 1.188,-0.2376 h 1.20719 l 1.18799,-0.23761 h 1.2072 l 1.20479,-0.2376 h 1.19039 l 1.20719,-0.24 1.2048,-0.23761 1.19039,-0.2376 1.20479,-0.23761 1.1904,-0.4944 1.20719,-0.23761 1.20479,-0.4776 1.1904,-0.47521 1.20479,-0.23761 1.20719,-0.4776 1.18799,-0.49201 1.4448,-0.47761 1.20719,-0.2376 1.18799,-0.47521 1.2072,-0.23761 1.19039,-0.24 1.20479,-0.49201 1.20719,-0.2376 1.188,-0.24 1.20719,-0.23761 1.20719,-0.2376 1.188,-0.23761 1.20719,-0.24 1.20479,-0.2376 1.1904,-0.25441 h 1.20719 l 1.18799,-0.2376 1.2072,-0.23761 1.20479,-0.24 h 1.19039 l 1.20479,-0.2376 h 1.2072 l 1.19039,-0.23761 h 1.44239 l 1.2072,-0.2376 1.18799,-0.24 h 1.20719 l 1.19039,-0.23761 h 1.2048 l 1.20719,-0.2544 h 1.18799 l 1.2072,-0.23761 h 1.20719 l 1.18799,-0.24 h 1.2072 l 1.20479,-0.2376 h 1.19039 l 1.20719,-0.23761 h 1.188 1.20719 l 1.20479,-0.2376 h 1.1904 l 1.20719,-0.23761 h 1.20479 l 1.1904,-0.24 h 1.44239 1.20719 l 1.19039,-0.2376 h 1.2048 l 1.19039,-0.25441 h 1.20479 1.2072 l 1.19039,-0.2376 h 1.20479 1.2072 l 1.18799,-0.24001 h 1.20719 1.18799 l 1.2072,-0.2376 h 1.20719 1.18799 1.2072 l 1.20719,-0.2376 h 1.18799 1.2072 l 1.20479,-0.23761 h 1.42799 1.20719 1.2048 l 1.19039,-0.2376 h 1.20479 1.1904 l 1.20479,-0.24 h 1.20719 1.1904 1.20479 1.20719 l 1.18799,-0.23761 h 1.2072 1.19039 1.20479 l 1.2072,-0.2544 h 1.18799 1.20719 1.2072 l 1.18799,-0.23761 h 1.20719 1.20479 1.428 1.20719 l 1.20479,-0.24 h 1.1904 1.20479 1.19039 1.20719 l 1.2048,-0.2376 h 1.19039 1.20479 1.2072 1.19039 l 1.20479,-0.237608 h 1.1904 1.20479 1.20719 1.188 1.20719 l 1.20719,-0.237604 h 1.18799 1.2072 1.20719 1.42559 1.2072 l 1.20479,-0.240004 h 1.19039 1.20719 1.188 1.20719 1.20479 l 1.1904,-0.237604 h 1.20719 1.20479 1.1904 1.20479 1.19039 1.20479 1.2072 l 1.19039,-0.237603 h 1.20479 1.2072 1.18799 1.20719 1.1904 1.44239 1.20719 1.20719 1.188 l 1.20719,-0.254405 h 1.18799 1.2072 1.20479 1.19039 1.2072 1.20479 1.19039 1.20479 1.1904 1.20719 1.20479 l 1.1904,-0.237603 1.20479,-0.240004 1.20719,0.240004 h 1.188 1.20719 1.19039 1.44239 1.2072 1.19039 1.20479 1.2072 1.18799 1.20719 1.20719 1.188 1.20719 1.20479 1.1904 1.20719 1.18799 1.2072 1.20479 1.19039 1.2048 1.20719 1.19039 1.20479 1.1904 1.44239 1.20719 1.1904 l 1.20479,-0.240004 h 1.20719 1.18799 1.2072 1.20719 1.18799 1.2072 1.20479"
       id="path11805"
       sodipodi:nodetypes="ccccccccccccccccccccccccccccccccccccccccccccccccccccccccccccccccccccccccccccccccccccccccccccccccccccccccccccccccccccccccccccccccccccccccccccccccccccccccccccccccccccccccccccccccccccccccccccccccccccccccccccccccccccccccccccccccccccccccccccccccccccccccccc" /><path
       style="fill:none;stroke:#000000;stroke-width:2.16001;stroke-linecap:round;stroke-linejoin:round;stroke-miterlimit:10;stroke-dasharray:none;stroke-opacity:1;fill-opacity:1"
       d="m 92.152266,402.25117 1.207193,2.63524 1.207193,4.79768 1.187993,4.32007 1.207193,3.60486 1.204793,0.71521 1.190394,1.68483 1.207195,8.16253 1.18799,6.4801 1.20719,-4.55767 1.2048,5.75049 1.42799,5.28969 1.20719,-0.24 1.20479,2.87524 1.1904,-0.71521 1.20479,10.07056 1.20719,0.96962 1.188,-0.96962 1.20719,10.32497 1.19039,-2.63764 1.2048,3.11285 1.20719,0.96961 1.18799,1.92243 1.20719,6.48011 1.2072,-3.60486 1.18799,8.64014 1.20719,0.71521 1.2048,0.47521 1.19039,5.28969 1.20719,-4.32007 1.188,7.91052 1.20719,-3.82806 1.20479,5.51049 1.42799,4.32007 1.2072,-3.11285 1.20479,7.19532 1.19039,-4.32007 1.2048,5.28968 1.20719,0.47761 1.19039,0.47521 1.2048,6.71771 1.19039,-4.79528 1.20479,6.95531 1.20719,-2.16003 1.1904,1.20962 1.20479,5.27288 1.20719,-4.79768 1.188,7.91053 1.20719,-1.90563 1.18799,1.90563 1.2072,2.65204 1.20719,-3.60485 1.18799,7.68732 1.2072,-5.28969 1.20719,6.0049 1.42559,1.68243 1.20719,-3.36726 1.2048,6.0049 1.19039,-3.12965 1.20719,3.36726 1.2048,-1.44483 1.19039,1.44483 1.20479,3.60485 1.19039,-5.04968 1.2048,3.84246 1.20719,-0.95281 1.19039,2.40004 1.2048,0.95281 1.20719,-2.40004 1.18799,5.03529 1.2072,-4.32007 1.19039,3.60485 1.20479,-0.2376 1.20719,-1.92243 1.188,3.60726 1.20719,-3.84486 1.20719,3.36725 1.4256,-0.72961 1.20719,-0.47761 1.20719,2.39764 1.18799,-3.35046 1.2072,2.87525 1.20479,-1.20722 1.19039,-0.71521 1.2048,1.44722 1.19039,-1.20962 1.20719,0.96962 1.2048,-1.44482 1.19039,0.71521 1.20479,-0.47761 1.2072,-0.47521 1.19039,0.23761 1.20479,-1.44483 1.19039,0.96722 1.2048,-3.12965 1.20719,0.47761 1.18799,0.2544 1.2072,-2.65204 1.20719,1.92003 1.42559,-3.35046 1.20719,0.71522 1.2072,-0.47521 1.18799,-3.60726 1.20719,1.68483 1.2048,-3.36966 1.19039,0.24001 1.20719,-0.95282 1.188,-1.68483 1.20719,-0.4752 1.20479,-3.11285 1.19039,0.71281 1.2072,-1.68243 1.20479,-1.68483 1.19039,-0.2376 1.2048,-2.63524 1.19039,0.71281 1.20479,-2.87525 1.2072,-0.2376 1.19039,-0.47521 1.20479,-2.16004 1.44479,0.47521 1.188,-2.39764 1.20719,-0.71521 1.20719,-0.96961 1.188,-2.63525 1.20719,0.71282 1.20719,-2.87285 1.188,-1.20722 1.20719,-0.47761 1.18799,-3.11285 1.20719,-0.2376 1.2048,-3.12965 1.19039,-0.95282 1.20719,-1.92243 1.2048,-3.12965 1.19039,-0.47521 1.20479,-3.59046 1.1904,-0.96961 1.20719,-2.39764 1.20479,-3.11285 1.19039,-1.44482 1.2048,-3.60726 1.44479,-1.19042 1.19039,-2.39764 1.2048,-2.89205 1.20719,-1.42802 1.18799,-3.60726 1.20719,-1.68243 1.1904,-2.63764 1.20479,-2.39764 1.20719,-0.4752 1.188,-2.16004 1.20719,-0.73201 1.20719,-2.39764 1.188,-0.95282 1.20719,-0.73201 1.20479,-2.16003 h 1.1904 l 1.20719,-1.66803 1.18799,-0.2376 1.20719,-0.96962 1.2048,-0.71281 h 1.19039 l 1.20479,-0.96962 1.4448,-0.4776 h 1.19039 l 1.20479,-0.95282 1.20719,-0.2376 1.188,-0.96962 1.20719,-0.2376 1.19039,-0.95282 1.2048,-0.96961 1.20719,-0.47521 1.18799,-1.68483 1.2072,-0.2376 1.20719,-1.20722 1.18799,-1.19282 1.20719,-0.96722 1.2048,-1.43042 1.19039,-0.47521 1.20719,-1.20722 1.188,-0.95281 1.20719,-1.20722 1.20479,-2.40004 1.1904,-2.16004 1.20719,-3.36725 1.44239,-3.58806 1.19039,-3.84486 1.2048,-4.08247 1.20719,-3.84486 1.19039,-4.79528 1.2048,-3.59045 1.19039,-4.57448 1.20479,-5.27288 1.2072,-5.03528 1.19039,-5.52729 1.20479,-5.51049 1.20719,-5.7673 1.188,-6.00249 1.20719,-6.48251 1.18799,-6.95531 1.2072,-6.72011 1.20719,-7.19292 1.18799,-7.45212 1.2072,-6.95531 1.20719,-7.43292 1.18799,-7.21212 1.2072,-7.67052 1.44239,-7.21212 1.19039,-7.19531 1.20719,-6.95771 1.2048,-6.95532 1.19039,-6.4825 1.20479,-7.20972 1.1904,-6.72011 1.20479,-6.2257 1.20719,-6.4801 1.19039,-6.2425 1.2048,-6.2425 1.20719,-6.0025 1.18799,-5.76729 1.2072,-5.51049 1.19039,-5.03529 1.20479,-5.28968 1.2072,-4.55767 1.18799,-4.56008 1.20719,-3.36725 1.20719,-4.06567 1.188,-3.84246 1.20719,-3.60726 1.44479,-3.35045 1.188,-3.12965"
       id="path42" /><g
       id="g44"
       transform="scale(0.271838,0.272147)"><g
         id="g46" /><g
         id="g48" /></g><g
       id="g50"
       transform="matrix(0.2399987,0,0,-0.24000372,0,571.69128)"><g
         id="g52"
         clip-path="url(#clipPath56)"><g
           id="g58"
           transform="matrix(1.132664,0,0,-1.133929,0,2382.0107)"><g
             id="g60"
             transform="matrix(0.882874,0,0,-0.88189,0,2100.6709)"><path
               d="M 383.97,1976.99 H 2806.03"
               style="fill:none;stroke:#000000;stroke-width:13;stroke-linecap:square;stroke-linejoin:round;stroke-miterlimit:10;stroke-dasharray:none;stroke-opacity:1"
               id="path62" /><path
               d="m 534.97,1976.99 v -17.01"
               style="fill:none;stroke:#000000;stroke-width:13;stroke-linecap:butt;stroke-linejoin:round;stroke-miterlimit:10;stroke-dasharray:none;stroke-opacity:1"
               id="path64" /><path
               d="m 1040,1976.99 v -17.01"
               style="fill:none;stroke:#000000;stroke-width:13;stroke-linecap:butt;stroke-linejoin:round;stroke-miterlimit:10;stroke-dasharray:none;stroke-opacity:1"
               id="path66" /><path
               d="m 1545.03,1976.99 v -17.01"
               style="fill:none;stroke:#000000;stroke-width:13;stroke-linecap:butt;stroke-linejoin:round;stroke-miterlimit:10;stroke-dasharray:none;stroke-opacity:1"
               id="path68" /><path
               d="m 2048.99,1976.99 v -17.01"
               style="fill:none;stroke:#000000;stroke-width:13;stroke-linecap:butt;stroke-linejoin:round;stroke-miterlimit:10;stroke-dasharray:none;stroke-opacity:1"
               id="path70" /><path
               d="m 2554.02,1976.99 v -17.01"
               style="fill:none;stroke:#000000;stroke-width:13;stroke-linecap:butt;stroke-linejoin:round;stroke-miterlimit:10;stroke-dasharray:none;stroke-opacity:1"
               id="path72" /><path
               d="m 787.98,1976.99 v -34.02"
               style="fill:none;stroke:#000000;stroke-width:13;stroke-linecap:butt;stroke-linejoin:round;stroke-miterlimit:10;stroke-dasharray:none;stroke-opacity:1"
               id="path74" /><path
               d="m 1292.02,1976.99 v -34.02"
               style="fill:none;stroke:#000000;stroke-width:13;stroke-linecap:butt;stroke-linejoin:round;stroke-miterlimit:10;stroke-dasharray:none;stroke-opacity:1"
               id="path76" /><path
               d="m 1796.97,1976.99 v -34.02"
               style="fill:none;stroke:#000000;stroke-width:13;stroke-linecap:butt;stroke-linejoin:round;stroke-miterlimit:10;stroke-dasharray:none;stroke-opacity:1"
               id="path78" /><path
               d="m 2301.01,1976.99 v -34.02"
               style="fill:none;stroke:#000000;stroke-width:13;stroke-linecap:butt;stroke-linejoin:round;stroke-miterlimit:10;stroke-dasharray:none;stroke-opacity:1"
               id="path80" /><path
               d="m 2806.03,1976.99 v -34.02"
               style="fill:none;stroke:#000000;stroke-width:13;stroke-linecap:butt;stroke-linejoin:round;stroke-miterlimit:10;stroke-dasharray:none;stroke-opacity:1"
               id="path82" /><path
               d="M 383.97,118.97 H 2806.03"
               style="fill:none;stroke:#000000;stroke-width:13;stroke-linecap:square;stroke-linejoin:round;stroke-miterlimit:10;stroke-dasharray:none;stroke-opacity:1"
               id="path84" /><path
               d="m 534.97,118.97 v 17.01"
               style="fill:none;stroke:#000000;stroke-width:13;stroke-linecap:butt;stroke-linejoin:round;stroke-miterlimit:10;stroke-dasharray:none;stroke-opacity:1"
               id="path86" /><path
               d="m 1040,118.97 v 17.01"
               style="fill:none;stroke:#000000;stroke-width:13;stroke-linecap:butt;stroke-linejoin:round;stroke-miterlimit:10;stroke-dasharray:none;stroke-opacity:1"
               id="path88" /><path
               d="m 1545.03,118.97 v 17.01"
               style="fill:none;stroke:#000000;stroke-width:13;stroke-linecap:butt;stroke-linejoin:round;stroke-miterlimit:10;stroke-dasharray:none;stroke-opacity:1"
               id="path90" /><path
               d="m 2048.99,118.97 v 17.01"
               style="fill:none;stroke:#000000;stroke-width:13;stroke-linecap:butt;stroke-linejoin:round;stroke-miterlimit:10;stroke-dasharray:none;stroke-opacity:1"
               id="path92" /><path
               d="m 2554.02,118.97 v 17.01"
               style="fill:none;stroke:#000000;stroke-width:13;stroke-linecap:butt;stroke-linejoin:round;stroke-miterlimit:10;stroke-dasharray:none;stroke-opacity:1"
               id="path94" /><path
               d="m 787.98,118.97 v 34.02"
               style="fill:none;stroke:#000000;stroke-width:13;stroke-linecap:butt;stroke-linejoin:round;stroke-miterlimit:10;stroke-dasharray:none;stroke-opacity:1"
               id="path96" /><path
               d="m 1292.02,118.97 v 34.02"
               style="fill:none;stroke:#000000;stroke-width:13;stroke-linecap:butt;stroke-linejoin:round;stroke-miterlimit:10;stroke-dasharray:none;stroke-opacity:1"
               id="path98" /><path
               d="m 1796.97,118.97 v 34.02"
               style="fill:none;stroke:#000000;stroke-width:13;stroke-linecap:butt;stroke-linejoin:round;stroke-miterlimit:10;stroke-dasharray:none;stroke-opacity:1"
               id="path100" /><path
               d="m 2301.01,118.97 v 34.02"
               style="fill:none;stroke:#000000;stroke-width:13;stroke-linecap:butt;stroke-linejoin:round;stroke-miterlimit:10;stroke-dasharray:none;stroke-opacity:1"
               id="path102" /><path
               d="m 2806.03,118.97 v 34.02"
               style="fill:none;stroke:#000000;stroke-width:13;stroke-linecap:butt;stroke-linejoin:round;stroke-miterlimit:10;stroke-dasharray:none;stroke-opacity:1"
               id="path104" /><path
               d="M 383.97,1976.99 V 118.97"
               style="fill:none;stroke:#000000;stroke-width:13;stroke-linecap:square;stroke-linejoin:round;stroke-miterlimit:10;stroke-dasharray:none;stroke-opacity:1"
               id="path106" /><path
               d="m 383.97,1821.99 h 17.06"
               style="fill:none;stroke:#000000;stroke-width:13;stroke-linecap:butt;stroke-linejoin:round;stroke-miterlimit:10;stroke-dasharray:none;stroke-opacity:1"
               id="path108" /><path
               d="m 383.97,1513 h 17.06"
               style="fill:none;stroke:#000000;stroke-width:13;stroke-linecap:butt;stroke-linejoin:round;stroke-miterlimit:10;stroke-dasharray:none;stroke-opacity:1"
               id="path110" /><path
               d="m 383.97,1203.01 h 17.06"
               style="fill:none;stroke:#000000;stroke-width:13;stroke-linecap:butt;stroke-linejoin:round;stroke-miterlimit:10;stroke-dasharray:none;stroke-opacity:1"
               id="path112" /><path
               d="m 383.97,893.02 h 17.06"
               style="fill:none;stroke:#000000;stroke-width:13;stroke-linecap:butt;stroke-linejoin:round;stroke-miterlimit:10;stroke-dasharray:none;stroke-opacity:1"
               id="path114" /><path
               d="m 383.97,584.03 h 17.06"
               style="fill:none;stroke:#000000;stroke-width:13;stroke-linecap:butt;stroke-linejoin:round;stroke-miterlimit:10;stroke-dasharray:none;stroke-opacity:1"
               id="path116" /><path
               d="m 383.97,273.97 h 17.06"
               style="fill:none;stroke:#000000;stroke-width:13;stroke-linecap:butt;stroke-linejoin:round;stroke-miterlimit:10;stroke-dasharray:none;stroke-opacity:1"
               id="path118" /><path
               d="m 383.97,1976.99 h 34.05"
               style="fill:none;stroke:#000000;stroke-width:13;stroke-linecap:butt;stroke-linejoin:round;stroke-miterlimit:10;stroke-dasharray:none;stroke-opacity:1"
               id="path120" /><path
               d="m 383.97,1667 h 34.05"
               style="fill:none;stroke:#000000;stroke-width:13;stroke-linecap:butt;stroke-linejoin:round;stroke-miterlimit:10;stroke-dasharray:none;stroke-opacity:1"
               id="path122" /><path
               d="m 383.97,1358 h 34.05"
               style="fill:none;stroke:#000000;stroke-width:13;stroke-linecap:butt;stroke-linejoin:round;stroke-miterlimit:10;stroke-dasharray:none;stroke-opacity:1"
               id="path124" /><path
               d="m 383.97,1048.01 h 34.05"
               style="fill:none;stroke:#000000;stroke-width:13;stroke-linecap:butt;stroke-linejoin:round;stroke-miterlimit:10;stroke-dasharray:none;stroke-opacity:1"
               id="path126" /><path
               d="m 383.97,738.03 h 34.05"
               style="fill:none;stroke:#000000;stroke-width:13;stroke-linecap:butt;stroke-linejoin:round;stroke-miterlimit:10;stroke-dasharray:none;stroke-opacity:1"
               id="path128" /><path
               d="m 383.97,429.03 h 34.05"
               style="fill:none;stroke:#000000;stroke-width:13;stroke-linecap:butt;stroke-linejoin:round;stroke-miterlimit:10;stroke-dasharray:none;stroke-opacity:1"
               id="path130" /><path
               d="m 383.97,118.97 h 34.05"
               style="fill:none;stroke:#000000;stroke-width:13;stroke-linecap:butt;stroke-linejoin:round;stroke-miterlimit:10;stroke-dasharray:none;stroke-opacity:1"
               id="path132" /><path
               d="M 2806.03,1976.99 V 118.97"
               style="fill:none;stroke:#000000;stroke-width:13;stroke-linecap:square;stroke-linejoin:round;stroke-miterlimit:10;stroke-dasharray:none;stroke-opacity:1"
               id="path134" /><path
               d="m 2806.03,1821.99 h -17.06"
               style="fill:none;stroke:#000000;stroke-width:13;stroke-linecap:butt;stroke-linejoin:round;stroke-miterlimit:10;stroke-dasharray:none;stroke-opacity:1"
               id="path136" /><path
               d="m 2806.03,1513 h -17.06"
               style="fill:none;stroke:#000000;stroke-width:13;stroke-linecap:butt;stroke-linejoin:round;stroke-miterlimit:10;stroke-dasharray:none;stroke-opacity:1"
               id="path138" /><path
               d="m 2806.03,1203.01 h -17.06"
               style="fill:none;stroke:#000000;stroke-width:13;stroke-linecap:butt;stroke-linejoin:round;stroke-miterlimit:10;stroke-dasharray:none;stroke-opacity:1"
               id="path140" /><path
               d="m 2806.03,893.02 h -17.06"
               style="fill:none;stroke:#000000;stroke-width:13;stroke-linecap:butt;stroke-linejoin:round;stroke-miterlimit:10;stroke-dasharray:none;stroke-opacity:1"
               id="path142" /><path
               d="m 2806.03,584.03 h -17.06"
               style="fill:none;stroke:#000000;stroke-width:13;stroke-linecap:butt;stroke-linejoin:round;stroke-miterlimit:10;stroke-dasharray:none;stroke-opacity:1"
               id="path144" /><path
               d="m 2806.03,273.97 h -17.06"
               style="fill:none;stroke:#000000;stroke-width:13;stroke-linecap:butt;stroke-linejoin:round;stroke-miterlimit:10;stroke-dasharray:none;stroke-opacity:1"
               id="path146" /><path
               d="m 2806.03,1976.99 h -34.05"
               style="fill:none;stroke:#000000;stroke-width:13;stroke-linecap:butt;stroke-linejoin:round;stroke-miterlimit:10;stroke-dasharray:none;stroke-opacity:1"
               id="path148" /><path
               d="m 2806.03,1667 h -34.05"
               style="fill:none;stroke:#000000;stroke-width:13;stroke-linecap:butt;stroke-linejoin:round;stroke-miterlimit:10;stroke-dasharray:none;stroke-opacity:1"
               id="path150" /><path
               d="m 2806.03,1358 h -34.05"
               style="fill:none;stroke:#000000;stroke-width:13;stroke-linecap:butt;stroke-linejoin:round;stroke-miterlimit:10;stroke-dasharray:none;stroke-opacity:1"
               id="path152" /><path
               d="m 2806.03,1048.01 h -34.05"
               style="fill:none;stroke:#000000;stroke-width:13;stroke-linecap:butt;stroke-linejoin:round;stroke-miterlimit:10;stroke-dasharray:none;stroke-opacity:1"
               id="path154" /><path
               d="m 2806.03,738.03 h -34.05"
               style="fill:none;stroke:#000000;stroke-width:13;stroke-linecap:butt;stroke-linejoin:round;stroke-miterlimit:10;stroke-dasharray:none;stroke-opacity:1"
               id="path156" /><path
               d="m 2806.03,429.03 h -34.05"
               style="fill:none;stroke:#000000;stroke-width:13;stroke-linecap:butt;stroke-linejoin:round;stroke-miterlimit:10;stroke-dasharray:none;stroke-opacity:1"
               id="path158" /><path
               d="m 2806.03,118.97 h -34.05"
               style="fill:none;stroke:#000000;stroke-width:13;stroke-linecap:butt;stroke-linejoin:round;stroke-miterlimit:10;stroke-dasharray:none;stroke-opacity:1"
               id="path160" /></g><g
             id="g162" /><g
             id="g164" /></g></g></g><g
       id="g166"
       transform="matrix(0.2399987,0,0,-0.24000372,0,571.69128)"><g
         id="g168"
         clip-path="url(#clipPath172)"><g
           id="g174"
           transform="matrix(1.132664,0,0,-1.133929,0,2382.0107)"><g
             id="g176"
             transform="matrix(0.882874,0,0,-0.88189,0,2100.6709)"><g
               id="g178"
               transform="matrix(1,0,0,-1,700,2100)"><text
                 transform="scale(1,-1)"
                 style="font-variant:normal;font-weight:normal;font-size:107px;font-family:Bahnschrift;-inkscape-font-specification:Bahnschrift;writing-mode:lr-tb;fill:#000000;fill-opacity:1;fill-rule:nonzero;stroke:none"
                 id="text182"><tspan
                   x="0 59 118"
                   y="0"
                   sodipodi:role="line"
                   id="tspan180">500</tspan></text></g></g><g
             id="g184" /><g
             id="g186" /><g
             id="g188" /></g></g></g><g
       id="g190"
       transform="matrix(0.2399987,0,0,-0.24000372,0,571.69128)"><g
         id="g192"
         clip-path="url(#clipPath196)"><g
           id="g198"
           transform="matrix(1.132664,0,0,-1.133929,0,2382.0107)"><g
             id="g200"
             transform="matrix(0.882874,0,0,-0.88189,0,2100.6709)"><g
               id="g202"
               transform="matrix(1,0,0,-1,1206,2100)"><text
                 transform="scale(1,-1)"
                 style="font-variant:normal;font-weight:normal;font-size:107px;font-family:Bahnschrift;-inkscape-font-specification:Bahnschrift;writing-mode:lr-tb;fill:#000000;fill-opacity:1;fill-rule:nonzero;stroke:none"
                 id="text206"><tspan
                   x="0 55 114"
                   y="0"
                   sodipodi:role="line"
                   id="tspan204">600</tspan></text></g></g><g
             id="g208" /><g
             id="g210" /><g
             id="g212" /></g></g></g><g
       id="g214"
       transform="matrix(0.2399987,0,0,-0.24000372,0,571.69128)"><g
         id="g216"
         clip-path="url(#clipPath220)"><g
           id="g222"
           transform="matrix(1.132664,0,0,-1.133929,0,2382.0107)"><g
             id="g224"
             transform="matrix(0.882874,0,0,-0.88189,0,2100.6709)"><g
               id="g226"
               transform="matrix(1,0,0,-1,1711,2100)"><text
                 transform="scale(1,-1)"
                 style="font-variant:normal;font-weight:normal;font-size:107px;font-family:Bahnschrift;-inkscape-font-specification:Bahnschrift;writing-mode:lr-tb;fill:#000000;fill-opacity:1;fill-rule:nonzero;stroke:none"
                 id="text230"><tspan
                   x="0 54 113"
                   y="0"
                   sodipodi:role="line"
                   id="tspan228">700</tspan></text></g></g><g
             id="g232" /><g
             id="g234" /><g
             id="g236" /></g></g></g><g
       id="g238"
       transform="matrix(0.2399987,0,0,-0.24000372,0,571.69128)"><g
         id="g240"
         clip-path="url(#clipPath244)"><g
           id="g246"
           transform="matrix(1.132664,0,0,-1.133929,0,2382.0107)"><g
             id="g248"
             transform="matrix(0.882874,0,0,-0.88189,0,2100.6709)"><g
               id="g250"
               transform="matrix(1,0,0,-1,2212,2100)"><text
                 transform="scale(1,-1)"
                 style="font-variant:normal;font-weight:normal;font-size:107px;font-family:Bahnschrift;-inkscape-font-specification:Bahnschrift;writing-mode:lr-tb;fill:#000000;fill-opacity:1;fill-rule:nonzero;stroke:none"
                 id="text254"><tspan
                   x="0 60 119"
                   y="0"
                   sodipodi:role="line"
                   id="tspan252">800</tspan></text></g></g><g
             id="g256" /><g
             id="g258" /><g
             id="g260" /></g></g></g><g
       id="g262"
       transform="matrix(0.2399987,0,0,-0.24000372,0,571.69128)"><g
         id="g264"
         clip-path="url(#clipPath268)"><g
           id="g270"
           transform="matrix(1.132664,0,0,-1.133929,0,2382.0107)"><g
             id="g272"
             transform="matrix(0.882874,0,0,-0.88189,0,2100.6709)"><g
               id="g274"
               transform="matrix(1,0,0,-1,2720,2100)"><text
                 transform="scale(1,-1)"
                 style="font-variant:normal;font-weight:normal;font-size:107px;font-family:Bahnschrift;-inkscape-font-specification:Bahnschrift;writing-mode:lr-tb;fill:#000000;fill-opacity:1;fill-rule:nonzero;stroke:none"
                 id="text278"><tspan
                   x="0 55 114"
                   y="0"
                   sodipodi:role="line"
                   id="tspan276">900</tspan></text></g></g><g
             id="g280" /><g
             id="g282" /><g
             id="g284" /><g
             id="g286" /><g
             id="g288" /><g
             id="g290" /><g
             id="g292" /><g
             id="g294" /><g
             id="g296" /><g
             id="g298" /><g
             id="g300" /><g
             id="g302" /><g
             id="g304" /><g
             id="g306" /><g
             id="g308" /><g
             id="g310" /><g
             id="g312" /><g
             id="g314" /><g
             id="g316" /></g></g></g><g
       id="g318"
       transform="matrix(0.2399987,0,0,-0.24000372,0,571.69128)"><g
         id="g320"
         clip-path="url(#clipPath324)"><g
           id="g326"
           transform="matrix(1.132664,0,0,-1.133929,0,2382.0107)"><g
             id="g328"
             transform="matrix(0.882874,0,0,-0.88189,0,2100.6709)"><g
               id="g330"
               transform="matrix(0,-1,-1,0,324,1214)"><text
                 transform="scale(1,-1)"
                 style="font-variant:normal;font-weight:normal;font-size:179px;font-family:Bahnschrift;-inkscape-font-specification:Bahnschrift;writing-mode:lr-tb;fill:#000000;fill-opacity:1;fill-rule:nonzero;stroke:none"
                 id="text334"><tspan
                   x="0 107 225"
                   y="0"
                   sodipodi:role="line"
                   id="tspan332">EQE</tspan></text></g></g><g
             id="g336" /></g></g></g><g
       id="g338"
       transform="matrix(0.2399987,0,0,-0.24000372,0,571.69128)"><g
         id="g340"
         clip-path="url(#clipPath344)"><g
           id="g346"
           transform="matrix(1.132664,0,0,-1.133929,0,2382.0107)"><g
             id="g348"
             transform="matrix(0.882874,0,0,-0.88189,0,2100.6709)"><g
               id="g350"
               transform="matrix(1,0,0,-1,1014,2286)"><text
                 transform="scale(1,-1)"
                 style="font-variant:normal;font-weight:normal;font-size:177px;font-family:Bahnschrift;-inkscape-font-specification:Bahnschrift;writing-mode:lr-tb;fill:#000000;fill-opacity:1;fill-rule:nonzero;stroke:none"
                 id="text354"><tspan
                   x="0 150 244 333 428 479 574 673 769 827 926 974 1041 1140"
                   y="0"
                   sodipodi:role="line"
                   id="tspan352">Wavelength /nm</tspan></text></g></g><g
             id="g356" /><g
             id="g358" /><g
             id="g360" /></g></g></g><g
       id="g362"
       transform="scale(0.271838,0.272147)"><g
         id="g364" /></g><text
       xml:space="preserve"
       style="font-weight:300;font-stretch:condensed;font-size:48px;line-height:1.05;font-family:Bahnschrift;-inkscape-font-specification:'Bahnschrift Light Condensed';stroke-width:0.75"
       x="448.3866"
       y="-483.70474"
       id="text2249"
       transform="scale(1,-1)"><tspan
         sodipodi:role="line"
         id="tspan2247"
         style="font-style:normal;font-variant:normal;font-weight:normal;font-stretch:condensed;font-size:48px;font-family:Bahnschrift;-inkscape-font-specification:'Bahnschrift Condensed';baseline-shift:baseline;stroke-width:0.75"
         x="448.3866"
         y="-483.70474">P3HT:PC<tspan
   style="font-size:65%;baseline-shift:sub"
   id="tspan8920">61</tspan>BM</tspan></text><text
       xml:space="preserve"
       style="font-weight:300;font-stretch:condensed;font-size:32px;line-height:1.05;font-family:Bahnschrift;-inkscape-font-specification:'Bahnschrift Light Condensed';stroke-width:0.75"
       x="438.40536"
       y="-191.94629"
       id="text16801"
       transform="scale(1,-1)"><tspan
         sodipodi:role="line"
         id="tspan16799"
         style="stroke-width:0.75"
         x="438.40536"
         y="-191.94629">CTS Absorption Tail</tspan></text><path
       style="fill:none;stroke:#000000;stroke-width:4.87500012;stroke-linecap:round;stroke-linejoin:miter;stroke-opacity:1;marker-end:url(#Arrow2Send);stroke-miterlimit:4;stroke-dasharray:none"
       d="M 455.29667,178.89396 416.9074,133.59463"
       id="path17312" /></g></svg>
