<?xml version="1.0" encoding="UTF-8" standalone="no"?>
<!-- Created with Inkscape (http://www.inkscape.org/) -->

<svg
   version="1.1"
   id="svg2"
   xml:space="preserve"
   width="945.33331"
   height="762.66669"
   viewBox="0 0 945.33331 762.66669"
   sodipodi:docname="EQE CTS Tail for import.svg"
   inkscape:version="1.1.2 (b8e25be833, 2022-02-05)"
   xmlns:inkscape="http://www.inkscape.org/namespaces/inkscape"
   xmlns:sodipodi="http://sodipodi.sourceforge.net/DTD/sodipodi-0.dtd"
   xmlns:xlink="http://www.w3.org/1999/xlink"
   xmlns="http://www.w3.org/2000/svg"
   xmlns:svg="http://www.w3.org/2000/svg"><defs
     id="defs6"><marker
       style="overflow:visible;"
       id="Arrow2Send"
       refX="0.0"
       refY="0.0"
       orient="auto"
       inkscape:stockid="Arrow2Send"
       inkscape:isstock="true"><path
         transform="scale(0.3) rotate(180) translate(-2.3,0)"
         d="M 8.7185878,4.0337352 L -2.2072895,0.016013256 L 8.7185884,-4.0017078 C 6.9730900,-1.6296469 6.9831476,1.6157441 8.7185878,4.0337352 z "
         style="stroke:context-stroke;fill-rule:evenodd;fill:context-stroke;stroke-width:0.62500000;stroke-linejoin:round;"
         id="path17347" /></marker><linearGradient
       inkscape:collect="always"
       id="linearGradient14569"><stop
         style="stop-color:#d08d00;stop-opacity:1;"
         offset="0"
         id="stop14565" /><stop
         style="stop-color:#d08d00;stop-opacity:0;"
         offset="1"
         id="stop14567" /></linearGradient><clipPath
       clipPathUnits="userSpaceOnUse"
       id="clipPath16"><path
         d="M 0,0 H 2607.14 V 2100.67 H 0 Z"
         clip-rule="evenodd"
         id="path14" /></clipPath><clipPath
       clipPathUnits="userSpaceOnUse"
       id="clipPath36"><path
         d="M 384,119 H 2807 V 1978 H 384 Z"
         clip-rule="evenodd"
         id="path34" /></clipPath><clipPath
       clipPathUnits="userSpaceOnUse"
       id="clipPath56"><path
         d="M 0,0 H 2953 V 2382 H 0 Z"
         clip-rule="evenodd"
         id="path54" /></clipPath><clipPath
       clipPathUnits="userSpaceOnUse"
       id="clipPath172"><path
         d="M 0,0 H 2953 V 2382 H 0 Z"
         clip-rule="evenodd"
         id="path170" /></clipPath><clipPath
       clipPathUnits="userSpaceOnUse"
       id="clipPath196"><path
         d="M 0,0 H 2953 V 2382 H 0 Z"
         clip-rule="evenodd"
         id="path194" /></clipPath><clipPath
       clipPathUnits="userSpaceOnUse"
       id="clipPath220"><path
         d="M 0,0 H 2953 V 2382 H 0 Z"
         clip-rule="evenodd"
         id="path218" /></clipPath><clipPath
       clipPathUnits="userSpaceOnUse"
       id="clipPath244"><path
         d="M 0,0 H 2953 V 2382 H 0 Z"
         clip-rule="evenodd"
         id="path242" /></clipPath><clipPath
       clipPathUnits="userSpaceOnUse"
       id="clipPath268"><path
         d="M 0,0 H 2953 V 2382 H 0 Z"
         clip-rule="evenodd"
         id="path266" /></clipPath><clipPath
       clipPathUnits="userSpaceOnUse"
       id="clipPath324"><path
         d="M 0,0 H 2953 V 2382 H 0 Z"
         clip-rule="evenodd"
         id="path322" /></clipPath><clipPath
       clipPathUnits="userSpaceOnUse"
       id="clipPath344"><path
         d="M 0,0 H 2953 V 2382 H 0 Z"
         clip-rule="evenodd"
         id="path342" /></clipPath><linearGradient
       inkscape:collect="always"
       xlink:href="#linearGradient14569"
       id="linearGradient14571"
       x1="410.64481"
       y1="118.57138"
       x2="367.38525"
       y2="120.15839"
       gradientUnits="userSpaceOnUse" /></defs><sodipodi:namedview
     id="namedview4"
     pagecolor="#ffffff"
     bordercolor="#666666"
     borderopacity="1.0"
     inkscape:pageshadow="2"
     inkscape:pageopacity="0.0"
     inkscape:pagecheckerboard="0"
     showgrid="false"
     inkscape:zoom="0.48841782"
     inkscape:cx="324.51723"
     inkscape:cy="532.33111"
     inkscape:window-width="1920"
     inkscape:window-height="1017"
     inkscape:window-x="-8"
     inkscape:window-y="-8"
     inkscape:window-maximized="1"
     inkscape:current-layer="g8" /><g
     id="g8"
     inkscape:groupmode="layer"
     inkscape:label="EQE MEasurement cemitech patterned p3ht cells for thesis - Copy"
     transform="matrix(1.3333333,0,0,-1.3333333,0,762.66667)"><path
       style="fill:url(#linearGradient14571);fill-opacity:1;stroke:none;stroke-width:2.16001;stroke-linecap:round;stroke-linejoin:round;stroke-miterlimit:10;stroke-dasharray:none;stroke-opacity:1"
       d="m 364.46175,98.499422 0.0889,77.425688 8.64959,-24.23799 1.20479,-2.89205 1.19039,-2.39764 1.2048,-2.16003 1.19039,-2.39764 1.20719,-1.92243 1.2048,-1.90563 1.19039,-1.68243 1.20479,-1.44722 1.2072,-1.44482 1.19039,-1.19042 1.20479,-1.20722 1.1904,-1.19282 1.20479,-0.96722 1.20719,-0.95281 1.18799,-0.96962 1.2072,-0.71521 1.20719,-0.71521 1.18799,-0.72961 1.4448,-0.71522 1.20719,-0.71521 1.18799,-0.47521 1.20719,-0.73201 1.2048,-0.4752 1.19039,-0.47761 1.20719,-0.47521 1.188,-0.49441 1.20719,-0.47521 1.20479,-0.2376 1.1904,-0.47761 1.20719,-0.2376 1.20479,-0.23761 1.19039,-0.4944 1.2048,-0.23761 1.19039,-0.2376 1.20479,-0.2376 1.2072,-0.24001 1.19039,-0.2376 h 1.20479 l 1.2072,-0.23761 1.18799,-0.2376 h 1.44479 l 1.20719,-0.24 h 1.188 l 1.20719,-0.25441 h 1.20719 l 1.188,-0.2376 h 1.20719 l 1.18799,-0.23761 h 1.2072 l 1.20479,-0.2376 h 1.19039 l 1.20719,-0.24 1.2048,-0.23761 1.19039,-0.2376 1.20479,-0.23761 1.1904,-0.4944 1.20719,-0.23761 1.20479,-0.4776 1.1904,-0.47521 1.20479,-0.23761 1.20719,-0.4776 1.18799,-0.49201 1.4448,-0.47761 1.20719,-0.2376 1.18799,-0.47521 1.2072,-0.23761 1.19039,-0.24 1.20479,-0.49201 1.20719,-0.2376 1.188,-0.24 1.20719,-0.23761 1.20719,-0.2376 1.188,-0.23761 1.20719,-0.24 1.20479,-0.2376 1.1904,-0.25441 h 1.20719 l 1.18799,-0.2376 1.2072,-0.23761 1.20479,-0.24 h 1.19039 l 1.20479,-0.2376 h 1.2072 l 1.19039,-0.23761 h 1.44239 l 1.2072,-0.2376 1.18799,-0.24 h 1.20719 l 1.19039,-0.23761 h 1.2048 l 1.20719,-0.2544 h 1.18799 l 1.2072,-0.23761 h 1.20719 l 1.18799,-0.24 h 1.2072 l 1.20479,-0.2376 h 1.19039 l 1.20719,-0.23761 h 1.188 1.20719 l 1.20479,-0.2376 h 1.1904 l 1.20719,-0.23761 h 1.20479 l 1.1904,-0.24 h 1.44239 1.20719 l 1.19039,-0.2376 h 1.2048 l 1.19039,-0.25441 h 1.20479 1.2072 l 1.19039,-0.2376 h 1.20479 1.2072 l 1.18799,-0.24001 h 1.20719 1.18799 l 1.2072,-0.2376 h 1.20719 1.18799 1.2072 l 1.20719,-0.2376 h 1.18799 1.2072 l 1.20479,-0.23761 h 1.42799 1.20719 1.2048 l 1.19039,-0.2376 h 1.20479 1.1904 l 1.20479,-0.24 h 1.20719 1.1904 1.20479 1.20719 l 1.18799,-0.23761 h 1.2072 1.19039 1.20479 l 1.2072,-0.2544 h 1.18799 1.20719 1.2072 l 1.18799,-0.23761 h 1.20719 1.20479 1.428 1.20719 l 1.20479,-0.24 h 1.1904 1.20479 1.19039 1.20719 l 1.2048,-0.2376 h 1.19039 1.20479 1.2072 1.19039 l 1.20479,-0.237608 h 1.1904 1.20479 1.20719 1.188 1.20719 l 1.20719,-0.237604 h 1.18799 1.2072 1.20719 1.42559 1.2072 l 1.20479,-0.240004 h 1.19039 1.20719 1.188 1.20719 1.20479 l 1.1904,-0.237604 h 1.20719 1.20479 1.1904 1.20479 1.19039 1.20479 1.2072 l 1.19039,-0.237603 h 1.20479 1.2072 1.18799 1.20719 1.1904 1.44239 1.20719 1.20719 1.188 l 1.20719,-0.254405 h 1.18799 1.2072 1.20479 1.19039 1.2072 1.20479 1.19039 1.20479 1.1904 1.20719 1.20479 l 1.1904,-0.237603 1.20479,-0.240004 1.20719,0.240004 h 1.188 1.20719 1.19039 1.44239 1.2072 1.19039 1.20479 1.2072 1.18799 1.20719 1.20719 1.188 1.20719 1.20479 1.1904 1.20719 1.18799 1.2072 1.20479 1.19039 1.2048 1.20719 1.19039 1.20479 1.1904 1.44239 1.20719 1.1904 l 1.20479,-0.240004 h 1.20719 1.18799 1.2072 1.20719 1.18799 1.2072 1.20479"
       id="path12650"
       sodipodi:nodetypes="ccccccccccccccccccccccccccccccccccccccccccccccccccccccccccccccccccccccccccccccccccccccccccccccccccccccccccccccccccccccccccccccccccccccccccccccccccccccccccccccccccccccccccccccccccccccccccccccccccccccccccccccccccccccccccccccccccccccccccccccccccccccccccc" /><g
       id="g18"
       transform="scale(0.271838,0.272147)" /><g
       id="g20"
       transform="scale(0.271838,0.272147)" /><g
       id="g22"
       transform="scale(0.271838,0.272147)" /><g
       id="g24"
       transform="scale(0.271838,0.272147)" /><g
       id="g26"
       transform="scale(0.271838,0.272147)" /><g
       id="g28"
       transform="scale(0.271838,0.272147)" /><path
       style="color:#000000;fill:#000000;stroke-linecap:round;stroke-linejoin:round;stroke-miterlimit:10;-inkscape-stroke:none"
       d="m 665.0332,97.078125 a 1.0801131,1.0801131 0 0 0 -0.21093,0.02148 l -1.09961,0.21875 h -1.08399 -1.20703 -1.44336 -1.18945 -1.20508 -1.18945 -1.20899 -1.20312 -1.19141 -1.20508 -1.20703 -1.1875 -1.20703 -1.19141 -1.20312 -1.20899 -1.1875 -1.20703 -1.20703 -1.1875 -1.20703 -1.20508 -1.1914 -1.20703 -1.44141 -1.19141 -1.20703 -1.08203 l -1.10156,-0.21875 a 1.0801131,1.0801131 0 0 0 -0.42188,0 l -1.20508,0.240235 -1.08593,0.216797 h -1.09766 -1.20703 -1.19141 -1.20507 -1.18946 -1.20508 -1.20703 -1.1914 -1.20313 -1.20898 -1.1875 a 1.0801131,1.0801131 0 0 0 -0.22266,0.02344 l -1.09766,0.230469 h -1.07421 -1.20704 -1.20703 -1.44336 -1.18945 -1.20703 -1.18945 -1.20703 -1.20508 A 1.0801131,1.0801131 0 0 0 600.5,97.832031 l -1.08594,0.216797 h -1.09961 -1.20508 -1.18945 -1.20508 -1.1914 -1.20508 -1.20703 a 1.0801131,1.0801131 0 0 0 -0.21094,0.02148 l -1.08594,0.216797 h -1.09765 -1.20703 -1.1875 -1.20704 -1.1914 a 1.0801131,1.0801131 0 0 0 -0.21094,0.01953 l -1.09961,0.21875 h -1.10156 -1.42578 -1.20703 -1.20704 -1.1875 a 1.0801131,1.0801131 0 0 0 -0.20898,0.02148 l -1.10352,0.216797 h -1.10156 -1.18945 -1.20703 -1.20508 -1.18945 a 1.0801131,1.0801131 0 0 0 -0.20899,0.02148 l -1.10156,0.216797 h -1.08398 -1.20704 -1.20507 -1.19141 a 1.0801131,1.0801131 0 0 0 -0.20898,0.01953 l -1.10157,0.216797 h -1.10156 -1.18945 -1.20508 -1.19141 a 1.0801131,1.0801131 0 0 0 -0.21093,0.02148 l -1.09961,0.21875 h -1.10157 -1.42773 -1.20508 -1.20703 A 1.0801131,1.0801131 0 0 0 550.82031,99.5 l -1.08398,0.216797 h -1.09961 -1.20703 -1.1875 a 1.0801131,1.0801131 0 0 0 -0.22266,0.02344 l -1.09766,0.230469 h -1.09179 -1.19141 -1.20703 a 1.0801131,1.0801131 0 0 0 -0.21094,0.02148 l -1.08398,0.216793 h -1.09961 -1.20508 -1.18945 -1.20899 a 1.0801131,1.0801131 0 0 0 -0.21093,0.0215 l -1.09961,0.21875 h -1.08399 -1.20508 a 1.0801131,1.0801131 0 0 0 -0.21093,0.0195 l -1.08594,0.2168 h -1.09766 -1.20703 -1.42773 a 1.0801131,1.0801131 0 0 0 -0.20899,0.0215 l -1.10156,0.2168 h -1.10156 -1.1875 a 1.0801131,1.0801131 0 0 0 -0.20899,0.0195 l -1.10351,0.21875 h -1.10352 -1.1875 -1.20703 a 1.0801131,1.0801131 0 0 0 -0.20898,0.0195 l -1.10352,0.2168 H 516 514.79297 a 1.0801131,1.0801131 0 0 0 -0.21485,0.0215 l -1.08203,0.21875 h -1.09961 -1.20507 a 1.0801131,1.0801131 0 0 0 -0.21094,0.0215 l -1.08594,0.21679 h -1.09961 -1.20508 a 1.0801131,1.0801131 0 0 0 -0.22656,0.0234 l -1.07812,0.23047 h -1.08985 a 1.0801131,1.0801131 0 0 0 -0.21289,0.0215 l -1.08398,0.2168 h -1.10157 -1.4414 a 1.0801131,1.0801131 0 0 0 -0.21485,0.0215 l -1.08398,0.21875 h -1.09766 a 1.0801131,1.0801131 0 0 0 -0.20703,0.0195 l -1.10547,0.21679 h -1.08398 a 1.0801131,1.0801131 0 0 0 -0.20898,0.0215 l -1.10157,0.21679 h -1.10156 -1.1875 a 1.0801131,1.0801131 0 0 0 -0.20898,0.0195 l -1.10352,0.21875 h -1.08594 a 1.0801131,1.0801131 0 0 0 -0.20898,0.0195 l -1.10156,0.21679 h -1.10157 a 1.0801131,1.0801131 0 0 0 -0.21289,0.0215 l -1.08398,0.21875 h -1.09766 a 1.0801131,1.0801131 0 0 0 -0.20898,0.0215 l -1.10352,0.2168 h -1.08398 a 1.0801131,1.0801131 0 0 0 -0.22266,0.0234 l -1.0957,0.23047 h -1.09375 a 1.0801131,1.0801131 0 0 0 -0.21094,0.0215 l -1.08594,0.2168 h -1.09961 a 1.0801131,1.0801131 0 0 0 -0.21484,0.0215 l -1.18555,0.23828 -1.09961,0.2168 h -1.33789 a 1.0801131,1.0801131 0 0 0 -0.21093,0.0215 l -1.08594,0.2168 h -1.10156 a 1.0801131,1.0801131 0 0 0 -0.20899,0.0195 l -1.09961,0.21875 h -1.08594 a 1.0801131,1.0801131 0 0 0 -0.21093,0.0195 l -1.20313,0.24024 -1.20703,0.23828 a 1.0801131,1.0801131 0 0 0 -0.002,0 l -1.08399,0.2168 h -1.09961 a 1.0801131,1.0801131 0 0 0 -0.22656,0.0234 l -1.18164,0.25196 -1.19531,0.23632 a 1.0801131,1.0801131 0 0 0 -0.002,0 l -1.20704,0.24024 a 1.0801131,1.0801131 0 0 0 -0.002,0 l -1.18555,0.23828 -1.20703,0.23633 -1.20703,0.23828 a 1.0801131,1.0801131 0 0 0 -0.004,0 l -1.18555,0.24023 -1.20508,0.23633 a 1.0801131,1.0801131 0 0 0 -0.19922,0.0605 l -1.11133,0.45312 -1.08789,0.21875 -1.20508,0.23829 a 1.0801131,1.0801131 0 0 0 -0.1914,0.0566 l -1.09375,0.4375 -1.10938,0.21875 a 1.0801131,1.0801131 0 0 0 -0.13086,0.0332 l -1.44336,0.47851 a 1.0801131,1.0801131 0 0 0 -0.0742,0.0273 l -1.18164,0.48828 -1.10743,0.43945 -1.10742,0.21875 a 1.0801131,1.0801131 0 0 0 -0.1914,0.0547 l -1.18946,0.47656 -1.11133,0.43946 -1.10937,0.21875 a 1.0801131,1.0801131 0 0 0 -0.20508,0.0625 l -1.0918,0.45312 -1.09961,0.2168 a 1.0801131,1.0801131 0 0 0 -0.002,0 l -1.18945,0.23828 -1.20313,0.23633 a 1.0801131,1.0801131 0 0 0 -0.002,0 l -1.10352,0.2207 h -1.08398 a 1.0801131,1.0801131 0 0 0 -0.20898,0.0195 l -1.09961,0.2168 h -1.10352 a 1.0801131,1.0801131 0 0 0 -0.21094,0.0215 l -1.08398,0.2168 H 428.875 a 1.0801131,1.0801131 0 0 0 -0.21094,0.0215 l -1.08398,0.2168 h -1.09961 a 1.0801131,1.0801131 0 0 0 -0.22266,0.0215 l -1.09765,0.23242 h -1.07618 a 1.0801131,1.0801131 0 0 0 -0.20898,0.0195 l -1.10352,0.2207 h -1.33789 a 1.0801131,1.0801131 0 0 0 -0.21289,0.0195 l -1.18554,0.23828 -1.10352,0.2168 h -1.09961 a 1.0801131,1.0801131 0 0 0 -0.21094,0.0215 l -1.18945,0.23632 -1.20703,0.24024 -1.20313,0.23828 a 1.0801131,1.0801131 0 0 0 -0.002,0 l -1.18945,0.23633 -1.20313,0.23828 a 1.0801131,1.0801131 0 0 0 -0.20508,0.0625 l -1.09179,0.45312 -1.09961,0.2168 -1.20703,0.23633 a 1.0801131,1.0801131 0 0 0 -0.19336,0.0586 l -1.09571,0.43946 -1.10546,0.21875 a 1.0801131,1.0801131 0 0 0 -0.1875,0.0547 l -1.20704,0.47461 a 1.0801131,1.0801131 0 0 0 -0.0195,0.008 l -1.17773,0.49024 -1.19727,0.4707 a 1.0801131,1.0801131 0 0 0 -0.006,0.004 l -1.1875,0.47656 -1.20312,0.47266 a 1.0801131,1.0801131 0 0 0 -0.16406,0.082 l -1.13086,0.68555 -1.10547,0.4414 a 1.0801131,1.0801131 0 0 0 -0.14844,0.0742 l -1.17187,0.69531 -1.40821,0.69727 a 1.0801131,1.0801131 0 0 0 -0.0859,0.0469 l -1.18165,0.72461 -1.19921,0.71094 -1.20704,0.71484 a 1.0801131,1.0801131 0 0 0 -0.13281,0.0937 l -1.18164,0.96289 -1.19922,0.94727 a 1.0801131,1.0801131 0 0 0 -0.008,0.006 l -1.20508,0.9668 a 1.0801131,1.0801131 0 0 0 -0.0879,0.0801 l -1.18945,1.19336 -1.20508,1.20703 -1.18945,1.18946 a 1.0801131,1.0801131 0 0 0 -0.0664,0.0703 l -1.20703,1.44531 a 1.0801131,1.0801131 0 0 0 0,0.002 l -1.20508,1.44726 a 1.0801131,1.0801131 0 0 0 -0.0527,0.0664 l -1.18946,1.68359 a 1.0801131,1.0801131 0 0 0 -0.0312,0.0449 l -1.20507,1.90625 a 1.0801131,1.0801131 0 0 0 -0.002,0.004 l -1.20703,1.92187 a 1.0801131,1.0801131 0 0 0 -0.0527,0.0937 l -1.17969,2.375 -1.19141,2.13672 a 1.0801131,1.0801131 0 0 0 -0.0234,0.0469 l -1.19141,2.39648 a 1.0801131,1.0801131 0 0 0 -0.0293,0.0645 l -1.20508,2.89062 -1.15625,2.75586 -0.0488,0.11914 a 1.080005,1.080005 0 0 0 0.57617,1.41406 1.080005,1.080005 0 0 0 1.41406,-0.57812 l 0.0508,-0.11914 1.15625,-2.75586 a 1.0801131,1.0801131 0 0 0 0.002,-0.004 l 1.1914,-2.85742 1.16211,-2.34375 1.19336,-2.13672 a 1.0801131,1.0801131 0 0 0 0.0234,-0.0469 l 1.16601,-2.34766 1.17774,-1.87695 1.18945,-1.87891 1.14844,-1.625 1.17773,-1.41406 1.17578,-1.4082 1.15625,-1.15625 1.20508,-1.20704 1.14844,-1.15039 1.15625,-0.92773 1.20312,-0.94922 a 1.0801131,1.0801131 0 0 0 0.0137,-0.0117 l 1.125,-0.91797 1.13867,-0.67382 1.20703,-0.7168 a 1.0801131,1.0801131 0 0 0 0.0137,-0.008 l 1.14649,-0.70508 1.40039,-0.69336 a 1.0801131,1.0801131 0 0 0 0.0723,-0.0371 l 1.13477,-0.67383 1.10937,-0.44336 a 1.0801131,1.0801131 0 0 0 0.16016,-0.0801 l 1.12891,-0.68359 1.11914,-0.44141 a 1.0801131,1.0801131 0 0 0 0.006,-0.002 l 1.1875,-0.47656 1.20312,-0.47461 a 1.0801131,1.0801131 0 0 0 0.0195,-0.008 l 1.17774,-0.49024 1.10742,-0.43555 1.10937,-0.21875 a 1.0801131,1.0801131 0 0 0 0.19336,-0.0566 l 1.09571,-0.4414 1.10742,-0.2168 1.20508,-0.23828 a 1.0801131,1.0801131 0 0 0 0.20507,-0.0625 l 1.0918,-0.45313 1.09961,-0.21679 a 1.0801131,1.0801131 0 0 0 0.002,0 l 1.18946,-0.23828 1.20312,-0.23633 a 1.0801131,1.0801131 0 0 0 0.002,0 l 1.20704,-0.24024 1.08593,-0.21679 h 1.09766 a 1.0801131,1.0801131 0 0 0 0.20898,-0.0215 l 1.20703,-0.23633 a 1.0801131,1.0801131 0 0 0 0.004,-0.002 l 1.08203,-0.21484 h 1.33789 a 1.0801131,1.0801131 0 0 0 0.21094,-0.0215 l 1.10352,-0.21875 h 1.08203 a 1.0801131,1.0801131 0 0 0 0.22265,-0.0234 l 1.09571,-0.23243 h 1.0957 a 1.0801131,1.0801131 0 0 0 0.21094,-0.0195 l 1.08398,-0.21679 h 1.09961 a 1.0801131,1.0801131 0 0 0 0.21289,-0.0215 l 1.08203,-0.2168 h 1.10157 a 1.0801131,1.0801131 0 0 0 0.20703,-0.0195 l 1.10156,-0.21875 h 1.08594 a 1.0801131,1.0801131 0 0 0 0.21093,-0.0195 l 1.20508,-0.24023 1.20508,-0.23828 a 1.0801131,1.0801131 0 0 0 0.002,0 l 1.18946,-0.23633 1.20312,-0.23828 a 1.0801131,1.0801131 0 0 0 0.20508,-0.0625 l 1.0918,-0.45313 1.09961,-0.21679 a 1.0801131,1.0801131 0 0 0 0.18945,-0.0547 l 1.20508,-0.47852 a 1.0801131,1.0801131 0 0 0 0.004,0 l 1.09571,-0.4375 1.10742,-0.21875 a 1.0801131,1.0801131 0 0 0 0.1875,-0.0547 l 1.20703,-0.47851 a 1.0801131,1.0801131 0 0 0 0.0176,-0.006 l 1.15039,-0.47656 1.34375,-0.44532 1.14062,-0.2246 a 1.0801131,1.0801131 0 0 0 0.19141,-0.0567 l 1.0957,-0.4375 1.10742,-0.21875 a 1.0801131,1.0801131 0 0 0 0.006,0 l 1.18946,-0.24023 a 1.0801131,1.0801131 0 0 0 0.19531,-0.0586 l 1.10742,-0.45313 1.10547,-0.2168 a 1.0801131,1.0801131 0 0 0 0.004,-0.002 l 1.18554,-0.23828 1.20508,-0.23828 1.20703,-0.23633 a 1.0801131,1.0801131 0 0 0 0.004,-0.002 l 1.1875,-0.23633 1.20508,-0.24023 1.20312,-0.23829 a 1.0801131,1.0801131 0 0 0 0.0176,-0.002 l 1.07813,-0.23047 h 1.09375 a 1.0801131,1.0801131 0 0 0 0.21093,-0.0215 l 1.1875,-0.23828 1.20508,-0.23633 a 1.0801131,1.0801131 0 0 0 0.002,0 l 1.10157,-0.2207 h 1.08398 a 1.0801131,1.0801131 0 0 0 0.20899,-0.0195 l 1.0996,-0.21679 h 1.10352 a 1.0801131,1.0801131 0 0 0 0.21094,-0.0215 l 1.08594,-0.21679 h 1.33593 a 1.0801131,1.0801131 0 0 0 0.20703,-0.0195 l 1.20704,-0.23828 a 1.0801131,1.0801131 0 0 0 0.006,0 l 1.08204,-0.21875 h 1.09961 a 1.0801131,1.0801131 0 0 0 0.21093,-0.0215 l 1.08594,-0.2168 h 1.09766 a 1.0801131,1.0801131 0 0 0 0.22265,-0.0234 l 1.09766,-0.23046 h 1.07617 a 1.0801131,1.0801131 0 0 0 0.20703,-0.0215 l 1.10547,-0.2168 h 1.10156 a 1.0801131,1.0801131 0 0 0 0.21289,-0.0215 l 1.08204,-0.21875 h 1.0996 a 1.0801131,1.0801131 0 0 0 0.20899,-0.0195 l 1.10156,-0.2168 h 1.08399 a 1.0801131,1.0801131 0 0 0 0.20898,-0.0215 l 1.10352,-0.2168 h 1.08398 1.20703 a 1.0801131,1.0801131 0 0 0 0.20899,-0.0215 l 1.10156,-0.2168 h 1.08398 a 1.0801131,1.0801131 0 0 0 0.20899,-0.0195 l 1.10351,-0.2168 h 1.09961 a 1.0801131,1.0801131 0 0 0 0.21289,-0.0215 l 1.08594,-0.21875 h 1.33398 1.20704 a 1.0801131,1.0801131 0 0 0 0.21093,-0.0215 l 1.08594,-0.21679 h 1.09961 a 1.0801131,1.0801131 0 0 0 0.22461,-0.0234 l 1.07812,-0.23047 h 1.0918 1.20703 a 1.0801131,1.0801131 0 0 0 0.21094,-0.0215 l 1.08594,-0.2168 h 1.09765 1.20704 a 1.0801131,1.0801131 0 0 0 0.21484,-0.0215 l 1.08203,-0.21875 H 516 h 1.1875 a 1.0801131,1.0801131 0 0 0 0.20898,-0.0195 L 518.5,103.32227 h 1.10156 1.1875 1.20703 a 1.0801131,1.0801131 0 0 0 0.20899,-0.0215 l 1.10351,-0.2168 h 1.08399 1.20703 a 1.0801131,1.0801131 0 0 0 0.20898,-0.0195 l 1.10157,-0.21875 h 1.32226 1.20703 1.20508 a 1.0801131,1.0801131 0 0 0 0.21094,-0.0195 l 1.08594,-0.21679 h 1.09765 1.19141 a 1.0801131,1.0801131 0 0 0 0.21094,-0.0215 l 1.09961,-0.21875 h 1.10156 1.18945 1.20508 1.20703 a 1.0801131,1.0801131 0 0 0 0.21094,-0.0215 l 1.08398,-0.2168 h 1.09961 1.19141 1.20508 a 1.0801131,1.0801131 0 0 0 0.22265,-0.0234 l 1.09571,-0.23047 h 1.07617 1.20703 1.20703 a 1.0801131,1.0801131 0 0 0 0.21289,-0.0215 l 1.08203,-0.2168 h 1.09961 1.20508 1.42773 1.20899 a 1.0801131,1.0801131 0 0 0 0.21094,-0.0195 l 1.0996,-0.2207 h 1.08399 1.20508 1.18945 1.20703 a 1.0801131,1.0801131 0 0 0 0.20899,-0.0195 l 1.10156,-0.2168 h 1.08594 1.20507 1.20704 1.18945 a 1.0801131,1.0801131 0 0 0 0.20898,-0.0215 l 1.10157,-0.2168 h 1.08398 1.20508 1.20703 1.18945 1.20703 a 1.0801131,1.0801131 0 0 0 0.20703,-0.0195 l 1.10547,-0.21875 h 1.08203 1.20704 1.20703 1.42578 1.20703 a 1.0801131,1.0801131 0 0 0 0.21094,-0.0195 l 1.10156,-0.22071 h 1.08398 1.20704 1.1875 1.20703 1.20507 a 1.0801131,1.0801131 0 0 0 0.21094,-0.0195 l 1.08594,-0.2168 h 1.09961 1.20508 1.1914 1.20508 1.18945 1.20508 1.20703 a 1.0801131,1.0801131 0 0 0 0.21094,-0.0215 l 1.08594,-0.216797 h 1.09766 1.20703 1.18945 1.20703 1.18945 1.44336 1.20703 1.20704 1.1875 a 1.0801131,1.0801131 0 0 0 0.22265,-0.02344 l 1.09766,-0.230469 h 1.07422 1.20898 1.20313 1.1914 1.20703 1.20508 1.18946 1.20507 1.19141 1.20703 1.20508 a 1.0801131,1.0801131 0 0 0 0.21094,-0.02148 l 1.18945,-0.236328 0.99414,-0.199218 0.99609,0.199218 a 1.0801131,1.0801131 0 0 0 0.21094,0.01953 h 1.1875 1.20703 1.19141 1.44141 1.20703 1.1914 1.20508 1.20703 1.1875 1.20703 1.20703 1.1875 1.20899 1.20312 1.19141 1.20703 1.1875 1.20703 1.20508 1.19141 1.20312 1.20899 1.18945 1.20508 1.18945 1.44336 1.20703 1.18945 a 1.0801131,1.0801131 0 0 0 0.21094,-0.01953 l 1.10156,-0.220703 h 1.09961 1.18946 1.20703 1.20703 1.1875 1.20703 1.20508 a 1.080005,1.080005 0 0 0 1.08008,-1.080078 1.080005,1.080005 0 0 0 -1.08008,-1.080078 h -1.20508 -1.20703 -1.1875 -1.20703 -1.20703 -1.18946 z"
       id="path11805" /><path
       style="color:#000000;fill:#000000;stroke-linecap:round;stroke-linejoin:round;stroke-miterlimit:10;-inkscape-stroke:none"
       d="m 372.37695,153.55273 a 1.080005,1.080005 0 0 0 -1.39453,0.62696 l -1.17773,3.10742 -1.43555,3.32812 a 1.0801131,1.0801131 0 0 0 -0.0332,0.084 l -1.20703,3.60742 a 1.0801131,1.0801131 0 0 0 -0.008,0.0234 l -1.1875,3.84375 a 1.0801131,1.0801131 0 0 0 -0.004,0.0117 l -1.19922,4.03515 -1.19727,3.33985 a 1.0801131,1.0801131 0 0 0 -0.0273,0.0918 l -1.1875,4.5586 -1.20703,4.55468 a 1.0801131,1.0801131 0 0 0 -0.01,0.0371 l -1.20312,5.28516 -1.18946,5.03125 a 1.0801131,1.0801131 0 0 0 -0.004,0.0176 l -1.20703,5.50976 a 1.0801131,1.0801131 0 0 0 -0.002,0.0137 l -1.18945,5.76757 a 1.0801131,1.0801131 0 0 0 0,0.006 l -1.20703,6.00196 a 1.0801131,1.0801131 0 0 0 -0.002,0.008 l -1.20508,6.24219 a 1.0801131,1.0801131 0 0 0 0,0.002 l -1.19141,6.24414 a 1.0801131,1.0801131 0 0 0 0,0.004 l -1.20703,6.47656 -1.20312,6.2207 a 1.0801131,1.0801131 0 0 0 -0.004,0.0176 l -1.18945,6.7207 a 1.0801131,1.0801131 0 0 0 -0.002,0.01 l -1.20312,7.20117 -1.18946,6.47461 a 1.0801131,1.0801131 0 0 0 -0.002,0.01 l -1.20508,6.95507 -1.20703,6.95899 a 1.0801131,1.0801131 0 0 0 -0.002,0.008 l -1.1875,7.17774 -1.4375,7.19335 a 1.0801131,1.0801131 0 0 0 -0.008,0.0449 l -1.20703,7.66601 -1.1875,7.20899 a 1.0801131,1.0801131 0 0 0 0,0.002 l -1.20704,7.42773 -1.20507,6.94922 a 1.0801131,1.0801131 0 0 0 -0.004,0.0137 l -1.1875,7.44922 -1.20508,7.18164 -1.20508,6.71485 a 1.0801131,1.0801131 0 0 0 -0.002,0.008 l -1.1875,6.94727 -1.20312,6.46875 -1.1875,5.99023 -1.20313,5.75781 -1.20508,5.50586 a 1.0801131,1.0801131 0 0 0 0,0.004 l -1.1875,5.51367 -1.20508,5.02344 a 1.0801131,1.0801131 0 0 0 -0.002,0.0117 l -1.20117,5.25781 -1.17774,4.52148 -1.19335,3.55469 a 1.0801131,1.0801131 0 0 0 -0.0234,0.084 l -1.18164,4.76367 -1.19727,3.8125 a 1.0801131,1.0801131 0 0 0 -0.006,0.0176 l -1.20312,4.07617 -1.17578,3.79687 -1.42579,3.54688 a 1.0801131,1.0801131 0 0 0 -0.0137,0.0371 l -1.17773,3.28711 -1.15039,2.08398 a 1.0801131,1.0801131 0 0 0 -0.0195,0.0371 l -1.125,2.24414 -1.04297,1.04102 -1.14063,0.91601 a 1.0801131,1.0801131 0 0 0 -0.0898,0.0801 l -1.04883,1.04883 -0.98437,0.39258 a 1.0801131,1.0801131 0 0 0 -0.42579,0.30859 l -1.13671,1.34961 -1.125,0.90039 a 1.0801131,1.0801131 0 0 0 -0.0899,0.0801 l -1.1875,1.19336 -0.97265,0.97265 -0.88477,0.17383 a 1.0801131,1.0801131 0 0 0 -0.67383,0.4375 l -1.00195,1.42188 -0.90625,0.35547 a 1.0801131,1.0801131 0 0 0 -0.28125,0.16406 l -1.20508,0.96875 -0.98242,0.78711 -0.94727,0.18554 a 1.0801131,1.0801131 0 0 0 -0.47461,0.22461 l -0.97851,0.79883 -0.94141,0.1836 a 1.0801131,1.0801131 0 0 0 -0.46289,0.21289 l -0.91015,0.7207 h -0.81446 a 1.0801131,1.0801131 0 0 0 -0.33789,0.0547 l -1.44531,0.47656 a 1.0801131,1.0801131 0 0 0 -0.33789,0.18555 l -0.9082,0.73046 h -0.81055 a 1.0801131,1.0801131 0 0 0 -0.54883,0.1504 l -1.20508,0.71289 a 1.0801131,1.0801131 0 0 0 -0.12695,0.0879 l -1.00195,0.80468 -0.92969,0.18555 a 1.0801131,1.0801131 0 0 0 -0.66211,0.42578 l -0.88477,1.22071 h -0.63867 a 1.0801131,1.0801131 0 0 0 -0.94336,0.55468 l -1.06445,1.91016 -0.96289,0.58398 a 1.0801131,1.0801131 0 0 0 -0.11719,0.0801 l -1.1875,0.95313 a 1.0801131,1.0801131 0 0 0 -0.28906,0.35742 l -1.06641,2.12109 -0.94336,0.57031 a 1.0801131,1.0801131 0 0 0 -0.38672,0.40235 l -1,1.81836 -0.84375,0.33398 a 1.0801131,1.0801131 0 0 0 -0.56836,0.51953 l -1.20507,2.39649 a 1.0801131,1.0801131 0 0 0 -0.0195,0.041 l -1.14649,2.54102 -1.14453,1.59375 a 1.0801131,1.0801131 0 0 0 -0.14844,0.29297 l -1.12304,3.4082 -1.07032,1.26758 a 1.0801131,1.0801131 0 0 0 -0.17383,0.28125 l -1.18945,2.85937 -1.07226,2.15821 -1.26758,1.04492 a 1.0801131,1.0801131 0 0 0 -0.33789,0.49023 l -1.14063,3.41797 -1.0625,1.29102 a 1.0801131,1.0801131 0 0 0 -0.17383,0.29687 l -1.18554,3.0625 -1.08008,2.14453 -1.01172,0.82422 a 1.0801131,1.0801131 0 0 0 -0.3418,0.49414 l -1.04687,3.11719 -0.72461,0.28906 a 1.0801131,1.0801131 0 0 0 -0.60742,0.61524 l -1.16797,3.03125 -1.05469,1.67969 -1.04687,0.83789 a 1.0801131,1.0801131 0 0 0 -0.33399,0.45507 l -0.99023,2.57422 -0.6211,0.12305 a 1.0801131,1.0801131 0 0 0 -0.80078,0.67383 l -1.01953,2.66797 -0.76367,0.30273 a 1.0801131,1.0801131 0 0 0 -0.37305,0.24805 l -1.1875,1.20703 a 1.0801131,1.0801131 0 0 0 -0.22656,0.33789 l -0.72852,1.73242 -0.14062,-0.084 a 1.0801131,1.0801131 0 0 0 -1.5332,0.48633 l -1.08204,2.40039 -0.94531,0.75781 -1.14258,0.67773 a 1.0801131,1.0801131 0 0 0 -0.41601,0.44922 l -0.77344,1.5586 -0.55469,-0.1836 a 1.0801131,1.0801131 0 0 0 -1.28125,0.5 l -1.01757,1.82617 -0.74024,0.29493 -1.10937,0.21875 a 1.0801131,1.0801131 0 0 0 -0.78711,0.64257 l -0.72266,1.72461 -0.12109,-0.0723 a 1.0801131,1.0801131 0 0 0 -1.53711,0.47851 l -0.97657,2.13282 -0.64843,0.1289 a 1.0801131,1.0801131 0 0 0 -0.66797,0.43164 l -1.20313,1.6836 -0.62695,0.875 -0.33789,-0.20313 a 1.0801131,1.0801131 0 0 0 -1.5625,0.53711 l -1.0332,2.67188 -0.76758,0.30078 a 1.0801131,1.0801131 0 0 0 -0.48633,0.38281 l -1.09766,1.55664 -0.6914,0.54687 -0.70117,-0.14257 a 1.0801131,1.0801131 0 0 0 -1.23047,0.69531 l -0.50977,1.42773 -0.006,-0.008 a 1.0801131,1.0801131 0 0 0 -1.90429,0.29102 l -1.0293,3.125 -0.24414,0.0976 -0.75391,-0.44726 a 1.0801131,1.0801131 0 0 0 -1.54297,0.50586 l -0.61718,1.45117 -0.10743,-0.17188 a 1.0801131,1.0801131 0 0 0 -1.89843,0.12696 l -0.84766,1.86132 -0.25,-0.0527 -1.12305,-0.44531 a 1.0801131,1.0801131 0 0 0 -1.40625,0.61719 l -0.66992,1.74023 -0.0352,-0.0293 a 1.0801131,1.0801131 0 0 0 -1.51171,0.14649 l -0.79297,0.95312 -0.56055,-0.11328 a 1.0801131,1.0801131 0 0 0 -0.60742,0.0547 l -1.20703,0.47461 a 1.0801131,1.0801131 0 0 0 -0.002,0.002 l -0.70898,0.28125 -0.73242,-0.44141 a 1.0801131,1.0801131 0 0 0 -1.38672,0.23438 l -0.52539,0.63086 -0.38086,-0.30469 a 1.0801131,1.0801131 0 0 0 -1.44531,0.084 l -0.35352,0.35937 -0.44141,-0.53125 a 1.0801131,1.0801131 0 0 0 -1.38671,-0.23437 L 190.9707,535 a 1.0801131,1.0801131 0 0 0 -0.20898,0.16406 l -0.0684,0.0684 -0.58399,-1.39258 a 1.0801131,1.0801131 0 0 0 -2.01367,0.0566 l -0.34179,0.9668 -0.0703,-0.13867 a 1.0801131,1.0801131 0 0 0 -1.36132,-0.51758 l -1.20704,0.47656 a 1.0801131,1.0801131 0 0 0 -0.0957,0.043 l -0.33008,0.16992 -0.79297,-2.21093 a 1.0801131,1.0801131 0 0 0 -2.04882,0.041 l -0.20118,0.64063 -0.13671,-0.41602 a 1.0801131,1.0801131 0 0 0 -1.94141,-0.23633 l -0.82617,1.31641 -0.83594,-2.52539 a 1.0801131,1.0801131 0 0 0 -2.06445,0.0469 l -0.0801,0.28321 -0.22461,-0.95508 a 1.0801131,1.0801131 0 0 0 -2.01563,-0.23828 l -0.60546,1.20312 -1.06446,-2.15039 a 1.0801131,1.0801131 0 0 0 -1.60937,-0.37304 l -0.74024,-2.35938 a 1.0801131,1.0801131 0 0 0 -2.08203,0.0762 l -0.31836,1.34961 a 1.0801131,1.0801131 0 0 0 -0.1914,-0.34375 l -1.18946,-1.44531 a 1.0801131,1.0801131 0 0 0 -1.66015,-0.008 L 163.49023,525 a 1.0801131,1.0801131 0 0 0 -1.83593,-0.14844 l -0.51563,-2.57617 a 1.0801131,1.0801131 0 0 0 -2.07617,-0.15234 l -0.57617,1.60547 -0.0352,-0.041 -1.15234,-5.73242 a 1.0801131,1.0801131 0 0 0 -2.03711,-0.0879 l -0.34961,-2.26172 a 1.0801131,1.0801131 0 0 0 -2.0918,-0.17774 l -0.33594,1.00586 -0.0723,-0.1582 a 1.0801131,1.0801131 0 0 0 -0.0664,-0.12305 l -1.1875,-1.90625 a 1.0801131,1.0801131 0 0 0 -1.4375,-0.2207 l -0.80664,-5.37305 a 1.0801131,1.0801131 0 0 0 -2.11523,-0.10351 l -0.10938,0.43554 -0.20312,-0.88671 a 1.0801131,1.0801131 0 0 0 -0.28125,-0.51758 l -1.19141,-1.20899 a 1.0801131,1.0801131 0 0 0 -1.38476,0.008 l -0.73243,-4.23047 a 1.0801131,1.0801131 0 0 0 -2.07031,-0.10938 L 140.5,500.21875 a 1.0801131,1.0801131 0 0 0 -0.66211,-0.81055 l -1.19141,-0.47656 a 1.0801131,1.0801131 0 0 0 -0.002,0 l -0.67773,-0.26953 -1.08008,-4.73438 a 1.0801131,1.0801131 0 0 0 -1.93945,-0.16211 l -0.44336,-2.65234 a 1.0801131,1.0801131 0 0 0 -2.07227,-0.21094 l -0.11914,0.30469 -0.46484,-1.4082 -1.19336,-5.45508 a 1.0801131,1.0801131 0 0 0 -1.82227,-0.2793 l -0.56055,-3.73242 a 1.0801131,1.0801131 0 0 0 -2.10742,-0.13086 l -0.0547,0.19531 -0.25,-1.11132 a 1.0801131,1.0801131 0 0 0 -0.65625,-0.76758 l -1.125,-0.44336 -0.68555,-0.40625 -1.11524,-8.12305 a 1.0801131,1.0801131 0 0 0 -1.93554,-0.30078 l -0.48828,-2.625 A 1.0801131,1.0801131 0 0 0 119.71094,466.25 l -1.1875,-1.92383 a 1.0801131,1.0801131 0 0 0 -0.24219,-0.27344 l -0.98242,-0.78906 -1.09961,-2.8418 a 1.0801131,1.0801131 0 0 0 -1.50586,-0.35937 L 113.86719,453 a 1.0801131,1.0801131 0 0 0 -1.75586,-0.71094 l -0.50977,0.41602 -0.18164,-0.14649 -1.15234,-9.63281 a 1.0801131,1.0801131 0 0 0 -1.62891,-0.79687 l -0.12109,0.0723 -0.72266,-1.72461 a 1.0801131,1.0801131 0 0 0 -1.20703,-0.64258 l -0.2168,0.0449 -1.15625,-4.28516 -1.19921,-5.7207 a 1.0801131,1.0801131 0 0 0 -2.0586,-0.0859 l -0.32812,-1.79102 -1.20313,-8.14453 a 1.0801131,1.0801131 0 0 0 -0.1875,-0.46484 l -1.189452,-1.68555 a 1.0801131,1.0801131 0 0 0 -0.330078,-0.30469 l -0.859375,-0.51171 -1.070313,-3.19532 -1.177734,-4.28125 -1.205078,-4.78515 a 1.0801131,1.0801131 0 0 0 -0.06445,-0.18555 l -1.207031,-2.63672 a 1.080005,1.080005 0 0 0 -1.431641,-0.53125 1.080005,1.080005 0 0 0 -0.533203,1.43164 l 1.166015,2.54492 1.183594,4.70118 a 1.0801131,1.0801131 0 0 0 0.0059,0.0234 l 1.1875,4.32032 a 1.0801131,1.0801131 0 0 0 0.01758,0.0566 l 1.207031,3.60351 a 1.0801131,1.0801131 0 0 0 0.472656,0.58594 l 1.007813,0.59766 0.908203,1.2871 1.169922,7.90821 a 1.0801131,1.0801131 0 0 0 0.0059,0.0371 l 1.187497,6.47851 a 1.0801131,1.0801131 0 0 0 2.10743,0.082 l 0.041,-0.15234 0.26953,1.29102 a 1.0801131,1.0801131 0 0 0 0.0137,0.0605 l 1.42774,5.28907 a 1.0801131,1.0801131 0 0 0 1.2539,0.77734 l 0.3418,-0.0684 0.86328,2.0625 a 1.0801131,1.0801131 0 0 0 1.29883,0.53516 l 1.01953,8.53125 a 1.0801131,1.0801131 0 0 0 0.39649,0.71289 l 1.20703,0.96875 a 1.0801131,1.0801131 0 0 0 0.99023,-0.002 l 1.00977,8.64063 a 1.0801131,1.0801131 0 0 0 2.05664,0.32031 l 0.13086,-0.28906 0.27344,0.70898 a 1.0801131,1.0801131 0 0 0 0.33007,0.45313 l 1.0625,0.85351 0.98438,1.5918 1.16992,6.28125 a 1.0801131,1.0801131 0 0 0 1.75195,0.36914 l 0.63477,4.61719 a 1.0801131,1.0801131 0 0 0 0.51953,0.78125 l 1.20703,0.71484 a 1.0801131,1.0801131 0 0 0 0.1543,0.0762 l 0.67383,0.26563 1.06445,4.73047 a 1.0801131,1.0801131 0 0 0 1.88477,0.20898 l 0.49609,3.30469 a 1.0801131,1.0801131 0 0 0 2.08008,0.17773 l 0.34375,1.57618 a 1.0801131,1.0801131 0 0 0 0.0312,0.10742 l 1.42773,4.32031 a 1.0801131,1.0801131 0 0 0 1.75586,0.23633 l 0.61523,3.68555 a 1.0801131,1.0801131 0 0 0 2.10743,0.10937 l 0.0488,-0.17969 0.25196,1.10157 a 1.0801131,1.0801131 0 0 0 0.65625,0.76367 l 1.20508,0.47851 0.63281,0.25196 1.09765,6.12695 a 1.0801131,1.0801131 0 0 0 2.04297,0.12305 l 0.35157,2.03125 a 1.0801131,1.0801131 0 0 0 2.00781,0.34179 l 0.48437,-0.86718 1.1211,4.90429 a 1.0801131,1.0801131 0 0 0 1.94531,0.14063 l 0.43555,2.89258 a 1.0801131,1.0801131 0 0 0 1.98047,0.41601 l 0.2871,-0.45312 0.24219,0.38671 1.17774,2.5879 a 1.0801131,1.0801131 0 0 0 1.73828,0.0996 l 0.57226,3.70118 a 1.0801131,1.0801131 0 0 0 2.11914,0.0742 l 0.0879,-0.38282 0.21485,1.07227 a 1.0801131,1.0801131 0 0 0 0.23633,0.48437 l 1.42578,1.6836 a 1.0801131,1.0801131 0 0 0 1.70117,-0.2168 l 0.47461,2.36719 a 1.0801131,1.0801131 0 0 0 2.06836,0.17187 l 0.15039,-0.39648 0.2207,0.61523 a 1.0801131,1.0801131 0 0 0 1.84766,0.32617 l 0.36914,-0.44335 0.23437,0.28515 1.14258,3.41406 a 1.0801131,1.0801131 0 0 0 2.07422,-0.0937 l 0.28711,-1.21875 0.0273,0.0859 a 1.0801131,1.0801131 0 0 0 1.69922,0.52539 l 0.16211,-0.1289 0.59961,1.20703 a 1.0801131,1.0801131 0 0 0 0.29688,0.36718 l 1.20507,0.95313 a 1.0801131,1.0801131 0 0 0 1.47657,-0.23828 l 0.53711,2.27539 a 1.0801131,1.0801131 0 0 0 2.09179,0.043 l 0.25391,-0.90625 0.0781,0.23828 a 1.0801131,1.0801131 0 0 0 1.23438,0.7207 l 1.20508,-0.23633 a 1.0801131,1.0801131 0 0 0 0.6875,-0.47265 l 0.47265,1.43554 a 1.0801131,1.0801131 0 0 0 2.05664,-0.0156 l 0.24415,-0.77734 0.12304,0.34179 a 1.0801131,1.0801131 0 0 0 1.50781,0.59571 l 1.37891,-0.70508 0.24219,-0.0957 0.76172,1.51563 a 1.0801131,1.0801131 0 0 0 1.98242,-0.125 l 0.25586,-0.7207 0.12695,0.30273 a 1.0801131,1.0801131 0 0 0 1.75977,0.3457 l 1.11133,-1.11328 0.28125,-0.16992 0.61328,0.73633 a 1.0801131,1.0801131 0 0 0 1.59961,0.0664 l 0.50586,-0.51368 0.44531,0.35743 a 1.0801131,1.0801131 0 0 0 1.50586,-0.1504 l 0.61133,-0.73437 0.39843,0.24023 a 1.0801131,1.0801131 0 0 0 0.95313,0.0781 l 1.20508,-0.47852 0.91015,-0.35742 0.87891,0.17578 a 1.0801131,1.0801131 0 0 0 1.04101,-0.36914 l 0.52149,-0.625 0.36328,0.29492 a 1.0801131,1.0801131 0 0 0 1.6875,-0.45117 l 0.8125,-2.11133 0.19531,0.0762 a 1.0801131,1.0801131 0 0 0 0.16992,0.0527 l 1.18946,0.25391 a 1.0801131,1.0801131 0 0 0 1.20898,-0.60938 l 0.37695,-0.82812 0.14063,0.22461 a 1.0801131,1.0801131 0 0 0 1.9082,-0.15235 l 0.94141,-2.21484 0.14648,0.0859 a 1.0801131,1.0801131 0 0 0 0.94532,0.0762 l 1.20703,-0.47656 a 1.0801131,1.0801131 0 0 0 0.63086,-0.66602 l 0.53125,-1.61328 a 1.0801131,1.0801131 0 0 0 1.85547,-0.2832 l 0.89062,-2.49024 0.27344,0.0547 a 1.0801131,1.0801131 0 0 0 0.88281,-0.21094 l 1.20703,-0.95312 a 1.0801131,1.0801131 0 0 0 0.21289,-0.22461 l 1.00196,-1.41993 0.90625,-0.35742 a 1.0801131,1.0801131 0 0 0 0.61328,-0.61523 l 0.74023,-1.91797 0.0918,0.0547 a 1.0801131,1.0801131 0 0 0 1.43164,-0.29688 l 1.20898,-1.68164 a 1.0801131,1.0801131 0 0 0 0,-0.002 l 0.95703,-1.33789 0.77149,-0.1543 a 1.0801131,1.0801131 0 0 0 0.77148,-0.60937 l 0.70313,-1.53907 0.15429,0.0937 a 1.0801131,1.0801131 0 0 0 1.55079,-0.50976 l 0.98242,-2.34375 0.64258,-0.12696 a 1.0801131,1.0801131 0 0 0 0.1914,-0.0566 l 1.18946,-0.47461 a 1.0801131,1.0801131 0 0 0 0.54296,-0.47656 l 0.77149,-1.38281 0.59765,0.19727 a 1.0801131,1.0801131 0 0 0 1.30469,-0.54688 l 1.04688,-2.10937 0.93164,-0.55274 a 1.0801131,1.0801131 0 0 0 0.12695,-0.0879 l 1.20703,-0.96875 a 1.0801131,1.0801131 0 0 0 0.30664,-0.39844 l 0.69336,-1.53515 0.16992,0.0996 a 1.0801131,1.0801131 0 0 0 1.54297,-0.51172 l 1.12696,-2.68164 0.88281,-0.89649 0.99609,-0.39453 a 1.0801131,1.0801131 0 0 0 0.61133,-0.61914 l 0.97461,-2.55469 0.61914,-0.12109 a 1.0801131,1.0801131 0 0 0 0.80078,-0.67188 l 1.09961,-2.85742 0.96094,-0.76953 a 1.0801131,1.0801131 0 0 0 0.24023,-0.26953 l 1.20703,-1.92188 a 1.0801131,1.0801131 0 0 0 0.0937,-0.18554 l 1.03516,-2.68946 0.75195,-0.30078 a 1.0801131,1.0801131 0 0 0 0.62305,-0.66015 l 1.10547,-3.29297 0.94922,-0.77344 a 1.0801131,1.0801131 0 0 0 0.28125,-0.35156 l 1.20898,-2.39649 a 1.0801131,1.0801131 0 0 0 0.041,-0.0976 l 1.14258,-2.94922 1.08007,-1.31055 a 1.0801131,1.0801131 0 0 0 0.18946,-0.34375 l 1.10742,-3.31445 1.20508,-0.99219 a 1.0801131,1.0801131 0 0 0 0.28125,-0.35351 l 1.18945,-2.39844 a 1.0801131,1.0801131 0 0 0 0.0293,-0.0645 l 1.14062,-2.73829 1.09961,-1.30078 a 1.0801131,1.0801131 0 0 0 0.20117,-0.35937 l 1.13672,-3.44922 1.11133,-1.54688 a 1.0801131,1.0801131 0 0 0 0.10547,-0.18554 l 1.18164,-2.61719 1.00977,-2.00977 0.82226,-0.32421 a 1.0801131,1.0801131 0 0 0 0.55078,-0.48438 l 1.04883,-1.90625 0.96094,-0.58203 a 1.0801131,1.0801131 0 0 0 0.40429,-0.4375 l 1.10157,-2.1875 0.94922,-0.76172 1.14648,-0.69531 a 1.0801131,1.0801131 0 0 0 0.38281,-0.39844 l 0.89649,-1.60547 h 0.55664 a 1.0801131,1.0801131 0 0 0 0.875,-0.44726 l 0.95898,-1.32422 0.77344,-0.15625 a 1.0801131,1.0801131 0 0 0 0.46289,-0.2168 l 1.14844,-0.91992 0.88281,-0.52344 h 0.89648 a 1.0801131,1.0801131 0 0 0 0.67579,-0.23828 l 1.05273,-0.84766 1.09375,-0.36132 h 1.01758 a 1.0801131,1.0801131 0 0 0 0.66992,-0.23243 l 1,-0.79101 0.94922,-0.1875 a 1.0801131,1.0801131 0 0 0 0.47461,-0.22266 l 0.97851,-0.79883 0.94336,-0.18554 a 1.0801131,1.0801131 0 0 0 0.46485,-0.2168 l 1.1914,-0.95313 a 1.0801131,1.0801131 0 0 0 0.002,-0.002 l 1.07617,-0.86523 1.05469,-0.41602 a 1.0801131,1.0801131 0 0 0 0.48632,-0.38281 l 0.93946,-1.33008 0.78125,-0.1543 a 1.0801131,1.0801131 0 0 0 0.55664,-0.29687 l 1.20703,-1.20703 a 1.0801131,1.0801131 0 0 0 0.002,0 l 1.14453,-1.15039 1.16016,-0.92969 a 1.0801131,1.0801131 0 0 0 0.15039,-0.14648 l 1.03125,-1.22461 0.9375,-0.375 a 1.0801131,1.0801131 0 0 0 0.36328,-0.23829 l 1.16602,-1.16601 1.14258,-0.91602 a 1.0801131,1.0801131 0 0 0 0.0879,-0.0781 l 1.20703,-1.20703 a 1.0801131,1.0801131 0 0 0 0.20117,-0.2793 l 1.19531,-2.38281 1.17969,-2.14063 a 1.0801131,1.0801131 0 0 0 0.0723,-0.1582 l 1.19922,-3.34766 1.43555,-3.56836 a 1.0801131,1.0801131 0 0 0 0.0293,-0.084 l 1.18945,-3.84375 a 1.0801131,1.0801131 0 0 0 0.006,-0.0137 l 1.20117,-4.07422 1.20508,-3.83594 a 1.0801131,1.0801131 0 0 0 0.0176,-0.0625 l 1.17969,-4.7539 1.1914,-3.54883 a 1.0801131,1.0801131 0 0 0 0.0215,-0.0723 l 1.18945,-4.57422 a 1.0801131,1.0801131 0 0 0 0.008,-0.0312 l 1.20313,-5.26758 1.20703,-5.02929 a 1.0801131,1.0801131 0 0 0 0.004,-0.0254 l 1.19141,-5.52539 1.20313,-5.50782 a 1.0801131,1.0801131 0 0 0 0.002,-0.01 l 1.20898,-5.76758 a 1.0801131,1.0801131 0 0 0 0.002,-0.0117 l 1.1875,-6.00195 a 1.0801131,1.0801131 0 0 0 0.002,-0.0117 l 1.20703,-6.48242 a 1.0801131,1.0801131 0 0 0 0.004,-0.0156 l 1.1875,-6.95117 1.20507,-6.7168 a 1.0801131,1.0801131 0 0 0 0.002,-0.0117 l 1.20703,-7.19336 a 1.0801131,1.0801131 0 0 0 0.002,-0.008 l 1.1875,-7.44531 1.20508,-6.94726 a 1.0801131,1.0801131 0 0 0 0.002,-0.0117 l 1.20703,-7.43164 1.1875,-7.21094 a 1.0801131,1.0801131 0 0 0 0.002,-0.008 l 1.20312,-7.64844 1.43946,-7.18945 a 1.0801131,1.0801131 0 0 0 0.006,-0.0371 l 1.18945,-7.19141 1.20703,-6.95313 1.20312,-6.94921 1.18946,-6.47852 a 1.0801131,1.0801131 0 0 0 0.004,-0.0156 l 1.20313,-7.20508 1.1875,-6.70703 1.20312,-6.2168 a 1.0801131,1.0801131 0 0 0 0.002,-0.008 l 1.20703,-6.47657 1.18945,-6.24023 1.20313,-6.23633 1.20703,-5.99609 1.18554,-5.75781 1.20313,-5.4961 1.18945,-5.02734 a 1.0801131,1.0801131 0 0 0 0.002,-0.008 l 1.20117,-5.27149 1.20117,-4.53906 a 1.0801131,1.0801131 0 0 0 0.002,-0.004 l 1.17578,-4.51367 1.19141,-3.32227 a 1.0801131,1.0801131 0 0 0 0.0176,-0.0566 l 1.20508,-4.06054 1.18359,-3.82422 1.1875,-3.55274 1.42773,-3.30859 a 1.0801131,1.0801131 0 0 0 0.0176,-0.043 l 1.1875,-3.13086 a 1.080005,1.080005 0 0 0 -0.625,-1.39258 z"
       id="path42" /><g
       id="g44"
       transform="scale(0.271838,0.272147)"><g
         id="g46" /><g
         id="g48" /></g><g
       id="g50"
       transform="matrix(0.2399987,0,0,-0.24000372,0,571.69128)"><g
         id="g52"
         clip-path="url(#clipPath56)"><g
           id="g58"
           transform="matrix(1.132664,0,0,-1.133929,0,2382.0107)"><g
             id="g60"
             transform="matrix(0.882874,0,0,-0.88189,0,2100.6709)"><path
               style="color:#000000;fill:#000000;stroke-linecap:square;stroke-linejoin:round;stroke-miterlimit:10;-inkscape-stroke:none"
               d="m 377.4707,1970.4902 v 13 h 6.5 2422.0586 6.5 v -13 h -6.5 -2422.0586 z"
               id="path62" /><path
               style="color:#000000;fill:#000000;stroke-linejoin:round;stroke-miterlimit:10;-inkscape-stroke:none"
               d="m 528.4707,1959.9805 v 17.0097 h 13 v -17.0097 z"
               id="path64" /><path
               style="color:#000000;fill:#000000;stroke-linejoin:round;stroke-miterlimit:10;-inkscape-stroke:none"
               d="m 1033.5,1959.9805 v 17.0097 h 13 v -17.0097 z"
               id="path66" /><path
               style="color:#000000;fill:#000000;stroke-linejoin:round;stroke-miterlimit:10;-inkscape-stroke:none"
               d="m 1538.5293,1959.9805 v 17.0097 h 13 v -17.0097 z"
               id="path68" /><path
               style="color:#000000;fill:#000000;stroke-linejoin:round;stroke-miterlimit:10;-inkscape-stroke:none"
               d="m 2042.4902,1959.9805 v 17.0097 h 13 v -17.0097 z"
               id="path70" /><path
               style="color:#000000;fill:#000000;stroke-linejoin:round;stroke-miterlimit:10;-inkscape-stroke:none"
               d="m 2547.5195,1959.9805 v 17.0097 h 13 v -17.0097 z"
               id="path72" /><path
               style="color:#000000;fill:#000000;stroke-linejoin:round;stroke-miterlimit:10;-inkscape-stroke:none"
               d="m 781.48047,1942.9707 v 34.0195 h 13 v -34.0195 z"
               id="path74" /><path
               style="color:#000000;fill:#000000;stroke-linejoin:round;stroke-miterlimit:10;-inkscape-stroke:none"
               d="m 1285.5195,1942.9707 v 34.0195 h 13 v -34.0195 z"
               id="path76" /><path
               style="color:#000000;fill:#000000;stroke-linejoin:round;stroke-miterlimit:10;-inkscape-stroke:none"
               d="m 1790.4707,1942.9707 v 34.0195 h 13 v -34.0195 z"
               id="path78" /><path
               style="color:#000000;fill:#000000;stroke-linejoin:round;stroke-miterlimit:10;-inkscape-stroke:none"
               d="m 2294.5098,1942.9707 v 34.0195 h 13 v -34.0195 z"
               id="path80" /><path
               style="color:#000000;fill:#000000;stroke-linejoin:round;stroke-miterlimit:10;-inkscape-stroke:none"
               d="m 2799.5293,1942.9707 v 34.0195 h 13 v -34.0195 z"
               id="path82" /><path
               style="color:#000000;fill:#000000;stroke-linecap:square;stroke-linejoin:round;stroke-miterlimit:10;-inkscape-stroke:none"
               d="m 377.4707,112.4707 v 13 h 6.5 2422.0586 6.5 v -13 h -6.5 -2422.0586 z"
               id="path84" /><path
               style="color:#000000;fill:#000000;stroke-linejoin:round;stroke-miterlimit:10;-inkscape-stroke:none"
               d="m 528.4707,118.9707 v 17.00977 h 13 V 118.9707 Z"
               id="path86" /><path
               style="color:#000000;fill:#000000;stroke-linejoin:round;stroke-miterlimit:10;-inkscape-stroke:none"
               d="m 1033.5,118.9707 v 17.00977 h 13 V 118.9707 Z"
               id="path88" /><path
               style="color:#000000;fill:#000000;stroke-linejoin:round;stroke-miterlimit:10;-inkscape-stroke:none"
               d="m 1538.5293,118.9707 v 17.00977 h 13 V 118.9707 Z"
               id="path90" /><path
               style="color:#000000;fill:#000000;stroke-linejoin:round;stroke-miterlimit:10;-inkscape-stroke:none"
               d="m 2042.4902,118.9707 v 17.00977 h 13 V 118.9707 Z"
               id="path92" /><path
               style="color:#000000;fill:#000000;stroke-linejoin:round;stroke-miterlimit:10;-inkscape-stroke:none"
               d="m 2547.5195,118.9707 v 17.00977 h 13 V 118.9707 Z"
               id="path94" /><path
               style="color:#000000;fill:#000000;stroke-linejoin:round;stroke-miterlimit:10;-inkscape-stroke:none"
               d="m 781.48047,118.9707 v 34.01953 h 13 V 118.9707 Z"
               id="path96" /><path
               style="color:#000000;fill:#000000;stroke-linejoin:round;stroke-miterlimit:10;-inkscape-stroke:none"
               d="m 1285.5195,118.9707 v 34.01953 h 13 V 118.9707 Z"
               id="path98" /><path
               style="color:#000000;fill:#000000;stroke-linejoin:round;stroke-miterlimit:10;-inkscape-stroke:none"
               d="m 1790.4707,118.9707 v 34.01953 h 13 V 118.9707 Z"
               id="path100" /><path
               style="color:#000000;fill:#000000;stroke-linejoin:round;stroke-miterlimit:10;-inkscape-stroke:none"
               d="m 2294.5098,118.9707 v 34.01953 h 13 V 118.9707 Z"
               id="path102" /><path
               style="color:#000000;fill:#000000;stroke-linejoin:round;stroke-miterlimit:10;-inkscape-stroke:none"
               d="m 2799.5293,118.9707 v 34.01953 h 13 V 118.9707 Z"
               id="path104" /><path
               style="color:#000000;fill:#000000;stroke-linecap:square;stroke-linejoin:round;stroke-miterlimit:10;-inkscape-stroke:none"
               d="m 377.4707,112.4707 v 6.5 1858.0195 6.5 h 13 v -6.5 -1858.0195 -6.5 z"
               id="path106" /><path
               style="color:#000000;fill:#000000;stroke-linejoin:round;stroke-miterlimit:10;-inkscape-stroke:none"
               d="m 383.9707,1815.4902 v 13 h 17.0586 v -13 z"
               id="path108" /><path
               style="color:#000000;fill:#000000;stroke-linejoin:round;stroke-miterlimit:10;-inkscape-stroke:none"
               d="m 383.9707,1506.5 v 13 h 17.0586 v -13 z"
               id="path110" /><path
               style="color:#000000;fill:#000000;stroke-linejoin:round;stroke-miterlimit:10;-inkscape-stroke:none"
               d="m 383.9707,1196.5098 v 13 h 17.0586 v -13 z"
               id="path112" /><path
               style="color:#000000;fill:#000000;stroke-linejoin:round;stroke-miterlimit:10;-inkscape-stroke:none"
               d="m 383.9707,886.51953 v 13 h 17.0586 v -13 z"
               id="path114" /><path
               style="color:#000000;fill:#000000;stroke-linejoin:round;stroke-miterlimit:10;-inkscape-stroke:none"
               d="m 383.9707,577.5293 v 13 h 17.0586 v -13 z"
               id="path116" /><path
               style="color:#000000;fill:#000000;stroke-linejoin:round;stroke-miterlimit:10;-inkscape-stroke:none"
               d="m 383.9707,267.4707 v 13 h 17.0586 v -13 z"
               id="path118" /><path
               style="color:#000000;fill:#000000;stroke-linejoin:round;stroke-miterlimit:10;-inkscape-stroke:none"
               d="m 383.9707,1970.4902 v 13 h 34.04883 v -13 z"
               id="path120" /><path
               style="color:#000000;fill:#000000;stroke-linejoin:round;stroke-miterlimit:10;-inkscape-stroke:none"
               d="m 383.9707,1660.5 v 13 h 34.04883 v -13 z"
               id="path122" /><path
               style="color:#000000;fill:#000000;stroke-linejoin:round;stroke-miterlimit:10;-inkscape-stroke:none"
               d="m 383.9707,1351.5 v 13 h 34.04883 v -13 z"
               id="path124" /><path
               style="color:#000000;fill:#000000;stroke-linejoin:round;stroke-miterlimit:10;-inkscape-stroke:none"
               d="m 383.9707,1041.5098 v 13 h 34.04883 v -13 z"
               id="path126" /><path
               style="color:#000000;fill:#000000;stroke-linejoin:round;stroke-miterlimit:10;-inkscape-stroke:none"
               d="m 383.9707,731.5293 v 13 h 34.04883 v -13 z"
               id="path128" /><path
               style="color:#000000;fill:#000000;stroke-linejoin:round;stroke-miterlimit:10;-inkscape-stroke:none"
               d="m 383.9707,422.5293 v 13 h 34.04883 v -13 z"
               id="path130" /><path
               style="color:#000000;fill:#000000;stroke-linejoin:round;stroke-miterlimit:10;-inkscape-stroke:none"
               d="m 383.9707,112.4707 v 13 h 34.04883 v -13 z"
               id="path132" /><path
               style="color:#000000;fill:#000000;stroke-linecap:square;stroke-linejoin:round;stroke-miterlimit:10;-inkscape-stroke:none"
               d="m 2799.5293,112.4707 v 6.5 1858.0195 6.5 h 13 v -6.5 -1858.0195 -6.5 z"
               id="path134" /><path
               style="color:#000000;fill:#000000;stroke-linejoin:round;stroke-miterlimit:10;-inkscape-stroke:none"
               d="m 2788.9707,1815.4902 v 13 h 17.0586 v -13 z"
               id="path136" /><path
               style="color:#000000;fill:#000000;stroke-linejoin:round;stroke-miterlimit:10;-inkscape-stroke:none"
               d="m 2788.9707,1506.5 v 13 h 17.0586 v -13 z"
               id="path138" /><path
               style="color:#000000;fill:#000000;stroke-linejoin:round;stroke-miterlimit:10;-inkscape-stroke:none"
               d="m 2788.9707,1196.5098 v 13 h 17.0586 v -13 z"
               id="path140" /><path
               style="color:#000000;fill:#000000;stroke-linejoin:round;stroke-miterlimit:10;-inkscape-stroke:none"
               d="m 2788.9707,886.51953 v 13 h 17.0586 v -13 z"
               id="path142" /><path
               style="color:#000000;fill:#000000;stroke-linejoin:round;stroke-miterlimit:10;-inkscape-stroke:none"
               d="m 2788.9707,577.5293 v 13 h 17.0586 v -13 z"
               id="path144" /><path
               style="color:#000000;fill:#000000;stroke-linejoin:round;stroke-miterlimit:10;-inkscape-stroke:none"
               d="m 2788.9707,267.4707 v 13 h 17.0586 v -13 z"
               id="path146" /><path
               style="color:#000000;fill:#000000;stroke-linejoin:round;stroke-miterlimit:10;-inkscape-stroke:none"
               d="m 2771.9805,1970.4902 v 13 h 34.0488 v -13 z"
               id="path148" /><path
               style="color:#000000;fill:#000000;stroke-linejoin:round;stroke-miterlimit:10;-inkscape-stroke:none"
               d="m 2771.9805,1660.5 v 13 h 34.0488 v -13 z"
               id="path150" /><path
               style="color:#000000;fill:#000000;stroke-linejoin:round;stroke-miterlimit:10;-inkscape-stroke:none"
               d="m 2771.9805,1351.5 v 13 h 34.0488 v -13 z"
               id="path152" /><path
               style="color:#000000;fill:#000000;stroke-linejoin:round;stroke-miterlimit:10;-inkscape-stroke:none"
               d="m 2771.9805,1041.5098 v 13 h 34.0488 v -13 z"
               id="path154" /><path
               style="color:#000000;fill:#000000;stroke-linejoin:round;stroke-miterlimit:10;-inkscape-stroke:none"
               d="m 2771.9805,731.5293 v 13 h 34.0488 v -13 z"
               id="path156" /><path
               style="color:#000000;fill:#000000;stroke-linejoin:round;stroke-miterlimit:10;-inkscape-stroke:none"
               d="m 2771.9805,422.5293 v 13 h 34.0488 v -13 z"
               id="path158" /><path
               style="color:#000000;fill:#000000;stroke-linejoin:round;stroke-miterlimit:10;-inkscape-stroke:none"
               d="m 2771.9805,112.4707 v 13 h 34.0488 v -13 z"
               id="path160" /></g><g
             id="g162" /><g
             id="g164" /></g></g></g><g
       id="g166"
       transform="matrix(0.2399987,0,0,-0.24000372,0,571.69128)"><g
         id="g168"
         clip-path="url(#clipPath172)"><g
           id="g174"
           transform="matrix(1.132664,0,0,-1.133929,0,2382.0107)"><g
             id="g176"
             transform="matrix(0.882874,0,0,-0.88189,0,2100.6709)"><g
               id="g178"
               transform="matrix(1,0,0,-1,700,2100)"><g
                 aria-label="500"
                 transform="scale(1,-1)"
                 id="text182"
                 style="font-size:107px;font-family:Bahnschrift;-inkscape-font-specification:Bahnschrift"><path
                   d="m 29.048828,0.78369141 q -5.74707,0 -10.240234,-2.24658201 Q 14.367676,-3.7094727 11.546387,-7.9936523 8.7773438,-12.277832 7.8369141,-18.286133 v -0.05225 H 18.495117 v 0.05225 q 0.574707,4.179688 3.34375,6.530762 2.769043,2.298828 7.209961,2.298828 5.120117,0 7.88916,-3.395996 2.821289,-3.448242 2.821289,-9.665527 v -6.374024 q 0,-6.165039 -2.821289,-9.561035 -2.769043,-3.448242 -7.88916,-3.448242 -2.769043,0 -5.329101,1.567383 -2.560059,1.567382 -4.493165,4.388672 H 9.5087891 V -75.96582 H 48.223145 v 10.135742 H 20.166992 v 17.084473 q 1.985352,-1.619629 4.440918,-2.507813 2.455567,-0.888184 5.015625,-0.888184 6.583008,0 11.23291,2.716797 4.702149,2.716797 7.105469,7.941407 2.455566,5.224609 2.455566,12.591308 v 6.374024 q 0,7.366699 -2.507812,12.5913082 -2.507813,5.2246094 -7.314453,7.9936523 -4.806641,2.71679691 -11.546387,2.71679691 z"
                   id="path18159" /><path
                   d="m 88.519043,0.78369141 q -10.658203,0 -16.196289,-5.69482421 -5.48584,-5.6948242 -5.48584,-15.8828122 v -34.534668 q 0,-10.240235 5.538086,-15.882813 5.538086,-5.694824 16.144043,-5.694824 10.658203,0 16.144047,5.642578 5.53808,5.642578 5.53808,15.935059 v 34.534668 q 0,10.240234 -5.53808,15.9350583 Q 99.125,0.78369141 88.519043,0.78369141 Z m 0,-10.13574221 q 5.642578,0 8.307129,-2.9257812 2.716797,-2.978027 2.716797,-8.516113 v -34.534668 q 0,-5.538086 -2.664551,-8.463867 -2.664551,-2.978028 -8.359375,-2.978028 -5.694824,0 -8.359375,2.978028 -2.664551,2.925781 -2.664551,8.463867 v 34.534668 q 0,5.538086 2.664551,8.516113 2.716797,2.9257812 8.359375,2.9257812 z"
                   id="path18161" /><path
                   d="m 147.51904,0.78369141 q -10.6582,0 -16.19629,-5.69482421 -5.48584,-5.6948242 -5.48584,-15.8828122 v -34.534668 q 0,-10.240235 5.53809,-15.882813 5.53809,-5.694824 16.14404,-5.694824 10.65821,0 16.14405,5.642578 5.53808,5.642578 5.53808,15.935059 v 34.534668 q 0,10.240234 -5.53808,15.9350583 -5.53809,5.64257811 -16.14405,5.64257811 z m 0,-10.13574221 q 5.64258,0 8.30713,-2.9257812 2.7168,-2.978027 2.7168,-8.516113 v -34.534668 q 0,-5.538086 -2.66455,-8.463867 -2.66455,-2.978028 -8.35938,-2.978028 -5.69482,0 -8.35937,2.978028 -2.66455,2.925781 -2.66455,8.463867 v 34.534668 q 0,5.538086 2.66455,8.516113 2.71679,2.9257812 8.35937,2.9257812 z"
                   id="path18163" /></g></g></g><g
             id="g184" /><g
             id="g186" /><g
             id="g188" /></g></g></g><g
       id="g190"
       transform="matrix(0.2399987,0,0,-0.24000372,0,571.69128)"><g
         id="g192"
         clip-path="url(#clipPath196)"><g
           id="g198"
           transform="matrix(1.132664,0,0,-1.133929,0,2382.0107)"><g
             id="g200"
             transform="matrix(0.882874,0,0,-0.88189,0,2100.6709)"><g
               id="g202"
               transform="matrix(1,0,0,-1,1206,2100)"><g
                 aria-label="600"
                 transform="scale(1,-1)"
                 id="text206"
                 style="font-size:107px;font-family:Bahnschrift;-inkscape-font-specification:Bahnschrift"><path
                   d="m 27.429199,0.78369141 q -6.6875,0 -11.441894,-2.66455081 Q 11.23291,-4.5976562 8.7250977,-9.7177734 6.2695312,-14.890137 6.2695312,-22.152344 v -0.05225 q 0,-4.231933 0.9926758,-8.881836 0.9926758,-4.649902 2.873535,-9.143066 0.313477,-0.783692 0.679199,-1.515137 0.365723,-0.783691 0.731446,-1.515137 L 28.056152,-75.96582 h 11.494141 l -19.383301,37.878418 0.05225,-1.88086 q 1.306153,-2.455566 3.813965,-3.813965 2.507813,-1.358398 5.851563,-1.358398 5.903808,0 10.135742,2.664551 4.231933,2.664551 6.426269,7.784668 2.194336,5.067871 2.194336,12.225586 v 0.05225 q 0,7.314453 -2.507812,12.5390623 -2.455567,5.2246094 -7.262207,7.9414062 -4.754395,2.71679691 -11.441895,2.71679691 z m 0,-10.24023441 q 5.067871,0 7.784668,-3.134766 2.769043,-3.134765 2.769043,-8.934082 v -0.05225 q 0,-6.374023 -2.873535,-9.822265 -2.873535,-3.500489 -8.202637,-3.500489 -4.754394,0 -7.366699,3.500489 -2.612305,3.500488 -2.612305,9.874511 v 0.05225 q 0,5.799317 2.716797,8.934082 2.769043,3.08252 7.784668,3.08252 z"
                   id="path18166" /><path
                   d="m 84.519043,0.78369141 q -10.658203,0 -16.196289,-5.69482421 -5.48584,-5.6948242 -5.48584,-15.8828122 v -34.534668 q 0,-10.240235 5.538086,-15.882813 5.538086,-5.694824 16.144043,-5.694824 10.658203,0 16.144047,5.642578 5.53808,5.642578 5.53808,15.935059 v 34.534668 q 0,10.240234 -5.53808,15.9350583 Q 95.125,0.78369141 84.519043,0.78369141 Z m 0,-10.13574221 q 5.642578,0 8.307129,-2.9257812 2.716797,-2.978027 2.716797,-8.516113 v -34.534668 q 0,-5.538086 -2.664551,-8.463867 -2.664551,-2.978028 -8.359375,-2.978028 -5.694824,0 -8.359375,2.978028 -2.664551,2.925781 -2.664551,8.463867 v 34.534668 q 0,5.538086 2.664551,8.516113 2.716797,2.9257812 8.359375,2.9257812 z"
                   id="path18168" /><path
                   d="m 143.51904,0.78369141 q -10.6582,0 -16.19629,-5.69482421 -5.48584,-5.6948242 -5.48584,-15.8828122 v -34.534668 q 0,-10.240235 5.53809,-15.882813 5.53809,-5.694824 16.14404,-5.694824 10.65821,0 16.14405,5.642578 5.53808,5.642578 5.53808,15.935059 v 34.534668 q 0,10.240234 -5.53808,15.9350583 -5.53809,5.64257811 -16.14405,5.64257811 z m 0,-10.13574221 q 5.64258,0 8.30713,-2.9257812 2.7168,-2.978027 2.7168,-8.516113 v -34.534668 q 0,-5.538086 -2.66455,-8.463867 -2.66455,-2.978028 -8.35938,-2.978028 -5.69482,0 -8.35937,2.978028 -2.66455,2.925781 -2.66455,8.463867 v 34.534668 q 0,5.538086 2.66455,8.516113 2.71679,2.9257812 8.35937,2.9257812 z"
                   id="path18170" /></g></g></g><g
             id="g208" /><g
             id="g210" /><g
             id="g212" /></g></g></g><g
       id="g214"
       transform="matrix(0.2399987,0,0,-0.24000372,0,571.69128)"><g
         id="g216"
         clip-path="url(#clipPath220)"><g
           id="g222"
           transform="matrix(1.132664,0,0,-1.133929,0,2382.0107)"><g
             id="g224"
             transform="matrix(0.882874,0,0,-0.88189,0,2100.6709)"><g
               id="g226"
               transform="matrix(1,0,0,-1,1711,2100)"><g
                 aria-label="700"
                 transform="scale(1,-1)"
                 id="text230"
                 style="font-size:107px;font-family:Bahnschrift;-inkscape-font-specification:Bahnschrift"><path
                   d="M 47.07373,-66.457031 27.429199,0 H 16.091797 L 35.736328,-65.830078 H 16.405273 v 10.919433 H 5.7470703 V -75.96582 H 47.07373 Z"
                   id="path18173" /><path
                   d="m 83.519043,0.78369141 q -10.658203,0 -16.196289,-5.69482421 -5.48584,-5.6948242 -5.48584,-15.8828122 v -34.534668 q 0,-10.240235 5.538086,-15.882813 5.538086,-5.694824 16.144043,-5.694824 10.658203,0 16.144043,5.642578 5.538084,5.642578 5.538084,15.935059 v 34.534668 q 0,10.240234 -5.538084,15.9350583 Q 94.125,0.78369141 83.519043,0.78369141 Z m 0,-10.13574221 q 5.642578,0 8.307129,-2.9257812 2.716797,-2.978027 2.716797,-8.516113 v -34.534668 q 0,-5.538086 -2.664551,-8.463867 -2.664551,-2.978028 -8.359375,-2.978028 -5.694824,0 -8.359375,2.978028 -2.664551,2.925781 -2.664551,8.463867 v 34.534668 q 0,5.538086 2.664551,8.516113 2.716797,2.9257812 8.359375,2.9257812 z"
                   id="path18175" /><path
                   d="m 142.51904,0.78369141 q -10.6582,0 -16.19629,-5.69482421 -5.48584,-5.6948242 -5.48584,-15.8828122 v -34.534668 q 0,-10.240235 5.53809,-15.882813 5.53809,-5.694824 16.14404,-5.694824 10.65821,0 16.14405,5.642578 5.53808,5.642578 5.53808,15.935059 v 34.534668 q 0,10.240234 -5.53808,15.9350583 -5.53809,5.64257811 -16.14405,5.64257811 z m 0,-10.13574221 q 5.64258,0 8.30713,-2.9257812 2.7168,-2.978027 2.7168,-8.516113 v -34.534668 q 0,-5.538086 -2.66455,-8.463867 -2.66455,-2.978028 -8.35938,-2.978028 -5.69482,0 -8.35937,2.978028 -2.66455,2.925781 -2.66455,8.463867 v 34.534668 q 0,5.538086 2.66455,8.516113 2.71679,2.9257812 8.35937,2.9257812 z"
                   id="path18177" /></g></g></g><g
             id="g232" /><g
             id="g234" /><g
             id="g236" /></g></g></g><g
       id="g238"
       transform="matrix(0.2399987,0,0,-0.24000372,0,571.69128)"><g
         id="g240"
         clip-path="url(#clipPath244)"><g
           id="g246"
           transform="matrix(1.132664,0,0,-1.133929,0,2382.0107)"><g
             id="g248"
             transform="matrix(0.882874,0,0,-0.88189,0,2100.6709)"><g
               id="g250"
               transform="matrix(1,0,0,-1,2212,2100)"><g
                 aria-label="800"
                 transform="scale(1,-1)"
                 id="text254"
                 style="font-size:107px;font-family:Bahnschrift;-inkscape-font-specification:Bahnschrift"><path
                   d="m 30.09375,0.78369141 q -6.896484,0 -12.121094,-2.61230471 Q 12.748047,-4.440918 9.8745117,-9.1953125 7.0532227,-14.001953 7.0532227,-20.32373 v -1.253907 q 0,-5.694824 2.821289,-10.710449 2.8735353,-5.015625 7.6279293,-7.575684 -4.022949,-2.194335 -6.478515,-6.321777 -2.4033205,-4.179687 -2.4033205,-8.777344 v -1.828613 q 0,-5.956055 2.6645505,-10.449219 2.664551,-4.54541 7.523438,-7.000976 4.858886,-2.507813 11.285156,-2.507813 6.42627,0 11.285156,2.507813 4.858887,2.455566 7.523438,7.000976 2.664551,4.493164 2.664551,10.449219 v 1.828613 q 0,4.702149 -2.507813,8.82959 -2.455566,4.127442 -6.530762,6.269531 4.806641,2.612305 7.680176,7.62793 2.925781,4.963379 2.925781,10.658203 v 1.253907 q 0,6.321777 -2.873535,11.1284175 -2.821289,4.7543945 -8.045898,7.3666992 -5.22461,2.61230471 -12.121094,2.61230471 z m 0,-10.24023441 q 3.709473,0 6.530762,-1.462891 2.821289,-1.46289 4.336425,-4.075195 1.567383,-2.664551 1.567383,-6.112793 v -0.731445 q 0,-3.500488 -1.567383,-6.112793 -1.515136,-2.664551 -4.336425,-4.127442 -2.821289,-1.46289 -6.530762,-1.46289 -3.709473,0 -6.530762,1.46289 -2.821289,1.462891 -4.388672,4.127442 -1.515136,2.664551 -1.515136,6.165039 v 0.783691 q 0,3.448243 1.515136,6.060547 1.567383,2.612305 4.388672,4.075195 2.821289,1.410645 6.530762,1.410645 z m 0,-34.325684 q 3.187012,0 5.642578,-1.358398 2.455567,-1.410645 3.813965,-3.970703 1.358398,-2.560059 1.358398,-5.903809 v -0.731445 q 0,-3.187012 -1.358398,-5.642578 -1.358398,-2.455567 -3.813965,-3.761719 -2.455566,-1.358398 -5.642578,-1.358398 -3.187012,0 -5.642578,1.358398 -2.455567,1.306152 -3.813965,3.761719 -1.358398,2.455566 -1.358398,5.694824 v 0.783691 q 0,3.291504 1.358398,5.851563 1.358398,2.507812 3.813965,3.918457 2.455566,1.358398 5.642578,1.358398 z"
                   id="path18180" /><path
                   d="m 89.519043,0.78369141 q -10.658203,0 -16.196289,-5.69482421 -5.48584,-5.6948242 -5.48584,-15.8828122 v -34.534668 q 0,-10.240235 5.538086,-15.882813 5.538086,-5.694824 16.144043,-5.694824 10.658207,0 16.144047,5.642578 5.53808,5.642578 5.53808,15.935059 v 34.534668 q 0,10.240234 -5.53808,15.9350583 -5.53809,5.64257811 -16.144047,5.64257811 z m 0,-10.13574221 q 5.642578,0 8.307129,-2.9257812 2.716798,-2.978027 2.716798,-8.516113 v -34.534668 q 0,-5.538086 -2.664552,-8.463867 -2.664551,-2.978028 -8.359375,-2.978028 -5.694824,0 -8.359375,2.978028 -2.664551,2.925781 -2.664551,8.463867 v 34.534668 q 0,5.538086 2.664551,8.516113 2.716797,2.9257812 8.359375,2.9257812 z"
                   id="path18182" /><path
                   d="m 148.51904,0.78369141 q -10.6582,0 -16.19629,-5.69482421 -5.48584,-5.6948242 -5.48584,-15.8828122 v -34.534668 q 0,-10.240235 5.53809,-15.882813 5.53809,-5.694824 16.14404,-5.694824 10.65821,0 16.14405,5.642578 5.53808,5.642578 5.53808,15.935059 v 34.534668 q 0,10.240234 -5.53808,15.9350583 -5.53809,5.64257811 -16.14405,5.64257811 z m 0,-10.13574221 q 5.64258,0 8.30713,-2.9257812 2.7168,-2.978027 2.7168,-8.516113 v -34.534668 q 0,-5.538086 -2.66455,-8.463867 -2.66455,-2.978028 -8.35938,-2.978028 -5.69482,0 -8.35937,2.978028 -2.66455,2.925781 -2.66455,8.463867 v 34.534668 q 0,5.538086 2.66455,8.516113 2.71679,2.9257812 8.35937,2.9257812 z"
                   id="path18184" /></g></g></g><g
             id="g256" /><g
             id="g258" /><g
             id="g260" /></g></g></g><g
       id="g262"
       transform="matrix(0.2399987,0,0,-0.24000372,0,571.69128)"><g
         id="g264"
         clip-path="url(#clipPath268)"><g
           id="g270"
           transform="matrix(1.132664,0,0,-1.133929,0,2382.0107)"><g
             id="g272"
             transform="matrix(0.882874,0,0,-0.88189,0,2100.6709)"><g
               id="g274"
               transform="matrix(1,0,0,-1,2720,2100)"><g
                 aria-label="900"
                 transform="scale(1,-1)"
                 id="text278"
                 style="font-size:107px;font-family:Bahnschrift;-inkscape-font-specification:Bahnschrift"><path
                   d="m 34.743652,-37.72168 -0.05225,1.88086 q -1.306152,2.40332 -3.970703,3.552734 -2.612305,1.097168 -6.217285,1.097168 -5.433594,0 -9.561035,-2.769043 -4.127442,-2.769043 -6.4262697,-7.784668 Q 6.2695312,-46.8125 6.2695312,-53.447754 V -53.5 q 0,-7.366699 2.4555665,-12.591309 2.5078123,-5.224609 7.2622073,-7.941406 4.80664,-2.716797 11.49414,-2.716797 6.6875,0 11.441895,2.769043 4.754394,2.769043 7.209961,8.045899 2.507812,5.276855 2.507812,12.6958 v 0.05225 q 0,4.075195 -1.044922,8.725097 -1.044921,4.597656 -2.978027,9.143067 -0.313477,0.679199 -0.626953,1.410644 -0.313477,0.679199 -0.679199,1.358399 L 27.115723,0 H 15.621582 Z m -7.262207,-3.187011 q 5.015625,0 7.732422,-3.395996 2.769043,-3.395997 2.769043,-9.561036 v -0.05225 q 0,-6.008301 -2.769043,-9.299804 -2.716797,-3.291504 -7.732422,-3.291504 -5.067871,0 -7.836914,3.291504 -2.716797,3.291503 -2.716797,9.35205 v 0.05225 q 0,6.16504 2.716797,9.561036 2.769043,3.34375 7.836914,3.34375 z"
                   id="path18187" /><path
                   d="m 84.519043,0.78369141 q -10.658203,0 -16.196289,-5.69482421 -5.48584,-5.6948242 -5.48584,-15.8828122 v -34.534668 q 0,-10.240235 5.538086,-15.882813 5.538086,-5.694824 16.144043,-5.694824 10.658203,0 16.144047,5.642578 5.53808,5.642578 5.53808,15.935059 v 34.534668 q 0,10.240234 -5.53808,15.9350583 Q 95.125,0.78369141 84.519043,0.78369141 Z m 0,-10.13574221 q 5.642578,0 8.307129,-2.9257812 2.716797,-2.978027 2.716797,-8.516113 v -34.534668 q 0,-5.538086 -2.664551,-8.463867 -2.664551,-2.978028 -8.359375,-2.978028 -5.694824,0 -8.359375,2.978028 -2.664551,2.925781 -2.664551,8.463867 v 34.534668 q 0,5.538086 2.664551,8.516113 2.716797,2.9257812 8.359375,2.9257812 z"
                   id="path18189" /><path
                   d="m 143.51904,0.78369141 q -10.6582,0 -16.19629,-5.69482421 -5.48584,-5.6948242 -5.48584,-15.8828122 v -34.534668 q 0,-10.240235 5.53809,-15.882813 5.53809,-5.694824 16.14404,-5.694824 10.65821,0 16.14405,5.642578 5.53808,5.642578 5.53808,15.935059 v 34.534668 q 0,10.240234 -5.53808,15.9350583 -5.53809,5.64257811 -16.14405,5.64257811 z m 0,-10.13574221 q 5.64258,0 8.30713,-2.9257812 2.7168,-2.978027 2.7168,-8.516113 v -34.534668 q 0,-5.538086 -2.66455,-8.463867 -2.66455,-2.978028 -8.35938,-2.978028 -5.69482,0 -8.35937,2.978028 -2.66455,2.925781 -2.66455,8.463867 v 34.534668 q 0,5.538086 2.66455,8.516113 2.71679,2.9257812 8.35937,2.9257812 z"
                   id="path18191" /></g></g></g><g
             id="g280" /><g
             id="g282" /><g
             id="g284" /><g
             id="g286" /><g
             id="g288" /><g
             id="g290" /><g
             id="g292" /><g
             id="g294" /><g
             id="g296" /><g
             id="g298" /><g
             id="g300" /><g
             id="g302" /><g
             id="g304" /><g
             id="g306" /><g
             id="g308" /><g
             id="g310" /><g
             id="g312" /><g
             id="g314" /><g
             id="g316" /></g></g></g><g
       id="g318"
       transform="matrix(0.2399987,0,0,-0.24000372,0,571.69128)"><g
         id="g320"
         clip-path="url(#clipPath324)"><g
           id="g326"
           transform="matrix(1.132664,0,0,-1.133929,0,2382.0107)"><g
             id="g328"
             transform="matrix(0.882874,0,0,-0.88189,0,2100.6709)"><g
               id="g330"
               transform="matrix(0,-1,-1,0,324,1214)"><g
                 aria-label="EQE"
                 transform="scale(1,-1)"
                 id="text334"
                 style="font-size:179px;font-family:Bahnschrift;-inkscape-font-specification:Bahnschrift"><path
                   d="M 15.732422,-127.08301 H 33.5625 V 0 H 15.732422 Z m 8.652832,110.126955 H 97.366211 V 0 H 24.385254 Z m 0,-54.626465 h 63.366699 v 16.956055 H 24.385254 Z m 0,-55.50049 h 72.980957 v 16.95606 H 24.385254 Z"
                   id="path18194" /><path
                   d="m 164.51074,-35.223145 9.26465,-11.799316 47.37207,37.2333985 -9.26465,11.8867188 z m 0.26221,36.5341802 q -13.28516,0 -23.42383,-5.7685547 -10.13867,-5.8559575 -15.73242,-16.4316405 -5.50635,-10.663086 -5.50635,-24.647461 v -36.009766 q 0,-13.984375 5.50635,-24.560063 5.59375,-10.66308 15.73242,-16.43164 10.13867,-5.85595 23.42383,-5.85595 13.28516,0 23.42383,5.85595 10.13867,5.76856 15.64502,16.43164 5.59375,10.575688 5.59375,24.560063 v 36.009766 q 0,13.984375 -5.59375,24.647461 -5.50635,10.575683 -15.64502,16.4316405 -10.13867,5.7685547 -23.42383,5.7685547 z m 0,-17.5678712 q 7.86621,0 13.80957,-3.496094 6.03076,-3.583496 9.26465,-10.051269 3.32129,-6.555176 3.32129,-15.120606 v -37.233398 q 0,-8.56543 -3.32129,-15.033203 -3.23389,-6.555174 -9.26465,-10.051274 -5.94336,-3.58349 -13.80957,-3.58349 -7.86621,0 -13.89697,3.58349 -5.94336,3.4961 -9.26465,10.051274 -3.23389,6.467773 -3.23389,15.033203 v 37.233398 q 0,8.56543 3.23389,15.120606 3.32129,6.467773 9.26465,10.051269 6.03076,3.496094 13.89697,3.496094 z"
                   id="path18196" /><path
                   d="M 240.73242,-127.08301 H 258.5625 V 0 h -17.83008 z m 8.65283,110.126955 h 72.98096 V 0 h -72.98096 z m 0,-54.626465 h 63.3667 v 16.956055 h -63.3667 z m 0,-55.50049 h 72.98096 v 16.95606 h -72.98096 z"
                   id="path18198" /></g></g></g><g
             id="g336" /></g></g></g><g
       id="g338"
       transform="matrix(0.2399987,0,0,-0.24000372,0,571.69128)"><g
         id="g340"
         clip-path="url(#clipPath344)"><g
           id="g346"
           transform="matrix(1.132664,0,0,-1.133929,0,2382.0107)"><g
             id="g348"
             transform="matrix(0.882874,0,0,-0.88189,0,2100.6709)"><g
               id="g350"
               transform="matrix(1,0,0,-1,1014,2286)"><g
                 aria-label="Wavelength /nm"
                 transform="scale(1,-1)"
                 id="text354"
                 style="font-size:177px;font-family:Bahnschrift;-inkscape-font-specification:Bahnschrift"><path
                   d="m 68.881348,-125.66309 h 12.099609 l 25.754883,98.525395 22.21143,-98.525395 h 18.32226 L 116.58838,0 H 98.611816 L 75.449707,-87.808594 51.250488,0 H 33.273926 L 2.5927734,-125.66309 H 20.915039 l 22.211426,98.525395 z"
                   id="path18201" /><path
                   d="m 214.47363,-56.868164 q 0,-8.81543 -4.75342,-13.655273 -4.66699,-4.92627 -13.30957,-4.92627 -5.35839,0 -10.54394,1.64209 -5.09912,1.64209 -9.07471,4.580566 l -12.87744,-8.815429 q 5.09912,-6.136231 13.396,-9.506836 8.3833,-3.457032 18.58154,-3.457032 11.14893,0 19.1001,3.975586 7.95117,3.88916 12.09961,11.408203 4.14843,7.432618 4.14843,17.976563 V 0 h -16.7666 z M 192.52148,1.2963867 q -16.59375,0 -24.80419,-6.8276367 -8.21045,-6.914063 -8.21045,-20.915039 0,-13.30957 7.51904,-19.964356 7.51904,-6.654785 22.72998,-6.654785 h 25.4956 l 1.20997,14.173828 h -26.61914 q -6.91407,0 -10.3711,3.111329 -3.3706,3.024902 -3.3706,9.333984 0,6.827637 4.49414,10.111816 4.58056,3.28418 13.82812,3.28418 10.11182,0 15.03809,-2.160645 5.01269,-2.160644 5.01269,-6.74121 l 1.81494,12.6181636 q -2.33349,3.6298828 -5.79052,5.9633789 -3.37061,2.3334961 -7.86475,3.45703128 -4.49414,1.20996092 -10.11182,1.20996092 z"
                   id="path18203" /><path
                   d="m 310.63428,-89.709961 h 18.40869 L 295.33691,0 h -13.30957 l -33.70605,-89.709961 h 18.40869 l 21.95215,64.041504 z"
                   id="path18205" /><path
                   d="m 383.55908,1.2963867 q -12.44531,0 -21.26074,-4.6669922 -8.81543,-4.6669922 -13.48242,-13.6552735 -4.58057,-9.074707 -4.58057,-21.865723 v -10.111816 q 0,-13.30957 4.40772,-22.72998 4.49414,-9.420411 12.96386,-14.34668 8.46973,-4.92627 20.39649,-4.92627 11.23535,0 19.18652,5.617676 7.95117,5.617676 12.09961,16.248047 4.23486,10.630371 4.23486,25.495605 v 5.876954 h -60.49804 v -14.173829 h 43.73144 v 0 q -0.77783,-10.976074 -5.7041,-17.025878 -4.83984,-6.136231 -13.05029,-6.136231 -10.02539,0 -15.55664,6.568359 -5.44483,6.56836 -5.44483,18.581543 v 11.408204 q 0,11.148925 5.87696,17.112304 5.87695,5.963379 16.68017,5.963379 5.3584,0 10.63037,-2.160644 5.27198,-2.160645 9.42041,-6.049805 v 0 l 11.58106,11.581055 v 0 q -6.65479,6.3955074 -14.95166,9.9389645 -8.29688,3.4570312 -16.68018,3.4570312 z"
                   id="path18207" /><path
                   d="m 459.45898,-23.162109 q 0,3.284179 1.38282,5.099121 1.46924,1.728515 4.06201,1.728515 h 8.29687 V 0.43212891 h -10.37109 q -10.02539,0 -15.55664,-6.22265621 -5.44483,-6.2226567 -5.44483,-17.5444337 V -125.66309 h 17.63086 z"
                   id="path18209" /><path
                   d="m 529.55908,1.2963867 q -12.44531,0 -21.26074,-4.6669922 -8.81543,-4.6669922 -13.48242,-13.6552735 -4.58057,-9.074707 -4.58057,-21.865723 v -10.111816 q 0,-13.30957 4.40772,-22.72998 4.49414,-9.420411 12.96386,-14.34668 8.46973,-4.92627 20.39649,-4.92627 11.23535,0 19.18652,5.617676 7.95117,5.617676 12.09961,16.248047 4.23486,10.630371 4.23486,25.495605 v 5.876954 h -60.49804 v -14.173829 h 43.73144 v 0 q -0.77783,-10.976074 -5.7041,-17.025878 -4.83984,-6.136231 -13.05029,-6.136231 -10.02539,0 -15.55664,6.568359 -5.44483,6.56836 -5.44483,18.581543 v 11.408204 q 0,11.148925 5.87696,17.112304 5.87695,5.963379 16.68017,5.963379 5.3584,0 10.63037,-2.160644 5.27198,-2.160645 9.42041,-6.049805 v 0 l 11.58106,11.581055 v 0 q -6.65479,6.3955074 -14.95166,9.9389645 -8.29688,3.4570312 -16.68018,3.4570312 z"
                   id="path18211" /><path
                   d="m 587.82812,-89.709961 h 17.63086 V 0 h -17.63086 z m 54.44825,35.348145 q 0,-9.506836 -4.92627,-14.692383 -4.92627,-5.185547 -13.82813,-5.185547 -8.64258,0 -13.39599,4.580566 -4.667,4.580567 -4.667,12.877442 l -1.81494,-17.285157 q 4.14844,-8.124023 10.80323,-12.531738 6.74121,-4.407715 14.86523,-4.407715 14.60596,0 22.55713,9.593262 8.0376,9.506836 8.0376,26.964844 V 0 h -17.63086 z"
                   id="path18213" /><path
                   d="m 716.9043,36.47168 q -10.11182,0 -18.14942,-3.802735 Q 690.80371,28.952637 686.396,22.125 v 0 l 11.92675,-10.803223 v 0 q 3.45704,4.753418 8.21045,7.346192 4.83985,2.592773 10.11182,2.592773 10.11182,0 15.64307,-5.617676 5.53125,-5.53125 5.53125,-15.72949178 V -89.709961 h 17.63086 v 87.0307618 q 0,12.3588867 -4.58057,21.1743162 -4.49414,8.81543 -13.13672,13.395996 -8.64258,4.580567 -20.82861,4.580567 z M 715.26221,1.5556641 q -9.85254,0 -16.85303,-4.2348633 -6.91406,-4.3212891 -10.54395,-12.5317388 -3.62988,-8.210449 -3.62988,-19.705078 V -54.70752 q 0,-11.581054 3.54346,-19.791503 3.54346,-8.21045 10.28467,-12.445313 6.82763,-4.321289 16.33447,-4.321289 7.95117,0 14.51953,4.148438 6.65479,4.148437 10.7168,11.66748 l -1.81494,18.322266 q 0,-5.704102 -2.07422,-9.766114 -2.07422,-4.062011 -6.04981,-6.13623 -3.88916,-2.160645 -9.50683,-2.160645 -8.72901,0 -13.56885,5.444825 -4.75342,5.444824 -4.75342,15.297363 v 19.532226 q 0,9.766114 4.75342,15.124512 4.83984,5.271973 13.56885,5.271973 5.61767,0 9.50683,-2.160645 3.97559,-2.24707 6.04981,-6.395508 2.07422,-4.148437 2.07422,-9.938964 l 1.20996,18.927246 q -2.6792,6.6547848 -8.81543,11.1489254 -6.04981,4.4941407 -14.95166,4.4941407 z"
                   id="path18215" /><path
                   d="m 806.16309,0.43212891 q -10.88965,0 -15.98877,-5.96337891 -5.0127,-6.049805 -5.0127,-17.803711 v -92.475589 h 17.63086 v 92.648441 q 0,3.284179 1.29639,5.099121 1.29638,1.728515 3.80273,1.728515 h 8.46973 V 0.43212891 Z M 775.91406,-89.709961 h 40.44727 v 15.902344 h -40.44727 z"
                   id="path18217" /><path
                   d="m 840.82812,-125.66309 h 17.63086 V 0 h -17.63086 z m 54.44825,71.301274 q 0,-9.506836 -4.92627,-14.692383 -4.92627,-5.185547 -13.82813,-5.185547 -8.64258,0 -13.39599,4.494141 -4.667,4.49414 -4.667,12.704589 l -1.81494,-17.285156 q 4.14844,-7.951172 10.80323,-12.272461 6.74121,-4.407715 14.86523,-4.407715 14.60596,0 22.55713,9.593262 8.0376,9.506836 8.0376,26.964844 V 0 h -17.63086 z"
                   id="path18219" /><path
                   d="m 989.98877,23.853516 h -16.85303 l 58.33736,-164.381836 h 16.8531 z"
                   id="path18221" /><path
                   d="m 1054.8281,-89.709961 h 17.6309 V 0 h -17.6309 z m 54.4483,35.348145 q 0,-9.506836 -4.9263,-14.692383 -4.9263,-5.185547 -13.8281,-5.185547 -8.6426,0 -13.396,4.580566 -4.667,4.580567 -4.667,12.877442 l -1.815,-17.285157 q 4.1485,-8.124023 10.8033,-12.531738 6.7412,-4.407715 14.8652,-4.407715 14.606,0 22.5571,9.593262 8.0376,9.506836 8.0376,26.964844 V 0 h -17.6308 z"
                   id="path18223" /><path
                   d="m 1260.9961,-54.361816 q 0,-9.506836 -4.9263,-14.692383 -4.9262,-5.185547 -13.8281,-5.185547 -8.2104,0 -12.7046,5.012695 -4.4941,5.012696 -4.4941,14.173828 l -3.5435,-17.285156 q 4.2349,-8.901855 11.1489,-13.741699 7.0005,-4.92627 15.3838,-4.92627 9.6797,0 16.5074,4.321289 6.914,4.234864 10.4575,12.445313 3.6299,8.210449 3.6299,19.791504 V 0 h -17.6309 z m -107.168,-35.348145 h 17.6309 V 0 h -17.6309 z m 53.584,35.348145 q 0,-9.506836 -4.667,-14.692383 -4.667,-5.185547 -13.2231,-5.185547 -8.6426,0 -13.396,4.580566 -4.667,4.580567 -4.667,12.877442 l -1.815,-17.285157 q 4.1485,-8.124023 10.8033,-12.531738 6.7412,-4.407715 14.8652,-4.407715 9.4204,0 16.0752,4.321289 6.6548,4.234864 10.1118,12.445313 3.5435,8.210449 3.5435,19.791504 V 0 h -17.6309 z"
                   id="path18225" /></g></g></g><g
             id="g356" /><g
             id="g358" /><g
             id="g360" /></g></g></g><g
       id="g362"
       transform="scale(0.271838,0.272147)"><g
         id="g364" /></g><g
       aria-label="P3HT:PC61BM"
       transform="scale(1,-1)"
       id="text2249"
       style="font-weight:300;font-stretch:condensed;font-size:48px;line-height:1.05;font-family:Bahnschrift;-inkscape-font-specification:'Bahnschrift Light Condensed';stroke-width:0.75"><path
         d="m 453.19128,-501.14224 h 6.44532 q 0.91406,0 1.57031,-0.42188 0.67969,-0.42187 1.03125,-1.21875 0.35156,-0.79687 0.35156,-1.89843 v -5.22657 q 0,-1.14843 -0.35156,-1.96875 -0.35156,-0.82031 -1.03125,-1.24218 -0.65625,-0.44532 -1.57031,-0.44532 h -6.44532 v -4.21875 h 6.35157 q 2.41406,0 4.10156,0.91407 1.71094,0.91406 2.60156,2.67187 0.89063,1.75781 0.89063,4.21875 v 5.41406 q 0,2.41407 -0.91407,4.125 -0.89062,1.71094 -2.60156,2.625 -1.6875,0.89063 -4.07812,0.89063 h -6.35157 z m -2.46093,-16.64063 h 4.45312 v 34.07813 h -4.45312 z"
         style="font-weight:normal;-inkscape-font-specification:'Bahnschrift Condensed';baseline-shift:baseline"
         id="path18228" /><path
         d="m 478.64441,-483.35318 q -2.50781,0 -4.26563,-0.82031 -1.75781,-0.82031 -2.69531,-2.36719 -0.91406,-1.57031 -0.91406,-3.79687 v -2.8125 h 4.47656 v 2.48437 q 0,0.9375 0.39844,1.61719 0.42187,0.65625 1.17187,1.00781 0.77344,0.35156 1.82813,0.35156 1.52344,0 2.36719,-0.86718 0.84375,-0.86719 0.84375,-2.4375 v -4.71094 q 0,-1.71094 -0.72657,-2.64844 -0.72656,-0.96094 -2.03906,-0.96094 h -2.39062 v -4.21875 h 2.39062 q 1.03125,0 1.61719,-0.75 0.58594,-0.75 0.58594,-2.10937 v -4.6875 q 0,-1.28906 -0.70313,-1.99219 -0.70312,-0.72656 -1.96875,-0.72656 -0.89062,0 -1.52344,0.32812 -0.63281,0.32813 -0.98437,0.9375 -0.32813,0.60938 -0.32813,1.47657 v 2.71875 h -4.45312 v -2.8125 q 0,-2.20313 0.86719,-3.77344 0.89062,-1.57031 2.57812,-2.39063 1.6875,-0.82031 4.07813,-0.82031 3.28125,0 5.08593,1.82813 1.80469,1.82812 1.80469,5.17968 v 4.78125 q 0,1.24219 -0.77344,2.50782 -0.77343,1.26562 -2.17968,2.34375 1.66406,0.67968 2.57812,2.20312 0.9375,1.52344 0.9375,3.58594 v 4.82812 q 0,2.39063 -0.91406,4.07813 -0.89063,1.6875 -2.625,2.57812 -1.71094,0.86719 -4.125,0.86719 z"
         style="font-weight:normal;-inkscape-font-specification:'Bahnschrift Condensed';baseline-shift:baseline"
         id="path18230" /><path
         d="m 502.0116,-517.78287 h 4.45312 v 34.07813 h -4.45312 z m -11.25,0 h 4.47656 v 34.07813 h -4.47656 z m 2.97656,15.1875 h 10.45312 v 4.21875 h -10.45312 z"
         style="font-weight:normal;-inkscape-font-specification:'Bahnschrift Condensed';baseline-shift:baseline"
         id="path18232" /><path
         d="m 516.73035,-514.9938 h 4.45312 v 31.28906 h -4.45312 z m -6.04688,-2.78907 h 16.54688 v 4.21875 h -16.54688 z"
         style="font-weight:normal;-inkscape-font-specification:'Bahnschrift Condensed';baseline-shift:baseline"
         id="path18234" /><path
         d="m 527.06628,-488.39224 h 4.6875 v 4.6875 h -4.6875 z m 0,-19.54688 h 4.6875 v 4.6875 h -4.6875 z"
         style="font-weight:normal;-inkscape-font-specification:'Bahnschrift Condensed';baseline-shift:baseline"
         id="path18236" /><path
         d="m 538.26941,-501.14224 h 6.44531 q 0.91406,0 1.57031,-0.42188 0.67969,-0.42187 1.03125,-1.21875 0.35157,-0.79687 0.35157,-1.89843 v -5.22657 q 0,-1.14843 -0.35157,-1.96875 -0.35156,-0.82031 -1.03125,-1.24218 -0.65625,-0.44532 -1.57031,-0.44532 h -6.44531 v -4.21875 h 6.35156 q 2.41406,0 4.10156,0.91407 1.71094,0.91406 2.60157,2.67187 0.89062,1.75781 0.89062,4.21875 v 5.41406 q 0,2.41407 -0.91406,4.125 -0.89063,1.71094 -2.60156,2.625 -1.6875,0.89063 -4.07813,0.89063 h -6.35156 z m -2.46094,-16.64063 h 4.45313 v 34.07813 h -4.45313 z"
         style="font-weight:normal;-inkscape-font-specification:'Bahnschrift Condensed';baseline-shift:baseline"
         id="path18238" /><path
         d="m 564.23816,-483.35318 q -2.48438,0 -4.26563,-1.03125 -1.78125,-1.03125 -2.71875,-2.97656 -0.9375,-1.96875 -0.9375,-4.71094 v -17.32031 q 0,-2.76563 0.9375,-4.71094 0.9375,-1.96875 2.69532,-3 1.78125,-1.03125 4.28906,-1.03125 2.50781,0 4.28906,1.03125 1.78125,1.03125 2.69531,3 0.9375,1.94531 0.9375,4.6875 v 1.45313 h -4.5 v -1.45313 q 0,-1.38281 -0.39843,-2.36719 -0.39844,-0.98437 -1.17188,-1.5 -0.77344,-0.51562 -1.85156,-0.51562 -1.07813,0 -1.85156,0.51562 -0.75,0.51563 -1.17188,1.5 -0.39844,0.98438 -0.39844,2.39063 v 17.32031 q 0,1.38281 0.39844,2.36719 0.42188,0.98437 1.17188,1.5 0.77343,0.51562 1.85156,0.51562 1.07812,0 1.85156,-0.51562 0.77344,-0.51563 1.17188,-1.5 0.39843,-0.98438 0.39843,-2.36719 v -1.45312 h 4.5 v 1.45312 q 0,2.74219 -0.9375,4.71094 -0.91406,1.94531 -2.69531,2.97656 -1.78125,1.03125 -4.28906,1.03125 z"
         style="font-weight:normal;-inkscape-font-specification:'Bahnschrift Condensed';baseline-shift:baseline"
         id="path18240" /><path
         d="m 580.05261,-473.87623 q -1.56914,0 -2.68125,-0.62461 -1.11211,-0.63984 -1.69101,-1.84336 -0.57891,-1.20351 -0.57891,-2.89453 v -2.86406 q 0,-1.32539 0.28945,-2.31562 0.28946,-0.99024 0.89883,-2.40703 0.0762,-0.18282 0.15235,-0.36563 0.0914,-0.18281 0.16757,-0.38086 l 3.59532,-8.68359 h 3.12304 l -4.70742,11.04492 -0.73125,-0.54844 q 0.54844,-0.71601 1.27969,-1.11211 0.73125,-0.39609 1.5082,-0.39609 1.3711,0 2.3461,0.56367 0.975,0.56367 1.47773,1.64531 0.51797,1.06641 0.51797,2.57461 v 3.18399 q 0,1.70625 -0.59414,2.925 -0.57891,1.21875 -1.69102,1.85859 -1.11211,0.63984 -2.68125,0.63984 z m 0,-2.81836 q 0.99024,0 1.52344,-0.63984 0.54844,-0.63984 0.54844,-1.79766 v -3.0164 q 0,-1.11211 -0.54844,-1.72149 -0.5332,-0.60937 -1.52344,-0.60937 -0.975,0 -1.52344,0.62461 -0.5332,0.60937 -0.5332,1.72148 v 3.01641 q 0,1.15781 0.5332,1.79765 0.54844,0.62461 1.52344,0.62461 z"
         style="font-size:65%;baseline-shift:sub"
         id="path18242" /><path
         d="m 592.95612,-474.10474 h -2.89453 v -19.14961 l -3.3668,2.07187 v -3.00117 l 3.09258,-2.07187 h 3.16875 z"
         style="font-size:65%;baseline-shift:sub"
         id="path18244" /><path
         d="m 599.63582,-487.92349 h 5.60156 q 1.5,0 2.32031,-0.75 0.84375,-0.75 0.84375,-2.13281 v -4.45313 q 0,-1.28906 -0.42187,-2.20312 -0.42188,-0.91407 -1.19531,-1.38282 -0.75,-0.49218 -1.78125,-0.49218 h -5.36719 v -4.21875 h 5.36719 q 1.40625,0 2.17968,-0.96094 0.77344,-0.96094 0.77344,-2.71875 v -3.46875 q 0,-1.35938 -0.77344,-2.10938 -0.77343,-0.75 -2.13281,-0.75 h -5.41406 v -4.21875 h 5.34375 q 2.34375,0 4.00781,0.79688 1.6875,0.79687 2.55469,2.34375 0.86719,1.52344 0.86719,3.67969 v 3.60937 q 0,1.59375 -0.51563,2.83594 -0.51562,1.24219 -1.5,2.03906 -0.96094,0.79688 -2.32031,1.07813 1.5,0.23437 2.57812,1.05468 1.07813,0.82032 1.64063,2.13282 0.5625,1.28906 0.5625,3.02343 v 4.5 q 0,2.22657 -0.84375,3.79688 -0.84375,1.54687 -2.48438,2.36719 -1.61718,0.82031 -3.91406,0.82031 h -5.97656 z m -2.8125,-29.85938 h 4.45312 v 34.07813 h -4.45312 z"
         style="font-weight:normal;-inkscape-font-specification:'Bahnschrift Condensed';baseline-shift:baseline"
         id="path18246" /><path
         d="m 634.97957,-517.78287 h 3.91406 v 34.07813 h -4.07812 v -25.80469 l 0.39843,1.5 -5.85937,18.72656 h -2.85938 l -5.83593,-18.25781 0.53906,-1.96875 v 25.80469 h -4.24219 v -34.07813 h 4.07813 l 6.89062,21.39844 z"
         style="font-weight:normal;-inkscape-font-specification:'Bahnschrift Condensed';baseline-shift:baseline"
         id="path18248" /></g><g
       aria-label="CTS Absorption Tail"
       transform="scale(1,-1)"
       id="text16801"
       style="font-weight:300;font-stretch:condensed;font-size:32px;line-height:1.05;font-family:Bahnschrift;-inkscape-font-specification:'Bahnschrift Light Condensed';stroke-width:0.75"><path
         d="m 445.24911,-191.71191 q -1.65625,0 -2.84375,-0.6875 -1.1875,-0.6875 -1.8125,-1.98438 -0.625,-1.3125 -0.625,-3.14062 v -11.54688 q 0,-1.84375 0.625,-3.14062 0.625,-1.3125 1.79688,-2 1.1875,-0.6875 2.85937,-0.6875 1.67188,0 2.85938,0.6875 1.1875,0.6875 1.79687,2 0.625,1.29687 0.625,3.125 v 0.82812 h -2.25 v -0.82812 q 0,-1.15625 -0.35937,-1.96875 -0.34375,-0.8125 -1.03125,-1.23438 -0.67188,-0.4375 -1.64063,-0.4375 -0.95312,0 -1.64062,0.4375 -0.67188,0.42188 -1.03125,1.25 -0.35938,0.8125 -0.35938,1.96875 v 11.54688 q 0,1.14062 0.35938,1.96875 0.35937,0.8125 1.03125,1.25 0.6875,0.42187 1.64062,0.42187 0.96875,0 1.64063,-0.42187 0.6875,-0.4375 1.03125,-1.25 0.35937,-0.8125 0.35937,-1.96875 v -0.82813 h 2.25 v 0.82813 q 0,1.82812 -0.625,3.14062 -0.60937,1.29688 -1.79687,1.98438 -1.1875,0.6875 -2.85938,0.6875 z"
         id="path18251" /><path
         d="m 456.17099,-212.80566 h 2.25 v 20.85937 h -2.25 z m -4.39063,-1.85938 h 11.03125 v 2.09375 h -11.03125 z"
         id="path18253" /><path
         d="m 469.74911,-191.71191 q -1.85937,0 -3.09375,-0.57813 -1.21875,-0.59375 -1.82812,-1.78125 -0.60938,-1.1875 -0.60938,-2.96875 v -1.125 h 2.21875 v 1.125 q 0,1.64063 0.8125,2.45313 0.82813,0.8125 2.5,0.8125 1.625,0 2.42188,-0.8125 0.8125,-0.8125 0.8125,-2.45313 v -1.34375 q 0,-1.09375 -0.48438,-1.85937 -0.48437,-0.78125 -1.25,-1.29688 -0.75,-0.53125 -1.9375,-1.125 -0.0469,-0.0156 -0.0937,-0.0312 -0.0312,-0.0312 -0.0625,-0.0469 l -0.21875,-0.10938 q -1.54687,-0.76562 -2.48437,-1.39062 -0.92188,-0.625 -1.57813,-1.67188 -0.64062,-1.0625 -0.64062,-2.625 v -1.10937 q 0,-1.75 0.60937,-2.92188 0.60938,-1.17187 1.82813,-1.75 1.21875,-0.57812 3.0625,-0.57812 1.78125,0 2.96875,0.59375 1.1875,0.57812 1.78125,1.76562 0.59375,1.17188 0.59375,2.95313 v 1.1875 h -2.21875 v -1.1875 q 0,-1.625 -0.78125,-2.4375 -0.78125,-0.8125 -2.34375,-0.8125 -1.64063,0 -2.46875,0.78125 -0.8125,0.76562 -0.8125,2.3125 v 1.10937 q 0,1.04688 0.51562,1.78125 0.51563,0.73438 1.26563,1.21875 0.76562,0.46875 2.09375,1.10938 0.125,0.0625 0.23437,0.125 0.125,0.0469 0.25,0.10937 0.0625,0.0312 0.10938,0.0625 0.0625,0.0156 0.10937,0.0469 1.28125,0.64062 2.15625,1.32812 0.89063,0.67188 1.45313,1.75 0.5625,1.07813 0.5625,2.625 v 1.4375 q 0,1.78125 -0.60938,2.96875 -0.59375,1.17188 -1.8125,1.76563 -1.20312,0.59375 -3.03125,0.59375 z"
         id="path18255" /><path
         d="m 488.76474,-214.66504 h 2.71875 l 5.25,22.71875 h -2.5 l -4.10938,-20.20312 -4.10937,20.20312 h -2.5 z m -2.32813,15.10938 h 7.71875 v 2.09375 h -7.71875 z"
         id="path18257" /><path
         d="m 504.62411,-191.71191 q -1.32812,0 -2.34375,-0.73438 -1,-0.75 -1.32812,-2.04687 l 0.21875,-2.45313 q 0,1.04688 0.29687,1.78125 0.3125,0.73438 0.90625,1.125 0.59375,0.39063 1.42188,0.39063 1.28125,0 1.98437,-0.875 0.71875,-0.89063 0.71875,-2.48438 v -6.21875 q 0,-1.5625 -0.71875,-2.42187 -0.70312,-0.85938 -1.98437,-0.85938 -0.82813,0 -1.42188,0.375 -0.59375,0.375 -0.90625,1.10938 -0.29687,0.71875 -0.29687,1.73437 l -0.32813,-2.1875 q 0.48438,-1.39062 1.5625,-2.17187 1.09375,-0.79688 2.375,-0.79688 1.23438,0 2.10938,0.60938 0.875,0.60937 1.32812,1.78125 0.45313,1.15625 0.45313,2.8125 v 6.23437 q 0,1.67188 -0.48438,2.875 -0.46875,1.1875 -1.375,1.8125 -0.90625,0.60938 -2.1875,0.60938 z m -5.70312,-22.95313 h 2.25 v 22.71875 h -2.25 z"
         id="path18259" /><path
         d="m 515.92099,-191.71191 q -1.64063,0 -2.73438,-0.53125 -1.07812,-0.54688 -1.625,-1.625 -0.54687,-1.07813 -0.54687,-2.70313 v 0 h 2.07812 v 0 q 0,1.46875 0.70313,2.20313 0.70312,0.73437 2.125,0.73437 1.42187,0 2.125,-0.70312 0.70312,-0.70313 0.70312,-2.10938 0,-0.70312 -0.29687,-1.17187 -0.29688,-0.46875 -0.79688,-0.75 -0.5,-0.29688 -1.25,-0.54688 -0.10937,-0.0312 -0.23437,-0.0625 -0.10938,-0.0469 -0.23438,-0.0781 -0.0781,-0.0312 -0.17187,-0.0469 -0.0781,-0.0312 -0.15625,-0.0469 -1.40625,-0.42188 -2.28125,-0.84375 -0.875,-0.42188 -1.5,-1.32813 -0.60938,-0.90625 -0.60938,-2.45312 0,-1.5625 0.5,-2.59375 0.51563,-1.04688 1.53125,-1.5625 1.01563,-0.51563 2.54688,-0.51563 1.53125,0 2.54687,0.5 1.01563,0.5 1.51563,1.51563 0.51562,1 0.51562,2.51562 v 0 h -2.07812 v 0 q 0,-1.3125 -0.625,-1.95312 -0.625,-0.65625 -1.875,-0.65625 -1.25,0 -1.875,0.67187 -0.625,0.67188 -0.625,2.01563 0,0.82812 0.375,1.35937 0.39062,0.51563 1,0.8125 0.60937,0.29688 1.54687,0.5625 0.0469,0.0156 0.0937,0.0312 0.0625,0 0.10938,0.0156 0.0312,0.0156 0.0625,0.0312 0.0469,0 0.0781,0 1.35938,0.375 2.21875,0.79687 0.85938,0.40625 1.45313,1.3125 0.59375,0.90625 0.59375,2.46875 0,1.59375 -0.54688,2.64063 -0.53125,1.04687 -1.625,1.57812 -1.09375,0.51563 -2.73437,0.51563 z"
         id="path18261" /><path
         d="m 527.67099,-191.71191 q -1.46875,0 -2.51563,-0.54688 -1.04687,-0.5625 -1.59375,-1.625 -0.54687,-1.0625 -0.54687,-2.54687 v -7.375 q 0,-1.46875 0.54687,-2.5 0.54688,-1.04688 1.59375,-1.59375 1.04688,-0.54688 2.51563,-0.54688 1.46875,0 2.51562,0.54688 1.04688,0.54687 1.59375,1.59375 0.54688,1.03125 0.54688,2.5 v 7.42187 q 0,1.46875 -0.54688,2.53125 -0.54687,1.04688 -1.59375,1.59375 -1.04687,0.54688 -2.51562,0.54688 z m -0.0156,-2.09375 q 1.15625,0 1.78125,-0.67188 0.64063,-0.67187 0.64063,-1.90625 v -7.42187 q 0,-1.20313 -0.64063,-1.875 -0.64062,-0.67188 -1.78125,-0.67188 -1.14062,0 -1.76562,0.67188 -0.625,0.67187 -0.625,1.875 v 7.42187 q 0,1.23438 0.625,1.90625 0.625,0.67188 1.76562,0.67188 z"
         id="path18263" /><path
         d="m 535.45224,-208.16504 h 2.25 v 16.21875 h -2.25 z m 7.42187,1.8125 q -0.0312,0 -0.0625,0 -0.0156,0 -0.0469,0 -2.28125,0 -3.60938,1.09375 -1.32812,1.07813 -1.45312,3.04688 l -0.32813,-3.125 q 0.90625,-1.46875 2.34375,-2.28125 1.4375,-0.82813 3.15625,-0.82813 0,0 0,0 0,0 0,0 z"
         id="path18265" /><path
         d="m 545.45224,-208.16504 h 2.25 v 22.8125 h -2.25 z m 5.70312,16.45313 q -1.32812,0 -2.34375,-0.73438 -1,-0.75 -1.32812,-2.04687 l 0.21875,-2.45313 q 0,1.04688 0.29687,1.78125 0.3125,0.73438 0.90625,1.125 0.59375,0.39063 1.42188,0.39063 1.28125,0 1.98437,-0.875 0.71875,-0.89063 0.71875,-2.48438 v -6.21875 q 0,-1.5625 -0.71875,-2.42187 -0.70312,-0.85938 -1.98437,-0.85938 -0.82813,0 -1.42188,0.375 -0.59375,0.375 -0.90625,1.10938 -0.29687,0.71875 -0.29687,1.73437 l -0.32813,-2.1875 q 0.48438,-1.39062 1.5625,-2.17187 1.09375,-0.79688 2.375,-0.79688 1.23438,0 2.10938,0.60938 0.875,0.60937 1.32812,1.78125 0.45313,1.15625 0.45313,2.8125 v 6.23437 q 0,1.67188 -0.48438,2.875 -0.46875,1.1875 -1.375,1.8125 -0.90625,0.60938 -2.1875,0.60938 z"
         id="path18267" /><path
         d="m 562.54599,-191.86816 q -1.96875,0 -2.89063,-1.07813 -0.90625,-1.09375 -0.90625,-3.21875 v -16.71875 h 2.25 v 16.75 q 0,1.04688 0.46875,1.60938 0.46875,0.5625 1.39063,0.5625 h 1.21875 v 2.09375 z m -5.46875,-16.29688 h 7 v 2.09375 h -7 z"
         id="path18269" /><path
         d="m 567.06161,-213.77441 h 2.25 v 2.25 h -2.25 z m 0,5.60937 h 2.25 v 16.21875 h -2.25 z"
         id="path18271" /><path
         d="m 577.42099,-191.71191 q -1.46875,0 -2.51563,-0.54688 -1.04687,-0.5625 -1.59375,-1.625 -0.54687,-1.0625 -0.54687,-2.54687 v -7.375 q 0,-1.46875 0.54687,-2.5 0.54688,-1.04688 1.59375,-1.59375 1.04688,-0.54688 2.51563,-0.54688 1.46875,0 2.51562,0.54688 1.04688,0.54687 1.59375,1.59375 0.54688,1.03125 0.54688,2.5 v 7.42187 q 0,1.46875 -0.54688,2.53125 -0.54687,1.04688 -1.59375,1.59375 -1.04687,0.54688 -2.51562,0.54688 z m -0.0156,-2.09375 q 1.15625,0 1.78125,-0.67188 0.64063,-0.67187 0.64063,-1.90625 v -7.42187 q 0,-1.20313 -0.64063,-1.875 -0.64062,-0.67188 -1.78125,-0.67188 -1.14062,0 -1.76562,0.67188 -0.625,0.67187 -0.625,1.875 v 7.42187 q 0,1.23438 0.625,1.90625 0.625,0.67188 1.76562,0.67188 z"
         id="path18273" /><path
         d="m 585.20224,-208.16504 h 2.25 v 16.21875 h -2.25 z m 7.65625,4.76563 q 0,-1.48438 -0.67188,-2.21875 -0.67187,-0.73438 -2.03125,-0.73438 -1.35937,0 -2.03125,0.8125 -0.67187,0.8125 -0.67187,2.45313 l -0.32813,-2.34375 q 0.5625,-1.51563 1.53125,-2.26563 0.96875,-0.75 2.32813,-0.75 2.07812,0 3.09375,1.26563 1.03125,1.25 1.03125,3.78125 v 11.45312 h -2.25 z"
         id="path18275" /><path
         d="m 607.65536,-212.80566 h 2.25 v 20.85937 h -2.25 z m -4.39062,-1.85938 h 11.03125 v 2.09375 h -11.03125 z"
         id="path18277" /><path
         d="m 622.28036,-203.82129 q 0,-1.3125 -0.73437,-2.03125 -0.71875,-0.71875 -2.04688,-0.71875 -1.17187,0 -1.82812,0.71875 -0.64063,0.71875 -0.64063,2.03125 h -2.17187 q 0,-2.20312 1.23437,-3.40625 1.23438,-1.21875 3.48438,-1.21875 1.51562,0 2.59375,0.54688 1.07812,0.54687 1.64062,1.57812 0.5625,1.03125 0.5625,2.5 v 11.875 h -2.09375 z m -3.5,12.10938 q -2.125,0 -3.1875,-1.125 -1.0625,-1.14063 -1.0625,-3.42188 0,-2.73437 1.23438,-4.07812 1.25,-1.35938 3.76562,-1.35938 h 2.89063 l 0.21875,1.625 h -3.09375 q -1.48438,0 -2.21875,0.95313 -0.73438,0.95312 -0.73438,2.85937 0,1.45313 0.67188,2.17188 0.67187,0.71875 2.01562,0.71875 1.5,0 2.25,-0.78125 0.75,-0.79688 0.75,-2.39063 l 0.32813,1.34375 q -0.0156,1.15625 -0.45313,1.9375 -0.42187,0.78125 -1.26562,1.17188 -0.84375,0.375 -2.10938,0.375 z"
         id="path18279" /><path
         d="m 628.13974,-213.77441 h 2.25 v 2.25 h -2.25 z m 0,5.60937 h 2.25 v 16.21875 h -2.25 z"
         id="path18281" /><path
         d="m 636.40536,-196.21191 q 0,1.03125 0.45313,1.60937 0.46875,0.5625 1.3125,0.5625 h 1.03125 v 2.09375 h -1.25 q -1.8125,0 -2.8125,-1.125 -0.98438,-1.125 -0.98438,-3.17187 v -18.42188 h 2.25 z"
         id="path18283" /></g><g
       id="path17312"><path
         id="path18644"
         style="color:#000000;fill:#000000;stroke-width:1.33333;stroke-linecap:round;-inkscape-stroke:none"
         d="M 609.16406 521.66211 A 3.2499999 -3.2499999 0 0 0 604.58398 522.03906 L 560.51172 574.04297 C 559.62443 572.7736 558.95368 571.32844 558.56055 569.75781 A 0.6094356 -0.6094356 0 0 0 557.39648 569.69727 L 549.59961 591.01562 A 0.6094356 -0.6094356 0 0 0 550.4707 591.75586 L 570.2207 580.56836 A 0.6094356 -0.6094356 0 0 0 569.96289 579.42969 C 568.37077 579.32025 566.85427 578.90738 565.46875 578.24805 L 609.54102 526.24219 A 3.2499999 -3.2499999 0 0 0 609.16406 521.66211 z "
         transform="matrix(0.75000002,0,0,-0.75000002,0,572.00002)" /><g
         id="g18634"><g
           id="path18636" /></g></g></g></svg>
