<?xml version="1.0" encoding="UTF-8" standalone="no"?>
<svg
   width="50.169998"
   height="99.813477"
   viewBox="0 0 50.169998 99.813477"
   version="1.1"
   id="svg46"
   sodipodi:docname="p3ht.svg"
   inkscape:version="1.1.2 (b8e25be833, 2022-02-05)"
   xmlns:inkscape="http://www.inkscape.org/namespaces/inkscape"
   xmlns:sodipodi="http://sodipodi.sourceforge.net/DTD/sodipodi-0.dtd"
   xmlns="http://www.w3.org/2000/svg"
   xmlns:svg="http://www.w3.org/2000/svg">
  <defs
     id="defs50" />
  <sodipodi:namedview
     id="namedview48"
     pagecolor="#ffffff"
     bordercolor="#666666"
     borderopacity="1.0"
     inkscape:pageshadow="2"
     inkscape:pageopacity="0.0"
     inkscape:pagecheckerboard="0"
     showgrid="false"
     inkscape:zoom="5.6568543"
     inkscape:cx="28.991378"
     inkscape:cy="37.476659"
     inkscape:window-width="1920"
     inkscape:window-height="1217"
     inkscape:window-x="-8"
     inkscape:window-y="-8"
     inkscape:window-maximized="1"
     inkscape:current-layer="svg46" />
  <g
     id="g2737"
     transform="translate(-2.215,-3.5230266)">
    <path
       style="fill:none;stroke:#000000;stroke-width:0.6;stroke-linecap:butt;stroke-linejoin:miter;stroke-miterlimit:4;stroke-dasharray:none;stroke-opacity:1"
       d="m 44.475,20.6835 h 1.065 v -14.4 h -1.065"
       id="path2477" />
    <path
       style="fill:none;stroke:#000000;stroke-width:0.6;stroke-linecap:butt;stroke-linejoin:miter;stroke-miterlimit:4;stroke-dasharray:none;stroke-opacity:1"
       d="M 10.125,20.6835 H 9.06 v -14.4 h 1.065"
       id="path2155" />
    <text
       x="0"
       y="0"
       stroke="transparent"
       fill="#000000"
       transform="matrix(0.05,0,0,0.05,23.9656,10.8033)"
       style="font-style:normal;font-variant:normal;font-weight:normal;font-stretch:normal;font-size:200px;line-height:normal;font-family:Arial"
       id="text2">S</text>
    <path
       stroke="transparent"
       fill="#000000"
       transform="matrix(0.05,0,0,0.05,-596,-190)"
       d="m 12328.4,4377.65 -4.4,6 -6.6,-1.05 -85.9,-264.29 4.7,-4.76 7.1,2.3 z"
       id="path4" />
    <path
       stroke="transparent"
       fill="#000000"
       transform="matrix(0.05,0,0,0.05,-596,-190)"
       d="m 12366.9,4330.68 -11.5,3.71 -64.8,-199.46 11.5,-3.7 z"
       id="path6" />
    <path
       stroke="transparent"
       fill="#000000"
       transform="matrix(0.05,0,0,0.05,-596,-190)"
       d="m 12603.7,4377.65 8.7,12 h -285.3 l -3.1,-6 4.4,-6 z"
       id="path8" />
    <path
       stroke="transparent"
       fill="#000000"
       transform="matrix(0.05,0,0,0.05,-596,-190)"
       d="m 12688.7,4115.85 7.1,-2.3 4.7,4.76 -88.1,271.34 -8.7,-12 z"
       id="path10" />
    <path
       stroke="transparent"
       fill="#000000"
       transform="matrix(0.05,0,0,0.05,-596,-190)"
       d="m 12630,4131.23 11.4,3.7 -64.8,199.46 -11.4,-3.71 z"
       id="path12" />
    <path
       stroke="transparent"
       fill="#000000"
       transform="matrix(0.05,0,0,0.05,-596,-190)"
       d="m 12544.9,4011.35 7,-9.71 144.9,105.26 -1,6.65 -7.1,2.3 z"
       id="path14" />
    <path
       stroke="transparent"
       fill="#000000"
       transform="matrix(0.05,0,0,0.05,-596,-190)"
       d="m 12243.3,4115.85 -7.1,-2.3 -1,-6.65 144.8,-105.2 7.1,9.7 z"
       id="path16" />
    <path
       stroke="transparent"
       fill="#000000"
       transform="matrix(0.05,0,0,0.05,-596,-190)"
       d="m 11964.3,4031.5 3.7,-11.41 267.2,86.81 1,6.65 -4.7,4.76 z"
       id="path18" />
    <path
       stroke="transparent"
       fill="#000000"
       transform="matrix(0.05,0,0,0.05,-596,-190)"
       d="m 12964,4020.09 3.7,11.41 -267.2,86.81 -4.7,-4.76 1,-6.65 z"
       id="path20" />
    <path
       stroke="transparent"
       fill="#000000"
       transform="matrix(0.05,0,0,0.05,-596,-190)"
       d="m 12161.9,4617.02 -14.3,-0.74 169.8,-233.68 6.6,1.05 3.1,6 z"
       id="path34" />
    <path
       stroke="transparent"
       fill="#000000"
       transform="matrix(0.05,0,0,0.05,-596,-190)"
       d="m 12305.7,4866.07 h -13.9 l -144.2,-249.79 14.3,0.74 z"
       id="path36" />
    <path
       stroke="transparent"
       fill="#000000"
       transform="matrix(0.05,0,0,0.05,-596,-190)"
       d="m 12161.7,5115.48 h -13.9 l 144,-249.41 h 13.9 z"
       id="path38" />
    <path
       stroke="transparent"
       fill="#000000"
       transform="matrix(0.05,0,0,0.05,-596,-190)"
       d="m 12305.7,5364.9 h -13.9 l -144,-249.42 h 13.9 z"
       id="path40" />
    <path
       stroke="transparent"
       fill="#000000"
       transform="matrix(0.05,0,0,0.05,-596,-190)"
       d="m 12161.7,5614.31 h -13.9 l 144,-249.41 h 13.9 z"
       id="path42" />
    <path
       stroke="transparent"
       fill="#000000"
       transform="matrix(0.05,0,0,0.05,-596,-190)"
       d="m 12303.9,5860.73 -10.4,6 -145.7,-252.42 h 13.9 z"
       id="path44" />
  </g>
</svg>
