<?xml version="1.0" encoding="UTF-8" standalone="no"?>
<svg
   width="194px"
   height="94px"
   viewBox="0 0 194 94"
   style="background-color: #ffffffff"
   version="1.1"
   id="svg134"
   sodipodi:docname="pbttt.svg"
   inkscape:version="1.1.2 (b8e25be833, 2022-02-05)"
   xmlns:inkscape="http://www.inkscape.org/namespaces/inkscape"
   xmlns:sodipodi="http://sodipodi.sourceforge.net/DTD/sodipodi-0.dtd"
   xmlns="http://www.w3.org/2000/svg"
   xmlns:svg="http://www.w3.org/2000/svg">
  <defs
     id="defs138" />
  <sodipodi:namedview
     id="namedview136"
     pagecolor="#ffffff"
     bordercolor="#666666"
     borderopacity="1.0"
     inkscape:pageshadow="2"
     inkscape:pageopacity="0.0"
     inkscape:pagecheckerboard="0"
     showgrid="false"
     inkscape:zoom="2.8865979"
     inkscape:cx="67.553571"
     inkscape:cy="-14.203571"
     inkscape:window-width="1920"
     inkscape:window-height="1217"
     inkscape:window-x="-8"
     inkscape:window-y="-8"
     inkscape:window-maximized="1"
     inkscape:current-layer="svg134" />
  <path
     style="fill:none;stroke:#000000;stroke-width:0.6;stroke-linecap:butt;stroke-linejoin:miter;stroke-miterlimit:4;stroke-dasharray:none;stroke-opacity:1"
     d="m 158.93,46.738 h 1.065 v -14.4 h -1.065"
     id="path2477" />
  <path
     style="fill:none;stroke:#000000;stroke-width:0.6;stroke-linecap:butt;stroke-linejoin:miter;stroke-miterlimit:4;stroke-dasharray:none;stroke-opacity:1"
     d="M 37.125,62.6835 H 36.06 v -14.4 h 1.065"
     id="path2155" />
  <text
     x="0"
     y="0"
     stroke="transparent"
     fill="#000000"
     transform="matrix(0.05 0 0 0.05 50.9656 52.8033)"
     style="font:normal normal normal 200px 'Arial'"
     id="text2">
S</text>
  <path
     stroke="transparent"
     fill="#000000"
     transform="matrix(0.05 0 0 0.05 -569 -148)"
     d="M 12328.4,4377.65 L 12324,4383.65 L 12317.6,4383.4 L 12231.5,4118.31 L 12236.2,4113.55 L 12243.3,4115.85 L 12328.4,4377.65 Z "
     id="path4" />
  <path
     stroke="transparent"
     fill="#000000"
     transform="matrix(0.05 0 0 0.05 -569 -148)"
     d="M 12366.9,4330.68 L 12355.4,4334.39 L 12290.6,4134.93 L 12302.1,4131.23 L 12366.9,4330.68 Z "
     id="path6" />
  <path
     stroke="transparent"
     fill="#000000"
     transform="matrix(0.05 0 0 0.05 -569 -148)"
     d="M 12603.7,4377.65 L 12612.4,4389.65 L 12328,4389.65 L 12324,4383.65 L 12328.4,4377.65 L 12603.7,4377.65 Z "
     id="path8" />
  <path
     stroke="transparent"
     fill="#000000"
     transform="matrix(0.05 0 0 0.05 -569 -148)"
     d="M 12688.7,4115.85 L 12695.8,4113.55 L 12700.5,4118.38 L 12612.4,4389.65 L 12603.7,4377.65 L 12688.7,4115.85 L 12688.7,4115.85 Z "
     id="path10" />
  <path
     stroke="transparent"
     fill="#000000"
     transform="matrix(0.05 0 0 0.05 -569 -148)"
     d="M 12630,4131.23 L 12641.4,4134.93 L 12576.6,4334.39 L 12565.2,4330.68 L 12630,4131.23 L 12630,4131.23 Z "
     id="path12" />
  <path
     stroke="transparent"
     fill="#000000"
     transform="matrix(0.05 0 0 0.05 -569 -148)"
     d="M 12544.9,4011.35 L 12551.9,4001.64 L 12696.9,4106.94 L 12695.8,4113.55 L 12688.7,4115.85 L 12544.9,4011.35 L 12544.9,4011.35 Z "
     id="path14" />
  <path
     stroke="transparent"
     fill="#000000"
     transform="matrix(0.05 0 0 0.05 -569 -148)"
     d="M 12243.3,4115.85 L 12236.2,4113.55 L 12235.2,4106.9 L 12380,4001.7 L 12387.1,4011.4 L 12243.3,4115.85 Z "
     id="path16" />
  <path
     stroke="transparent"
     fill="#000000"
     transform="matrix(0.05 0 0 0.05 -569 -148)"
     d="M 11964.3,4031.5 L 11968,4020.09 L 12235.2,4106.9 L 12236.2,4113.55 L 12231.5,4118.31 L 11964.3,4031.5 Z "
     id="path18" />
  <text
     x="0"
     y="0"
     stroke="transparent"
     fill="#000000"
     transform="matrix(0.05 0 0 0.05 86.0312 65.6924)"
     style="font:normal normal normal 200px 'Arial'"
     id="text26">
S</text>
  <path
     stroke="transparent"
     fill="#000000"
     transform="matrix(0.05 0 0 0.05 -569 -148)"
     d="M 13303.5,3777.99 L 13307.8,3771.99 L 13314.9,3774.28 L 13399,4033.24 L 13394.7,4039.24 L 13387.6,4036.94 L 13303.5,3777.99 Z "
     id="path28" />
  <path
     stroke="transparent"
     fill="#000000"
     transform="matrix(0.05 0 0 0.05 -569 -148)"
     d="M 13265.4,3824.42 L 13276.8,3820.71 L 13340.9,4018.06 L 13329.5,4021.77 L 13265.4,3824.42 Z "
     id="path30" />
  <path
     stroke="transparent"
     fill="#000000"
     transform="matrix(0.05 0 0 0.05 -569 -148)"
     d="M 13031.2,3777.99 L 13022.5,3765.99 L 13305.9,3765.99 L 13307.8,3771.99 L 13303.5,3777.99 L 13031.2,3777.99 Z "
     id="path32" />
  <path
     stroke="transparent"
     fill="#000000"
     transform="matrix(0.05 0 0 0.05 -569 -148)"
     d="M 12947,4036.94 L 12940,4039.24 L 12935.2,4034.41 L 13022.5,3765.99 L 13031.2,3777.99 L 12947,4036.94 Z "
     id="path34" />
  <path
     stroke="transparent"
     fill="#000000"
     transform="matrix(0.05 0 0 0.05 -569 -148)"
     d="M 13005.2,4021.77 L 12993.7,4018.06 L 13057.9,3820.71 L 13069.3,3824.42 L 13005.2,4021.77 Z "
     id="path36" />
  <path
     stroke="transparent"
     fill="#000000"
     transform="matrix(0.05 0 0 0.05 -569 -148)"
     d="M 13086.6,4138.36 L 13079.6,4148.07 L 12938.9,4045.84 L 12940,4039.24 L 12947,4036.94 L 13086.6,4138.36 Z "
     id="path38" />
  <path
     stroke="transparent"
     fill="#000000"
     transform="matrix(0.05 0 0 0.05 -569 -148)"
     d="M 13387.6,4036.94 L 13394.7,4039.24 L 13396.6,4045.24 L 13253.2,4149.42 L 13246.1,4139.72 L 13387.6,4036.94 Z "
     id="path40" />
  <path
     stroke="transparent"
     fill="#000000"
     transform="matrix(0.05 0 0 0.05 -569 -148)"
     d="M 12935.2,4034.41 L 12940,4039.24 L 12938.9,4045.84 L 12700.5,4118.38 L 12695.8,4113.55 L 12696.9,4106.94 L 12935.2,4034.41 Z "
     id="path42" />
  <text
     x="0"
     y="0"
     stroke="transparent"
     fill="#000000"
     transform="matrix(0.05 0 0 0.05 104.423 35.8133)"
     style="font:normal normal normal 200px 'Arial'"
     id="text44">
S</text>
  <path
     stroke="transparent"
     fill="#000000"
     transform="matrix(0.05 0 0 0.05 -569 -148)"
     d="M 13671.3,4033.24 L 13680,4045.24 L 13396.6,4045.24 L 13394.7,4039.24 L 13399,4033.24 L 13671.3,4033.24 Z "
     id="path46" />
  <path
     stroke="transparent"
     fill="#000000"
     transform="matrix(0.05 0 0 0.05 -569 -148)"
     d="M 13755.4,3774.28 L 13762.5,3771.99 L 13767.2,3776.85 L 13680,4045.24 L 13671.3,4033.24 L 13755.4,3774.28 Z "
     id="path48" />
  <path
     stroke="transparent"
     fill="#000000"
     transform="matrix(0.05 0 0 0.05 -569 -148)"
     d="M 13697.3,3789.45 L 13708.7,3793.16 L 13644.6,3990.51 L 13633.2,3986.8 L 13697.3,3789.45 Z "
     id="path50" />
  <path
     stroke="transparent"
     fill="#000000"
     transform="matrix(0.05 0 0 0.05 -569 -148)"
     d="M 13614,3671.54 L 13621.1,3661.84 L 13763.6,3765.4 L 13762.5,3771.99 L 13755.4,3774.28 L 13614,3671.54 Z "
     id="path52" />
  <path
     stroke="transparent"
     fill="#000000"
     transform="matrix(0.05 0 0 0.05 -569 -148)"
     d="M 13314.9,3774.28 L 13307.8,3771.99 L 13305.9,3765.99 L 13449.1,3661.89 L 13456.2,3671.6 L 13314.9,3774.28 Z "
     id="path54" />
  <text
     x="0"
     y="0"
     stroke="transparent"
     fill="#000000"
     transform="matrix(0.05 0 0 0.05 138.364 49.1026)"
     style="font:normal normal normal 200px 'Arial'"
     id="text56">
S</text>
  <path
     stroke="transparent"
     fill="#000000"
     transform="matrix(0.05 0 0 0.05 -569 -148)"
     d="M 14351.1,3443.12 L 14355.5,3437.12 L 14361.8,3436.99 L 14447.7,3701.5 L 14442.9,3706.27 L 14435.9,3703.97 L 14351.1,3443.12 Z "
     id="path58" />
  <path
     stroke="transparent"
     fill="#000000"
     transform="matrix(0.05 0 0 0.05 -569 -148)"
     d="M 14312.8,3489.91 L 14324.2,3486.2 L 14388.8,3684.95 L 14377.4,3688.66 L 14312.8,3489.91 Z "
     id="path60" />
  <path
     stroke="transparent"
     fill="#000000"
     transform="matrix(0.05 0 0 0.05 -569 -148)"
     d="M 14076.8,3443.12 L 14068.1,3431.12 L 14350.9,3431.12 L 14355.5,3437.12 L 14351.1,3443.12 L 14076.8,3443.12 Z "
     id="path62" />
  <path
     stroke="transparent"
     fill="#000000"
     transform="matrix(0.05 0 0 0.05 -569 -148)"
     d="M 13992.1,3703.97 L 13985,3706.27 L 13980.3,3701.41 L 14068.1,3431.12 L 14076.8,3443.12 L 13992.1,3703.97 Z "
     id="path64" />
  <path
     stroke="transparent"
     fill="#000000"
     transform="matrix(0.05 0 0 0.05 -569 -148)"
     d="M 14050.6,3688.66 L 14039.2,3684.95 L 14103.8,3486.2 L 14115.2,3489.91 L 14050.6,3688.66 Z "
     id="path66" />
  <path
     stroke="transparent"
     fill="#000000"
     transform="matrix(0.05 0 0 0.05 -569 -148)"
     d="M 14133.3,3806.57 L 14126.2,3816.27 L 13983.9,3712.86 L 13985,3706.27 L 13992.1,3703.97 L 14133.3,3806.57 Z "
     id="path68" />
  <path
     stroke="transparent"
     fill="#000000"
     transform="matrix(0.05 0 0 0.05 -569 -148)"
     d="M 14435.9,3703.97 L 14442.9,3706.27 L 14444,3712.92 L 14299.9,3817.63 L 14292.8,3807.92 L 14435.9,3703.97 Z "
     id="path70" />
  <path
     stroke="transparent"
     fill="#000000"
     transform="matrix(0.05 0 0 0.05 -569 -148)"
     d="M 13980.3,3701.41 L 13985,3706.27 L 13983.9,3712.86 L 13767.2,3776.85 L 13762.5,3771.99 L 13763.6,3765.4 L 13980.3,3701.41 Z "
     id="path72" />
  <path
     stroke="transparent"
     fill="#000000"
     transform="matrix(0.05 0 0 0.05 -569 -148)"
     d="M 14718.7,3789.56 L 14715,3800.97 L 14444,3712.92 L 14442.9,3706.27 L 14447.7,3701.5 L 14718.7,3789.56 Z "
     id="path74" />
  <path
     stroke="transparent"
     fill="#000000"
     transform="matrix(0.05 0 0 0.05 -569 -148)"
     d="M 12465.5,4779.74 L 12465.5,4793.59 L 12208.5,4645.23 L 12223.6,4640.11 L 12465.5,4779.74 Z "
     id="path82" />
  <path
     stroke="transparent"
     fill="#000000"
     transform="matrix(0.05 0 0 0.05 -569 -148)"
     d="M 12714.9,4635.74 L 12714.9,4649.59 L 12465.5,4793.59 L 12465.5,4779.74 L 12714.9,4635.74 Z "
     id="path84" />
  <path
     stroke="transparent"
     fill="#000000"
     transform="matrix(0.05 0 0 0.05 -569 -148)"
     d="M 12964.3,4779.74 L 12964.3,4793.59 L 12714.9,4649.59 L 12714.9,4635.74 L 12964.3,4779.74 Z "
     id="path86" />
  <path
     stroke="transparent"
     fill="#000000"
     transform="matrix(0.05 0 0 0.05 -569 -148)"
     d="M 13213.7,4635.74 L 13213.7,4649.59 L 12964.3,4793.59 L 12964.3,4779.74 L 13213.7,4635.74 Z "
     id="path88" />
  <path
     stroke="transparent"
     fill="#000000"
     transform="matrix(0.05 0 0 0.05 -569 -148)"
     d="M 13463.2,4779.74 L 13463.2,4793.59 L 13213.7,4649.59 L 13213.7,4635.74 L 13463.2,4779.74 Z "
     id="path90" />
  <path
     stroke="transparent"
     fill="#000000"
     transform="matrix(0.05 0 0 0.05 -569 -148)"
     d="M 13712.6,4635.74 L 13712.6,4649.59 L 13463.2,4793.59 L 13463.2,4779.74 L 13712.6,4635.74 Z "
     id="path92" />
  <path
     stroke="transparent"
     fill="#000000"
     transform="matrix(0.05 0 0 0.05 -569 -148)"
     d="M 13962,4779.74 L 13962,4793.59 L 13712.6,4649.59 L 13712.6,4635.74 L 13962,4779.74 Z "
     id="path94" />
  <path
     stroke="transparent"
     fill="#000000"
     transform="matrix(0.05 0 0 0.05 -569 -148)"
     d="M 14211.4,4635.74 L 14211.4,4649.59 L 13962,4793.59 L 13962,4779.74 L 14211.4,4635.74 Z "
     id="path96" />
  <path
     stroke="transparent"
     fill="#000000"
     transform="matrix(0.05 0 0 0.05 -569 -148)"
     d="M 14460.8,4779.74 L 14460.8,4793.59 L 14211.4,4649.59 L 14211.4,4635.74 L 14460.8,4779.74 Z "
     id="path98" />
  <path
     stroke="transparent"
     fill="#000000"
     transform="matrix(0.05 0 0 0.05 -569 -148)"
     d="M 14710.2,4635.74 L 14710.2,4649.59 L 14460.8,4793.59 L 14460.8,4779.74 L 14710.2,4635.74 Z "
     id="path100" />
  <path
     stroke="transparent"
     fill="#000000"
     transform="matrix(0.05 0 0 0.05 -569 -148)"
     d="M 14959.6,4779.74 L 14959.6,4793.59 L 14710.2,4649.59 L 14710.2,4635.74 L 14959.6,4779.74 Z "
     id="path102" />
  <path
     stroke="transparent"
     fill="#000000"
     transform="matrix(0.05 0 0 0.05 -569 -148)"
     d="M 15206.1,4637.47 L 15212.1,4647.86 L 14959.6,4793.59 L 14959.6,4779.74 L 15206.1,4637.47 Z "
     id="path104" />
  <path
     stroke="transparent"
     fill="#000000"
     transform="matrix(0.05 0 0 0.05 -569 -148)"
     d="M 12317.6,4383.4 L 12324,4383.65 L 12328,4389.65 L 12223.6,4640.11 L 12208.5,4645.23 L 12317.6,4383.4 Z "
     id="path106" />
  <path
     stroke="transparent"
     fill="#000000"
     transform="matrix(0.05 0 0 0.05 -569 -148)"
     d="M 14182.9,3025.29 L 14182.9,3011.43 L 14439.4,3159.29 L 14425.4,3165.04 L 14182.9,3025.29 Z "
     id="path108" />
  <path
     stroke="transparent"
     fill="#000000"
     transform="matrix(0.05 0 0 0.05 -569 -148)"
     d="M 13933.4,3169.48 L 13933.4,3155.63 L 14182.9,3011.43 L 14182.9,3025.29 L 13933.4,3169.48 Z "
     id="path110" />
  <path
     stroke="transparent"
     fill="#000000"
     transform="matrix(0.05 0 0 0.05 -569 -148)"
     d="M 13683.9,3025.68 L 13683.9,3011.82 L 13933.4,3155.63 L 13933.4,3169.48 L 13683.9,3025.68 Z "
     id="path112" />
  <path
     stroke="transparent"
     fill="#000000"
     transform="matrix(0.05 0 0 0.05 -569 -148)"
     d="M 13434.6,3169.87 L 13434.6,3156.02 L 13683.9,3011.82 L 13683.9,3025.68 L 13434.6,3169.87 Z "
     id="path114" />
  <path
     stroke="transparent"
     fill="#000000"
     transform="matrix(0.05 0 0 0.05 -569 -148)"
     d="M 13185.1,3026.07 L 13185.1,3012.21 L 13434.6,3156.02 L 13434.6,3169.87 L 13185.1,3026.07 Z "
     id="path116" />
  <path
     stroke="transparent"
     fill="#000000"
     transform="matrix(0.05 0 0 0.05 -569 -148)"
     d="M 12935.8,3170.26 L 12935.8,3156.41 L 13185.1,3012.21 L 13185.1,3026.07 L 12935.8,3170.26 Z "
     id="path118" />
  <path
     stroke="transparent"
     fill="#000000"
     transform="matrix(0.05 0 0 0.05 -569 -148)"
     d="M 12686.3,3026.46 L 12686.3,3012.6 L 12935.8,3156.41 L 12935.8,3170.26 L 12686.3,3026.46 Z "
     id="path120" />
  <path
     stroke="transparent"
     fill="#000000"
     transform="matrix(0.05 0 0 0.05 -569 -148)"
     d="M 12437,3170.65 L 12437,3156.8 L 12686.3,3012.6 L 12686.3,3026.46 L 12437,3170.65 Z "
     id="path122" />
  <path
     stroke="transparent"
     fill="#000000"
     transform="matrix(0.05 0 0 0.05 -569 -148)"
     d="M 12187.5,3026.85 L 12187.5,3012.99 L 12437,3156.8 L 12437,3170.65 L 12187.5,3026.85 Z "
     id="path124" />
  <path
     stroke="transparent"
     fill="#000000"
     transform="matrix(0.05 0 0 0.05 -569 -148)"
     d="M 11938.2,3171.04 L 11938.2,3157.18 L 12187.5,3012.99 L 12187.5,3026.85 L 11938.2,3171.04 Z "
     id="path126" />
  <path
     stroke="transparent"
     fill="#000000"
     transform="matrix(0.05 0 0 0.05 -569 -148)"
     d="M 11688.7,3027.24 L 11688.7,3013.38 L 11938.2,3157.18 L 11938.2,3171.04 L 11688.7,3027.24 Z "
     id="path128" />
  <path
     stroke="transparent"
     fill="#000000"
     transform="matrix(0.05 0 0 0.05 -569 -148)"
     d="M 11442.4,3169.7 L 11436.4,3159.31 L 11688.7,3013.38 L 11688.7,3027.24 L 11442.4,3169.7 Z "
     id="path130" />
  <path
     stroke="transparent"
     fill="#000000"
     transform="matrix(0.05 0 0 0.05 -569 -148)"
     d="M 14361.8,3436.99 L 14355.5,3437.12 L 14350.9,3431.12 L 14425.4,3165.04 L 14439.4,3159.29 L 14361.8,3436.99 Z "
     id="path132" />
</svg>
