<?xml version="1.0" encoding="UTF-8" standalone="no"?>
<svg
   width="1082.4208"
   height="1031.7302"
   viewBox="0 0 1082.4208 1031.7302"
   version="1.1"
   id="svg46"
   sodipodi:docname="pc61bm.svg"
   inkscape:version="1.1.2 (b8e25be833, 2022-02-05)"
   xmlns:inkscape="http://www.inkscape.org/namespaces/inkscape"
   xmlns:sodipodi="http://sodipodi.sourceforge.net/DTD/sodipodi-0.dtd"
   xmlns="http://www.w3.org/2000/svg"
   xmlns:svg="http://www.w3.org/2000/svg">
  <defs
     id="defs50" />
  <sodipodi:namedview
     id="namedview48"
     pagecolor="#ffffff"
     bordercolor="#666666"
     borderopacity="1.0"
     inkscape:pageshadow="2"
     inkscape:pageopacity="0.0"
     inkscape:pagecheckerboard="0"
     showgrid="false"
     inkscape:zoom="0.35355339"
     inkscape:cx="212.13203"
     inkscape:cy="56.568542"
     inkscape:window-width="1920"
     inkscape:window-height="1217"
     inkscape:window-x="-8"
     inkscape:window-y="-8"
     inkscape:window-maximized="1"
     inkscape:current-layer="g2737" />
  <g
     id="g2737"
     transform="translate(294.36719,256.8351)">
    <path
       style="fill:#000000"
       d="m -24.867191,763.75387 -33,-11.1412 -53.473269,-38.09502 -53.47328,-38.09498 -9.30112,-12 c -5.11562,-6.6 -14.94521,-19.30876 -21.84354,-28.24169 l -12.54241,-16.2417 -22.81382,-64.2583 -22.81381,-64.25831 -1.0569,-35.80134 c -0.85408,-28.93083 -0.80747,-36.51113 0.24291,-39.5 0.71489,-2.03426 9.32047,-30.24866 19.1235,-62.69866 15.81678,-52.35674 18.23771,-59.56299 21.50067,-64 2.02234,-2.75 11.37291,-15.86159 20.77905,-29.13687 l 17.10206,-24.13687 57.06215,-40.7032 57.062139,-40.7032 32.59919,-11.15993 L 2.8855191,132.42267 33.696059,76.942899 c 16.9458,-30.51388 30.72644,-55.53774 30.62364,-55.60859 -1.4669,-1.01104 -116.76782,-67.41164 -117.05654,-67.41164 -0.22202,0 -26.66718,15.35456 -58.767009,34.12124 -32.09984,18.7666904 -58.85844,34.31397 -59.46356,34.54952 -0.92092,0.35847 -118.37356,-66.86047 -122.14978,-69.90714 -0.97842,-0.78939 -1.25,-16.16436 -1.25,-70.765089 v -69.75657 l 59.25,-33.79485 c 32.5875,-18.58716 60.15,-34.3541 61.25,-35.03765 1.78218,-1.10745 8.58915,2.55013 62.5,33.58295 l 60.499999,34.82575 0.5,69.28897 0.5,69.288969 58.4599501,33.82837 c 32.1529699,18.6056104 59.0170799,33.61459 59.6980099,33.35329 1.0952,-0.42027 112.745191,-64.93905 117.303381,-67.78569 1.52776,-0.9541 10.86845,4.16762 60.64726,33.25435 32.36274,18.9101804 59.52761,34.38205 60.36638,34.38192 0.83876,-1.3e-4 28.24219,-15.4706596 60.89652,-34.37896 50.11671,-29.0198 59.6522,-34.20342 61.17227,-33.25412 4.86697,3.03947 116.24324,67.37765 117.4189,67.82879 0.74728,0.28676 23.27238,-12.1719396 50.05577,-27.686 47.78789,-27.68075 50.36368,-28.94767 50.46625,-24.82212 0.008,0.33876 -20.00611,12.19693 -44.47674,26.3514804 l -44.49205,25.7355596 -0.25795,58.64851 -0.25795,58.648521 -2.25,0.31955 -2.25,0.31955 V 77.469169 19.876559 l -2.56201,1.6787 c -2.38158,1.56047 -2.80414,1.56323 -6,0.0392 l -3.43799,-1.63943 v 57.48382 c 0,56.817151 -0.0232,57.483821 -2,57.483821 -1.97733,0 -2,-0.66667 -2,-58.802341 v -58.80233 l -54.25,-31.35299 c -29.8375,-17.24415 -54.6,-31.54238 -55.02778,-31.77385 -0.66703,-0.36093 -105.29306,59.509 -116.04144,66.40216 -2.10057,1.34713 -4.36939,2.30984 -5.04182,2.13934 -0.67244,-0.17049 -27.61663,-15.7515196 -59.87598,-34.62451 -53.83234,-31.49402 -58.84281,-34.21389 -60.95817,-33.09035 -3.23493,1.71819 -114.236701,66.00753 -114.611341,66.37992 -0.1686,0.16757 14.46686,24.76674 32.523241,54.66482 l 32.82978,54.360131 32.47675,11.00296 32.47676,11.00297 55.5,37.56119 55.5,37.5612 21.78324,27.93584 c 11.98078,15.36471 21.96982,28.38584 22.19785,28.93584 0.22803,0.55 9.50616,29.35 20.61805,64 l 20.20344,63 1.77866,36.46892 1.77866,36.46893 -19.62267,63.03107 -19.62267,63.03108 -20.84621,27.82953 c -19.23646,25.68052 -21.51889,28.3424 -29.55728,34.47121 -4.79109,3.65292 -29.41107,22.59522 -54.71107,42.09398 l -46,35.45228 -32.85359,10.7426 -32.8536,10.7426 -44.1464,1.0724 c -24.280531,0.5898 -54.946411,1.2963 -68.146411,1.5701 l -23.9999999,0.4977 z m 107,5.1566 c 29.700001,-0.5638 56.025001,-1.2512 58.500001,-1.5274 2.475,-0.2762 17.23015,-4.6553 32.78923,-9.7313 l 28.28923,-9.2291 -29.26592,-10.3943 -29.26591,-10.3943 -67.023321,1.6113 -67.0233099,1.6114 -29.4968001,9.8674 -29.4968,9.8673 29.9968,10.1085 29.9968,10.1084 9,-0.4363 c 4.95,-0.24 33.3,-0.8977 63,-1.4616 z m 65.096261,-17.5975 c -0.364,-0.9486 -0.30957,-2.0417 0.12096,-2.4291 0.89643,-0.8066 23.53437,-7.9612 25.19025,-7.9612 0.60089,0 1.09253,0.8845 1.09253,1.9656 0,1.6347 -1.97826,2.5826 -11.75,5.6305 -6.4625,2.0157 -12.25443,3.8571 -12.87096,4.0919 -0.61652,0.2348 -1.41878,-0.3492 -1.78278,-1.2977 z m -172.596521,-13.5271 c 16.7751401,-5.5753 30.6383101,-10.2509 30.8070301,-10.3902 0.21053,-0.1738 -59.0070701,-81.06064 -65.3802701,-89.30459 -0.27236,-0.35231 -103.805699,-30.9505 -104.099119,-30.7654 -0.51456,0.32461 2.94358,66.20312 3.50409,66.75384 1.42361,1.39874 103.539429,73.84315 104.087449,73.84315 0.3193,0 14.30567,-4.5616 31.08082,-10.1368 z m -27.62409,-5.3267 c -0.35267,-0.919 -0.24396,-2.0345 0.24157,-2.4789 0.82102,-0.7513 40.11866,-14.0576 41.51674,-14.0576 0.34803,0 0.86251,0.87851 1.1433,1.95224 0.4555101,1.74187 -1.66009,2.67365 -19.63337,8.64716 -11.07914,3.6823 -20.7026,6.9005 -21.38546,7.1516 -0.68286,0.2511 -1.53012,-0.2954 -1.88278,-1.2145 z m 315.529321,-28.0365 53.30554,-41 -0.63383,-26 c -0.34861,-14.3 -0.88676,-28.55815 -1.19588,-31.68477 l -0.56203,-5.68478 -52.15939,17.57501 c -28.68766,9.66625 -52.90365,18.2994 -53.81331,19.18477 -2.30551,2.24396 -59.84607,85.80847 -59.84607,86.91277 0,0.9692 58.80907,22.2413 60.54972,21.9018 0.57735,-0.1127 25.03721,-18.6548 54.35525,-41.2048 z m -172.097681,20.0979 c 28.219021,-0.7219 51.684901,-1.7142 52.146411,-2.2052 0.46151,-0.491 14.44101,-20.6199 31.06555,-44.73091 l 30.22643,-43.83822 -1.95435,-2.66178 c -1.0749,-1.46399 -15.77452,-21.88469 -32.66584,-45.37935 -16.89132,-23.49466 -31.02964,-42.88349 -31.41849,-43.0863 -0.38885,-0.2028 -30.36595,0.5701 -66.615771,1.71756 l -65.9087799,2.0863 -30.8517101,44.69554 -30.85172,44.69554 33.26049,45.03981 33.26049,45.03981 14.5,-0.03 c 7.975,-0.017 37.58828,-0.6208 65.80729,-1.3427 z m 44.314591,-16.50235 c -1.70351,-1.07783 -3.61367,2.00252 20.21277,-32.59555 33.03995,-47.97689 30.71542,-44.8785 32.40319,-43.19073 1.70597,1.70596 4.34418,-2.47547 -28.51243,45.19073 -11.75267,17.05 -21.6738,31.10518 -22.04695,31.23374 -0.37315,0.12856 -1.29861,-0.15863 -2.05658,-0.63819 z M 13.986569,561.40216 c -0.34063,-0.88766 -0.22207,-1.97397 0.26346,-2.41403 0.68031,-0.6166 100.489781,-4.20937 113.632781,-4.09036 2.02828,0.0184 2.75,0.52453 2.75,1.92867 0,2.36127 -4.26855,2.65979 -58.500001,4.09122 -20.9,0.55166 -42.39356,1.24948 -47.76346,1.55072 -8.38836,0.47057 -9.85069,0.3204 -10.38278,-1.06622 z m -181.331399,73.2693 -1.27692,-29.85337 -22.65626,-63.69771 -22.65625,-63.69771 -18.46647,-24.37867 c -16.81089,-22.19307 -18.49384,-24.10777 -18.77185,-21.35689 -0.16796,1.66199 0.12796,15.81089 0.65759,31.44201 l 0.96298,28.42022 22.1829,62.43667 c 12.20059,34.34016 22.92968,63.60085 23.84241,65.02376 4.72906,7.37238 36.71664,47.65184 37.05915,46.6657 0.2198,-0.63285 -0.17497,-14.58466 -0.87728,-31.00401 z m -13.04594,-5.37744 c -9.37013,-12.0675 -9.19866,-11.75146 -7.09038,-13.06811 1.52387,-0.95167 2.88206,0.37452 10.1169,9.8786 6.63673,8.71835 8.06244,11.16408 6.92689,11.88269 -0.7864,0.49766 -1.66544,0.91174 -1.95341,0.92016 -0.28797,0.008 -3.88797,-4.31758 -8,-9.61334 z m 519.4339,3.75921 c 9.63352,-12.85319 18.19648,-25.22819 19.02879,-27.5 0.83232,-2.27181 9.69059,-30.45556 19.68506,-62.63056 l 18.17175,-58.5 -1.1615,-28 c -0.63882,-15.4 -1.1554,-29.71406 -1.14796,-31.80902 0.007,-2.09496 -0.38511,-3.56263 -0.87235,-3.2615 -0.80775,0.49921 -28.68087,39.71115 -32.39301,45.57052 -0.87112,1.375 -10.65795,31.075 -21.74853,66 l -20.16467,63.5 0.72735,30.28957 c 0.40004,16.65926 1.0946,30.15926 1.54346,30 0.44886,-0.15926 8.69808,-10.80582 18.33161,-23.65901 z m -16.23171,-3.41535 c -0.87595,-1.05545 0.76051,-3.82016 7.47274,-12.62477 7.59214,-9.95881 8.76707,-11.10059 10.07597,-9.79169 1.30891,1.3089 0.52941,2.74801 -6.68479,12.34146 -4.49156,5.97289 -8.52104,10.98728 -8.95441,11.14309 -0.43337,0.15582 -1.29265,-0.32482 -1.90951,-1.06809 z m 10.50641,-37.46521 c -0.84067,-1.45607 34.61248,-111.25 35.92332,-111.25 0.70049,0 1.57651,0.49008 1.94671,1.08907 0.37019,0.59899 -7.14075,25.79235 -16.69099,55.98525 -13.90275,43.95332 -17.70114,54.89913 -19.05504,54.91093 -0.93004,0.008 -1.88584,-0.32275 -2.124,-0.73525 z m 45.89594,-117.42609 c -0.22714,-0.72815 -0.67237,-7.51141 -0.98939,-15.07391 l -0.5764,-13.75 h 2.49241 2.49242 l 0.19444,11.5 c 0.10695,6.325 0.21945,12.95634 0.25,14.7363 0.0398,2.31701 -0.4424,3.33221 -1.69746,3.57391 -0.96417,0.18568 -1.93887,-0.25815 -2.16602,-0.9863 z M -28.922691,588.43013 1.7611691,543.9376 -20.553011,481.23817 l -22.31418,-62.69943 -51.98573,-15.31279 c -28.592149,-8.42204 -52.296279,-15.19815 -52.675839,-15.05804 -0.37957,0.14012 -14.45281,20.20848 -31.27388,44.59635 l -30.58375,44.34159 22.26794,62.64691 22.26795,62.64692 51.49165,15.2039 c 28.320409,8.36215 52.000299,15.22982 52.621979,15.2615 0.62168,0.0317 14.93806,-19.96405 31.81418,-44.43495 z m -80.890659,17.55655 c -23.62039,-7.00754 -43.07557,-13.15116 -43.23375,-13.65249 -1.28699,-4.07923 7.15222,-1.97967 82.429909,20.50744 5.79353,1.73065 7.25,2.55901 7.25,4.12339 0,1.23491 -0.64608,1.92165 -1.75,1.86014 -0.9625,-0.0536 -21.07577,-5.83094 -44.696159,-12.83848 z m 370.44616,7.30015 c 28.875,-9.71922 52.81283,-17.9397 53.19518,-18.26773 0.38235,-0.32804 9.73631,-29.08589 20.78658,-63.90634 l 20.0914,-63.30991 -22.82105,-28.69009 c -40.16061,-50.48899 -45.61445,-57.19009 -46.5454,-57.19009 -0.78209,0 -105.81858,33.99355 -106.42632,34.44335 -0.12079,0.0894 -8.60013,27.86133 -18.843,61.71541 l -18.62339,61.55287 32.82868,45.64419 c 18.05578,25.1043 33.06013,45.65216 33.343,45.66192 0.28288,0.01 24.13932,-7.93436 53.01432,-17.65358 z M 73.955729,539.87277 c 34.710621,-1.12744 63.223051,-2.16274 63.360981,-2.30067 0.35085,-0.35085 37.18177,-122.12295 36.98028,-122.26593 -0.0903,-0.0641 -23.24215,-16.84663 -51.44856,-37.29457 -28.206411,-20.44795 -51.887151,-37.40939 -52.623881,-37.6921 -0.97011,-0.37226 -101.64528,71.11115 -107.91078,76.62099 -0.59149,0.52015 36.3901901,106.89579 42.8418901,123.23218 0.83932,2.12523 -6.90116,2.15897 68.8000699,-0.2999 z M -181.69488,429.42267 c 15.91532,-23.1 29.31483,-42.62465 29.7767,-43.38812 0.77087,-1.27426 0.84873,-107.14747 0.0794,-107.91684 -0.18592,-0.18593 -11.96837,3.3411 -26.18321,7.83784 -14.21484,4.49675 -28.2035,8.86544 -31.0859,9.70822 -4.48037,1.31 -5.36669,1.98403 -6.10876,4.64561 -0.47741,1.71231 -8.8523,29.47149 -18.61086,61.68707 l -17.74284,58.57378 19.77842,26.1994 c 10.87809,14.40967 20.08927,25.85147 20.46924,25.42622 0.37998,-0.42525 13.71249,-19.67318 29.62781,-42.77318 z m -41.71142,8.06069 c -12.12571,-16.07608 -14.00961,-19.56069 -10.5752,-19.56069 1.70556,0 27.87122,34.77529 27.10207,36.01981 -1.54701,2.5031 -4.26871,-0.20745 -16.52687,-16.45912 z m 597.68796,1.91909 c 9.322,-13.21112 17.2654,-24.53202 17.652,-25.15755 0.56076,-0.90732 -38.58233,-125.88708 -39.83045,-127.17443 -0.54284,-0.5599 -64.92973,-20.0218 -65.23368,-19.71786 -0.15057,0.15058 0.23368,25.16413 0.8539,55.58568 l 1.12766,55.31191 34.11221,42.78155 c 18.76171,23.52986 34.17005,42.69366 34.24074,42.58624 0.0707,-0.10743 7.75562,-11.00442 17.07762,-24.21554 z M 13.632809,374.4939 c 48.76711,-35.3318 53.48254,-38.99568 53.3026,-41.41601 -0.10857,-1.46037 -1.44471,-26.18825 -2.96919,-54.95085 -1.52448,-28.7626 -3.01065,-52.65671 -3.30259,-53.09804 -0.29195,-0.44132 -23.87155,-7.64033 -52.3991199,-15.99779 -44.6285501,-13.07443 -52.1277801,-15.01486 -53.7273801,-13.90197 -1.02249,0.71139 -24.4079,19.06843 -51.96756,40.79343 l -50.108479,39.5 0.6755,54 c 0.37153,29.7 0.74766,54.05634 0.83586,54.12519 1.26992,0.99141 102.728229,30.21741 104.160359,30.00436 1.1,-0.16365 26.075,-17.73989 55.5,-39.05832 z m -105.45542,12.44933 c -23.625469,-7.01418 -43.080659,-13.15074 -43.233739,-13.63681 -1.191,-3.78168 1.98729,-3.17071 37.244569,7.15958 55.47158,16.25302 52.44459,15.24361 52.44459,17.48881 0,1.25061 -0.63785,1.9266 -1.75,1.85466 -0.9625,-0.0623 -21.07994,-5.85207 -44.70542,-12.86624 z m 323.455421,7.60739 52.5,-17.24142 -0.17921,-8.44327 c -0.0986,-4.64379 -0.48838,-29.86737 -0.86627,-56.05239 l -0.68705,-47.60913 -51.53175,-36.39087 c -28.34246,-20.01498 -52.19422,-36.78099 -53.00391,-37.25781 -0.98129,-0.57788 -19.85425,4.73311 -56.60198,15.9282 -30.321411,9.23732 -55.273601,16.89621 -55.449311,17.01975 -0.65773,0.46243 5.8383,110.83575 6.56312,111.51317 3.09083,2.88873 104.791261,75.89158 105.653571,75.8405 0.60654,-0.0359 24.72779,-7.82395 53.60279,-17.30673 z m -99.50189,-30.23534 c -24.74896,-17.93475 -45.305321,-32.89753 -45.680791,-33.25062 -0.37547,-0.3531 -0.1305,-1.38896 0.54438,-2.30192 1.08564,-1.46862 6.46557,2.13876 46.682681,31.30199 42.0154,30.46726 47.96421,35.35508 44.45373,36.52524 -0.55103,0.18367 -21.25103,-14.33993 -46,-32.27469 z m 135.12401,-20.14261 c -0.33203,-14.1625 -0.84874,-35.7625 -1.14824,-48 l -0.54454,-22.25 h 2.53533 2.53533 v 13.33661 c 0,7.33513 0.29788,28.93513 0.66194,48 0.65861,34.48861 0.65162,34.66339 -1.38709,34.66339 -1.9967,0 -2.06446,-0.65766 -2.65273,-25.75 z M 76.977889,236.37954 c -0.32569,-0.84872 -0.32727,-1.80802 -0.004,-2.13177 0.54778,-0.54778 93.397321,-29.24861 94.791801,-29.30121 0.34835,-0.0131 0.86586,0.86515 1.15001,1.95175 0.45642,1.74535 -0.78311,2.37958 -10.63337,5.44078 -20.84804,6.47917 -83.747401,25.58358 -84.230911,25.58358 -0.26476,0 -0.74785,-0.69441 -1.07353,-1.54313 z m -255.218389,45.02117 27.62669,-8.77942 52.373309,-41.376 52.37331,-41.37601 21.11867,-24.72331 c 11.61526,-13.59781 20.8056401,-24.84734 20.4230501,-24.99895 -1.08216,-0.42882 -54.2289001,17.76427 -57.0417201,19.52641 -1.375,0.8614 -27.25,19.2173 -57.499999,40.79089 l -55,39.22471 -17.5,24.77345 c -9.625,13.6254 -17.67275,25.22121 -17.88388,25.76847 -0.47492,1.23098 -2.1557,1.70958 31.01057,-8.83024 z m -6.00481,-2.38249 c -0.85136,-0.53866 -1.0627,-1.39246 -0.55291,-2.23375 0.89687,-1.48009 15.42387,-22.08234 16.07827,-22.80228 0.22021,-0.24226 1.06713,0.22628 1.88205,1.0412 1.30889,1.30889 0.54466,2.81787 -6.55373,12.94047 -4.41947,6.30235 -8.35943,11.56399 -8.75548,11.69255 -0.39604,0.12856 -1.34023,-0.15863 -2.0982,-0.63819 z m 31.72812,-23.09555 c -0.0825,-0.55 -0.195,-1.39179 -0.25,-1.87063 -0.14237,-1.23957 88.691519,-71.19377 89.899999,-70.79373 0.55,0.18206 1,1.0714 1,1.9763 0,1.56045 -87.672239,71.68806 -89.623089,71.68806 -0.4823,0 -0.94441,-0.45 -1.02691,-1 z m 499.44296,23.75 c -0.52356,-0.6875 -9.22117,-11.97422 -19.32802,-25.08161 l -18.37608,-23.8316 -53.47718,-36.1684 c -29.41244,-19.89261 -54.62625,-36.80096 -56.03068,-37.57411 -3.4565,-1.90283 -58.29314,-20.16697 -57.89594,-19.28308 0.17322,0.38545 8.46438,11.51717 18.4248,24.73715 l 18.10986,24.03633 52.31007,36.95766 c 28.77053,20.32671 52.92057,37.32422 53.66674,37.77224 1.02739,0.61686 61.31517,19.34877 63.17591,19.62928 0.20485,0.0309 -0.0559,-0.50636 -0.57948,-1.19386 z m -33.55989,-16.53654 c -11.75387,-14.90595 -11.7091,-14.83743 -10.49157,-16.05496 0.63718,-0.63718 1.48423,-1.1585 1.88234,-1.1585 0.94199,0 16.87616,20.63486 16.87616,21.85476 0,0.51219 -0.66895,1.18796 -1.48656,1.50171 -0.99687,0.38253 -3.23041,-1.64106 -6.78037,-6.14301 z M 118.13281,203.87625 c 29.15,-8.86619 53.3741,-16.47942 53.83132,-16.91829 0.45723,-0.43886 -7.86777,-12.36132 -18.5,-26.49434 l -19.33132,-25.6964 -51.000001,0.58812 c -28.05,0.32346 -57.16104,0.85766 -64.6912,1.18712 l -13.6911999,0.599 -22.0588001,25.89147 c -12.13234,14.24031 -22.0588,26.24467 -22.0588,26.67636 0,0.91814 102.01865,31.09136 103.5,30.61134 0.55,-0.17822 24.85,-7.57819 54.000001,-16.44438 z m 5.18536,-73.84327 7.18535,-0.61031 -31.185351,-51.742551 c -17.15195,-28.4584 -31.43197,-51.7459 -31.73337,-51.75 -0.57255,-0.008 -58.9519899,104.574941 -58.9519899,105.608401 0,0.72243 104.6251409,-0.65106 114.6853609,-1.50554 z m -236.21995,-146.110311 57.474359,-33.5 0.0301,-68.148099 0.0301,-68.14809 -57.703849,-33.16523 c -37.83279,-21.74435 -58.35152,-32.99586 -59.58462,-32.67339 -1.03442,0.2705 -27.72078,15.23003 -59.30303,33.24339 l -57.42227,32.75157 0.25688,68.05644 0.25689,68.056429 58,33.69682 c 31.9,18.5332504 58.56049,33.61432 59.24552,33.51349 0.68504,-0.10083 27.10899,-15.2583296 58.71989,-33.68333 z m -111.96541,-10.60593 c -28.05,-16.25981 -51.19821,-29.76093 -51.44048,-30.00249 -0.24226,-0.24156 0.21485,-1.09453 1.01581,-1.89548 1.27504,-1.27505 7.80143,2.2131 52.44048,28.02775 48.39256,27.9852904 54.17188,31.8149004 49.98419,33.1214904 -0.55,0.17161 -23.95,-12.9914704 -52,-29.2512704 z m 153.499999,-90.894069 c 0,-58.83333 0.0224,-59.5 2,-59.5 1.97759,0 2,0.66667 2,59.5 0,58.833329 -0.0224,59.499999 -2,59.499999 -1.97759,0 -2,-0.66667 -2,-59.499999 z m -203.988319,-59.47818 c -0.93929,-1.75508 -0.40754,-2.34556 4.71481,-5.23552 3.17543,-1.79154 26.46256,-15.06395 51.74919,-29.49425 38.39959,-21.91347 46.12119,-25.97689 46.85875,-24.65895 0.57843,1.0336 0.41433,2.01262 -0.47568,2.8379 -0.74731,0.69297 -22.95875,13.52285 -49.35875,28.51086 -26.4,14.98801 -48.99667,27.87355 -50.21482,28.63454 -1.97613,1.23449 -2.3289,1.17042 -3.2735,-0.59458 z m 814.48832,354.56654 c -12.06422,-5.36199 -14.15642,-24.96812 -3.61124,-33.8413 2.78223,-2.3411 8.6537,-4.73591 11.61124,-4.73591 2.95754,0 8.82901,2.39481 11.61124,4.73591 10.56437,8.88933 8.33939,28.82409 -3.78243,33.88891 -4.11258,1.71835 -11.90824,1.6949 -15.82881,-0.0476 z m 14.80351,-4.77049 c 5.6068,-2.93943 7.73927,-15.95516 3.6996,-22.58078 -4.20726,-6.90047 -12.94868,-7.93803 -19.27264,-2.28757 -2.93916,2.62613 -3.20847,3.40161 -3.54109,10.19639 -0.31479,6.43075 -0.0624,7.79353 2.00994,10.85409 3.66307,5.40975 10.96069,7.03866 17.10419,3.81787 z M 728.63281,-12.240221 c -20.075,-11.60193 -36.6231,-21.19711 -36.7735,-21.32263 -0.5429,-0.4529 1.0064,-3.51448 1.7784,-3.51448 0.6166,0 92.64468,53.306498 94.32898,54.621438 0.2239,0.1748 0,1.20672 -0.5,2.29315 -0.8348,1.81788 -25.24348,-12.6645976 -58.83388,-32.077478 z m -68.77688,-17.9557 c -13.20226,-6.53499 -13.15216,-29.38052 0.0785,-35.78536 5.13141,-2.48407 10.38017,-2.67368 15.44393,-0.55791 4.95886,2.07194 7.18895,4.20404 9.37378,8.96186 3.5091,7.64174 1.6397,19.91297 -3.76467,24.71186 -5.56046,4.93755 -14.31524,6.04354 -21.13151,2.66955 z m 14.80961,-4.39834 c 4.10122,-2.12082 6.16727,-6.67584 6.16727,-13.59695 0,-10.20322 -5.49547,-15.78047 -14.37549,-14.58941 -2.79019,0.37425 -5.12913,1.54637 -7.18182,3.59906 -2.6242,2.6242 -3.10029,3.92695 -3.45165,9.44487 -0.47569,7.47071 1.3163,12.27048 5.56462,14.90457 3.42498,2.12359 9.42269,2.23104 13.27707,0.23786 z"
       id="path1215"
       sodipodi:nodetypes="ccccsscccssssscccccscssssscsssccccsssssssscscccccccsscssscsssssssscccccssscccccssscccssccssscccccccccsssssssssssssssssssssssscsscsssssssscssssccccccsssssssssssssssscccssscsssssssscsssscscssscssssssssssssssssscccssssscccssscccsssssssssssscsssscscsssssssssssssssscsssssssssssscsssssssssscssssssssssscsscssssssssssssssscccssssscsscssscccsssscsssssssssssssssssscsssscssssssssssssscsscssssscscssccccssscccssscssssssssssssssssssssssssssssssssscsscsssssssssssssss" />
  </g>
</svg>
