<?xml version="1.0" encoding="UTF-8"?>
<svg width="700pt" height="700pt" version="1.1" viewBox="0 0 700 700" xmlns="http://www.w3.org/2000/svg">
 <g>
  <path d="m180.59 254.05c-30.891-20.602-48.367-33.406-48.367-57.098 0-23.652 17.477-36.449 48.359-57.027 33.898-22.586 76.086-50.699 76.086-108.82 0-11.113-5.9297-21.383-15.559-26.941-9.625-5.5586-21.484-5.5586-31.109 0-9.625 5.5586-15.555 15.828-15.555 26.941 0 23.66-17.477 36.461-48.367 57.035-33.895 22.59-76.078 50.699-76.078 108.81 0 58.137 42.18 86.262 76.07 108.87 30.898 20.598 48.375 33.414 48.375 57.102 0 23.691-17.477 36.496-48.367 57.094-33.898 22.609-76.078 50.734-76.078 108.87 0 11.113 5.9297 21.383 15.555 26.941 9.625 5.5586 21.484 5.5586 31.113 0 9.625-5.5586 15.555-15.828 15.555-26.941 0-23.691 17.477-36.496 48.367-57.094 33.898-22.609 76.078-50.734 76.078-108.87 0-58.141-42.188-86.27-76.078-108.87z"/>
  <path d="m367.26 254.05c-30.891-20.602-48.367-33.406-48.367-57.098 0-23.652 17.477-36.449 48.359-57.027 33.898-22.586 76.082-50.699 76.082-108.82 0-11.113-5.9297-21.383-15.555-26.941-9.625-5.5586-21.484-5.5586-31.109 0-9.6289 5.5586-15.559 15.828-15.559 26.941 0 23.66-17.477 36.457-48.367 57.035-33.891 22.59-76.074 50.699-76.074 108.81 0 58.137 42.18 86.262 76.07 108.87 30.895 20.598 48.371 33.414 48.371 57.102 0 23.691-17.477 36.496-48.367 57.094-33.898 22.609-76.074 50.734-76.074 108.87 0 11.113 5.9297 21.383 15.555 26.941 9.625 5.5586 21.484 5.5586 31.109 0 9.6289-5.5586 15.559-15.828 15.559-26.941 0-23.691 17.477-36.496 48.367-57.094 33.898-22.609 76.074-50.734 76.074-108.87 0-58.141-42.184-86.27-76.074-108.87z"/>
  <path d="m553.92 254.05c-30.891-20.602-48.367-33.406-48.367-57.098 0-23.652 17.477-36.449 48.359-57.027 33.902-22.586 76.086-50.699 76.086-108.82 0-11.113-5.9297-21.383-15.555-26.941-9.625-5.5586-21.484-5.5586-31.113 0-9.625 5.5586-15.555 15.828-15.555 26.941 0 23.66-17.477 36.457-48.367 57.035-33.891 22.59-76.078 50.699-76.078 108.81 0 58.137 42.18 86.262 76.07 108.87 30.898 20.598 48.375 33.414 48.375 57.102 0 23.691-17.477 36.496-48.367 57.094-33.898 22.609-76.078 50.734-76.078 108.87 0 11.113 5.9297 21.383 15.559 26.941 9.625 5.5586 21.484 5.5586 31.109 0 9.625-5.5586 15.555-15.828 15.555-26.941 0-23.691 17.477-36.496 48.367-57.094 33.898-22.609 76.078-50.734 76.078-108.87 0-58.141-42.184-86.27-76.078-108.87z"/>
 </g>
</svg>
