<?xml version="1.0" encoding="UTF-8" standalone="no"?>
<!-- Created with Inkscape (http://www.inkscape.org/) -->

<svg
   width="139.23245mm"
   height="22.164343mm"
   viewBox="0 0 139.23245 22.164343"
   version="1.1"
   id="svg5"
   inkscape:version="1.1.2 (b8e25be833, 2022-02-05)"
   sodipodi:docname="score.svg"
   xmlns:inkscape="http://www.inkscape.org/namespaces/inkscape"
   xmlns:sodipodi="http://sodipodi.sourceforge.net/DTD/sodipodi-0.dtd"
   xmlns:xlink="http://www.w3.org/1999/xlink"
   xmlns="http://www.w3.org/2000/svg"
   xmlns:svg="http://www.w3.org/2000/svg">
  <sodipodi:namedview
     id="namedview7"
     pagecolor="#ffffff"
     bordercolor="#666666"
     borderopacity="1.0"
     inkscape:pageshadow="2"
     inkscape:pageopacity="0.0"
     inkscape:pagecheckerboard="0"
     inkscape:document-units="mm"
     showgrid="false"
     inkscape:zoom="0.70710678"
     inkscape:cx="123.74369"
     inkscape:cy="-77.781746"
     inkscape:window-width="1920"
     inkscape:window-height="1217"
     inkscape:window-x="-8"
     inkscape:window-y="-8"
     inkscape:window-maximized="1"
     inkscape:current-layer="g19222" />
  <defs
     id="defs2">
    <linearGradient
       inkscape:collect="always"
       id="linearGradient19590">
      <stop
         style="stop-color:#000000;stop-opacity:1;"
         offset="0"
         id="stop19586" />
      <stop
         style="stop-color:#000000;stop-opacity:0;"
         offset="1"
         id="stop19588" />
    </linearGradient>
    <linearGradient
       inkscape:collect="always"
       id="linearGradient19388">
      <stop
         style="stop-color:#000000;stop-opacity:1;"
         offset="0"
         id="stop19384" />
      <stop
         style="stop-color:#000000;stop-opacity:0;"
         offset="1"
         id="stop19386" />
    </linearGradient>
    <linearGradient
       inkscape:collect="always"
       xlink:href="#linearGradient19388"
       id="linearGradient19390"
       x1="237.68338"
       y1="120.06383"
       x2="240.78772"
       y2="120.06383"
       gradientUnits="userSpaceOnUse" />
    <linearGradient
       inkscape:collect="always"
       xlink:href="#linearGradient19388"
       id="linearGradient19576"
       x1="238.41357"
       y1="118.40902"
       x2="240.78772"
       y2="118.40902"
       gradientUnits="userSpaceOnUse" />
    <linearGradient
       inkscape:collect="always"
       xlink:href="#linearGradient19388"
       id="linearGradient19578"
       x1="238.41357"
       y1="120.26937"
       x2="240.78772"
       y2="120.26937"
       gradientUnits="userSpaceOnUse" />
    <linearGradient
       inkscape:collect="always"
       xlink:href="#linearGradient19388"
       id="linearGradient19580"
       x1="238.41357"
       y1="122.16305"
       x2="240.78772"
       y2="122.16305"
       gradientUnits="userSpaceOnUse" />
    <linearGradient
       inkscape:collect="always"
       xlink:href="#linearGradient19388"
       id="linearGradient19582"
       x1="238.41357"
       y1="116.53213"
       x2="240.78772"
       y2="116.53213"
       gradientUnits="userSpaceOnUse" />
    <linearGradient
       inkscape:collect="always"
       xlink:href="#linearGradient19388"
       id="linearGradient19584"
       x1="238.41357"
       y1="114.51468"
       x2="240.78772"
       y2="114.51468"
       gradientUnits="userSpaceOnUse" />
    <linearGradient
       inkscape:collect="always"
       xlink:href="#linearGradient19590"
       id="linearGradient19592"
       x1="238.41357"
       y1="118.40902"
       x2="240.78772"
       y2="118.40902"
       gradientUnits="userSpaceOnUse" />
    <linearGradient
       inkscape:collect="always"
       xlink:href="#linearGradient19590"
       id="linearGradient19594"
       x1="238.41357"
       y1="120.26937"
       x2="240.78772"
       y2="120.26937"
       gradientUnits="userSpaceOnUse" />
    <linearGradient
       inkscape:collect="always"
       xlink:href="#linearGradient19590"
       id="linearGradient19596"
       x1="238.41357"
       y1="122.16305"
       x2="240.78772"
       y2="122.16305"
       gradientUnits="userSpaceOnUse" />
    <linearGradient
       inkscape:collect="always"
       xlink:href="#linearGradient19590"
       id="linearGradient19598"
       x1="238.41357"
       y1="116.53213"
       x2="240.78772"
       y2="116.53213"
       gradientUnits="userSpaceOnUse" />
    <linearGradient
       inkscape:collect="always"
       xlink:href="#linearGradient19590"
       id="linearGradient19600"
       x1="238.41357"
       y1="114.51468"
       x2="240.78772"
       y2="114.51468"
       gradientUnits="userSpaceOnUse" />
    <linearGradient
       inkscape:collect="always"
       xlink:href="#linearGradient19388"
       id="linearGradient21606"
       gradientUnits="userSpaceOnUse"
       x1="237.68338"
       y1="120.06383"
       x2="240.78772"
       y2="120.06383"
       gradientTransform="matrix(3.7795276,0,0,3.7795276,-427.83088,-411.89919)" />
    <linearGradient
       inkscape:collect="always"
       xlink:href="#linearGradient19388"
       id="linearGradient22136"
       gradientUnits="userSpaceOnUse"
       x1="237.68338"
       y1="120.06383"
       x2="240.78772"
       y2="120.06383"
       gradientTransform="translate(37.373407,-2.9088542e-4)" />
    <linearGradient
       inkscape:collect="always"
       xlink:href="#linearGradient19388"
       id="linearGradient22140"
       gradientUnits="userSpaceOnUse"
       gradientTransform="translate(70.909343,-2.9088542e-4)"
       x1="237.68338"
       y1="120.06383"
       x2="240.78772"
       y2="120.06383" />
    <linearGradient
       inkscape:collect="always"
       xlink:href="#linearGradient19388"
       id="linearGradient22144"
       gradientUnits="userSpaceOnUse"
       gradientTransform="translate(93.663514,-4.0109317e-5)"
       x1="237.68338"
       y1="120.06383"
       x2="240.78772"
       y2="120.06383" />
    <linearGradient
       inkscape:collect="always"
       xlink:href="#linearGradient19388"
       id="linearGradient22148"
       gradientUnits="userSpaceOnUse"
       gradientTransform="translate(118.26977,-2.9088542e-4)"
       x1="237.68338"
       y1="120.06383"
       x2="240.78772"
       y2="120.06383" />
  </defs>
  <g
     inkscape:label="Layer 1"
     inkscape:groupmode="layer"
     id="layer1"
     transform="translate(-113.19692,-108.98166)">
    <g
       id="g19222"
       style="fill-opacity:1;fill:url(#linearGradient19390)">
      <path
         id="path1371"
         style="fill:url(#linearGradient19390);stroke-width:0.0334227;fill-opacity:1"
         d="m 142.51011,114.72219 c -0.46051,0.007 -1.0111,0.25212 -1.28209,0.6103 -0.23167,0.30543 -0.21402,0.23859 -0.22531,2.7802 l -0.0134,3.0334 v 0.74259 0.10336 l 5.15834,0.52296 v -0.10335 -0.74259 -1.34824 c 0,-1.64524 0.0124,-2.99155 0.0279,-2.99155 0.0156,0 0.0796,0.0255 0.14211,0.0568 0.18452,0.0921 0.64476,0.0996 0.92345,0.015 0.40702,-0.12363 0.7785,-0.41881 0.95292,-0.75706 0.0833,-0.16156 0.11653,-0.52777 0.0625,-0.69143 -0.0527,-0.15965 -0.20061,-0.2915 -0.41135,-0.3669 -0.48798,-0.17476 -1.29281,0.0986 -1.63969,0.55707 -0.23167,0.30543 -0.22531,0.23855 -0.22531,2.78019 v 2.28358 l -0.005,0.44494 -4.80487,-0.48731 v -1.65365 c 0,-1.64524 0.0124,-2.99155 0.0279,-2.99155 0.0156,0 0.0796,0.0255 0.14211,0.0568 0.18452,0.0921 0.64476,0.0996 0.92346,0.015 0.40701,-0.12363 0.77849,-0.41881 0.95291,-0.75705 0.0833,-0.16157 0.11653,-0.52778 0.0625,-0.69144 -0.0527,-0.15965 -0.2006,-0.2915 -0.41134,-0.3669 -0.10675,-0.0382 -0.22866,-0.0551 -0.3576,-0.0532 z" />
      <g
         id="g2879"
         transform="matrix(0.1242506,0,0,0.1242506,90.081252,105.03503)"
         style="fill-opacity:1;fill:url(#linearGradient19390)">
        <path
           style="fill:url(#linearGradient19390);stroke-width:0.264583;fill-opacity:1"
           d="m 375.25559,85.731984 c 1.66812,0.59745 2.83649,1.64037 3.25362,2.90429 0.42757,1.29553 0.16628,4.19624 -0.49318,5.47517 -1.38075,2.67777 -4.32298,5.01507 -7.54499,5.993726 -2.20617,0.67011 -5.84822,0.61049 -7.30892,-0.119645 -0.4953,-0.24756 -1.00132,-0.45012 -1.12448,-0.45012 -0.12316,0 -0.22393,10.656085 -0.22393,23.680205 v 23.10969 c 0,0 -0.13648,0.55544 -0.65642,0.57051 -0.51994,0.0151 -0.73182,-0.38239 -0.77381,-0.59531 -0.042,-0.21293 0.10731,-16.07344 0.10731,-16.07344 v -18.07593 c 0,-20.120226 -0.043,-19.590536 1.78635,-22.008436 2.74609,-3.62959 9.1155,-5.79423 12.97845,-4.41071 z"
           id="path2183"
           sodipodi:nodetypes="sssssssczzcsss" />
        <path
           style="fill:url(#linearGradient19390);stroke-width:0.264583;fill-opacity:1"
           d="m 361.73089,130.205 -0.84336,0.0512 -0.006,16.27266 0.18271,0.34494 c 0,0 0.68983,-0.16946 0.77381,-0.59531 1.07945,-5.47419 2.35627,-8.20778 5.63498,-12.06412 6.87284,-8.08368 8.03497,-9.86715 9.07221,-13.92272 0.99351,-3.88459 0.56889,-7.86581 -1.35723,-12.7252 -1.54589,-3.90011 -3.20406,-6.84283 -3.9158,-6.94928 -0.56145,-0.084 -0.56724,-0.061 -0.17518,0.69721 0.22299,0.43123 1.01222,2.25624 1.75384,4.05559 2.97278,7.21275 3.12453,11.2888 0.60749,16.31765 -1.11847,2.23459 -3.67491,5.13151 -5.71082,6.4714 -1.62685,1.07067 -4.12145,2.04603 -5.23297,2.04603 h -0.78383"
           id="path1373"
           sodipodi:nodetypes="cccscsssssssscc" />
      </g>
      <path
         style="fill:url(#linearGradient19390);stroke-width:0.0334227;fill-opacity:1"
         d="m 155.0222,115.58567 c 0.21074,0.0754 0.35832,0.20722 0.41101,0.36687 0.054,0.16366 0.021,0.53009 -0.0623,0.69165 -0.17442,0.33825 -0.54608,0.6335 -0.95309,0.75713 -0.2787,0.0846 -0.73877,0.0771 -0.92329,-0.015 -0.0625,-0.0313 -0.12648,-0.0569 -0.14204,-0.0569 -0.0155,0 -0.0283,1.3461 -0.0283,2.99134 v 2.67561 h -0.083 c -0.0593,0 -0.0872,-0.0214 -0.0978,-0.0751 l 0.0135,-1.71473 v -2.28338 c 0,-2.54164 -0.006,-2.47473 0.22567,-2.78016 0.34688,-0.45848 1.15148,-0.73193 1.63946,-0.55717 z"
         id="path2883"
         sodipodi:nodetypes="ssssssscsccssss" />
      <path
         style="fill:url(#linearGradient19390);stroke-width:0.0334227;fill-opacity:1"
         d="m 165.83705,117.45429 c 0.21074,0.0754 0.35832,0.20722 0.41101,0.36687 0.054,0.16366 0.021,0.53009 -0.0623,0.69165 -0.17442,0.33825 -0.54608,0.6335 -0.95309,0.75713 -0.2787,0.0846 -0.73877,0.0771 -0.92329,-0.015 -0.0625,-0.0313 -0.12648,-0.0569 -0.14204,-0.0569 -0.0155,0 -0.0283,1.3461 -0.0283,2.99134 v 2.14942 h -0.083 c -0.0593,0 -0.0872,-0.0214 -0.0978,-0.0751 l 0.0135,-1.18854 v -2.28338 c 0,-2.54164 -0.006,-2.47473 0.22567,-2.78016 0.34688,-0.45848 1.15148,-0.73193 1.63946,-0.55717 z"
         id="path2885"
         sodipodi:nodetypes="ssssssscsccssss" />
      <path
         id="path2887"
         style="fill:url(#linearGradient19390);stroke-width:0.0334227;fill-opacity:1"
         d="m 173.50201,113.06855 v 0.94568 1.59938 c 0,1.64524 -0.0129,2.99103 -0.0284,2.99103 -0.0156,0 -0.0796,-0.0255 -0.14211,-0.0568 -0.18452,-0.0921 -0.64424,-0.0996 -0.92294,-0.015 -0.40701,0.12363 -0.77901,0.4188 -0.95343,0.75706 -0.0833,0.16156 -0.11601,0.52828 -0.062,0.69194 0.0527,0.15965 0.20009,0.2915 0.41083,0.36691 v -5.2e-4 c 0.48798,0.17476 1.29281,-0.0986 1.63969,-0.55707 0.23167,-0.30543 0.22583,-0.23856 0.22583,-2.7802 v -2.28306 l 0.006,-0.71365 h 4.09897 v 0.52451 c 0,1.64524 -0.0129,2.99104 -0.0284,2.99104 -0.0156,0 -0.0791,-0.0255 -0.14159,-0.0568 -0.18452,-0.0921 -0.64476,-0.0996 -0.92346,-0.015 -0.40701,0.12363 -0.77849,0.41881 -0.95292,0.75706 -0.0833,0.16156 -0.11652,0.52828 -0.0625,0.69194 0.0527,0.15965 0.20008,0.2915 0.41082,0.36691 l 5.2e-4,-5.2e-4 c 0.48798,0.17476 1.2923,-0.0986 1.63918,-0.55707 0.23167,-0.30543 0.22582,-0.23856 0.22582,-2.7802 v -1.92184 h 3.72897 v 1.61592 c 0,1.64524 -0.0129,2.99103 -0.0284,2.99103 -0.0156,0 -0.0796,-0.0255 -0.14211,-0.0568 -0.18452,-0.0921 -0.64424,-0.0996 -0.92294,-0.015 -0.40701,0.12363 -0.77901,0.41881 -0.95343,0.75706 -0.0833,0.16156 -0.11601,0.52829 -0.062,0.69195 0.0527,0.15965 0.20009,0.2915 0.41083,0.3669 v -5.1e-4 c 0.48798,0.17476 1.29229,-0.0986 1.63917,-0.55708 0.23167,-0.30543 0.21173,-0.23859 0.22583,-2.78019 l 0.017,-3.01325 v -0.94568 h -8.26978 z" />
      <path
         style="fill:url(#linearGradient19390);stroke-width:0.0334227;fill-opacity:1"
         d="m 186.63715,121.17542 c -0.21074,-0.0754 -0.35832,-0.20722 -0.41101,-0.36687 -0.054,-0.16366 -0.021,-0.53009 0.0623,-0.69165 0.17442,-0.33825 0.54608,-0.6335 0.95309,-0.75713 0.2787,-0.0846 0.73877,-0.0771 0.92329,0.015 0.0625,0.0313 0.12648,0.0569 0.14204,0.0569 0.0155,0 0.0283,-1.3461 0.0283,-2.99134 v -2.66886 h 0.083 c 0.0593,0 0.0872,0.0214 0.0978,0.0751 l -0.0135,1.70798 v 2.28338 c 0,2.54164 0.006,2.47473 -0.22567,2.78016 -0.34688,0.45848 -1.15148,0.73193 -1.63946,0.55717 z"
         id="path2893"
         sodipodi:nodetypes="ssssssscsccssss" />
      <path
         id="path2897"
         style="fill:url(#linearGradient19390);stroke-width:0.0334227;fill-opacity:1"
         d="m 203.89344,115.56555 c -0.46051,0.007 -1.01109,0.25211 -1.28209,0.6103 -0.23167,0.30543 -0.22531,0.23856 -0.22531,2.7802 v 2.28358 l -0.006,0.45992 -3.3321,0.41961 v -0.74001 c 0,-1.64524 0.0124,-2.99155 0.0279,-2.99155 0.0156,0 0.0796,0.0255 0.14211,0.0568 0.18452,0.0921 0.64476,0.0996 0.92345,0.015 0.40702,-0.12363 0.7785,-0.41881 0.95292,-0.75705 0.0833,-0.16157 0.11653,-0.52778 0.0625,-0.69144 -0.0527,-0.15965 -0.20061,-0.2915 -0.41135,-0.3669 h -5.2e-4 c -0.10674,-0.0382 -0.22865,-0.0551 -0.3576,-0.0532 -0.4605,0.007 -1.01057,0.25211 -1.28157,0.6103 -0.23167,0.30543 -0.20803,0.23861 -0.22583,2.7802 l -0.015,2.1611 v 0.7426 l 3.68659,-0.46458 v -0.0925 h 0.002 v -1.97404 c 0,-1.64524 0.0124,-2.99155 0.0279,-2.99155 0.0156,0 0.0796,0.0255 0.14211,0.0568 0.18452,0.0921 0.64475,0.0996 0.92345,0.015 0.40701,-0.12363 0.7785,-0.41881 0.95292,-0.75705 0.0833,-0.16157 0.11653,-0.52778 0.0625,-0.69144 -0.0527,-0.15965 -0.2006,-0.2915 -0.41134,-0.3669 -0.10674,-0.0382 -0.22866,-0.0551 -0.3576,-0.0532 z" />
      <g
         id="g2905"
         transform="matrix(0.1242506,0,0,0.1242506,150.6746,104.98825)"
         style="fill-opacity:1;fill:url(#linearGradient19390)">
        <path
           style="fill:url(#linearGradient19390);stroke-width:0.264583;fill-opacity:1"
           d="m 375.25559,85.731984 c 1.66812,0.59745 2.83649,1.64037 3.25362,2.90429 0.42757,1.29553 0.16628,4.19624 -0.49318,5.47517 -1.38075,2.67777 -4.32298,5.01507 -7.54499,5.993726 -2.20617,0.67011 -5.84822,0.61049 -7.30892,-0.119645 -0.4953,-0.24756 -1.00132,-0.45012 -1.12448,-0.45012 -0.12316,0 -0.22393,10.656085 -0.22393,23.680205 v 23.10969 c 0,0 -0.13648,0.55544 -0.65642,0.57051 -0.51994,0.0151 -0.73182,-0.38239 -0.77381,-0.59531 -0.042,-0.21293 0.10731,-16.07344 0.10731,-16.07344 v -18.07593 c 0,-20.120226 -0.043,-19.590536 1.78635,-22.008436 2.74609,-3.62959 9.1155,-5.79423 12.97845,-4.41071 z"
           id="path2901"
           sodipodi:nodetypes="sssssssczzcsss" />
        <path
           style="fill:url(#linearGradient19390);stroke-width:0.264583;fill-opacity:1"
           d="m 361.73089,130.205 -0.84336,0.0512 -0.006,16.27266 0.18271,0.34494 c 0,0 0.68983,-0.16946 0.77381,-0.59531 1.07945,-5.47419 2.35627,-8.20778 5.63498,-12.06412 6.87284,-8.08368 8.03497,-9.86715 9.07221,-13.92272 0.99351,-3.88459 0.56889,-7.86581 -1.35723,-12.7252 -1.54589,-3.90011 -3.20406,-6.84283 -3.9158,-6.94928 -0.56145,-0.084 -0.56724,-0.061 -0.17518,0.69721 0.22299,0.43123 1.01222,2.25624 1.75384,4.05559 2.97278,7.21275 3.12453,11.2888 0.60749,16.31765 -1.11847,2.23459 -3.67491,5.13151 -5.71082,6.4714 -1.62685,1.07067 -4.12145,2.04603 -5.23297,2.04603 h -0.78383"
           id="path2903"
           sodipodi:nodetypes="cccscsssssssscc" />
      </g>
      <text
         xml:space="preserve"
         style="font-size:5.52168px;line-height:1.25;font-family:SarabandeW00-RegularItalic;-inkscape-font-specification:SarabandeW00-RegularItalic;stroke-width:0.138042;fill-opacity:1;fill:url(#linearGradient19390)"
         x="130.8582"
         y="129.77663"
         id="text4833"><tspan
           sodipodi:role="line"
           id="tspan4831"
           style="stroke-width:0.138042;fill-opacity:1;fill:url(#linearGradient19390)"
           x="130.8582"
           y="129.77663">con mala grazia</tspan></text>
      <path
         style="fill:url(#linearGradient19390);stroke-width:0.00325261;fill-opacity:1"
         d="m 126.30314,130.27951 c -0.17347,-0.0122 -0.30944,-0.0741 -0.42452,-0.19338 -0.0963,-0.0999 -0.14974,-0.21282 -0.17134,-0.36229 -0.006,-0.0422 -0.005,-0.15001 0.002,-0.1984 0.0135,-0.0931 0.0371,-0.1693 0.0756,-0.24233 0.0676,-0.12818 0.1693,-0.19493 0.29711,-0.19493 0.0949,0 0.17775,0.0375 0.24035,0.1089 0.0585,0.0667 0.0845,0.16459 0.0653,0.24541 -0.0109,0.0456 -0.0289,0.0786 -0.0597,0.10923 -0.0228,0.0227 -0.0318,0.029 -0.0668,0.0466 -0.0481,0.0242 -0.0703,0.0406 -0.0904,0.0669 -0.0337,0.044 -0.0559,0.11605 -0.0466,0.15056 0.0117,0.0434 0.0561,0.0592 0.16627,0.0592 0.0635,0 0.093,-0.003 0.13781,-0.0145 0.0861,-0.0219 0.16612,-0.0764 0.22474,-0.15294 0.0596,-0.0778 0.13057,-0.2232 0.17179,-0.35182 0.008,-0.0253 0.0757,-0.28879 0.15016,-0.58548 0.0745,-0.29668 0.1864,-0.74241 0.2487,-0.9905 l 0.11328,-0.45107 -0.15172,-9.6e-4 c -0.16607,-9.7e-4 -0.1692,-0.002 -0.20845,-0.0221 -0.0257,-0.0133 -0.0349,-0.02 -0.0565,-0.0413 -0.0237,-0.0233 -0.0383,-0.0471 -0.0494,-0.0801 -0.0373,-0.11129 0.0238,-0.22979 0.13818,-0.26762 0.0163,-0.005 0.0365,-0.006 0.23062,-0.008 l 0.21273,-0.002 0.0216,-0.0537 c 0.11328,-0.28165 0.26586,-0.52111 0.47294,-0.7422 0.22204,-0.23708 0.45616,-0.38978 0.70958,-0.46285 0.12558,-0.0362 0.27712,-0.0559 0.36428,-0.0473 0.15807,0.0156 0.28578,0.0752 0.39295,0.18359 0.11621,0.11748 0.1789,0.26518 0.18651,0.43938 0.008,0.18322 -0.0566,0.38476 -0.1549,0.48312 -0.1084,0.10846 -0.28924,0.12079 -0.40935,0.028 -0.0773,-0.0598 -0.12214,-0.14298 -0.12663,-0.23473 -0.003,-0.0629 0.0202,-0.12375 0.0639,-0.16736 0.0215,-0.0214 0.031,-0.0279 0.0714,-0.0486 0.0387,-0.0198 0.0504,-0.0277 0.0683,-0.0454 0.0356,-0.0354 0.0572,-0.0808 0.0663,-0.13884 0.003,-0.0204 0.003,-0.0255 -0.002,-0.0383 -0.0155,-0.0405 -0.0606,-0.0529 -0.18181,-0.0499 -0.0584,9.7e-4 -0.0742,0.003 -0.10312,0.01 -0.13766,0.0328 -0.23921,0.11827 -0.30995,0.26086 -0.057,0.11496 -0.12092,0.28748 -0.16628,0.44886 -0.014,0.0498 -0.0442,0.16896 -0.0442,0.17436 0,9.7e-4 0.078,0.003 0.1732,0.004 l 0.1732,9.7e-4 0.0239,0.009 c 0.0337,0.0123 0.0568,0.0269 0.082,0.0521 0.039,0.0391 0.0593,0.089 0.0594,0.14561 8e-5,0.0599 -0.0188,0.1058 -0.0608,0.14816 -0.02,0.0201 -0.0322,0.0294 -0.0507,0.0384 -0.0492,0.0238 -0.0377,0.0228 -0.29386,0.0248 l -0.23044,0.002 -0.17525,0.57084 c -0.0964,0.31396 -0.18546,0.60096 -0.19792,0.63779 -0.11678,0.34488 -0.32727,0.75509 -0.53057,1.03397 -0.1443,0.19793 -0.31302,0.38006 -0.4536,0.48961 -0.16389,0.12772 -0.34048,0.20062 -0.52367,0.21617 -0.0215,0.002 -0.0413,0.003 -0.0439,0.003 -0.003,-2.9e-4 -0.0114,-9.7e-4 -0.0195,-0.002 z"
         id="path7437" />
      <path
         style="fill:url(#linearGradient19390);stroke-width:0.00559597;fill-opacity:1"
         d="m 127.62392,120.44433 c -0.37226,-0.2569 -0.61511,-0.50402 -0.70519,-0.7176 -0.0441,-0.1046 -0.0567,-0.18925 -0.0478,-0.32223 0.0151,-0.22578 0.0758,-0.36698 0.19177,-0.44576 0.0838,-0.0569 0.17532,-0.0798 0.38778,-0.0971 0.12643,-0.0103 0.22576,-0.0225 0.27968,-0.0343 0.0489,-0.0108 0.11484,-0.0312 0.11484,-0.0356 0,-0.002 -0.0294,-0.0347 -0.0652,-0.0731 -0.26895,-0.28764 -0.50291,-0.61379 -0.64009,-0.89232 -0.0555,-0.1128 -0.0841,-0.18632 -0.0973,-0.25018 -0.0118,-0.0571 -0.0112,-0.0818 0.003,-0.12353 0.0247,-0.0742 0.0704,-0.15057 0.28512,-0.47688 0.22055,-0.33513 0.28221,-0.44021 0.35588,-0.60646 0.0128,-0.0289 0.0133,-0.0352 0.0132,-0.15949 -6e-5,-0.0712 -0.002,-0.15314 -0.006,-0.18214 -0.0125,-0.11881 -0.053,-0.25747 -0.14647,-0.50127 -0.066,-0.17227 -0.0947,-0.25024 -0.0927,-0.2521 9.4e-4,-9.5e-4 0.0258,0.028 0.0556,0.0638 0.0681,0.082 0.18718,0.21752 0.4181,0.47575 0.39065,0.43682 0.52475,0.60284 0.57989,0.71789 0.0231,0.0483 0.0246,0.0726 0.008,0.13652 -0.023,0.0899 -0.0828,0.19687 -0.23457,0.4194 -0.15238,0.22345 -0.21501,0.3259 -0.27711,0.45327 -0.0838,0.17191 -0.12445,0.31146 -0.13729,0.47133 -0.009,0.11092 0.004,0.16884 0.0681,0.31491 0.11384,0.25786 0.41247,0.72668 0.68994,1.08311 0.0313,0.0402 0.0586,0.0759 0.0608,0.0794 0.002,0.003 -0.032,-0.0109 -0.0759,-0.0319 -0.20021,-0.0961 -0.33755,-0.12778 -0.52829,-0.12191 -0.11134,0.003 -0.17942,0.0183 -0.26327,0.0574 -0.0689,0.0321 -0.10782,0.0587 -0.16159,0.11012 -0.0802,0.0768 -0.1358,0.16699 -0.17326,0.28134 -0.0198,0.0605 -0.0364,0.15435 -0.0362,0.20516 1.8e-4,0.0842 0.0375,0.16993 0.14679,0.33784 0.0782,0.12014 0.1018,0.15958 0.0954,0.15927 -0.002,-1e-4 -0.0321,-0.0193 -0.066,-0.0427 z"
         id="path7648" />
      <path
         style="fill:url(#linearGradient19390);stroke-width:0.00666213;fill-opacity:1"
         d="m 130.62245,119.79585 c 0.0785,-0.19511 0.14545,-0.36075 0.14879,-0.36808 0.003,-0.007 0.0511,-0.12574 0.10608,-0.26315 0.14998,-0.37473 0.29435,-0.73363 0.30417,-0.75616 0.005,-0.0109 0.0717,-0.17738 0.14885,-0.36974 0.0771,-0.19238 0.14642,-0.36444 0.15411,-0.38236 0.007,-0.0179 0.0127,-0.0337 0.0113,-0.0353 -0.002,-0.002 -0.0277,0.0153 -0.0584,0.0374 -0.2033,0.14576 -0.48946,0.21974 -0.85859,0.22197 -0.10598,5.6e-4 -0.13155,-0.001 -0.18238,-0.0138 -0.18513,-0.0456 -0.3544,-0.18787 -0.42167,-0.35441 -0.0379,-0.0938 -0.0467,-0.22283 -0.022,-0.32532 0.0443,-0.18477 0.2003,-0.34269 0.40626,-0.41126 0.0537,-0.0179 0.0627,-0.0189 0.17655,-0.0189 0.11342,0 0.12298,0.001 0.17655,0.0186 0.16177,0.0533 0.30968,0.17975 0.37262,0.31856 0.0547,0.12074 0.0614,0.27023 0.0179,0.39996 -0.0107,0.0306 -0.013,0.0471 -0.009,0.0501 0.0152,0.01 0.16053,0.004 0.20394,-0.007 0.14166,-0.0375 0.2558,-0.13104 0.35066,-0.28749 0.0164,-0.0269 0.18231,-0.43906 0.18231,-0.45268 0,-0.002 0.005,-0.0165 0.0127,-0.0321 0.007,-0.0155 0.0242,-0.059 0.0382,-0.0966 l 0.0255,-0.0683 h 0.0957 c 0.0884,0 0.0954,0.001 0.0915,0.0117 -0.002,0.006 -0.32259,0.80537 -0.71163,1.77546 l -0.70736,1.7638 h -0.0981 -0.0981 z"
         id="path7760" />
      <path
         style="fill:url(#linearGradient19390);stroke-width:0.0122369;fill-opacity:1"
         d="m 116.49168,124.02212 c -0.17068,-0.0328 -0.3429,-0.10737 -0.47113,-0.20378 -0.29665,-0.22303 -0.48966,-0.61829 -0.4479,-0.91726 0.0318,-0.22775 0.16123,-0.40958 0.35981,-0.5055 0.4202,-0.20297 0.90723,0.1097 0.90645,0.58188 -2.9e-4,0.17423 -0.0631,0.33393 -0.17673,0.45008 -0.12428,0.1269 -0.24914,0.18524 -0.4183,0.19544 -0.0589,0.004 -0.10706,0.0108 -0.10706,0.0157 0,0.0185 0.0916,0.0892 0.15218,0.11722 0.11636,0.054 0.22372,0.0698 0.42764,0.0626 0.29043,-0.009 0.46238,-0.0665 0.60434,-0.19794 0.19768,-0.18301 0.3092,-0.45939 0.32865,-0.81441 0.0111,-0.20193 -0.007,-0.33508 -0.12246,-0.87493 -0.0914,-0.42915 -0.10388,-0.4771 -0.12492,-0.47587 -0.0128,5.8e-4 -0.0729,0.0108 -0.1335,0.0216 -0.34687,0.0636 -0.77642,0.0218 -1.12896,-0.10997 -0.68736,-0.25682 -1.21378,-0.80155 -1.40865,-1.45764 -0.0608,-0.20478 -0.0795,-0.34108 -0.0793,-0.57843 3e-4,-0.4137 0.0965,-0.78409 0.3107,-1.19718 0.22548,-0.43481 0.56372,-0.84925 1.10697,-1.35646 0.15481,-0.14451 0.28616,-0.26933 0.29187,-0.27737 0.005,-0.008 -0.0146,-0.13418 -0.0511,-0.30802 -0.0802,-0.3825 -0.0946,-0.46335 -0.12425,-0.69442 -0.0794,-0.62104 -0.0238,-1.08063 0.19222,-1.58751 0.15047,-0.35298 0.33875,-0.59449 0.54172,-0.69482 0.0604,-0.0298 0.0806,-0.0334 0.19581,-0.0334 0.12215,0 0.13238,0.002 0.20801,0.0415 0.33501,0.17438 0.5629,0.73898 0.5629,1.39459 0,0.82988 -0.3215,1.6201 -1.00876,2.47932 -0.0645,0.0805 -0.11698,0.15482 -0.11694,0.1652 8e-5,0.0141 0.18999,0.90524 0.22595,1.06008 0.005,0.0241 0.0109,0.0248 0.0826,0.0142 0.0422,-0.005 0.13456,-0.007 0.20524,-0.005 0.34183,0.0177 0.66459,0.17285 0.94659,0.45484 0.20004,0.20004 0.30887,0.37955 0.37111,0.61204 0.0297,0.11087 0.0325,0.14185 0.0331,0.354 2.9e-4,0.19537 -0.004,0.25234 -0.0265,0.35669 -0.0827,0.37972 -0.25206,0.69704 -0.50921,0.95353 -0.13771,0.13736 -0.23803,0.21208 -0.36514,0.27197 -0.0385,0.0182 -0.0704,0.0403 -0.0704,0.0488 -8e-5,0.008 0.049,0.2427 0.1092,0.52008 0.0601,0.27737 0.11518,0.54739 0.12237,0.60003 0.0185,0.13621 0.016,0.41133 -0.005,0.54088 -0.0793,0.48894 -0.38781,0.83212 -0.85335,0.94926 -0.0772,0.0195 -0.14984,0.0266 -0.3034,0.0296 -0.11104,0.002 -0.21567,0.002 -0.2325,-0.002 z m 0.68778,-2.78843 c 0.0558,-0.009 0.12155,-0.0236 0.14605,-0.0305 0.0437,-0.0125 0.0443,-0.0134 0.0346,-0.0584 -0.005,-0.025 -0.10451,-0.49168 -0.22005,-1.03679 -0.11552,-0.54511 -0.2124,-0.99495 -0.21529,-0.99962 -0.006,-0.0109 -0.11552,0.0265 -0.19676,0.0675 -0.19393,0.0982 -0.34217,0.30462 -0.39697,0.55257 -0.0198,0.09 -0.0201,0.38794 -5.8e-4,0.48818 0.0315,0.16101 0.1089,0.2692 0.32047,0.44866 0.0739,0.0627 0.13441,0.11843 0.13441,0.12379 0,0.02 -0.26067,-0.0932 -0.38766,-0.16823 -0.31331,-0.18524 -0.50638,-0.43237 -0.5735,-0.73411 -0.0305,-0.13722 -0.0197,-0.36439 0.0244,-0.51276 0.11237,-0.37772 0.40041,-0.71281 0.77423,-0.90067 0.0658,-0.033 0.12657,-0.0601 0.13497,-0.0603 0.008,-6e-5 0.0154,-0.007 0.0154,-0.0179 0,-0.0252 -0.18243,-0.88942 -0.19311,-0.91474 -0.006,-0.0169 -0.0235,-0.004 -0.0871,0.0673 -0.043,0.0485 -0.20046,0.22037 -0.34988,0.3819 -0.62378,0.67435 -0.67041,0.73017 -0.76843,0.91999 -0.12666,0.24522 -0.17433,0.46575 -0.16357,0.75646 0.0171,0.46095 0.19205,0.85453 0.52757,1.18698 0.21945,0.21744 0.42764,0.33546 0.72494,0.41091 0.24123,0.0612 0.48145,0.0713 0.71584,0.0297 z m 0.47373,-0.17192 c 0.13879,-0.0793 0.27181,-0.21495 0.35352,-0.36037 0.0503,-0.0896 0.11913,-0.29856 0.14251,-0.43297 0.0685,-0.39471 -0.0625,-0.75127 -0.35912,-0.97624 -0.15261,-0.11575 -0.3546,-0.19357 -0.55303,-0.21313 -0.0828,-0.007 -0.088,-0.006 -0.0826,0.0145 0.003,0.0128 0.10175,0.46779 0.21909,1.01122 0.11733,0.54343 0.2161,0.98802 0.21946,0.98798 0.004,-2e-5 0.0305,-0.0139 0.0601,-0.0309 z m -0.93146,-4.88499 c 0.35221,-0.33011 0.49455,-0.53205 0.65638,-0.93124 0.11999,-0.29605 0.16443,-0.48218 0.17431,-0.72993 0.009,-0.24898 -0.0333,-0.44566 -0.11436,-0.52192 -0.0265,-0.025 -0.0428,-0.0287 -0.12443,-0.0287 -0.0826,0 -0.10495,0.005 -0.18564,0.0439 -0.22961,0.10993 -0.44016,0.35054 -0.55588,0.63522 -0.1059,0.26044 -0.14518,0.46931 -0.14511,0.77093 3e-5,0.23421 0.0188,0.39823 0.0776,0.67916 0.0464,0.22206 0.0476,0.22637 0.0564,0.22637 0.004,0 0.0767,-0.0647 0.16093,-0.14379 z"
         id="path7971" />
      <path
         style="color:#000000;fill:url(#linearGradient19390);stroke-linecap:round;stroke-linejoin:round;-inkscape-stroke:none;fill-opacity:1"
         d="m 135.04406,110.38086 c -0.0593,0.0162 -0.0942,0.0774 -0.0781,0.13672 l 0.9375,3.41015 c 0.0272,0.11409 0.18957,0.11409 0.2168,0 l 0.91211,-3.41015 c 0.0149,-0.0587 -0.0198,-0.11852 -0.0781,-0.13477 -0.0593,-0.0161 -0.12049,0.12988 -0.13672,0.18918 l -0.80859,2.81796 -0.82812,-2.81992 c -0.0162,-0.0593 -0.0774,-0.20528 -0.13672,-0.18918 z"
         id="path8203"
         sodipodi:nodetypes="sccccccccss" />
      <text
         xml:space="preserve"
         style="font-size:5.52168px;line-height:1.25;font-family:SarabandeW00-RegularItalic;-inkscape-font-specification:SarabandeW00-RegularItalic;stroke-width:0.138042;fill-opacity:1;fill:url(#linearGradient19390)"
         x="176.8109"
         y="110.79277"
         id="text9490"><tspan
           sodipodi:role="line"
           id="tspan9488"
           style="stroke-width:0.138042;fill-opacity:1;fill:url(#linearGradient19390)"
           x="176.8109"
           y="110.79277">3</tspan></text>
      <text
         xml:space="preserve"
         style="font-size:8.38308px;line-height:1.25;font-family:SarabandeW00-RegularItalic;-inkscape-font-specification:SarabandeW00-RegularItalic;stroke-width:0.209577;fill-opacity:1;fill:url(#linearGradient19390)"
         x="100.20216"
         y="213.00371"
         id="text10892"
         transform="matrix(0.95546985,-0.52009264,0.4394831,0.80738087,0,0)"><tspan
           sodipodi:role="line"
           id="tspan10890"
           style="stroke-width:0.209577;fill-opacity:1;fill:url(#linearGradient19390)"
           x="100.20216"
           y="213.00371">.</tspan></text>
      <text
         xml:space="preserve"
         style="font-size:8.38308px;line-height:1.25;font-family:SarabandeW00-RegularItalic;-inkscape-font-specification:SarabandeW00-RegularItalic;stroke-width:0.209577;fill-opacity:1;fill:url(#linearGradient19390)"
         x="119.755"
         y="218.71962"
         id="text12846"
         transform="matrix(0.95546985,-0.52009264,0.4394831,0.80738087,0,0)"><tspan
           sodipodi:role="line"
           id="tspan12844"
           style="stroke-width:0.209577;fill-opacity:1;fill:url(#linearGradient19390)"
           x="119.755"
           y="218.71962">.</tspan></text>
      <path
         style="fill:url(#linearGradient19390);stroke-width:0.0334227;fill-opacity:1"
         d="m 211.64036,114.75205 c 0.21074,0.0754 0.35832,0.20722 0.41101,0.36687 0.054,0.16366 0.021,0.53009 -0.0623,0.69165 -0.17442,0.33825 -0.54608,0.6335 -0.95309,0.75713 -0.2787,0.0846 -0.73877,0.0771 -0.92329,-0.015 -0.0625,-0.0313 -0.12648,-0.0569 -0.14204,-0.0569 -0.0155,0 -0.0283,1.3461 -0.0283,2.99134 v 2.78085 h -0.083 c -0.0593,0 -0.0872,-0.0214 -0.0978,-0.0751 l 0.0135,-1.81997 v -2.28338 c 0,-2.54164 -0.006,-2.47473 0.22567,-2.78016 0.34688,-0.45848 1.15148,-0.73193 1.63946,-0.55717 z"
         id="path3103"
         sodipodi:nodetypes="ssssssscsccssss" />
      <path
         id="path3105"
         style="fill:url(#linearGradient19390);stroke-width:0.0334227;fill-opacity:1"
         d="m 221.10544,114.69894 c -0.4605,0.007 -1.01109,0.25211 -1.28209,0.6103 -0.23167,0.30543 -0.22583,0.23855 -0.22583,2.78019 v 2.28358 l -0.009,1.23714 h -3.27938 v -1.29605 c 0,-1.64524 0.0129,-2.99155 0.0284,-2.99155 0.0156,0 0.0796,0.0255 0.14211,0.0569 0.18452,0.0921 0.64424,0.0996 0.92294,0.015 0.40701,-0.12363 0.77901,-0.41881 0.95343,-0.75706 0.0833,-0.16156 0.11601,-0.52777 0.062,-0.69143 -0.0527,-0.15965 -0.20009,-0.2915 -0.41083,-0.3669 -0.48798,-0.17476 -1.29281,0.0986 -1.63969,0.55707 -0.23167,0.30543 -0.21281,0.23858 -0.22583,2.78019 l -0.0114,2.28203 -0.002,0.41187 v 0.94567 h 6.84506 v -0.16536 -0.78031 -1.34566 c 0,-1.64524 0.0129,-2.99155 0.0284,-2.99155 0.0156,0 0.0796,0.0255 0.14211,0.0568 0.18452,0.0921 0.64424,0.0996 0.92294,0.015 0.40701,-0.12363 0.77901,-0.41881 0.95343,-0.75706 0.0833,-0.16156 0.11601,-0.52777 0.062,-0.69143 -0.0527,-0.15965 -0.20008,-0.2915 -0.41082,-0.3669 -0.48799,-0.17476 -1.29282,0.0986 -1.6397,0.55707 -0.23167,0.30543 -0.22582,0.23855 -0.22582,2.78019 v 2.28359 l -0.005,0.45992 h -3.03548 v -2.12287 c 0,-1.64524 0.0129,-2.99155 0.0284,-2.99155 0.0156,0 0.0796,0.0255 0.14211,0.0568 0.18452,0.0921 0.64424,0.0996 0.92294,0.015 0.40701,-0.12363 0.77901,-0.41881 0.95343,-0.75706 0.0833,-0.16156 0.11601,-0.52777 0.062,-0.69143 -0.0527,-0.15965 -0.20009,-0.29151 -0.41083,-0.3669 -0.10674,-0.0382 -0.22866,-0.0551 -0.3576,-0.0532 z" />
      <path
         style="fill:url(#linearGradient19390);stroke-width:0.0334227;fill-opacity:1"
         d="m 227.88601,116.64406 c 0.21074,0.0754 0.35832,0.20722 0.41101,0.36687 0.054,0.16366 0.021,0.53009 -0.0623,0.69165 -0.17442,0.33825 -0.54608,0.6335 -0.95309,0.75713 -0.2787,0.0846 -0.73877,0.0771 -0.92329,-0.015 -0.0625,-0.0313 -0.12648,-0.0569 -0.14204,-0.0569 -0.0155,0 -0.0283,1.3461 -0.0283,2.99134 v 2.23064 h -0.083 c -0.0593,0 -0.0872,-0.0214 -0.0978,-0.0751 l 0.0135,-1.26976 v -2.28338 c 0,-2.54164 -0.006,-2.47473 0.22567,-2.78016 0.34688,-0.45848 1.15148,-0.73193 1.63946,-0.55717 z"
         id="path3111"
         sodipodi:nodetypes="ssssssscsccssss" />
      <path
         id="path3644"
         style="fill:url(#linearGradient21606);fill-opacity:1;stroke-width:0.126322"
         d="M 466.125 28.671875 C 464.3845 28.697677 462.30355 29.624736 461.2793 30.978516 C 460.40369 32.132897 460.47492 31.880243 460.42578 41.486328 L 460.38281 50.111328 L 460.375 52.683594 L 460.375 56.339844 L 486.24609 56.339844 L 486.24609 52.683594 L 478.0293 52.683594 L 478.0293 46.767578 C 478.0293 40.549348 478.07814 35.462891 478.13672 35.462891 C 478.19553 35.462891 478.43565 35.559435 478.67188 35.677734 C 479.36927 36.025829 481.10876 36.054123 482.16211 35.734375 C 483.70041 35.267112 485.10445 34.151472 485.76367 32.873047 C 486.07851 32.262426 486.20409 30.87637 486 30.257812 C 485.80086 29.654411 485.24376 29.15607 484.44727 28.871094 L 484.44727 28.873047 C 482.60293 28.212537 479.56104 29.245678 478.25 30.978516 C 477.3744 32.132897 477.44562 31.880243 477.39648 41.486328 L 477.35352 50.111328 L 477.3457 52.683594 L 461.05859 52.683594 L 461.05859 46.767578 C 461.05859 40.549348 461.10743 35.462891 461.16602 35.462891 C 461.22483 35.462891 461.46495 35.559435 461.70117 35.677734 C 462.39857 36.025829 464.13805 36.054123 465.19141 35.734375 C 466.72971 35.267112 468.13374 34.151472 468.79297 32.873047 C 469.1078 32.262426 469.23339 30.87637 469.0293 30.257812 C 468.83015 29.654411 468.27306 29.15607 467.47656 28.871094 L 467.47656 28.873047 C 467.07311 28.72856 466.61234 28.66465 466.125 28.671875 z "
         transform="matrix(0.26458333,0,0,0.26458333,113.19692,108.98166)" />
      <path
         style="color:#000000;fill:url(#linearGradient19390);stroke-linecap:round;-inkscape-stroke:none;fill-opacity:1"
         d="m 220.56039,113.21758 c -1.03476,-0.002 -2.41827,0.59883 -3.2183,1.58676 -0.0456,0.0567 -0.0556,0.12272 -0.0239,0.15144 0.0318,0.0287 0.09,0.009 0.13593,-0.0474 0.74396,-0.91868 1.94021,-1.35753 3.09769,-1.38059 1.15588,-0.023 2.36548,0.45074 3.09736,1.20516 0.0484,0.0553 0.13263,0.0565 0.15339,0.0334 0.0208,-0.0231 0.046,-0.0946 -0.003,-0.1495 -1.37719,-1.17072 -2.20454,-1.39729 -3.2393,-1.39926 z"
         id="path12988"
         sodipodi:nodetypes="zczcsczczz" />
      <text
         xml:space="preserve"
         style="font-size:5.52168px;line-height:1.25;font-family:SarabandeW00-RegularItalic;-inkscape-font-specification:SarabandeW00-RegularItalic;stroke-width:0.138042;fill-opacity:1;fill:url(#linearGradient19390)"
         x="218.73015"
         y="125.50299"
         id="text9490-8"><tspan
           sodipodi:role="line"
           id="tspan9488-8"
           style="stroke-width:0.138042;fill-opacity:1;fill:url(#linearGradient19390)"
           x="218.73015"
           y="125.50299">3</tspan></text>
      <path
         style="fill:url(#linearGradient19390);fill-opacity:1;stroke:#000000;stroke-width:0.4;stroke-linecap:butt;stroke-linejoin:miter;stroke-miterlimit:4;stroke-dasharray:none;stroke-opacity:1"
         d="m 113.39692,114.44021 -0.001,7.79829"
         id="path15528"
         sodipodi:nodetypes="cc" />
      <path
         style="fill:url(#linearGradient19584);stroke:url(#linearGradient19600);stroke-width:0.15;stroke-linecap:butt;stroke-linejoin:miter;stroke-opacity:1;fill-opacity:1;stroke-miterlimit:4;stroke-dasharray:none"
         d="M 113.39795,114.51468 H 252.42938"
         id="path16042" />
      <path
         style="fill:url(#linearGradient19582);stroke:url(#linearGradient19598);stroke-width:0.15;stroke-linecap:butt;stroke-linejoin:miter;stroke-opacity:1;fill-opacity:1;stroke-miterlimit:4;stroke-dasharray:none"
         d="M 113.39795,116.53213 H 252.42938"
         id="path16160" />
      <path
         style="fill:url(#linearGradient19576);stroke:url(#linearGradient19592);stroke-width:0.15;stroke-linecap:butt;stroke-linejoin:miter;stroke-opacity:1;fill-opacity:1;stroke-miterlimit:4;stroke-dasharray:none"
         d="M 113.39795,118.40902 H 252.42938"
         id="path16162" />
      <path
         style="fill:url(#linearGradient19578);stroke:url(#linearGradient19594);stroke-width:0.15;stroke-linecap:butt;stroke-linejoin:miter;stroke-opacity:1;fill-opacity:1;stroke-miterlimit:4;stroke-dasharray:none"
         d="M 113.39795,120.26937 H 252.42938"
         id="path16164" />
      <path
         style="fill:url(#linearGradient19580);stroke:url(#linearGradient19596);stroke-width:0.15;stroke-linecap:butt;stroke-linejoin:miter;stroke-opacity:1;fill-opacity:1;stroke-miterlimit:4;stroke-dasharray:none"
         d="M 113.39795,122.16305 H 252.42938"
         id="path16166" />
      <path
         style="color:#000000;fill:url(#linearGradient19390);stroke-width:1.99017;stroke-linecap:round;-inkscape-stroke:none;fill-opacity:1"
         d="m 203.49179,111.80428 c -2.20985,-0.004 -5.14695,1.11061 -6.85551,2.94286 -0.0974,0.10516 -0.13628,0.2276 -0.0685,0.28087 0.0679,0.0532 0.18052,-0.004 0.27861,-0.10836 1.58881,-1.70382 4.15522,-2.66262 6.62715,-2.70539 2.46851,-0.0427 5.07221,0.9867 6.63522,2.38587 0.10337,0.10256 0.26279,0.11941 0.30713,0.0765 0.0444,-0.0428 0.0631,-0.16083 -0.0411,-0.26264 -2.94115,-2.17126 -4.67297,-2.60608 -6.88281,-2.60974 z"
         id="path16875"
         sodipodi:nodetypes="zczcsczczz" />
      <path
         style="color:#000000;fill:url(#linearGradient19390);stroke-width:1.29579;stroke-linecap:round;-inkscape-stroke:none;fill-opacity:1"
         d="m 231.97897,113.87257 c -1.43881,-0.003 -3.36256,0.72312 -4.47499,1.91608 -0.0634,0.0685 -0.0773,0.14819 -0.0332,0.18287 0.0442,0.0346 0.12515,0.0109 0.18901,-0.0572 1.03447,-1.10934 2.69783,-1.63927 4.30729,-1.66712 1.60723,-0.0278 3.31396,0.76753 4.33162,1.67852 0.0673,0.0668 0.18443,0.0682 0.2133,0.0403 0.0289,-0.0279 0.0639,-0.11424 -0.004,-0.18053 -1.91496,-1.41369 -3.09018,-1.91052 -4.52899,-1.9129 z"
         id="path17132"
         sodipodi:nodetypes="zczcsczczz" />
      <path
         style="color:#000000;fill:url(#linearGradient19390);stroke-width:1.25331;stroke-linecap:round;-inkscape-stroke:none;fill-opacity:1"
         d="m 176.58113,122.88983 c 1.29688,0.003 3.03085,-0.75052 4.03353,-1.98871 0.0572,-0.0711 0.0697,-0.1538 0.03,-0.1898 -0.0399,-0.036 -0.1128,-0.0113 -0.17036,0.0594 -0.93242,1.15139 -2.43169,1.70141 -3.88238,1.73031 -1.44867,0.0288 -2.96468,-0.56492 -3.88196,-1.51044 -0.0607,-0.0693 -0.16622,-0.0708 -0.19224,-0.0419 -0.0261,0.029 -0.0576,0.11856 0.004,0.18737 1.72605,1.46727 2.76298,1.75124 4.05985,1.75371 z"
         id="path17560"
         sodipodi:nodetypes="zczcsczczz" />
      <path
         style="color:#000000;fill:url(#linearGradient19390);stroke-width:1.70518;stroke-linecap:round;-inkscape-stroke:none;fill-opacity:1"
         d="m 160.47894,113.43872 c -1.77771,-0.40701 -4.32871,0.032 -6.01144,1.32193 -0.0961,0.0741 -0.1479,0.1741 -0.10232,0.23301 0.0457,0.0589 0.14603,0.029 0.24242,-0.0439 1.56479,-1.19953 3.79122,-1.56951 5.78777,-1.15601 1.99379,0.41298 3.16798,1.13925 4.93925,2.99819 0.0659,0.10852 0.19144,0.15232 0.23433,0.12288 0.0429,-0.0293 0.0778,-0.12908 0.0111,-0.23708 -2.15437,-2.37595 -3.32308,-2.83275 -5.10091,-3.23902 z"
         id="path17562"
         sodipodi:nodetypes="zczcsczczz" />
      <path
         style="color:#000000;fill:url(#linearGradient19390);stroke-width:1.49564;stroke-linecap:round;-inkscape-stroke:none;fill-opacity:1"
         d="m 141.71927,112.50487 c -1.73015,-0.003 -4.04343,0.80115 -5.38111,2.12284 -0.0762,0.0759 -0.0929,0.16418 -0.0399,0.20261 0.0532,0.0383 0.15049,0.0121 0.22728,-0.0634 1.24393,-1.22905 3.2441,-1.81616 5.17945,-1.84702 1.93267,-0.0308 3.98498,0.85036 5.20871,1.85965 0.081,0.074 0.22177,0.0756 0.25649,0.0447 0.0347,-0.0309 0.0768,-0.12656 -0.004,-0.20001 -2.30272,-1.56624 -3.7159,-2.11669 -5.44604,-2.11932 z"
         id="path18127"
         sodipodi:nodetypes="zczcsczczz" />
      <path
         style="fill:url(#linearGradient19390);stroke-width:0.0046266;fill-opacity:1"
         d="m 123.19135,122.03728 v -0.10888 l 0.0127,-0.003 c 0.0771,-0.0172 0.16299,-0.0459 0.2163,-0.0724 0.10635,-0.0529 0.18221,-0.13282 0.20343,-0.21425 0.0101,-0.0386 0.0101,-0.32218 1.1e-4,-0.36993 -0.0232,-0.11039 -0.10534,-0.18629 -0.22899,-0.21154 l -0.0486,-0.01 -0.67867,0.0106 c -0.37327,0.006 -0.68075,0.009 -0.68328,0.008 -0.01,-0.006 -0.0237,-0.0544 -0.0237,-0.0815 0,-0.0516 0.005,-0.0596 0.18436,-0.31217 0.30135,-0.4237 0.45085,-0.67135 0.57675,-0.95539 0.15748,-0.3553 0.24155,-0.68394 0.26631,-1.04099 0.009,-0.12644 0.0323,-0.19102 0.0785,-0.21517 0.0368,-0.0192 0.0519,-0.0201 0.48096,-0.0274 0.22775,-0.004 0.46173,-0.008 0.51995,-0.01 l 0.10589,-0.003 -0.015,0.0269 c -0.11064,0.19839 -0.33445,0.52031 -0.58966,0.84814 -0.3477,0.44664 -0.72732,0.89142 -1.27151,1.48976 l -0.0442,0.0486 0.67131,0.001 c 0.36922,7.6e-4 0.67265,-3.6e-4 0.67429,-0.002 0.002,-0.002 0.008,-0.0774 0.0131,-0.16779 0.01,-0.16282 0.01,-0.16454 0.001,-0.19018 -0.0166,-0.0482 -0.0498,-0.0922 -0.10036,-0.13311 l -0.0326,-0.0264 0.49764,-0.58254 c 0.44393,-0.51968 0.49776,-0.58106 0.49874,-0.56884 7.6e-4,0.008 0.006,0.33432 0.0126,0.72619 0.006,0.39187 0.0128,0.76507 0.0144,0.82932 l 0.003,0.11682 h 0.22396 0.22396 l -0.001,0.0983 -0.001,0.0983 -0.22786,0.001 -0.22786,10e-4 v 0.24476 c 0,0.26442 0.001,0.28139 0.0252,0.34493 0.049,0.12986 0.14575,0.20939 0.28477,0.23403 0.0165,0.003 0.0566,0.005 0.0891,0.005 l 0.059,7e-5 v 0.13538 0.13539 l -0.16771,0.003 c -0.0922,0.001 -0.48886,0.004 -0.88137,0.005 l -0.71365,0.003 v -0.10886 z m 0.0925,-3.73657 c -0.16084,-0.005 -0.27556,-0.0196 -0.40713,-0.0529 -0.16375,-0.0414 -0.30169,-0.10176 -0.4175,-0.18264 -0.0573,-0.04 -0.15531,-0.1384 -0.19234,-0.19307 -0.12465,-0.18407 -0.1707,-0.43577 -0.10859,-0.5936 0.0213,-0.0542 0.0473,-0.0927 0.0938,-0.1388 0.0487,-0.0483 0.0921,-0.0767 0.15756,-0.10312 0.0692,-0.0279 0.0957,-0.0326 0.16402,-0.029 0.28381,0.015 0.46194,0.12976 0.5124,0.33006 0.008,0.0335 0.0101,0.0535 0.0102,0.11894 6e-5,0.0439 -0.003,0.0921 -0.006,0.10914 -0.009,0.0475 -0.0355,0.12718 -0.0782,0.2346 -0.0307,0.0774 -0.0397,0.10523 -0.0417,0.12978 -0.006,0.0769 0.0374,0.14485 0.12731,0.1975 0.0537,0.0314 0.10181,0.047 0.16323,0.0527 0.19083,0.0179 0.38697,-0.0127 0.52439,-0.0817 0.0665,-0.0334 0.10341,-0.0599 0.15582,-0.11202 0.0911,-0.0905 0.13778,-0.18198 0.17348,-0.33979 0.0546,-0.24116 0.0312,-0.4771 -0.0677,-0.68199 -0.0389,-0.0807 -0.0729,-0.13037 -0.12667,-0.1853 -0.20861,-0.21302 -0.50924,-0.33104 -0.81023,-0.31809 -0.0382,0.002 -0.0819,0.005 -0.0972,0.007 -0.0153,0.002 -0.0289,0.003 -0.0302,0.003 -0.001,-7.5e-4 7.6e-4,-0.0354 0.005,-0.0769 l 0.007,-0.0756 0.10873,-0.003 c 0.1836,-0.005 0.31845,-0.0265 0.46181,-0.0738 0.14854,-0.049 0.25819,-0.11376 0.34701,-0.20504 0.0661,-0.068 0.11201,-0.14217 0.139,-0.22481 0.0483,-0.14788 0.0487,-0.38656 10e-4,-0.57222 -0.0358,-0.13923 -0.10337,-0.26422 -0.19402,-0.35866 -0.0582,-0.0606 -0.10927,-0.0983 -0.18698,-0.13797 -0.11823,-0.0603 -0.18667,-0.0764 -0.3088,-0.0725 -0.11348,0.004 -0.19415,0.024 -0.30304,0.0767 -0.11874,0.0575 -0.16853,0.11525 -0.16322,0.18946 0.003,0.0379 0.0152,0.0632 0.0528,0.10713 0.0875,0.10222 0.1733,0.26935 0.19407,0.37792 0.009,0.0449 0.008,0.12076 -3.6e-4,0.15828 -0.0148,0.0628 -0.0602,0.12677 -0.12058,0.16985 -0.0401,0.0286 -0.13304,0.0721 -0.20664,0.0967 -0.1926,0.0644 -0.36636,0.0476 -0.45682,-0.044 -0.0643,-0.0652 -0.1327,-0.19384 -0.15975,-0.30073 -0.076,-0.30024 0.0874,-0.55627 0.47667,-0.74712 0.20435,-0.10018 0.41505,-0.16235 0.64541,-0.19043 0.0833,-0.0102 0.31197,-0.0117 0.39326,-0.003 0.13024,0.0145 0.26536,0.0419 0.3817,0.0772 0.16103,0.0489 0.33357,0.12765 0.41871,0.19107 0.0419,0.0312 0.129,0.11525 0.16879,0.16287 0.0892,0.10673 0.1505,0.22898 0.17666,0.3522 0.0114,0.0537 0.0115,0.1757 1.2e-4,0.232 -0.0245,0.12186 -0.0864,0.24731 -0.17838,0.36184 -0.0965,0.12016 -0.17518,0.18876 -0.3245,0.283 -0.0293,0.0185 -0.0569,0.0363 -0.0614,0.0396 -0.007,0.005 -0.003,0.0102 0.0486,0.0481 0.23123,0.17151 0.4332,0.41518 0.533,0.64306 0.0711,0.16235 0.10666,0.33173 0.0953,0.4539 -0.009,0.10154 -0.0277,0.16713 -0.0719,0.25815 -0.0943,0.19426 -0.25566,0.34174 -0.51579,0.47138 -0.20772,0.10353 -0.44995,0.15174 -0.82816,0.16483 -0.07,0.003 -0.13452,0.004 -0.14342,0.004 -0.009,-3.7e-4 -0.0672,-0.002 -0.12955,-0.004 z"
         id="path18301" />
      <path
         style="fill:url(#linearGradient19390);stroke-width:0.00140135;fill-opacity:1"
         d="m 119.73629,116.43532 -3.4e-4,-0.666 -0.18918,0.0529 c -0.10405,0.0291 -0.1906,0.0532 -0.19234,0.0536 l -0.003,9.3e-4 v -0.27165 -0.27167 l 0.005,-0.001 c 0.003,-9.3e-4 0.0894,-0.025 0.19234,-0.0536 0.10289,-0.0286 0.18724,-0.0522 0.18743,-0.0524 1.7e-4,-1.7e-4 1.7e-4,-0.29478 0,-0.65466 l -3.4e-4,-0.65432 -0.18918,0.0529 c -0.10405,0.0291 -0.19061,0.0532 -0.19234,0.0536 l -0.003,9.3e-4 3.4e-4,-0.27292 3.4e-4,-0.27293 0.19233,-0.0538 0.19234,-0.0539 v -0.67662 -0.67662 h 0.0743 0.0743 v 0.65163 c 0,0.3584 4.9e-4,0.65162 0.001,0.6516 5.9e-4,-2e-5 0.12654,-0.0361 0.27992,-0.0803 l 0.27887,-0.0802 3.4e-4,-0.69049 3.4e-4,-0.69048 h 0.0792 0.0792 v 0.66994 c 0,0.63738 8e-5,0.66992 0.002,0.66924 0.0286,-0.008 0.38029,-0.10598 0.38138,-0.10598 0.001,0 0.001,0.0739 0.001,0.27203 l -3.4e-4,0.27202 -0.19199,0.0536 -0.19199,0.0536 -3.3e-4,0.65616 c -2.6e-4,0.52476 -1e-5,0.65603 10e-4,0.6555 9.3e-4,-3.4e-4 0.0837,-0.0242 0.18393,-0.0529 0.10019,-0.0287 0.18611,-0.0534 0.19093,-0.0547 l 0.009,-0.002 v 0.27282 0.27282 l -0.19269,0.054 -0.19268,0.054 v 0.6723 0.67231 h -0.0792 -0.0792 v -0.64757 -0.64759 l -0.003,4.9e-4 c -0.002,3.4e-4 -0.12786,0.0349 -0.28028,0.0768 l -0.27712,0.0762 v 0.68989 0.6899 h -0.0742 -0.0743 z m 0.4351,-1.33364 c 0.15009,-0.0432 0.27321,-0.0786 0.27361,-0.0786 4.3e-4,0 7.4e-4,-0.2952 7.4e-4,-0.65599 v -0.65599 l -0.004,9.4e-4 c -0.004,9.3e-4 -0.53722,0.14802 -0.54934,0.15147 l -0.007,0.002 v 0.65923 0.65922 l 0.007,-0.002 c 0.004,-9.3e-4 0.12946,-0.0373 0.27955,-0.0805 z"
         id="path18512" />
      <path
         style="fill:url(#linearGradient22136);fill-opacity:1;stroke:#000000;stroke-width:0.4;stroke-linecap:butt;stroke-linejoin:miter;stroke-miterlimit:4;stroke-dasharray:none;stroke-opacity:1"
         d="m 150.77032,114.43991 -0.001,7.79829"
         id="path22134"
         sodipodi:nodetypes="cc" />
      <path
         style="fill:url(#linearGradient22140);fill-opacity:1;stroke:#000000;stroke-width:0.4;stroke-linecap:butt;stroke-linejoin:miter;stroke-miterlimit:4;stroke-dasharray:none;stroke-opacity:1"
         d="m 184.30626,114.43991 -0.001,7.79829"
         id="path22138"
         sodipodi:nodetypes="cc" />
      <path
         style="fill:url(#linearGradient22144);fill-opacity:1;stroke:#000000;stroke-width:0.4;stroke-linecap:butt;stroke-linejoin:miter;stroke-miterlimit:4;stroke-dasharray:none;stroke-opacity:1"
         d="m 207.06043,114.44016 -0.001,7.79829"
         id="path22142"
         sodipodi:nodetypes="cc" />
      <path
         style="fill:url(#linearGradient22148);fill-opacity:1;stroke:#000000;stroke-width:0.4;stroke-linecap:butt;stroke-linejoin:miter;stroke-miterlimit:4;stroke-dasharray:none;stroke-opacity:1"
         d="m 231.66668,114.43991 -0.001,7.79829"
         id="path22146"
         sodipodi:nodetypes="cc" />
      <path
         id="path933"
         style="fill:#000000;stroke-width:0.0341808"
         d="m 135.22866,123.30509 4.9e-4,-0.17944 c 8.8e-4,-0.25411 0.0858,-0.58375 0.21156,-0.81967 0.0593,-0.11124 0.25501,-0.37239 0.43494,-0.58035 0.92691,-1.07125 1.13198,-1.45836 1.13712,-2.14624 0.004,-0.45328 -0.18954,-1.15535 -0.47126,-1.71504 -0.14114,-0.2804 -0.21232,-0.33773 -0.11208,-0.0903 0.0405,0.0999 0.14447,0.38169 0.23111,0.62608 0.15275,0.43089 0.15746,0.45626 0.15662,0.83743 -8.9e-4,0.27955 -0.0187,0.45174 -0.0626,0.59622 -0.18493,0.60759 -0.47917,0.96187 -1.01561,1.22296 -0.17724,0.0863 -0.36414,0.16619 -0.41532,0.17759 l -0.093,0.0208 c 0,0 -0.002,0 -0.002,0 v -0.8895 c 0,-1.61675 0.006,-2.93956 0.0129,-2.93956 0.007,0 0.0782,0.0231 0.1581,0.0512 0.20911,0.0738 0.60962,0.0659 0.8445,-0.0168 0.41782,-0.14685 0.79702,-0.4505 0.95714,-0.76646 0.22843,-0.4508 -0.01,-0.9354 -0.49423,-1.00673 h -6e-5 c -0.0893,-0.0131 -0.24898,-0.0122 -0.35496,0.002 -0.51284,0.0685 -0.9787,0.38384 -1.21209,0.82066 -0.10203,0.17787 -0.13316,0.37763 -0.13445,0.51119 -0.002,0.13356 -0.008,1.98615 -0.008,1.98615 l -0.01,2.24779 c 0.002,2.24311 9e-5,0.48034 0.002,2.05005 h 0.11964 z" />
      <path
         id="path2701"
         style="fill:#000000;stroke-width:0.0341808"
         d="m 195.82201,123.25831 4.9e-4,-0.17944 c 8.8e-4,-0.25411 0.0858,-0.58375 0.21156,-0.81967 0.0593,-0.11124 0.25501,-0.37239 0.43494,-0.58035 0.92691,-1.07125 1.13198,-1.45836 1.13712,-2.14624 0.004,-0.45328 -0.18954,-1.15535 -0.47126,-1.71504 -0.14114,-0.2804 -0.21232,-0.33773 -0.11208,-0.0903 0.0405,0.0999 0.14447,0.38169 0.23111,0.62608 0.15275,0.43089 0.15746,0.45626 0.15662,0.83743 -8.9e-4,0.27955 -0.0187,0.45174 -0.0626,0.59622 -0.18493,0.60759 -0.47917,0.96187 -1.01561,1.22296 -0.17724,0.0863 -0.36414,0.16619 -0.41532,0.17759 l -0.093,0.0208 c 0,0 -0.002,0 -0.002,0 v -0.8895 c 0,-1.61675 0.006,-2.93956 0.0129,-2.93956 0.007,0 0.0782,0.0231 0.1581,0.0512 0.20911,0.0738 0.60962,0.0659 0.8445,-0.0168 0.41782,-0.14685 0.79702,-0.4505 0.95714,-0.76646 0.22843,-0.4508 -0.01,-0.9354 -0.49423,-1.00673 h -6e-5 c -0.0893,-0.0131 -0.24898,-0.0122 -0.35496,0.002 -0.51284,0.0685 -0.9787,0.38384 -1.21209,0.82066 -0.10203,0.17787 -0.13316,0.37763 -0.13445,0.51119 -0.002,0.13356 -0.008,1.98615 -0.008,1.98615 l -0.01,2.24779 c 0.002,2.24311 9e-5,0.48034 0.002,2.05005 h 0.11964 z" />
    </g>
  </g>
</svg>
